<?xml version="1.0" encoding="utf-8" standalone="no"?>
<!DOCTYPE svg PUBLIC "-//W3C//DTD SVG 1.1//EN"
  "http://www.w3.org/Graphics/SVG/1.1/DTD/svg11.dtd">
<!-- Created with matplotlib (https://matplotlib.org/) -->
<svg height="345.6pt" version="1.1" viewBox="0 0 460.8 345.6" width="460.8pt" xmlns="http://www.w3.org/2000/svg" xmlns:xlink="http://www.w3.org/1999/xlink">
 <metadata>
  <rdf:RDF xmlns:cc="http://creativecommons.org/ns#" xmlns:dc="http://purl.org/dc/elements/1.1/" xmlns:rdf="http://www.w3.org/1999/02/22-rdf-syntax-ns#">
   <cc:Work>
    <dc:type rdf:resource="http://purl.org/dc/dcmitype/StillImage"/>
    <dc:date>2021-05-03T09:37:35.884499</dc:date>
    <dc:format>image/svg+xml</dc:format>
    <dc:creator>
     <cc:Agent>
      <dc:title>Matplotlib v3.3.4, https://matplotlib.org/</dc:title>
     </cc:Agent>
    </dc:creator>
   </cc:Work>
  </rdf:RDF>
 </metadata>
 <defs>
  <style type="text/css">*{stroke-linecap:butt;stroke-linejoin:round;}</style>
 </defs>
 <g id="figure_1">
  <g id="patch_1">
   <path d="M 0 345.6 
L 460.8 345.6 
L 460.8 0 
L 0 0 
z
" style="fill:#ffffff;"/>
  </g>
  <g id="axes_1">
   <g id="patch_2">
    <path d="M 57.6 307.584 
L 414.72 307.584 
L 414.72 41.472 
L 57.6 41.472 
z
" style="fill:#ffffff;"/>
   </g>
   <g id="matplotlib.axis_1">
    <g id="xtick_1">
     <g id="line2d_1">
      <defs>
       <path d="M 0 0 
L 0 3.5 
" id="m4b254f70b2" style="stroke:#000000;stroke-width:0.8;"/>
      </defs>
      <g>
       <use style="stroke:#000000;stroke-width:0.8;" x="70.887758" xlink:href="#m4b254f70b2" y="307.584"/>
      </g>
     </g>
     <g id="text_1">
      <!-- −2.0 -->
      <g transform="translate(58.746352 322.182437)scale(0.1 -0.1)">
       <defs>
        <path d="M 10.59375 35.5 
L 73.1875 35.5 
L 73.1875 27.203125 
L 10.59375 27.203125 
z
" id="DejaVuSans-8722"/>
        <path d="M 19.1875 8.296875 
L 53.609375 8.296875 
L 53.609375 0 
L 7.328125 0 
L 7.328125 8.296875 
Q 12.9375 14.109375 22.625 23.890625 
Q 32.328125 33.6875 34.8125 36.53125 
Q 39.546875 41.84375 41.421875 45.53125 
Q 43.3125 49.21875 43.3125 52.78125 
Q 43.3125 58.59375 39.234375 62.25 
Q 35.15625 65.921875 28.609375 65.921875 
Q 23.96875 65.921875 18.8125 64.3125 
Q 13.671875 62.703125 7.8125 59.421875 
L 7.8125 69.390625 
Q 13.765625 71.78125 18.9375 73 
Q 24.125 74.21875 28.421875 74.21875 
Q 39.75 74.21875 46.484375 68.546875 
Q 53.21875 62.890625 53.21875 53.421875 
Q 53.21875 48.921875 51.53125 44.890625 
Q 49.859375 40.875 45.40625 35.40625 
Q 44.1875 33.984375 37.640625 27.21875 
Q 31.109375 20.453125 19.1875 8.296875 
z
" id="DejaVuSans-50"/>
        <path d="M 10.6875 12.40625 
L 21 12.40625 
L 21 0 
L 10.6875 0 
z
" id="DejaVuSans-46"/>
        <path d="M 31.78125 66.40625 
Q 24.171875 66.40625 20.328125 58.90625 
Q 16.5 51.421875 16.5 36.375 
Q 16.5 21.390625 20.328125 13.890625 
Q 24.171875 6.390625 31.78125 6.390625 
Q 39.453125 6.390625 43.28125 13.890625 
Q 47.125 21.390625 47.125 36.375 
Q 47.125 51.421875 43.28125 58.90625 
Q 39.453125 66.40625 31.78125 66.40625 
z
M 31.78125 74.21875 
Q 44.046875 74.21875 50.515625 64.515625 
Q 56.984375 54.828125 56.984375 36.375 
Q 56.984375 17.96875 50.515625 8.265625 
Q 44.046875 -1.421875 31.78125 -1.421875 
Q 19.53125 -1.421875 13.0625 8.265625 
Q 6.59375 17.96875 6.59375 36.375 
Q 6.59375 54.828125 13.0625 64.515625 
Q 19.53125 74.21875 31.78125 74.21875 
z
" id="DejaVuSans-48"/>
       </defs>
       <use xlink:href="#DejaVuSans-8722"/>
       <use x="83.789062" xlink:href="#DejaVuSans-50"/>
       <use x="147.412109" xlink:href="#DejaVuSans-46"/>
       <use x="179.199219" xlink:href="#DejaVuSans-48"/>
      </g>
     </g>
    </g>
    <g id="xtick_2">
     <g id="line2d_2">
      <g>
       <use style="stroke:#000000;stroke-width:0.8;" x="112.510476" xlink:href="#m4b254f70b2" y="307.584"/>
      </g>
     </g>
     <g id="text_2">
      <!-- −1.5 -->
      <g transform="translate(100.36907 322.182437)scale(0.1 -0.1)">
       <defs>
        <path d="M 12.40625 8.296875 
L 28.515625 8.296875 
L 28.515625 63.921875 
L 10.984375 60.40625 
L 10.984375 69.390625 
L 28.421875 72.90625 
L 38.28125 72.90625 
L 38.28125 8.296875 
L 54.390625 8.296875 
L 54.390625 0 
L 12.40625 0 
z
" id="DejaVuSans-49"/>
        <path d="M 10.796875 72.90625 
L 49.515625 72.90625 
L 49.515625 64.59375 
L 19.828125 64.59375 
L 19.828125 46.734375 
Q 21.96875 47.46875 24.109375 47.828125 
Q 26.265625 48.1875 28.421875 48.1875 
Q 40.625 48.1875 47.75 41.5 
Q 54.890625 34.8125 54.890625 23.390625 
Q 54.890625 11.625 47.5625 5.09375 
Q 40.234375 -1.421875 26.90625 -1.421875 
Q 22.3125 -1.421875 17.546875 -0.640625 
Q 12.796875 0.140625 7.71875 1.703125 
L 7.71875 11.625 
Q 12.109375 9.234375 16.796875 8.0625 
Q 21.484375 6.890625 26.703125 6.890625 
Q 35.15625 6.890625 40.078125 11.328125 
Q 45.015625 15.765625 45.015625 23.390625 
Q 45.015625 31 40.078125 35.4375 
Q 35.15625 39.890625 26.703125 39.890625 
Q 22.75 39.890625 18.8125 39.015625 
Q 14.890625 38.140625 10.796875 36.28125 
z
" id="DejaVuSans-53"/>
       </defs>
       <use xlink:href="#DejaVuSans-8722"/>
       <use x="83.789062" xlink:href="#DejaVuSans-49"/>
       <use x="147.412109" xlink:href="#DejaVuSans-46"/>
       <use x="179.199219" xlink:href="#DejaVuSans-53"/>
      </g>
     </g>
    </g>
    <g id="xtick_3">
     <g id="line2d_3">
      <g>
       <use style="stroke:#000000;stroke-width:0.8;" x="154.133194" xlink:href="#m4b254f70b2" y="307.584"/>
      </g>
     </g>
     <g id="text_3">
      <!-- −1.0 -->
      <g transform="translate(141.991788 322.182437)scale(0.1 -0.1)">
       <use xlink:href="#DejaVuSans-8722"/>
       <use x="83.789062" xlink:href="#DejaVuSans-49"/>
       <use x="147.412109" xlink:href="#DejaVuSans-46"/>
       <use x="179.199219" xlink:href="#DejaVuSans-48"/>
      </g>
     </g>
    </g>
    <g id="xtick_4">
     <g id="line2d_4">
      <g>
       <use style="stroke:#000000;stroke-width:0.8;" x="195.755913" xlink:href="#m4b254f70b2" y="307.584"/>
      </g>
     </g>
     <g id="text_4">
      <!-- −0.5 -->
      <g transform="translate(183.614506 322.182437)scale(0.1 -0.1)">
       <use xlink:href="#DejaVuSans-8722"/>
       <use x="83.789062" xlink:href="#DejaVuSans-48"/>
       <use x="147.412109" xlink:href="#DejaVuSans-46"/>
       <use x="179.199219" xlink:href="#DejaVuSans-53"/>
      </g>
     </g>
    </g>
    <g id="xtick_5">
     <g id="line2d_5">
      <g>
       <use style="stroke:#000000;stroke-width:0.8;" x="237.378631" xlink:href="#m4b254f70b2" y="307.584"/>
      </g>
     </g>
     <g id="text_5">
      <!-- 0.0 -->
      <g transform="translate(229.427068 322.182437)scale(0.1 -0.1)">
       <use xlink:href="#DejaVuSans-48"/>
       <use x="63.623047" xlink:href="#DejaVuSans-46"/>
       <use x="95.410156" xlink:href="#DejaVuSans-48"/>
      </g>
     </g>
    </g>
    <g id="xtick_6">
     <g id="line2d_6">
      <g>
       <use style="stroke:#000000;stroke-width:0.8;" x="279.001349" xlink:href="#m4b254f70b2" y="307.584"/>
      </g>
     </g>
     <g id="text_6">
      <!-- 0.5 -->
      <g transform="translate(271.049787 322.182437)scale(0.1 -0.1)">
       <use xlink:href="#DejaVuSans-48"/>
       <use x="63.623047" xlink:href="#DejaVuSans-46"/>
       <use x="95.410156" xlink:href="#DejaVuSans-53"/>
      </g>
     </g>
    </g>
    <g id="xtick_7">
     <g id="line2d_7">
      <g>
       <use style="stroke:#000000;stroke-width:0.8;" x="320.624067" xlink:href="#m4b254f70b2" y="307.584"/>
      </g>
     </g>
     <g id="text_7">
      <!-- 1.0 -->
      <g transform="translate(312.672505 322.182437)scale(0.1 -0.1)">
       <use xlink:href="#DejaVuSans-49"/>
       <use x="63.623047" xlink:href="#DejaVuSans-46"/>
       <use x="95.410156" xlink:href="#DejaVuSans-48"/>
      </g>
     </g>
    </g>
    <g id="xtick_8">
     <g id="line2d_8">
      <g>
       <use style="stroke:#000000;stroke-width:0.8;" x="362.246786" xlink:href="#m4b254f70b2" y="307.584"/>
      </g>
     </g>
     <g id="text_8">
      <!-- 1.5 -->
      <g transform="translate(354.295223 322.182437)scale(0.1 -0.1)">
       <use xlink:href="#DejaVuSans-49"/>
       <use x="63.623047" xlink:href="#DejaVuSans-46"/>
       <use x="95.410156" xlink:href="#DejaVuSans-53"/>
      </g>
     </g>
    </g>
    <g id="xtick_9">
     <g id="line2d_9">
      <g>
       <use style="stroke:#000000;stroke-width:0.8;" x="403.869504" xlink:href="#m4b254f70b2" y="307.584"/>
      </g>
     </g>
     <g id="text_9">
      <!-- 2.0 -->
      <g transform="translate(395.917941 322.182437)scale(0.1 -0.1)">
       <use xlink:href="#DejaVuSans-50"/>
       <use x="63.623047" xlink:href="#DejaVuSans-46"/>
       <use x="95.410156" xlink:href="#DejaVuSans-48"/>
      </g>
     </g>
    </g>
   </g>
   <g id="matplotlib.axis_2">
    <g id="ytick_1">
     <g id="line2d_10">
      <defs>
       <path d="M 0 0 
L -3.5 0 
" id="me9cbb2dc29" style="stroke:#000000;stroke-width:0.8;"/>
      </defs>
      <g>
       <use style="stroke:#000000;stroke-width:0.8;" x="57.6" xlink:href="#me9cbb2dc29" y="289.290588"/>
      </g>
     </g>
     <g id="text_10">
      <!-- 0.0 -->
      <g transform="translate(34.696875 293.089807)scale(0.1 -0.1)">
       <use xlink:href="#DejaVuSans-48"/>
       <use x="63.623047" xlink:href="#DejaVuSans-46"/>
       <use x="95.410156" xlink:href="#DejaVuSans-48"/>
      </g>
     </g>
    </g>
    <g id="ytick_2">
     <g id="line2d_11">
      <g>
       <use style="stroke:#000000;stroke-width:0.8;" x="57.6" xlink:href="#me9cbb2dc29" y="241.511061"/>
      </g>
     </g>
     <g id="text_11">
      <!-- 0.1 -->
      <g transform="translate(34.696875 245.310279)scale(0.1 -0.1)">
       <use xlink:href="#DejaVuSans-48"/>
       <use x="63.623047" xlink:href="#DejaVuSans-46"/>
       <use x="95.410156" xlink:href="#DejaVuSans-49"/>
      </g>
     </g>
    </g>
    <g id="ytick_3">
     <g id="line2d_12">
      <g>
       <use style="stroke:#000000;stroke-width:0.8;" x="57.6" xlink:href="#me9cbb2dc29" y="193.731534"/>
      </g>
     </g>
     <g id="text_12">
      <!-- 0.2 -->
      <g transform="translate(34.696875 197.530752)scale(0.1 -0.1)">
       <use xlink:href="#DejaVuSans-48"/>
       <use x="63.623047" xlink:href="#DejaVuSans-46"/>
       <use x="95.410156" xlink:href="#DejaVuSans-50"/>
      </g>
     </g>
    </g>
    <g id="ytick_4">
     <g id="line2d_13">
      <g>
       <use style="stroke:#000000;stroke-width:0.8;" x="57.6" xlink:href="#me9cbb2dc29" y="145.952007"/>
      </g>
     </g>
     <g id="text_13">
      <!-- 0.3 -->
      <g transform="translate(34.696875 149.751225)scale(0.1 -0.1)">
       <defs>
        <path d="M 40.578125 39.3125 
Q 47.65625 37.796875 51.625 33 
Q 55.609375 28.21875 55.609375 21.1875 
Q 55.609375 10.40625 48.1875 4.484375 
Q 40.765625 -1.421875 27.09375 -1.421875 
Q 22.515625 -1.421875 17.65625 -0.515625 
Q 12.796875 0.390625 7.625 2.203125 
L 7.625 11.71875 
Q 11.71875 9.328125 16.59375 8.109375 
Q 21.484375 6.890625 26.8125 6.890625 
Q 36.078125 6.890625 40.9375 10.546875 
Q 45.796875 14.203125 45.796875 21.1875 
Q 45.796875 27.640625 41.28125 31.265625 
Q 36.765625 34.90625 28.71875 34.90625 
L 20.21875 34.90625 
L 20.21875 43.015625 
L 29.109375 43.015625 
Q 36.375 43.015625 40.234375 45.921875 
Q 44.09375 48.828125 44.09375 54.296875 
Q 44.09375 59.90625 40.109375 62.90625 
Q 36.140625 65.921875 28.71875 65.921875 
Q 24.65625 65.921875 20.015625 65.03125 
Q 15.375 64.15625 9.8125 62.3125 
L 9.8125 71.09375 
Q 15.4375 72.65625 20.34375 73.4375 
Q 25.25 74.21875 29.59375 74.21875 
Q 40.828125 74.21875 47.359375 69.109375 
Q 53.90625 64.015625 53.90625 55.328125 
Q 53.90625 49.265625 50.4375 45.09375 
Q 46.96875 40.921875 40.578125 39.3125 
z
" id="DejaVuSans-51"/>
       </defs>
       <use xlink:href="#DejaVuSans-48"/>
       <use x="63.623047" xlink:href="#DejaVuSans-46"/>
       <use x="95.410156" xlink:href="#DejaVuSans-51"/>
      </g>
     </g>
    </g>
    <g id="ytick_5">
     <g id="line2d_14">
      <g>
       <use style="stroke:#000000;stroke-width:0.8;" x="57.6" xlink:href="#me9cbb2dc29" y="98.17248"/>
      </g>
     </g>
     <g id="text_14">
      <!-- 0.4 -->
      <g transform="translate(34.696875 101.971698)scale(0.1 -0.1)">
       <defs>
        <path d="M 37.796875 64.3125 
L 12.890625 25.390625 
L 37.796875 25.390625 
z
M 35.203125 72.90625 
L 47.609375 72.90625 
L 47.609375 25.390625 
L 58.015625 25.390625 
L 58.015625 17.1875 
L 47.609375 17.1875 
L 47.609375 0 
L 37.796875 0 
L 37.796875 17.1875 
L 4.890625 17.1875 
L 4.890625 26.703125 
z
" id="DejaVuSans-52"/>
       </defs>
       <use xlink:href="#DejaVuSans-48"/>
       <use x="63.623047" xlink:href="#DejaVuSans-46"/>
       <use x="95.410156" xlink:href="#DejaVuSans-52"/>
      </g>
     </g>
    </g>
    <g id="ytick_6">
     <g id="line2d_15">
      <g>
       <use style="stroke:#000000;stroke-width:0.8;" x="57.6" xlink:href="#me9cbb2dc29" y="50.392953"/>
      </g>
     </g>
     <g id="text_15">
      <!-- 0.5 -->
      <g transform="translate(34.696875 54.192171)scale(0.1 -0.1)">
       <use xlink:href="#DejaVuSans-48"/>
       <use x="63.623047" xlink:href="#DejaVuSans-46"/>
       <use x="95.410156" xlink:href="#DejaVuSans-53"/>
      </g>
     </g>
    </g>
   </g>
   <g id="line2d_16">
    <path clip-path="url(#p56be558312)" d="M 73.940087 289.194287 
L 73.940087 289.223025 
L 74.047446 289.194287 
L 75.121039 289.194287 
L 76.946147 289.223025 
L 79.093333 289.194287 
L 143.079481 289.165548 
L 143.723636 289.079333 
L 148.125368 289.194287 
L 149.521039 289.050594 
L 150.272554 289.165548 
L 151.560866 289.13681 
L 152.205022 289.251763 
L 154.244848 289.165548 
L 154.889004 289.165548 
L 155.640519 289.050594 
L 156.284675 289.079333 
L 156.928831 289.223025 
L 157.680346 289.108071 
L 158.861299 289.194287 
L 159.505455 289.251763 
L 160.686407 289.165548 
L 161.974719 288.964379 
L 162.618874 289.165548 
L 163.26303 289.021856 
L 163.907186 289.223025 
L 166.48381 289.165548 
L 167.127965 289.021856 
L 167.772121 289.13681 
L 169.060433 288.878164 
L 169.811948 289.223025 
L 170.456104 289.165548 
L 171.10026 289.251763 
L 171.744416 289.165548 
L 172.281212 289.223025 
L 173.676883 288.820687 
L 174.21368 289.165548 
L 174.965195 288.935641 
L 175.609351 288.964379 
L 176.253506 289.223025 
L 179.581645 288.964379 
L 180.225801 288.76321 
L 180.869957 288.906902 
L 181.621472 289.194287 
L 183.017143 289.194287 
L 183.768658 288.964379 
L 184.520173 288.906902 
L 185.379048 289.050594 
L 186.023203 288.964379 
L 186.667359 288.562041 
L 187.311515 289.050594 
L 188.06303 289.223025 
L 189.351342 289.021856 
L 190.102857 288.59078 
L 191.498528 289.050594 
L 192.142684 288.648257 
L 192.894199 288.849426 
L 193.538355 289.251763 
L 194.182511 289.050594 
L 194.826667 289.050594 
L 196.222338 288.360872 
L 196.973853 288.878164 
L 197.510649 288.159703 
L 198.90632 289.194287 
L 200.409351 288.964379 
L 200.946147 288.475826 
L 201.697662 288.188442 
L 202.341818 288.274657 
L 203.093333 288.849426 
L 203.844848 288.734472 
L 204.596364 289.021856 
L 205.884675 289.050594 
L 206.63619 288.389611 
L 207.280346 288.073488 
L 207.924502 288.676995 
L 208.676017 288.159703 
L 209.427532 287.958535 
L 210.071688 289.165548 
L 210.823203 288.734472 
L 211.36 289.194287 
L 212.111515 288.59078 
L 212.648312 288.504565 
L 213.292468 287.268813 
L 213.829264 287.240074 
L 214.47342 286.665306 
L 215.010216 288.533303 
L 215.654372 287.182597 
L 216.298528 288.705733 
L 216.942684 288.906902 
L 217.58684 288.016011 
L 218.230996 287.814842 
L 218.982511 286.377922 
L 219.519307 286.492875 
L 220.270823 283.67651 
L 220.807619 285.831892 
L 221.559134 288.073488 
L 222.20329 285.831892 
L 222.954805 288.76321 
L 223.491602 287.355028 
L 224.135758 286.694044 
L 224.887273 282.009682 
L 225.638788 282.555712 
L 226.175584 281.233745 
L 226.9271 271.117822 
L 227.571255 285.889368 
L 228.215411 278.331165 
L 228.859567 287.699889 
L 229.503723 283.67651 
L 230.147879 281.377437 
L 231.54355 235.654614 
L 232.187706 225.19383 
L 232.939221 133.173417 
L 233.583377 201.743282 
L 234.227532 168.464194 
L 234.979048 53.568 
L 235.623203 176.913289 
L 236.267359 173.694586 
L 237.018874 53.568 
L 237.66303 154.1812 
L 238.307186 233.470495 
L 239.058701 176.539689 
L 239.595498 274.738862 
L 240.239654 271.433944 
L 240.88381 270.945391 
L 241.635325 288.418349 
L 242.279481 281.521129 
L 242.923636 282.498235 
L 243.675152 273.675541 
L 244.319307 276.664336 
L 245.070823 286.722783 
L 245.714978 281.090053 
L 246.359134 286.636567 
L 247.110649 288.993118 
L 247.754805 288.073488 
L 248.50632 288.274657 
L 249.257835 285.774415 
L 250.009351 285.429554 
L 250.760866 287.527458 
L 251.405022 285.3146 
L 252.908052 289.108071 
L 253.552208 288.820687 
L 254.303723 288.676995 
L 255.699394 287.49872 
L 256.450909 288.188442 
L 257.095065 286.808998 
L 258.490736 289.165548 
L 259.134892 288.964379 
L 259.779048 289.079333 
L 260.423203 288.360872 
L 261.174719 288.102227 
L 261.926234 288.849426 
L 262.677749 288.102227 
L 263.321905 288.648257 
L 264.07342 289.108071 
L 264.824935 289.021856 
L 265.469091 289.13681 
L 266.864762 288.619518 
L 268.260433 288.964379 
L 268.904589 288.734472 
L 270.407619 289.223025 
L 271.051775 288.993118 
L 271.80329 288.964379 
L 272.554805 289.108071 
L 273.198961 288.820687 
L 273.950476 288.619518 
L 274.594632 289.165548 
L 275.990303 289.165548 
L 278.03013 289.079333 
L 278.674286 289.108071 
L 279.425801 288.76321 
L 280.821472 289.194287 
L 283.720173 288.935641 
L 284.471688 289.13681 
L 285.115844 289.050594 
L 289.839654 289.13681 
L 290.269091 288.935641 
L 291.020606 289.165548 
L 294.241385 289.165548 
L 294.885541 289.050594 
L 295.529697 289.108071 
L 296.281212 289.021856 
L 298.965195 289.194287 
L 302.185974 289.021856 
L 303.474286 289.165548 
L 307.876017 289.165548 
L 308.520173 295.488 
L 309.164329 290.573731 
L 309.915844 289.481671 
L 310.667359 289.165548 
L 311.311515 289.021856 
L 315.28381 288.935641 
L 322.047446 289.021856 
L 325.268225 289.079333 
L 325.805022 289.021856 
L 326.449177 289.108071 
L 327.737489 289.079333 
L 330.958268 289.13681 
L 332.783377 289.050594 
L 333.534892 289.165548 
L 336.648312 289.13681 
L 398.487273 289.194287 
L 398.379913 289.223025 
" style="fill:none;stroke:#1f77b4;stroke-linecap:square;stroke-width:1.5;"/>
   </g>
   <g id="line2d_17">
    <path clip-path="url(#p56be558312)" d="M 73.832727 289.282439 
L 104.055823 289.290587 
L 189.525438 289.164297 
L 191.475315 289.142672 
L 194.725111 289.265191 
L 198.624865 289.062405 
L 201.224701 289.282212 
L 202.524619 289.097675 
L 204.474496 288.789642 
L 205.449435 288.867277 
L 208.049271 289.282905 
L 209.02421 289.084038 
L 211.299066 288.337175 
L 211.949025 288.362773 
L 212.923964 288.682519 
L 214.223882 289.221088 
L 214.873841 289.28514 
L 215.5238 289.104879 
L 216.173759 288.685698 
L 217.798657 287.341256 
L 218.448616 287.123252 
L 219.098575 287.270563 
L 219.748534 287.762721 
L 221.048452 289.053173 
L 221.373432 289.235389 
L 221.698411 289.289294 
L 222.023391 289.187752 
L 222.34837 288.913747 
L 222.998329 287.845213 
L 223.973268 285.313424 
L 224.948206 282.934991 
L 225.273186 282.484808 
L 225.598165 282.301987 
L 225.923145 282.421477 
L 226.248124 282.85492 
L 226.898084 284.566325 
L 228.198002 288.881236 
L 228.522981 289.28164 
L 228.847961 289.031505 
L 229.17294 287.930903 
L 229.49792 285.791089 
L 229.822899 282.446208 
L 230.472858 271.660296 
L 231.122817 255.112894 
L 232.097756 220.847588 
L 234.047633 144.627044 
L 234.697592 127.648591 
L 235.022572 122.245534 
L 235.347551 119.178066 
L 235.672531 118.558442 
L 235.99751 120.414455 
L 236.32249 124.687793 
L 236.972449 139.840736 
L 237.622408 162.013244 
L 240.222244 261.58209 
L 240.872203 276.55204 
L 241.522162 285.46467 
L 241.847142 287.844556 
L 242.172121 289.045491 
L 242.497101 289.2652 
L 242.82208 288.721084 
L 243.472039 286.231992 
L 244.446978 281.968108 
L 244.771957 281.002374 
L 245.096937 280.407277 
L 245.421916 280.210621 
L 245.746896 280.404675 
L 246.071876 280.951064 
L 246.721835 282.833355 
L 248.021753 287.361143 
L 248.671712 288.800739 
L 248.996691 289.166046 
L 249.321671 289.290402 
L 249.64665 289.193611 
L 250.296609 288.48838 
L 251.921507 286.140711 
L 252.246486 285.936364 
L 252.571466 285.878734 
L 252.896446 285.967677 
L 253.546405 286.525589 
L 255.496282 288.996358 
L 256.146241 289.28469 
L 256.7962 289.15412 
L 257.446159 288.712081 
L 258.746077 287.680477 
L 259.396036 287.458336 
L 260.045995 287.547721 
L 260.695954 287.905381 
L 262.320852 289.07342 
L 262.970811 289.278183 
L 263.62077 289.233945 
L 264.595708 288.814778 
L 265.895627 288.205524 
L 266.545586 288.120604 
L 267.195545 288.232878 
L 268.170483 288.661825 
L 269.470401 289.212651 
L 270.12036 289.290449 
L 271.095299 289.113315 
L 273.045176 288.497917 
L 274.020115 288.526528 
L 275.320033 288.926156 
L 276.619951 289.268082 
L 277.594889 289.244118 
L 280.844685 288.708949 
L 282.144603 288.990858 
L 283.444521 289.264339 
L 284.419459 289.265534 
L 286.044357 288.960483 
L 287.344275 288.819823 
L 288.644193 288.970493 
L 290.59407 289.284784 
L 291.893989 289.206758 
L 294.168845 288.915853 
L 295.468763 289.019845 
L 297.74362 289.290529 
L 299.043538 289.193945 
L 301.318395 288.986981 
L 302.943292 289.142871 
L 304.56819 289.289707 
L 306.193088 289.185265 
L 308.142965 289.038687 
L 309.767862 289.157457 
L 311.71774 289.290059 
L 313.667617 289.149751 
L 315.617494 289.095489 
L 319.517248 289.255316 
L 322.442064 289.1224 
L 326.991777 289.225389 
L 329.591613 289.1563 
L 333.491368 289.258543 
L 336.741163 289.185478 
L 340.315938 289.267324 
L 343.890713 289.210236 
L 347.140508 289.273984 
L 351.040262 289.230857 
L 354.290057 289.269364 
L 357.864832 289.236348 
L 361.439607 289.265762 
L 365.014382 289.251093 
L 368.589156 289.263389 
L 372.488911 289.271156 
L 376.388665 289.249303 
L 384.188174 289.249095 
L 398.487273 289.262677 
L 398.487273 289.262677 
" style="fill:none;stroke:#ff7f0e;stroke-linecap:square;stroke-width:1.5;"/>
   </g>
   <g id="patch_3">
    <path d="M 57.6 307.584 
L 57.6 41.472 
" style="fill:none;stroke:#000000;stroke-linecap:square;stroke-linejoin:miter;stroke-width:0.8;"/>
   </g>
   <g id="patch_4">
    <path d="M 414.72 307.584 
L 414.72 41.472 
" style="fill:none;stroke:#000000;stroke-linecap:square;stroke-linejoin:miter;stroke-width:0.8;"/>
   </g>
   <g id="patch_5">
    <path d="M 57.6 307.584 
L 414.72 307.584 
" style="fill:none;stroke:#000000;stroke-linecap:square;stroke-linejoin:miter;stroke-width:0.8;"/>
   </g>
   <g id="patch_6">
    <path d="M 57.6 41.472 
L 414.72 41.472 
" style="fill:none;stroke:#000000;stroke-linecap:square;stroke-linejoin:miter;stroke-width:0.8;"/>
   </g>
   <g id="legend_1">
    <g id="patch_7">
     <path d="M 318.065313 78.82825 
L 407.72 78.82825 
Q 409.72 78.82825 409.72 76.82825 
L 409.72 48.472 
Q 409.72 46.472 407.72 46.472 
L 318.065313 46.472 
Q 316.065313 46.472 316.065313 48.472 
L 316.065313 76.82825 
Q 316.065313 78.82825 318.065313 78.82825 
z
" style="fill:#ffffff;opacity:0.8;stroke:#cccccc;stroke-linejoin:miter;"/>
    </g>
    <g id="line2d_18">
     <path d="M 320.065313 54.570437 
L 340.065313 54.570437 
" style="fill:none;stroke:#1f77b4;stroke-linecap:square;stroke-width:1.5;"/>
    </g>
    <g id="line2d_19"/>
    <g id="text_16">
     <!-- .5and0.8 -->
     <g transform="translate(348.065313 58.070437)scale(0.1 -0.1)">
      <defs>
       <path d="M 34.28125 27.484375 
Q 23.390625 27.484375 19.1875 25 
Q 14.984375 22.515625 14.984375 16.5 
Q 14.984375 11.71875 18.140625 8.90625 
Q 21.296875 6.109375 26.703125 6.109375 
Q 34.1875 6.109375 38.703125 11.40625 
Q 43.21875 16.703125 43.21875 25.484375 
L 43.21875 27.484375 
z
M 52.203125 31.203125 
L 52.203125 0 
L 43.21875 0 
L 43.21875 8.296875 
Q 40.140625 3.328125 35.546875 0.953125 
Q 30.953125 -1.421875 24.3125 -1.421875 
Q 15.921875 -1.421875 10.953125 3.296875 
Q 6 8.015625 6 15.921875 
Q 6 25.140625 12.171875 29.828125 
Q 18.359375 34.515625 30.609375 34.515625 
L 43.21875 34.515625 
L 43.21875 35.40625 
Q 43.21875 41.609375 39.140625 45 
Q 35.0625 48.390625 27.6875 48.390625 
Q 23 48.390625 18.546875 47.265625 
Q 14.109375 46.140625 10.015625 43.890625 
L 10.015625 52.203125 
Q 14.9375 54.109375 19.578125 55.046875 
Q 24.21875 56 28.609375 56 
Q 40.484375 56 46.34375 49.84375 
Q 52.203125 43.703125 52.203125 31.203125 
z
" id="DejaVuSans-97"/>
       <path d="M 54.890625 33.015625 
L 54.890625 0 
L 45.90625 0 
L 45.90625 32.71875 
Q 45.90625 40.484375 42.875 44.328125 
Q 39.84375 48.1875 33.796875 48.1875 
Q 26.515625 48.1875 22.3125 43.546875 
Q 18.109375 38.921875 18.109375 30.90625 
L 18.109375 0 
L 9.078125 0 
L 9.078125 54.6875 
L 18.109375 54.6875 
L 18.109375 46.1875 
Q 21.34375 51.125 25.703125 53.5625 
Q 30.078125 56 35.796875 56 
Q 45.21875 56 50.046875 50.171875 
Q 54.890625 44.34375 54.890625 33.015625 
z
" id="DejaVuSans-110"/>
       <path d="M 45.40625 46.390625 
L 45.40625 75.984375 
L 54.390625 75.984375 
L 54.390625 0 
L 45.40625 0 
L 45.40625 8.203125 
Q 42.578125 3.328125 38.25 0.953125 
Q 33.9375 -1.421875 27.875 -1.421875 
Q 17.96875 -1.421875 11.734375 6.484375 
Q 5.515625 14.40625 5.515625 27.296875 
Q 5.515625 40.1875 11.734375 48.09375 
Q 17.96875 56 27.875 56 
Q 33.9375 56 38.25 53.625 
Q 42.578125 51.265625 45.40625 46.390625 
z
M 14.796875 27.296875 
Q 14.796875 17.390625 18.875 11.75 
Q 22.953125 6.109375 30.078125 6.109375 
Q 37.203125 6.109375 41.296875 11.75 
Q 45.40625 17.390625 45.40625 27.296875 
Q 45.40625 37.203125 41.296875 42.84375 
Q 37.203125 48.484375 30.078125 48.484375 
Q 22.953125 48.484375 18.875 42.84375 
Q 14.796875 37.203125 14.796875 27.296875 
z
" id="DejaVuSans-100"/>
       <path d="M 31.78125 34.625 
Q 24.75 34.625 20.71875 30.859375 
Q 16.703125 27.09375 16.703125 20.515625 
Q 16.703125 13.921875 20.71875 10.15625 
Q 24.75 6.390625 31.78125 6.390625 
Q 38.8125 6.390625 42.859375 10.171875 
Q 46.921875 13.96875 46.921875 20.515625 
Q 46.921875 27.09375 42.890625 30.859375 
Q 38.875 34.625 31.78125 34.625 
z
M 21.921875 38.8125 
Q 15.578125 40.375 12.03125 44.71875 
Q 8.5 49.078125 8.5 55.328125 
Q 8.5 64.0625 14.71875 69.140625 
Q 20.953125 74.21875 31.78125 74.21875 
Q 42.671875 74.21875 48.875 69.140625 
Q 55.078125 64.0625 55.078125 55.328125 
Q 55.078125 49.078125 51.53125 44.71875 
Q 48 40.375 41.703125 38.8125 
Q 48.828125 37.15625 52.796875 32.3125 
Q 56.78125 27.484375 56.78125 20.515625 
Q 56.78125 9.90625 50.3125 4.234375 
Q 43.84375 -1.421875 31.78125 -1.421875 
Q 19.734375 -1.421875 13.25 4.234375 
Q 6.78125 9.90625 6.78125 20.515625 
Q 6.78125 27.484375 10.78125 32.3125 
Q 14.796875 37.15625 21.921875 38.8125 
z
M 18.3125 54.390625 
Q 18.3125 48.734375 21.84375 45.5625 
Q 25.390625 42.390625 31.78125 42.390625 
Q 38.140625 42.390625 41.71875 45.5625 
Q 45.3125 48.734375 45.3125 54.390625 
Q 45.3125 60.0625 41.71875 63.234375 
Q 38.140625 66.40625 31.78125 66.40625 
Q 25.390625 66.40625 21.84375 63.234375 
Q 18.3125 60.0625 18.3125 54.390625 
z
" id="DejaVuSans-56"/>
      </defs>
      <use xlink:href="#DejaVuSans-46"/>
      <use x="31.787109" xlink:href="#DejaVuSans-53"/>
      <use x="95.410156" xlink:href="#DejaVuSans-97"/>
      <use x="156.689453" xlink:href="#DejaVuSans-110"/>
      <use x="220.068359" xlink:href="#DejaVuSans-100"/>
      <use x="283.544922" xlink:href="#DejaVuSans-48"/>
      <use x="347.167969" xlink:href="#DejaVuSans-46"/>
      <use x="378.955078" xlink:href="#DejaVuSans-56"/>
     </g>
    </g>
    <g id="line2d_20">
     <path d="M 320.065313 69.248562 
L 340.065313 69.248562 
" style="fill:none;stroke:#ff7f0e;stroke-linecap:square;stroke-width:1.5;"/>
    </g>
    <g id="line2d_21"/>
    <g id="text_17">
     <!-- .5and0.8 fit -->
     <g transform="translate(348.065313 72.748562)scale(0.1 -0.1)">
      <defs>
       <path id="DejaVuSans-32"/>
       <path d="M 37.109375 75.984375 
L 37.109375 68.5 
L 28.515625 68.5 
Q 23.6875 68.5 21.796875 66.546875 
Q 19.921875 64.59375 19.921875 59.515625 
L 19.921875 54.6875 
L 34.71875 54.6875 
L 34.71875 47.703125 
L 19.921875 47.703125 
L 19.921875 0 
L 10.890625 0 
L 10.890625 47.703125 
L 2.296875 47.703125 
L 2.296875 54.6875 
L 10.890625 54.6875 
L 10.890625 58.5 
Q 10.890625 67.625 15.140625 71.796875 
Q 19.390625 75.984375 28.609375 75.984375 
z
" id="DejaVuSans-102"/>
       <path d="M 9.421875 54.6875 
L 18.40625 54.6875 
L 18.40625 0 
L 9.421875 0 
z
M 9.421875 75.984375 
L 18.40625 75.984375 
L 18.40625 64.59375 
L 9.421875 64.59375 
z
" id="DejaVuSans-105"/>
       <path d="M 18.3125 70.21875 
L 18.3125 54.6875 
L 36.8125 54.6875 
L 36.8125 47.703125 
L 18.3125 47.703125 
L 18.3125 18.015625 
Q 18.3125 11.328125 20.140625 9.421875 
Q 21.96875 7.515625 27.59375 7.515625 
L 36.8125 7.515625 
L 36.8125 0 
L 27.59375 0 
Q 17.1875 0 13.234375 3.875 
Q 9.28125 7.765625 9.28125 18.015625 
L 9.28125 47.703125 
L 2.6875 47.703125 
L 2.6875 54.6875 
L 9.28125 54.6875 
L 9.28125 70.21875 
z
" id="DejaVuSans-116"/>
      </defs>
      <use xlink:href="#DejaVuSans-46"/>
      <use x="31.787109" xlink:href="#DejaVuSans-53"/>
      <use x="95.410156" xlink:href="#DejaVuSans-97"/>
      <use x="156.689453" xlink:href="#DejaVuSans-110"/>
      <use x="220.068359" xlink:href="#DejaVuSans-100"/>
      <use x="283.544922" xlink:href="#DejaVuSans-48"/>
      <use x="347.167969" xlink:href="#DejaVuSans-46"/>
      <use x="378.955078" xlink:href="#DejaVuSans-56"/>
      <use x="442.578125" xlink:href="#DejaVuSans-32"/>
      <use x="474.365234" xlink:href="#DejaVuSans-102"/>
      <use x="509.570312" xlink:href="#DejaVuSans-105"/>
      <use x="537.353516" xlink:href="#DejaVuSans-116"/>
     </g>
    </g>
   </g>
  </g>
 </g>
 <defs>
  <clipPath id="p56be558312">
   <rect height="266.112" width="357.12" x="57.6" y="41.472"/>
  </clipPath>
 </defs>
</svg>
