<?xml version="1.0" encoding="utf-8" standalone="no"?>
<!DOCTYPE svg PUBLIC "-//W3C//DTD SVG 1.1//EN"
  "http://www.w3.org/Graphics/SVG/1.1/DTD/svg11.dtd">
<svg height="345.6pt" version="1.1" viewBox="0 0 460.8 345.6" width="460.8pt" xmlns="http://www.w3.org/2000/svg" xmlns:xlink="http://www.w3.org/1999/xlink">
 <metadata>
  <rdf:RDF xmlns:cc="http://creativecommons.org/ns#" xmlns:dc="http://purl.org/dc/elements/1.1/" xmlns:rdf="http://www.w3.org/1999/02/22-rdf-syntax-ns#">
   <cc:Work>
    <dc:type rdf:resource="http://purl.org/dc/dcmitype/StillImage"/>
    <dc:date>2021-05-03T09:09:02.012751</dc:date>
    <dc:format>image/svg+xml</dc:format>
    <dc:creator>
     <cc:Agent>
      <dc:title>Matplotlib v3.4.1, https://matplotlib.org/</dc:title>
     </cc:Agent>
    </dc:creator>
   </cc:Work>
  </rdf:RDF>
 </metadata>
 <defs>
  <style type="text/css">*{stroke-linecap:butt;stroke-linejoin:round;}</style>
 </defs>
 <g id="figure_1">
  <g id="patch_1">
   <path d="M 0 345.6 
L 460.8 345.6 
L 460.8 0 
L 0 0 
z
" style="fill:#ffffff;"/>
  </g>
  <g id="axes_1">
   <g id="patch_2">
    <path d="M 57.6 307.584 
L 414.72 307.584 
L 414.72 41.472 
L 57.6 41.472 
z
" style="fill:#ffffff;"/>
   </g>
   <g id="matplotlib.axis_1">
    <g id="xtick_1">
     <g id="line2d_1">
      <defs>
       <path d="M 0 0 
L 0 3.5 
" id="m77a7573c2f" style="stroke:#000000;stroke-width:0.8;"/>
      </defs>
      <g>
       <use style="stroke:#000000;stroke-width:0.8;" x="73.824348" xlink:href="#m77a7573c2f" y="307.584"/>
      </g>
     </g>
     <g id="text_1">
      <!-- −1.00 -->
      <g transform="translate(58.501692 322.182437)scale(0.1 -0.1)">
       <defs>
        <path d="M 678 2272 
L 4684 2272 
L 4684 1741 
L 678 1741 
L 678 2272 
z
" id="DejaVuSans-2212" transform="scale(0.015625)"/>
        <path d="M 794 531 
L 1825 531 
L 1825 4091 
L 703 3866 
L 703 4441 
L 1819 4666 
L 2450 4666 
L 2450 531 
L 3481 531 
L 3481 0 
L 794 0 
L 794 531 
z
" id="DejaVuSans-31" transform="scale(0.015625)"/>
        <path d="M 684 794 
L 1344 794 
L 1344 0 
L 684 0 
L 684 794 
z
" id="DejaVuSans-2e" transform="scale(0.015625)"/>
        <path d="M 2034 4250 
Q 1547 4250 1301 3770 
Q 1056 3291 1056 2328 
Q 1056 1369 1301 889 
Q 1547 409 2034 409 
Q 2525 409 2770 889 
Q 3016 1369 3016 2328 
Q 3016 3291 2770 3770 
Q 2525 4250 2034 4250 
z
M 2034 4750 
Q 2819 4750 3233 4129 
Q 3647 3509 3647 2328 
Q 3647 1150 3233 529 
Q 2819 -91 2034 -91 
Q 1250 -91 836 529 
Q 422 1150 422 2328 
Q 422 3509 836 4129 
Q 1250 4750 2034 4750 
z
" id="DejaVuSans-30" transform="scale(0.015625)"/>
       </defs>
       <use xlink:href="#DejaVuSans-2212"/>
       <use x="83.789062" xlink:href="#DejaVuSans-31"/>
       <use x="147.412109" xlink:href="#DejaVuSans-2e"/>
       <use x="179.199219" xlink:href="#DejaVuSans-30"/>
       <use x="242.822266" xlink:href="#DejaVuSans-30"/>
      </g>
     </g>
    </g>
    <g id="xtick_2">
     <g id="line2d_2">
      <g>
       <use style="stroke:#000000;stroke-width:0.8;" x="114.426639" xlink:href="#m77a7573c2f" y="307.584"/>
      </g>
     </g>
     <g id="text_2">
      <!-- −0.75 -->
      <g transform="translate(99.103983 322.182437)scale(0.1 -0.1)">
       <defs>
        <path d="M 525 4666 
L 3525 4666 
L 3525 4397 
L 1831 0 
L 1172 0 
L 2766 4134 
L 525 4134 
L 525 4666 
z
" id="DejaVuSans-37" transform="scale(0.015625)"/>
        <path d="M 691 4666 
L 3169 4666 
L 3169 4134 
L 1269 4134 
L 1269 2991 
Q 1406 3038 1543 3061 
Q 1681 3084 1819 3084 
Q 2600 3084 3056 2656 
Q 3513 2228 3513 1497 
Q 3513 744 3044 326 
Q 2575 -91 1722 -91 
Q 1428 -91 1123 -41 
Q 819 9 494 109 
L 494 744 
Q 775 591 1075 516 
Q 1375 441 1709 441 
Q 2250 441 2565 725 
Q 2881 1009 2881 1497 
Q 2881 1984 2565 2268 
Q 2250 2553 1709 2553 
Q 1456 2553 1204 2497 
Q 953 2441 691 2322 
L 691 4666 
z
" id="DejaVuSans-35" transform="scale(0.015625)"/>
       </defs>
       <use xlink:href="#DejaVuSans-2212"/>
       <use x="83.789062" xlink:href="#DejaVuSans-30"/>
       <use x="147.412109" xlink:href="#DejaVuSans-2e"/>
       <use x="179.199219" xlink:href="#DejaVuSans-37"/>
       <use x="242.822266" xlink:href="#DejaVuSans-35"/>
      </g>
     </g>
    </g>
    <g id="xtick_3">
     <g id="line2d_3">
      <g>
       <use style="stroke:#000000;stroke-width:0.8;" x="155.028929" xlink:href="#m77a7573c2f" y="307.584"/>
      </g>
     </g>
     <g id="text_3">
      <!-- −0.50 -->
      <g transform="translate(139.706273 322.182437)scale(0.1 -0.1)">
       <use xlink:href="#DejaVuSans-2212"/>
       <use x="83.789062" xlink:href="#DejaVuSans-30"/>
       <use x="147.412109" xlink:href="#DejaVuSans-2e"/>
       <use x="179.199219" xlink:href="#DejaVuSans-35"/>
       <use x="242.822266" xlink:href="#DejaVuSans-30"/>
      </g>
     </g>
    </g>
    <g id="xtick_4">
     <g id="line2d_4">
      <g>
       <use style="stroke:#000000;stroke-width:0.8;" x="195.631219" xlink:href="#m77a7573c2f" y="307.584"/>
      </g>
     </g>
     <g id="text_4">
      <!-- −0.25 -->
      <g transform="translate(180.308563 322.182437)scale(0.1 -0.1)">
       <defs>
        <path d="M 1228 531 
L 3431 531 
L 3431 0 
L 469 0 
L 469 531 
Q 828 903 1448 1529 
Q 2069 2156 2228 2338 
Q 2531 2678 2651 2914 
Q 2772 3150 2772 3378 
Q 2772 3750 2511 3984 
Q 2250 4219 1831 4219 
Q 1534 4219 1204 4116 
Q 875 4013 500 3803 
L 500 4441 
Q 881 4594 1212 4672 
Q 1544 4750 1819 4750 
Q 2544 4750 2975 4387 
Q 3406 4025 3406 3419 
Q 3406 3131 3298 2873 
Q 3191 2616 2906 2266 
Q 2828 2175 2409 1742 
Q 1991 1309 1228 531 
z
" id="DejaVuSans-32" transform="scale(0.015625)"/>
       </defs>
       <use xlink:href="#DejaVuSans-2212"/>
       <use x="83.789062" xlink:href="#DejaVuSans-30"/>
       <use x="147.412109" xlink:href="#DejaVuSans-2e"/>
       <use x="179.199219" xlink:href="#DejaVuSans-32"/>
       <use x="242.822266" xlink:href="#DejaVuSans-35"/>
      </g>
     </g>
    </g>
    <g id="xtick_5">
     <g id="line2d_5">
      <g>
       <use style="stroke:#000000;stroke-width:0.8;" x="236.23351" xlink:href="#m77a7573c2f" y="307.584"/>
      </g>
     </g>
     <g id="text_5">
      <!-- 0.00 -->
      <g transform="translate(225.100697 322.182437)scale(0.1 -0.1)">
       <use xlink:href="#DejaVuSans-30"/>
       <use x="63.623047" xlink:href="#DejaVuSans-2e"/>
       <use x="95.410156" xlink:href="#DejaVuSans-30"/>
       <use x="159.033203" xlink:href="#DejaVuSans-30"/>
      </g>
     </g>
    </g>
    <g id="xtick_6">
     <g id="line2d_6">
      <g>
       <use style="stroke:#000000;stroke-width:0.8;" x="276.8358" xlink:href="#m77a7573c2f" y="307.584"/>
      </g>
     </g>
     <g id="text_6">
      <!-- 0.25 -->
      <g transform="translate(265.702988 322.182437)scale(0.1 -0.1)">
       <use xlink:href="#DejaVuSans-30"/>
       <use x="63.623047" xlink:href="#DejaVuSans-2e"/>
       <use x="95.410156" xlink:href="#DejaVuSans-32"/>
       <use x="159.033203" xlink:href="#DejaVuSans-35"/>
      </g>
     </g>
    </g>
    <g id="xtick_7">
     <g id="line2d_7">
      <g>
       <use style="stroke:#000000;stroke-width:0.8;" x="317.43809" xlink:href="#m77a7573c2f" y="307.584"/>
      </g>
     </g>
     <g id="text_7">
      <!-- 0.50 -->
      <g transform="translate(306.305278 322.182437)scale(0.1 -0.1)">
       <use xlink:href="#DejaVuSans-30"/>
       <use x="63.623047" xlink:href="#DejaVuSans-2e"/>
       <use x="95.410156" xlink:href="#DejaVuSans-35"/>
       <use x="159.033203" xlink:href="#DejaVuSans-30"/>
      </g>
     </g>
    </g>
    <g id="xtick_8">
     <g id="line2d_8">
      <g>
       <use style="stroke:#000000;stroke-width:0.8;" x="358.040381" xlink:href="#m77a7573c2f" y="307.584"/>
      </g>
     </g>
     <g id="text_8">
      <!-- 0.75 -->
      <g transform="translate(346.907568 322.182437)scale(0.1 -0.1)">
       <use xlink:href="#DejaVuSans-30"/>
       <use x="63.623047" xlink:href="#DejaVuSans-2e"/>
       <use x="95.410156" xlink:href="#DejaVuSans-37"/>
       <use x="159.033203" xlink:href="#DejaVuSans-35"/>
      </g>
     </g>
    </g>
    <g id="xtick_9">
     <g id="line2d_9">
      <g>
       <use style="stroke:#000000;stroke-width:0.8;" x="398.642671" xlink:href="#m77a7573c2f" y="307.584"/>
      </g>
     </g>
     <g id="text_9">
      <!-- 1.00 -->
      <g transform="translate(387.509858 322.182437)scale(0.1 -0.1)">
       <use xlink:href="#DejaVuSans-31"/>
       <use x="63.623047" xlink:href="#DejaVuSans-2e"/>
       <use x="95.410156" xlink:href="#DejaVuSans-30"/>
       <use x="159.033203" xlink:href="#DejaVuSans-30"/>
      </g>
     </g>
    </g>
   </g>
   <g id="matplotlib.axis_2">
    <g id="ytick_1">
     <g id="line2d_10">
      <defs>
       <path d="M 0 0 
L -3.5 0 
" id="m24263ebb9d" style="stroke:#000000;stroke-width:0.8;"/>
      </defs>
      <g>
       <use style="stroke:#000000;stroke-width:0.8;" x="57.6" xlink:href="#m24263ebb9d" y="295.488004"/>
      </g>
     </g>
     <g id="text_10">
      <!-- 0.00 -->
      <g transform="translate(28.334375 299.287223)scale(0.1 -0.1)">
       <use xlink:href="#DejaVuSans-30"/>
       <use x="63.623047" xlink:href="#DejaVuSans-2e"/>
       <use x="95.410156" xlink:href="#DejaVuSans-30"/>
       <use x="159.033203" xlink:href="#DejaVuSans-30"/>
      </g>
     </g>
    </g>
    <g id="ytick_2">
     <g id="line2d_11">
      <g>
       <use style="stroke:#000000;stroke-width:0.8;" x="57.6" xlink:href="#m24263ebb9d" y="263.391851"/>
      </g>
     </g>
     <g id="text_11">
      <!-- 0.01 -->
      <g transform="translate(28.334375 267.19107)scale(0.1 -0.1)">
       <use xlink:href="#DejaVuSans-30"/>
       <use x="63.623047" xlink:href="#DejaVuSans-2e"/>
       <use x="95.410156" xlink:href="#DejaVuSans-30"/>
       <use x="159.033203" xlink:href="#DejaVuSans-31"/>
      </g>
     </g>
    </g>
    <g id="ytick_3">
     <g id="line2d_12">
      <g>
       <use style="stroke:#000000;stroke-width:0.8;" x="57.6" xlink:href="#m24263ebb9d" y="231.295698"/>
      </g>
     </g>
     <g id="text_12">
      <!-- 0.02 -->
      <g transform="translate(28.334375 235.094917)scale(0.1 -0.1)">
       <use xlink:href="#DejaVuSans-30"/>
       <use x="63.623047" xlink:href="#DejaVuSans-2e"/>
       <use x="95.410156" xlink:href="#DejaVuSans-30"/>
       <use x="159.033203" xlink:href="#DejaVuSans-32"/>
      </g>
     </g>
    </g>
    <g id="ytick_4">
     <g id="line2d_13">
      <g>
       <use style="stroke:#000000;stroke-width:0.8;" x="57.6" xlink:href="#m24263ebb9d" y="199.199545"/>
      </g>
     </g>
     <g id="text_13">
      <!-- 0.03 -->
      <g transform="translate(28.334375 202.998764)scale(0.1 -0.1)">
       <defs>
        <path d="M 2597 2516 
Q 3050 2419 3304 2112 
Q 3559 1806 3559 1356 
Q 3559 666 3084 287 
Q 2609 -91 1734 -91 
Q 1441 -91 1130 -33 
Q 819 25 488 141 
L 488 750 
Q 750 597 1062 519 
Q 1375 441 1716 441 
Q 2309 441 2620 675 
Q 2931 909 2931 1356 
Q 2931 1769 2642 2001 
Q 2353 2234 1838 2234 
L 1294 2234 
L 1294 2753 
L 1863 2753 
Q 2328 2753 2575 2939 
Q 2822 3125 2822 3475 
Q 2822 3834 2567 4026 
Q 2313 4219 1838 4219 
Q 1578 4219 1281 4162 
Q 984 4106 628 3988 
L 628 4550 
Q 988 4650 1302 4700 
Q 1616 4750 1894 4750 
Q 2613 4750 3031 4423 
Q 3450 4097 3450 3541 
Q 3450 3153 3228 2886 
Q 3006 2619 2597 2516 
z
" id="DejaVuSans-33" transform="scale(0.015625)"/>
       </defs>
       <use xlink:href="#DejaVuSans-30"/>
       <use x="63.623047" xlink:href="#DejaVuSans-2e"/>
       <use x="95.410156" xlink:href="#DejaVuSans-30"/>
       <use x="159.033203" xlink:href="#DejaVuSans-33"/>
      </g>
     </g>
    </g>
    <g id="ytick_5">
     <g id="line2d_14">
      <g>
       <use style="stroke:#000000;stroke-width:0.8;" x="57.6" xlink:href="#m24263ebb9d" y="167.103392"/>
      </g>
     </g>
     <g id="text_14">
      <!-- 0.04 -->
      <g transform="translate(28.334375 170.902611)scale(0.1 -0.1)">
       <defs>
        <path d="M 2419 4116 
L 825 1625 
L 2419 1625 
L 2419 4116 
z
M 2253 4666 
L 3047 4666 
L 3047 1625 
L 3713 1625 
L 3713 1100 
L 3047 1100 
L 3047 0 
L 2419 0 
L 2419 1100 
L 313 1100 
L 313 1709 
L 2253 4666 
z
" id="DejaVuSans-34" transform="scale(0.015625)"/>
       </defs>
       <use xlink:href="#DejaVuSans-30"/>
       <use x="63.623047" xlink:href="#DejaVuSans-2e"/>
       <use x="95.410156" xlink:href="#DejaVuSans-30"/>
       <use x="159.033203" xlink:href="#DejaVuSans-34"/>
      </g>
     </g>
    </g>
    <g id="ytick_6">
     <g id="line2d_15">
      <g>
       <use style="stroke:#000000;stroke-width:0.8;" x="57.6" xlink:href="#m24263ebb9d" y="135.00724"/>
      </g>
     </g>
     <g id="text_15">
      <!-- 0.05 -->
      <g transform="translate(28.334375 138.806458)scale(0.1 -0.1)">
       <use xlink:href="#DejaVuSans-30"/>
       <use x="63.623047" xlink:href="#DejaVuSans-2e"/>
       <use x="95.410156" xlink:href="#DejaVuSans-30"/>
       <use x="159.033203" xlink:href="#DejaVuSans-35"/>
      </g>
     </g>
    </g>
    <g id="ytick_7">
     <g id="line2d_16">
      <g>
       <use style="stroke:#000000;stroke-width:0.8;" x="57.6" xlink:href="#m24263ebb9d" y="102.911087"/>
      </g>
     </g>
     <g id="text_16">
      <!-- 0.06 -->
      <g transform="translate(28.334375 106.710305)scale(0.1 -0.1)">
       <defs>
        <path d="M 2113 2584 
Q 1688 2584 1439 2293 
Q 1191 2003 1191 1497 
Q 1191 994 1439 701 
Q 1688 409 2113 409 
Q 2538 409 2786 701 
Q 3034 994 3034 1497 
Q 3034 2003 2786 2293 
Q 2538 2584 2113 2584 
z
M 3366 4563 
L 3366 3988 
Q 3128 4100 2886 4159 
Q 2644 4219 2406 4219 
Q 1781 4219 1451 3797 
Q 1122 3375 1075 2522 
Q 1259 2794 1537 2939 
Q 1816 3084 2150 3084 
Q 2853 3084 3261 2657 
Q 3669 2231 3669 1497 
Q 3669 778 3244 343 
Q 2819 -91 2113 -91 
Q 1303 -91 875 529 
Q 447 1150 447 2328 
Q 447 3434 972 4092 
Q 1497 4750 2381 4750 
Q 2619 4750 2861 4703 
Q 3103 4656 3366 4563 
z
" id="DejaVuSans-36" transform="scale(0.015625)"/>
       </defs>
       <use xlink:href="#DejaVuSans-30"/>
       <use x="63.623047" xlink:href="#DejaVuSans-2e"/>
       <use x="95.410156" xlink:href="#DejaVuSans-30"/>
       <use x="159.033203" xlink:href="#DejaVuSans-36"/>
      </g>
     </g>
    </g>
    <g id="ytick_8">
     <g id="line2d_17">
      <g>
       <use style="stroke:#000000;stroke-width:0.8;" x="57.6" xlink:href="#m24263ebb9d" y="70.814934"/>
      </g>
     </g>
     <g id="text_17">
      <!-- 0.07 -->
      <g transform="translate(28.334375 74.614153)scale(0.1 -0.1)">
       <use xlink:href="#DejaVuSans-30"/>
       <use x="63.623047" xlink:href="#DejaVuSans-2e"/>
       <use x="95.410156" xlink:href="#DejaVuSans-30"/>
       <use x="159.033203" xlink:href="#DejaVuSans-37"/>
      </g>
     </g>
    </g>
   </g>
   <g id="line2d_18">
    <path clip-path="url(#p8fab29690f)" d="M 73.832727 294.17278 
L 74.251636 294.226791 
L 74.251636 294.010746 
L 74.251636 294.17278 
L 74.88 294.064757 
L 74.88 294.118769 
L 75.927273 294.226791 
L 75.717818 294.280802 
L 75.927273 294.334813 
L 76.555636 294.388824 
L 76.555636 294.334813 
L 76.555636 294.442836 
L 76.555636 294.388824 
L 78.859636 294.496847 
L 78.859636 294.550858 
L 79.278545 294.550858 
L 82.839273 294.65888 
L 82.839273 294.712892 
L 82.839273 294.65888 
L 84.305455 294.65888 
L 84.305455 294.496847 
L 84.724364 294.604869 
L 84.724364 294.550858 
L 84.933818 294.496847 
L 84.933818 294.550858 
L 85.143273 294.65888 
L 85.143273 294.604869 
L 86.609455 294.496847 
L 86.4 294.550858 
L 86.609455 294.388824 
L 87.866182 294.334813 
L 87.866182 294.280802 
L 88.075636 294.226791 
L 88.075636 294.334813 
L 88.494545 294.334813 
L 88.913455 294.334813 
L 88.913455 294.334813 
L 89.332364 294.334813 
L 89.332364 294.334813 
L 89.332364 294.226791 
L 90.379636 294.010746 
L 90.379636 293.902724 
L 90.379636 293.956735 
L 90.798545 293.956735 
L 90.798545 293.902724 
L 91.636364 294.010746 
L 91.426909 294.010746 
L 91.636364 294.226791 
L 91.636364 294.064757 
L 92.055273 294.118769 
L 92.055273 294.010746 
L 92.474182 294.118769 
L 93.102545 294.064757 
L 93.102545 294.064757 
L 93.102545 293.956735 
L 93.521455 293.74069 
L 93.730909 293.632668 
L 93.730909 293.686679 
L 94.149818 293.794701 
L 94.359273 293.632668 
L 94.359273 293.794701 
L 94.359273 293.74069 
L 96.244364 294.118769 
L 96.244364 294.064757 
L 96.663273 294.118769 
L 96.663273 294.064757 
L 96.663273 294.010746 
L 97.082182 293.956735 
L 97.082182 294.064757 
L 97.082182 293.956735 
L 97.291636 293.956735 
L 97.291636 293.794701 
L 97.501091 293.902724 
L 97.501091 293.848713 
L 98.129455 293.902724 
L 98.129455 293.902724 
L 98.129455 294.010746 
L 98.338909 293.956735 
L 98.338909 294.010746 
L 100.014545 294.334813 
L 100.014545 294.334813 
L 100.642909 294.226791 
L 101.480727 294.388824 
L 101.480727 294.388824 
L 101.690182 294.334813 
L 101.690182 294.442836 
L 102.528 294.550858 
L 102.528 294.550858 
L 103.156364 294.604869 
L 103.156364 294.496847 
L 103.575273 294.65888 
L 103.994182 294.550858 
L 104.203636 294.65888 
L 104.203636 294.65888 
L 104.622545 294.65888 
L 104.622545 294.65888 
L 104.622545 294.712892 
L 105.250909 294.65888 
L 105.250909 294.65888 
L 107.554909 294.604869 
L 107.345455 294.604869 
L 107.554909 294.496847 
L 107.554909 294.550858 
L 108.183273 294.496847 
L 108.183273 294.388824 
L 108.602182 294.442836 
L 108.602182 294.388824 
L 109.021091 294.334813 
L 109.230545 294.442836 
L 109.230545 294.388824 
L 110.696727 294.334813 
L 110.696727 294.280802 
L 110.696727 294.226791 
L 110.696727 294.226791 
L 111.325091 294.118769 
L 111.325091 294.010746 
L 111.744 293.794701 
L 111.744 293.686679 
L 112.372364 293.794701 
L 112.372364 293.794701 
L 112.581818 293.632668 
L 112.791273 293.848713 
L 112.791273 293.848713 
L 114.676364 293.902724 
L 114.676364 293.74069 
L 114.885818 293.686679 
L 114.885818 293.524645 
L 115.095273 293.632668 
L 115.095273 293.524645 
L 115.304727 293.578657 
L 115.304727 293.578657 
L 115.514182 293.416623 
L 115.514182 293.308601 
L 115.723636 293.362612 
L 115.723636 293.362612 
L 115.723636 293.146567 
L 115.933091 293.200578 
L 115.933091 293.200578 
L 115.933091 293.362612 
L 116.352 293.200578 
L 116.352 293.416623 
L 116.561455 293.308601 
L 116.561455 293.308601 
L 116.561455 293.470634 
L 116.980364 293.524645 
L 116.980364 293.578657 
L 117.189818 293.74069 
L 117.189818 293.632668 
L 117.608727 293.74069 
L 117.608727 293.794701 
L 117.608727 293.794701 
L 118.865455 293.794701 
L 118.865455 293.74069 
L 119.493818 293.470634 
L 119.493818 293.578657 
L 119.493818 293.416623 
L 120.331636 293.686679 
L 120.331636 293.578657 
L 120.331636 293.794701 
L 120.96 294.064757 
L 120.96 294.064757 
L 120.96 294.17278 
L 121.378909 294.010746 
L 121.378909 294.064757 
L 121.797818 294.226791 
L 121.797818 294.118769 
L 122.007273 294.280802 
L 122.216727 294.17278 
L 122.216727 294.280802 
L 122.635636 294.280802 
L 122.426182 294.280802 
L 122.635636 294.334813 
L 122.635636 294.226791 
L 124.101818 294.280802 
L 124.101818 294.334813 
L 124.101818 294.442836 
L 124.520727 294.334813 
L 124.520727 294.442836 
L 125.568 294.604869 
L 125.568 294.550858 
L 126.196364 294.604869 
L 130.594909 294.496847 
L 130.594909 294.550858 
L 131.223273 294.334813 
L 131.223273 294.388824 
L 131.642182 294.17278 
L 131.642182 294.17278 
L 132.48 293.74069 
L 132.48 293.902724 
L 132.48 293.74069 
L 134.784 293.794701 
L 134.784 293.848713 
L 134.784 293.902724 
L 134.993455 293.848713 
L 134.784 293.794701 
L 134.993455 293.632668 
L 135.202909 293.848713 
L 135.202909 293.74069 
L 135.621818 293.632668 
L 135.621818 293.632668 
L 135.621818 293.578657 
L 136.040727 293.416623 
L 136.040727 293.308601 
L 136.250182 293.308601 
L 136.250182 293.146567 
L 136.459636 293.146567 
L 136.459636 293.146567 
L 136.459636 292.984534 
L 136.669091 293.038545 
L 136.669091 292.768489 
L 137.088 292.660466 
L 137.297455 292.768489 
L 137.297455 292.714478 
L 137.297455 292.606455 
L 137.297455 292.660466 
L 137.925818 292.876511 
L 137.925818 292.984534 
L 137.925818 292.930522 
L 138.344727 293.038545 
L 138.344727 293.038545 
L 139.182545 293.416623 
L 139.182545 293.362612 
L 140.858182 293.254589 
L 140.858182 293.254589 
L 140.858182 293.092556 
L 140.858182 293.092556 
L 141.486545 292.930522 
L 141.486545 292.930522 
L 141.696 293.038545 
L 141.696 292.930522 
L 141.905455 292.876511 
L 141.905455 292.984534 
L 142.114909 293.038545 
L 142.114909 292.876511 
L 143.162182 293.524645 
L 143.162182 293.632668 
L 143.162182 293.632668 
L 143.581091 293.686679 
L 143.581091 293.74069 
L 143.581091 293.902724 
L 144 293.956735 
L 144 293.902724 
L 143.790545 294.064757 
L 144 294.010746 
L 144.418909 294.010746 
L 144.418909 294.118769 
L 144.418909 294.064757 
L 145.256727 294.17278 
L 145.256727 294.17278 
L 145.885091 294.226791 
L 145.885091 294.226791 
L 146.304 294.226791 
L 146.304 294.280802 
L 146.304 294.226791 
L 146.513455 294.334813 
L 146.722909 294.280802 
L 146.722909 294.442836 
L 146.722909 294.388824 
L 147.979636 294.604869 
L 150.702545 294.496847 
L 150.702545 294.496847 
L 150.702545 294.388824 
L 151.121455 294.388824 
L 151.121455 294.334813 
L 152.168727 294.17278 
L 151.959273 294.17278 
L 152.378182 294.17278 
L 152.378182 294.064757 
L 153.006545 294.064757 
L 153.006545 293.956735 
L 153.006545 293.902724 
L 153.634909 293.956735 
L 153.634909 293.956735 
L 153.634909 293.848713 
L 153.844364 293.956735 
L 153.844364 293.956735 
L 154.682182 293.632668 
L 155.52 292.984534 
L 155.729455 293.038545 
L 155.52 292.930522 
L 155.729455 292.714478 
L 155.938909 292.768489 
L 155.938909 292.552444 
L 155.938909 292.552444 
L 156.148364 292.498433 
L 156.148364 292.282388 
L 156.357818 292.282388 
L 156.357818 292.066343 
L 156.567273 292.120354 
L 156.567273 292.120354 
L 156.986182 291.850299 
L 156.986182 291.958321 
L 156.986182 291.850299 
L 157.405091 291.850299 
L 157.405091 291.850299 
L 157.614545 291.850299 
L 157.405091 292.066343 
L 157.614545 291.958321 
L 157.824 291.958321 
L 157.824 292.120354 
L 157.824 292.120354 
L 158.452364 292.39041 
L 158.661818 292.336399 
L 158.452364 292.552444 
L 158.661818 292.39041 
L 158.661818 292.498433 
L 159.080727 292.606455 
L 159.080727 292.498433 
L 159.290182 292.714478 
L 159.290182 292.660466 
L 159.499636 292.714478 
L 159.499636 292.552444 
L 160.128 292.714478 
L 160.128 292.714478 
L 160.337455 292.498433 
L 160.337455 292.660466 
L 160.965818 292.39041 
L 160.965818 292.39041 
L 161.175273 292.39041 
L 161.175273 292.282388 
L 161.803636 292.066343 
L 161.803636 292.120354 
L 161.803636 291.90431 
L 162.013091 291.90431 
L 162.222545 291.742276 
L 162.222545 291.742276 
L 162.013091 291.634254 
L 162.222545 291.580243 
L 162.432 291.688265 
L 162.641455 291.634254 
L 162.641455 291.688265 
L 162.850909 291.850299 
L 162.850909 291.688265 
L 162.850909 291.850299 
L 163.269818 291.958321 
L 163.060364 291.958321 
L 163.269818 292.228377 
L 163.479273 292.120354 
L 163.479273 292.228377 
L 163.479273 292.336399 
L 163.479273 292.282388 
L 163.688727 292.336399 
L 163.898182 292.228377 
L 163.898182 292.552444 
L 163.898182 292.444422 
L 164.107636 292.714478 
L 163.898182 292.8225 
L 164.317091 292.930522 
L 164.317091 292.930522 
L 164.317091 293.092556 
L 164.736 292.984534 
L 164.736 293.038545 
L 164.945455 293.200578 
L 164.945455 293.308601 
L 165.364364 293.524645 
L 165.364364 293.578657 
L 165.573818 293.524645 
L 165.573818 293.74069 
L 166.202182 293.74069 
L 166.202182 293.794701 
L 166.411636 294.010746 
L 166.411636 293.956735 
L 167.458909 294.17278 
L 167.458909 294.17278 
L 168.087273 294.280802 
L 168.087273 294.226791 
L 168.296727 294.388824 
L 168.296727 294.334813 
L 169.134545 294.388824 
L 169.134545 294.442836 
L 169.762909 294.604869 
L 169.972364 294.496847 
L 169.972364 294.550858 
L 172.066909 294.442836 
L 172.066909 294.496847 
L 172.276364 294.334813 
L 172.276364 294.496847 
L 172.485818 294.334813 
L 172.485818 294.334813 
L 172.904727 294.280802 
L 172.904727 294.280802 
L 173.114182 294.17278 
L 173.114182 294.280802 
L 173.742545 294.010746 
L 173.742545 294.010746 
L 174.161455 293.74069 
L 174.161455 293.848713 
L 174.789818 293.416623 
L 174.789818 293.362612 
L 174.999273 293.416623 
L 174.999273 293.146567 
L 175.208727 292.984534 
L 175.208727 292.876511 
L 175.418182 292.768489 
L 175.627636 292.930522 
L 175.627636 292.714478 
L 175.627636 292.876511 
L 175.837091 292.660466 
L 176.046545 292.714478 
L 175.837091 292.660466 
L 176.046545 292.552444 
L 176.046545 292.336399 
L 176.046545 292.39041 
L 176.256 292.066343 
L 176.256 292.120354 
L 176.465455 292.174366 
L 176.465455 291.958321 
L 176.465455 291.958321 
L 176.884364 291.796287 
L 176.674909 291.634254 
L 176.884364 291.526231 
L 176.884364 291.418209 
L 177.093818 291.418209 
L 177.093818 291.364198 
L 177.093818 291.256175 
L 177.722182 291.040131 
L 177.722182 291.040131 
L 177.722182 290.878097 
L 177.722182 291.094142 
L 178.56 290.986119 
L 178.56 290.932108 
L 178.56 291.256175 
L 178.769455 291.094142 
L 179.188364 291.202164 
L 179.188364 291.148153 
L 179.188364 291.040131 
L 179.397818 291.310187 
L 179.607273 291.094142 
L 179.816727 291.256175 
L 179.816727 291.148153 
L 180.026182 291.148153 
L 180.026182 291.47222 
L 180.445091 291.148153 
L 180.235636 291.148153 
L 181.492364 291.148153 
L 181.492364 290.878097 
L 181.492364 291.040131 
L 181.701818 290.824086 
L 181.911273 291.040131 
L 181.911273 290.932108 
L 182.120727 290.986119 
L 182.120727 290.824086 
L 182.120727 290.986119 
L 182.330182 290.824086 
L 182.330182 290.986119 
L 182.330182 290.716064 
L 182.539636 290.932108 
L 182.539636 290.608041 
L 182.539636 290.662052 
L 182.958545 290.283974 
L 183.168 290.337985 
L 183.168 290.175952 
L 183.377455 289.959907 
L 183.168 290.013918 
L 183.586909 289.797873 
L 183.586909 289.311773 
L 183.796364 289.311773 
L 183.796364 289.095728 
L 184.005818 289.20375 
L 183.796364 288.987705 
L 184.005818 289.095728 
L 184.634182 288.825672 
L 184.634182 288.771661 
L 184.634182 288.933694 
L 185.053091 288.933694 
L 185.053091 289.095728 
L 185.053091 289.095728 
L 185.472 289.311773 
L 185.890909 289.581829 
L 185.890909 289.689851 
L 186.100364 289.527817 
L 186.100364 289.851884 
L 186.309818 289.743862 
L 186.100364 290.12194 
L 186.309818 290.12194 
L 186.309818 290.446008 
L 186.728727 290.55403 
L 186.728727 290.932108 
L 186.728727 290.878097 
L 187.147636 291.418209 
L 187.147636 291.364198 
L 187.147636 291.742276 
L 187.357091 291.850299 
L 187.357091 292.228377 
L 187.776 292.174366 
L 187.776 292.066343 
L 188.194909 292.282388 
L 187.985455 292.336399 
L 188.194909 292.39041 
L 188.404364 292.660466 
L 188.613818 292.984534 
L 188.613818 292.930522 
L 188.823273 292.984534 
L 188.823273 292.8225 
L 189.032727 292.8225 
L 189.032727 292.984534 
L 189.032727 292.930522 
L 189.242182 293.146567 
L 189.451636 293.200578 
L 189.451636 293.362612 
L 189.451636 293.146567 
L 189.451636 293.362612 
L 190.08 293.632668 
L 190.289455 293.632668 
L 190.289455 293.848713 
L 191.127273 294.17278 
L 191.127273 294.118769 
L 191.546182 294.334813 
L 191.546182 294.226791 
L 193.221818 294.604869 
L 193.640727 294.604869 
L 193.431273 294.604869 
L 193.850182 294.388824 
L 193.850182 294.496847 
L 194.269091 294.334813 
L 194.269091 294.118769 
L 194.478545 294.280802 
L 194.478545 294.17278 
L 194.688 293.956735 
L 194.688 293.794701 
L 195.106909 293.686679 
L 195.316364 293.632668 
L 195.316364 293.632668 
L 195.316364 293.470634 
L 195.316364 293.578657 
L 195.944727 293.200578 
L 195.944727 293.038545 
L 195.944727 293.092556 
L 196.154182 292.876511 
L 196.363636 292.606455 
L 196.363636 292.768489 
L 196.573091 292.714478 
L 196.573091 292.714478 
L 196.573091 292.552444 
L 196.782545 292.660466 
L 196.782545 292.444422 
L 196.782545 292.444422 
L 197.201455 292.120354 
L 197.201455 292.174366 
L 197.410909 291.90431 
L 197.410909 292.012332 
L 197.620364 291.796287 
L 197.620364 291.850299 
L 197.620364 291.688265 
L 197.829818 291.580243 
L 198.248727 291.148153 
L 198.248727 290.932108 
L 198.458182 291.256175 
L 198.458182 290.770075 
L 198.667636 290.824086 
L 199.086545 290.229963 
L 199.296 290.337985 
L 199.296 290.229963 
L 199.714909 290.12194 
L 199.505455 290.12194 
L 199.924364 289.905896 
L 199.924364 289.581829 
L 200.133818 289.689851 
L 200.133818 289.419795 
L 200.552727 288.933694 
L 200.552727 289.095728 
L 200.552727 288.717649 
L 200.762182 288.717649 
L 200.762182 288.663638 
L 201.390545 287.907482 
L 201.390545 287.745448 
L 201.6 287.907482 
L 201.6 287.36737 
L 201.809455 287.151325 
L 201.809455 286.773247 
L 202.018909 286.611213 
L 202.228364 286.341157 
L 202.228364 286.01709 
L 202.437818 285.909068 
L 202.437818 286.071101 
L 202.647273 285.152911 
L 202.647273 284.774833 
L 203.066182 284.072687 
L 203.066182 283.856642 
L 203.275636 283.856642 
L 203.275636 283.802631 
L 203.485091 283.694609 
L 203.694545 283.74862 
L 203.485091 283.31653 
L 203.694545 283.586586 
L 203.694545 283.262519 
L 203.904 282.992463 
L 203.904 282.722407 
L 204.113455 282.452351 
L 204.113455 281.858228 
L 204.322909 281.696195 
L 204.322909 281.588172 
L 204.532364 281.750206 
L 204.532364 281.588172 
L 204.741818 281.48015 
L 204.951273 281.04806 
L 204.951273 280.669982 
L 205.160727 280.778004 
L 205.160727 280.183881 
L 205.160727 280.615971 
L 205.370182 279.967837 
L 205.370182 280.399926 
L 205.579636 280.237893 
L 205.579636 279.967837 
L 205.579636 280.12987 
L 205.998545 279.427725 
L 206.208 279.265691 
L 206.417455 279.427725 
L 206.417455 279.21168 
L 206.626909 279.157669 
L 206.626909 279.265691 
L 206.836364 278.941624 
L 206.836364 279.319702 
L 206.836364 279.157669 
L 207.045818 279.049646 
L 207.045818 279.049646 
L 207.255273 279.103658 
L 207.255273 279.589758 
L 207.255273 279.481736 
L 207.464727 279.157669 
L 207.464727 279.913825 
L 207.674182 279.481736 
L 207.674182 279.805803 
L 207.883636 280.237893 
L 207.883636 280.56196 
L 208.302545 280.886027 
L 208.302545 281.210094 
L 208.512 281.102072 
L 208.512 281.642184 
L 208.721455 282.182295 
L 208.721455 282.182295 
L 208.930909 282.39834 
L 208.930909 282.884441 
L 209.349818 283.31653 
L 209.140364 283.532575 
L 209.349818 283.802631 
L 209.559273 283.74862 
L 209.559273 284.612799 
L 209.768727 284.612799 
L 209.768727 285.206922 
L 210.187636 286.179124 
L 210.187636 286.341157 
L 210.606545 287.151325 
L 210.816 287.259347 
L 210.606545 287.529403 
L 211.025455 288.609627 
L 211.025455 288.609627 
L 211.444364 289.041717 
L 211.444364 289.041717 
L 211.444364 289.365784 
L 211.653818 289.527817 
L 211.863273 289.743862 
L 211.863273 290.12194 
L 212.072727 290.12194 
L 212.282182 290.770075 
L 212.282182 290.824086 
L 212.701091 291.040131 
L 212.701091 291.310187 
L 212.910545 291.418209 
L 213.12 291.742276 
L 213.12 291.958321 
L 213.329455 292.228377 
L 213.329455 292.552444 
L 213.538909 292.552444 
L 213.538909 292.714478 
L 213.748364 292.714478 
L 213.957818 292.930522 
L 213.957818 293.146567 
L 213.957818 293.146567 
L 214.586182 293.578657 
L 214.586182 293.524645 
L 214.586182 293.74069 
L 214.795636 293.632668 
L 214.795636 293.902724 
L 215.005091 293.794701 
L 215.005091 293.902724 
L 215.005091 293.956735 
L 215.424 293.956735 
L 215.424 293.902724 
L 215.842909 294.010746 
L 215.842909 293.956735 
L 215.842909 294.064757 
L 215.842909 293.956735 
L 216.471273 293.848713 
L 216.471273 293.902724 
L 216.680727 293.686679 
L 216.680727 293.848713 
L 216.680727 293.578657 
L 216.890182 293.74069 
L 216.890182 293.470634 
L 217.099636 293.200578 
L 217.099636 292.984534 
L 217.937455 292.066343 
L 217.937455 291.90431 
L 218.146909 291.634254 
L 218.146909 291.202164 
L 218.356364 290.55403 
L 218.356364 289.743862 
L 218.565818 288.879683 
L 218.775273 288.555616 
L 218.775273 288.015504 
L 218.984727 287.85347 
L 218.984727 287.475392 
L 219.194182 287.36737 
L 219.194182 286.827258 
L 219.403636 286.449179 
L 219.403636 285.909068 
L 219.613091 285.476978 
L 219.613091 284.66681 
L 220.032 283.694609 
L 220.032 283.100486 
L 220.450909 281.372128 
L 220.241455 280.832016 
L 220.450909 280.399926 
L 220.450909 279.589758 
L 220.869818 278.725579 
L 220.869818 277.8614 
L 221.079273 277.591344 
L 221.079273 276.133042 
L 221.288727 275.160841 
L 221.288727 274.350673 
L 221.498182 273.162427 
L 221.498182 271.434069 
L 221.707636 270.515878 
L 221.707636 268.949554 
L 222.126545 267.491252 
L 221.917091 266.303005 
L 222.336 263.116345 
L 222.336 260.793864 
L 222.545455 258.525394 
L 222.545455 256.52698 
L 222.754909 254.366532 
L 222.754909 251.233883 
L 223.173818 245.18463 
L 223.173818 244.860563 
L 223.383273 245.076608 
L 223.383273 244.860563 
L 223.592727 245.346664 
L 223.592727 244.968585 
L 223.802182 244.050395 
L 224.011636 241.403847 
L 224.011636 236.650862 
L 224.430545 230.169519 
L 224.430545 227.576982 
L 224.64 227.360937 
L 224.849455 224.444333 
L 224.849455 224.606366 
L 224.849455 223.742187 
L 225.058909 223.094053 
L 225.058909 219.097225 
L 225.477818 213.966162 
L 225.477818 210.887524 
L 225.687273 208.673065 
L 225.687273 202.461778 
L 225.896727 201.489577 
L 226.106182 199.761219 
L 226.106182 197.97885 
L 226.315636 197.276704 
L 226.315636 189.445081 
L 226.525091 187.770735 
L 226.525091 184.692097 
L 226.944 180.803291 
L 226.944 176.266351 
L 227.153455 172.269523 
L 227.153455 169.244896 
L 227.362909 167.516538 
L 227.572364 167.084449 
L 227.572364 166.058236 
L 227.572364 166.22027 
L 227.781818 164.86999 
L 227.781818 163.573721 
L 227.781818 163.735755 
L 227.991273 163.357676 
L 227.991273 160.549095 
L 228.200727 158.928759 
L 228.200727 154.823908 
L 228.619636 151.151147 
L 228.619636 149.260756 
L 228.829091 149.692845 
L 229.038545 149.044711 
L 229.038545 143.967659 
L 229.248 143.049469 
L 229.248 136.622137 
L 229.457455 136.190048 
L 229.666909 134.299656 
L 229.666909 132.085197 
L 229.876364 131.437063 
L 229.876364 130.950962 
L 230.085818 130.248817 
L 230.295273 127.116168 
L 230.295273 122.147138 
L 230.504727 123.389396 
L 230.504727 120.364769 
L 230.714182 115.665795 
L 230.504727 115.449751 
L 230.714182 114.747605 
L 230.923636 111.560945 
L 231.133091 109.130441 
L 231.133091 107.132027 
L 231.342545 104.107401 
L 231.342545 99.840517 
L 231.552 99.624472 
L 231.970909 93.575218 
L 232.180364 94.277364 
L 232.180364 92.927084 
L 232.389818 91.306748 
L 232.389818 87.201898 
L 232.599273 88.174099 
L 232.599273 84.825406 
L 232.808727 84.825406 
L 233.018182 83.583148 
L 233.018182 80.180443 
L 233.227636 81.098633 
L 233.646545 76.939772 
L 233.646545 74.185201 
L 233.646545 74.941358 
L 234.065455 71.916731 
L 234.065455 70.404418 
L 234.274909 69.864306 
L 234.274909 68.24397 
L 234.484364 68.24397 
L 234.484364 68.622048 
L 234.693818 65.543411 
L 234.903273 67.055724 
L 234.903273 66.623634 
L 234.903273 65.489399 
L 235.112727 64.355164 
L 235.112727 63.112907 
L 235.322182 63.490985 
L 235.531636 62.518784 
L 235.531636 63.653019 
L 235.741091 62.248728 
L 235.741091 62.626806 
L 235.950545 61.600594 
L 235.950545 60.844437 
L 236.16 61.492571 
L 236.16 60.304325 
L 236.369455 62.032683 
L 236.369455 60.952459 
L 236.578909 58.900034 
L 236.578909 59.926247 
L 236.578909 60.628392 
L 236.788364 60.142292 
L 236.788364 60.574381 
L 236.997818 59.494157 
L 236.997818 59.60218 
L 237.207273 59.926247 
L 237.207273 59.008057 
L 237.416727 58.035855 
L 237.416727 60.52037 
L 237.416727 59.926247 
L 237.626182 59.224101 
L 237.626182 57.33371 
L 237.835636 59.332124 
L 237.835636 60.412348 
L 238.045091 61.006471 
L 238.045091 60.574381 
L 238.254545 61.546583 
L 238.254545 59.764213 
L 238.464 60.196303 
L 238.464 59.440146 
L 238.464 61.762627 
L 238.673455 61.87065 
L 238.673455 63.058896 
L 238.882909 58.143878 
L 238.882909 62.734829 
L 239.092364 65.273355 
L 239.092364 60.250314 
L 239.301818 64.193131 
L 239.301818 61.384549 
L 239.511273 61.762627 
L 239.511273 62.464773 
L 239.511273 62.032683 
L 239.720727 63.058896 
L 239.720727 62.950873 
L 239.930182 63.220929 
L 239.930182 62.194717 
L 240.139636 61.762627 
L 240.139636 65.489399 
L 240.349091 62.086694 
L 240.349091 64.571209 
L 240.558545 66.083523 
L 240.768 63.004885 
L 240.768 63.220929 
L 240.768 65.111321 
L 240.977455 65.489399 
L 240.977455 66.89369 
L 240.977455 66.839679 
L 241.186909 68.406004 
L 241.186909 69.378205 
L 241.396364 68.946116 
L 241.396364 69.108149 
L 241.396364 70.296395 
L 241.605818 71.484642 
L 241.605818 76.777738 
L 242.234182 80.558522 
L 242.024727 81.908801 
L 242.234182 81.476712 
L 242.443636 81.908801 
L 242.443636 83.529137 
L 242.653091 83.583148 
L 242.443636 83.529137 
L 242.653091 85.797607 
L 242.862545 86.553764 
L 242.862545 85.959641 
L 242.862545 87.525965 
L 243.072 89.362346 
L 243.072 91.684827 
L 243.281455 92.332961 
L 243.490909 93.953297 
L 243.490909 95.8977 
L 243.700364 95.951711 
L 243.909818 97.626058 
L 243.700364 98.976337 
L 243.909818 99.732494 
L 243.909818 101.082774 
L 244.119273 101.35283 
L 244.119273 103.945367 
L 244.119273 103.891356 
L 244.328727 107.672139 
L 244.119273 109.454508 
L 244.328727 109.616542 
L 244.538182 110.804788 
L 244.538182 112.803202 
L 244.747636 112.803202 
L 244.747636 112.911225 
L 244.957091 113.343314 
L 245.376 118.366355 
L 245.166545 120.742847 
L 245.376 121.877082 
L 245.376 124.793687 
L 245.794909 128.088369 
L 245.794909 127.008145 
L 245.794909 128.736503 
L 245.794909 128.250403 
L 246.004364 130.680906 
L 246.213818 131.112996 
L 246.213818 133.921578 
L 246.423273 137.162249 
L 246.423273 142.455346 
L 246.632727 145.533984 
L 246.842182 146.776241 
L 246.632727 146.992286 
L 247.051636 150.881091 
L 247.051636 150.611036 
L 247.051636 152.717472 
L 247.261091 154.013741 
L 247.261091 157.470457 
L 247.470545 161.521296 
L 247.889455 166.922415 
L 247.889455 169.676986 
L 248.098909 171.297321 
L 248.308364 171.837433 
L 248.308364 171.783422 
L 248.308364 175.78025 
L 248.727273 182.261593 
L 248.517818 184.422041 
L 248.936727 187.014578 
L 249.146182 190.309261 
L 249.355636 190.417283 
L 249.355636 193.819988 
L 249.565091 195.386312 
L 249.565091 197.816816 
L 249.774545 199.869241 
L 249.774545 201.867655 
L 249.984 203.974092 
L 249.984 205.756461 
L 250.402909 208.403009 
L 250.612364 208.673065 
L 250.402909 210.131367 
L 251.031273 216.990789 
L 251.031273 221.311684 
L 251.240727 221.905807 
L 251.240727 222.715975 
L 251.450182 223.634165 
L 251.450182 224.390322 
L 251.659636 224.660378 
L 251.659636 225.362523 
L 251.869091 226.766814 
L 251.869091 228.009071 
L 252.078545 229.251329 
L 252.078545 232.0059 
L 252.288 231.951888 
L 252.288 232.600023 
L 252.497455 234.004314 
L 252.706909 235.840694 
L 252.706909 237.082951 
L 252.916364 238.919332 
L 252.916364 241.511869 
L 253.125818 242.646104 
L 253.125818 244.428473 
L 253.335273 244.75254 
L 253.335273 245.670731 
L 253.544727 245.832764 
L 253.544727 247.4531 
L 253.754182 249.235469 
L 253.754182 250.531738 
L 253.963636 251.55795 
L 253.963636 253.82642 
L 254.173091 255.932857 
L 254.173091 256.635002 
L 254.382545 257.607204 
L 254.382545 258.525394 
L 254.592 259.443584 
L 254.592 260.793864 
L 254.801455 262.144144 
L 254.801455 263.278379 
L 255.220364 265.816905 
L 255.220364 269.327632 
L 255.639273 271.001979 
L 255.639273 272.514292 
L 255.848727 273.270449 
L 255.848727 274.080617 
L 256.058182 275.106829 
L 256.058182 276.619143 
L 256.267636 277.105244 
L 256.267636 277.375299 
L 256.477091 277.645355 
L 256.477091 278.239479 
L 256.686545 278.77959 
L 256.686545 279.643769 
L 256.896 280.075859 
L 256.896 281.48015 
L 257.105455 281.804217 
L 257.105455 283.31653 
L 257.314909 283.856642 
L 257.314909 284.558788 
L 257.524364 284.936866 
L 257.524364 285.530989 
L 257.733818 286.071101 
L 257.733818 286.395168 
L 257.943273 286.719235 
L 257.943273 287.097314 
L 258.152727 287.529403 
L 258.152727 289.311773 
L 258.571636 289.473806 
L 258.571636 290.283974 
L 258.781091 290.391996 
L 258.781091 290.608041 
L 258.990545 290.878097 
L 258.990545 291.202164 
L 259.2 291.580243 
L 259.2 292.228377 
L 259.409455 292.444422 
L 259.828364 293.308601 
L 260.037818 293.470634 
L 260.037818 293.632668 
L 260.037818 293.578657 
L 260.456727 293.578657 
L 260.456727 293.74069 
L 260.666182 293.74069 
L 260.666182 293.956735 
L 260.875636 293.956735 
L 260.875636 294.064757 
L 260.875636 294.118769 
L 261.713455 294.010746 
L 261.713455 294.064757 
L 261.713455 293.956735 
L 261.922909 293.794701 
L 261.922909 293.794701 
L 262.132364 293.632668 
L 262.341818 293.794701 
L 262.341818 293.578657 
L 262.341818 293.632668 
L 262.970182 293.308601 
L 262.970182 293.038545 
L 263.389091 292.606455 
L 263.598545 292.552444 
L 263.598545 292.336399 
L 263.808 292.39041 
L 263.808 292.228377 
L 264.226909 292.39041 
L 264.017455 292.228377 
L 264.226909 292.012332 
L 264.226909 292.012332 
L 264.436364 291.958321 
L 264.645818 291.742276 
L 264.645818 291.526231 
L 264.855273 291.580243 
L 264.855273 291.364198 
L 265.064727 291.418209 
L 265.064727 291.148153 
L 265.274182 291.364198 
L 265.274182 290.986119 
L 265.483636 291.040131 
L 265.483636 290.932108 
L 266.740364 289.905896 
L 266.740364 289.797873 
L 266.740364 289.797873 
L 267.159273 289.581829 
L 267.159273 289.527817 
L 267.159273 289.581829 
L 267.368727 289.581829 
L 267.368727 289.473806 
L 267.578182 289.257761 
L 267.997091 289.149739 
L 267.997091 288.879683 
L 267.997091 289.095728 
L 268.416 288.933694 
L 268.416 289.041717 
L 268.834909 288.771661 
L 268.834909 288.609627 
L 268.834909 288.717649 
L 269.044364 288.393582 
L 269.253818 288.717649 
L 269.253818 288.28556 
L 269.463273 288.28556 
L 269.463273 288.177538 
L 269.672727 288.447594 
L 269.463273 288.393582 
L 269.672727 288.069515 
L 270.301091 288.123526 
L 270.301091 288.069515 
L 270.510545 287.799459 
L 270.510545 288.069515 
L 270.929455 287.907482 
L 270.929455 287.691437 
L 270.929455 287.745448 
L 271.138909 287.475392 
L 271.348364 287.637426 
L 271.348364 287.529403 
L 271.767273 287.475392 
L 271.767273 287.475392 
L 271.976727 287.205336 
L 271.976727 287.259347 
L 272.186182 287.475392 
L 272.395636 287.259347 
L 272.186182 287.097314 
L 272.395636 287.421381 
L 272.605091 287.421381 
L 273.024 287.043303 
L 273.024 287.205336 
L 273.233455 287.205336 
L 273.233455 286.881269 
L 273.442909 287.205336 
L 273.652364 287.043303 
L 273.652364 287.421381 
L 273.652364 287.205336 
L 273.861818 287.313359 
L 274.071273 287.043303 
L 274.071273 287.259347 
L 274.490182 286.989291 
L 274.490182 287.097314 
L 274.490182 287.205336 
L 274.699636 287.151325 
L 274.699636 287.313359 
L 274.909091 287.205336 
L 274.909091 287.313359 
L 274.909091 287.36737 
L 275.118545 287.313359 
L 275.328 287.529403 
L 275.328 287.421381 
L 275.328 287.205336 
L 275.537455 287.421381 
L 275.537455 287.583414 
L 275.746909 287.745448 
L 275.746909 287.907482 
L 276.165818 287.85347 
L 276.165818 288.177538 
L 276.375273 288.231549 
L 276.375273 288.015504 
L 276.375273 288.339571 
L 276.584727 288.339571 
L 276.584727 288.447594 
L 276.584727 288.501605 
L 276.794182 288.501605 
L 277.213091 289.149739 
L 277.422545 289.311773 
L 277.422545 289.365784 
L 277.632 289.473806 
L 278.050909 290.013918 
L 278.050909 290.608041 
L 278.260364 290.662052 
L 278.260364 290.824086 
L 278.260364 290.770075 
L 278.888727 291.796287 
L 278.888727 291.634254 
L 278.888727 291.958321 
L 279.307636 292.174366 
L 279.307636 292.228377 
L 279.517091 292.336399 
L 279.517091 292.606455 
L 279.726545 292.444422 
L 279.936 292.606455 
L 279.936 292.606455 
L 279.936 292.714478 
L 280.145455 292.930522 
L 280.564364 293.308601 
L 280.773818 293.416623 
L 280.773818 293.578657 
L 280.983273 293.524645 
L 280.983273 293.632668 
L 281.611636 293.794701 
L 281.402182 293.956735 
L 281.611636 293.902724 
L 281.821091 294.064757 
L 281.821091 294.17278 
L 282.449455 294.17278 
L 282.449455 294.442836 
L 282.868364 294.442836 
L 282.868364 294.442836 
L 283.706182 294.496847 
L 283.706182 294.496847 
L 283.706182 294.604869 
L 283.706182 294.496847 
L 283.915636 294.604869 
L 283.915636 294.496847 
L 285.591273 294.388824 
L 285.591273 294.334813 
L 286.010182 294.388824 
L 286.638545 294.118769 
L 286.638545 294.118769 
L 286.848 294.118769 
L 286.848 294.064757 
L 287.266909 293.794701 
L 287.476364 293.848713 
L 287.476364 293.74069 
L 287.685818 293.578657 
L 287.685818 293.524645 
L 287.895273 293.578657 
L 289.152 292.984534 
L 289.570909 292.984534 
L 289.570909 292.768489 
L 289.570909 292.876511 
L 289.780364 292.660466 
L 289.780364 292.660466 
L 290.199273 292.660466 
L 290.199273 292.552444 
L 290.408727 292.444422 
L 290.827636 292.660466 
L 290.827636 292.39041 
L 291.037091 292.660466 
L 291.037091 292.606455 
L 291.246545 292.552444 
L 291.246545 292.714478 
L 291.456 292.552444 
L 291.665455 292.714478 
L 291.874909 292.552444 
L 291.874909 292.660466 
L 292.922182 292.876511 
L 293.550545 292.930522 
L 293.550545 293.038545 
L 293.550545 292.876511 
L 294.178909 292.930522 
L 294.178909 293.038545 
L 294.178909 292.984534 
L 294.807273 293.038545 
L 295.016727 292.930522 
L 295.016727 293.092556 
L 295.435636 292.984534 
L 295.016727 293.146567 
L 295.435636 292.984534 
L 295.435636 293.092556 
L 295.645091 293.092556 
L 295.854545 292.876511 
L 295.854545 292.930522 
L 296.064 292.984534 
L 296.064 292.984534 
L 296.273455 292.876511 
L 296.273455 292.876511 
L 296.482909 292.930522 
L 296.482909 292.876511 
L 296.692364 292.714478 
L 296.692364 292.930522 
L 297.111273 292.768489 
L 297.111273 292.8225 
L 297.320727 292.876511 
L 297.530182 292.714478 
L 297.530182 292.8225 
L 297.739636 292.8225 
L 297.739636 292.714478 
L 297.739636 292.660466 
L 298.577455 292.876511 
L 298.786909 292.714478 
L 298.786909 292.984534 
L 299.205818 293.092556 
L 299.205818 293.254589 
L 299.624727 293.254589 
L 299.624727 293.254589 
L 300.462545 293.902724 
L 300.462545 293.902724 
L 300.881455 293.902724 
L 301.300364 294.118769 
L 301.300364 294.118769 
L 301.300364 294.280802 
L 301.719273 294.226791 
L 301.719273 294.280802 
L 302.138182 294.334813 
L 302.138182 294.388824 
L 302.976 294.550858 
L 303.394909 294.496847 
L 303.185455 294.442836 
L 304.023273 294.550858 
L 309.050182 294.496847 
L 309.050182 294.496847 
L 309.050182 294.388824 
L 309.050182 294.442836 
L 309.888 294.334813 
L 310.097455 294.442836 
L 310.097455 294.442836 
L 311.144727 294.226791 
L 311.144727 294.226791 
L 311.144727 294.388824 
L 311.563636 294.118769 
L 311.563636 294.280802 
L 313.239273 293.74069 
L 313.239273 293.74069 
L 313.239273 293.686679 
L 314.077091 293.632668 
L 314.077091 293.524645 
L 314.077091 293.632668 
L 315.333818 293.686679 
L 315.333818 293.470634 
L 315.333818 293.578657 
L 316.8 294.010746 
L 316.8 293.956735 
L 317.009455 293.848713 
L 317.009455 293.902724 
L 317.428364 294.010746 
L 317.428364 293.956735 
L 317.637818 294.118769 
L 317.637818 294.010746 
L 318.894545 294.010746 
L 318.894545 293.956735 
L 319.313455 293.848713 
L 319.313455 293.848713 
L 319.732364 293.902724 
L 319.732364 293.794701 
L 319.941818 293.794701 
L 319.941818 293.902724 
L 319.941818 293.956735 
L 320.360727 293.902724 
L 320.779636 294.064757 
L 320.779636 294.064757 
L 320.989091 294.010746 
L 320.989091 294.118769 
L 321.617455 294.388824 
L 321.408 294.334813 
L 322.245818 294.442836 
L 322.245818 294.388824 
L 322.245818 294.496847 
L 322.664727 294.442836 
L 322.664727 294.496847 
L 326.016 294.604869 
L 326.016 294.604869 
L 326.644364 294.65888 
L 326.644364 294.604869 
L 326.644364 294.65888 
L 327.063273 294.65888 
L 326.853818 294.65888 
L 329.786182 294.604869 
L 329.786182 294.496847 
L 329.786182 294.550858 
L 331.671273 294.442836 
L 331.671273 294.442836 
L 332.090182 294.388824 
L 332.090182 294.388824 
L 332.718545 294.442836 
L 332.718545 294.388824 
L 336.069818 294.280802 
L 336.069818 294.226791 
L 336.907636 294.118769 
L 336.907636 294.17278 
L 337.326545 294.118769 
L 337.536 294.226791 
L 337.536 294.17278 
L 338.373818 294.280802 
L 338.373818 294.280802 
L 339.002182 294.334813 
L 338.792727 294.334813 
L 342.772364 294.442836 
L 342.772364 294.442836 
L 342.772364 294.550858 
L 343.191273 294.496847 
L 343.191273 294.496847 
L 343.819636 294.604869 
L 344.448 294.550858 
L 344.448 294.604869 
L 344.448 294.550858 
L 348.008727 294.65888 
L 348.008727 294.65888 
L 348.427636 294.65888 
L 353.873455 294.550858 
L 353.873455 294.604869 
L 354.082909 294.496847 
L 354.082909 294.550858 
L 358.900364 294.442836 
L 358.900364 294.496847 
L 358.900364 294.388824 
L 358.900364 294.496847 
L 359.109818 294.388824 
L 359.528727 294.388824 
L 359.528727 294.388824 
L 360.785455 294.442836 
L 360.785455 294.388824 
L 360.994909 294.550858 
L 361.204364 294.442836 
L 361.204364 294.550858 
L 361.832727 294.496847 
L 361.832727 294.496847 
L 367.069091 294.604869 
L 367.488 294.604869 
L 367.906909 294.604869 
L 383.406545 294.496847 
L 384.034909 294.442836 
L 385.082182 294.550858 
L 385.082182 294.550858 
L 385.710545 294.604869 
L 385.710545 294.550858 
L 392.203636 294.604869 
L 392.203636 294.712892 
L 398.487273 294.604869 
L 398.487273 294.604869 
" style="fill:none;stroke:#1f77b4;stroke-linecap:square;stroke-width:1.5;"/>
   </g>
   <g id="line2d_19">
    <path clip-path="url(#p8fab29690f)" d="M 73.832727 295.487992 
L 77.407502 295.374873 
L 86.506929 294.910438 
L 90.081704 295.074239 
L 97.231253 295.488 
L 100.156069 295.385699 
L 104.705782 294.951235 
L 108.280557 294.693294 
L 111.205373 294.721594 
L 114.455168 295.000756 
L 119.65484 295.469171 
L 122.254676 295.445078 
L 124.854513 295.194251 
L 132.329042 294.280047 
L 134.603898 294.330212 
L 137.203735 294.633231 
L 143.053366 295.455642 
L 145.003243 295.467955 
L 146.95312 295.269872 
L 149.227977 294.811855 
L 154.427649 293.628455 
L 156.377527 293.471577 
L 158.002424 293.545146 
L 159.952301 293.868697 
L 162.877117 294.649562 
L 165.476953 295.28453 
L 167.101851 295.475677 
L 168.726749 295.425329 
L 170.351646 295.107316 
L 171.976544 294.543471 
L 174.2514 293.482967 
L 177.176216 292.136239 
L 178.801114 291.656172 
L 180.101032 291.503848 
L 181.40095 291.589041 
L 182.700868 291.91216 
L 184.325766 292.602787 
L 186.925602 294.055857 
L 188.875479 295.022043 
L 190.175397 295.405311 
L 191.150336 295.487124 
L 192.125274 295.358505 
L 193.100213 295.000593 
L 194.075152 294.407838 
L 195.05009 293.589477 
L 196.350008 292.192266 
L 198.299885 289.660351 
L 200.899722 286.289567 
L 202.19964 285.014335 
L 203.174578 284.380112 
L 203.824537 284.143851 
L 204.474496 284.072223 
L 205.124455 284.173795 
L 205.774414 284.452375 
L 206.749353 285.197387 
L 207.724292 286.306768 
L 209.02421 288.244305 
L 212.598984 294.139323 
L 213.573923 295.130571 
L 214.223882 295.451896 
L 214.873841 295.429319 
L 215.5238 295.001259 
L 216.173759 294.107816 
L 216.823718 292.69202 
L 217.473677 290.701093 
L 218.123636 288.087679 
L 219.098575 282.913359 
L 220.073514 276.144798 
L 221.048452 267.724769 
L 222.34837 253.929252 
L 223.648288 237.34336 
L 225.273186 213.212126 
L 227.548043 175.059524 
L 231.122817 114.190357 
L 232.747715 90.502728 
L 234.047633 74.993722 
L 235.022572 65.854693 
L 235.99751 59.128171 
L 236.647469 56.076335 
L 237.297428 54.215446 
L 237.622408 53.739206 
L 237.947387 53.568 
L 238.272367 53.702346 
L 238.597346 54.141837 
L 238.922326 54.885142 
L 239.572285 57.27328 
L 240.222244 60.837918 
L 240.872203 65.53615 
L 241.847142 74.582456 
L 242.82208 85.808476 
L 244.121998 103.64983 
L 245.746896 129.402889 
L 251.921507 232.237049 
L 253.221425 249.552927 
L 254.521343 264.153033 
L 255.496282 273.194135 
L 256.47122 280.575617 
L 257.446159 286.335673 
L 258.421097 290.561508 
L 259.071057 292.58871 
L 259.721016 294.037756 
L 260.370975 294.961135 
L 261.020934 295.415598 
L 261.670893 295.460903 
L 262.320852 295.158568 
L 262.970811 294.570638 
L 263.945749 293.287133 
L 265.570647 290.559019 
L 267.520524 287.279341 
L 268.820442 285.571702 
L 269.795381 284.685534 
L 270.770319 284.185573 
L 271.420278 284.073379 
L 272.070238 284.134756 
L 272.720197 284.361407 
L 273.695135 284.982918 
L 274.670074 285.890765 
L 275.969992 287.425574 
L 280.519705 293.230416 
L 281.819623 294.379163 
L 282.794562 294.981273 
L 283.7695 295.348618 
L 284.744439 295.486179 
L 285.719378 295.412317 
L 287.019296 295.037434 
L 288.644193 294.25842 
L 292.543948 292.171077 
L 293.843866 291.731883 
L 295.143784 291.518724 
L 296.443702 291.546937 
L 297.74362 291.802784 
L 299.368518 292.381774 
L 301.968354 293.624966 
L 304.24321 294.657939 
L 305.868108 295.182329 
L 307.493006 295.45343 
L 309.117903 295.458141 
L 310.742801 295.230377 
L 313.017658 294.660664 
L 316.592432 293.742947 
L 318.54231 293.495165 
L 320.167207 293.493109 
L 322.117084 293.726 
L 324.716921 294.309476 
L 328.616675 295.210809 
L 330.566552 295.446902 
L 332.516429 295.47333 
L 334.791286 295.266269 
L 342.590794 294.274689 
L 344.865651 294.346904 
L 347.790467 294.699759 
L 352.990139 295.398846 
L 355.589975 295.485763 
L 358.189812 295.349059 
L 366.639279 294.675164 
L 369.564095 294.800536 
L 379.313481 295.483229 
L 382.888256 295.305097 
L 389.387846 294.910959 
L 392.637641 294.973083 
L 398.487273 295.372547 
L 398.487273 295.372547 
" style="fill:none;stroke:#ff7f0e;stroke-linecap:square;stroke-width:1.5;"/>
   </g>
   <g id="patch_3">
    <path d="M 57.6 307.584 
L 57.6 41.472 
" style="fill:none;stroke:#000000;stroke-linecap:square;stroke-linejoin:miter;stroke-width:0.8;"/>
   </g>
   <g id="patch_4">
    <path d="M 414.72 307.584 
L 414.72 41.472 
" style="fill:none;stroke:#000000;stroke-linecap:square;stroke-linejoin:miter;stroke-width:0.8;"/>
   </g>
   <g id="patch_5">
    <path d="M 57.6 307.584 
L 414.72 307.584 
" style="fill:none;stroke:#000000;stroke-linecap:square;stroke-linejoin:miter;stroke-width:0.8;"/>
   </g>
   <g id="patch_6">
    <path d="M 57.6 41.472 
L 414.72 41.472 
" style="fill:none;stroke:#000000;stroke-linecap:square;stroke-linejoin:miter;stroke-width:0.8;"/>
   </g>
   <g id="legend_1">
    <g id="patch_7">
     <path d="M 320.085625 78.82825 
L 407.72 78.82825 
Q 409.72 78.82825 409.72 76.82825 
L 409.72 48.472 
Q 409.72 46.472 407.72 46.472 
L 320.085625 46.472 
Q 318.085625 46.472 318.085625 48.472 
L 318.085625 76.82825 
Q 318.085625 78.82825 320.085625 78.82825 
z
" style="fill:#ffffff;opacity:0.8;stroke:#cccccc;stroke-linejoin:miter;"/>
    </g>
    <g id="line2d_20">
     <path d="M 322.085625 54.570437 
L 342.085625 54.570437 
" style="fill:none;stroke:#1f77b4;stroke-linecap:square;stroke-width:1.5;"/>
    </g>
    <g id="line2d_21"/>
    <g id="text_18">
     <!-- .04Good -->
     <g transform="translate(350.085625 58.070437)scale(0.1 -0.1)">
      <defs>
       <path d="M 3809 666 
L 3809 1919 
L 2778 1919 
L 2778 2438 
L 4434 2438 
L 4434 434 
Q 4069 175 3628 42 
Q 3188 -91 2688 -91 
Q 1594 -91 976 548 
Q 359 1188 359 2328 
Q 359 3472 976 4111 
Q 1594 4750 2688 4750 
Q 3144 4750 3555 4637 
Q 3966 4525 4313 4306 
L 4313 3634 
Q 3963 3931 3569 4081 
Q 3175 4231 2741 4231 
Q 1884 4231 1454 3753 
Q 1025 3275 1025 2328 
Q 1025 1384 1454 906 
Q 1884 428 2741 428 
Q 3075 428 3337 486 
Q 3600 544 3809 666 
z
" id="DejaVuSans-47" transform="scale(0.015625)"/>
       <path d="M 1959 3097 
Q 1497 3097 1228 2736 
Q 959 2375 959 1747 
Q 959 1119 1226 758 
Q 1494 397 1959 397 
Q 2419 397 2687 759 
Q 2956 1122 2956 1747 
Q 2956 2369 2687 2733 
Q 2419 3097 1959 3097 
z
M 1959 3584 
Q 2709 3584 3137 3096 
Q 3566 2609 3566 1747 
Q 3566 888 3137 398 
Q 2709 -91 1959 -91 
Q 1206 -91 779 398 
Q 353 888 353 1747 
Q 353 2609 779 3096 
Q 1206 3584 1959 3584 
z
" id="DejaVuSans-6f" transform="scale(0.015625)"/>
       <path d="M 2906 2969 
L 2906 4863 
L 3481 4863 
L 3481 0 
L 2906 0 
L 2906 525 
Q 2725 213 2448 61 
Q 2172 -91 1784 -91 
Q 1150 -91 751 415 
Q 353 922 353 1747 
Q 353 2572 751 3078 
Q 1150 3584 1784 3584 
Q 2172 3584 2448 3432 
Q 2725 3281 2906 2969 
z
M 947 1747 
Q 947 1113 1208 752 
Q 1469 391 1925 391 
Q 2381 391 2643 752 
Q 2906 1113 2906 1747 
Q 2906 2381 2643 2742 
Q 2381 3103 1925 3103 
Q 1469 3103 1208 2742 
Q 947 2381 947 1747 
z
" id="DejaVuSans-64" transform="scale(0.015625)"/>
      </defs>
      <use xlink:href="#DejaVuSans-2e"/>
      <use x="31.787109" xlink:href="#DejaVuSans-30"/>
      <use x="95.410156" xlink:href="#DejaVuSans-34"/>
      <use x="159.033203" xlink:href="#DejaVuSans-47"/>
      <use x="236.523438" xlink:href="#DejaVuSans-6f"/>
      <use x="297.705078" xlink:href="#DejaVuSans-6f"/>
      <use x="358.886719" xlink:href="#DejaVuSans-64"/>
     </g>
    </g>
    <g id="line2d_22">
     <path d="M 322.085625 69.248562 
L 342.085625 69.248562 
" style="fill:none;stroke:#ff7f0e;stroke-linecap:square;stroke-width:1.5;"/>
    </g>
    <g id="line2d_23"/>
    <g id="text_19">
     <!-- .04Good fit -->
     <g transform="translate(350.085625 72.748562)scale(0.1 -0.1)">
      <defs>
       <path id="DejaVuSans-20" transform="scale(0.015625)"/>
       <path d="M 2375 4863 
L 2375 4384 
L 1825 4384 
Q 1516 4384 1395 4259 
Q 1275 4134 1275 3809 
L 1275 3500 
L 2222 3500 
L 2222 3053 
L 1275 3053 
L 1275 0 
L 697 0 
L 697 3053 
L 147 3053 
L 147 3500 
L 697 3500 
L 697 3744 
Q 697 4328 969 4595 
Q 1241 4863 1831 4863 
L 2375 4863 
z
" id="DejaVuSans-66" transform="scale(0.015625)"/>
       <path d="M 603 3500 
L 1178 3500 
L 1178 0 
L 603 0 
L 603 3500 
z
M 603 4863 
L 1178 4863 
L 1178 4134 
L 603 4134 
L 603 4863 
z
" id="DejaVuSans-69" transform="scale(0.015625)"/>
       <path d="M 1172 4494 
L 1172 3500 
L 2356 3500 
L 2356 3053 
L 1172 3053 
L 1172 1153 
Q 1172 725 1289 603 
Q 1406 481 1766 481 
L 2356 481 
L 2356 0 
L 1766 0 
Q 1100 0 847 248 
Q 594 497 594 1153 
L 594 3053 
L 172 3053 
L 172 3500 
L 594 3500 
L 594 4494 
L 1172 4494 
z
" id="DejaVuSans-74" transform="scale(0.015625)"/>
      </defs>
      <use xlink:href="#DejaVuSans-2e"/>
      <use x="31.787109" xlink:href="#DejaVuSans-30"/>
      <use x="95.410156" xlink:href="#DejaVuSans-34"/>
      <use x="159.033203" xlink:href="#DejaVuSans-47"/>
      <use x="236.523438" xlink:href="#DejaVuSans-6f"/>
      <use x="297.705078" xlink:href="#DejaVuSans-6f"/>
      <use x="358.886719" xlink:href="#DejaVuSans-64"/>
      <use x="422.363281" xlink:href="#DejaVuSans-20"/>
      <use x="454.150391" xlink:href="#DejaVuSans-66"/>
      <use x="489.355469" xlink:href="#DejaVuSans-69"/>
      <use x="517.138672" xlink:href="#DejaVuSans-74"/>
     </g>
    </g>
   </g>
  </g>
 </g>
 <defs>
  <clipPath id="p8fab29690f">
   <rect height="266.112" width="357.12" x="57.6" y="41.472"/>
  </clipPath>
 </defs>
</svg>
