<?xml version="1.0" encoding="utf-8" standalone="no"?>
<!DOCTYPE svg PUBLIC "-//W3C//DTD SVG 1.1//EN"
  "http://www.w3.org/Graphics/SVG/1.1/DTD/svg11.dtd">
<!-- Created with matplotlib (https://matplotlib.org/) -->
<svg height="345.6pt" version="1.1" viewBox="0 0 460.8 345.6" width="460.8pt" xmlns="http://www.w3.org/2000/svg" xmlns:xlink="http://www.w3.org/1999/xlink">
 <metadata>
  <rdf:RDF xmlns:cc="http://creativecommons.org/ns#" xmlns:dc="http://purl.org/dc/elements/1.1/" xmlns:rdf="http://www.w3.org/1999/02/22-rdf-syntax-ns#">
   <cc:Work>
    <dc:type rdf:resource="http://purl.org/dc/dcmitype/StillImage"/>
    <dc:date>2021-05-03T09:06:26.543954</dc:date>
    <dc:format>image/svg+xml</dc:format>
    <dc:creator>
     <cc:Agent>
      <dc:title>Matplotlib v3.3.4, https://matplotlib.org/</dc:title>
     </cc:Agent>
    </dc:creator>
   </cc:Work>
  </rdf:RDF>
 </metadata>
 <defs>
  <style type="text/css">*{stroke-linecap:butt;stroke-linejoin:round;}</style>
 </defs>
 <g id="figure_1">
  <g id="patch_1">
   <path d="M 0 345.6 
L 460.8 345.6 
L 460.8 0 
L 0 0 
z
" style="fill:#ffffff;"/>
  </g>
  <g id="axes_1">
   <g id="patch_2">
    <path d="M 57.6 307.584 
L 414.72 307.584 
L 414.72 41.472 
L 57.6 41.472 
z
" style="fill:#ffffff;"/>
   </g>
   <g id="matplotlib.axis_1">
    <g id="xtick_1">
     <g id="line2d_1">
      <defs>
       <path d="M 0 0 
L 0 3.5 
" id="m762da57b07" style="stroke:#000000;stroke-width:0.8;"/>
      </defs>
      <g>
       <use style="stroke:#000000;stroke-width:0.8;" x="87.370762" xlink:href="#m762da57b07" y="307.584"/>
      </g>
     </g>
     <g id="text_1">
      <!-- −0.8 -->
      <g transform="translate(75.229356 322.182437)scale(0.1 -0.1)">
       <defs>
        <path d="M 10.59375 35.5 
L 73.1875 35.5 
L 73.1875 27.203125 
L 10.59375 27.203125 
z
" id="DejaVuSans-8722"/>
        <path d="M 31.78125 66.40625 
Q 24.171875 66.40625 20.328125 58.90625 
Q 16.5 51.421875 16.5 36.375 
Q 16.5 21.390625 20.328125 13.890625 
Q 24.171875 6.390625 31.78125 6.390625 
Q 39.453125 6.390625 43.28125 13.890625 
Q 47.125 21.390625 47.125 36.375 
Q 47.125 51.421875 43.28125 58.90625 
Q 39.453125 66.40625 31.78125 66.40625 
z
M 31.78125 74.21875 
Q 44.046875 74.21875 50.515625 64.515625 
Q 56.984375 54.828125 56.984375 36.375 
Q 56.984375 17.96875 50.515625 8.265625 
Q 44.046875 -1.421875 31.78125 -1.421875 
Q 19.53125 -1.421875 13.0625 8.265625 
Q 6.59375 17.96875 6.59375 36.375 
Q 6.59375 54.828125 13.0625 64.515625 
Q 19.53125 74.21875 31.78125 74.21875 
z
" id="DejaVuSans-48"/>
        <path d="M 10.6875 12.40625 
L 21 12.40625 
L 21 0 
L 10.6875 0 
z
" id="DejaVuSans-46"/>
        <path d="M 31.78125 34.625 
Q 24.75 34.625 20.71875 30.859375 
Q 16.703125 27.09375 16.703125 20.515625 
Q 16.703125 13.921875 20.71875 10.15625 
Q 24.75 6.390625 31.78125 6.390625 
Q 38.8125 6.390625 42.859375 10.171875 
Q 46.921875 13.96875 46.921875 20.515625 
Q 46.921875 27.09375 42.890625 30.859375 
Q 38.875 34.625 31.78125 34.625 
z
M 21.921875 38.8125 
Q 15.578125 40.375 12.03125 44.71875 
Q 8.5 49.078125 8.5 55.328125 
Q 8.5 64.0625 14.71875 69.140625 
Q 20.953125 74.21875 31.78125 74.21875 
Q 42.671875 74.21875 48.875 69.140625 
Q 55.078125 64.0625 55.078125 55.328125 
Q 55.078125 49.078125 51.53125 44.71875 
Q 48 40.375 41.703125 38.8125 
Q 48.828125 37.15625 52.796875 32.3125 
Q 56.78125 27.484375 56.78125 20.515625 
Q 56.78125 9.90625 50.3125 4.234375 
Q 43.84375 -1.421875 31.78125 -1.421875 
Q 19.734375 -1.421875 13.25 4.234375 
Q 6.78125 9.90625 6.78125 20.515625 
Q 6.78125 27.484375 10.78125 32.3125 
Q 14.796875 37.15625 21.921875 38.8125 
z
M 18.3125 54.390625 
Q 18.3125 48.734375 21.84375 45.5625 
Q 25.390625 42.390625 31.78125 42.390625 
Q 38.140625 42.390625 41.71875 45.5625 
Q 45.3125 48.734375 45.3125 54.390625 
Q 45.3125 60.0625 41.71875 63.234375 
Q 38.140625 66.40625 31.78125 66.40625 
Q 25.390625 66.40625 21.84375 63.234375 
Q 18.3125 60.0625 18.3125 54.390625 
z
" id="DejaVuSans-56"/>
       </defs>
       <use xlink:href="#DejaVuSans-8722"/>
       <use x="83.789062" xlink:href="#DejaVuSans-48"/>
       <use x="147.412109" xlink:href="#DejaVuSans-46"/>
       <use x="179.199219" xlink:href="#DejaVuSans-56"/>
      </g>
     </g>
    </g>
    <g id="xtick_2">
     <g id="line2d_2">
      <g>
       <use style="stroke:#000000;stroke-width:0.8;" x="131.074617" xlink:href="#m762da57b07" y="307.584"/>
      </g>
     </g>
     <g id="text_2">
      <!-- −0.6 -->
      <g transform="translate(118.93321 322.182437)scale(0.1 -0.1)">
       <defs>
        <path d="M 33.015625 40.375 
Q 26.375 40.375 22.484375 35.828125 
Q 18.609375 31.296875 18.609375 23.390625 
Q 18.609375 15.53125 22.484375 10.953125 
Q 26.375 6.390625 33.015625 6.390625 
Q 39.65625 6.390625 43.53125 10.953125 
Q 47.40625 15.53125 47.40625 23.390625 
Q 47.40625 31.296875 43.53125 35.828125 
Q 39.65625 40.375 33.015625 40.375 
z
M 52.59375 71.296875 
L 52.59375 62.3125 
Q 48.875 64.0625 45.09375 64.984375 
Q 41.3125 65.921875 37.59375 65.921875 
Q 27.828125 65.921875 22.671875 59.328125 
Q 17.53125 52.734375 16.796875 39.40625 
Q 19.671875 43.65625 24.015625 45.921875 
Q 28.375 48.1875 33.59375 48.1875 
Q 44.578125 48.1875 50.953125 41.515625 
Q 57.328125 34.859375 57.328125 23.390625 
Q 57.328125 12.15625 50.6875 5.359375 
Q 44.046875 -1.421875 33.015625 -1.421875 
Q 20.359375 -1.421875 13.671875 8.265625 
Q 6.984375 17.96875 6.984375 36.375 
Q 6.984375 53.65625 15.1875 63.9375 
Q 23.390625 74.21875 37.203125 74.21875 
Q 40.921875 74.21875 44.703125 73.484375 
Q 48.484375 72.75 52.59375 71.296875 
z
" id="DejaVuSans-54"/>
       </defs>
       <use xlink:href="#DejaVuSans-8722"/>
       <use x="83.789062" xlink:href="#DejaVuSans-48"/>
       <use x="147.412109" xlink:href="#DejaVuSans-46"/>
       <use x="179.199219" xlink:href="#DejaVuSans-54"/>
      </g>
     </g>
    </g>
    <g id="xtick_3">
     <g id="line2d_3">
      <g>
       <use style="stroke:#000000;stroke-width:0.8;" x="174.778471" xlink:href="#m762da57b07" y="307.584"/>
      </g>
     </g>
     <g id="text_3">
      <!-- −0.4 -->
      <g transform="translate(162.637064 322.182437)scale(0.1 -0.1)">
       <defs>
        <path d="M 37.796875 64.3125 
L 12.890625 25.390625 
L 37.796875 25.390625 
z
M 35.203125 72.90625 
L 47.609375 72.90625 
L 47.609375 25.390625 
L 58.015625 25.390625 
L 58.015625 17.1875 
L 47.609375 17.1875 
L 47.609375 0 
L 37.796875 0 
L 37.796875 17.1875 
L 4.890625 17.1875 
L 4.890625 26.703125 
z
" id="DejaVuSans-52"/>
       </defs>
       <use xlink:href="#DejaVuSans-8722"/>
       <use x="83.789062" xlink:href="#DejaVuSans-48"/>
       <use x="147.412109" xlink:href="#DejaVuSans-46"/>
       <use x="179.199219" xlink:href="#DejaVuSans-52"/>
      </g>
     </g>
    </g>
    <g id="xtick_4">
     <g id="line2d_4">
      <g>
       <use style="stroke:#000000;stroke-width:0.8;" x="218.482325" xlink:href="#m762da57b07" y="307.584"/>
      </g>
     </g>
     <g id="text_4">
      <!-- −0.2 -->
      <g transform="translate(206.340919 322.182437)scale(0.1 -0.1)">
       <defs>
        <path d="M 19.1875 8.296875 
L 53.609375 8.296875 
L 53.609375 0 
L 7.328125 0 
L 7.328125 8.296875 
Q 12.9375 14.109375 22.625 23.890625 
Q 32.328125 33.6875 34.8125 36.53125 
Q 39.546875 41.84375 41.421875 45.53125 
Q 43.3125 49.21875 43.3125 52.78125 
Q 43.3125 58.59375 39.234375 62.25 
Q 35.15625 65.921875 28.609375 65.921875 
Q 23.96875 65.921875 18.8125 64.3125 
Q 13.671875 62.703125 7.8125 59.421875 
L 7.8125 69.390625 
Q 13.765625 71.78125 18.9375 73 
Q 24.125 74.21875 28.421875 74.21875 
Q 39.75 74.21875 46.484375 68.546875 
Q 53.21875 62.890625 53.21875 53.421875 
Q 53.21875 48.921875 51.53125 44.890625 
Q 49.859375 40.875 45.40625 35.40625 
Q 44.1875 33.984375 37.640625 27.21875 
Q 31.109375 20.453125 19.1875 8.296875 
z
" id="DejaVuSans-50"/>
       </defs>
       <use xlink:href="#DejaVuSans-8722"/>
       <use x="83.789062" xlink:href="#DejaVuSans-48"/>
       <use x="147.412109" xlink:href="#DejaVuSans-46"/>
       <use x="179.199219" xlink:href="#DejaVuSans-50"/>
      </g>
     </g>
    </g>
    <g id="xtick_5">
     <g id="line2d_5">
      <g>
       <use style="stroke:#000000;stroke-width:0.8;" x="262.186179" xlink:href="#m762da57b07" y="307.584"/>
      </g>
     </g>
     <g id="text_5">
      <!-- 0.0 -->
      <g transform="translate(254.234617 322.182437)scale(0.1 -0.1)">
       <use xlink:href="#DejaVuSans-48"/>
       <use x="63.623047" xlink:href="#DejaVuSans-46"/>
       <use x="95.410156" xlink:href="#DejaVuSans-48"/>
      </g>
     </g>
    </g>
    <g id="xtick_6">
     <g id="line2d_6">
      <g>
       <use style="stroke:#000000;stroke-width:0.8;" x="305.890033" xlink:href="#m762da57b07" y="307.584"/>
      </g>
     </g>
     <g id="text_6">
      <!-- 0.2 -->
      <g transform="translate(297.938471 322.182437)scale(0.1 -0.1)">
       <use xlink:href="#DejaVuSans-48"/>
       <use x="63.623047" xlink:href="#DejaVuSans-46"/>
       <use x="95.410156" xlink:href="#DejaVuSans-50"/>
      </g>
     </g>
    </g>
    <g id="xtick_7">
     <g id="line2d_7">
      <g>
       <use style="stroke:#000000;stroke-width:0.8;" x="349.593887" xlink:href="#m762da57b07" y="307.584"/>
      </g>
     </g>
     <g id="text_7">
      <!-- 0.4 -->
      <g transform="translate(341.642325 322.182437)scale(0.1 -0.1)">
       <use xlink:href="#DejaVuSans-48"/>
       <use x="63.623047" xlink:href="#DejaVuSans-46"/>
       <use x="95.410156" xlink:href="#DejaVuSans-52"/>
      </g>
     </g>
    </g>
    <g id="xtick_8">
     <g id="line2d_8">
      <g>
       <use style="stroke:#000000;stroke-width:0.8;" x="393.297741" xlink:href="#m762da57b07" y="307.584"/>
      </g>
     </g>
     <g id="text_8">
      <!-- 0.6 -->
      <g transform="translate(385.346179 322.182437)scale(0.1 -0.1)">
       <use xlink:href="#DejaVuSans-48"/>
       <use x="63.623047" xlink:href="#DejaVuSans-46"/>
       <use x="95.410156" xlink:href="#DejaVuSans-54"/>
      </g>
     </g>
    </g>
   </g>
   <g id="matplotlib.axis_2">
    <g id="ytick_1">
     <g id="line2d_9">
      <defs>
       <path d="M 0 0 
L -3.5 0 
" id="m28f3e546ae" style="stroke:#000000;stroke-width:0.8;"/>
      </defs>
      <g>
       <use style="stroke:#000000;stroke-width:0.8;" x="57.6" xlink:href="#m28f3e546ae" y="295.488"/>
      </g>
     </g>
     <g id="text_9">
      <!-- 0.00 -->
      <g transform="translate(28.334375 299.287219)scale(0.1 -0.1)">
       <use xlink:href="#DejaVuSans-48"/>
       <use x="63.623047" xlink:href="#DejaVuSans-46"/>
       <use x="95.410156" xlink:href="#DejaVuSans-48"/>
       <use x="159.033203" xlink:href="#DejaVuSans-48"/>
      </g>
     </g>
    </g>
    <g id="ytick_2">
     <g id="line2d_10">
      <g>
       <use style="stroke:#000000;stroke-width:0.8;" x="57.6" xlink:href="#m28f3e546ae" y="265.814279"/>
      </g>
     </g>
     <g id="text_10">
      <!-- 0.01 -->
      <g transform="translate(28.334375 269.613497)scale(0.1 -0.1)">
       <defs>
        <path d="M 12.40625 8.296875 
L 28.515625 8.296875 
L 28.515625 63.921875 
L 10.984375 60.40625 
L 10.984375 69.390625 
L 28.421875 72.90625 
L 38.28125 72.90625 
L 38.28125 8.296875 
L 54.390625 8.296875 
L 54.390625 0 
L 12.40625 0 
z
" id="DejaVuSans-49"/>
       </defs>
       <use xlink:href="#DejaVuSans-48"/>
       <use x="63.623047" xlink:href="#DejaVuSans-46"/>
       <use x="95.410156" xlink:href="#DejaVuSans-48"/>
       <use x="159.033203" xlink:href="#DejaVuSans-49"/>
      </g>
     </g>
    </g>
    <g id="ytick_3">
     <g id="line2d_11">
      <g>
       <use style="stroke:#000000;stroke-width:0.8;" x="57.6" xlink:href="#m28f3e546ae" y="236.140557"/>
      </g>
     </g>
     <g id="text_11">
      <!-- 0.02 -->
      <g transform="translate(28.334375 239.939775)scale(0.1 -0.1)">
       <use xlink:href="#DejaVuSans-48"/>
       <use x="63.623047" xlink:href="#DejaVuSans-46"/>
       <use x="95.410156" xlink:href="#DejaVuSans-48"/>
       <use x="159.033203" xlink:href="#DejaVuSans-50"/>
      </g>
     </g>
    </g>
    <g id="ytick_4">
     <g id="line2d_12">
      <g>
       <use style="stroke:#000000;stroke-width:0.8;" x="57.6" xlink:href="#m28f3e546ae" y="206.466835"/>
      </g>
     </g>
     <g id="text_12">
      <!-- 0.03 -->
      <g transform="translate(28.334375 210.266054)scale(0.1 -0.1)">
       <defs>
        <path d="M 40.578125 39.3125 
Q 47.65625 37.796875 51.625 33 
Q 55.609375 28.21875 55.609375 21.1875 
Q 55.609375 10.40625 48.1875 4.484375 
Q 40.765625 -1.421875 27.09375 -1.421875 
Q 22.515625 -1.421875 17.65625 -0.515625 
Q 12.796875 0.390625 7.625 2.203125 
L 7.625 11.71875 
Q 11.71875 9.328125 16.59375 8.109375 
Q 21.484375 6.890625 26.8125 6.890625 
Q 36.078125 6.890625 40.9375 10.546875 
Q 45.796875 14.203125 45.796875 21.1875 
Q 45.796875 27.640625 41.28125 31.265625 
Q 36.765625 34.90625 28.71875 34.90625 
L 20.21875 34.90625 
L 20.21875 43.015625 
L 29.109375 43.015625 
Q 36.375 43.015625 40.234375 45.921875 
Q 44.09375 48.828125 44.09375 54.296875 
Q 44.09375 59.90625 40.109375 62.90625 
Q 36.140625 65.921875 28.71875 65.921875 
Q 24.65625 65.921875 20.015625 65.03125 
Q 15.375 64.15625 9.8125 62.3125 
L 9.8125 71.09375 
Q 15.4375 72.65625 20.34375 73.4375 
Q 25.25 74.21875 29.59375 74.21875 
Q 40.828125 74.21875 47.359375 69.109375 
Q 53.90625 64.015625 53.90625 55.328125 
Q 53.90625 49.265625 50.4375 45.09375 
Q 46.96875 40.921875 40.578125 39.3125 
z
" id="DejaVuSans-51"/>
       </defs>
       <use xlink:href="#DejaVuSans-48"/>
       <use x="63.623047" xlink:href="#DejaVuSans-46"/>
       <use x="95.410156" xlink:href="#DejaVuSans-48"/>
       <use x="159.033203" xlink:href="#DejaVuSans-51"/>
      </g>
     </g>
    </g>
    <g id="ytick_5">
     <g id="line2d_13">
      <g>
       <use style="stroke:#000000;stroke-width:0.8;" x="57.6" xlink:href="#m28f3e546ae" y="176.793113"/>
      </g>
     </g>
     <g id="text_13">
      <!-- 0.04 -->
      <g transform="translate(28.334375 180.592332)scale(0.1 -0.1)">
       <use xlink:href="#DejaVuSans-48"/>
       <use x="63.623047" xlink:href="#DejaVuSans-46"/>
       <use x="95.410156" xlink:href="#DejaVuSans-48"/>
       <use x="159.033203" xlink:href="#DejaVuSans-52"/>
      </g>
     </g>
    </g>
    <g id="ytick_6">
     <g id="line2d_14">
      <g>
       <use style="stroke:#000000;stroke-width:0.8;" x="57.6" xlink:href="#m28f3e546ae" y="147.119391"/>
      </g>
     </g>
     <g id="text_14">
      <!-- 0.05 -->
      <g transform="translate(28.334375 150.91861)scale(0.1 -0.1)">
       <defs>
        <path d="M 10.796875 72.90625 
L 49.515625 72.90625 
L 49.515625 64.59375 
L 19.828125 64.59375 
L 19.828125 46.734375 
Q 21.96875 47.46875 24.109375 47.828125 
Q 26.265625 48.1875 28.421875 48.1875 
Q 40.625 48.1875 47.75 41.5 
Q 54.890625 34.8125 54.890625 23.390625 
Q 54.890625 11.625 47.5625 5.09375 
Q 40.234375 -1.421875 26.90625 -1.421875 
Q 22.3125 -1.421875 17.546875 -0.640625 
Q 12.796875 0.140625 7.71875 1.703125 
L 7.71875 11.625 
Q 12.109375 9.234375 16.796875 8.0625 
Q 21.484375 6.890625 26.703125 6.890625 
Q 35.15625 6.890625 40.078125 11.328125 
Q 45.015625 15.765625 45.015625 23.390625 
Q 45.015625 31 40.078125 35.4375 
Q 35.15625 39.890625 26.703125 39.890625 
Q 22.75 39.890625 18.8125 39.015625 
Q 14.890625 38.140625 10.796875 36.28125 
z
" id="DejaVuSans-53"/>
       </defs>
       <use xlink:href="#DejaVuSans-48"/>
       <use x="63.623047" xlink:href="#DejaVuSans-46"/>
       <use x="95.410156" xlink:href="#DejaVuSans-48"/>
       <use x="159.033203" xlink:href="#DejaVuSans-53"/>
      </g>
     </g>
    </g>
    <g id="ytick_7">
     <g id="line2d_15">
      <g>
       <use style="stroke:#000000;stroke-width:0.8;" x="57.6" xlink:href="#m28f3e546ae" y="117.445669"/>
      </g>
     </g>
     <g id="text_15">
      <!-- 0.06 -->
      <g transform="translate(28.334375 121.244888)scale(0.1 -0.1)">
       <use xlink:href="#DejaVuSans-48"/>
       <use x="63.623047" xlink:href="#DejaVuSans-46"/>
       <use x="95.410156" xlink:href="#DejaVuSans-48"/>
       <use x="159.033203" xlink:href="#DejaVuSans-54"/>
      </g>
     </g>
    </g>
    <g id="ytick_8">
     <g id="line2d_16">
      <g>
       <use style="stroke:#000000;stroke-width:0.8;" x="57.6" xlink:href="#m28f3e546ae" y="87.771948"/>
      </g>
     </g>
     <g id="text_16">
      <!-- 0.07 -->
      <g transform="translate(28.334375 91.571166)scale(0.1 -0.1)">
       <defs>
        <path d="M 8.203125 72.90625 
L 55.078125 72.90625 
L 55.078125 68.703125 
L 28.609375 0 
L 18.3125 0 
L 43.21875 64.59375 
L 8.203125 64.59375 
z
" id="DejaVuSans-55"/>
       </defs>
       <use xlink:href="#DejaVuSans-48"/>
       <use x="63.623047" xlink:href="#DejaVuSans-46"/>
       <use x="95.410156" xlink:href="#DejaVuSans-48"/>
       <use x="159.033203" xlink:href="#DejaVuSans-55"/>
      </g>
     </g>
    </g>
    <g id="ytick_9">
     <g id="line2d_17">
      <g>
       <use style="stroke:#000000;stroke-width:0.8;" x="57.6" xlink:href="#m28f3e546ae" y="58.098226"/>
      </g>
     </g>
     <g id="text_17">
      <!-- 0.08 -->
      <g transform="translate(28.334375 61.897444)scale(0.1 -0.1)">
       <use xlink:href="#DejaVuSans-48"/>
       <use x="63.623047" xlink:href="#DejaVuSans-46"/>
       <use x="95.410156" xlink:href="#DejaVuSans-48"/>
       <use x="159.033203" xlink:href="#DejaVuSans-56"/>
      </g>
     </g>
    </g>
   </g>
   <g id="line2d_18">
    <path clip-path="url(#p29fd8ced6c)" d="M 74.114545 295.182709 
L 73.832727 295.182709 
L 76.369091 295.094227 
L 76.087273 295.094227 
L 76.932727 295.064733 
L 76.932727 295.094227 
L 83.696364 295.182709 
L 83.696364 295.182709 
L 83.414545 295.212203 
L 84.541818 295.182709 
L 84.541818 295.212203 
L 85.950909 295.153215 
L 85.950909 295.153215 
L 90.46 295.094227 
L 90.46 295.064733 
L 90.46 295.035239 
L 91.305455 295.035239 
L 91.305455 295.035239 
L 91.305455 295.005745 
L 94.123636 295.094227 
L 94.123636 295.123721 
L 94.123636 295.064733 
L 94.123636 295.094227 
L 94.969091 295.094227 
L 94.969091 295.094227 
L 95.814545 295.123721 
L 95.814545 295.094227 
L 98.350909 295.182709 
L 98.350909 295.212203 
L 98.350909 295.182709 
L 104.832727 295.094227 
L 104.832727 295.064733 
L 105.114545 295.123721 
L 105.114545 295.094227 
L 105.396364 295.035239 
L 105.396364 295.064733 
L 105.678182 295.094227 
L 105.678182 295.035239 
L 107.369091 294.946758 
L 109.341818 295.094227 
L 109.341818 295.094227 
L 110.187273 295.064733 
L 110.187273 295.094227 
L 113.005455 295.153215 
L 113.005455 295.182709 
L 113.005455 295.212203 
L 113.569091 295.153215 
L 113.569091 295.182709 
L 114.414545 295.212203 
L 114.414545 295.182709 
L 117.796364 295.094227 
L 117.796364 295.094227 
L 119.205455 295.005745 
L 119.205455 295.035239 
L 123.150909 294.976251 
L 123.150909 294.946758 
L 123.996364 294.88777 
L 123.996364 294.917264 
L 126.250909 295.094227 
L 126.250909 295.035239 
L 128.505455 295.182709 
L 128.505455 295.153215 
L 134.987273 295.094227 
L 134.987273 295.064733 
L 134.987273 295.035239 
L 134.987273 295.035239 
L 135.832727 294.976251 
L 135.550909 294.946758 
L 137.523636 294.828782 
L 137.523636 294.88777 
L 137.523636 294.828782 
L 140.623636 295.064733 
L 140.623636 295.035239 
L 140.623636 295.064733 
L 143.16 295.153215 
L 143.16 295.123721 
L 143.723636 295.153215 
L 143.723636 295.153215 
L 144.850909 295.182709 
L 147.669091 295.094227 
L 147.669091 295.094227 
L 151.614545 294.769794 
L 151.614545 294.828782 
L 152.46 294.828782 
L 152.46 294.88777 
L 152.46 294.858276 
L 154.714545 295.005745 
L 154.714545 295.005745 
L 154.714545 294.976251 
L 154.714545 295.005745 
L 155.56 295.005745 
L 155.56 294.976251 
L 155.56 295.005745 
L 156.969091 295.094227 
L 156.969091 295.094227 
L 156.969091 295.123721 
L 156.969091 295.123721 
L 161.478182 295.064733 
L 161.478182 295.035239 
L 161.478182 295.005745 
L 162.323636 295.035239 
L 162.323636 294.976251 
L 162.323636 294.976251 
L 164.86 294.533842 
L 164.86 294.563336 
L 164.86 294.504348 
L 164.86 294.533842 
L 167.396364 294.622324 
L 167.396364 294.622324 
L 167.396364 294.710806 
L 167.96 294.681312 
L 167.678182 294.681312 
L 172.750909 295.153215 
L 172.750909 295.153215 
L 173.314545 295.153215 
L 173.314545 295.212203 
L 173.314545 295.212203 
L 174.441818 295.182709 
L 174.441818 295.182709 
L 175.850909 295.123721 
L 175.850909 295.094227 
L 180.36 294.681312 
L 180.36 294.681312 
L 180.36 294.7403 
L 180.36 294.651818 
L 181.487273 294.563336 
L 181.487273 294.533842 
L 181.487273 294.563336 
L 181.769091 294.563336 
L 181.769091 294.533842 
L 182.332727 294.386372 
L 182.332727 294.474854 
L 183.178182 294.356878 
L 183.178182 294.415866 
L 184.023636 294.327384 
L 184.023636 294.415866 
L 184.023636 294.474854 
L 184.305455 294.386372 
L 185.150909 294.651818 
L 185.150909 294.651818 
L 185.996364 294.769794 
L 185.714545 294.769794 
L 185.714545 294.828782 
L 187.123636 295.035239 
L 187.123636 295.035239 
L 187.123636 295.123721 
L 187.969091 295.123721 
L 187.969091 295.182709 
L 187.969091 295.153215 
L 189.378182 295.212203 
L 189.378182 295.182709 
L 189.378182 295.212203 
L 190.787273 295.153215 
L 190.787273 295.123721 
L 193.041818 294.828782 
L 192.76 294.828782 
L 194.169091 294.533842 
L 193.605455 294.533842 
L 194.169091 294.474854 
L 194.732727 294.327384 
L 194.732727 294.179914 
L 195.014545 294.209408 
L 195.014545 294.15042 
L 195.014545 294.091432 
L 195.014545 294.120926 
L 195.578182 294.061938 
L 195.296364 294.061938 
L 196.423636 293.766998 
L 196.423636 293.796492 
L 197.269091 293.796492 
L 197.269091 293.737504 
L 197.269091 293.678516 
L 197.550909 293.825986 
L 197.550909 293.796492 
L 198.114545 293.796492 
L 198.114545 293.884974 
L 198.396364 293.973456 
L 198.396364 293.973456 
L 198.396364 294.061938 
L 198.396364 293.943962 
L 198.96 294.061938 
L 198.96 294.061938 
L 199.241818 294.032444 
L 199.241818 294.091432 
L 199.241818 294.268396 
L 199.805455 294.179914 
L 199.805455 294.268396 
L 199.805455 294.268396 
L 200.087273 294.386372 
L 200.087273 294.415866 
L 200.932727 294.59283 
L 200.932727 294.622324 
L 200.932727 294.622324 
L 203.469091 295.123721 
L 204.032727 295.094227 
L 204.032727 295.153215 
L 205.16 295.182709 
L 204.878182 295.182709 
L 207.132727 294.858276 
L 207.132727 294.858276 
L 207.132727 294.710806 
L 207.696364 294.504348 
L 207.696364 294.386372 
L 207.978182 294.474854 
L 207.978182 294.44536 
L 208.26 294.29789 
L 208.26 294.15042 
L 209.387273 293.70801 
L 209.387273 293.678516 
L 209.669091 293.678516 
L 209.669091 293.56054 
L 209.950909 293.649022 
L 209.950909 293.619528 
L 210.514545 293.41307 
L 210.514545 293.56054 
L 210.514545 293.383576 
L 211.078182 293.442564 
L 211.078182 293.295094 
L 211.078182 293.236106 
L 212.769091 293.324588 
L 212.769091 293.236106 
L 212.769091 293.383576 
L 213.332727 293.354082 
L 213.332727 293.354082 
L 213.332727 293.501552 
L 213.332727 293.41307 
L 214.178182 293.649022 
L 214.741818 293.619528 
L 214.741818 293.766998 
L 214.46 293.619528 
L 215.023636 293.85548 
L 215.023636 293.796492 
L 215.587273 293.943962 
L 215.305455 294.032444 
L 215.869091 294.00295 
L 215.587273 294.00295 
L 216.150909 294.179914 
L 216.150909 294.179914 
L 216.432727 294.179914 
L 216.432727 294.238902 
L 216.432727 294.29789 
L 216.432727 294.238902 
L 219.250909 295.035239 
L 220.378182 295.123721 
L 220.096364 295.064733 
L 221.787273 294.917264 
L 221.505455 294.88777 
L 221.787273 294.799288 
L 221.787273 294.799288 
L 221.787273 294.7403 
L 222.069091 294.769794 
L 222.069091 294.681312 
L 222.632727 294.474854 
L 222.632727 294.44536 
L 223.196364 294.238902 
L 222.914545 294.209408 
L 223.478182 293.943962 
L 223.478182 293.973456 
L 223.478182 293.825986 
L 223.76 293.70801 
L 223.76 293.649022 
L 224.605455 293.383576 
L 224.605455 293.383576 
L 224.605455 293.147625 
L 224.887273 293.177119 
L 224.887273 293.029649 
L 224.887273 293.029649 
L 225.169091 292.970661 
L 225.169091 292.970661 
L 225.169091 292.852685 
L 225.450909 292.882179 
L 225.450909 292.734709 
L 226.014545 292.380781 
L 226.014545 292.469263 
L 226.014545 292.233311 
L 226.578182 292.144829 
L 226.578182 292.026853 
L 226.578182 292.026853 
L 227.423636 291.613937 
L 227.423636 291.702419 
L 227.705455 291.643431 
L 227.705455 291.377986 
L 227.987273 291.495961 
L 227.987273 291.436974 
L 228.269091 291.289504 
L 228.269091 291.436974 
L 228.269091 291.40748 
L 228.550909 291.318998 
L 228.550909 291.466468 
L 228.550909 291.377986 
L 228.832727 291.377986 
L 228.832727 291.40748 
L 228.832727 291.613937 
L 229.114545 291.525455 
L 229.114545 291.731913 
L 229.396364 291.849889 
L 229.396364 291.967865 
L 229.678182 291.997359 
L 229.396364 292.085841 
L 229.678182 291.967865 
L 229.96 292.115335 
L 229.96 292.292299 
L 229.96 292.174323 
L 230.241818 292.262805 
L 230.241818 292.616733 
L 230.523636 292.587239 
L 230.523636 292.882179 
L 231.650909 293.354082 
L 231.369091 293.41307 
L 231.650909 293.619528 
L 231.650909 293.796492 
L 231.932727 293.796492 
L 231.932727 293.85548 
L 232.496364 293.973456 
L 232.496364 294.179914 
L 232.778182 294.179914 
L 232.778182 294.209408 
L 232.778182 294.386372 
L 233.06 294.474854 
L 233.06 294.44536 
L 233.06 294.59283 
L 233.06 294.59283 
L 233.341818 294.59283 
L 233.341818 294.622324 
L 233.341818 294.7403 
L 235.314545 294.858276 
L 235.314545 294.828782 
L 235.314545 294.828782 
L 235.878182 294.7403 
L 235.878182 294.681312 
L 236.16 294.563336 
L 236.16 294.563336 
L 236.723636 294.356878 
L 236.723636 294.327384 
L 237.005455 294.268396 
L 237.005455 294.268396 
L 236.723636 294.179914 
L 237.287273 294.032444 
L 237.287273 293.884974 
L 237.850909 293.531046 
L 237.850909 293.41307 
L 238.132727 293.324588 
L 238.132727 293.354082 
L 238.132727 293.029649 
L 238.414545 292.941167 
L 238.414545 292.823191 
L 238.414545 292.882179 
L 238.696364 292.675721 
L 238.696364 292.292299 
L 238.696364 292.321793 
L 239.541818 291.761407 
L 239.26 291.672925 
L 239.541818 291.436974 
L 239.541818 291.083046 
L 239.823636 290.994564 
L 239.823636 290.758612 
L 240.105455 290.611142 
L 240.105455 290.286708 
L 240.387273 290.22772 
L 240.387273 289.844298 
L 240.669091 289.93278 
L 240.669091 289.696829 
L 240.950909 289.637841 
L 240.950909 289.018467 
L 241.232727 289.136443 
L 241.232727 288.576057 
L 241.514545 288.517069 
L 241.514545 288.546563 
L 241.232727 288.340105 
L 241.514545 288.133647 
L 241.796364 288.133647 
L 241.796364 287.897696 
L 242.078182 287.691238 
L 242.36 287.63225 
L 242.078182 287.573262 
L 242.36 287.425792 
L 242.36 287.18984 
L 242.641818 287.366804 
L 242.641818 287.04237 
L 242.923636 287.18984 
L 242.923636 286.717936 
L 243.205455 286.835912 
L 243.205455 286.717936 
L 243.205455 286.481984 
L 243.205455 286.511478 
L 243.487273 286.481984 
L 243.487273 286.275526 
L 243.769091 286.216539 
L 243.769091 286.069069 
L 243.769091 286.275526 
L 243.769091 286.069069 
L 244.050909 285.892105 
L 244.050909 285.951093 
L 244.332727 285.980587 
L 244.332727 285.951093 
L 244.332727 285.803623 
L 244.614545 285.951093 
L 244.614545 285.744635 
L 244.614545 285.744635 
L 245.178182 285.744635 
L 245.178182 285.980587 
L 245.178182 285.774129 
L 245.46 285.921599 
L 245.741818 285.833117 
L 245.46 286.010081 
L 245.741818 285.921599 
L 245.741818 286.246032 
L 246.023636 286.275526 
L 246.023636 286.45249 
L 246.305455 286.570466 
L 246.305455 286.8949 
L 246.587273 286.953888 
L 246.587273 287.101358 
L 246.587273 286.953888 
L 247.150909 287.012876 
L 246.869091 286.953888 
L 247.150909 287.455286 
L 247.150909 287.838708 
L 247.996364 288.222129 
L 247.996364 288.782515 
L 248.56 289.401889 
L 248.841818 289.342901 
L 248.841818 289.401889 
L 248.841818 289.667335 
L 249.123636 289.873792 
L 248.841818 290.139238 
L 249.123636 290.198226 
L 248.841818 290.286708 
L 249.123636 290.52266 
L 249.123636 290.67013 
L 249.405455 290.788106 
L 249.405455 290.935576 
L 249.405455 290.906082 
L 249.687273 291.11254 
L 249.687273 291.879383 
L 249.969091 292.026853 
L 249.969091 292.203817 
L 249.969091 292.203817 
L 250.250909 292.469263 
L 250.250909 292.970661 
L 250.532727 293.059143 
L 250.532727 293.472058 
L 250.814545 293.56054 
L 250.532727 293.619528 
L 250.532727 293.766998 
L 251.096364 294.209408 
L 251.096364 294.327384 
L 251.096364 294.327384 
L 251.66 294.356878 
L 251.66 294.209408 
L 251.941818 294.209408 
L 251.941818 294.15042 
L 251.941818 294.032444 
L 252.223636 293.943962 
L 252.223636 293.85548 
L 252.505455 293.70801 
L 252.505455 293.501552 
L 252.787273 293.354082 
L 252.787273 292.498757 
L 253.069091 292.321793 
L 252.787273 291.967865 
L 253.069091 291.879383 
L 253.069091 291.613937 
L 253.350909 291.318998 
L 253.350909 291.142034 
L 253.069091 290.8176 
L 253.632727 289.578853 
L 253.632727 288.428587 
L 253.914545 287.602756 
L 253.914545 287.219334 
L 254.196364 286.59996 
L 254.196364 285.361213 
L 254.478182 284.594369 
L 254.478182 282.942706 
L 254.76 281.821935 
L 254.478182 281.143573 
L 255.041818 279.285452 
L 255.041818 275.86415 
L 255.323636 274.625403 
L 255.323636 273.239186 
L 255.605455 271.882463 
L 255.605455 268.608631 
L 255.887273 267.517353 
L 255.887273 265.157835 
L 256.169091 264.066557 
L 256.169091 260.114363 
L 256.450909 258.492194 
L 256.450909 256.693061 
L 256.732727 255.070892 
L 256.732727 252.504916 
L 257.014545 250.676289 
L 257.014545 248.080818 
L 257.296364 247.225493 
L 257.578182 245.514842 
L 257.296364 244.98395 
L 257.296364 242.771901 
L 257.578182 241.7986 
L 257.578182 240.500865 
L 257.86 238.46578 
L 257.86 237.286021 
L 258.141818 235.811321 
L 257.86 234.10067 
L 258.141818 232.360525 
L 258.141818 231.534694 
L 258.423636 230.295947 
L 258.423636 227.553006 
L 258.705455 225.399945 
L 258.705455 220.061534 
L 258.987273 218.468859 
L 258.987273 215.254015 
L 259.269091 213.720328 
L 259.269091 211.419797 
L 259.550909 210.947894 
L 259.269091 209.915604 
L 259.550909 207.792038 
L 259.550909 205.078591 
L 259.832727 203.485916 
L 259.832727 198.265481 
L 260.114545 196.200902 
L 260.114545 190.626539 
L 260.396364 189.15184 
L 260.396364 187.175743 
L 260.678182 184.757237 
L 260.678182 179.00591 
L 260.96 177.737669 
L 260.96 175.23068 
L 261.241818 174.050921 
L 260.96 173.726487 
L 261.241818 171.131017 
L 261.241818 167.060847 
L 261.523636 165.999063 
L 261.523636 161.103062 
L 261.805455 158.330628 
L 261.805455 152.402337 
L 262.087273 149.836361 
L 262.087273 143.790094 
L 262.369091 140.545756 
L 262.369091 132.729851 
L 262.650909 127.24397 
L 262.650909 123.439246 
L 262.932727 120.194908 
L 262.932727 120.961751 
L 263.214545 118.867679 
L 263.214545 115.888786 
L 263.214545 116.06575 
L 263.496364 114.060159 
L 263.496364 108.485796 
L 263.778182 107.217555 
L 263.778182 107.335531 
L 263.778182 104.651579 
L 264.06 103.117892 
L 264.06 104.563097 
L 264.06 101.908638 
L 264.341818 98.634806 
L 264.341818 94.033745 
L 264.623636 93.886275 
L 264.623636 91.438274 
L 264.905455 90.995865 
L 264.905455 91.11384 
L 264.623636 88.459382 
L 265.187273 85.804924 
L 265.187273 81.41032 
L 265.187273 81.85273 
L 265.469091 83.061983 
L 265.469091 78.22497 
L 265.750909 76.897741 
L 265.750909 78.637886 
L 265.750909 74.095812 
L 265.750909 75.098608 
L 266.032727 77.959524 
L 266.032727 72.031233 
L 266.314545 71.470848 
L 266.314545 74.00733 
L 266.596364 72.031233 
L 266.596364 73.505933 
L 266.596364 67.34169 
L 266.878182 68.22651 
L 266.878182 69.612727 
L 266.878182 69.199811 
L 267.16 69.022847 
L 267.16 65.513063 
L 267.16 70.114125 
L 267.441818 68.07904 
L 267.441818 62.563665 
L 267.441818 63.477978 
L 267.723636 71.588824 
L 267.723636 70.497546 
L 267.723636 61.560869 
L 267.723636 65.572051 
L 268.005455 67.813594 
L 268.005455 65.808003 
L 268.287273 67.63663 
L 268.287273 63.743424 
L 268.569091 68.167522 
L 268.569091 71.441354 
L 268.850909 66.781304 
L 268.850909 62.917593 
L 268.850909 71.736294 
L 269.132727 69.347281 
L 269.132727 66.604341 
L 269.132727 71.824776 
L 269.414545 71.942751 
L 269.132727 72.532631 
L 269.414545 73.181499 
L 269.696364 70.291088 
L 269.414545 71.529836 
L 269.696364 74.243282 
L 269.696364 73.830366 
L 269.696364 71.647812 
L 269.978182 74.331764 
L 269.978182 78.165982 
L 269.978182 78.106994 
L 270.26 75.246078 
L 270.541818 77.045211 
L 270.26 79.906127 
L 270.26 82.29514 
L 270.541818 82.649067 
L 270.541818 79.876633 
L 270.541818 81.55779 
L 270.823636 83.858321 
L 270.823636 88.016972 
L 270.823636 83.032489 
L 270.823636 83.386417 
L 271.105455 89.875093 
L 271.105455 88.636346 
L 271.387273 92.205118 
L 271.387273 91.526756 
L 271.387273 102.469024 
L 271.669091 88.724828 
L 271.669091 90.435479 
L 271.669091 112.526472 
L 271.669091 68.963859 
L 271.669091 81.203862 
L 271.950909 174.080415 
L 271.950909 53.568 
L 271.950909 90.553455 
L 272.232727 236.902599 
L 272.232727 54.806747 
L 272.232727 95.007046 
L 272.514545 64.539762 
L 272.514545 119.84098 
L 272.514545 99.372156 
L 272.796364 75.03962 
L 272.796364 145.471251 
L 272.796364 80.260055 
L 273.078182 101.495723 
L 273.078182 129.603488 
L 273.078182 115.505364 
L 273.36 126.241174 
L 273.36 114.060159 
L 273.641818 115.977268 
L 273.641818 144.468456 
L 273.641818 111.287725 
L 273.641818 141.401082 
L 273.923636 148.981035 
L 273.923636 127.627392 
L 273.923636 130.340838 
L 274.205455 146.827974 
L 274.205455 146.592023 
L 274.205455 153.936024 
L 274.487273 149.187493 
L 274.487273 145.235299 
L 274.205455 168.476558 
L 274.487273 157.357326 
L 274.487273 174.316367 
L 274.769091 170.334679 
L 274.769091 174.021427 
L 274.769091 173.608511 
L 275.332727 188.208033 
L 275.332727 189.269816 
L 275.050909 189.653238 
L 275.332727 193.929865 
L 275.614545 195.787986 
L 275.614545 194.696709 
L 275.614545 200.418542 
L 275.896364 201.539313 
L 275.614545 202.188181 
L 275.896364 205.963411 
L 276.178182 207.497098 
L 276.178182 214.25122 
L 276.46 216.256811 
L 276.46 219.235703 
L 276.741818 220.592426 
L 276.741818 229.057199 
L 277.023636 231.416718 
L 277.023636 234.39561 
L 277.305455 236.430695 
L 277.305455 240.559853 
L 277.587273 243.214311 
L 277.587273 246.488143 
L 277.869091 247.638409 
L 277.869091 250.263373 
L 278.150909 251.708578 
L 277.869091 253.920627 
L 278.150909 255.188868 
L 278.150909 258.580676 
L 278.432727 259.465496 
L 278.432727 260.940195 
L 278.714545 262.23793 
L 278.432727 262.739328 
L 278.714545 264.096051 
L 278.714545 266.042654 
L 278.996364 267.281401 
L 278.996364 270.52574 
L 279.278182 271.410559 
L 279.278182 273.26868 
L 279.56 273.652102 
L 279.278182 273.917548 
L 279.56 274.448439 
L 279.56 274.831861 
L 279.841818 275.362753 
L 279.841818 277.073404 
L 280.123636 277.751765 
L 280.123636 279.875332 
L 280.405455 280.494706 
L 280.405455 283.060682 
L 280.687273 283.621068 
L 280.687273 285.302225 
L 280.969091 285.685647 
L 280.969091 287.366804 
L 281.250909 287.48478 
L 281.250909 288.546563 
L 281.532727 288.929985 
L 281.532727 289.696829 
L 281.814545 289.991768 
L 281.532727 290.08025 
L 281.814545 290.316202 
L 281.814545 290.96507 
L 282.096364 291.201022 
L 282.096364 292.321793 
L 282.378182 292.498757 
L 282.096364 292.557745 
L 282.66 292.793697 
L 282.378182 292.882179 
L 282.378182 293.059143 
L 282.66 293.118131 
L 282.941818 293.383576 
L 282.66 293.442564 
L 282.66 293.56054 
L 282.941818 293.85548 
L 282.941818 293.943962 
L 283.223636 293.914468 
L 283.223636 294.061938 
L 283.223636 294.032444 
L 283.787273 294.061938 
L 283.787273 294.061938 
L 283.787273 293.943962 
L 284.069091 293.766998 
L 284.069091 293.619528 
L 284.350909 293.678516 
L 284.350909 293.147625 
L 284.632727 292.941167 
L 284.632727 292.675721 
L 284.914545 292.557745 
L 284.632727 292.351287 
L 284.914545 292.262805 
L 284.914545 292.026853 
L 285.196364 291.643431 
L 285.196364 291.201022 
L 285.478182 290.994564 
L 285.478182 290.994564 
L 285.478182 290.463672 
L 285.76 290.404684 
L 285.76 290.050756 
L 285.76 290.08025 
L 286.041818 289.844298 
L 286.041818 289.667335 
L 286.323636 289.637841 
L 286.323636 288.753021 
L 286.887273 288.222129 
L 286.605455 288.251623 
L 286.887273 288.133647 
L 286.887273 287.986177 
L 287.169091 287.92719 
L 287.169091 287.219334 
L 287.450909 287.248828 
L 287.450909 287.18984 
L 287.732727 286.953888 
L 287.732727 286.74743 
L 288.014545 286.74743 
L 288.296364 286.570466 
L 288.014545 286.540972 
L 288.014545 286.393502 
L 288.296364 286.393502 
L 288.296364 286.422996 
L 288.296364 286.511478 
L 288.296364 286.422996 
L 288.578182 286.540972 
L 288.578182 286.216539 
L 288.578182 286.216539 
L 288.86 286.364008 
L 288.86 286.275526 
L 288.86 285.980587 
L 288.86 286.039575 
L 289.141818 286.187045 
L 289.141818 285.980587 
L 289.141818 286.010081 
L 289.423636 286.039575 
L 289.423636 286.216539 
L 289.423636 286.157551 
L 289.705455 285.980587 
L 289.705455 286.098563 
L 289.705455 286.275526 
L 289.987273 286.246032 
L 289.987273 286.364008 
L 290.269091 286.246032 
L 290.269091 286.364008 
L 290.269091 286.481984 
L 290.550909 286.216539 
L 290.550909 286.688442 
L 290.832727 286.570466 
L 290.832727 286.717936 
L 291.114545 286.835912 
L 291.114545 286.8949 
L 291.396364 287.101358 
L 291.396364 287.396298 
L 291.678182 287.33731 
L 291.396364 287.573262 
L 291.96 287.63225 
L 291.678182 287.602756 
L 291.678182 287.809214 
L 291.96 287.77972 
L 291.96 287.956684 
L 292.241818 288.399093 
L 292.241818 288.340105 
L 292.241818 288.428587 
L 292.523636 288.723527 
L 292.241818 288.812009 
L 292.523636 288.664539 
L 292.523636 288.782515 
L 292.805455 289.165937 
L 292.805455 289.136443 
L 292.805455 289.372395 
L 293.087273 289.519865 
L 293.087273 289.519865 
L 293.087273 289.696829 
L 293.650909 290.37519 
L 293.650909 290.581648 
L 293.932727 290.876588 
L 293.932727 291.318998 
L 294.214545 291.348492 
L 294.214545 291.613937 
L 294.496364 291.849889 
L 294.496364 291.938371 
L 294.778182 292.233311 
L 294.778182 292.587239 
L 295.06 292.764203 
L 295.06 293.029649 
L 295.06 293.029649 
L 295.341818 293.236106 
L 295.341818 293.41307 
L 295.623636 293.678516 
L 295.623636 293.973456 
L 296.187273 294.179914 
L 296.187273 294.091432 
L 296.187273 294.268396 
L 296.469091 294.415866 
L 296.469091 294.474854 
L 296.750909 294.622324 
L 296.750909 294.681312 
L 297.596364 294.858276 
L 297.596364 294.88777 
L 298.723636 295.035239 
L 298.723636 294.976251 
L 298.723636 294.976251 
L 299.005455 295.005745 
L 299.005455 294.976251 
L 300.414545 294.59283 
L 300.414545 294.563336 
L 300.696364 294.563336 
L 300.696364 294.504348 
L 300.696364 294.386372 
L 301.26 294.29789 
L 301.26 294.15042 
L 301.26 294.238902 
L 302.387273 293.85548 
L 302.387273 293.737504 
L 302.387273 293.766998 
L 302.669091 293.85548 
L 302.669091 293.70801 
L 302.669091 293.737504 
L 302.950909 293.56054 
L 302.950909 293.531046 
L 302.950909 293.56054 
L 303.514545 293.383576 
L 303.514545 293.324588 
L 303.514545 293.324588 
L 304.641818 292.970661 
L 304.641818 292.852685 
L 304.641818 292.852685 
L 304.923636 292.852685 
L 304.923636 292.793697 
L 304.923636 292.705215 
L 305.487273 292.764203 
L 305.487273 292.675721 
L 305.769091 292.528251 
L 305.769091 292.675721 
L 305.769091 292.587239 
L 306.050909 292.705215 
L 306.614545 292.646227 
L 306.614545 292.646227 
L 307.178182 292.675721 
L 307.178182 292.823191 
L 307.178182 292.705215 
L 307.46 292.823191 
L 307.46 292.882179 
L 307.741818 292.852685 
L 307.741818 292.852685 
L 308.023636 292.970661 
L 307.741818 293.029649 
L 308.023636 292.882179 
L 308.587273 293.206613 
L 308.587273 293.206613 
L 309.150909 293.41307 
L 309.150909 293.41307 
L 309.150909 293.501552 
L 309.714545 293.649022 
L 309.714545 293.590034 
L 309.996364 293.796492 
L 310.278182 293.737504 
L 309.996364 293.825986 
L 309.996364 293.825986 
L 310.56 294.00295 
L 310.56 294.209408 
L 310.841818 294.179914 
L 310.841818 294.238902 
L 310.841818 294.327384 
L 310.841818 294.29789 
L 311.123636 294.29789 
L 311.123636 294.29789 
L 311.687273 294.504348 
L 312.250909 294.533842 
L 311.969091 294.563336 
L 312.532727 294.651818 
L 312.532727 294.710806 
L 313.66 294.88777 
L 313.66 294.858276 
L 313.66 294.946758 
L 313.66 294.917264 
L 315.632727 294.828782 
L 315.632727 294.828782 
L 315.632727 294.799288 
L 315.632727 294.799288 
L 315.914545 294.681312 
L 315.914545 294.622324 
L 315.914545 294.622324 
L 316.196364 294.622324 
L 316.196364 294.533842 
L 316.196364 294.504348 
L 317.041818 294.356878 
L 317.323636 294.386372 
L 317.323636 294.29789 
L 317.323636 294.238902 
L 317.605455 294.327384 
L 317.605455 294.179914 
L 317.605455 294.209408 
L 318.169091 294.091432 
L 318.169091 294.091432 
L 319.014545 294.061938 
L 319.014545 294.00295 
L 319.86 293.914468 
L 319.86 294.00295 
L 320.705455 294.032444 
L 320.705455 293.914468 
L 320.705455 294.00295 
L 321.832727 294.032444 
L 321.832727 294.061938 
L 322.114545 294.15042 
L 322.114545 294.00295 
L 322.678182 294.179914 
L 323.241818 294.209408 
L 323.241818 294.209408 
L 323.241818 294.268396 
L 323.805455 294.268396 
L 323.805455 294.29789 
L 323.805455 294.386372 
L 323.805455 294.29789 
L 324.087273 294.415866 
L 324.087273 294.386372 
L 324.932727 294.474854 
L 324.932727 294.474854 
L 324.932727 294.563336 
L 325.214545 294.533842 
L 325.214545 294.59283 
L 326.06 294.7403 
L 326.06 294.7403 
L 326.06 294.799288 
L 326.341818 294.769794 
L 326.341818 294.858276 
L 326.341818 294.88777 
L 326.905455 294.917264 
L 326.905455 294.917264 
L 326.905455 294.946758 
L 327.469091 294.976251 
L 327.469091 295.005745 
L 328.314545 295.094227 
L 328.314545 295.094227 
L 328.314545 295.064733 
L 328.314545 295.094227 
L 329.16 295.123721 
L 329.16 295.123721 
L 330.569091 294.917264 
L 330.569091 294.858276 
L 331.414545 294.799288 
L 331.414545 294.799288 
L 331.696364 294.710806 
L 331.696364 294.7403 
L 332.541818 294.651818 
L 332.541818 294.59283 
L 332.541818 294.651818 
L 333.105455 294.563336 
L 333.669091 294.59283 
L 333.669091 294.533842 
L 333.669091 294.474854 
L 333.950909 294.563336 
L 333.950909 294.504348 
L 334.796364 294.533842 
L 334.796364 294.504348 
L 334.796364 294.474854 
L 337.050909 294.563336 
L 337.050909 294.533842 
L 337.050909 294.59283 
L 337.614545 294.563336 
L 338.178182 294.681312 
L 338.178182 294.651818 
L 343.250909 295.094227 
L 342.969091 295.123721 
L 344.378182 295.153215 
L 344.378182 295.182709 
L 344.378182 295.153215 
L 345.505455 295.094227 
L 345.505455 295.123721 
L 346.914545 295.035239 
L 346.914545 295.005745 
L 346.914545 295.005745 
L 347.478182 295.005745 
L 347.478182 295.005745 
L 347.478182 294.946758 
L 347.478182 294.976251 
L 348.887273 294.88777 
L 349.732727 294.88777 
L 349.732727 294.88777 
L 349.732727 294.858276 
L 350.578182 294.88777 
L 350.578182 294.88777 
L 351.705455 294.828782 
L 351.705455 294.858276 
L 355.369091 294.917264 
L 355.369091 294.946758 
L 358.187273 295.182709 
L 358.187273 295.182709 
L 359.032727 295.182709 
L 359.032727 295.182709 
L 361.850909 295.094227 
L 361.569091 295.094227 
L 362.978182 295.005745 
L 362.978182 294.976251 
L 363.541818 294.976251 
L 363.26 294.917264 
L 363.823636 294.976251 
L 363.823636 294.976251 
L 363.823636 294.917264 
L 363.823636 294.917264 
L 364.387273 294.88777 
L 364.105455 294.946758 
L 364.387273 294.858276 
L 364.387273 294.88777 
L 367.487273 294.976251 
L 367.487273 295.005745 
L 367.487273 295.005745 
L 368.050909 295.005745 
L 368.050909 295.005745 
L 370.023636 295.123721 
L 370.023636 295.123721 
L 370.023636 295.094227 
L 370.023636 295.094227 
L 371.714545 295.182709 
L 371.714545 295.123721 
L 371.714545 295.182709 
L 377.632727 295.094227 
L 377.632727 295.064733 
L 377.632727 295.123721 
L 379.323636 295.035239 
L 379.323636 295.064733 
L 380.732727 294.976251 
L 380.732727 295.035239 
L 381.86 295.005745 
L 381.86 295.005745 
L 384.114545 295.153215 
L 384.114545 295.153215 
L 398.205455 295.094227 
L 397.923636 295.064733 
L 397.923636 295.035239 
L 397.923636 295.094227 
L 397.923636 295.094227 
L 398.487273 295.094227 
L 397.641818 295.094227 
L 397.923636 295.094227 
L 398.205455 293.383576 
L 397.923636 293.442564 
L 397.923636 280.96661 
L 397.923636 282.706755 
L 398.205455 278.105693 
L 397.923636 277.515814 
L 397.923636 276.336054 
L 398.205455 276.15909 
L 398.205455 273.770078 
L 398.205455 274.566415 
L 397.923636 274.271475 
L 398.205455 274.684391 
L 397.923636 276.483524 
L 397.923636 276.395042 
L 397.923636 277.19138 
L 398.205455 277.04391 
L 398.205455 276.6015 
L 397.923636 276.866946 
L 397.923636 276.395042 
L 397.923636 276.6015 
L 398.205455 276.837452 
L 397.923636 276.955428 
L 398.205455 276.807958 
L 397.923636 276.807958 
L 397.923636 276.513018 
L 397.923636 276.984922 
L 397.923636 276.630994 
L 398.205455 276.866946 
L 397.923636 276.6015 
L 397.923636 276.984922 
L 397.923636 276.807958 
L 398.205455 276.542512 
L 397.923636 276.866946 
L 397.923636 277.19138 
L 398.205455 276.630994 
L 397.923636 277.073404 
L 397.923636 276.807958 
L 397.923636 277.102898 
L 398.205455 276.74897 
L 397.923636 276.837452 
L 398.205455 276.925934 
L 397.923636 276.807958 
L 397.923636 277.102898 
L 398.205455 277.102898 
L 397.923636 276.719476 
L 397.923636 276.719476 
L 397.923636 277.102898 
L 398.205455 276.925934 
L 397.923636 276.925934 
L 398.205455 276.866946 
L 398.205455 277.102898 
L 397.923636 276.866946 
L 397.923636 277.309356 
L 397.923636 276.6015 
L 397.923636 277.014416 
L 398.205455 276.925934 
L 397.923636 277.073404 
L 397.923636 277.545307 
L 397.923636 276.74897 
L 397.923636 277.073404 
L 398.205455 277.279862 
L 397.923636 277.309356 
L 397.923636 277.073404 
L 397.923636 277.427332 
L 397.923636 277.279862 
L 398.205455 277.309356 
L 398.205455 277.073404 
L 397.923636 277.309356 
L 397.923636 276.837452 
L 397.923636 277.456826 
L 397.923636 277.250368 
L 398.205455 277.161886 
L 397.923636 277.397838 
L 397.923636 277.250368 
L 397.923636 277.368344 
L 398.205455 277.48632 
L 397.923636 277.309356 
L 397.923636 277.633789 
L 397.923636 277.250368 
L 397.923636 277.309356 
L 398.205455 277.427332 
L 398.205455 277.132392 
L 397.923636 277.574801 
L 397.923636 277.368344 
L 397.923636 277.220874 
L 398.205455 277.427332 
L 397.923636 277.574801 
L 398.205455 277.33885 
L 398.205455 277.279862 
L 397.923636 277.427332 
L 397.923636 277.19138 
L 397.923636 277.604295 
L 397.923636 277.368344 
L 398.205455 277.368344 
L 397.923636 277.220874 
L 398.205455 277.48632 
L 397.923636 277.515814 
L 397.923636 277.073404 
L 398.205455 277.663283 
L 398.205455 277.220874 
L 397.923636 277.220874 
L 397.923636 277.250368 
L 397.923636 277.456826 
L 398.205455 277.456826 
L 397.923636 277.692777 
L 398.205455 277.574801 
L 397.923636 277.899235 
L 397.923636 277.279862 
L 398.205455 277.04391 
L 397.923636 277.368344 
L 397.923636 277.781259 
L 397.923636 276.955428 
L 397.923636 277.545307 
L 398.205455 277.604295 
L 397.923636 277.456826 
L 397.923636 277.545307 
L 398.205455 277.722271 
L 397.923636 277.545307 
L 397.923636 277.309356 
L 397.923636 277.633789 
L 398.205455 277.220874 
L 398.205455 277.515814 
L 397.923636 277.633789 
L 398.205455 277.48632 
L 397.923636 277.427332 
L 397.923636 277.545307 
L 398.205455 277.368344 
L 397.923636 277.220874 
L 398.205455 277.33885 
L 397.923636 277.427332 
L 398.205455 277.33885 
L 398.205455 277.515814 
L 398.205455 277.397838 
L 397.923636 277.692777 
L 397.923636 277.33885 
L 397.923636 277.663283 
L 398.205455 277.368344 
L 397.923636 277.397838 
L 397.923636 277.692777 
L 397.923636 277.250368 
L 397.923636 277.456826 
L 398.205455 277.19138 
L 397.923636 277.574801 
L 398.205455 277.574801 
L 398.205455 277.48632 
L 398.205455 277.33885 
L 397.923636 277.456826 
L 397.923636 277.132392 
L 397.923636 277.633789 
L 397.923636 277.456826 
L 398.205455 277.456826 
L 397.923636 277.161886 
L 397.923636 277.427332 
L 398.205455 277.368344 
L 397.923636 277.250368 
L 397.923636 277.279862 
L 397.923636 277.604295 
L 397.923636 277.250368 
L 397.923636 277.33885 
L 398.205455 277.515814 
L 397.923636 277.250368 
L 397.923636 277.309356 
L 397.923636 277.840247 
L 397.923636 276.984922 
L 397.923636 277.633789 
L 397.641818 277.368344 
L 397.923636 277.279862 
L 397.923636 277.781259 
L 397.923636 277.574801 
L 397.641818 277.397838 
L 397.923636 277.309356 
L 397.641818 277.663283 
L 397.641818 277.309356 
L 397.923636 277.19138 
L 397.923636 277.279862 
L 397.923636 276.984922 
L 397.923636 277.633789 
L 397.923636 277.515814 
L 397.641818 277.279862 
L 397.641818 277.309356 
L 397.923636 277.810753 
L 397.923636 277.574801 
L 397.923636 277.574801 
L 397.641818 277.692777 
L 397.923636 277.781259 
L 397.923636 277.663283 
L 397.641818 277.840247 
L 397.923636 277.663283 
L 397.923636 277.958223 
L 397.641818 278.076199 
L 397.923636 279.078995 
L 397.641818 279.34444 
L 397.923636 279.727862 
L 397.923636 279.698368 
L 397.923636 280.258754 
L 397.641818 280.37673 
L 397.923636 280.406224 
L 397.641818 280.494706 
L 397.923636 280.67167 
L 397.641818 280.642176 
L 397.923636 280.583188 
L 397.641818 280.789646 
L 397.923636 280.848634 
L 397.923636 280.583188 
L 397.923636 280.730658 
L 397.641818 280.583188 
L 397.641818 280.435718 
L 397.923636 280.701164 
L 397.923636 280.347236 
L 397.923636 280.347236 
L 397.641818 280.022802 
L 397.923636 280.258754 
L 397.923636 280.170272 
L 397.641818 280.140778 
L 397.923636 279.609886 
L 397.923636 279.698368 
L 397.641818 279.816344 
L 397.923636 279.49191 
L 397.923636 279.845838 
L 397.923636 279.816344 
L 397.641818 279.757356 
L 397.923636 279.904826 
L 397.923636 279.904826 
L 397.923636 280.022802 
L 397.641818 280.170272 
L 397.923636 280.317742 
L 397.923636 280.052296 
L 397.641818 280.111284 
L 397.923636 279.993308 
L 397.641818 280.022802 
L 397.923636 279.93432 
L 397.641818 280.199766 
L 397.923636 280.111284 
L 397.923636 279.93432 
L 397.923636 280.199766 
L 397.923636 280.140778 
L 397.641818 279.875332 
L 397.923636 279.875332 
L 397.641818 279.78685 
L 397.923636 279.668874 
L 397.923636 279.462416 
L 397.923636 279.875332 
L 397.641818 279.580392 
L 397.641818 279.609886 
L 397.641818 279.816344 
L 397.923636 279.550898 
L 397.923636 279.727862 
L 397.641818 279.727862 
L 397.923636 279.993308 
L 397.923636 279.580392 
L 397.923636 279.727862 
L 397.641818 279.904826 
L 397.923636 280.111284 
L 397.923636 279.845838 
L 397.923636 280.140778 
L 397.641818 279.816344 
L 397.923636 280.199766 
L 397.641818 280.08179 
L 397.923636 279.757356 
L 397.923636 280.494706 
L 397.923636 280.199766 
L 397.641818 280.170272 
L 397.923636 280.347236 
L 397.641818 280.435718 
L 397.641818 279.963814 
L 397.923636 280.317742 
L 397.641818 280.22926 
L 397.923636 280.494706 
L 397.923636 280.347236 
L 397.641818 280.406224 
L 397.641818 280.199766 
L 397.923636 280.5242 
L 397.923636 280.258754 
L 397.641818 280.5242 
L 397.923636 280.5242 
L 397.641818 280.5242 
L 397.641818 280.347236 
L 397.641818 280.67167 
L 397.923636 280.347236 
L 397.923636 280.583188 
L 397.641818 280.258754 
L 397.923636 280.789646 
L 397.923636 280.553694 
L 397.641818 280.789646 
L 397.923636 280.642176 
L 397.923636 280.258754 
L 397.641818 280.317742 
L 397.923636 280.170272 
L 397.923636 280.347236 
L 397.923636 280.494706 
L 397.641818 280.5242 
L 397.923636 280.435718 
L 397.641818 280.288248 
L 397.641818 280.37673 
L 397.923636 280.583188 
L 397.923636 280.37673 
L 397.923636 280.37673 
L 397.641818 280.37673 
L 397.923636 280.465212 
L 397.641818 280.494706 
L 397.923636 280.37673 
L 397.923636 280.494706 
L 397.923636 280.288248 
L 397.641818 280.494706 
L 397.923636 280.288248 
L 397.641818 280.258754 
L 397.641818 280.288248 
L 397.923636 280.406224 
L 397.923636 280.08179 
L 397.923636 280.789646 
L 397.923636 280.288248 
L 397.641818 279.904826 
L 397.641818 280.22926 
L 397.923636 279.93432 
L 397.641818 280.140778 
L 397.641818 279.816344 
L 397.923636 279.727862 
L 397.923636 280.08179 
L 397.923636 279.904826 
L 397.641818 280.052296 
L 397.923636 279.78685 
L 397.923636 279.816344 
L 397.923636 279.727862 
L 397.641818 279.845838 
L 397.923636 279.668874 
L 397.923636 280.022802 
L 397.923636 279.698368 
L 397.641818 279.668874 
L 397.641818 279.727862 
L 397.923636 279.550898 
L 397.641818 279.698368 
L 397.923636 279.845838 
L 397.923636 279.609886 
L 397.641818 279.668874 
L 397.923636 279.875332 
L 397.923636 279.757356 
L 397.923636 279.373934 
L 397.923636 279.93432 
L 397.923636 279.63938 
L 397.641818 279.668874 
L 397.923636 279.609886 
L 397.641818 279.432922 
L 397.923636 279.550898 
L 397.641818 279.580392 
L 397.641818 279.698368 
L 397.641818 279.668874 
L 397.923636 279.845838 
L 397.641818 279.462416 
L 397.923636 279.432922 
L 397.923636 279.668874 
L 397.923636 279.403428 
L 397.641818 279.668874 
L 397.923636 279.875332 
L 397.923636 279.757356 
L 397.923636 279.580392 
L 397.641818 279.580392 
L 397.641818 279.816344 
L 397.641818 279.580392 
L 397.923636 279.462416 
L 397.641818 279.757356 
L 397.923636 279.521404 
L 397.923636 279.285452 
L 397.923636 279.727862 
L 397.923636 279.609886 
L 397.641818 279.403428 
L 397.641818 279.403428 
L 397.923636 279.432922 
L 397.641818 279.521404 
L 397.923636 279.609886 
L 397.641818 279.432922 
L 397.641818 279.609886 
L 397.923636 279.373934 
L 397.641818 279.373934 
L 397.641818 279.49191 
L 397.923636 279.34444 
L 397.641818 279.580392 
L 397.923636 279.432922 
L 397.923636 279.609886 
L 397.641818 279.521404 
L 397.923636 279.314946 
L 397.923636 279.314946 
L 397.923636 279.609886 
L 397.641818 279.285452 
L 397.923636 279.196971 
L 397.923636 279.550898 
L 397.923636 279.167477 
L 397.923636 279.34444 
L 397.641818 279.521404 
L 397.923636 279.373934 
L 397.923636 279.49191 
L 397.641818 279.49191 
L 397.923636 279.34444 
L 397.923636 279.580392 
L 397.641818 279.521404 
L 397.923636 279.49191 
L 397.641818 279.373934 
L 397.923636 279.49191 
L 397.923636 279.314946 
L 397.923636 279.34444 
L 397.641818 279.668874 
L 397.923636 279.226465 
L 397.641818 279.521404 
L 397.641818 279.137983 
L 397.641818 279.521404 
L 397.923636 279.403428 
L 397.641818 279.462416 
L 397.923636 279.285452 
L 397.641818 279.49191 
L 397.923636 279.34444 
L 397.923636 279.550898 
L 397.923636 279.314946 
L 397.923636 279.432922 
L 397.641818 279.462416 
L 397.641818 279.727862 
L 397.923636 279.550898 
L 397.923636 279.609886 
L 397.641818 279.49191 
L 397.923636 279.63938 
L 397.923636 279.167477 
L 397.923636 279.668874 
L 397.641818 279.668874 
L 397.923636 279.550898 
L 397.923636 279.727862 
L 397.923636 279.34444 
L 397.641818 279.63938 
L 397.923636 279.403428 
L 397.641818 279.314946 
L 397.923636 279.167477 
L 397.641818 279.521404 
L 397.923636 279.609886 
L 397.923636 279.521404 
L 397.641818 279.373934 
L 397.641818 279.580392 
L 397.923636 279.550898 
L 397.641818 279.462416 
L 397.923636 279.521404 
L 397.923636 279.373934 
L 397.641818 279.609886 
L 397.923636 279.727862 
L 397.641818 279.78685 
L 397.923636 279.727862 
L 397.923636 279.875332 
L 397.641818 279.609886 
L 397.923636 279.668874 
L 397.923636 279.668874 
L 397.641818 279.49191 
L 397.641818 279.63938 
L 397.641818 279.34444 
L 397.923636 279.49191 
L 397.923636 279.875332 
L 397.923636 279.727862 
L 397.641818 279.609886 
L 397.923636 279.78685 
L 397.923636 279.904826 
L 397.923636 279.462416 
L 397.641818 279.609886 
L 397.923636 279.609886 
L 397.923636 279.727862 
L 397.923636 279.462416 
L 397.641818 279.432922 
L 397.923636 279.698368 
L 397.923636 279.521404 
L 397.641818 279.963814 
L 397.923636 279.698368 
L 397.641818 279.63938 
L 397.923636 280.08179 
L 397.923636 279.63938 
L 397.923636 280.08179 
L 397.641818 279.904826 
L 397.923636 280.22926 
L 397.923636 279.845838 
L 397.923636 280.789646 
L 397.923636 280.760152 
L 397.641818 280.81914 
L 397.923636 280.96661 
L 397.923636 280.96661 
L 397.641818 281.114079 
L 397.923636 281.497501 
L 397.923636 281.291043 
L 397.923636 281.291043 
L 397.641818 281.792441 
L 397.923636 281.910417 
L 397.923636 281.880923 
L 397.923636 283.974996 
L 397.641818 283.827526 
L 397.923636 284.387912 
L 397.923636 284.328924 
L 397.641818 284.29943 
L 397.923636 284.122466 
L 397.923636 277.722271 
L 397.641818 277.073404 
L 397.923636 277.073404 
L 397.923636 277.397838 
L 397.923636 276.955428 
L 397.923636 277.073404 
L 397.641818 277.161886 
L 397.641818 277.132392 
L 397.36 277.102898 
L 397.923636 276.984922 
L 397.641818 277.102898 
L 397.923636 277.279862 
L 397.923636 277.161886 
L 397.923636 276.660488 
L 397.641818 276.89644 
L 397.923636 277.132392 
L 397.923636 276.837452 
L 397.923636 276.984922 
L 397.641818 277.19138 
L 397.923636 277.132392 
L 397.923636 276.719476 
L 397.641818 276.807958 
L 397.641818 276.984922 
L 397.923636 276.572006 
L 397.923636 277.132392 
L 397.923636 276.542512 
L 397.641818 276.74897 
L 397.923636 276.837452 
L 397.923636 277.04391 
L 397.641818 277.014416 
L 397.641818 276.572006 
L 397.923636 276.984922 
L 397.923636 276.925934 
L 397.923636 276.572006 
L 397.923636 276.74897 
L 398.205455 276.660488 
L 397.641818 276.483524 
L 397.923636 276.483524 
L 397.923636 276.807958 
L 397.923636 276.542512 
L 397.641818 276.719476 
L 397.923636 276.807958 
L 397.923636 276.424536 
L 397.923636 276.74897 
L 397.641818 276.572006 
L 397.923636 276.807958 
L 397.923636 276.365548 
L 397.923636 276.542512 
L 397.641818 276.689982 
L 397.923636 276.277066 
L 397.923636 276.74897 
L 397.641818 276.542512 
L 397.641818 276.188584 
L 397.923636 276.424536 
L 397.923636 276.630994 
L 397.923636 276.30656 
L 397.641818 276.336054 
L 397.923636 276.6015 
L 397.641818 276.689982 
L 397.923636 276.15909 
L 397.923636 276.30656 
L 397.923636 276.630994 
L 397.923636 276.218078 
L 397.923636 276.424536 
L 397.641818 276.30656 
L 397.923636 276.277066 
L 397.923636 276.6015 
L 397.641818 276.365548 
L 397.923636 276.365548 
L 397.923636 276.218078 
L 397.923636 276.395042 
L 397.641818 276.542512 
L 397.923636 276.483524 
L 397.641818 276.30656 
L 397.641818 276.45403 
L 397.923636 276.218078 
L 397.923636 276.424536 
L 397.923636 276.100102 
L 397.641818 276.15909 
L 397.641818 276.129596 
L 397.923636 276.247572 
L 397.923636 276.45403 
L 397.641818 276.277066 
L 397.923636 276.30656 
L 397.641818 276.45403 
L 397.923636 276.277066 
L 397.923636 276.15909 
L 397.923636 276.336054 
L 397.641818 276.336054 
L 397.641818 276.277066 
L 397.923636 276.15909 
L 397.923636 276.01162 
L 397.923636 276.336054 
L 397.641818 276.100102 
L 397.923636 276.218078 
L 397.641818 276.45403 
L 397.641818 276.100102 
L 397.923636 276.277066 
L 397.641818 276.483524 
L 397.923636 276.395042 
L 397.923636 276.041114 
L 397.641818 276.336054 
L 397.923636 276.100102 
L 397.641818 276.100102 
L 397.923636 276.01162 
L 397.641818 275.86415 
L 397.923636 276.100102 
L 397.641818 276.247572 
L 397.923636 276.247572 
L 397.923636 276.365548 
L 397.923636 276.218078 
L 397.923636 276.277066 
L 397.641818 276.247572 
L 397.641818 276.424536 
L 397.923636 276.247572 
L 397.641818 276.424536 
L 397.923636 276.424536 
L 397.923636 276.424536 
L 397.923636 276.100102 
L 397.641818 276.336054 
L 397.923636 276.188584 
L 397.923636 276.277066 
L 397.641818 276.336054 
L 397.923636 275.86415 
L 397.923636 276.277066 
L 397.641818 276.336054 
L 397.641818 276.129596 
L 397.923636 276.041114 
L 397.923636 276.218078 
L 397.641818 276.30656 
L 397.923636 276.247572 
L 397.641818 276.100102 
L 397.923636 276.30656 
L 397.923636 276.15909 
L 397.923636 276.45403 
L 397.641818 276.277066 
L 397.923636 276.277066 
L 397.923636 276.30656 
L 397.923636 275.952632 
L 397.923636 276.336054 
L 397.923636 276.15909 
L 397.641818 276.247572 
L 397.923636 276.01162 
L 397.923636 276.277066 
L 397.923636 276.277066 
L 397.641818 276.365548 
L 397.923636 276.218078 
L 397.923636 276.277066 
L 397.641818 275.982126 
L 397.641818 276.247572 
L 397.923636 276.30656 
L 397.923636 276.247572 
L 397.641818 276.129596 
L 397.923636 276.188584 
L 397.923636 275.982126 
L 397.641818 276.129596 
L 397.923636 276.041114 
L 397.641818 275.834656 
L 397.923636 276.483524 
L 397.923636 276.129596 
L 397.641818 276.247572 
L 397.923636 276.188584 
L 397.923636 276.277066 
L 397.641818 276.365548 
L 397.923636 276.100102 
L 397.923636 276.277066 
L 397.923636 276.070608 
L 397.923636 276.247572 
L 397.641818 276.188584 
L 397.641818 276.01162 
L 397.923636 276.395042 
L 397.923636 276.041114 
L 397.641818 275.952632 
L 397.923636 275.86415 
L 397.923636 276.365548 
L 397.923636 276.15909 
L 397.641818 276.424536 
L 397.923636 275.952632 
L 397.641818 276.277066 
L 397.923636 276.424536 
L 397.923636 276.188584 
L 397.641818 275.893644 
L 397.923636 276.01162 
L 397.641818 275.982126 
L 397.641818 276.15909 
L 397.923636 275.893644 
L 397.923636 276.129596 
L 397.923636 276.01162 
L 397.641818 276.100102 
L 397.923636 276.15909 
L 397.641818 276.01162 
L 397.923636 276.15909 
L 397.923636 275.952632 
L 397.923636 276.188584 
L 398.205455 276.041114 
L 397.923636 275.86415 
L 397.641818 276.041114 
L 397.923636 276.483524 
L 397.923636 276.483524 
L 397.923636 275.952632 
L 397.923636 275.952632 
L 397.641818 276.15909 
L 397.923636 275.923138 
L 397.923636 276.15909 
L 397.923636 276.15909 
L 397.641818 276.188584 
L 397.923636 276.247572 
L 397.641818 276.041114 
L 397.923636 276.188584 
L 397.641818 276.277066 
L 397.923636 275.952632 
L 397.923636 275.716681 
L 397.923636 276.129596 
L 397.641818 276.277066 
L 397.923636 276.188584 
L 397.923636 276.483524 
L 397.923636 275.893644 
L 397.923636 276.100102 
L 397.641818 276.070608 
L 397.923636 276.277066 
L 397.923636 275.982126 
L 397.923636 276.30656 
L 397.923636 276.15909 
L 397.641818 276.247572 
L 397.923636 276.365548 
L 397.641818 276.041114 
L 397.641818 276.277066 
L 397.923636 276.01162 
L 397.641818 275.775669 
L 397.923636 276.247572 
L 397.641818 276.070608 
L 397.923636 276.365548 
L 397.923636 276.15909 
L 397.923636 275.923138 
L 397.923636 276.277066 
L 397.923636 275.982126 
L 397.641818 276.365548 
L 397.923636 275.982126 
L 397.923636 276.277066 
L 397.641818 276.129596 
L 397.923636 275.982126 
L 397.923636 276.070608 
L 397.923636 276.218078 
L 397.923636 276.15909 
L 397.641818 276.041114 
L 397.923636 276.30656 
L 397.923636 275.775669 
L 397.923636 276.513018 
L 397.923636 276.070608 
L 397.641818 276.070608 
L 397.641818 276.218078 
L 397.923636 275.805162 
L 397.923636 276.30656 
L 397.923636 276.218078 
L 397.641818 276.247572 
L 397.923636 275.687187 
L 397.923636 276.041114 
L 397.641818 276.129596 
L 397.923636 276.041114 
L 397.641818 276.30656 
L 397.923636 276.247572 
L 397.923636 276.365548 
L 397.923636 275.86415 
L 397.641818 275.923138 
L 397.923636 275.893644 
L 397.641818 276.15909 
L 397.923636 276.100102 
L 397.923636 276.218078 
L 397.923636 275.893644 
L 397.923636 276.01162 
L 397.641818 276.336054 
L 397.923636 275.834656 
L 397.923636 275.952632 
L 397.923636 276.277066 
L 397.923636 275.86415 
L 397.923636 276.01162 
L 397.641818 275.982126 
L 397.923636 275.952632 
L 397.923636 276.30656 
L 397.923636 275.687187 
L 397.923636 275.982126 
L 397.641818 275.775669 
L 397.923636 276.218078 
L 397.923636 276.218078 
L 397.641818 276.041114 
L 397.923636 276.277066 
L 397.641818 276.15909 
L 397.923636 275.746175 
L 397.923636 276.277066 
L 397.923636 275.834656 
L 397.641818 276.30656 
L 397.641818 275.834656 
L 397.923636 275.923138 
L 397.923636 275.893644 
L 397.641818 276.218078 
L 397.641818 275.86415 
L 397.641818 276.100102 
L 397.923636 275.923138 
L 397.923636 276.218078 
L 397.641818 276.041114 
L 397.923636 275.834656 
L 397.923636 276.15909 
L 397.641818 275.775669 
L 397.923636 276.070608 
L 397.923636 275.923138 
L 397.641818 275.923138 
L 397.923636 276.218078 
L 397.923636 276.129596 
L 397.641818 276.336054 
L 397.923636 275.952632 
L 397.641818 275.86415 
L 397.923636 275.982126 
L 397.923636 275.952632 
L 397.641818 276.100102 
L 397.923636 275.893644 
L 397.923636 276.15909 
L 397.923636 275.805162 
L 397.923636 276.070608 
L 397.641818 276.129596 
L 397.923636 276.424536 
L 397.641818 276.188584 
L 397.641818 275.923138 
L 397.923636 275.893644 
L 397.641818 276.15909 
L 397.923636 275.893644 
L 397.923636 276.218078 
L 397.923636 275.952632 
L 397.641818 276.129596 
L 397.641818 276.041114 
L 397.923636 276.100102 
L 397.923636 275.952632 
L 397.923636 276.365548 
L 397.36 276.041114 
L 397.923636 275.86415 
L 397.641818 276.129596 
L 397.923636 276.01162 
L 397.923636 276.070608 
L 397.641818 276.01162 
L 397.923636 276.070608 
L 397.923636 276.395042 
L 397.923636 275.687187 
L 397.923636 275.805162 
L 397.641818 275.893644 
L 397.923636 275.982126 
L 397.641818 276.01162 
L 397.923636 275.86415 
L 397.641818 276.100102 
L 397.923636 275.86415 
L 397.923636 276.188584 
L 397.641818 276.100102 
L 397.923636 275.982126 
L 397.923636 276.041114 
L 397.923636 275.952632 
L 397.641818 276.15909 
L 397.923636 275.923138 
L 397.923636 275.805162 
L 397.641818 276.070608 
L 397.923636 276.129596 
L 397.641818 276.277066 
L 397.923636 275.775669 
L 397.923636 276.129596 
L 397.923636 275.687187 
L 397.923636 276.041114 
L 397.641818 275.923138 
L 397.923636 275.982126 
L 397.641818 276.15909 
L 397.923636 276.01162 
L 397.641818 275.923138 
L 397.923636 276.070608 
L 397.923636 276.15909 
L 397.923636 276.129596 
L 397.641818 276.041114 
L 397.923636 276.070608 
L 397.923636 275.805162 
L 397.641818 276.070608 
L 397.641818 275.952632 
L 397.923636 276.01162 
L 397.641818 275.952632 
L 397.641818 276.188584 
L 397.923636 275.952632 
L 397.641818 275.952632 
L 397.641818 276.247572 
L 397.641818 276.100102 
L 397.923636 276.277066 
L 397.923636 275.923138 
L 397.641818 276.15909 
L 397.923636 276.30656 
L 397.923636 275.775669 
L 397.923636 275.923138 
L 397.641818 276.218078 
L 397.923636 275.746175 
L 397.923636 276.070608 
L 397.923636 275.982126 
L 397.641818 276.15909 
L 397.923636 275.86415 
L 397.923636 276.336054 
L 397.641818 276.041114 
L 397.923636 275.893644 
L 397.641818 276.070608 
L 397.641818 276.365548 
L 397.923636 276.129596 
L 397.923636 275.86415 
L 397.923636 276.277066 
L 397.641818 276.070608 
L 397.641818 276.336054 
L 397.641818 276.129596 
L 397.923636 276.365548 
L 397.923636 276.513018 
L 397.923636 276.041114 
L 397.641818 276.070608 
L 397.923636 276.129596 
L 397.923636 276.247572 
L 397.641818 276.129596 
L 397.923636 276.188584 
L 397.923636 275.834656 
L 397.923636 276.365548 
L 397.641818 276.424536 
L 397.641818 276.15909 
L 397.923636 276.277066 
L 397.923636 276.277066 
L 398.205455 276.218078 
L 397.923636 276.188584 
L 397.641818 276.15909 
L 397.923636 276.424536 
L 397.923636 276.30656 
L 397.923636 276.188584 
L 397.641818 276.247572 
L 397.923636 276.395042 
L 397.923636 275.982126 
L 397.923636 276.15909 
L 397.641818 276.100102 
L 397.923636 276.188584 
L 397.641818 276.30656 
L 397.641818 276.277066 
L 397.923636 276.483524 
L 397.923636 276.129596 
L 397.923636 276.30656 
L 397.641818 276.01162 
L 397.923636 276.188584 
L 397.641818 276.45403 
L 397.923636 276.336054 
L 397.923636 276.45403 
L 397.923636 276.129596 
L 397.923636 276.247572 
L 397.641818 276.395042 
L 397.923636 276.247572 
L 397.923636 276.572006 
L 397.923636 276.070608 
L 397.923636 276.188584 
L 397.641818 276.218078 
L 397.923636 276.100102 
L 397.923636 276.45403 
L 397.641818 276.30656 
L 397.923636 276.129596 
L 397.641818 276.041114 
L 397.641818 276.188584 
L 397.923636 276.247572 
L 397.641818 276.041114 
L 397.923636 276.365548 
L 397.641818 276.15909 
L 397.641818 276.188584 
L 397.923636 276.041114 
L 397.641818 276.277066 
L 397.923636 276.100102 
L 397.923636 276.365548 
L 397.923636 276.070608 
L 397.923636 276.129596 
L 397.641818 275.923138 
L 397.923636 276.247572 
L 397.923636 275.952632 
L 397.641818 276.01162 
L 397.641818 275.952632 
L 397.923636 276.218078 
L 397.641818 275.746175 
L 397.641818 276.15909 
L 397.923636 275.923138 
L 397.641818 275.952632 
L 397.923636 275.982126 
L 397.641818 275.716681 
L 397.923636 276.424536 
L 397.641818 276.188584 
L 397.923636 275.893644 
L 397.641818 276.15909 
L 397.641818 275.86415 
L 397.641818 276.041114 
L 397.923636 275.893644 
L 397.641818 275.687187 
L 397.641818 276.070608 
L 397.923636 275.982126 
L 397.923636 276.070608 
L 397.923636 275.775669 
L 397.923636 276.218078 
L 397.923636 275.893644 
L 397.641818 275.746175 
L 397.923636 275.952632 
L 397.641818 275.86415 
L 397.923636 276.070608 
L 397.923636 276.070608 
L 397.923636 275.805162 
L 397.923636 275.805162 
L 397.641818 276.100102 
L 397.923636 276.041114 
L 397.641818 275.834656 
L 397.923636 275.86415 
L 397.641818 275.775669 
L 397.923636 275.716681 
L 397.923636 275.539717 
L 397.923636 275.923138 
L 397.641818 275.86415 
L 397.923636 275.86415 
L 397.923636 275.628199 
L 397.923636 275.716681 
L 397.641818 275.746175 
L 397.923636 275.746175 
L 397.923636 275.982126 
L 397.923636 275.510223 
L 397.923636 275.893644 
L 397.641818 275.746175 
L 397.923636 275.746175 
L 397.641818 275.893644 
L 397.641818 275.716681 
L 397.923636 276.01162 
L 397.923636 275.598705 
L 397.923636 275.716681 
L 397.641818 275.923138 
L 397.923636 275.923138 
L 397.923636 275.451235 
L 397.641818 275.86415 
L 397.923636 275.716681 
L 397.923636 275.539717 
L 397.923636 275.834656 
L 397.923636 275.598705 
L 397.641818 275.569211 
L 397.923636 275.982126 
L 397.923636 275.392247 
L 398.205455 276.100102 
L 397.641818 275.687187 
L 397.641818 275.716681 
L 397.923636 276.041114 
L 397.923636 275.510223 
L 397.923636 275.510223 
L 397.641818 275.805162 
L 397.923636 275.628199 
L 397.923636 275.746175 
L 397.923636 275.834656 
L 397.641818 275.687187 
L 397.923636 275.923138 
L 397.641818 275.805162 
L 397.923636 275.598705 
L 397.923636 275.923138 
L 397.641818 276.01162 
L 397.923636 275.834656 
L 397.923636 275.657693 
L 397.923636 275.86415 
L 397.641818 275.834656 
L 397.641818 275.687187 
L 397.923636 275.834656 
L 397.923636 276.01162 
L 397.923636 275.657693 
L 397.641818 275.480729 
L 397.923636 275.834656 
L 397.923636 275.510223 
L 397.923636 275.569211 
L 397.641818 275.687187 
L 397.923636 275.805162 
L 397.641818 277.33885 
L 397.923636 279.78685 
L 397.923636 287.455286 
L 397.641818 293.56054 
L 397.923636 295.182709 
L 397.923636 295.182709 
L 397.641818 295.182709 
L 398.205455 295.153215 
L 397.923636 295.182709 
" style="fill:none;stroke:#1f77b4;stroke-linecap:square;stroke-width:1.5;"/>
   </g>
   <g id="line2d_19">
    <path clip-path="url(#p29fd8ced6c)" d="M 73.832727 295.333078 
L 79.357379 295.463561 
L 83.582113 295.454274 
L 91.056642 295.328869 
L 99.18113 295.446039 
L 106.33068 295.288998 
L 114.780147 295.434946 
L 121.604717 295.23637 
L 130.704144 295.401599 
L 136.553776 295.157884 
L 140.12855 295.34542 
L 143.703325 295.487389 
L 146.628141 295.349372 
L 151.502834 295.05668 
L 154.10267 295.167768 
L 159.302342 295.486733 
L 161.902179 295.333444 
L 166.776871 294.915402 
L 169.051728 295.001941 
L 175.226339 295.477131 
L 177.501196 295.268658 
L 182.050909 294.696781 
L 184.000786 294.742779 
L 186.275643 295.051189 
L 189.200459 295.453801 
L 190.825356 295.469617 
L 192.450254 295.28087 
L 195.37507 294.644173 
L 197.324947 294.329153 
L 198.949844 294.308538 
L 200.574742 294.533092 
L 205.449435 295.484306 
L 206.749353 295.417979 
L 208.049271 295.145064 
L 209.999148 294.467851 
L 212.274005 293.703247 
L 213.573923 293.504237 
L 214.873841 293.568262 
L 216.173759 293.89019 
L 218.123636 294.666908 
L 219.748534 295.264647 
L 221.048452 295.483895 
L 222.023391 295.419294 
L 222.998329 295.137395 
L 224.298247 294.455178 
L 226.248124 293.062069 
L 227.873022 292.023104 
L 228.847961 291.650898 
L 229.822899 291.553502 
L 230.797838 291.759962 
L 231.772776 292.253347 
L 233.072695 293.237962 
L 235.022572 294.825384 
L 235.99751 295.341558 
L 236.647469 295.483012 
L 237.297428 295.422499 
L 237.947387 295.137341 
L 238.597346 294.617707 
L 239.247305 293.868339 
L 240.222244 292.362097 
L 241.522162 289.865924 
L 243.472039 286.136134 
L 244.446978 284.837494 
L 245.096937 284.345226 
L 245.746896 284.21288 
L 246.396855 284.470764 
L 247.046814 285.124501 
L 247.696773 286.151394 
L 248.671712 288.265682 
L 251.271548 294.518669 
L 251.921507 295.325862 
L 252.246486 295.479857 
L 252.571466 295.43238 
L 252.896446 295.15735 
L 253.221425 294.629219 
L 253.546405 293.823274 
L 254.196364 291.285077 
L 254.846323 287.373207 
L 255.496282 281.950449 
L 256.146241 274.920498 
L 257.121179 261.271757 
L 258.096118 243.981943 
L 259.396036 215.943218 
L 261.345913 166.93427 
L 263.62077 110.069668 
L 264.920688 83.722347 
L 265.895627 69.068363 
L 266.545586 62.246189 
L 267.195545 58.007644 
L 267.520524 56.896373 
L 267.845504 56.468851 
L 268.170483 56.728024 
L 268.495463 57.672107 
L 268.820442 59.294596 
L 269.470401 64.525601 
L 270.12036 72.278024 
L 271.095299 88.157739 
L 272.070238 108.272553 
L 273.695135 147.959396 
L 276.619951 221.610796 
L 277.919869 248.659345 
L 278.894808 265.055902 
L 279.869746 277.766277 
L 280.519705 284.181356 
L 281.169664 289.020277 
L 281.819623 292.395724 
L 282.469582 294.458171 
L 282.794562 295.052198 
L 283.119541 295.386973 
L 283.444521 295.487868 
L 283.7695 295.380861 
L 284.09448 295.092236 
L 284.744439 294.075089 
L 285.719378 291.830899 
L 287.669255 286.956993 
L 288.644193 285.231147 
L 289.294152 284.529821 
L 289.944111 284.22315 
L 290.59407 284.30881 
L 291.244029 284.75929 
L 291.893989 285.526343 
L 292.868927 287.127763 
L 296.443702 293.761436 
L 297.41864 294.841372 
L 298.0686 295.272267 
L 298.718559 295.470761 
L 299.368518 295.451774 
L 300.018477 295.242244 
L 300.993415 294.652149 
L 304.89317 291.790105 
L 305.868108 291.558892 
L 306.843047 291.631952 
L 307.817985 291.983752 
L 309.117903 292.772084 
L 312.367699 294.959093 
L 313.342637 295.328521 
L 314.317576 295.483089 
L 315.292514 295.426351 
L 316.592432 295.082984 
L 320.817166 293.581029 
L 322.117084 293.500279 
L 323.417002 293.68436 
L 325.0419 294.191422 
L 327.966716 295.210884 
L 329.266634 295.44684 
L 330.566552 295.473391 
L 332.19145 295.244645 
L 337.066143 294.295193 
L 338.69104 294.353738 
L 340.640917 294.698134 
L 344.215692 295.408884 
L 345.84059 295.486144 
L 347.790467 295.323131 
L 352.66516 294.6912 
L 354.615037 294.755919 
L 357.214873 295.11094 
L 360.139689 295.458566 
L 362.089566 295.465528 
L 364.689402 295.221973 
L 367.939197 294.927018 
L 370.214054 294.964903 
L 373.788829 295.325478 
L 376.388665 295.485795 
L 378.988501 295.395023 
L 384.513153 295.057616 
L 387.437969 295.207174 
L 391.987682 295.486799 
L 394.912498 295.393773 
L 398.487273 295.177468 
L 398.487273 295.177468 
" style="fill:none;stroke:#ff7f0e;stroke-linecap:square;stroke-width:1.5;"/>
   </g>
   <g id="patch_3">
    <path d="M 57.6 307.584 
L 57.6 41.472 
" style="fill:none;stroke:#000000;stroke-linecap:square;stroke-linejoin:miter;stroke-width:0.8;"/>
   </g>
   <g id="patch_4">
    <path d="M 414.72 307.584 
L 414.72 41.472 
" style="fill:none;stroke:#000000;stroke-linecap:square;stroke-linejoin:miter;stroke-width:0.8;"/>
   </g>
   <g id="patch_5">
    <path d="M 57.6 307.584 
L 414.72 307.584 
" style="fill:none;stroke:#000000;stroke-linecap:square;stroke-linejoin:miter;stroke-width:0.8;"/>
   </g>
   <g id="patch_6">
    <path d="M 57.6 41.472 
L 414.72 41.472 
" style="fill:none;stroke:#000000;stroke-linecap:square;stroke-linejoin:miter;stroke-width:0.8;"/>
   </g>
   <g id="legend_1">
    <g id="patch_7">
     <path d="M 313.723125 78.82825 
L 407.72 78.82825 
Q 409.72 78.82825 409.72 76.82825 
L 409.72 48.472 
Q 409.72 46.472 407.72 46.472 
L 313.723125 46.472 
Q 311.723125 46.472 311.723125 48.472 
L 311.723125 76.82825 
Q 311.723125 78.82825 313.723125 78.82825 
z
" style="fill:#ffffff;opacity:0.8;stroke:#cccccc;stroke-linejoin:miter;"/>
    </g>
    <g id="line2d_20">
     <path d="M 315.723125 54.570437 
L 335.723125 54.570437 
" style="fill:none;stroke:#1f77b4;stroke-linecap:square;stroke-width:1.5;"/>
    </g>
    <g id="line2d_21"/>
    <g id="text_18">
     <!-- .08Good2 -->
     <g transform="translate(343.723125 58.070437)scale(0.1 -0.1)">
      <defs>
       <path d="M 59.515625 10.40625 
L 59.515625 29.984375 
L 43.40625 29.984375 
L 43.40625 38.09375 
L 69.28125 38.09375 
L 69.28125 6.78125 
Q 63.578125 2.734375 56.6875 0.65625 
Q 49.8125 -1.421875 42 -1.421875 
Q 24.90625 -1.421875 15.25 8.5625 
Q 5.609375 18.5625 5.609375 36.375 
Q 5.609375 54.25 15.25 64.234375 
Q 24.90625 74.21875 42 74.21875 
Q 49.125 74.21875 55.546875 72.453125 
Q 61.96875 70.703125 67.390625 67.28125 
L 67.390625 56.78125 
Q 61.921875 61.421875 55.765625 63.765625 
Q 49.609375 66.109375 42.828125 66.109375 
Q 29.4375 66.109375 22.71875 58.640625 
Q 16.015625 51.171875 16.015625 36.375 
Q 16.015625 21.625 22.71875 14.15625 
Q 29.4375 6.6875 42.828125 6.6875 
Q 48.046875 6.6875 52.140625 7.59375 
Q 56.25 8.5 59.515625 10.40625 
z
" id="DejaVuSans-71"/>
       <path d="M 30.609375 48.390625 
Q 23.390625 48.390625 19.1875 42.75 
Q 14.984375 37.109375 14.984375 27.296875 
Q 14.984375 17.484375 19.15625 11.84375 
Q 23.34375 6.203125 30.609375 6.203125 
Q 37.796875 6.203125 41.984375 11.859375 
Q 46.1875 17.53125 46.1875 27.296875 
Q 46.1875 37.015625 41.984375 42.703125 
Q 37.796875 48.390625 30.609375 48.390625 
z
M 30.609375 56 
Q 42.328125 56 49.015625 48.375 
Q 55.71875 40.765625 55.71875 27.296875 
Q 55.71875 13.875 49.015625 6.21875 
Q 42.328125 -1.421875 30.609375 -1.421875 
Q 18.84375 -1.421875 12.171875 6.21875 
Q 5.515625 13.875 5.515625 27.296875 
Q 5.515625 40.765625 12.171875 48.375 
Q 18.84375 56 30.609375 56 
z
" id="DejaVuSans-111"/>
       <path d="M 45.40625 46.390625 
L 45.40625 75.984375 
L 54.390625 75.984375 
L 54.390625 0 
L 45.40625 0 
L 45.40625 8.203125 
Q 42.578125 3.328125 38.25 0.953125 
Q 33.9375 -1.421875 27.875 -1.421875 
Q 17.96875 -1.421875 11.734375 6.484375 
Q 5.515625 14.40625 5.515625 27.296875 
Q 5.515625 40.1875 11.734375 48.09375 
Q 17.96875 56 27.875 56 
Q 33.9375 56 38.25 53.625 
Q 42.578125 51.265625 45.40625 46.390625 
z
M 14.796875 27.296875 
Q 14.796875 17.390625 18.875 11.75 
Q 22.953125 6.109375 30.078125 6.109375 
Q 37.203125 6.109375 41.296875 11.75 
Q 45.40625 17.390625 45.40625 27.296875 
Q 45.40625 37.203125 41.296875 42.84375 
Q 37.203125 48.484375 30.078125 48.484375 
Q 22.953125 48.484375 18.875 42.84375 
Q 14.796875 37.203125 14.796875 27.296875 
z
" id="DejaVuSans-100"/>
      </defs>
      <use xlink:href="#DejaVuSans-46"/>
      <use x="31.787109" xlink:href="#DejaVuSans-48"/>
      <use x="95.410156" xlink:href="#DejaVuSans-56"/>
      <use x="159.033203" xlink:href="#DejaVuSans-71"/>
      <use x="236.523438" xlink:href="#DejaVuSans-111"/>
      <use x="297.705078" xlink:href="#DejaVuSans-111"/>
      <use x="358.886719" xlink:href="#DejaVuSans-100"/>
      <use x="422.363281" xlink:href="#DejaVuSans-50"/>
     </g>
    </g>
    <g id="line2d_22">
     <path d="M 315.723125 69.248562 
L 335.723125 69.248562 
" style="fill:none;stroke:#ff7f0e;stroke-linecap:square;stroke-width:1.5;"/>
    </g>
    <g id="line2d_23"/>
    <g id="text_19">
     <!-- .08Good2 fit -->
     <g transform="translate(343.723125 72.748562)scale(0.1 -0.1)">
      <defs>
       <path id="DejaVuSans-32"/>
       <path d="M 37.109375 75.984375 
L 37.109375 68.5 
L 28.515625 68.5 
Q 23.6875 68.5 21.796875 66.546875 
Q 19.921875 64.59375 19.921875 59.515625 
L 19.921875 54.6875 
L 34.71875 54.6875 
L 34.71875 47.703125 
L 19.921875 47.703125 
L 19.921875 0 
L 10.890625 0 
L 10.890625 47.703125 
L 2.296875 47.703125 
L 2.296875 54.6875 
L 10.890625 54.6875 
L 10.890625 58.5 
Q 10.890625 67.625 15.140625 71.796875 
Q 19.390625 75.984375 28.609375 75.984375 
z
" id="DejaVuSans-102"/>
       <path d="M 9.421875 54.6875 
L 18.40625 54.6875 
L 18.40625 0 
L 9.421875 0 
z
M 9.421875 75.984375 
L 18.40625 75.984375 
L 18.40625 64.59375 
L 9.421875 64.59375 
z
" id="DejaVuSans-105"/>
       <path d="M 18.3125 70.21875 
L 18.3125 54.6875 
L 36.8125 54.6875 
L 36.8125 47.703125 
L 18.3125 47.703125 
L 18.3125 18.015625 
Q 18.3125 11.328125 20.140625 9.421875 
Q 21.96875 7.515625 27.59375 7.515625 
L 36.8125 7.515625 
L 36.8125 0 
L 27.59375 0 
Q 17.1875 0 13.234375 3.875 
Q 9.28125 7.765625 9.28125 18.015625 
L 9.28125 47.703125 
L 2.6875 47.703125 
L 2.6875 54.6875 
L 9.28125 54.6875 
L 9.28125 70.21875 
z
" id="DejaVuSans-116"/>
      </defs>
      <use xlink:href="#DejaVuSans-46"/>
      <use x="31.787109" xlink:href="#DejaVuSans-48"/>
      <use x="95.410156" xlink:href="#DejaVuSans-56"/>
      <use x="159.033203" xlink:href="#DejaVuSans-71"/>
      <use x="236.523438" xlink:href="#DejaVuSans-111"/>
      <use x="297.705078" xlink:href="#DejaVuSans-111"/>
      <use x="358.886719" xlink:href="#DejaVuSans-100"/>
      <use x="422.363281" xlink:href="#DejaVuSans-50"/>
      <use x="485.986328" xlink:href="#DejaVuSans-32"/>
      <use x="517.773438" xlink:href="#DejaVuSans-102"/>
      <use x="552.978516" xlink:href="#DejaVuSans-105"/>
      <use x="580.761719" xlink:href="#DejaVuSans-116"/>
     </g>
    </g>
   </g>
  </g>
 </g>
 <defs>
  <clipPath id="p29fd8ced6c">
   <rect height="266.112" width="357.12" x="57.6" y="41.472"/>
  </clipPath>
 </defs>
</svg>
