<?xml version="1.0" encoding="utf-8" standalone="no"?>
<!DOCTYPE svg PUBLIC "-//W3C//DTD SVG 1.1//EN"
  "http://www.w3.org/Graphics/SVG/1.1/DTD/svg11.dtd">
<!-- Created with matplotlib (https://matplotlib.org/) -->
<svg height="345.6pt" version="1.1" viewBox="0 0 460.8 345.6" width="460.8pt" xmlns="http://www.w3.org/2000/svg" xmlns:xlink="http://www.w3.org/1999/xlink">
 <metadata>
  <rdf:RDF xmlns:cc="http://creativecommons.org/ns#" xmlns:dc="http://purl.org/dc/elements/1.1/" xmlns:rdf="http://www.w3.org/1999/02/22-rdf-syntax-ns#">
   <cc:Work>
    <dc:type rdf:resource="http://purl.org/dc/dcmitype/StillImage"/>
    <dc:date>2021-05-17T10:46:51.573418</dc:date>
    <dc:format>image/svg+xml</dc:format>
    <dc:creator>
     <cc:Agent>
      <dc:title>Matplotlib v3.3.4, https://matplotlib.org/</dc:title>
     </cc:Agent>
    </dc:creator>
   </cc:Work>
  </rdf:RDF>
 </metadata>
 <defs>
  <style type="text/css">*{stroke-linecap:butt;stroke-linejoin:round;}</style>
 </defs>
 <g id="figure_1">
  <g id="patch_1">
   <path d="M 0 345.6 
L 460.8 345.6 
L 460.8 0 
L 0 0 
z
" style="fill:#ffffff;"/>
  </g>
  <g id="axes_1">
   <g id="patch_2">
    <path d="M 57.6 307.584 
L 414.72 307.584 
L 414.72 41.472 
L 57.6 41.472 
z
" style="fill:#ffffff;"/>
   </g>
   <g id="matplotlib.axis_1">
    <g id="xtick_1">
     <g id="line2d_1">
      <defs>
       <path d="M 0 0 
L 0 3.5 
" id="m018922974e" style="stroke:#000000;stroke-width:0.8;"/>
      </defs>
      <g>
       <use style="stroke:#000000;stroke-width:0.8;" x="66.045867" xlink:href="#m018922974e" y="307.584"/>
      </g>
     </g>
     <g id="text_1">
      <!-- −0.6 -->
      <g transform="translate(53.904461 322.182437)scale(0.1 -0.1)">
       <defs>
        <path d="M 10.59375 35.5 
L 73.1875 35.5 
L 73.1875 27.203125 
L 10.59375 27.203125 
z
" id="DejaVuSans-8722"/>
        <path d="M 31.78125 66.40625 
Q 24.171875 66.40625 20.328125 58.90625 
Q 16.5 51.421875 16.5 36.375 
Q 16.5 21.390625 20.328125 13.890625 
Q 24.171875 6.390625 31.78125 6.390625 
Q 39.453125 6.390625 43.28125 13.890625 
Q 47.125 21.390625 47.125 36.375 
Q 47.125 51.421875 43.28125 58.90625 
Q 39.453125 66.40625 31.78125 66.40625 
z
M 31.78125 74.21875 
Q 44.046875 74.21875 50.515625 64.515625 
Q 56.984375 54.828125 56.984375 36.375 
Q 56.984375 17.96875 50.515625 8.265625 
Q 44.046875 -1.421875 31.78125 -1.421875 
Q 19.53125 -1.421875 13.0625 8.265625 
Q 6.59375 17.96875 6.59375 36.375 
Q 6.59375 54.828125 13.0625 64.515625 
Q 19.53125 74.21875 31.78125 74.21875 
z
" id="DejaVuSans-48"/>
        <path d="M 10.6875 12.40625 
L 21 12.40625 
L 21 0 
L 10.6875 0 
z
" id="DejaVuSans-46"/>
        <path d="M 33.015625 40.375 
Q 26.375 40.375 22.484375 35.828125 
Q 18.609375 31.296875 18.609375 23.390625 
Q 18.609375 15.53125 22.484375 10.953125 
Q 26.375 6.390625 33.015625 6.390625 
Q 39.65625 6.390625 43.53125 10.953125 
Q 47.40625 15.53125 47.40625 23.390625 
Q 47.40625 31.296875 43.53125 35.828125 
Q 39.65625 40.375 33.015625 40.375 
z
M 52.59375 71.296875 
L 52.59375 62.3125 
Q 48.875 64.0625 45.09375 64.984375 
Q 41.3125 65.921875 37.59375 65.921875 
Q 27.828125 65.921875 22.671875 59.328125 
Q 17.53125 52.734375 16.796875 39.40625 
Q 19.671875 43.65625 24.015625 45.921875 
Q 28.375 48.1875 33.59375 48.1875 
Q 44.578125 48.1875 50.953125 41.515625 
Q 57.328125 34.859375 57.328125 23.390625 
Q 57.328125 12.15625 50.6875 5.359375 
Q 44.046875 -1.421875 33.015625 -1.421875 
Q 20.359375 -1.421875 13.671875 8.265625 
Q 6.984375 17.96875 6.984375 36.375 
Q 6.984375 53.65625 15.1875 63.9375 
Q 23.390625 74.21875 37.203125 74.21875 
Q 40.921875 74.21875 44.703125 73.484375 
Q 48.484375 72.75 52.59375 71.296875 
z
" id="DejaVuSans-54"/>
       </defs>
       <use xlink:href="#DejaVuSans-8722"/>
       <use x="83.789062" xlink:href="#DejaVuSans-48"/>
       <use x="147.412109" xlink:href="#DejaVuSans-46"/>
       <use x="179.199219" xlink:href="#DejaVuSans-54"/>
      </g>
     </g>
    </g>
    <g id="xtick_2">
     <g id="line2d_2">
      <g>
       <use style="stroke:#000000;stroke-width:0.8;" x="126.777881" xlink:href="#m018922974e" y="307.584"/>
      </g>
     </g>
     <g id="text_2">
      <!-- −0.4 -->
      <g transform="translate(114.636475 322.182437)scale(0.1 -0.1)">
       <defs>
        <path d="M 37.796875 64.3125 
L 12.890625 25.390625 
L 37.796875 25.390625 
z
M 35.203125 72.90625 
L 47.609375 72.90625 
L 47.609375 25.390625 
L 58.015625 25.390625 
L 58.015625 17.1875 
L 47.609375 17.1875 
L 47.609375 0 
L 37.796875 0 
L 37.796875 17.1875 
L 4.890625 17.1875 
L 4.890625 26.703125 
z
" id="DejaVuSans-52"/>
       </defs>
       <use xlink:href="#DejaVuSans-8722"/>
       <use x="83.789062" xlink:href="#DejaVuSans-48"/>
       <use x="147.412109" xlink:href="#DejaVuSans-46"/>
       <use x="179.199219" xlink:href="#DejaVuSans-52"/>
      </g>
     </g>
    </g>
    <g id="xtick_3">
     <g id="line2d_3">
      <g>
       <use style="stroke:#000000;stroke-width:0.8;" x="187.509896" xlink:href="#m018922974e" y="307.584"/>
      </g>
     </g>
     <g id="text_3">
      <!-- −0.2 -->
      <g transform="translate(175.36849 322.182437)scale(0.1 -0.1)">
       <defs>
        <path d="M 19.1875 8.296875 
L 53.609375 8.296875 
L 53.609375 0 
L 7.328125 0 
L 7.328125 8.296875 
Q 12.9375 14.109375 22.625 23.890625 
Q 32.328125 33.6875 34.8125 36.53125 
Q 39.546875 41.84375 41.421875 45.53125 
Q 43.3125 49.21875 43.3125 52.78125 
Q 43.3125 58.59375 39.234375 62.25 
Q 35.15625 65.921875 28.609375 65.921875 
Q 23.96875 65.921875 18.8125 64.3125 
Q 13.671875 62.703125 7.8125 59.421875 
L 7.8125 69.390625 
Q 13.765625 71.78125 18.9375 73 
Q 24.125 74.21875 28.421875 74.21875 
Q 39.75 74.21875 46.484375 68.546875 
Q 53.21875 62.890625 53.21875 53.421875 
Q 53.21875 48.921875 51.53125 44.890625 
Q 49.859375 40.875 45.40625 35.40625 
Q 44.1875 33.984375 37.640625 27.21875 
Q 31.109375 20.453125 19.1875 8.296875 
z
" id="DejaVuSans-50"/>
       </defs>
       <use xlink:href="#DejaVuSans-8722"/>
       <use x="83.789062" xlink:href="#DejaVuSans-48"/>
       <use x="147.412109" xlink:href="#DejaVuSans-46"/>
       <use x="179.199219" xlink:href="#DejaVuSans-50"/>
      </g>
     </g>
    </g>
    <g id="xtick_4">
     <g id="line2d_4">
      <g>
       <use style="stroke:#000000;stroke-width:0.8;" x="248.24191" xlink:href="#m018922974e" y="307.584"/>
      </g>
     </g>
     <g id="text_4">
      <!-- 0.0 -->
      <g transform="translate(240.290348 322.182437)scale(0.1 -0.1)">
       <use xlink:href="#DejaVuSans-48"/>
       <use x="63.623047" xlink:href="#DejaVuSans-46"/>
       <use x="95.410156" xlink:href="#DejaVuSans-48"/>
      </g>
     </g>
    </g>
    <g id="xtick_5">
     <g id="line2d_5">
      <g>
       <use style="stroke:#000000;stroke-width:0.8;" x="308.973925" xlink:href="#m018922974e" y="307.584"/>
      </g>
     </g>
     <g id="text_5">
      <!-- 0.2 -->
      <g transform="translate(301.022362 322.182437)scale(0.1 -0.1)">
       <use xlink:href="#DejaVuSans-48"/>
       <use x="63.623047" xlink:href="#DejaVuSans-46"/>
       <use x="95.410156" xlink:href="#DejaVuSans-50"/>
      </g>
     </g>
    </g>
    <g id="xtick_6">
     <g id="line2d_6">
      <g>
       <use style="stroke:#000000;stroke-width:0.8;" x="369.705939" xlink:href="#m018922974e" y="307.584"/>
      </g>
     </g>
     <g id="text_6">
      <!-- 0.4 -->
      <g transform="translate(361.754377 322.182437)scale(0.1 -0.1)">
       <use xlink:href="#DejaVuSans-48"/>
       <use x="63.623047" xlink:href="#DejaVuSans-46"/>
       <use x="95.410156" xlink:href="#DejaVuSans-52"/>
      </g>
     </g>
    </g>
   </g>
   <g id="matplotlib.axis_2">
    <g id="ytick_1">
     <g id="line2d_7">
      <defs>
       <path d="M 0 0 
L -3.5 0 
" id="mcb72061e3f" style="stroke:#000000;stroke-width:0.8;"/>
      </defs>
      <g>
       <use style="stroke:#000000;stroke-width:0.8;" x="57.6" xlink:href="#mcb72061e3f" y="295.488001"/>
      </g>
     </g>
     <g id="text_7">
      <!-- 0 -->
      <g transform="translate(44.2375 299.28722)scale(0.1 -0.1)">
       <use xlink:href="#DejaVuSans-48"/>
      </g>
     </g>
    </g>
    <g id="ytick_2">
     <g id="line2d_8">
      <g>
       <use style="stroke:#000000;stroke-width:0.8;" x="57.6" xlink:href="#mcb72061e3f" y="249.749265"/>
      </g>
     </g>
     <g id="text_8">
      <!-- 2 -->
      <g transform="translate(44.2375 253.548484)scale(0.1 -0.1)">
       <use xlink:href="#DejaVuSans-50"/>
      </g>
     </g>
    </g>
    <g id="ytick_3">
     <g id="line2d_9">
      <g>
       <use style="stroke:#000000;stroke-width:0.8;" x="57.6" xlink:href="#mcb72061e3f" y="204.010529"/>
      </g>
     </g>
     <g id="text_9">
      <!-- 4 -->
      <g transform="translate(44.2375 207.809748)scale(0.1 -0.1)">
       <use xlink:href="#DejaVuSans-52"/>
      </g>
     </g>
    </g>
    <g id="ytick_4">
     <g id="line2d_10">
      <g>
       <use style="stroke:#000000;stroke-width:0.8;" x="57.6" xlink:href="#mcb72061e3f" y="158.271793"/>
      </g>
     </g>
     <g id="text_10">
      <!-- 6 -->
      <g transform="translate(44.2375 162.071012)scale(0.1 -0.1)">
       <use xlink:href="#DejaVuSans-54"/>
      </g>
     </g>
    </g>
    <g id="ytick_5">
     <g id="line2d_11">
      <g>
       <use style="stroke:#000000;stroke-width:0.8;" x="57.6" xlink:href="#mcb72061e3f" y="112.533058"/>
      </g>
     </g>
     <g id="text_11">
      <!-- 8 -->
      <g transform="translate(44.2375 116.332276)scale(0.1 -0.1)">
       <defs>
        <path d="M 31.78125 34.625 
Q 24.75 34.625 20.71875 30.859375 
Q 16.703125 27.09375 16.703125 20.515625 
Q 16.703125 13.921875 20.71875 10.15625 
Q 24.75 6.390625 31.78125 6.390625 
Q 38.8125 6.390625 42.859375 10.171875 
Q 46.921875 13.96875 46.921875 20.515625 
Q 46.921875 27.09375 42.890625 30.859375 
Q 38.875 34.625 31.78125 34.625 
z
M 21.921875 38.8125 
Q 15.578125 40.375 12.03125 44.71875 
Q 8.5 49.078125 8.5 55.328125 
Q 8.5 64.0625 14.71875 69.140625 
Q 20.953125 74.21875 31.78125 74.21875 
Q 42.671875 74.21875 48.875 69.140625 
Q 55.078125 64.0625 55.078125 55.328125 
Q 55.078125 49.078125 51.53125 44.71875 
Q 48 40.375 41.703125 38.8125 
Q 48.828125 37.15625 52.796875 32.3125 
Q 56.78125 27.484375 56.78125 20.515625 
Q 56.78125 9.90625 50.3125 4.234375 
Q 43.84375 -1.421875 31.78125 -1.421875 
Q 19.734375 -1.421875 13.25 4.234375 
Q 6.78125 9.90625 6.78125 20.515625 
Q 6.78125 27.484375 10.78125 32.3125 
Q 14.796875 37.15625 21.921875 38.8125 
z
M 18.3125 54.390625 
Q 18.3125 48.734375 21.84375 45.5625 
Q 25.390625 42.390625 31.78125 42.390625 
Q 38.140625 42.390625 41.71875 45.5625 
Q 45.3125 48.734375 45.3125 54.390625 
Q 45.3125 60.0625 41.71875 63.234375 
Q 38.140625 66.40625 31.78125 66.40625 
Q 25.390625 66.40625 21.84375 63.234375 
Q 18.3125 60.0625 18.3125 54.390625 
z
" id="DejaVuSans-56"/>
       </defs>
       <use xlink:href="#DejaVuSans-56"/>
      </g>
     </g>
    </g>
    <g id="ytick_6">
     <g id="line2d_12">
      <g>
       <use style="stroke:#000000;stroke-width:0.8;" x="57.6" xlink:href="#mcb72061e3f" y="66.794322"/>
      </g>
     </g>
     <g id="text_12">
      <!-- 10 -->
      <g transform="translate(37.875 70.59354)scale(0.1 -0.1)">
       <defs>
        <path d="M 12.40625 8.296875 
L 28.515625 8.296875 
L 28.515625 63.921875 
L 10.984375 60.40625 
L 10.984375 69.390625 
L 28.421875 72.90625 
L 38.28125 72.90625 
L 38.28125 8.296875 
L 54.390625 8.296875 
L 54.390625 0 
L 12.40625 0 
z
" id="DejaVuSans-49"/>
       </defs>
       <use xlink:href="#DejaVuSans-49"/>
       <use x="63.623047" xlink:href="#DejaVuSans-48"/>
      </g>
     </g>
    </g>
   </g>
   <g id="line2d_13">
    <path clip-path="url(#p0abfaeee0d)" d="M 74.224349 295.153216 
L 74.224349 295.18271 
L 74.224349 295.123722 
L 74.224349 295.153216 
L 77.357324 295.212204 
L 73.832727 295.153216 
L 76.965702 295.212204 
L 77.357324 295.271192 
L 77.357324 295.212204 
L 80.881921 295.153216 
L 80.881921 295.123722 
L 80.881921 295.094228 
L 82.056787 295.123722 
L 83.231653 295.123722 
L 83.231653 295.153216 
L 84.014896 295.18271 
L 84.014896 295.212204 
L 89.105981 295.153216 
L 89.105981 295.153216 
L 89.105981 295.094228 
L 90.280847 295.094228 
L 89.889225 295.094228 
L 91.06409 295.064734 
L 91.06409 295.064734 
L 94.197065 295.212204 
L 94.197065 295.18271 
L 93.805444 295.212204 
L 94.197065 295.212204 
L 94.588687 295.271192 
L 95.371931 295.212204 
L 95.371931 295.212204 
L 98.896528 295.153216 
L 98.896528 295.153216 
L 100.071394 295.03524 
L 100.463016 295.094228 
L 100.463016 295.064734 
L 101.637881 295.064734 
L 101.637881 295.094228 
L 101.637881 295.03524 
L 105.162478 295.212204 
L 106.728966 295.18271 
L 106.728966 295.18271 
L 108.295453 295.094228 
L 108.295453 295.123722 
L 108.295453 295.064734 
L 109.861941 295.094228 
L 111.428429 295.064734 
L 111.428429 295.094228 
L 112.603294 295.094228 
L 112.603294 295.123722 
L 113.386538 295.153216 
L 112.994916 295.18271 
L 116.127891 295.241698 
L 116.127891 295.212204 
L 119.652488 295.03524 
L 119.652488 295.03524 
L 119.652488 295.064734 
L 123.177085 295.123722 
L 123.177085 295.153216 
L 125.135195 295.212204 
L 125.135195 295.212204 
L 129.051414 295.005746 
L 129.051414 295.064734 
L 129.051414 295.005746 
L 132.184389 295.094228 
L 132.184389 295.064734 
L 132.967632 295.123722 
L 132.967632 295.094228 
L 136.100608 295.241698 
L 136.100608 295.212204 
L 137.275473 295.212204 
L 137.275473 295.212204 
L 137.275473 295.18271 
L 138.841961 295.005746 
L 138.841961 294.946758 
L 142.366558 294.946758 
L 142.366558 295.03524 
L 146.282777 295.241698 
L 145.891155 295.241698 
L 148.240886 295.18271 
L 148.240886 295.153216 
L 148.240886 295.123722 
L 149.415752 295.064734 
L 149.415752 295.005746 
L 152.157105 294.88777 
L 152.157105 294.88777 
L 157.248189 295.212204 
L 162.730896 294.828782 
L 164.297383 295.005746 
L 164.297383 294.976252 
L 165.080627 295.005746 
L 165.080627 295.064734 
L 165.863871 295.212204 
L 165.863871 295.18271 
L 169.388468 295.123722 
L 169.388468 295.03524 
L 170.954956 294.858276 
L 171.346577 294.88777 
L 171.346577 294.828782 
L 172.913065 294.622324 
L 177.220906 295.03524 
L 178.787393 295.18271 
L 178.787393 295.153216 
L 178.787393 295.153216 
L 179.962259 295.18271 
L 179.962259 295.153216 
L 180.745503 295.094228 
L 180.745503 295.03524 
L 181.920368 294.858276 
L 183.878478 294.622324 
L 183.878478 294.622324 
L 183.878478 294.681312 
L 184.661722 294.681312 
L 184.661722 294.769794 
L 184.661722 294.769794 
L 186.228209 294.799288 
L 186.228209 294.858276 
L 186.228209 294.946758 
L 190.53605 295.18271 
L 190.53605 295.094228 
L 191.319294 295.03524 
L 191.319294 295.005746 
L 192.102538 294.858276 
L 192.102538 294.828782 
L 193.669025 294.622324 
L 196.018756 294.297891 
L 196.018756 294.356879 
L 196.410378 294.327385 
L 196.410378 294.386373 
L 197.193622 294.533843 
L 197.193622 294.563337 
L 197.976866 294.710806 
L 198.76011 294.946758 
L 198.76011 295.005746 
L 200.718219 295.094228 
L 200.718219 295.064734 
L 201.893085 295.03524 
L 201.893085 294.976252 
L 201.893085 294.88777 
L 202.676329 294.681312 
L 202.676329 294.651818 
L 203.06795 294.533843 
L 203.06795 294.474855 
L 203.851194 294.327385 
L 204.242816 294.238903 
L 203.851194 294.209409 
L 204.242816 294.150421 
L 205.417682 293.914469 
L 206.592547 294.120927 
L 206.592547 294.209409 
L 207.767413 294.297891 
L 207.767413 294.415867 
L 208.159035 294.415867 
L 207.767413 294.474855 
L 209.333901 294.799288 
L 209.333901 294.828782 
L 209.725523 294.917264 
L 209.725523 295.005746 
L 210.508766 295.123722 
L 210.508766 295.18271 
L 211.29201 295.153216 
L 211.29201 295.212204 
L 212.466876 295.03524 
L 212.075254 295.064734 
L 213.25012 294.7403 
L 213.25012 294.533843 
L 213.641741 294.533843 
L 213.641741 294.386373 
L 214.424985 294.179915 
L 214.424985 294.120927 
L 215.208229 293.943963 
L 214.816607 293.825987 
L 215.991473 293.590035 
L 215.991473 293.531047 
L 217.55796 293.501553 
L 217.55796 293.531047 
L 217.949582 293.472059 
L 217.949582 293.560541 
L 217.949582 293.649023 
L 218.341204 293.619529 
L 218.341204 293.708011 
L 219.124448 293.914469 
L 219.124448 294.032445 
L 219.51607 294.120927 
L 219.51607 294.238903 
L 219.907692 294.386373 
L 219.907692 294.445361 
L 220.690935 294.710806 
L 220.690935 294.828782 
L 221.474179 294.976252 
L 221.474179 295.123722 
L 222.649045 295.212204 
L 222.649045 295.153216 
L 223.432289 294.976252 
L 223.432289 294.7403 
L 224.215532 294.710806 
L 224.215532 294.681312 
L 224.998776 294.415867 
L 224.998776 293.619529 
L 225.390398 293.472059 
L 225.78202 293.059143 
L 225.78202 293.000155 
L 226.565264 293.000155 
L 226.565264 292.941167 
L 226.565264 292.557746 
L 227.348508 291.908878 
L 227.348508 291.790902 
L 227.740129 291.820396 
L 227.740129 291.820396 
L 227.740129 291.70242 
L 228.523373 291.820396 
L 228.914995 291.908878 
L 228.914995 292.115336 
L 229.306617 292.2923 
L 229.306617 292.675722 
L 229.698239 292.970661 
L 229.698239 293.147625 
L 230.089861 293.442565 
L 230.481483 293.678517 
L 230.481483 293.943963 
L 230.873105 294.091433 
L 230.873105 294.504349 
L 231.656348 294.681312 
L 231.656348 294.651818 
L 232.439592 294.828782 
L 232.439592 294.946758 
L 232.831214 295.005746 
L 232.831214 294.946758 
L 233.222836 294.88777 
L 233.222836 294.710806 
L 233.614458 294.504349 
L 233.614458 294.445361 
L 234.00608 294.474855 
L 234.00608 294.445361 
L 234.397702 294.356879 
L 234.397702 294.238903 
L 234.789323 294.061939 
L 234.789323 293.029649 
L 235.180945 292.410276 
L 235.180945 291.908878 
L 235.572567 291.584444 
L 235.572567 291.26001 
L 235.964189 290.935577 
L 235.964189 290.316203 
L 236.355811 290.080251 
L 236.747433 289.637841 
L 236.747433 288.22213 
L 237.139055 287.750226 
L 237.139055 287.012877 
L 237.530677 286.216539 
L 237.922298 286.098563 
L 237.922298 285.744636 
L 238.31392 285.892105 
L 238.31392 285.62666 
L 238.705542 285.449696 
L 238.705542 285.243238 
L 239.097164 285.007286 
L 239.097164 284.74184 
L 239.488786 284.74184 
L 239.488786 284.948298 
L 239.880408 285.154756 
L 239.880408 285.420202 
L 240.27203 285.361214 
L 240.27203 285.18425 
L 240.27203 285.361214 
L 240.663652 285.420202 
L 241.055274 285.744636 
L 241.055274 286.128057 
L 241.446895 286.717937 
L 241.446895 288.045166 
L 241.838517 288.576058 
L 241.838517 289.136444 
L 242.230139 289.844299 
L 242.230139 290.139239 
L 242.621761 290.345697 
L 242.621761 290.876589 
L 243.013383 291.11254 
L 243.013383 291.731914 
L 243.405005 292.233312 
L 243.405005 292.852685 
L 243.796627 293.354083 
L 243.796627 293.560541 
L 243.796627 293.442565 
L 244.188249 293.383577 
L 244.188249 292.764204 
L 244.579871 292.43977 
L 244.579871 291.879384 
L 244.971492 291.466468 
L 244.579871 291.024059 
L 244.971492 289.844299 
L 245.363114 287.986178 
L 245.363114 286.305021 
L 245.754736 283.532587 
L 245.754736 277.78126 
L 246.146358 275.628199 
L 246.146358 273.445645 
L 246.53798 272.265885 
L 246.53798 272.413355 
L 246.53798 273.504633 
L 246.929602 272.265885 
L 246.929602 270.761692 
L 247.321224 269.611427 
L 247.712846 266.101643 
L 247.712846 261.530075 
L 248.104468 258.905111 
L 248.104468 257.105978 
L 248.496089 255.690267 
L 248.496089 251.059711 
L 248.887711 245.957252 
L 248.887711 238.996672 
L 249.279333 235.57537 
L 249.279333 225.694886 
L 249.670955 223.689295 
L 250.062577 220.238499 
L 250.062577 209.473195 
L 250.454199 204.193772 
L 250.454199 192.986058 
L 250.845821 187.29372 
L 250.845821 184.078876 
L 251.237443 177.885139 
L 250.845821 170.954053 
L 251.629065 159.805327 
L 251.629065 150.485229 
L 252.020686 141.872986 
L 252.020686 121.138715 
L 252.412308 118.779197 
L 252.80393 108.839724 
L 252.80393 101.584205 
L 253.195552 95.125022 
L 253.195552 77.871042 
L 253.587174 76.838753 
L 253.978796 70.173113 
L 253.978796 55.898025 
L 254.370418 53.568 
L 256.720149 53.568 
L 256.720149 53.568 
L 256.720149 54.659277 
L 257.111771 59.9387 
L 257.503393 67.754606 
L 257.503393 77.133693 
L 257.503393 76.602801 
L 257.895015 80.024103 
L 257.895015 82.118176 
L 258.286637 85.156056 
L 258.286637 81.11538 
L 258.678259 86.070369 
L 258.678259 95.272492 
L 259.06988 99.25418 
L 259.06988 121.345173 
L 259.461502 129.898428 
L 259.461502 141.990962 
L 259.853124 148.951542 
L 259.853124 151.694482 
L 260.244746 155.056796 
L 260.244746 166.647931 
L 260.636368 172.1928 
L 260.636368 181.040995 
L 261.02799 189.948178 
L 261.02799 199.386253 
L 261.419612 207.556086 
L 261.419612 223.128909 
L 262.202856 234.838021 
L 262.202856 253.12429 
L 262.986099 262.650847 
L 262.986099 266.101643 
L 263.377721 266.426077 
L 262.986099 266.337595 
L 263.377721 266.131137 
L 263.377721 267.104438 
L 263.769343 268.933065 
L 264.160965 272.501837 
L 264.160965 287.838708 
L 264.944209 290.316203 
L 264.944209 291.584444 
L 265.335831 291.40748 
L 265.335831 291.672926 
L 265.727453 292.616734 
L 265.727453 293.943963 
L 266.119074 294.563337 
L 266.510696 294.769794 
L 266.119074 294.7403 
L 266.510696 294.710806 
L 266.902318 294.445361 
L 266.902318 294.061939 
L 267.29394 293.708011 
L 267.29394 293.147625 
L 267.685562 292.764204 
L 267.685562 292.380782 
L 268.077184 291.672926 
L 267.685562 290.935577 
L 268.468806 289.519865 
L 268.468806 288.723528 
L 268.860428 288.281118 
L 268.860428 287.396299 
L 269.25205 287.396299 
L 269.25205 286.924395 
L 269.643671 286.688443 
L 269.643671 286.865407 
L 269.643671 286.776925 
L 270.035293 286.599961 
L 270.426915 286.865407 
L 270.426915 286.747431 
L 270.426915 286.305021 
L 270.818537 286.334515 
L 270.818537 286.098563 
L 271.210159 285.980587 
L 271.210159 286.246033 
L 271.210159 286.246033 
L 271.993403 286.364009 
L 271.993403 286.570467 
L 272.385025 286.717937 
L 272.385025 286.894901 
L 272.776647 287.189841 
L 272.385025 287.425793 
L 272.776647 287.92719 
L 272.776647 288.723528 
L 273.168268 288.929986 
L 273.168268 289.342902 
L 273.55989 289.549359 
L 273.55989 290.316203 
L 273.951512 290.493167 
L 273.951512 291.142034 
L 274.734756 292.115336 
L 274.734756 292.410276 
L 275.126378 292.823192 
L 274.734756 293.029649 
L 275.126378 293.236107 
L 275.126378 293.678517 
L 275.518 293.737505 
L 275.518 293.943963 
L 276.301244 294.415867 
L 276.301244 295.064734 
L 277.476109 295.094228 
L 277.476109 295.064734 
L 277.476109 295.03524 
L 278.259353 294.946758 
L 278.259353 294.710806 
L 278.650975 294.533843 
L 278.650975 294.179915 
L 279.042597 294.002951 
L 279.042597 293.855481 
L 279.434219 293.678517 
L 279.434219 293.560541 
L 279.825841 293.383577 
L 279.825841 293.088637 
L 280.217462 293.177119 
L 280.217462 293.029649 
L 280.609084 292.675722 
L 280.609084 292.469264 
L 281.000706 292.557746 
L 281.000706 292.43977 
L 281.000706 292.498758 
L 281.392328 292.380782 
L 281.78395 292.410276 
L 281.78395 292.351288 
L 281.78395 292.262806 
L 281.78395 292.2923 
L 282.175572 292.410276 
L 283.742059 292.823192 
L 283.742059 292.911673 
L 284.133681 293.177119 
L 284.133681 293.265601 
L 284.525303 293.501553 
L 284.525303 293.884975 
L 285.308547 294.445361 
L 285.308547 294.651818 
L 285.700169 294.7403 
L 285.700169 294.7403 
L 285.700169 294.828782 
L 286.483413 294.946758 
L 286.483413 295.094228 
L 287.658278 295.18271 
L 287.658278 295.153216 
L 287.658278 295.153216 
L 288.441522 295.094228 
L 288.441522 295.064734 
L 288.441522 294.976252 
L 289.616388 294.651818 
L 289.616388 294.563337 
L 290.00801 294.415867 
L 290.00801 294.356879 
L 290.791253 294.120927 
L 290.791253 294.032445 
L 293.924229 294.120927 
L 294.707472 294.297891 
L 294.707472 294.533843 
L 295.490716 294.533843 
L 295.490716 294.622324 
L 296.665582 294.769794 
L 296.27396 294.828782 
L 297.448826 295.094228 
L 297.448826 295.094228 
L 297.448826 295.123722 
L 297.448826 295.094228 
L 298.623691 295.212204 
L 298.623691 295.18271 
L 299.406935 295.123722 
L 299.406935 295.094228 
L 300.581801 294.917264 
L 300.581801 294.88777 
L 301.365044 294.828782 
L 301.365044 294.7403 
L 302.53991 294.533843 
L 302.53991 294.533843 
L 302.931532 294.563337 
L 302.931532 294.563337 
L 303.323154 294.474855 
L 303.323154 294.504349 
L 304.889641 294.592831 
L 304.889641 294.592831 
L 305.281263 294.710806 
L 306.456129 294.799288 
L 306.456129 294.858276 
L 306.847751 294.858276 
L 306.847751 294.946758 
L 311.155592 295.18271 
L 311.155592 295.094228 
L 311.938835 295.123722 
L 311.938835 295.03524 
L 311.938835 295.064734 
L 313.113701 294.917264 
L 313.113701 294.858276 
L 313.896945 294.858276 
L 313.896945 294.769794 
L 313.896945 294.799288 
L 315.463432 294.769794 
L 316.638298 294.88777 
L 316.638298 294.976252 
L 318.988029 295.212204 
L 318.988029 295.212204 
L 318.988029 295.271192 
L 322.121004 295.094228 
L 322.121004 295.153216 
L 322.121004 295.123722 
L 323.687492 294.946758 
L 323.687492 294.946758 
L 326.428845 295.005746 
L 326.428845 295.064734 
L 327.995333 295.153216 
L 327.995333 295.18271 
L 327.995333 295.18271 
L 333.869661 295.094228 
L 333.869661 295.094228 
L 335.436149 295.064734 
L 335.436149 295.094228 
L 335.436149 295.064734 
L 338.569124 295.153216 
L 338.569124 295.153216 
L 338.569124 295.18271 
L 391.829701 295.271192 
L 391.829701 295.271192 
L 391.829701 295.300686 
L 393.396188 295.271192 
L 393.396188 295.271192 
L 398.487273 295.241698 
L 398.095651 295.271192 
L 398.095651 290.109745 
L 398.095651 291.40748 
L 397.704029 291.083047 
L 398.095651 291.142034 
L 398.095651 291.26001 
L 398.095651 290.906083 
L 398.095651 291.171528 
L 397.704029 291.024059 
L 398.095651 291.26001 
L 398.095651 291.053553 
L 398.095651 290.965071 
L 398.095651 291.70242 
L 398.095651 291.348492 
L 398.487273 291.643432 
L 398.095651 291.761408 
L 398.095651 291.40748 
L 398.095651 291.613938 
L 398.487273 291.70242 
L 398.095651 291.613938 
L 398.095651 291.495962 
L 398.095651 291.731914 
L 398.095651 291.613938 
L 397.704029 291.613938 
L 398.095651 291.525456 
L 398.095651 291.377986 
L 398.095651 291.495962 
L 398.487273 291.495962 
L 398.095651 291.584444 
L 398.095651 291.201022 
L 398.095651 291.495962 
L 397.704029 291.55495 
L 398.095651 291.466468 
L 398.095651 291.584444 
L 398.095651 291.879384 
L 398.095651 291.55495 
L 398.095651 291.70242 
L 397.704029 291.672926 
L 398.095651 291.70242 
L 398.095651 291.584444 
L 398.095651 292.085842 
L 398.095651 291.99736 
L 398.487273 291.967866 
L 398.095651 292.056348 
L 398.487273 291.99736 
L 398.095651 291.84989 
L 398.095651 292.056348 
L 398.095651 291.938372 
L 398.487273 292.026854 
L 398.095651 291.84989 
L 398.095651 292.056348 
L 398.095651 291.820396 
L 398.095651 292.056348 
L 397.704029 292.026854 
L 398.095651 291.84989 
L 398.095651 291.99736 
L 398.095651 292.085842 
L 397.704029 292.026854 
L 398.095651 292.056348 
L 398.095651 291.908878 
L 397.704029 292.056348 
L 398.095651 291.820396 
L 398.095651 291.938372 
L 397.704029 291.84989 
L 397.704029 291.938372 
L 398.095651 291.820396 
L 398.095651 291.84989 
L 398.095651 291.99736 
L 398.095651 291.790902 
L 398.095651 291.938372 
L 397.704029 291.908878 
L 398.487273 291.99736 
L 398.095651 291.908878 
L 398.095651 291.820396 
L 398.095651 292.026854 
L 398.095651 291.820396 
L 397.704029 291.938372 
L 398.095651 291.938372 
L 398.095651 291.820396 
L 398.095651 292.026854 
L 398.095651 291.879384 
L 398.487273 291.908878 
L 398.095651 291.99736 
L 398.095651 291.761408 
L 398.095651 292.056348 
L 398.095651 291.820396 
L 397.704029 291.879384 
L 398.095651 291.761408 
L 398.095651 291.908878 
L 398.095651 291.967866 
L 398.095651 291.790902 
L 398.095651 291.879384 
L 397.704029 291.790902 
L 398.095651 291.967866 
L 398.095651 291.879384 
L 398.095651 291.820396 
L 398.095651 291.99736 
L 397.704029 292.085842 
L 398.095651 291.908878 
L 398.095651 292.026854 
L 397.704029 291.938372 
L 398.095651 291.938372 
L 398.095651 291.908878 
L 398.095651 292.026854 
L 398.095651 292.026854 
L 397.704029 292.026854 
L 398.095651 291.879384 
L 398.095651 291.908878 
L 398.095651 292.056348 
L 398.095651 291.967866 
L 397.704029 291.938372 
L 398.095651 292.056348 
L 398.095651 291.908878 
L 398.095651 292.14483 
L 398.095651 291.613938 
L 398.095651 291.84989 
L 398.487273 291.761408 
L 397.704029 291.820396 
L 398.095651 291.790902 
L 398.095651 291.584444 
L 398.095651 291.643432 
L 398.487273 291.672926 
L 398.095651 291.55495 
L 398.095651 291.613938 
L 398.095651 291.525456 
L 398.095651 291.643432 
L 398.095651 291.525456 
L 397.704029 291.70242 
L 398.095651 291.55495 
L 398.095651 291.672926 
L 398.095651 291.55495 
L 397.704029 291.55495 
L 398.095651 291.643432 
L 398.095651 291.70242 
L 398.095651 291.466468 
L 397.704029 291.55495 
L 398.095651 291.377986 
L 398.095651 291.495962 
L 398.095651 291.613938 
L 398.095651 291.40748 
L 398.095651 291.436974 
L 397.704029 291.495962 
L 398.095651 291.40748 
L 398.095651 291.525456 
L 398.095651 291.643432 
L 398.095651 291.348492 
L 398.095651 291.466468 
L 397.704029 291.55495 
L 398.095651 291.40748 
L 398.095651 291.525456 
L 398.095651 291.584444 
L 398.095651 291.40748 
L 398.095651 291.495962 
L 398.487273 291.466468 
L 397.704029 291.466468 
L 398.095651 291.466468 
L 398.095651 291.613938 
L 398.095651 291.436974 
L 398.095651 291.584444 
L 397.704029 291.55495 
L 398.095651 291.55495 
L 398.095651 291.70242 
L 398.095651 291.466468 
L 398.095651 291.55495 
L 397.704029 291.584444 
L 398.095651 291.55495 
L 398.095651 291.731914 
L 398.095651 291.525456 
L 398.095651 291.613938 
L 397.704029 291.613938 
L 398.095651 291.790902 
L 398.487273 291.584444 
L 397.704029 291.584444 
L 398.095651 291.643432 
L 398.095651 291.908878 
L 398.095651 291.55495 
L 398.095651 291.70242 
L 397.704029 291.731914 
L 398.095651 291.643432 
L 398.095651 291.318998 
L 398.095651 291.731914 
L 398.095651 291.348492 
L 398.487273 291.495962 
L 398.095651 291.318998 
L 398.095651 291.40748 
L 398.095651 291.525456 
L 398.095651 291.466468 
L 398.487273 291.289504 
L 398.095651 291.525456 
L 398.095651 291.466468 
L 397.704029 291.318998 
L 398.095651 291.525456 
L 398.095651 291.40748 
L 398.095651 291.289504 
L 398.095651 291.495962 
L 398.095651 291.436974 
L 397.704029 291.377986 
L 398.095651 291.495962 
L 398.095651 291.289504 
L 398.095651 291.495962 
L 397.704029 291.377986 
L 398.095651 291.55495 
L 398.095651 291.40748 
L 398.487273 291.40748 
L 398.095651 291.466468 
L 398.095651 291.584444 
L 398.095651 291.377986 
L 398.095651 291.495962 
L 397.704029 291.495962 
L 398.095651 291.525456 
L 398.095651 291.26001 
L 398.095651 291.55495 
L 398.095651 291.318998 
L 397.704029 291.525456 
L 397.704029 291.525456 
L 398.095651 291.436974 
L 397.704029 291.40748 
L 398.095651 291.495962 
L 398.095651 291.40748 
L 398.095651 291.318998 
L 397.704029 291.40748 
L 398.095651 291.495962 
L 397.704029 291.40748 
L 398.095651 291.318998 
L 397.704029 291.495962 
L 398.095651 291.318998 
L 398.095651 291.525456 
L 398.095651 291.230516 
L 398.095651 291.348492 
L 397.704029 291.348492 
L 398.095651 291.318998 
L 398.095651 291.466468 
L 398.095651 291.289504 
L 397.704029 291.40748 
L 398.095651 291.40748 
L 398.095651 291.40748 
L 397.704029 291.525456 
L 398.095651 291.318998 
L 398.095651 291.40748 
L 398.095651 291.525456 
L 398.095651 291.289504 
L 398.095651 291.466468 
L 397.704029 291.377986 
L 398.095651 291.495962 
L 398.095651 291.436974 
L 398.095651 291.230516 
L 398.095651 291.436974 
L 397.704029 291.348492 
L 398.487273 291.436974 
L 398.095651 291.377986 
L 398.095651 291.26001 
L 398.095651 291.495962 
L 398.095651 291.436974 
L 397.704029 291.40748 
L 398.095651 291.466468 
L 398.095651 291.318998 
L 398.095651 291.377986 
L 397.704029 291.318998 
L 398.095651 291.495962 
L 398.095651 291.466468 
L 398.095651 291.318998 
L 398.095651 291.40748 
L 397.704029 291.436974 
L 398.095651 291.318998 
L 398.095651 291.377986 
L 398.095651 291.26001 
L 398.095651 291.525456 
L 397.704029 291.289504 
L 398.095651 291.466468 
L 398.095651 291.436974 
L 398.095651 291.230516 
L 398.095651 291.55495 
L 398.095651 291.40748 
L 397.704029 291.377986 
L 398.095651 291.495962 
L 398.095651 291.377986 
" style="fill:none;stroke:#1f77b4;stroke-linecap:square;stroke-width:1.5;"/>
   </g>
   <g id="line2d_14">
    <path clip-path="url(#p0abfaeee0d)" d="M 73.832727 293.085716 
L 80.332318 293.317043 
L 87.806847 293.818755 
L 108.605536 295.36521 
L 114.455168 295.487909 
L 119.97982 295.38367 
L 125.504472 295.059956 
L 131.679083 294.471144 
L 140.45353 293.380681 
L 150.852875 292.129205 
L 156.702506 291.65719 
L 161.902179 291.465668 
L 166.776871 291.510751 
L 171.651564 291.775323 
L 177.176216 292.310383 
L 184.325766 293.257969 
L 196.350008 294.87984 
L 201.549681 295.325658 
L 206.099394 295.485449 
L 210.324128 295.404757 
L 214.548862 295.088379 
L 218.773595 294.540359 
L 223.323309 293.718288 
L 228.847961 292.473854 
L 244.771957 288.703763 
L 248.996691 288.029354 
L 252.896446 287.643638 
L 256.47122 287.520603 
L 260.045995 287.633056 
L 263.62077 287.981796 
L 267.195545 288.553217 
L 271.095299 289.397052 
L 275.969992 290.690803 
L 288.969173 294.280764 
L 292.543948 294.96564 
L 295.793743 295.359233 
L 298.718559 295.487732 
L 301.318395 295.399502 
L 303.918231 295.105933 
L 306.518067 294.598263 
L 309.117903 293.873581 
L 311.71774 292.935241 
L 314.642555 291.636778 
L 317.892351 289.921381 
L 321.467125 287.759207 
L 326.016839 284.722266 
L 335.441245 278.343725 
L 338.69104 276.438492 
L 341.615856 274.982693 
L 344.215692 273.948219 
L 346.490549 273.276296 
L 348.765405 272.845977 
L 350.715283 272.683376 
L 352.66516 272.720215 
L 354.615037 272.961846 
L 356.564914 273.410215 
L 358.514791 274.063621 
L 360.789648 275.077418 
L 363.064505 276.346736 
L 365.664341 278.079698 
L 368.589156 280.331144 
L 372.163931 283.390174 
L 380.288419 290.490262 
L 382.888256 292.417555 
L 384.838133 293.628705 
L 386.78801 294.579864 
L 388.412907 295.134545 
L 390.037805 295.438847 
L 391.337723 295.480501 
L 392.637641 295.325103 
L 393.937559 294.956491 
L 395.237477 294.358746 
L 396.537396 293.516274 
L 397.837314 292.413897 
L 398.487273 291.760634 
L 398.487273 291.760634 
" style="fill:none;stroke:#ff7f0e;stroke-linecap:square;stroke-width:1.5;"/>
   </g>
   <g id="patch_3">
    <path d="M 57.6 307.584 
L 57.6 41.472 
" style="fill:none;stroke:#000000;stroke-linecap:square;stroke-linejoin:miter;stroke-width:0.8;"/>
   </g>
   <g id="patch_4">
    <path d="M 414.72 307.584 
L 414.72 41.472 
" style="fill:none;stroke:#000000;stroke-linecap:square;stroke-linejoin:miter;stroke-width:0.8;"/>
   </g>
   <g id="patch_5">
    <path d="M 57.6 307.584 
L 414.72 307.584 
" style="fill:none;stroke:#000000;stroke-linecap:square;stroke-linejoin:miter;stroke-width:0.8;"/>
   </g>
   <g id="patch_6">
    <path d="M 57.6 41.472 
L 414.72 41.472 
" style="fill:none;stroke:#000000;stroke-linecap:square;stroke-linejoin:miter;stroke-width:0.8;"/>
   </g>
   <g id="legend_1">
    <g id="patch_7">
     <path d="M 313.723125 78.82825 
L 407.72 78.82825 
Q 409.72 78.82825 409.72 76.82825 
L 409.72 48.472 
Q 409.72 46.472 407.72 46.472 
L 313.723125 46.472 
Q 311.723125 46.472 311.723125 48.472 
L 311.723125 76.82825 
Q 311.723125 78.82825 313.723125 78.82825 
z
" style="fill:#ffffff;opacity:0.8;stroke:#cccccc;stroke-linejoin:miter;"/>
    </g>
    <g id="line2d_15">
     <path d="M 315.723125 54.570437 
L 335.723125 54.570437 
" style="fill:none;stroke:#1f77b4;stroke-linecap:square;stroke-width:1.5;"/>
    </g>
    <g id="line2d_16"/>
    <g id="text_13">
     <!-- .16Good2 -->
     <g transform="translate(343.723125 58.070437)scale(0.1 -0.1)">
      <defs>
       <path d="M 59.515625 10.40625 
L 59.515625 29.984375 
L 43.40625 29.984375 
L 43.40625 38.09375 
L 69.28125 38.09375 
L 69.28125 6.78125 
Q 63.578125 2.734375 56.6875 0.65625 
Q 49.8125 -1.421875 42 -1.421875 
Q 24.90625 -1.421875 15.25 8.5625 
Q 5.609375 18.5625 5.609375 36.375 
Q 5.609375 54.25 15.25 64.234375 
Q 24.90625 74.21875 42 74.21875 
Q 49.125 74.21875 55.546875 72.453125 
Q 61.96875 70.703125 67.390625 67.28125 
L 67.390625 56.78125 
Q 61.921875 61.421875 55.765625 63.765625 
Q 49.609375 66.109375 42.828125 66.109375 
Q 29.4375 66.109375 22.71875 58.640625 
Q 16.015625 51.171875 16.015625 36.375 
Q 16.015625 21.625 22.71875 14.15625 
Q 29.4375 6.6875 42.828125 6.6875 
Q 48.046875 6.6875 52.140625 7.59375 
Q 56.25 8.5 59.515625 10.40625 
z
" id="DejaVuSans-71"/>
       <path d="M 30.609375 48.390625 
Q 23.390625 48.390625 19.1875 42.75 
Q 14.984375 37.109375 14.984375 27.296875 
Q 14.984375 17.484375 19.15625 11.84375 
Q 23.34375 6.203125 30.609375 6.203125 
Q 37.796875 6.203125 41.984375 11.859375 
Q 46.1875 17.53125 46.1875 27.296875 
Q 46.1875 37.015625 41.984375 42.703125 
Q 37.796875 48.390625 30.609375 48.390625 
z
M 30.609375 56 
Q 42.328125 56 49.015625 48.375 
Q 55.71875 40.765625 55.71875 27.296875 
Q 55.71875 13.875 49.015625 6.21875 
Q 42.328125 -1.421875 30.609375 -1.421875 
Q 18.84375 -1.421875 12.171875 6.21875 
Q 5.515625 13.875 5.515625 27.296875 
Q 5.515625 40.765625 12.171875 48.375 
Q 18.84375 56 30.609375 56 
z
" id="DejaVuSans-111"/>
       <path d="M 45.40625 46.390625 
L 45.40625 75.984375 
L 54.390625 75.984375 
L 54.390625 0 
L 45.40625 0 
L 45.40625 8.203125 
Q 42.578125 3.328125 38.25 0.953125 
Q 33.9375 -1.421875 27.875 -1.421875 
Q 17.96875 -1.421875 11.734375 6.484375 
Q 5.515625 14.40625 5.515625 27.296875 
Q 5.515625 40.1875 11.734375 48.09375 
Q 17.96875 56 27.875 56 
Q 33.9375 56 38.25 53.625 
Q 42.578125 51.265625 45.40625 46.390625 
z
M 14.796875 27.296875 
Q 14.796875 17.390625 18.875 11.75 
Q 22.953125 6.109375 30.078125 6.109375 
Q 37.203125 6.109375 41.296875 11.75 
Q 45.40625 17.390625 45.40625 27.296875 
Q 45.40625 37.203125 41.296875 42.84375 
Q 37.203125 48.484375 30.078125 48.484375 
Q 22.953125 48.484375 18.875 42.84375 
Q 14.796875 37.203125 14.796875 27.296875 
z
" id="DejaVuSans-100"/>
      </defs>
      <use xlink:href="#DejaVuSans-46"/>
      <use x="31.787109" xlink:href="#DejaVuSans-49"/>
      <use x="95.410156" xlink:href="#DejaVuSans-54"/>
      <use x="159.033203" xlink:href="#DejaVuSans-71"/>
      <use x="236.523438" xlink:href="#DejaVuSans-111"/>
      <use x="297.705078" xlink:href="#DejaVuSans-111"/>
      <use x="358.886719" xlink:href="#DejaVuSans-100"/>
      <use x="422.363281" xlink:href="#DejaVuSans-50"/>
     </g>
    </g>
    <g id="line2d_17">
     <path d="M 315.723125 69.248562 
L 335.723125 69.248562 
" style="fill:none;stroke:#ff7f0e;stroke-linecap:square;stroke-width:1.5;"/>
    </g>
    <g id="line2d_18"/>
    <g id="text_14">
     <!-- .16Good2 fit -->
     <g transform="translate(343.723125 72.748562)scale(0.1 -0.1)">
      <defs>
       <path id="DejaVuSans-32"/>
       <path d="M 37.109375 75.984375 
L 37.109375 68.5 
L 28.515625 68.5 
Q 23.6875 68.5 21.796875 66.546875 
Q 19.921875 64.59375 19.921875 59.515625 
L 19.921875 54.6875 
L 34.71875 54.6875 
L 34.71875 47.703125 
L 19.921875 47.703125 
L 19.921875 0 
L 10.890625 0 
L 10.890625 47.703125 
L 2.296875 47.703125 
L 2.296875 54.6875 
L 10.890625 54.6875 
L 10.890625 58.5 
Q 10.890625 67.625 15.140625 71.796875 
Q 19.390625 75.984375 28.609375 75.984375 
z
" id="DejaVuSans-102"/>
       <path d="M 9.421875 54.6875 
L 18.40625 54.6875 
L 18.40625 0 
L 9.421875 0 
z
M 9.421875 75.984375 
L 18.40625 75.984375 
L 18.40625 64.59375 
L 9.421875 64.59375 
z
" id="DejaVuSans-105"/>
       <path d="M 18.3125 70.21875 
L 18.3125 54.6875 
L 36.8125 54.6875 
L 36.8125 47.703125 
L 18.3125 47.703125 
L 18.3125 18.015625 
Q 18.3125 11.328125 20.140625 9.421875 
Q 21.96875 7.515625 27.59375 7.515625 
L 36.8125 7.515625 
L 36.8125 0 
L 27.59375 0 
Q 17.1875 0 13.234375 3.875 
Q 9.28125 7.765625 9.28125 18.015625 
L 9.28125 47.703125 
L 2.6875 47.703125 
L 2.6875 54.6875 
L 9.28125 54.6875 
L 9.28125 70.21875 
z
" id="DejaVuSans-116"/>
      </defs>
      <use xlink:href="#DejaVuSans-46"/>
      <use x="31.787109" xlink:href="#DejaVuSans-49"/>
      <use x="95.410156" xlink:href="#DejaVuSans-54"/>
      <use x="159.033203" xlink:href="#DejaVuSans-71"/>
      <use x="236.523438" xlink:href="#DejaVuSans-111"/>
      <use x="297.705078" xlink:href="#DejaVuSans-111"/>
      <use x="358.886719" xlink:href="#DejaVuSans-100"/>
      <use x="422.363281" xlink:href="#DejaVuSans-50"/>
      <use x="485.986328" xlink:href="#DejaVuSans-32"/>
      <use x="517.773438" xlink:href="#DejaVuSans-102"/>
      <use x="552.978516" xlink:href="#DejaVuSans-105"/>
      <use x="580.761719" xlink:href="#DejaVuSans-116"/>
     </g>
    </g>
   </g>
  </g>
 </g>
 <defs>
  <clipPath id="p0abfaeee0d">
   <rect height="266.112" width="357.12" x="57.6" y="41.472"/>
  </clipPath>
 </defs>
</svg>
