<?xml version="1.0" encoding="utf-8" standalone="no"?>
<!DOCTYPE svg PUBLIC "-//W3C//DTD SVG 1.1//EN"
  "http://www.w3.org/Graphics/SVG/1.1/DTD/svg11.dtd">
<svg height="345.6pt" version="1.1" viewBox="0 0 460.8 345.6" width="460.8pt" xmlns="http://www.w3.org/2000/svg" xmlns:xlink="http://www.w3.org/1999/xlink">
 <metadata>
  <rdf:RDF xmlns:cc="http://creativecommons.org/ns#" xmlns:dc="http://purl.org/dc/elements/1.1/" xmlns:rdf="http://www.w3.org/1999/02/22-rdf-syntax-ns#">
   <cc:Work>
    <dc:type rdf:resource="http://purl.org/dc/dcmitype/StillImage"/>
    <dc:date>2021-05-03T09:09:01.819241</dc:date>
    <dc:format>image/svg+xml</dc:format>
    <dc:creator>
     <cc:Agent>
      <dc:title>Matplotlib v3.4.1, https://matplotlib.org/</dc:title>
     </cc:Agent>
    </dc:creator>
   </cc:Work>
  </rdf:RDF>
 </metadata>
 <defs>
  <style type="text/css">*{stroke-linecap:butt;stroke-linejoin:round;}</style>
 </defs>
 <g id="figure_1">
  <g id="patch_1">
   <path d="M 0 345.6 
L 460.8 345.6 
L 460.8 0 
L 0 0 
z
" style="fill:#ffffff;"/>
  </g>
  <g id="axes_1">
   <g id="patch_2">
    <path d="M 57.6 307.584 
L 414.72 307.584 
L 414.72 41.472 
L 57.6 41.472 
z
" style="fill:#ffffff;"/>
   </g>
   <g id="matplotlib.axis_1">
    <g id="xtick_1">
     <g id="line2d_1">
      <defs>
       <path d="M 0 0 
L 0 3.5 
" id="m11126b89a4" style="stroke:#000000;stroke-width:0.8;"/>
      </defs>
      <g>
       <use style="stroke:#000000;stroke-width:0.8;" x="72.982691" xlink:href="#m11126b89a4" y="307.584"/>
      </g>
     </g>
     <g id="text_1">
      <!-- −1.00 -->
      <g transform="translate(57.660035 322.182437)scale(0.1 -0.1)">
       <defs>
        <path d="M 678 2272 
L 4684 2272 
L 4684 1741 
L 678 1741 
L 678 2272 
z
" id="DejaVuSans-2212" transform="scale(0.015625)"/>
        <path d="M 794 531 
L 1825 531 
L 1825 4091 
L 703 3866 
L 703 4441 
L 1819 4666 
L 2450 4666 
L 2450 531 
L 3481 531 
L 3481 0 
L 794 0 
L 794 531 
z
" id="DejaVuSans-31" transform="scale(0.015625)"/>
        <path d="M 684 794 
L 1344 794 
L 1344 0 
L 684 0 
L 684 794 
z
" id="DejaVuSans-2e" transform="scale(0.015625)"/>
        <path d="M 2034 4250 
Q 1547 4250 1301 3770 
Q 1056 3291 1056 2328 
Q 1056 1369 1301 889 
Q 1547 409 2034 409 
Q 2525 409 2770 889 
Q 3016 1369 3016 2328 
Q 3016 3291 2770 3770 
Q 2525 4250 2034 4250 
z
M 2034 4750 
Q 2819 4750 3233 4129 
Q 3647 3509 3647 2328 
Q 3647 1150 3233 529 
Q 2819 -91 2034 -91 
Q 1250 -91 836 529 
Q 422 1150 422 2328 
Q 422 3509 836 4129 
Q 1250 4750 2034 4750 
z
" id="DejaVuSans-30" transform="scale(0.015625)"/>
       </defs>
       <use xlink:href="#DejaVuSans-2212"/>
       <use x="83.789062" xlink:href="#DejaVuSans-31"/>
       <use x="147.412109" xlink:href="#DejaVuSans-2e"/>
       <use x="179.199219" xlink:href="#DejaVuSans-30"/>
       <use x="242.822266" xlink:href="#DejaVuSans-30"/>
      </g>
     </g>
    </g>
    <g id="xtick_2">
     <g id="line2d_2">
      <g>
       <use style="stroke:#000000;stroke-width:0.8;" x="113.769179" xlink:href="#m11126b89a4" y="307.584"/>
      </g>
     </g>
     <g id="text_2">
      <!-- −0.75 -->
      <g transform="translate(98.446522 322.182437)scale(0.1 -0.1)">
       <defs>
        <path d="M 525 4666 
L 3525 4666 
L 3525 4397 
L 1831 0 
L 1172 0 
L 2766 4134 
L 525 4134 
L 525 4666 
z
" id="DejaVuSans-37" transform="scale(0.015625)"/>
        <path d="M 691 4666 
L 3169 4666 
L 3169 4134 
L 1269 4134 
L 1269 2991 
Q 1406 3038 1543 3061 
Q 1681 3084 1819 3084 
Q 2600 3084 3056 2656 
Q 3513 2228 3513 1497 
Q 3513 744 3044 326 
Q 2575 -91 1722 -91 
Q 1428 -91 1123 -41 
Q 819 9 494 109 
L 494 744 
Q 775 591 1075 516 
Q 1375 441 1709 441 
Q 2250 441 2565 725 
Q 2881 1009 2881 1497 
Q 2881 1984 2565 2268 
Q 2250 2553 1709 2553 
Q 1456 2553 1204 2497 
Q 953 2441 691 2322 
L 691 4666 
z
" id="DejaVuSans-35" transform="scale(0.015625)"/>
       </defs>
       <use xlink:href="#DejaVuSans-2212"/>
       <use x="83.789062" xlink:href="#DejaVuSans-30"/>
       <use x="147.412109" xlink:href="#DejaVuSans-2e"/>
       <use x="179.199219" xlink:href="#DejaVuSans-37"/>
       <use x="242.822266" xlink:href="#DejaVuSans-35"/>
      </g>
     </g>
    </g>
    <g id="xtick_3">
     <g id="line2d_3">
      <g>
       <use style="stroke:#000000;stroke-width:0.8;" x="154.555666" xlink:href="#m11126b89a4" y="307.584"/>
      </g>
     </g>
     <g id="text_3">
      <!-- −0.50 -->
      <g transform="translate(139.23301 322.182437)scale(0.1 -0.1)">
       <use xlink:href="#DejaVuSans-2212"/>
       <use x="83.789062" xlink:href="#DejaVuSans-30"/>
       <use x="147.412109" xlink:href="#DejaVuSans-2e"/>
       <use x="179.199219" xlink:href="#DejaVuSans-35"/>
       <use x="242.822266" xlink:href="#DejaVuSans-30"/>
      </g>
     </g>
    </g>
    <g id="xtick_4">
     <g id="line2d_4">
      <g>
       <use style="stroke:#000000;stroke-width:0.8;" x="195.342153" xlink:href="#m11126b89a4" y="307.584"/>
      </g>
     </g>
     <g id="text_4">
      <!-- −0.25 -->
      <g transform="translate(180.019497 322.182437)scale(0.1 -0.1)">
       <defs>
        <path d="M 1228 531 
L 3431 531 
L 3431 0 
L 469 0 
L 469 531 
Q 828 903 1448 1529 
Q 2069 2156 2228 2338 
Q 2531 2678 2651 2914 
Q 2772 3150 2772 3378 
Q 2772 3750 2511 3984 
Q 2250 4219 1831 4219 
Q 1534 4219 1204 4116 
Q 875 4013 500 3803 
L 500 4441 
Q 881 4594 1212 4672 
Q 1544 4750 1819 4750 
Q 2544 4750 2975 4387 
Q 3406 4025 3406 3419 
Q 3406 3131 3298 2873 
Q 3191 2616 2906 2266 
Q 2828 2175 2409 1742 
Q 1991 1309 1228 531 
z
" id="DejaVuSans-32" transform="scale(0.015625)"/>
       </defs>
       <use xlink:href="#DejaVuSans-2212"/>
       <use x="83.789062" xlink:href="#DejaVuSans-30"/>
       <use x="147.412109" xlink:href="#DejaVuSans-2e"/>
       <use x="179.199219" xlink:href="#DejaVuSans-32"/>
       <use x="242.822266" xlink:href="#DejaVuSans-35"/>
      </g>
     </g>
    </g>
    <g id="xtick_5">
     <g id="line2d_5">
      <g>
       <use style="stroke:#000000;stroke-width:0.8;" x="236.128641" xlink:href="#m11126b89a4" y="307.584"/>
      </g>
     </g>
     <g id="text_5">
      <!-- 0.00 -->
      <g transform="translate(224.995828 322.182437)scale(0.1 -0.1)">
       <use xlink:href="#DejaVuSans-30"/>
       <use x="63.623047" xlink:href="#DejaVuSans-2e"/>
       <use x="95.410156" xlink:href="#DejaVuSans-30"/>
       <use x="159.033203" xlink:href="#DejaVuSans-30"/>
      </g>
     </g>
    </g>
    <g id="xtick_6">
     <g id="line2d_6">
      <g>
       <use style="stroke:#000000;stroke-width:0.8;" x="276.915128" xlink:href="#m11126b89a4" y="307.584"/>
      </g>
     </g>
     <g id="text_6">
      <!-- 0.25 -->
      <g transform="translate(265.782316 322.182437)scale(0.1 -0.1)">
       <use xlink:href="#DejaVuSans-30"/>
       <use x="63.623047" xlink:href="#DejaVuSans-2e"/>
       <use x="95.410156" xlink:href="#DejaVuSans-32"/>
       <use x="159.033203" xlink:href="#DejaVuSans-35"/>
      </g>
     </g>
    </g>
    <g id="xtick_7">
     <g id="line2d_7">
      <g>
       <use style="stroke:#000000;stroke-width:0.8;" x="317.701616" xlink:href="#m11126b89a4" y="307.584"/>
      </g>
     </g>
     <g id="text_7">
      <!-- 0.50 -->
      <g transform="translate(306.568803 322.182437)scale(0.1 -0.1)">
       <use xlink:href="#DejaVuSans-30"/>
       <use x="63.623047" xlink:href="#DejaVuSans-2e"/>
       <use x="95.410156" xlink:href="#DejaVuSans-35"/>
       <use x="159.033203" xlink:href="#DejaVuSans-30"/>
      </g>
     </g>
    </g>
    <g id="xtick_8">
     <g id="line2d_8">
      <g>
       <use style="stroke:#000000;stroke-width:0.8;" x="358.488103" xlink:href="#m11126b89a4" y="307.584"/>
      </g>
     </g>
     <g id="text_8">
      <!-- 0.75 -->
      <g transform="translate(347.35529 322.182437)scale(0.1 -0.1)">
       <use xlink:href="#DejaVuSans-30"/>
       <use x="63.623047" xlink:href="#DejaVuSans-2e"/>
       <use x="95.410156" xlink:href="#DejaVuSans-37"/>
       <use x="159.033203" xlink:href="#DejaVuSans-35"/>
      </g>
     </g>
    </g>
    <g id="xtick_9">
     <g id="line2d_9">
      <g>
       <use style="stroke:#000000;stroke-width:0.8;" x="399.27459" xlink:href="#m11126b89a4" y="307.584"/>
      </g>
     </g>
     <g id="text_9">
      <!-- 1.00 -->
      <g transform="translate(388.141778 322.182437)scale(0.1 -0.1)">
       <use xlink:href="#DejaVuSans-31"/>
       <use x="63.623047" xlink:href="#DejaVuSans-2e"/>
       <use x="95.410156" xlink:href="#DejaVuSans-30"/>
       <use x="159.033203" xlink:href="#DejaVuSans-30"/>
      </g>
     </g>
    </g>
   </g>
   <g id="matplotlib.axis_2">
    <g id="ytick_1">
     <g id="line2d_10">
      <defs>
       <path d="M 0 0 
L -3.5 0 
" id="mff27afd39c" style="stroke:#000000;stroke-width:0.8;"/>
      </defs>
      <g>
       <use style="stroke:#000000;stroke-width:0.8;" x="57.6" xlink:href="#mff27afd39c" y="295.488"/>
      </g>
     </g>
     <g id="text_10">
      <!-- 0.00 -->
      <g transform="translate(28.334375 299.287219)scale(0.1 -0.1)">
       <use xlink:href="#DejaVuSans-30"/>
       <use x="63.623047" xlink:href="#DejaVuSans-2e"/>
       <use x="95.410156" xlink:href="#DejaVuSans-30"/>
       <use x="159.033203" xlink:href="#DejaVuSans-30"/>
      </g>
     </g>
    </g>
    <g id="ytick_2">
     <g id="line2d_11">
      <g>
       <use style="stroke:#000000;stroke-width:0.8;" x="57.6" xlink:href="#mff27afd39c" y="241.479687"/>
      </g>
     </g>
     <g id="text_11">
      <!-- 0.05 -->
      <g transform="translate(28.334375 245.278906)scale(0.1 -0.1)">
       <use xlink:href="#DejaVuSans-30"/>
       <use x="63.623047" xlink:href="#DejaVuSans-2e"/>
       <use x="95.410156" xlink:href="#DejaVuSans-30"/>
       <use x="159.033203" xlink:href="#DejaVuSans-35"/>
      </g>
     </g>
    </g>
    <g id="ytick_3">
     <g id="line2d_12">
      <g>
       <use style="stroke:#000000;stroke-width:0.8;" x="57.6" xlink:href="#mff27afd39c" y="187.471374"/>
      </g>
     </g>
     <g id="text_12">
      <!-- 0.10 -->
      <g transform="translate(28.334375 191.270593)scale(0.1 -0.1)">
       <use xlink:href="#DejaVuSans-30"/>
       <use x="63.623047" xlink:href="#DejaVuSans-2e"/>
       <use x="95.410156" xlink:href="#DejaVuSans-31"/>
       <use x="159.033203" xlink:href="#DejaVuSans-30"/>
      </g>
     </g>
    </g>
    <g id="ytick_4">
     <g id="line2d_13">
      <g>
       <use style="stroke:#000000;stroke-width:0.8;" x="57.6" xlink:href="#mff27afd39c" y="133.463061"/>
      </g>
     </g>
     <g id="text_13">
      <!-- 0.15 -->
      <g transform="translate(28.334375 137.26228)scale(0.1 -0.1)">
       <use xlink:href="#DejaVuSans-30"/>
       <use x="63.623047" xlink:href="#DejaVuSans-2e"/>
       <use x="95.410156" xlink:href="#DejaVuSans-31"/>
       <use x="159.033203" xlink:href="#DejaVuSans-35"/>
      </g>
     </g>
    </g>
    <g id="ytick_5">
     <g id="line2d_14">
      <g>
       <use style="stroke:#000000;stroke-width:0.8;" x="57.6" xlink:href="#mff27afd39c" y="79.454748"/>
      </g>
     </g>
     <g id="text_14">
      <!-- 0.20 -->
      <g transform="translate(28.334375 83.253967)scale(0.1 -0.1)">
       <use xlink:href="#DejaVuSans-30"/>
       <use x="63.623047" xlink:href="#DejaVuSans-2e"/>
       <use x="95.410156" xlink:href="#DejaVuSans-32"/>
       <use x="159.033203" xlink:href="#DejaVuSans-30"/>
      </g>
     </g>
    </g>
   </g>
   <g id="line2d_15">
    <path clip-path="url(#p74de063b09)" d="M 73.832727 293.211523 
L 74.884751 293.448125 
L 75.936775 292.941121 
L 78.251227 293.346724 
L 79.303251 292.73832 
L 80.56568 293.076322 
L 81.617703 293.481925 
L 82.669727 293.583326 
L 83.511346 293.414324 
L 84.56337 293.549525 
L 85.615394 293.887527 
L 87.719441 293.988928 
L 88.771465 294.25933 
L 89.823489 294.394531 
L 91.085918 294.36073 
L 92.137941 294.529732 
L 97.608465 294.664932 
L 103.078989 294.32693 
L 104.131013 293.786127 
L 107.287084 293.988928 
L 108.549513 293.279124 
L 109.391132 293.042522 
L 110.443156 293.448125 
L 111.495179 293.414324 
L 112.547203 292.70452 
L 113.809632 291.994715 
L 115.913679 292.974922 
L 116.965703 292.535519 
L 118.017727 291.521512 
L 120.332179 292.805921 
L 121.594608 292.839721 
L 122.646632 292.265117 
L 123.698656 291.386312 
L 124.540275 291.893315 
L 125.592298 292.77212 
L 126.433917 293.177723 
L 127.275536 293.076322 
L 128.32756 292.63692 
L 129.379584 293.110123 
L 131.694036 293.988928 
L 135.060513 294.090329 
L 136.112536 294.529732 
L 139.268608 294.766333 
L 141.162251 294.800133 
L 143.476703 294.732533 
L 144.528727 294.428331 
L 145.580751 293.887527 
L 146.843179 293.549525 
L 148.947227 293.414324 
L 149.999251 293.177723 
L 151.051274 292.70452 
L 152.313703 291.318711 
L 153.365727 289.932902 
L 154.417751 289.6287 
L 155.469774 290.237104 
L 156.732203 290.439906 
L 157.784227 290.169504 
L 158.836251 289.6287 
L 159.888274 287.837289 
L 160.940298 285.741676 
L 161.992322 285.167072 
L 163.25475 285.809276 
L 164.306774 287.465487 
L 165.148393 288.073891 
L 166.200417 288.513293 
L 167.252441 288.580894 
L 168.304465 287.904889 
L 169.356489 286.45148 
L 170.408512 285.471274 
L 171.460536 285.741676 
L 172.51256 286.890883 
L 173.564584 288.851295 
L 175.458227 290.946909 
L 178.614298 292.400318 
L 179.666322 292.63692 
L 183.664012 294.22553 
L 185.76806 294.698733 
L 188.082512 294.32693 
L 190.18656 293.042522 
L 191.238584 292.129916 
L 193.553036 289.054097 
L 194.815465 286.789482 
L 196.077893 284.119265 
L 198.181941 274.553805 
L 199.444369 269.686574 
L 201.758822 255.01728 
L 202.810845 245.925023 
L 204.073274 237.914372 
L 206.387726 221.791669 
L 207.650155 213.98382 
L 209.964607 196.77951 
L 211.227036 189.512464 
L 212.27906 185.287437 
L 213.331083 177.614788 
L 214.593512 170.719545 
L 215.855941 167.508524 
L 217.118369 160.54568 
L 218.170393 149.797212 
L 219.432822 142.293564 
L 220.69525 138.54174 
L 221.747274 125.021654 
L 222.799298 118.870015 
L 227.849012 83.751592 
L 228.901036 78.140756 
L 230.163464 75.842342 
L 231.215488 66.310681 
L 232.267512 53.568 
L 233.319536 62.491257 
L 234.37156 62.592657 
L 235.633988 74.152331 
L 236.896417 81.148975 
L 237.94844 93.790256 
L 240.262893 125.663858 
L 241.314917 138.237538 
L 242.36694 153.413835 
L 243.418964 161.593487 
L 244.470988 171.733551 
L 245.523012 179.135798 
L 246.78544 185.118436 
L 247.627059 188.126655 
L 250.151917 188.261856 
L 251.414345 181.400413 
L 252.466369 176.397981 
L 253.728798 176.533182 
L 254.780821 180.149805 
L 255.832845 193.162887 
L 258.357702 226.861701 
L 259.620131 243.491407 
L 260.672155 251.197856 
L 261.934583 256.098887 
L 262.776202 260.222514 
L 263.828226 262.960331 
L 265.932274 263.872937 
L 267.194702 265.867149 
L 268.246726 269.314771 
L 270.561178 281.922251 
L 271.613202 286.755682 
L 272.665226 289.392099 
L 273.71725 291.318711 
L 278.346154 294.22553 
L 279.398178 295.002935 
L 280.450202 295.205736 
L 281.712631 295.138135 
L 283.816678 294.495931 
L 284.868702 293.752327 
L 286.131131 292.70452 
L 287.393559 291.859515 
L 289.708012 291.758114 
L 290.760035 291.048309 
L 292.022464 289.4935 
L 292.864083 287.499287 
L 293.916107 286.147278 
L 294.757726 286.012077 
L 296.651369 288.209091 
L 297.282583 288.276692 
L 298.334607 286.857083 
L 299.386631 284.186866 
L 300.438654 283.34186 
L 301.280273 284.592468 
L 302.332297 286.958483 
L 303.173916 288.04009 
L 304.015535 288.242892 
L 306.119583 285.302273 
L 306.961202 285.944477 
L 308.013226 289.392099 
L 309.06525 290.169504 
L 310.117273 289.4935 
L 311.169297 288.614694 
L 312.221321 290.034303 
L 313.273345 291.825714 
L 314.535773 292.70452 
L 315.377392 292.400318 
L 316.429416 292.400318 
L 317.691845 293.549525 
L 318.533464 294.124129 
L 320.637511 294.495931 
L 321.89994 294.698733 
L 322.951964 295.070535 
L 325.266416 295.171936 
L 328.422487 295.104335 
L 331.788964 294.29313 
L 332.840987 294.36073 
L 334.945035 293.887527 
L 336.838678 293.076322 
L 337.890702 293.380524 
L 338.732321 293.008722 
L 339.784345 291.825714 
L 341.677987 292.805921 
L 342.519606 292.197517 
L 343.57163 290.811708 
L 344.623654 292.434118 
L 345.886083 292.163717 
L 346.938106 291.217311 
L 348.200535 291.014509 
L 349.252559 292.63692 
L 350.725392 291.893315 
L 351.987821 291.521512 
L 353.250249 293.076322 
L 354.512678 292.467918 
L 355.775106 292.231317 
L 357.037535 293.414324 
L 359.351987 292.941121 
L 360.614416 294.056529 
L 361.876844 294.124129 
L 363.139273 294.022728 
L 365.032916 294.597332 
L 367.136963 294.698733 
L 368.399392 295.002935 
L 369.661821 294.969134 
L 371.976273 295.104335 
L 375.763559 295.002935 
L 378.288416 294.698733 
L 379.550844 294.698733 
L 380.813273 294.29313 
L 382.075701 294.495931 
L 383.33813 294.157929 
L 384.600559 294.056529 
L 385.862987 294.191729 
L 387.125416 293.448125 
L 388.387844 293.752327 
L 389.650273 293.650926 
L 390.912701 293.143923 
L 392.17513 293.718526 
L 393.437558 293.143923 
L 394.489582 293.515725 
L 395.962416 293.481925 
L 397.014439 292.941121 
L 398.487273 293.819927 
L 398.487273 293.819927 
" style="fill:none;stroke:#1f77b4;stroke-linecap:square;stroke-width:1.5;"/>
   </g>
   <g id="line2d_16">
    <path clip-path="url(#p74de063b09)" d="M 73.832727 293.884744 
L 78.057461 294.245012 
L 90.081704 295.453206 
L 93.331499 295.466824 
L 96.581294 295.251394 
L 99.831089 294.815144 
L 104.055823 294.007065 
L 111.530352 292.540871 
L 114.455168 292.201144 
L 117.379984 292.094968 
L 119.97982 292.220397 
L 122.904636 292.600845 
L 126.154431 293.261202 
L 134.928878 295.211953 
L 137.528714 295.465882 
L 139.803571 295.446942 
L 141.753448 295.223409 
L 143.703325 294.797637 
L 145.978182 294.049563 
L 148.253038 293.057621 
L 151.177854 291.510318 
L 158.652383 287.370448 
L 160.60226 286.580071 
L 162.552138 286.033963 
L 164.177035 285.801843 
L 165.801933 285.794978 
L 167.42683 286.024885 
L 169.051728 286.492347 
L 170.676626 287.186195 
L 172.626503 288.28293 
L 174.90136 289.839366 
L 180.750991 294.038695 
L 182.375889 294.873462 
L 183.675807 295.311383 
L 184.975725 295.48691 
L 185.950663 295.413906 
L 186.925602 295.140458 
L 187.900541 294.644569 
L 188.875479 293.905007 
L 189.850418 292.901575 
L 190.825356 291.615367 
L 191.800295 290.029029 
L 193.100213 287.420448 
L 194.400131 284.219756 
L 195.700049 280.403195 
L 196.999967 275.955212 
L 198.624865 269.498091 
L 200.249762 262.052751 
L 201.87466 253.65163 
L 203.824537 242.391265 
L 206.099394 227.818941 
L 208.69923 209.667808 
L 212.923964 178.318509 
L 217.148698 147.463358 
L 219.423554 132.262393 
L 221.373432 120.542904 
L 222.998329 111.935465 
L 224.623227 104.551687 
L 225.923145 99.619145 
L 227.223063 95.617996 
L 228.198002 93.258034 
L 229.17294 91.465771 
L 230.147879 90.253549 
L 230.797838 89.771944 
L 231.447797 89.553416 
L 232.097756 89.598637 
L 232.747715 89.907468 
L 233.397674 90.47896 
L 234.047633 91.311357 
L 235.022572 93.043349 
L 235.99751 95.344515 
L 236.972449 98.199047 
L 238.272367 102.831592 
L 239.572285 108.356703 
L 241.197183 116.416293 
L 242.82208 125.616652 
L 244.771957 137.924916 
L 247.371794 155.961364 
L 251.596527 187.302432 
L 255.821261 218.195658 
L 258.421097 235.668344 
L 260.695954 249.454398 
L 262.645831 259.935015 
L 264.270729 267.635762 
L 265.895627 274.354418 
L 267.520524 280.076621 
L 268.820442 283.942356 
L 270.12036 287.190692 
L 271.420278 289.844772 
L 272.720197 291.935179 
L 273.695135 293.15517 
L 274.670074 294.09658 
L 275.645012 294.77863 
L 276.619951 295.221779 
L 277.594889 295.447454 
L 278.569828 295.477795 
L 279.869746 295.253458 
L 281.169664 294.775969 
L 282.794562 293.904501 
L 284.744439 292.588823 
L 291.244029 287.948797 
L 293.193907 286.928199 
L 294.818804 286.308643 
L 296.443702 285.920636 
L 298.0686 285.771201 
L 299.693497 285.855785 
L 301.318395 286.159579 
L 303.268272 286.779904 
L 305.543129 287.787575 
L 308.467944 289.375732 
L 314.967535 293.008091 
L 317.242391 294.009945 
L 319.517248 294.769743 
L 321.467125 295.206154 
L 323.417002 295.440141 
L 325.691859 295.470226 
L 327.966716 295.271111 
L 330.566552 294.826405 
L 334.791286 293.835437 
L 339.665979 292.734786 
L 342.590794 292.295169 
L 345.190631 292.109705 
L 347.790467 292.132591 
L 350.715283 292.391818 
L 353.965078 292.909879 
L 360.139689 294.188469 
L 364.364423 294.951835 
L 367.614218 295.332065 
L 370.864013 295.484993 
L 374.113808 295.413873 
L 378.013563 295.094161 
L 391.012744 293.812318 
L 394.912498 293.789714 
L 398.487273 293.965985 
L 398.487273 293.965985 
" style="fill:none;stroke:#ff7f0e;stroke-linecap:square;stroke-width:1.5;"/>
   </g>
   <g id="patch_3">
    <path d="M 57.6 307.584 
L 57.6 41.472 
" style="fill:none;stroke:#000000;stroke-linecap:square;stroke-linejoin:miter;stroke-width:0.8;"/>
   </g>
   <g id="patch_4">
    <path d="M 414.72 307.584 
L 414.72 41.472 
" style="fill:none;stroke:#000000;stroke-linecap:square;stroke-linejoin:miter;stroke-width:0.8;"/>
   </g>
   <g id="patch_5">
    <path d="M 57.6 307.584 
L 414.72 307.584 
" style="fill:none;stroke:#000000;stroke-linecap:square;stroke-linejoin:miter;stroke-width:0.8;"/>
   </g>
   <g id="patch_6">
    <path d="M 57.6 41.472 
L 414.72 41.472 
" style="fill:none;stroke:#000000;stroke-linecap:square;stroke-linejoin:miter;stroke-width:0.8;"/>
   </g>
   <g id="legend_1">
    <g id="patch_7">
     <path d="M 321.812188 78.82825 
L 407.72 78.82825 
Q 409.72 78.82825 409.72 76.82825 
L 409.72 48.472 
Q 409.72 46.472 407.72 46.472 
L 321.812188 46.472 
Q 319.812188 46.472 319.812188 48.472 
L 319.812188 76.82825 
Q 319.812188 78.82825 321.812188 78.82825 
z
" style="fill:#ffffff;opacity:0.8;stroke:#cccccc;stroke-linejoin:miter;"/>
    </g>
    <g id="line2d_17">
     <path d="M 323.812188 54.570437 
L 343.812188 54.570437 
" style="fill:none;stroke:#1f77b4;stroke-linecap:square;stroke-width:1.5;"/>
    </g>
    <g id="line2d_18"/>
    <g id="text_15">
     <!-- .02exp2 -->
     <g transform="translate(351.812188 58.070437)scale(0.1 -0.1)">
      <defs>
       <path d="M 3597 1894 
L 3597 1613 
L 953 1613 
Q 991 1019 1311 708 
Q 1631 397 2203 397 
Q 2534 397 2845 478 
Q 3156 559 3463 722 
L 3463 178 
Q 3153 47 2828 -22 
Q 2503 -91 2169 -91 
Q 1331 -91 842 396 
Q 353 884 353 1716 
Q 353 2575 817 3079 
Q 1281 3584 2069 3584 
Q 2775 3584 3186 3129 
Q 3597 2675 3597 1894 
z
M 3022 2063 
Q 3016 2534 2758 2815 
Q 2500 3097 2075 3097 
Q 1594 3097 1305 2825 
Q 1016 2553 972 2059 
L 3022 2063 
z
" id="DejaVuSans-65" transform="scale(0.015625)"/>
       <path d="M 3513 3500 
L 2247 1797 
L 3578 0 
L 2900 0 
L 1881 1375 
L 863 0 
L 184 0 
L 1544 1831 
L 300 3500 
L 978 3500 
L 1906 2253 
L 2834 3500 
L 3513 3500 
z
" id="DejaVuSans-78" transform="scale(0.015625)"/>
       <path d="M 1159 525 
L 1159 -1331 
L 581 -1331 
L 581 3500 
L 1159 3500 
L 1159 2969 
Q 1341 3281 1617 3432 
Q 1894 3584 2278 3584 
Q 2916 3584 3314 3078 
Q 3713 2572 3713 1747 
Q 3713 922 3314 415 
Q 2916 -91 2278 -91 
Q 1894 -91 1617 61 
Q 1341 213 1159 525 
z
M 3116 1747 
Q 3116 2381 2855 2742 
Q 2594 3103 2138 3103 
Q 1681 3103 1420 2742 
Q 1159 2381 1159 1747 
Q 1159 1113 1420 752 
Q 1681 391 2138 391 
Q 2594 391 2855 752 
Q 3116 1113 3116 1747 
z
" id="DejaVuSans-70" transform="scale(0.015625)"/>
      </defs>
      <use xlink:href="#DejaVuSans-2e"/>
      <use x="31.787109" xlink:href="#DejaVuSans-30"/>
      <use x="95.410156" xlink:href="#DejaVuSans-32"/>
      <use x="159.033203" xlink:href="#DejaVuSans-65"/>
      <use x="218.806641" xlink:href="#DejaVuSans-78"/>
      <use x="277.986328" xlink:href="#DejaVuSans-70"/>
      <use x="341.462891" xlink:href="#DejaVuSans-32"/>
     </g>
    </g>
    <g id="line2d_19">
     <path d="M 323.812188 69.248562 
L 343.812188 69.248562 
" style="fill:none;stroke:#ff7f0e;stroke-linecap:square;stroke-width:1.5;"/>
    </g>
    <g id="line2d_20"/>
    <g id="text_16">
     <!-- .02exp2 fit -->
     <g transform="translate(351.812188 72.748562)scale(0.1 -0.1)">
      <defs>
       <path id="DejaVuSans-20" transform="scale(0.015625)"/>
       <path d="M 2375 4863 
L 2375 4384 
L 1825 4384 
Q 1516 4384 1395 4259 
Q 1275 4134 1275 3809 
L 1275 3500 
L 2222 3500 
L 2222 3053 
L 1275 3053 
L 1275 0 
L 697 0 
L 697 3053 
L 147 3053 
L 147 3500 
L 697 3500 
L 697 3744 
Q 697 4328 969 4595 
Q 1241 4863 1831 4863 
L 2375 4863 
z
" id="DejaVuSans-66" transform="scale(0.015625)"/>
       <path d="M 603 3500 
L 1178 3500 
L 1178 0 
L 603 0 
L 603 3500 
z
M 603 4863 
L 1178 4863 
L 1178 4134 
L 603 4134 
L 603 4863 
z
" id="DejaVuSans-69" transform="scale(0.015625)"/>
       <path d="M 1172 4494 
L 1172 3500 
L 2356 3500 
L 2356 3053 
L 1172 3053 
L 1172 1153 
Q 1172 725 1289 603 
Q 1406 481 1766 481 
L 2356 481 
L 2356 0 
L 1766 0 
Q 1100 0 847 248 
Q 594 497 594 1153 
L 594 3053 
L 172 3053 
L 172 3500 
L 594 3500 
L 594 4494 
L 1172 4494 
z
" id="DejaVuSans-74" transform="scale(0.015625)"/>
      </defs>
      <use xlink:href="#DejaVuSans-2e"/>
      <use x="31.787109" xlink:href="#DejaVuSans-30"/>
      <use x="95.410156" xlink:href="#DejaVuSans-32"/>
      <use x="159.033203" xlink:href="#DejaVuSans-65"/>
      <use x="218.806641" xlink:href="#DejaVuSans-78"/>
      <use x="277.986328" xlink:href="#DejaVuSans-70"/>
      <use x="341.462891" xlink:href="#DejaVuSans-32"/>
      <use x="405.085938" xlink:href="#DejaVuSans-20"/>
      <use x="436.873047" xlink:href="#DejaVuSans-66"/>
      <use x="472.078125" xlink:href="#DejaVuSans-69"/>
      <use x="499.861328" xlink:href="#DejaVuSans-74"/>
     </g>
    </g>
   </g>
  </g>
 </g>
 <defs>
  <clipPath id="p74de063b09">
   <rect height="266.112" width="357.12" x="57.6" y="41.472"/>
  </clipPath>
 </defs>
</svg>
