<?xml version="1.0" encoding="utf-8" standalone="no"?>
<!DOCTYPE svg PUBLIC "-//W3C//DTD SVG 1.1//EN"
  "http://www.w3.org/Graphics/SVG/1.1/DTD/svg11.dtd">
<svg height="345.6pt" version="1.1" viewBox="0 0 460.8 345.6" width="460.8pt" xmlns="http://www.w3.org/2000/svg" xmlns:xlink="http://www.w3.org/1999/xlink">
 <metadata>
  <rdf:RDF xmlns:cc="http://creativecommons.org/ns#" xmlns:dc="http://purl.org/dc/elements/1.1/" xmlns:rdf="http://www.w3.org/1999/02/22-rdf-syntax-ns#">
   <cc:Work>
    <dc:type rdf:resource="http://purl.org/dc/dcmitype/StillImage"/>
    <dc:date>2021-05-03T09:09:02.122458</dc:date>
    <dc:format>image/svg+xml</dc:format>
    <dc:creator>
     <cc:Agent>
      <dc:title>Matplotlib v3.4.1, https://matplotlib.org/</dc:title>
     </cc:Agent>
    </dc:creator>
   </cc:Work>
  </rdf:RDF>
 </metadata>
 <defs>
  <style type="text/css">*{stroke-linecap:butt;stroke-linejoin:round;}</style>
 </defs>
 <g id="figure_1">
  <g id="patch_1">
   <path d="M 0 345.6 
L 460.8 345.6 
L 460.8 0 
L 0 0 
z
" style="fill:#ffffff;"/>
  </g>
  <g id="axes_1">
   <g id="patch_2">
    <path d="M 57.6 307.584 
L 414.72 307.584 
L 414.72 41.472 
L 57.6 41.472 
z
" style="fill:#ffffff;"/>
   </g>
   <g id="matplotlib.axis_1">
    <g id="xtick_1">
     <g id="line2d_1">
      <defs>
       <path d="M 0 0 
L 0 3.5 
" id="mc10e41adc8" style="stroke:#000000;stroke-width:0.8;"/>
      </defs>
      <g>
       <use style="stroke:#000000;stroke-width:0.8;" x="87.370762" xlink:href="#mc10e41adc8" y="307.584"/>
      </g>
     </g>
     <g id="text_1">
      <!-- −0.8 -->
      <g transform="translate(75.229356 322.182437)scale(0.1 -0.1)">
       <defs>
        <path d="M 678 2272 
L 4684 2272 
L 4684 1741 
L 678 1741 
L 678 2272 
z
" id="DejaVuSans-2212" transform="scale(0.015625)"/>
        <path d="M 2034 4250 
Q 1547 4250 1301 3770 
Q 1056 3291 1056 2328 
Q 1056 1369 1301 889 
Q 1547 409 2034 409 
Q 2525 409 2770 889 
Q 3016 1369 3016 2328 
Q 3016 3291 2770 3770 
Q 2525 4250 2034 4250 
z
M 2034 4750 
Q 2819 4750 3233 4129 
Q 3647 3509 3647 2328 
Q 3647 1150 3233 529 
Q 2819 -91 2034 -91 
Q 1250 -91 836 529 
Q 422 1150 422 2328 
Q 422 3509 836 4129 
Q 1250 4750 2034 4750 
z
" id="DejaVuSans-30" transform="scale(0.015625)"/>
        <path d="M 684 794 
L 1344 794 
L 1344 0 
L 684 0 
L 684 794 
z
" id="DejaVuSans-2e" transform="scale(0.015625)"/>
        <path d="M 2034 2216 
Q 1584 2216 1326 1975 
Q 1069 1734 1069 1313 
Q 1069 891 1326 650 
Q 1584 409 2034 409 
Q 2484 409 2743 651 
Q 3003 894 3003 1313 
Q 3003 1734 2745 1975 
Q 2488 2216 2034 2216 
z
M 1403 2484 
Q 997 2584 770 2862 
Q 544 3141 544 3541 
Q 544 4100 942 4425 
Q 1341 4750 2034 4750 
Q 2731 4750 3128 4425 
Q 3525 4100 3525 3541 
Q 3525 3141 3298 2862 
Q 3072 2584 2669 2484 
Q 3125 2378 3379 2068 
Q 3634 1759 3634 1313 
Q 3634 634 3220 271 
Q 2806 -91 2034 -91 
Q 1263 -91 848 271 
Q 434 634 434 1313 
Q 434 1759 690 2068 
Q 947 2378 1403 2484 
z
M 1172 3481 
Q 1172 3119 1398 2916 
Q 1625 2713 2034 2713 
Q 2441 2713 2670 2916 
Q 2900 3119 2900 3481 
Q 2900 3844 2670 4047 
Q 2441 4250 2034 4250 
Q 1625 4250 1398 4047 
Q 1172 3844 1172 3481 
z
" id="DejaVuSans-38" transform="scale(0.015625)"/>
       </defs>
       <use xlink:href="#DejaVuSans-2212"/>
       <use x="83.789062" xlink:href="#DejaVuSans-30"/>
       <use x="147.412109" xlink:href="#DejaVuSans-2e"/>
       <use x="179.199219" xlink:href="#DejaVuSans-38"/>
      </g>
     </g>
    </g>
    <g id="xtick_2">
     <g id="line2d_2">
      <g>
       <use style="stroke:#000000;stroke-width:0.8;" x="131.074617" xlink:href="#mc10e41adc8" y="307.584"/>
      </g>
     </g>
     <g id="text_2">
      <!-- −0.6 -->
      <g transform="translate(118.93321 322.182437)scale(0.1 -0.1)">
       <defs>
        <path d="M 2113 2584 
Q 1688 2584 1439 2293 
Q 1191 2003 1191 1497 
Q 1191 994 1439 701 
Q 1688 409 2113 409 
Q 2538 409 2786 701 
Q 3034 994 3034 1497 
Q 3034 2003 2786 2293 
Q 2538 2584 2113 2584 
z
M 3366 4563 
L 3366 3988 
Q 3128 4100 2886 4159 
Q 2644 4219 2406 4219 
Q 1781 4219 1451 3797 
Q 1122 3375 1075 2522 
Q 1259 2794 1537 2939 
Q 1816 3084 2150 3084 
Q 2853 3084 3261 2657 
Q 3669 2231 3669 1497 
Q 3669 778 3244 343 
Q 2819 -91 2113 -91 
Q 1303 -91 875 529 
Q 447 1150 447 2328 
Q 447 3434 972 4092 
Q 1497 4750 2381 4750 
Q 2619 4750 2861 4703 
Q 3103 4656 3366 4563 
z
" id="DejaVuSans-36" transform="scale(0.015625)"/>
       </defs>
       <use xlink:href="#DejaVuSans-2212"/>
       <use x="83.789062" xlink:href="#DejaVuSans-30"/>
       <use x="147.412109" xlink:href="#DejaVuSans-2e"/>
       <use x="179.199219" xlink:href="#DejaVuSans-36"/>
      </g>
     </g>
    </g>
    <g id="xtick_3">
     <g id="line2d_3">
      <g>
       <use style="stroke:#000000;stroke-width:0.8;" x="174.778471" xlink:href="#mc10e41adc8" y="307.584"/>
      </g>
     </g>
     <g id="text_3">
      <!-- −0.4 -->
      <g transform="translate(162.637064 322.182437)scale(0.1 -0.1)">
       <defs>
        <path d="M 2419 4116 
L 825 1625 
L 2419 1625 
L 2419 4116 
z
M 2253 4666 
L 3047 4666 
L 3047 1625 
L 3713 1625 
L 3713 1100 
L 3047 1100 
L 3047 0 
L 2419 0 
L 2419 1100 
L 313 1100 
L 313 1709 
L 2253 4666 
z
" id="DejaVuSans-34" transform="scale(0.015625)"/>
       </defs>
       <use xlink:href="#DejaVuSans-2212"/>
       <use x="83.789062" xlink:href="#DejaVuSans-30"/>
       <use x="147.412109" xlink:href="#DejaVuSans-2e"/>
       <use x="179.199219" xlink:href="#DejaVuSans-34"/>
      </g>
     </g>
    </g>
    <g id="xtick_4">
     <g id="line2d_4">
      <g>
       <use style="stroke:#000000;stroke-width:0.8;" x="218.482325" xlink:href="#mc10e41adc8" y="307.584"/>
      </g>
     </g>
     <g id="text_4">
      <!-- −0.2 -->
      <g transform="translate(206.340919 322.182437)scale(0.1 -0.1)">
       <defs>
        <path d="M 1228 531 
L 3431 531 
L 3431 0 
L 469 0 
L 469 531 
Q 828 903 1448 1529 
Q 2069 2156 2228 2338 
Q 2531 2678 2651 2914 
Q 2772 3150 2772 3378 
Q 2772 3750 2511 3984 
Q 2250 4219 1831 4219 
Q 1534 4219 1204 4116 
Q 875 4013 500 3803 
L 500 4441 
Q 881 4594 1212 4672 
Q 1544 4750 1819 4750 
Q 2544 4750 2975 4387 
Q 3406 4025 3406 3419 
Q 3406 3131 3298 2873 
Q 3191 2616 2906 2266 
Q 2828 2175 2409 1742 
Q 1991 1309 1228 531 
z
" id="DejaVuSans-32" transform="scale(0.015625)"/>
       </defs>
       <use xlink:href="#DejaVuSans-2212"/>
       <use x="83.789062" xlink:href="#DejaVuSans-30"/>
       <use x="147.412109" xlink:href="#DejaVuSans-2e"/>
       <use x="179.199219" xlink:href="#DejaVuSans-32"/>
      </g>
     </g>
    </g>
    <g id="xtick_5">
     <g id="line2d_5">
      <g>
       <use style="stroke:#000000;stroke-width:0.8;" x="262.186179" xlink:href="#mc10e41adc8" y="307.584"/>
      </g>
     </g>
     <g id="text_5">
      <!-- 0.0 -->
      <g transform="translate(254.234617 322.182437)scale(0.1 -0.1)">
       <use xlink:href="#DejaVuSans-30"/>
       <use x="63.623047" xlink:href="#DejaVuSans-2e"/>
       <use x="95.410156" xlink:href="#DejaVuSans-30"/>
      </g>
     </g>
    </g>
    <g id="xtick_6">
     <g id="line2d_6">
      <g>
       <use style="stroke:#000000;stroke-width:0.8;" x="305.890033" xlink:href="#mc10e41adc8" y="307.584"/>
      </g>
     </g>
     <g id="text_6">
      <!-- 0.2 -->
      <g transform="translate(297.938471 322.182437)scale(0.1 -0.1)">
       <use xlink:href="#DejaVuSans-30"/>
       <use x="63.623047" xlink:href="#DejaVuSans-2e"/>
       <use x="95.410156" xlink:href="#DejaVuSans-32"/>
      </g>
     </g>
    </g>
    <g id="xtick_7">
     <g id="line2d_7">
      <g>
       <use style="stroke:#000000;stroke-width:0.8;" x="349.593887" xlink:href="#mc10e41adc8" y="307.584"/>
      </g>
     </g>
     <g id="text_7">
      <!-- 0.4 -->
      <g transform="translate(341.642325 322.182437)scale(0.1 -0.1)">
       <use xlink:href="#DejaVuSans-30"/>
       <use x="63.623047" xlink:href="#DejaVuSans-2e"/>
       <use x="95.410156" xlink:href="#DejaVuSans-34"/>
      </g>
     </g>
    </g>
    <g id="xtick_8">
     <g id="line2d_8">
      <g>
       <use style="stroke:#000000;stroke-width:0.8;" x="393.297741" xlink:href="#mc10e41adc8" y="307.584"/>
      </g>
     </g>
     <g id="text_8">
      <!-- 0.6 -->
      <g transform="translate(385.346179 322.182437)scale(0.1 -0.1)">
       <use xlink:href="#DejaVuSans-30"/>
       <use x="63.623047" xlink:href="#DejaVuSans-2e"/>
       <use x="95.410156" xlink:href="#DejaVuSans-36"/>
      </g>
     </g>
    </g>
   </g>
   <g id="matplotlib.axis_2">
    <g id="ytick_1">
     <g id="line2d_9">
      <defs>
       <path d="M 0 0 
L -3.5 0 
" id="m3a56af922a" style="stroke:#000000;stroke-width:0.8;"/>
      </defs>
      <g>
       <use style="stroke:#000000;stroke-width:0.8;" x="57.6" xlink:href="#m3a56af922a" y="295.488"/>
      </g>
     </g>
     <g id="text_9">
      <!-- 0.00 -->
      <g transform="translate(28.334375 299.287219)scale(0.1 -0.1)">
       <use xlink:href="#DejaVuSans-30"/>
       <use x="63.623047" xlink:href="#DejaVuSans-2e"/>
       <use x="95.410156" xlink:href="#DejaVuSans-30"/>
       <use x="159.033203" xlink:href="#DejaVuSans-30"/>
      </g>
     </g>
    </g>
    <g id="ytick_2">
     <g id="line2d_10">
      <g>
       <use style="stroke:#000000;stroke-width:0.8;" x="57.6" xlink:href="#m3a56af922a" y="265.814279"/>
      </g>
     </g>
     <g id="text_10">
      <!-- 0.01 -->
      <g transform="translate(28.334375 269.613497)scale(0.1 -0.1)">
       <defs>
        <path d="M 794 531 
L 1825 531 
L 1825 4091 
L 703 3866 
L 703 4441 
L 1819 4666 
L 2450 4666 
L 2450 531 
L 3481 531 
L 3481 0 
L 794 0 
L 794 531 
z
" id="DejaVuSans-31" transform="scale(0.015625)"/>
       </defs>
       <use xlink:href="#DejaVuSans-30"/>
       <use x="63.623047" xlink:href="#DejaVuSans-2e"/>
       <use x="95.410156" xlink:href="#DejaVuSans-30"/>
       <use x="159.033203" xlink:href="#DejaVuSans-31"/>
      </g>
     </g>
    </g>
    <g id="ytick_3">
     <g id="line2d_11">
      <g>
       <use style="stroke:#000000;stroke-width:0.8;" x="57.6" xlink:href="#m3a56af922a" y="236.140557"/>
      </g>
     </g>
     <g id="text_11">
      <!-- 0.02 -->
      <g transform="translate(28.334375 239.939775)scale(0.1 -0.1)">
       <use xlink:href="#DejaVuSans-30"/>
       <use x="63.623047" xlink:href="#DejaVuSans-2e"/>
       <use x="95.410156" xlink:href="#DejaVuSans-30"/>
       <use x="159.033203" xlink:href="#DejaVuSans-32"/>
      </g>
     </g>
    </g>
    <g id="ytick_4">
     <g id="line2d_12">
      <g>
       <use style="stroke:#000000;stroke-width:0.8;" x="57.6" xlink:href="#m3a56af922a" y="206.466835"/>
      </g>
     </g>
     <g id="text_12">
      <!-- 0.03 -->
      <g transform="translate(28.334375 210.266054)scale(0.1 -0.1)">
       <defs>
        <path d="M 2597 2516 
Q 3050 2419 3304 2112 
Q 3559 1806 3559 1356 
Q 3559 666 3084 287 
Q 2609 -91 1734 -91 
Q 1441 -91 1130 -33 
Q 819 25 488 141 
L 488 750 
Q 750 597 1062 519 
Q 1375 441 1716 441 
Q 2309 441 2620 675 
Q 2931 909 2931 1356 
Q 2931 1769 2642 2001 
Q 2353 2234 1838 2234 
L 1294 2234 
L 1294 2753 
L 1863 2753 
Q 2328 2753 2575 2939 
Q 2822 3125 2822 3475 
Q 2822 3834 2567 4026 
Q 2313 4219 1838 4219 
Q 1578 4219 1281 4162 
Q 984 4106 628 3988 
L 628 4550 
Q 988 4650 1302 4700 
Q 1616 4750 1894 4750 
Q 2613 4750 3031 4423 
Q 3450 4097 3450 3541 
Q 3450 3153 3228 2886 
Q 3006 2619 2597 2516 
z
" id="DejaVuSans-33" transform="scale(0.015625)"/>
       </defs>
       <use xlink:href="#DejaVuSans-30"/>
       <use x="63.623047" xlink:href="#DejaVuSans-2e"/>
       <use x="95.410156" xlink:href="#DejaVuSans-30"/>
       <use x="159.033203" xlink:href="#DejaVuSans-33"/>
      </g>
     </g>
    </g>
    <g id="ytick_5">
     <g id="line2d_13">
      <g>
       <use style="stroke:#000000;stroke-width:0.8;" x="57.6" xlink:href="#m3a56af922a" y="176.793113"/>
      </g>
     </g>
     <g id="text_13">
      <!-- 0.04 -->
      <g transform="translate(28.334375 180.592332)scale(0.1 -0.1)">
       <use xlink:href="#DejaVuSans-30"/>
       <use x="63.623047" xlink:href="#DejaVuSans-2e"/>
       <use x="95.410156" xlink:href="#DejaVuSans-30"/>
       <use x="159.033203" xlink:href="#DejaVuSans-34"/>
      </g>
     </g>
    </g>
    <g id="ytick_6">
     <g id="line2d_14">
      <g>
       <use style="stroke:#000000;stroke-width:0.8;" x="57.6" xlink:href="#m3a56af922a" y="147.119391"/>
      </g>
     </g>
     <g id="text_14">
      <!-- 0.05 -->
      <g transform="translate(28.334375 150.91861)scale(0.1 -0.1)">
       <defs>
        <path d="M 691 4666 
L 3169 4666 
L 3169 4134 
L 1269 4134 
L 1269 2991 
Q 1406 3038 1543 3061 
Q 1681 3084 1819 3084 
Q 2600 3084 3056 2656 
Q 3513 2228 3513 1497 
Q 3513 744 3044 326 
Q 2575 -91 1722 -91 
Q 1428 -91 1123 -41 
Q 819 9 494 109 
L 494 744 
Q 775 591 1075 516 
Q 1375 441 1709 441 
Q 2250 441 2565 725 
Q 2881 1009 2881 1497 
Q 2881 1984 2565 2268 
Q 2250 2553 1709 2553 
Q 1456 2553 1204 2497 
Q 953 2441 691 2322 
L 691 4666 
z
" id="DejaVuSans-35" transform="scale(0.015625)"/>
       </defs>
       <use xlink:href="#DejaVuSans-30"/>
       <use x="63.623047" xlink:href="#DejaVuSans-2e"/>
       <use x="95.410156" xlink:href="#DejaVuSans-30"/>
       <use x="159.033203" xlink:href="#DejaVuSans-35"/>
      </g>
     </g>
    </g>
    <g id="ytick_7">
     <g id="line2d_15">
      <g>
       <use style="stroke:#000000;stroke-width:0.8;" x="57.6" xlink:href="#m3a56af922a" y="117.445669"/>
      </g>
     </g>
     <g id="text_15">
      <!-- 0.06 -->
      <g transform="translate(28.334375 121.244888)scale(0.1 -0.1)">
       <use xlink:href="#DejaVuSans-30"/>
       <use x="63.623047" xlink:href="#DejaVuSans-2e"/>
       <use x="95.410156" xlink:href="#DejaVuSans-30"/>
       <use x="159.033203" xlink:href="#DejaVuSans-36"/>
      </g>
     </g>
    </g>
    <g id="ytick_8">
     <g id="line2d_16">
      <g>
       <use style="stroke:#000000;stroke-width:0.8;" x="57.6" xlink:href="#m3a56af922a" y="87.771948"/>
      </g>
     </g>
     <g id="text_16">
      <!-- 0.07 -->
      <g transform="translate(28.334375 91.571166)scale(0.1 -0.1)">
       <defs>
        <path d="M 525 4666 
L 3525 4666 
L 3525 4397 
L 1831 0 
L 1172 0 
L 2766 4134 
L 525 4134 
L 525 4666 
z
" id="DejaVuSans-37" transform="scale(0.015625)"/>
       </defs>
       <use xlink:href="#DejaVuSans-30"/>
       <use x="63.623047" xlink:href="#DejaVuSans-2e"/>
       <use x="95.410156" xlink:href="#DejaVuSans-30"/>
       <use x="159.033203" xlink:href="#DejaVuSans-37"/>
      </g>
     </g>
    </g>
    <g id="ytick_9">
     <g id="line2d_17">
      <g>
       <use style="stroke:#000000;stroke-width:0.8;" x="57.6" xlink:href="#m3a56af922a" y="58.098226"/>
      </g>
     </g>
     <g id="text_17">
      <!-- 0.08 -->
      <g transform="translate(28.334375 61.897444)scale(0.1 -0.1)">
       <use xlink:href="#DejaVuSans-30"/>
       <use x="63.623047" xlink:href="#DejaVuSans-2e"/>
       <use x="95.410156" xlink:href="#DejaVuSans-30"/>
       <use x="159.033203" xlink:href="#DejaVuSans-38"/>
      </g>
     </g>
    </g>
   </g>
   <g id="line2d_18">
    <path clip-path="url(#pe8ddbb86a6)" d="M 74.114545 295.182709 
L 73.832727 295.182709 
L 76.369091 295.094227 
L 76.087273 295.094227 
L 76.932727 295.064733 
L 76.932727 295.094227 
L 83.696364 295.182709 
L 83.696364 295.182709 
L 83.414545 295.212203 
L 84.541818 295.182709 
L 84.541818 295.212203 
L 85.950909 295.153215 
L 85.950909 295.153215 
L 90.46 295.094227 
L 90.46 295.064733 
L 90.46 295.035239 
L 91.305455 295.035239 
L 91.305455 295.035239 
L 91.305455 295.005745 
L 94.123636 295.094227 
L 94.123636 295.123721 
L 94.123636 295.064733 
L 94.123636 295.094227 
L 94.969091 295.094227 
L 94.969091 295.094227 
L 95.814545 295.123721 
L 95.814545 295.094227 
L 98.350909 295.182709 
L 98.350909 295.212203 
L 98.350909 295.182709 
L 104.832727 295.094227 
L 104.832727 295.064733 
L 105.114545 295.123721 
L 105.114545 295.094227 
L 105.396364 295.035239 
L 105.396364 295.064733 
L 105.678182 295.094227 
L 105.678182 295.035239 
L 107.369091 294.946758 
L 109.341818 295.094227 
L 109.341818 295.094227 
L 110.187273 295.064733 
L 110.187273 295.094227 
L 113.005455 295.153215 
L 113.005455 295.182709 
L 113.005455 295.212203 
L 113.569091 295.153215 
L 113.569091 295.182709 
L 114.414545 295.212203 
L 114.414545 295.182709 
L 117.796364 295.094227 
L 117.796364 295.094227 
L 119.205455 295.005745 
L 119.205455 295.035239 
L 123.150909 294.976251 
L 123.150909 294.946758 
L 123.996364 294.88777 
L 123.996364 294.917264 
L 126.250909 295.094227 
L 126.250909 295.035239 
L 128.505455 295.182709 
L 128.505455 295.153215 
L 134.987273 295.094227 
L 134.987273 295.064733 
L 134.987273 295.035239 
L 134.987273 295.035239 
L 135.832727 294.976251 
L 135.550909 294.946758 
L 137.523636 294.828782 
L 137.523636 294.88777 
L 137.523636 294.828782 
L 140.623636 295.064733 
L 140.623636 295.035239 
L 140.623636 295.064733 
L 143.16 295.153215 
L 143.16 295.123721 
L 143.723636 295.153215 
L 143.723636 295.153215 
L 144.850909 295.182709 
L 147.669091 295.094227 
L 147.669091 295.094227 
L 151.614545 294.769794 
L 151.614545 294.828782 
L 152.46 294.828782 
L 152.46 294.88777 
L 152.46 294.858276 
L 154.714545 295.005745 
L 154.714545 295.005745 
L 154.714545 294.976251 
L 154.714545 295.005745 
L 155.56 295.005745 
L 155.56 294.976251 
L 155.56 295.005745 
L 156.969091 295.094227 
L 156.969091 295.094227 
L 156.969091 295.123721 
L 156.969091 295.123721 
L 161.478182 295.064733 
L 161.478182 295.035239 
L 161.478182 295.005745 
L 162.323636 295.035239 
L 162.323636 294.976251 
L 162.323636 294.976251 
L 164.86 294.533842 
L 164.86 294.563336 
L 164.86 294.504348 
L 164.86 294.533842 
L 167.396364 294.622324 
L 167.396364 294.622324 
L 167.396364 294.710806 
L 167.96 294.681312 
L 167.678182 294.681312 
L 172.750909 295.153215 
L 172.750909 295.153215 
L 173.314545 295.153215 
L 173.314545 295.212203 
L 173.314545 295.212203 
L 174.441818 295.182709 
L 174.441818 295.182709 
L 175.850909 295.123721 
L 175.850909 295.094227 
L 180.36 294.681312 
L 180.36 294.681312 
L 180.36 294.7403 
L 180.36 294.651818 
L 181.487273 294.563336 
L 181.487273 294.533842 
L 181.487273 294.563336 
L 181.769091 294.563336 
L 181.769091 294.533842 
L 182.332727 294.386372 
L 182.332727 294.474854 
L 183.178182 294.356878 
L 183.178182 294.415866 
L 184.023636 294.327384 
L 184.023636 294.415866 
L 184.023636 294.474854 
L 184.305455 294.386372 
L 185.150909 294.651818 
L 185.150909 294.651818 
L 185.996364 294.769794 
L 185.714545 294.769794 
L 185.714545 294.828782 
L 187.123636 295.035239 
L 187.123636 295.035239 
L 187.123636 295.123721 
L 187.969091 295.123721 
L 187.969091 295.182709 
L 187.969091 295.153215 
L 189.378182 295.212203 
L 189.378182 295.182709 
L 189.378182 295.212203 
L 190.787273 295.153215 
L 190.787273 295.123721 
L 193.041818 294.828782 
L 192.76 294.828782 
L 194.169091 294.533842 
L 193.605455 294.533842 
L 194.169091 294.474854 
L 194.732727 294.327384 
L 194.732727 294.179914 
L 195.014545 294.209408 
L 195.014545 294.15042 
L 195.014545 294.091432 
L 195.014545 294.120926 
L 195.578182 294.061938 
L 195.296364 294.061938 
L 196.423636 293.766998 
L 196.423636 293.796492 
L 197.269091 293.796492 
L 197.269091 293.737504 
L 197.269091 293.678516 
L 197.550909 293.825986 
L 197.550909 293.796492 
L 198.114545 293.796492 
L 198.114545 293.884974 
L 198.396364 293.973456 
L 198.396364 293.973456 
L 198.396364 294.061938 
L 198.396364 293.943962 
L 198.96 294.061938 
L 198.96 294.061938 
L 199.241818 294.032444 
L 199.241818 294.091432 
L 199.241818 294.268396 
L 199.805455 294.179914 
L 199.805455 294.268396 
L 199.805455 294.268396 
L 200.087273 294.386372 
L 200.087273 294.415866 
L 200.932727 294.59283 
L 200.932727 294.622324 
L 200.932727 294.622324 
L 203.469091 295.123721 
L 204.032727 295.094227 
L 204.032727 295.153215 
L 205.16 295.182709 
L 204.878182 295.182709 
L 207.132727 294.858276 
L 207.132727 294.858276 
L 207.132727 294.710806 
L 207.696364 294.504348 
L 207.696364 294.386372 
L 207.978182 294.474854 
L 207.978182 294.44536 
L 208.26 294.29789 
L 208.26 294.15042 
L 209.387273 293.70801 
L 209.387273 293.678516 
L 209.669091 293.678516 
L 209.669091 293.56054 
L 209.950909 293.649022 
L 209.950909 293.619528 
L 210.514545 293.41307 
L 210.514545 293.56054 
L 210.514545 293.383576 
L 211.078182 293.442564 
L 211.078182 293.295094 
L 211.078182 293.236106 
L 212.769091 293.324588 
L 212.769091 293.236106 
L 212.769091 293.383576 
L 213.332727 293.354082 
L 213.332727 293.354082 
L 213.332727 293.501552 
L 213.332727 293.41307 
L 214.178182 293.649022 
L 214.741818 293.619528 
L 214.741818 293.766998 
L 214.46 293.619528 
L 215.023636 293.85548 
L 215.023636 293.796492 
L 215.587273 293.943962 
L 215.305455 294.032444 
L 215.869091 294.00295 
L 215.587273 294.00295 
L 216.150909 294.179914 
L 216.150909 294.179914 
L 216.432727 294.179914 
L 216.432727 294.238902 
L 216.432727 294.29789 
L 216.432727 294.238902 
L 219.250909 295.035239 
L 220.378182 295.123721 
L 220.096364 295.064733 
L 221.787273 294.917264 
L 221.505455 294.88777 
L 221.787273 294.799288 
L 221.787273 294.799288 
L 221.787273 294.7403 
L 222.069091 294.769794 
L 222.069091 294.681312 
L 222.632727 294.474854 
L 222.632727 294.44536 
L 223.196364 294.238902 
L 222.914545 294.209408 
L 223.478182 293.943962 
L 223.478182 293.973456 
L 223.478182 293.825986 
L 223.76 293.70801 
L 223.76 293.649022 
L 224.605455 293.383576 
L 224.605455 293.383576 
L 224.605455 293.147625 
L 224.887273 293.177119 
L 224.887273 293.029649 
L 224.887273 293.029649 
L 225.169091 292.970661 
L 225.169091 292.970661 
L 225.169091 292.852685 
L 225.450909 292.882179 
L 225.450909 292.734709 
L 226.014545 292.380781 
L 226.014545 292.469263 
L 226.014545 292.233311 
L 226.578182 292.144829 
L 226.578182 292.026853 
L 226.578182 292.026853 
L 227.423636 291.613937 
L 227.423636 291.702419 
L 227.705455 291.643431 
L 227.705455 291.377986 
L 227.987273 291.495961 
L 227.987273 291.436974 
L 228.269091 291.289504 
L 228.269091 291.436974 
L 228.269091 291.40748 
L 228.550909 291.318998 
L 228.550909 291.466468 
L 228.550909 291.377986 
L 228.832727 291.377986 
L 228.832727 291.40748 
L 228.832727 291.613937 
L 229.114545 291.525455 
L 229.114545 291.731913 
L 229.396364 291.849889 
L 229.396364 291.967865 
L 229.678182 291.997359 
L 229.396364 292.085841 
L 229.678182 291.967865 
L 229.96 292.115335 
L 229.96 292.292299 
L 229.96 292.174323 
L 230.241818 292.262805 
L 230.241818 292.616733 
L 230.523636 292.587239 
L 230.523636 292.882179 
L 231.650909 293.354082 
L 231.369091 293.41307 
L 231.650909 293.619528 
L 231.650909 293.796492 
L 231.932727 293.796492 
L 231.932727 293.85548 
L 232.496364 293.973456 
L 232.496364 294.179914 
L 232.778182 294.179914 
L 232.778182 294.209408 
L 232.778182 294.386372 
L 233.06 294.474854 
L 233.06 294.44536 
L 233.06 294.59283 
L 233.06 294.59283 
L 233.341818 294.59283 
L 233.341818 294.622324 
L 233.341818 294.7403 
L 235.314545 294.858276 
L 235.314545 294.828782 
L 235.314545 294.828782 
L 235.878182 294.7403 
L 235.878182 294.681312 
L 236.16 294.563336 
L 236.16 294.563336 
L 236.723636 294.356878 
L 236.723636 294.327384 
L 237.005455 294.268396 
L 237.005455 294.268396 
L 236.723636 294.179914 
L 237.287273 294.032444 
L 237.287273 293.884974 
L 237.850909 293.531046 
L 237.850909 293.41307 
L 238.132727 293.324588 
L 238.132727 293.354082 
L 238.132727 293.029649 
L 238.414545 292.941167 
L 238.414545 292.823191 
L 238.414545 292.882179 
L 238.696364 292.675721 
L 238.696364 292.292299 
L 238.696364 292.321793 
L 239.541818 291.761407 
L 239.26 291.672925 
L 239.541818 291.436974 
L 239.541818 291.083046 
L 239.823636 290.994564 
L 239.823636 290.758612 
L 240.105455 290.611142 
L 240.105455 290.286708 
L 240.387273 290.22772 
L 240.387273 289.844298 
L 240.669091 289.93278 
L 240.669091 289.696829 
L 240.950909 289.637841 
L 240.950909 289.018467 
L 241.232727 289.136443 
L 241.232727 288.576057 
L 241.514545 288.517069 
L 241.514545 288.546563 
L 241.232727 288.340105 
L 241.514545 288.133647 
L 241.796364 288.133647 
L 241.796364 287.897696 
L 242.078182 287.691238 
L 242.36 287.63225 
L 242.078182 287.573262 
L 242.36 287.425792 
L 242.36 287.18984 
L 242.641818 287.366804 
L 242.641818 287.04237 
L 242.923636 287.18984 
L 242.923636 286.717936 
L 243.205455 286.835912 
L 243.205455 286.717936 
L 243.205455 286.481984 
L 243.205455 286.511478 
L 243.487273 286.481984 
L 243.487273 286.275526 
L 243.769091 286.216539 
L 243.769091 286.069069 
L 243.769091 286.275526 
L 243.769091 286.069069 
L 244.050909 285.892105 
L 244.050909 285.951093 
L 244.332727 285.980587 
L 244.332727 285.951093 
L 244.332727 285.803623 
L 244.614545 285.951093 
L 244.614545 285.744635 
L 244.614545 285.744635 
L 245.178182 285.744635 
L 245.178182 285.980587 
L 245.178182 285.774129 
L 245.46 285.921599 
L 245.741818 285.833117 
L 245.46 286.010081 
L 245.741818 285.921599 
L 245.741818 286.246032 
L 246.023636 286.275526 
L 246.023636 286.45249 
L 246.305455 286.570466 
L 246.305455 286.8949 
L 246.587273 286.953888 
L 246.587273 287.101358 
L 246.587273 286.953888 
L 247.150909 287.012876 
L 246.869091 286.953888 
L 247.150909 287.455286 
L 247.150909 287.838708 
L 247.996364 288.222129 
L 247.996364 288.782515 
L 248.56 289.401889 
L 248.841818 289.342901 
L 248.841818 289.401889 
L 248.841818 289.667335 
L 249.123636 289.873792 
L 248.841818 290.139238 
L 249.123636 290.198226 
L 248.841818 290.286708 
L 249.123636 290.52266 
L 249.123636 290.67013 
L 249.405455 290.788106 
L 249.405455 290.935576 
L 249.405455 290.906082 
L 249.687273 291.11254 
L 249.687273 291.879383 
L 249.969091 292.026853 
L 249.969091 292.203817 
L 249.969091 292.203817 
L 250.250909 292.469263 
L 250.250909 292.970661 
L 250.532727 293.059143 
L 250.532727 293.472058 
L 250.814545 293.56054 
L 250.532727 293.619528 
L 250.532727 293.766998 
L 251.096364 294.209408 
L 251.096364 294.327384 
L 251.096364 294.327384 
L 251.66 294.356878 
L 251.66 294.209408 
L 251.941818 294.209408 
L 251.941818 294.15042 
L 251.941818 294.032444 
L 252.223636 293.943962 
L 252.223636 293.85548 
L 252.505455 293.70801 
L 252.505455 293.501552 
L 252.787273 293.354082 
L 252.787273 292.498757 
L 253.069091 292.321793 
L 252.787273 291.967865 
L 253.069091 291.879383 
L 253.069091 291.613937 
L 253.350909 291.318998 
L 253.350909 291.142034 
L 253.069091 290.8176 
L 253.632727 289.578853 
L 253.632727 288.428587 
L 253.914545 287.602756 
L 253.914545 287.219334 
L 254.196364 286.59996 
L 254.196364 285.361213 
L 254.478182 284.594369 
L 254.478182 282.942706 
L 254.76 281.821935 
L 254.478182 281.143573 
L 255.041818 279.285452 
L 255.041818 275.86415 
L 255.323636 274.625403 
L 255.323636 273.239186 
L 255.605455 271.882463 
L 255.605455 268.608631 
L 255.887273 267.517353 
L 255.887273 265.157835 
L 256.169091 264.066557 
L 256.169091 260.114363 
L 256.450909 258.492194 
L 256.450909 256.693061 
L 256.732727 255.070892 
L 256.732727 252.504916 
L 257.014545 250.676289 
L 257.014545 248.080818 
L 257.296364 247.225493 
L 257.578182 245.514842 
L 257.296364 244.98395 
L 257.296364 242.771901 
L 257.578182 241.7986 
L 257.578182 240.500865 
L 257.86 238.46578 
L 257.86 237.286021 
L 258.141818 235.811321 
L 257.86 234.10067 
L 258.141818 232.360525 
L 258.141818 231.534694 
L 258.423636 230.295947 
L 258.423636 227.553006 
L 258.705455 225.399945 
L 258.705455 220.061534 
L 258.987273 218.468859 
L 258.987273 215.254015 
L 259.269091 213.720328 
L 259.269091 211.419797 
L 259.550909 210.947894 
L 259.269091 209.915604 
L 259.550909 207.792038 
L 259.550909 205.078591 
L 259.832727 203.485916 
L 259.832727 198.265481 
L 260.114545 196.200902 
L 260.114545 190.626539 
L 260.396364 189.15184 
L 260.396364 187.175743 
L 260.678182 184.757237 
L 260.678182 179.00591 
L 260.96 177.737669 
L 260.96 175.23068 
L 261.241818 174.050921 
L 260.96 173.726487 
L 261.241818 171.131017 
L 261.241818 167.060847 
L 261.523636 165.999063 
L 261.523636 161.103062 
L 261.805455 158.330628 
L 261.805455 152.402337 
L 262.087273 149.836361 
L 262.087273 143.790094 
L 262.369091 140.545756 
L 262.369091 132.729851 
L 262.650909 127.24397 
L 262.650909 123.439246 
L 262.932727 120.194908 
L 262.932727 120.961751 
L 263.214545 118.867679 
L 263.214545 115.888786 
L 263.214545 116.06575 
L 263.496364 114.060159 
L 263.496364 108.485796 
L 263.778182 107.217555 
L 263.778182 107.335531 
L 263.778182 104.651579 
L 264.06 103.117892 
L 264.06 104.563097 
L 264.06 101.908638 
L 264.341818 98.634806 
L 264.341818 94.033745 
L 264.623636 93.886275 
L 264.623636 91.438274 
L 264.905455 90.995865 
L 264.905455 91.11384 
L 264.623636 88.459382 
L 265.187273 85.804924 
L 265.187273 81.41032 
L 265.187273 81.85273 
L 265.469091 83.061983 
L 265.469091 78.22497 
L 265.750909 76.897741 
L 265.750909 78.637886 
L 265.750909 74.095812 
L 265.750909 75.098608 
L 266.032727 77.959524 
L 266.032727 72.031233 
L 266.314545 71.470848 
L 266.314545 74.00733 
L 266.596364 72.031233 
L 266.596364 73.505933 
L 266.596364 67.34169 
L 266.878182 68.22651 
L 266.878182 69.612727 
L 266.878182 69.199811 
L 267.16 69.022847 
L 267.16 65.513063 
L 267.16 70.114125 
L 267.441818 68.07904 
L 267.441818 62.563665 
L 267.441818 63.477978 
L 267.723636 71.588824 
L 267.723636 70.497546 
L 267.723636 61.560869 
L 267.723636 65.572051 
L 268.005455 67.813594 
L 268.005455 65.808003 
L 268.287273 67.63663 
L 268.287273 63.743424 
L 268.569091 68.167522 
L 268.569091 71.441354 
L 268.850909 66.781304 
L 268.850909 62.917593 
L 268.850909 71.736294 
L 269.132727 69.347281 
L 269.132727 66.604341 
L 269.132727 71.824776 
L 269.414545 71.942751 
L 269.132727 72.532631 
L 269.414545 73.181499 
L 269.696364 70.291088 
L 269.414545 71.529836 
L 269.696364 74.243282 
L 269.696364 73.830366 
L 269.696364 71.647812 
L 269.978182 74.331764 
L 269.978182 78.165982 
L 269.978182 78.106994 
L 270.26 75.246078 
L 270.541818 77.045211 
L 270.26 79.906127 
L 270.26 82.29514 
L 270.541818 82.649067 
L 270.541818 79.876633 
L 270.541818 81.55779 
L 270.823636 83.858321 
L 270.823636 88.016972 
L 270.823636 83.032489 
L 270.823636 83.386417 
L 271.105455 89.875093 
L 271.105455 88.636346 
L 271.387273 92.205118 
L 271.387273 91.526756 
L 271.387273 102.469024 
L 271.669091 88.724828 
L 271.669091 90.435479 
L 271.669091 112.526472 
L 271.669091 68.963859 
L 271.669091 81.203862 
L 271.950909 174.080415 
L 271.950909 53.568 
L 271.950909 90.553455 
L 272.232727 236.902599 
L 272.232727 54.806747 
L 272.232727 95.007046 
L 272.514545 64.539762 
L 272.514545 119.84098 
L 272.514545 99.372156 
L 272.796364 75.03962 
L 272.796364 145.471251 
L 272.796364 80.260055 
L 273.078182 101.495723 
L 273.078182 129.603488 
L 273.078182 115.505364 
L 273.36 126.241174 
L 273.36 114.060159 
L 273.641818 115.977268 
L 273.641818 144.468456 
L 273.641818 111.287725 
L 273.641818 141.401082 
L 273.923636 148.981035 
L 273.923636 127.627392 
L 273.923636 130.340838 
L 274.205455 146.827974 
L 274.205455 146.592023 
L 274.205455 153.936024 
L 274.487273 149.187493 
L 274.487273 145.235299 
L 274.205455 168.476558 
L 274.487273 157.357326 
L 274.487273 174.316367 
L 274.769091 170.334679 
L 274.769091 174.021427 
L 274.769091 173.608511 
L 275.332727 188.208033 
L 275.332727 189.269816 
L 275.050909 189.653238 
L 275.332727 193.929865 
L 275.614545 195.787986 
L 275.614545 194.696709 
L 275.614545 200.418542 
L 275.896364 201.539313 
L 275.614545 202.188181 
L 275.896364 205.963411 
L 276.178182 207.497098 
L 276.178182 214.25122 
L 276.46 216.256811 
L 276.46 219.235703 
L 276.741818 220.592426 
L 276.741818 229.057199 
L 277.023636 231.416718 
L 277.023636 234.39561 
L 277.305455 236.430695 
L 277.305455 240.559853 
L 277.587273 243.214311 
L 277.587273 246.488143 
L 277.869091 247.638409 
L 277.869091 250.263373 
L 278.150909 251.708578 
L 277.869091 253.920627 
L 278.150909 255.188868 
L 278.150909 258.580676 
L 278.432727 259.465496 
L 278.432727 260.940195 
L 278.714545 262.23793 
L 278.432727 262.739328 
L 278.714545 264.096051 
L 278.714545 266.042654 
L 278.996364 267.281401 
L 278.996364 270.52574 
L 279.278182 271.410559 
L 279.278182 273.26868 
L 279.56 273.652102 
L 279.278182 273.917548 
L 279.56 274.448439 
L 279.56 274.831861 
L 279.841818 275.362753 
L 279.841818 277.073404 
L 280.123636 277.751765 
L 280.123636 279.875332 
L 280.405455 280.494706 
L 280.405455 283.060682 
L 280.687273 283.621068 
L 280.687273 285.302225 
L 280.969091 285.685647 
L 280.969091 287.366804 
L 281.250909 287.48478 
L 281.250909 288.546563 
L 281.532727 288.929985 
L 281.532727 289.696829 
L 281.814545 289.991768 
L 281.532727 290.08025 
L 281.814545 290.316202 
L 281.814545 290.96507 
L 282.096364 291.201022 
L 282.096364 292.321793 
L 282.378182 292.498757 
L 282.096364 292.557745 
L 282.66 292.793697 
L 282.378182 292.882179 
L 282.378182 293.059143 
L 282.66 293.118131 
L 282.941818 293.383576 
L 282.66 293.442564 
L 282.66 293.56054 
L 282.941818 293.85548 
L 282.941818 293.943962 
L 283.223636 293.914468 
L 283.223636 294.061938 
L 283.223636 294.032444 
L 283.787273 294.061938 
L 283.787273 294.061938 
L 283.787273 293.943962 
L 284.069091 293.766998 
L 284.069091 293.619528 
L 284.350909 293.678516 
L 284.350909 293.147625 
L 284.632727 292.941167 
L 284.632727 292.675721 
L 284.914545 292.557745 
L 284.632727 292.351287 
L 284.914545 292.262805 
L 284.914545 292.026853 
L 285.196364 291.643431 
L 285.196364 291.201022 
L 285.478182 290.994564 
L 285.478182 290.994564 
L 285.478182 290.463672 
L 285.76 290.404684 
L 285.76 290.050756 
L 285.76 290.08025 
L 286.041818 289.844298 
L 286.041818 289.667335 
L 286.323636 289.637841 
L 286.323636 288.753021 
L 286.887273 288.222129 
L 286.605455 288.251623 
L 286.887273 288.133647 
L 286.887273 287.986177 
L 287.169091 287.92719 
L 287.169091 287.219334 
L 287.450909 287.248828 
L 287.450909 287.18984 
L 287.732727 286.953888 
L 287.732727 286.74743 
L 288.014545 286.74743 
L 288.296364 286.570466 
L 288.014545 286.540972 
L 288.014545 286.393502 
L 288.296364 286.393502 
L 288.296364 286.422996 
L 288.296364 286.511478 
L 288.296364 286.422996 
L 288.578182 286.540972 
L 288.578182 286.216539 
L 288.86 286.364008 
L 288.86 286.275526 
L 288.86 285.980587 
L 288.86 286.039575 
L 289.141818 286.187045 
L 289.141818 285.980587 
L 289.141818 286.010081 
L 289.423636 286.039575 
L 289.423636 286.216539 
L 289.423636 286.157551 
L 289.705455 285.980587 
L 289.705455 286.098563 
L 289.705455 286.275526 
L 289.987273 286.246032 
L 289.987273 286.364008 
L 290.269091 286.246032 
L 290.269091 286.364008 
L 290.269091 286.481984 
L 290.550909 286.216539 
L 290.550909 286.688442 
L 290.832727 286.570466 
L 290.832727 286.717936 
L 291.114545 286.835912 
L 291.114545 286.8949 
L 291.396364 287.101358 
L 291.396364 287.396298 
L 291.678182 287.33731 
L 291.396364 287.573262 
L 291.96 287.63225 
L 291.678182 287.602756 
L 291.678182 287.809214 
L 291.96 287.77972 
L 291.96 287.956684 
L 292.241818 288.399093 
L 292.241818 288.340105 
L 292.241818 288.428587 
L 292.523636 288.723527 
L 292.241818 288.812009 
L 292.523636 288.664539 
L 292.523636 288.782515 
L 292.805455 289.165937 
L 292.805455 289.136443 
L 292.805455 289.372395 
L 293.087273 289.519865 
L 293.087273 289.519865 
L 293.087273 289.696829 
L 293.650909 290.37519 
L 293.650909 290.581648 
L 293.932727 290.876588 
L 293.932727 291.318998 
L 294.214545 291.348492 
L 294.214545 291.613937 
L 294.496364 291.849889 
L 294.496364 291.938371 
L 294.778182 292.233311 
L 294.778182 292.587239 
L 295.06 292.764203 
L 295.06 293.029649 
L 295.06 293.029649 
L 295.341818 293.236106 
L 295.341818 293.41307 
L 295.623636 293.678516 
L 295.623636 293.973456 
L 296.187273 294.179914 
L 296.187273 294.091432 
L 296.187273 294.268396 
L 296.469091 294.415866 
L 296.469091 294.474854 
L 296.750909 294.622324 
L 296.750909 294.681312 
L 297.596364 294.858276 
L 297.596364 294.88777 
L 298.723636 295.035239 
L 298.723636 294.976251 
L 298.723636 294.976251 
L 299.005455 295.005745 
L 299.005455 294.976251 
L 300.414545 294.59283 
L 300.414545 294.563336 
L 300.696364 294.563336 
L 300.696364 294.504348 
L 300.696364 294.386372 
L 301.26 294.29789 
L 301.26 294.15042 
L 301.26 294.238902 
L 302.387273 293.85548 
L 302.387273 293.737504 
L 302.387273 293.766998 
L 302.669091 293.85548 
L 302.669091 293.70801 
L 302.669091 293.737504 
L 302.950909 293.56054 
L 302.950909 293.531046 
L 302.950909 293.56054 
L 303.514545 293.383576 
L 303.514545 293.324588 
L 303.514545 293.324588 
L 304.641818 292.970661 
L 304.641818 292.852685 
L 304.641818 292.852685 
L 304.923636 292.852685 
L 304.923636 292.793697 
L 304.923636 292.705215 
L 305.487273 292.764203 
L 305.487273 292.675721 
L 305.769091 292.528251 
L 305.769091 292.675721 
L 305.769091 292.587239 
L 306.050909 292.705215 
L 306.614545 292.646227 
L 306.614545 292.646227 
L 307.178182 292.675721 
L 307.178182 292.823191 
L 307.178182 292.705215 
L 307.46 292.823191 
L 307.46 292.882179 
L 307.741818 292.852685 
L 307.741818 292.852685 
L 308.023636 292.970661 
L 307.741818 293.029649 
L 308.023636 292.882179 
L 308.587273 293.206613 
L 308.587273 293.206613 
L 309.150909 293.41307 
L 309.150909 293.41307 
L 309.150909 293.501552 
L 309.714545 293.649022 
L 309.714545 293.590034 
L 309.996364 293.796492 
L 310.278182 293.737504 
L 309.996364 293.825986 
L 309.996364 293.825986 
L 310.56 294.00295 
L 310.56 294.209408 
L 310.841818 294.179914 
L 310.841818 294.238902 
L 310.841818 294.327384 
L 310.841818 294.29789 
L 311.123636 294.29789 
L 311.123636 294.29789 
L 311.687273 294.504348 
L 312.250909 294.533842 
L 311.969091 294.563336 
L 312.532727 294.651818 
L 312.532727 294.710806 
L 313.66 294.88777 
L 313.66 294.858276 
L 313.66 294.946758 
L 313.66 294.917264 
L 315.632727 294.828782 
L 315.632727 294.828782 
L 315.632727 294.799288 
L 315.632727 294.799288 
L 315.914545 294.681312 
L 315.914545 294.622324 
L 315.914545 294.622324 
L 316.196364 294.622324 
L 316.196364 294.533842 
L 316.196364 294.504348 
L 317.041818 294.356878 
L 317.323636 294.386372 
L 317.323636 294.29789 
L 317.323636 294.238902 
L 317.605455 294.327384 
L 317.605455 294.179914 
L 317.605455 294.209408 
L 318.169091 294.091432 
L 318.169091 294.091432 
L 319.014545 294.061938 
L 319.014545 294.00295 
L 319.86 293.914468 
L 319.86 294.00295 
L 320.705455 294.032444 
L 320.705455 293.914468 
L 320.705455 294.00295 
L 321.832727 294.032444 
L 321.832727 294.061938 
L 322.114545 294.15042 
L 322.114545 294.00295 
L 322.678182 294.179914 
L 323.241818 294.209408 
L 323.241818 294.209408 
L 323.241818 294.268396 
L 323.805455 294.268396 
L 323.805455 294.29789 
L 323.805455 294.386372 
L 323.805455 294.29789 
L 324.087273 294.415866 
L 324.087273 294.386372 
L 324.932727 294.474854 
L 324.932727 294.474854 
L 324.932727 294.563336 
L 325.214545 294.533842 
L 325.214545 294.59283 
L 326.06 294.7403 
L 326.06 294.7403 
L 326.06 294.799288 
L 326.341818 294.769794 
L 326.341818 294.858276 
L 326.341818 294.88777 
L 326.905455 294.917264 
L 326.905455 294.917264 
L 326.905455 294.946758 
L 327.469091 294.976251 
L 327.469091 295.005745 
L 328.314545 295.094227 
L 328.314545 295.094227 
L 328.314545 295.064733 
L 328.314545 295.094227 
L 329.16 295.123721 
L 329.16 295.123721 
L 330.569091 294.917264 
L 330.569091 294.858276 
L 331.414545 294.799288 
L 331.414545 294.799288 
L 331.696364 294.710806 
L 331.696364 294.7403 
L 332.541818 294.651818 
L 332.541818 294.59283 
L 332.541818 294.651818 
L 333.105455 294.563336 
L 333.669091 294.59283 
L 333.669091 294.533842 
L 333.669091 294.474854 
L 333.950909 294.563336 
L 333.950909 294.504348 
L 334.796364 294.533842 
L 334.796364 294.504348 
L 334.796364 294.474854 
L 337.050909 294.563336 
L 337.050909 294.533842 
L 337.050909 294.59283 
L 337.614545 294.563336 
L 338.178182 294.681312 
L 338.178182 294.651818 
L 343.250909 295.094227 
L 342.969091 295.123721 
L 344.378182 295.153215 
L 344.378182 295.182709 
L 344.378182 295.153215 
L 345.505455 295.094227 
L 345.505455 295.123721 
L 346.914545 295.035239 
L 346.914545 295.005745 
L 346.914545 295.005745 
L 347.478182 295.005745 
L 347.478182 295.005745 
L 347.478182 294.946758 
L 347.478182 294.976251 
L 348.887273 294.88777 
L 349.732727 294.88777 
L 349.732727 294.88777 
L 349.732727 294.858276 
L 350.578182 294.88777 
L 350.578182 294.88777 
L 351.705455 294.828782 
L 351.705455 294.858276 
L 355.369091 294.917264 
L 355.369091 294.946758 
L 358.187273 295.182709 
L 358.187273 295.182709 
L 359.032727 295.182709 
L 359.032727 295.182709 
L 361.850909 295.094227 
L 361.569091 295.094227 
L 362.978182 295.005745 
L 362.978182 294.976251 
L 363.541818 294.976251 
L 363.26 294.917264 
L 363.823636 294.976251 
L 363.823636 294.976251 
L 363.823636 294.917264 
L 363.823636 294.917264 
L 364.387273 294.88777 
L 364.105455 294.946758 
L 364.387273 294.858276 
L 364.387273 294.88777 
L 367.487273 294.976251 
L 367.487273 295.005745 
L 367.487273 295.005745 
L 368.050909 295.005745 
L 368.050909 295.005745 
L 370.023636 295.123721 
L 370.023636 295.123721 
L 370.023636 295.094227 
L 370.023636 295.094227 
L 371.714545 295.182709 
L 371.714545 295.123721 
L 371.714545 295.182709 
L 377.632727 295.094227 
L 377.632727 295.064733 
L 377.632727 295.123721 
L 379.323636 295.035239 
L 379.323636 295.064733 
L 380.732727 294.976251 
L 380.732727 295.035239 
L 381.86 295.005745 
L 381.86 295.005745 
L 384.114545 295.153215 
L 384.114545 295.153215 
L 398.205455 295.094227 
L 397.923636 295.064733 
L 397.923636 295.035239 
L 397.923636 295.094227 
L 397.923636 295.094227 
L 398.487273 295.094227 
L 397.641818 295.094227 
L 397.923636 295.094227 
L 398.205455 293.383576 
L 397.923636 293.442564 
L 397.923636 280.96661 
L 397.923636 282.706755 
L 398.205455 278.105693 
L 397.923636 277.515814 
L 397.923636 276.336054 
L 398.205455 276.15909 
L 398.205455 273.770078 
L 398.205455 274.566415 
L 397.923636 274.271475 
L 398.205455 274.684391 
L 397.923636 276.483524 
L 397.923636 276.395042 
L 397.923636 277.19138 
L 398.205455 277.04391 
L 398.205455 276.6015 
L 397.923636 276.866946 
L 397.923636 276.395042 
L 397.923636 276.6015 
L 398.205455 276.837452 
L 397.923636 276.955428 
L 398.205455 276.807958 
L 397.923636 276.807958 
L 397.923636 276.513018 
L 397.923636 276.984922 
L 397.923636 276.630994 
L 398.205455 276.866946 
L 397.923636 276.6015 
L 397.923636 276.984922 
L 397.923636 276.807958 
L 398.205455 276.542512 
L 397.923636 276.866946 
L 397.923636 277.19138 
L 398.205455 276.630994 
L 397.923636 277.073404 
L 397.923636 276.807958 
L 397.923636 277.102898 
L 398.205455 276.74897 
L 397.923636 276.837452 
L 398.205455 276.925934 
L 397.923636 276.807958 
L 397.923636 277.102898 
L 398.205455 277.102898 
L 397.923636 276.719476 
L 397.923636 276.719476 
L 397.923636 277.102898 
L 398.205455 276.925934 
L 397.923636 276.925934 
L 398.205455 276.866946 
L 398.205455 277.102898 
L 397.923636 276.866946 
L 397.923636 277.309356 
L 397.923636 276.6015 
L 397.923636 277.014416 
L 398.205455 276.925934 
L 397.923636 277.073404 
L 397.923636 277.545307 
L 397.923636 276.74897 
L 397.923636 277.073404 
L 398.205455 277.279862 
L 397.923636 277.309356 
L 397.923636 277.073404 
L 397.923636 277.427332 
L 397.923636 277.279862 
L 398.205455 277.309356 
L 398.205455 277.073404 
L 397.923636 277.309356 
L 397.923636 276.837452 
L 397.923636 277.456826 
L 397.923636 277.250368 
L 398.205455 277.161886 
L 397.923636 277.397838 
L 397.923636 277.250368 
L 397.923636 277.368344 
L 398.205455 277.48632 
L 397.923636 277.309356 
L 397.923636 277.633789 
L 397.923636 277.250368 
L 397.923636 277.309356 
L 398.205455 277.427332 
L 398.205455 277.132392 
L 397.923636 277.574801 
L 397.923636 277.368344 
L 397.923636 277.220874 
L 398.205455 277.427332 
L 397.923636 277.574801 
L 398.205455 277.33885 
L 398.205455 277.279862 
L 397.923636 277.427332 
L 397.923636 277.19138 
L 397.923636 277.604295 
L 397.923636 277.368344 
L 398.205455 277.368344 
L 397.923636 277.220874 
L 398.205455 277.48632 
L 397.923636 277.515814 
L 397.923636 277.073404 
L 398.205455 277.663283 
L 398.205455 277.220874 
L 397.923636 277.220874 
L 397.923636 277.250368 
L 397.923636 277.456826 
L 398.205455 277.456826 
L 397.923636 277.692777 
L 398.205455 277.574801 
L 397.923636 277.899235 
L 397.923636 277.279862 
L 398.205455 277.04391 
L 397.923636 277.368344 
L 397.923636 277.781259 
L 397.923636 276.955428 
L 397.923636 277.545307 
L 398.205455 277.604295 
L 397.923636 277.456826 
L 397.923636 277.545307 
L 398.205455 277.722271 
L 397.923636 277.545307 
L 397.923636 277.309356 
L 397.923636 277.633789 
L 398.205455 277.220874 
L 398.205455 277.515814 
L 397.923636 277.633789 
L 398.205455 277.48632 
L 397.923636 277.427332 
L 397.923636 277.545307 
L 398.205455 277.368344 
L 397.923636 277.220874 
L 398.205455 277.33885 
L 397.923636 277.427332 
L 398.205455 277.33885 
L 398.205455 277.515814 
L 398.205455 277.397838 
L 397.923636 277.692777 
L 397.923636 277.33885 
L 397.923636 277.663283 
L 398.205455 277.368344 
L 397.923636 277.397838 
L 397.923636 277.692777 
L 397.923636 277.250368 
L 397.923636 277.456826 
L 398.205455 277.19138 
L 397.923636 277.574801 
L 398.205455 277.574801 
L 398.205455 277.48632 
L 398.205455 277.33885 
L 397.923636 277.456826 
L 397.923636 277.132392 
L 397.923636 277.633789 
L 397.923636 277.456826 
L 398.205455 277.456826 
L 397.923636 277.161886 
L 397.923636 277.427332 
L 398.205455 277.368344 
L 397.923636 277.250368 
L 397.923636 277.279862 
L 397.923636 277.604295 
L 397.923636 277.250368 
L 397.923636 277.33885 
L 398.205455 277.515814 
L 397.923636 277.250368 
L 397.923636 277.309356 
L 397.923636 277.840247 
L 397.923636 276.984922 
L 397.923636 277.633789 
L 397.641818 277.368344 
L 397.923636 277.279862 
L 397.923636 277.781259 
L 397.923636 277.574801 
L 397.641818 277.397838 
L 397.923636 277.309356 
L 397.641818 277.663283 
L 397.641818 277.309356 
L 397.923636 277.19138 
L 397.923636 277.279862 
L 397.923636 276.984922 
L 397.923636 277.633789 
L 397.923636 277.515814 
L 397.641818 277.279862 
L 397.641818 277.309356 
L 397.923636 277.810753 
L 397.923636 277.574801 
L 397.923636 277.574801 
L 397.641818 277.692777 
L 397.923636 277.781259 
L 397.923636 277.663283 
L 397.641818 277.840247 
L 397.923636 277.663283 
L 397.923636 277.958223 
L 397.641818 278.076199 
L 397.923636 279.078995 
L 397.641818 279.34444 
L 397.923636 279.727862 
L 397.923636 279.698368 
L 397.923636 280.258754 
L 397.641818 280.37673 
L 397.923636 280.406224 
L 397.641818 280.494706 
L 397.923636 280.67167 
L 397.641818 280.642176 
L 397.923636 280.583188 
L 397.641818 280.789646 
L 397.923636 280.848634 
L 397.923636 280.583188 
L 397.923636 280.730658 
L 397.641818 280.583188 
L 397.641818 280.435718 
L 397.923636 280.701164 
L 397.923636 280.347236 
L 397.923636 280.347236 
L 397.641818 280.022802 
L 397.923636 280.258754 
L 397.923636 280.170272 
L 397.641818 280.140778 
L 397.923636 279.609886 
L 397.923636 279.698368 
L 397.641818 279.816344 
L 397.923636 279.49191 
L 397.923636 279.845838 
L 397.923636 279.816344 
L 397.641818 279.757356 
L 397.923636 279.904826 
L 397.923636 279.904826 
L 397.923636 280.022802 
L 397.641818 280.170272 
L 397.923636 280.317742 
L 397.923636 280.052296 
L 397.641818 280.111284 
L 397.923636 279.993308 
L 397.641818 280.022802 
L 397.923636 279.93432 
L 397.641818 280.199766 
L 397.923636 280.111284 
L 397.923636 279.93432 
L 397.923636 280.199766 
L 397.923636 280.140778 
L 397.641818 279.875332 
L 397.923636 279.875332 
L 397.641818 279.78685 
L 397.923636 279.668874 
L 397.923636 279.462416 
L 397.923636 279.875332 
L 397.641818 279.580392 
L 397.641818 279.609886 
L 397.641818 279.816344 
L 397.923636 279.550898 
L 397.923636 279.727862 
L 397.641818 279.727862 
L 397.923636 279.993308 
L 397.923636 279.580392 
L 397.923636 279.727862 
L 397.641818 279.904826 
L 397.923636 280.111284 
L 397.923636 279.845838 
L 397.923636 280.140778 
L 397.641818 279.816344 
L 397.923636 280.199766 
L 397.641818 280.08179 
L 397.923636 279.757356 
L 397.923636 280.494706 
L 397.923636 280.199766 
L 397.641818 280.170272 
L 397.923636 280.347236 
L 397.641818 280.435718 
L 397.641818 279.963814 
L 397.923636 280.317742 
L 397.641818 280.22926 
L 397.923636 280.494706 
L 397.923636 280.347236 
L 397.641818 280.406224 
L 397.641818 280.199766 
L 397.923636 280.5242 
L 397.923636 280.258754 
L 397.641818 280.5242 
L 397.923636 280.5242 
L 397.641818 280.5242 
L 397.641818 280.347236 
L 397.641818 280.67167 
L 397.923636 280.347236 
L 397.923636 280.583188 
L 397.641818 280.258754 
L 397.923636 280.789646 
L 397.923636 280.553694 
L 397.641818 280.789646 
L 397.923636 280.642176 
L 397.923636 280.258754 
L 397.641818 280.317742 
L 397.923636 280.170272 
L 397.923636 280.347236 
L 397.923636 280.494706 
L 397.641818 280.5242 
L 397.923636 280.435718 
L 397.641818 280.288248 
L 397.641818 280.37673 
L 397.923636 280.583188 
L 397.923636 280.37673 
L 397.923636 280.37673 
L 397.641818 280.37673 
L 397.923636 280.465212 
L 397.641818 280.494706 
L 397.923636 280.37673 
L 397.923636 280.494706 
L 397.923636 280.288248 
L 397.641818 280.494706 
L 397.923636 280.288248 
L 397.641818 280.258754 
L 397.641818 280.288248 
L 397.923636 280.406224 
L 397.923636 280.08179 
L 397.923636 280.789646 
L 397.923636 280.288248 
L 397.641818 279.904826 
L 397.641818 280.22926 
L 397.923636 279.93432 
L 397.641818 280.140778 
L 397.641818 279.816344 
L 397.923636 279.727862 
L 397.923636 280.08179 
L 397.923636 279.904826 
L 397.641818 280.052296 
L 397.923636 279.78685 
L 397.923636 279.816344 
L 397.923636 279.727862 
L 397.641818 279.845838 
L 397.923636 279.668874 
L 397.923636 280.022802 
L 397.923636 279.698368 
L 397.641818 279.668874 
L 397.641818 279.727862 
L 397.923636 279.550898 
L 397.641818 279.698368 
L 397.923636 279.845838 
L 397.923636 279.609886 
L 397.641818 279.668874 
L 397.923636 279.875332 
L 397.923636 279.757356 
L 397.923636 279.373934 
L 397.923636 279.93432 
L 397.923636 279.63938 
L 397.641818 279.668874 
L 397.923636 279.609886 
L 397.641818 279.432922 
L 397.923636 279.550898 
L 397.641818 279.580392 
L 397.641818 279.698368 
L 397.641818 279.668874 
L 397.923636 279.845838 
L 397.641818 279.462416 
L 397.923636 279.432922 
L 397.923636 279.668874 
L 397.923636 279.403428 
L 397.641818 279.668874 
L 397.923636 279.875332 
L 397.923636 279.757356 
L 397.923636 279.580392 
L 397.641818 279.580392 
L 397.641818 279.816344 
L 397.641818 279.580392 
L 397.923636 279.462416 
L 397.641818 279.757356 
L 397.923636 279.521404 
L 397.923636 279.285452 
L 397.923636 279.727862 
L 397.923636 279.609886 
L 397.641818 279.403428 
L 397.641818 279.403428 
L 397.923636 279.432922 
L 397.641818 279.521404 
L 397.923636 279.609886 
L 397.641818 279.432922 
L 397.641818 279.609886 
L 397.923636 279.373934 
L 397.641818 279.373934 
L 397.641818 279.49191 
L 397.923636 279.34444 
L 397.641818 279.580392 
L 397.923636 279.432922 
L 397.923636 279.609886 
L 397.641818 279.521404 
L 397.923636 279.314946 
L 397.923636 279.314946 
L 397.923636 279.609886 
L 397.641818 279.285452 
L 397.923636 279.196971 
L 397.923636 279.550898 
L 397.923636 279.167477 
L 397.923636 279.34444 
L 397.641818 279.521404 
L 397.923636 279.373934 
L 397.923636 279.49191 
L 397.641818 279.49191 
L 397.923636 279.34444 
L 397.923636 279.580392 
L 397.641818 279.521404 
L 397.923636 279.49191 
L 397.641818 279.373934 
L 397.923636 279.49191 
L 397.923636 279.314946 
L 397.923636 279.34444 
L 397.641818 279.668874 
L 397.923636 279.226465 
L 397.641818 279.521404 
L 397.641818 279.137983 
L 397.641818 279.521404 
L 397.923636 279.403428 
L 397.641818 279.462416 
L 397.923636 279.285452 
L 397.641818 279.49191 
L 397.923636 279.34444 
L 397.923636 279.550898 
L 397.923636 279.314946 
L 397.923636 279.432922 
L 397.641818 279.462416 
L 397.641818 279.727862 
L 397.923636 279.550898 
L 397.923636 279.609886 
L 397.641818 279.49191 
L 397.923636 279.63938 
L 397.923636 279.167477 
L 397.923636 279.668874 
L 397.641818 279.668874 
L 397.923636 279.550898 
L 397.923636 279.727862 
L 397.923636 279.34444 
L 397.641818 279.63938 
L 397.923636 279.403428 
L 397.641818 279.314946 
L 397.923636 279.167477 
L 397.641818 279.521404 
L 397.923636 279.609886 
L 397.923636 279.521404 
L 397.641818 279.373934 
L 397.641818 279.580392 
L 397.923636 279.550898 
L 397.641818 279.462416 
L 397.923636 279.521404 
L 397.923636 279.373934 
L 397.641818 279.609886 
L 397.923636 279.727862 
L 397.641818 279.78685 
L 397.923636 279.727862 
L 397.923636 279.875332 
L 397.641818 279.609886 
L 397.923636 279.668874 
L 397.923636 279.668874 
L 397.641818 279.49191 
L 397.641818 279.63938 
L 397.641818 279.34444 
L 397.923636 279.49191 
L 397.923636 279.875332 
L 397.923636 279.727862 
L 397.641818 279.609886 
L 397.923636 279.78685 
L 397.923636 279.904826 
L 397.923636 279.462416 
L 397.641818 279.609886 
L 397.923636 279.609886 
L 397.923636 279.727862 
L 397.923636 279.462416 
L 397.641818 279.432922 
L 397.923636 279.698368 
L 397.923636 279.521404 
L 397.641818 279.963814 
L 397.923636 279.698368 
L 397.641818 279.63938 
L 397.923636 280.08179 
L 397.923636 279.63938 
L 397.923636 280.08179 
L 397.641818 279.904826 
L 397.923636 280.22926 
L 397.923636 279.845838 
L 397.923636 280.789646 
L 397.923636 280.760152 
L 397.641818 280.81914 
L 397.923636 280.96661 
L 397.923636 280.96661 
L 397.641818 281.114079 
L 397.923636 281.497501 
L 397.923636 281.291043 
L 397.923636 281.291043 
L 397.641818 281.792441 
L 397.923636 281.910417 
L 397.923636 281.880923 
L 397.923636 283.974996 
L 397.641818 283.827526 
L 397.923636 284.387912 
L 397.923636 284.328924 
L 397.641818 284.29943 
L 397.923636 284.122466 
L 397.923636 277.722271 
L 397.641818 277.073404 
L 397.923636 277.073404 
L 397.923636 277.397838 
L 397.923636 276.955428 
L 397.923636 277.073404 
L 397.641818 277.161886 
L 397.641818 277.132392 
L 397.36 277.102898 
L 397.923636 276.984922 
L 397.641818 277.102898 
L 397.923636 277.279862 
L 397.923636 277.161886 
L 397.923636 276.660488 
L 397.641818 276.89644 
L 397.923636 277.132392 
L 397.923636 276.837452 
L 397.923636 276.984922 
L 397.641818 277.19138 
L 397.923636 277.132392 
L 397.923636 276.719476 
L 397.641818 276.807958 
L 397.641818 276.984922 
L 397.923636 276.572006 
L 397.923636 277.132392 
L 397.923636 276.542512 
L 397.641818 276.74897 
L 397.923636 276.837452 
L 397.923636 277.04391 
L 397.641818 277.014416 
L 397.641818 276.572006 
L 397.923636 276.984922 
L 397.923636 276.925934 
L 397.923636 276.572006 
L 397.923636 276.74897 
L 398.205455 276.660488 
L 397.641818 276.483524 
L 397.923636 276.483524 
L 397.923636 276.807958 
L 397.923636 276.542512 
L 397.641818 276.719476 
L 397.923636 276.807958 
L 397.923636 276.424536 
L 397.923636 276.74897 
L 397.641818 276.572006 
L 397.923636 276.807958 
L 397.923636 276.365548 
L 397.923636 276.542512 
L 397.641818 276.689982 
L 397.923636 276.277066 
L 397.923636 276.74897 
L 397.641818 276.542512 
L 397.641818 276.188584 
L 397.923636 276.424536 
L 397.923636 276.630994 
L 397.923636 276.30656 
L 397.641818 276.336054 
L 397.923636 276.6015 
L 397.641818 276.689982 
L 397.923636 276.15909 
L 397.923636 276.30656 
L 397.923636 276.630994 
L 397.923636 276.218078 
L 397.923636 276.424536 
L 397.641818 276.30656 
L 397.923636 276.277066 
L 397.923636 276.6015 
L 397.641818 276.365548 
L 397.923636 276.365548 
L 397.923636 276.218078 
L 397.923636 276.395042 
L 397.641818 276.542512 
L 397.923636 276.483524 
L 397.641818 276.30656 
L 397.641818 276.45403 
L 397.923636 276.218078 
L 397.923636 276.424536 
L 397.923636 276.100102 
L 397.641818 276.15909 
L 397.641818 276.129596 
L 397.923636 276.247572 
L 397.923636 276.45403 
L 397.641818 276.277066 
L 397.923636 276.30656 
L 397.641818 276.45403 
L 397.923636 276.277066 
L 397.923636 276.15909 
L 397.923636 276.336054 
L 397.641818 276.336054 
L 397.641818 276.277066 
L 397.923636 276.15909 
L 397.923636 276.01162 
L 397.923636 276.336054 
L 397.641818 276.100102 
L 397.923636 276.218078 
L 397.641818 276.45403 
L 397.641818 276.100102 
L 397.923636 276.277066 
L 397.641818 276.483524 
L 397.923636 276.395042 
L 397.923636 276.041114 
L 397.641818 276.336054 
L 397.923636 276.100102 
L 397.641818 276.100102 
L 397.923636 276.01162 
L 397.641818 275.86415 
L 397.923636 276.100102 
L 397.641818 276.247572 
L 397.923636 276.247572 
L 397.923636 276.365548 
L 397.923636 276.218078 
L 397.923636 276.277066 
L 397.641818 276.247572 
L 397.641818 276.424536 
L 397.923636 276.247572 
L 397.641818 276.424536 
L 397.923636 276.424536 
L 397.923636 276.424536 
L 397.923636 276.100102 
L 397.641818 276.336054 
L 397.923636 276.188584 
L 397.923636 276.277066 
L 397.641818 276.336054 
L 397.923636 275.86415 
L 397.923636 276.277066 
L 397.641818 276.336054 
L 397.641818 276.129596 
L 397.923636 276.041114 
L 397.923636 276.218078 
L 397.641818 276.30656 
L 397.923636 276.247572 
L 397.641818 276.100102 
L 397.923636 276.30656 
L 397.923636 276.15909 
L 397.923636 276.45403 
L 397.641818 276.277066 
L 397.923636 276.277066 
L 397.923636 276.30656 
L 397.923636 275.952632 
L 397.923636 276.336054 
L 397.923636 276.15909 
L 397.641818 276.247572 
L 397.923636 276.01162 
L 397.923636 276.277066 
L 397.923636 276.277066 
L 397.641818 276.365548 
L 397.923636 276.218078 
L 397.923636 276.277066 
L 397.641818 275.982126 
L 397.641818 276.247572 
L 397.923636 276.30656 
L 397.923636 276.247572 
L 397.641818 276.129596 
L 397.923636 276.188584 
L 397.923636 275.982126 
L 397.641818 276.129596 
L 397.923636 276.041114 
L 397.641818 275.834656 
L 397.923636 276.483524 
L 397.923636 276.129596 
L 397.641818 276.247572 
L 397.923636 276.188584 
L 397.923636 276.277066 
L 397.641818 276.365548 
L 397.923636 276.100102 
L 397.923636 276.277066 
L 397.923636 276.070608 
L 397.923636 276.247572 
L 397.641818 276.188584 
L 397.641818 276.01162 
L 397.923636 276.395042 
L 397.923636 276.041114 
L 397.641818 275.952632 
L 397.923636 275.86415 
L 397.923636 276.365548 
L 397.923636 276.15909 
L 397.641818 276.424536 
L 397.923636 275.952632 
L 397.641818 276.277066 
L 397.923636 276.424536 
L 397.923636 276.188584 
L 397.641818 275.893644 
L 397.923636 276.01162 
L 397.641818 275.982126 
L 397.641818 276.15909 
L 397.923636 275.893644 
L 397.923636 276.129596 
L 397.923636 276.01162 
L 397.641818 276.100102 
L 397.923636 276.15909 
L 397.641818 276.01162 
L 397.923636 276.15909 
L 397.923636 275.952632 
L 397.923636 276.188584 
L 398.205455 276.041114 
L 397.923636 275.86415 
L 397.641818 276.041114 
L 397.923636 276.483524 
L 397.923636 276.483524 
L 397.923636 275.952632 
L 397.923636 275.952632 
L 397.641818 276.15909 
L 397.923636 275.923138 
L 397.923636 276.15909 
L 397.923636 276.15909 
L 397.641818 276.188584 
L 397.923636 276.247572 
L 397.641818 276.041114 
L 397.923636 276.188584 
L 397.641818 276.277066 
L 397.923636 275.952632 
L 397.923636 275.716681 
L 397.923636 276.129596 
L 397.641818 276.277066 
L 397.923636 276.188584 
L 397.923636 276.483524 
L 397.923636 275.893644 
L 397.923636 276.100102 
L 397.641818 276.070608 
L 397.923636 276.277066 
L 397.923636 275.982126 
L 397.923636 276.30656 
L 397.923636 276.15909 
L 397.641818 276.247572 
L 397.923636 276.365548 
L 397.641818 276.041114 
L 397.641818 276.277066 
L 397.923636 276.01162 
L 397.641818 275.775669 
L 397.923636 276.247572 
L 397.641818 276.070608 
L 397.923636 276.365548 
L 397.923636 276.15909 
L 397.923636 275.923138 
L 397.923636 276.277066 
L 397.923636 275.982126 
L 397.641818 276.365548 
L 397.923636 275.982126 
L 397.923636 276.277066 
L 397.641818 276.129596 
L 397.923636 275.982126 
L 397.923636 276.070608 
L 397.923636 276.218078 
L 397.923636 276.15909 
L 397.641818 276.041114 
L 397.923636 276.30656 
L 397.923636 275.775669 
L 397.923636 276.513018 
L 397.923636 276.070608 
L 397.641818 276.070608 
L 397.641818 276.218078 
L 397.923636 275.805162 
L 397.923636 276.30656 
L 397.923636 276.218078 
L 397.641818 276.247572 
L 397.923636 275.687187 
L 397.923636 276.041114 
L 397.641818 276.129596 
L 397.923636 276.041114 
L 397.641818 276.30656 
L 397.923636 276.247572 
L 397.923636 276.365548 
L 397.923636 275.86415 
L 397.641818 275.923138 
L 397.923636 275.893644 
L 397.641818 276.15909 
L 397.923636 276.100102 
L 397.923636 276.218078 
L 397.923636 275.893644 
L 397.923636 276.01162 
L 397.641818 276.336054 
L 397.923636 275.834656 
L 397.923636 275.952632 
L 397.923636 276.277066 
L 397.923636 275.86415 
L 397.923636 276.01162 
L 397.641818 275.982126 
L 397.923636 275.952632 
L 397.923636 276.30656 
L 397.923636 275.687187 
L 397.923636 275.982126 
L 397.641818 275.775669 
L 397.923636 276.218078 
L 397.923636 276.218078 
L 397.641818 276.041114 
L 397.923636 276.277066 
L 397.641818 276.15909 
L 397.923636 275.746175 
L 397.923636 276.277066 
L 397.923636 275.834656 
L 397.641818 276.30656 
L 397.641818 275.834656 
L 397.923636 275.923138 
L 397.923636 275.893644 
L 397.641818 276.218078 
L 397.641818 275.86415 
L 397.641818 276.100102 
L 397.923636 275.923138 
L 397.923636 276.218078 
L 397.641818 276.041114 
L 397.923636 275.834656 
L 397.923636 276.15909 
L 397.641818 275.775669 
L 397.923636 276.070608 
L 397.923636 275.923138 
L 397.641818 275.923138 
L 397.923636 276.218078 
L 397.923636 276.129596 
L 397.641818 276.336054 
L 397.923636 275.952632 
L 397.641818 275.86415 
L 397.923636 275.982126 
L 397.923636 275.952632 
L 397.641818 276.100102 
L 397.923636 275.893644 
L 397.923636 276.15909 
L 397.923636 275.805162 
L 397.923636 276.070608 
L 397.641818 276.129596 
L 397.923636 276.424536 
L 397.641818 276.188584 
L 397.641818 275.923138 
L 397.923636 275.893644 
L 397.641818 276.15909 
L 397.923636 275.893644 
L 397.923636 276.218078 
L 397.923636 275.952632 
L 397.641818 276.129596 
L 397.641818 276.041114 
L 397.923636 276.100102 
L 397.923636 275.952632 
L 397.923636 276.365548 
L 397.36 276.041114 
L 397.923636 275.86415 
L 397.641818 276.129596 
L 397.923636 276.01162 
L 397.923636 276.070608 
L 397.641818 276.01162 
L 397.923636 276.070608 
L 397.923636 276.395042 
L 397.923636 275.687187 
L 397.923636 275.805162 
L 397.641818 275.893644 
L 397.923636 275.982126 
L 397.641818 276.01162 
L 397.923636 275.86415 
L 397.641818 276.100102 
L 397.923636 275.86415 
L 397.923636 276.188584 
L 397.641818 276.100102 
L 397.923636 275.982126 
L 397.923636 276.041114 
L 397.923636 275.952632 
L 397.641818 276.15909 
L 397.923636 275.923138 
L 397.923636 275.805162 
L 397.641818 276.070608 
L 397.923636 276.129596 
L 397.641818 276.277066 
L 397.923636 275.775669 
L 397.923636 276.129596 
L 397.923636 275.687187 
L 397.923636 276.041114 
L 397.641818 275.923138 
L 397.923636 275.982126 
L 397.641818 276.15909 
L 397.923636 276.01162 
L 397.641818 275.923138 
L 397.923636 276.070608 
L 397.923636 276.15909 
L 397.923636 276.129596 
L 397.641818 276.041114 
L 397.923636 276.070608 
L 397.923636 275.805162 
L 397.641818 276.070608 
L 397.641818 275.952632 
L 397.923636 276.01162 
L 397.641818 275.952632 
L 397.641818 276.188584 
L 397.923636 275.952632 
L 397.641818 275.952632 
L 397.641818 276.247572 
L 397.641818 276.100102 
L 397.923636 276.277066 
L 397.923636 275.923138 
L 397.641818 276.15909 
L 397.923636 276.30656 
L 397.923636 275.775669 
L 397.923636 275.923138 
L 397.641818 276.218078 
L 397.923636 275.746175 
L 397.923636 276.070608 
L 397.923636 275.982126 
L 397.641818 276.15909 
L 397.923636 275.86415 
L 397.923636 276.336054 
L 397.641818 276.041114 
L 397.923636 275.893644 
L 397.641818 276.070608 
L 397.641818 276.365548 
L 397.923636 276.129596 
L 397.923636 275.86415 
L 397.923636 276.277066 
L 397.641818 276.070608 
L 397.641818 276.336054 
L 397.641818 276.129596 
L 397.923636 276.365548 
L 397.923636 276.513018 
L 397.923636 276.041114 
L 397.641818 276.070608 
L 397.923636 276.129596 
L 397.923636 276.247572 
L 397.641818 276.129596 
L 397.923636 276.188584 
L 397.923636 275.834656 
L 397.923636 276.365548 
L 397.641818 276.424536 
L 397.641818 276.15909 
L 397.923636 276.277066 
L 397.923636 276.277066 
L 398.205455 276.218078 
L 397.923636 276.188584 
L 397.641818 276.15909 
L 397.923636 276.424536 
L 397.923636 276.30656 
L 397.923636 276.188584 
L 397.641818 276.247572 
L 397.923636 276.395042 
L 397.923636 275.982126 
L 397.923636 276.15909 
L 397.641818 276.100102 
L 397.923636 276.188584 
L 397.641818 276.30656 
L 397.641818 276.277066 
L 397.923636 276.483524 
L 397.923636 276.129596 
L 397.923636 276.30656 
L 397.641818 276.01162 
L 397.923636 276.188584 
L 397.641818 276.45403 
L 397.923636 276.336054 
L 397.923636 276.45403 
L 397.923636 276.129596 
L 397.923636 276.247572 
L 397.641818 276.395042 
L 397.923636 276.247572 
L 397.923636 276.572006 
L 397.923636 276.070608 
L 397.923636 276.188584 
L 397.641818 276.218078 
L 397.923636 276.100102 
L 397.923636 276.45403 
L 397.641818 276.30656 
L 397.923636 276.129596 
L 397.641818 276.041114 
L 397.641818 276.188584 
L 397.923636 276.247572 
L 397.641818 276.041114 
L 397.923636 276.365548 
L 397.641818 276.15909 
L 397.641818 276.188584 
L 397.923636 276.041114 
L 397.641818 276.277066 
L 397.923636 276.100102 
L 397.923636 276.365548 
L 397.923636 276.070608 
L 397.923636 276.129596 
L 397.641818 275.923138 
L 397.923636 276.247572 
L 397.923636 275.952632 
L 397.641818 276.01162 
L 397.641818 275.952632 
L 397.923636 276.218078 
L 397.641818 275.746175 
L 397.641818 276.15909 
L 397.923636 275.923138 
L 397.641818 275.952632 
L 397.923636 275.982126 
L 397.641818 275.716681 
L 397.923636 276.424536 
L 397.641818 276.188584 
L 397.923636 275.893644 
L 397.641818 276.15909 
L 397.641818 275.86415 
L 397.641818 276.041114 
L 397.923636 275.893644 
L 397.641818 275.687187 
L 397.641818 276.070608 
L 397.923636 275.982126 
L 397.923636 276.070608 
L 397.923636 275.775669 
L 397.923636 276.218078 
L 397.923636 275.893644 
L 397.641818 275.746175 
L 397.923636 275.952632 
L 397.641818 275.86415 
L 397.923636 276.070608 
L 397.923636 276.070608 
L 397.923636 275.805162 
L 397.923636 275.805162 
L 397.641818 276.100102 
L 397.923636 276.041114 
L 397.641818 275.834656 
L 397.923636 275.86415 
L 397.641818 275.775669 
L 397.923636 275.716681 
L 397.923636 275.539717 
L 397.923636 275.923138 
L 397.641818 275.86415 
L 397.923636 275.86415 
L 397.923636 275.628199 
L 397.923636 275.716681 
L 397.641818 275.746175 
L 397.923636 275.746175 
L 397.923636 275.982126 
L 397.923636 275.510223 
L 397.923636 275.893644 
L 397.641818 275.746175 
L 397.923636 275.746175 
L 397.641818 275.893644 
L 397.641818 275.716681 
L 397.923636 276.01162 
L 397.923636 275.598705 
L 397.923636 275.716681 
L 397.641818 275.923138 
L 397.923636 275.923138 
L 397.923636 275.451235 
L 397.641818 275.86415 
L 397.923636 275.716681 
L 397.923636 275.539717 
L 397.923636 275.834656 
L 397.923636 275.598705 
L 397.641818 275.569211 
L 397.923636 275.982126 
L 397.923636 275.392247 
L 398.205455 276.100102 
L 397.641818 275.687187 
L 397.641818 275.716681 
L 397.923636 276.041114 
L 397.923636 275.510223 
L 397.923636 275.510223 
L 397.641818 275.805162 
L 397.923636 275.628199 
L 397.923636 275.746175 
L 397.923636 275.834656 
L 397.641818 275.687187 
L 397.923636 275.923138 
L 397.641818 275.805162 
L 397.923636 275.598705 
L 397.923636 275.923138 
L 397.641818 276.01162 
L 397.923636 275.834656 
L 397.923636 275.657693 
L 397.923636 275.86415 
L 397.641818 275.834656 
L 397.641818 275.687187 
L 397.923636 275.834656 
L 397.923636 276.01162 
L 397.923636 275.657693 
L 397.641818 275.480729 
L 397.923636 275.834656 
L 397.923636 275.510223 
L 397.923636 275.569211 
L 397.641818 275.687187 
L 397.923636 275.805162 
L 397.641818 277.33885 
L 397.923636 279.78685 
L 397.923636 287.455286 
L 397.641818 293.56054 
L 397.923636 295.182709 
L 397.923636 295.182709 
L 397.641818 295.182709 
L 398.205455 295.153215 
L 397.923636 295.182709 
" style="fill:none;stroke:#1f77b4;stroke-linecap:square;stroke-width:1.5;"/>
   </g>
   <g id="line2d_19">
    <path clip-path="url(#pe8ddbb86a6)" d="M 73.832727 295.333078 
L 79.357379 295.463561 
L 83.582113 295.454274 
L 91.056642 295.328869 
L 99.18113 295.446039 
L 106.33068 295.288998 
L 114.780147 295.434946 
L 121.604717 295.236369 
L 130.704144 295.401599 
L 136.553776 295.157884 
L 140.12855 295.34542 
L 143.703325 295.487389 
L 146.628141 295.349372 
L 151.502834 295.05668 
L 154.10267 295.167768 
L 159.302342 295.486733 
L 161.902179 295.333444 
L 166.776871 294.915402 
L 169.051728 295.001941 
L 175.226339 295.477131 
L 177.501196 295.268658 
L 182.050909 294.696781 
L 184.000786 294.742779 
L 186.275643 295.051189 
L 189.200459 295.453801 
L 190.825356 295.469617 
L 192.450254 295.28087 
L 195.37507 294.644173 
L 197.324947 294.329153 
L 198.949844 294.308538 
L 200.574742 294.533092 
L 205.449435 295.484305 
L 206.749353 295.417979 
L 208.049271 295.145064 
L 209.999148 294.467851 
L 212.274005 293.703247 
L 213.573923 293.504237 
L 214.873841 293.568262 
L 216.173759 293.89019 
L 218.123636 294.666908 
L 219.748534 295.264647 
L 221.048452 295.483895 
L 222.023391 295.419294 
L 222.998329 295.137395 
L 224.298247 294.455178 
L 226.248124 293.062069 
L 227.873022 292.023104 
L 228.847961 291.650898 
L 229.822899 291.553502 
L 230.797838 291.759962 
L 231.772776 292.253347 
L 233.072695 293.237962 
L 235.022572 294.825384 
L 235.99751 295.341558 
L 236.647469 295.483012 
L 237.297428 295.422499 
L 237.947387 295.137341 
L 238.597346 294.617707 
L 239.247305 293.86834 
L 240.222244 292.362097 
L 241.522162 289.865924 
L 243.472039 286.136134 
L 244.446978 284.837494 
L 245.096937 284.345226 
L 245.746896 284.21288 
L 246.396855 284.470764 
L 247.046814 285.124501 
L 247.696773 286.151393 
L 248.671712 288.265682 
L 251.271548 294.518669 
L 251.921507 295.325862 
L 252.246486 295.479857 
L 252.571466 295.43238 
L 252.896446 295.15735 
L 253.221425 294.629219 
L 253.546405 293.823274 
L 254.196364 291.285077 
L 254.846323 287.373207 
L 255.496282 281.950449 
L 256.146241 274.920498 
L 257.121179 261.271758 
L 258.096118 243.981943 
L 259.396036 215.943218 
L 261.345913 166.93427 
L 263.62077 110.069668 
L 264.920688 83.722347 
L 265.895627 69.068363 
L 266.545586 62.246189 
L 267.195545 58.007644 
L 267.520524 56.896373 
L 267.845504 56.46885 
L 268.170483 56.728024 
L 268.495463 57.672107 
L 268.820442 59.294596 
L 269.470401 64.5256 
L 270.12036 72.278023 
L 271.095299 88.157739 
L 272.070238 108.272554 
L 273.695135 147.959397 
L 276.619951 221.610796 
L 277.919869 248.659345 
L 278.894808 265.055902 
L 279.869746 277.766278 
L 280.519705 284.181357 
L 281.169664 289.020278 
L 281.819623 292.395724 
L 282.469582 294.458171 
L 282.794562 295.052198 
L 283.119541 295.386973 
L 283.444521 295.487868 
L 283.7695 295.38086 
L 284.09448 295.092236 
L 284.744439 294.075089 
L 285.719378 291.830899 
L 287.669255 286.956993 
L 288.644193 285.231147 
L 289.294152 284.529821 
L 289.944111 284.22315 
L 290.59407 284.30881 
L 291.244029 284.75929 
L 291.893989 285.526343 
L 292.868927 287.127763 
L 296.443702 293.761436 
L 297.41864 294.841372 
L 298.0686 295.272267 
L 298.718559 295.470761 
L 299.368518 295.451774 
L 300.018477 295.242244 
L 300.993415 294.652149 
L 304.89317 291.790105 
L 305.868108 291.558892 
L 306.843047 291.631952 
L 307.817985 291.983752 
L 309.117903 292.772084 
L 312.367699 294.959093 
L 313.342637 295.328521 
L 314.317576 295.483089 
L 315.292514 295.426351 
L 316.592432 295.082984 
L 320.817166 293.581029 
L 322.117084 293.500279 
L 323.417002 293.68436 
L 325.0419 294.191422 
L 327.966716 295.210884 
L 329.266634 295.44684 
L 330.566552 295.473391 
L 332.19145 295.244645 
L 337.066143 294.295193 
L 338.69104 294.353738 
L 340.640917 294.698134 
L 344.215692 295.408884 
L 345.84059 295.486144 
L 347.790467 295.323131 
L 352.66516 294.6912 
L 354.615037 294.755919 
L 357.214873 295.11094 
L 360.139689 295.458566 
L 362.089566 295.465528 
L 364.689402 295.221973 
L 367.939197 294.927018 
L 370.214054 294.964903 
L 373.788829 295.325478 
L 376.388665 295.485795 
L 378.988501 295.395023 
L 384.513153 295.057616 
L 387.437969 295.207174 
L 391.987682 295.486799 
L 394.912498 295.393773 
L 398.487273 295.177468 
L 398.487273 295.177468 
" style="fill:none;stroke:#ff7f0e;stroke-linecap:square;stroke-width:1.5;"/>
   </g>
   <g id="patch_3">
    <path d="M 57.6 307.584 
L 57.6 41.472 
" style="fill:none;stroke:#000000;stroke-linecap:square;stroke-linejoin:miter;stroke-width:0.8;"/>
   </g>
   <g id="patch_4">
    <path d="M 414.72 307.584 
L 414.72 41.472 
" style="fill:none;stroke:#000000;stroke-linecap:square;stroke-linejoin:miter;stroke-width:0.8;"/>
   </g>
   <g id="patch_5">
    <path d="M 57.6 307.584 
L 414.72 307.584 
" style="fill:none;stroke:#000000;stroke-linecap:square;stroke-linejoin:miter;stroke-width:0.8;"/>
   </g>
   <g id="patch_6">
    <path d="M 57.6 41.472 
L 414.72 41.472 
" style="fill:none;stroke:#000000;stroke-linecap:square;stroke-linejoin:miter;stroke-width:0.8;"/>
   </g>
   <g id="legend_1">
    <g id="patch_7">
     <path d="M 313.723125 78.82825 
L 407.72 78.82825 
Q 409.72 78.82825 409.72 76.82825 
L 409.72 48.472 
Q 409.72 46.472 407.72 46.472 
L 313.723125 46.472 
Q 311.723125 46.472 311.723125 48.472 
L 311.723125 76.82825 
Q 311.723125 78.82825 313.723125 78.82825 
z
" style="fill:#ffffff;opacity:0.8;stroke:#cccccc;stroke-linejoin:miter;"/>
    </g>
    <g id="line2d_20">
     <path d="M 315.723125 54.570437 
L 335.723125 54.570437 
" style="fill:none;stroke:#1f77b4;stroke-linecap:square;stroke-width:1.5;"/>
    </g>
    <g id="line2d_21"/>
    <g id="text_18">
     <!-- .08Good2 -->
     <g transform="translate(343.723125 58.070437)scale(0.1 -0.1)">
      <defs>
       <path d="M 3809 666 
L 3809 1919 
L 2778 1919 
L 2778 2438 
L 4434 2438 
L 4434 434 
Q 4069 175 3628 42 
Q 3188 -91 2688 -91 
Q 1594 -91 976 548 
Q 359 1188 359 2328 
Q 359 3472 976 4111 
Q 1594 4750 2688 4750 
Q 3144 4750 3555 4637 
Q 3966 4525 4313 4306 
L 4313 3634 
Q 3963 3931 3569 4081 
Q 3175 4231 2741 4231 
Q 1884 4231 1454 3753 
Q 1025 3275 1025 2328 
Q 1025 1384 1454 906 
Q 1884 428 2741 428 
Q 3075 428 3337 486 
Q 3600 544 3809 666 
z
" id="DejaVuSans-47" transform="scale(0.015625)"/>
       <path d="M 1959 3097 
Q 1497 3097 1228 2736 
Q 959 2375 959 1747 
Q 959 1119 1226 758 
Q 1494 397 1959 397 
Q 2419 397 2687 759 
Q 2956 1122 2956 1747 
Q 2956 2369 2687 2733 
Q 2419 3097 1959 3097 
z
M 1959 3584 
Q 2709 3584 3137 3096 
Q 3566 2609 3566 1747 
Q 3566 888 3137 398 
Q 2709 -91 1959 -91 
Q 1206 -91 779 398 
Q 353 888 353 1747 
Q 353 2609 779 3096 
Q 1206 3584 1959 3584 
z
" id="DejaVuSans-6f" transform="scale(0.015625)"/>
       <path d="M 2906 2969 
L 2906 4863 
L 3481 4863 
L 3481 0 
L 2906 0 
L 2906 525 
Q 2725 213 2448 61 
Q 2172 -91 1784 -91 
Q 1150 -91 751 415 
Q 353 922 353 1747 
Q 353 2572 751 3078 
Q 1150 3584 1784 3584 
Q 2172 3584 2448 3432 
Q 2725 3281 2906 2969 
z
M 947 1747 
Q 947 1113 1208 752 
Q 1469 391 1925 391 
Q 2381 391 2643 752 
Q 2906 1113 2906 1747 
Q 2906 2381 2643 2742 
Q 2381 3103 1925 3103 
Q 1469 3103 1208 2742 
Q 947 2381 947 1747 
z
" id="DejaVuSans-64" transform="scale(0.015625)"/>
      </defs>
      <use xlink:href="#DejaVuSans-2e"/>
      <use x="31.787109" xlink:href="#DejaVuSans-30"/>
      <use x="95.410156" xlink:href="#DejaVuSans-38"/>
      <use x="159.033203" xlink:href="#DejaVuSans-47"/>
      <use x="236.523438" xlink:href="#DejaVuSans-6f"/>
      <use x="297.705078" xlink:href="#DejaVuSans-6f"/>
      <use x="358.886719" xlink:href="#DejaVuSans-64"/>
      <use x="422.363281" xlink:href="#DejaVuSans-32"/>
     </g>
    </g>
    <g id="line2d_22">
     <path d="M 315.723125 69.248562 
L 335.723125 69.248562 
" style="fill:none;stroke:#ff7f0e;stroke-linecap:square;stroke-width:1.5;"/>
    </g>
    <g id="line2d_23"/>
    <g id="text_19">
     <!-- .08Good2 fit -->
     <g transform="translate(343.723125 72.748562)scale(0.1 -0.1)">
      <defs>
       <path id="DejaVuSans-20" transform="scale(0.015625)"/>
       <path d="M 2375 4863 
L 2375 4384 
L 1825 4384 
Q 1516 4384 1395 4259 
Q 1275 4134 1275 3809 
L 1275 3500 
L 2222 3500 
L 2222 3053 
L 1275 3053 
L 1275 0 
L 697 0 
L 697 3053 
L 147 3053 
L 147 3500 
L 697 3500 
L 697 3744 
Q 697 4328 969 4595 
Q 1241 4863 1831 4863 
L 2375 4863 
z
" id="DejaVuSans-66" transform="scale(0.015625)"/>
       <path d="M 603 3500 
L 1178 3500 
L 1178 0 
L 603 0 
L 603 3500 
z
M 603 4863 
L 1178 4863 
L 1178 4134 
L 603 4134 
L 603 4863 
z
" id="DejaVuSans-69" transform="scale(0.015625)"/>
       <path d="M 1172 4494 
L 1172 3500 
L 2356 3500 
L 2356 3053 
L 1172 3053 
L 1172 1153 
Q 1172 725 1289 603 
Q 1406 481 1766 481 
L 2356 481 
L 2356 0 
L 1766 0 
Q 1100 0 847 248 
Q 594 497 594 1153 
L 594 3053 
L 172 3053 
L 172 3500 
L 594 3500 
L 594 4494 
L 1172 4494 
z
" id="DejaVuSans-74" transform="scale(0.015625)"/>
      </defs>
      <use xlink:href="#DejaVuSans-2e"/>
      <use x="31.787109" xlink:href="#DejaVuSans-30"/>
      <use x="95.410156" xlink:href="#DejaVuSans-38"/>
      <use x="159.033203" xlink:href="#DejaVuSans-47"/>
      <use x="236.523438" xlink:href="#DejaVuSans-6f"/>
      <use x="297.705078" xlink:href="#DejaVuSans-6f"/>
      <use x="358.886719" xlink:href="#DejaVuSans-64"/>
      <use x="422.363281" xlink:href="#DejaVuSans-32"/>
      <use x="485.986328" xlink:href="#DejaVuSans-20"/>
      <use x="517.773438" xlink:href="#DejaVuSans-66"/>
      <use x="552.978516" xlink:href="#DejaVuSans-69"/>
      <use x="580.761719" xlink:href="#DejaVuSans-74"/>
     </g>
    </g>
   </g>
  </g>
 </g>
 <defs>
  <clipPath id="pe8ddbb86a6">
   <rect height="266.112" width="357.12" x="57.6" y="41.472"/>
  </clipPath>
 </defs>
</svg>
