<?xml version="1.0" encoding="utf-8" standalone="no"?>
<!DOCTYPE svg PUBLIC "-//W3C//DTD SVG 1.1//EN"
  "http://www.w3.org/Graphics/SVG/1.1/DTD/svg11.dtd">
<svg height="345.6pt" version="1.1" viewBox="0 0 460.8 345.6" width="460.8pt" xmlns="http://www.w3.org/2000/svg" xmlns:xlink="http://www.w3.org/1999/xlink">
 <metadata>
  <rdf:RDF xmlns:cc="http://creativecommons.org/ns#" xmlns:dc="http://purl.org/dc/elements/1.1/" xmlns:rdf="http://www.w3.org/1999/02/22-rdf-syntax-ns#">
   <cc:Work>
    <dc:type rdf:resource="http://purl.org/dc/dcmitype/StillImage"/>
    <dc:date>2021-05-03T09:09:02.319922</dc:date>
    <dc:format>image/svg+xml</dc:format>
    <dc:creator>
     <cc:Agent>
      <dc:title>Matplotlib v3.4.1, https://matplotlib.org/</dc:title>
     </cc:Agent>
    </dc:creator>
   </cc:Work>
  </rdf:RDF>
 </metadata>
 <defs>
  <style type="text/css">*{stroke-linecap:butt;stroke-linejoin:round;}</style>
 </defs>
 <g id="figure_1">
  <g id="patch_1">
   <path d="M 0 345.6 
L 460.8 345.6 
L 460.8 0 
L 0 0 
z
" style="fill:#ffffff;"/>
  </g>
  <g id="axes_1">
   <g id="patch_2">
    <path d="M 57.6 307.584 
L 414.72 307.584 
L 414.72 41.472 
L 57.6 41.472 
z
" style="fill:#ffffff;"/>
   </g>
   <g id="matplotlib.axis_1">
    <g id="xtick_1">
     <g id="line2d_1">
      <defs>
       <path d="M 0 0 
L 0 3.5 
" id="m6e972ac2de" style="stroke:#000000;stroke-width:0.8;"/>
      </defs>
      <g>
       <use style="stroke:#000000;stroke-width:0.8;" x="66.045867" xlink:href="#m6e972ac2de" y="307.584"/>
      </g>
     </g>
     <g id="text_1">
      <!-- −0.6 -->
      <g transform="translate(53.904461 322.182437)scale(0.1 -0.1)">
       <defs>
        <path d="M 678 2272 
L 4684 2272 
L 4684 1741 
L 678 1741 
L 678 2272 
z
" id="DejaVuSans-2212" transform="scale(0.015625)"/>
        <path d="M 2034 4250 
Q 1547 4250 1301 3770 
Q 1056 3291 1056 2328 
Q 1056 1369 1301 889 
Q 1547 409 2034 409 
Q 2525 409 2770 889 
Q 3016 1369 3016 2328 
Q 3016 3291 2770 3770 
Q 2525 4250 2034 4250 
z
M 2034 4750 
Q 2819 4750 3233 4129 
Q 3647 3509 3647 2328 
Q 3647 1150 3233 529 
Q 2819 -91 2034 -91 
Q 1250 -91 836 529 
Q 422 1150 422 2328 
Q 422 3509 836 4129 
Q 1250 4750 2034 4750 
z
" id="DejaVuSans-30" transform="scale(0.015625)"/>
        <path d="M 684 794 
L 1344 794 
L 1344 0 
L 684 0 
L 684 794 
z
" id="DejaVuSans-2e" transform="scale(0.015625)"/>
        <path d="M 2113 2584 
Q 1688 2584 1439 2293 
Q 1191 2003 1191 1497 
Q 1191 994 1439 701 
Q 1688 409 2113 409 
Q 2538 409 2786 701 
Q 3034 994 3034 1497 
Q 3034 2003 2786 2293 
Q 2538 2584 2113 2584 
z
M 3366 4563 
L 3366 3988 
Q 3128 4100 2886 4159 
Q 2644 4219 2406 4219 
Q 1781 4219 1451 3797 
Q 1122 3375 1075 2522 
Q 1259 2794 1537 2939 
Q 1816 3084 2150 3084 
Q 2853 3084 3261 2657 
Q 3669 2231 3669 1497 
Q 3669 778 3244 343 
Q 2819 -91 2113 -91 
Q 1303 -91 875 529 
Q 447 1150 447 2328 
Q 447 3434 972 4092 
Q 1497 4750 2381 4750 
Q 2619 4750 2861 4703 
Q 3103 4656 3366 4563 
z
" id="DejaVuSans-36" transform="scale(0.015625)"/>
       </defs>
       <use xlink:href="#DejaVuSans-2212"/>
       <use x="83.789062" xlink:href="#DejaVuSans-30"/>
       <use x="147.412109" xlink:href="#DejaVuSans-2e"/>
       <use x="179.199219" xlink:href="#DejaVuSans-36"/>
      </g>
     </g>
    </g>
    <g id="xtick_2">
     <g id="line2d_2">
      <g>
       <use style="stroke:#000000;stroke-width:0.8;" x="126.777881" xlink:href="#m6e972ac2de" y="307.584"/>
      </g>
     </g>
     <g id="text_2">
      <!-- −0.4 -->
      <g transform="translate(114.636475 322.182437)scale(0.1 -0.1)">
       <defs>
        <path d="M 2419 4116 
L 825 1625 
L 2419 1625 
L 2419 4116 
z
M 2253 4666 
L 3047 4666 
L 3047 1625 
L 3713 1625 
L 3713 1100 
L 3047 1100 
L 3047 0 
L 2419 0 
L 2419 1100 
L 313 1100 
L 313 1709 
L 2253 4666 
z
" id="DejaVuSans-34" transform="scale(0.015625)"/>
       </defs>
       <use xlink:href="#DejaVuSans-2212"/>
       <use x="83.789062" xlink:href="#DejaVuSans-30"/>
       <use x="147.412109" xlink:href="#DejaVuSans-2e"/>
       <use x="179.199219" xlink:href="#DejaVuSans-34"/>
      </g>
     </g>
    </g>
    <g id="xtick_3">
     <g id="line2d_3">
      <g>
       <use style="stroke:#000000;stroke-width:0.8;" x="187.509896" xlink:href="#m6e972ac2de" y="307.584"/>
      </g>
     </g>
     <g id="text_3">
      <!-- −0.2 -->
      <g transform="translate(175.36849 322.182437)scale(0.1 -0.1)">
       <defs>
        <path d="M 1228 531 
L 3431 531 
L 3431 0 
L 469 0 
L 469 531 
Q 828 903 1448 1529 
Q 2069 2156 2228 2338 
Q 2531 2678 2651 2914 
Q 2772 3150 2772 3378 
Q 2772 3750 2511 3984 
Q 2250 4219 1831 4219 
Q 1534 4219 1204 4116 
Q 875 4013 500 3803 
L 500 4441 
Q 881 4594 1212 4672 
Q 1544 4750 1819 4750 
Q 2544 4750 2975 4387 
Q 3406 4025 3406 3419 
Q 3406 3131 3298 2873 
Q 3191 2616 2906 2266 
Q 2828 2175 2409 1742 
Q 1991 1309 1228 531 
z
" id="DejaVuSans-32" transform="scale(0.015625)"/>
       </defs>
       <use xlink:href="#DejaVuSans-2212"/>
       <use x="83.789062" xlink:href="#DejaVuSans-30"/>
       <use x="147.412109" xlink:href="#DejaVuSans-2e"/>
       <use x="179.199219" xlink:href="#DejaVuSans-32"/>
      </g>
     </g>
    </g>
    <g id="xtick_4">
     <g id="line2d_4">
      <g>
       <use style="stroke:#000000;stroke-width:0.8;" x="248.24191" xlink:href="#m6e972ac2de" y="307.584"/>
      </g>
     </g>
     <g id="text_4">
      <!-- 0.0 -->
      <g transform="translate(240.290348 322.182437)scale(0.1 -0.1)">
       <use xlink:href="#DejaVuSans-30"/>
       <use x="63.623047" xlink:href="#DejaVuSans-2e"/>
       <use x="95.410156" xlink:href="#DejaVuSans-30"/>
      </g>
     </g>
    </g>
    <g id="xtick_5">
     <g id="line2d_5">
      <g>
       <use style="stroke:#000000;stroke-width:0.8;" x="308.973925" xlink:href="#m6e972ac2de" y="307.584"/>
      </g>
     </g>
     <g id="text_5">
      <!-- 0.2 -->
      <g transform="translate(301.022362 322.182437)scale(0.1 -0.1)">
       <use xlink:href="#DejaVuSans-30"/>
       <use x="63.623047" xlink:href="#DejaVuSans-2e"/>
       <use x="95.410156" xlink:href="#DejaVuSans-32"/>
      </g>
     </g>
    </g>
    <g id="xtick_6">
     <g id="line2d_6">
      <g>
       <use style="stroke:#000000;stroke-width:0.8;" x="369.705939" xlink:href="#m6e972ac2de" y="307.584"/>
      </g>
     </g>
     <g id="text_6">
      <!-- 0.4 -->
      <g transform="translate(361.754377 322.182437)scale(0.1 -0.1)">
       <use xlink:href="#DejaVuSans-30"/>
       <use x="63.623047" xlink:href="#DejaVuSans-2e"/>
       <use x="95.410156" xlink:href="#DejaVuSans-34"/>
      </g>
     </g>
    </g>
   </g>
   <g id="matplotlib.axis_2">
    <g id="ytick_1">
     <g id="line2d_7">
      <defs>
       <path d="M 0 0 
L -3.5 0 
" id="m7376a8890b" style="stroke:#000000;stroke-width:0.8;"/>
      </defs>
      <g>
       <use style="stroke:#000000;stroke-width:0.8;" x="57.6" xlink:href="#m7376a8890b" y="295.488001"/>
      </g>
     </g>
     <g id="text_7">
      <!-- 0.00 -->
      <g transform="translate(28.334375 299.287219)scale(0.1 -0.1)">
       <use xlink:href="#DejaVuSans-30"/>
       <use x="63.623047" xlink:href="#DejaVuSans-2e"/>
       <use x="95.410156" xlink:href="#DejaVuSans-30"/>
       <use x="159.033203" xlink:href="#DejaVuSans-30"/>
      </g>
     </g>
    </g>
    <g id="ytick_2">
     <g id="line2d_8">
      <g>
       <use style="stroke:#000000;stroke-width:0.8;" x="57.6" xlink:href="#m7376a8890b" y="263.000672"/>
      </g>
     </g>
     <g id="text_8">
      <!-- 0.02 -->
      <g transform="translate(28.334375 266.799891)scale(0.1 -0.1)">
       <use xlink:href="#DejaVuSans-30"/>
       <use x="63.623047" xlink:href="#DejaVuSans-2e"/>
       <use x="95.410156" xlink:href="#DejaVuSans-30"/>
       <use x="159.033203" xlink:href="#DejaVuSans-32"/>
      </g>
     </g>
    </g>
    <g id="ytick_3">
     <g id="line2d_9">
      <g>
       <use style="stroke:#000000;stroke-width:0.8;" x="57.6" xlink:href="#m7376a8890b" y="230.513343"/>
      </g>
     </g>
     <g id="text_9">
      <!-- 0.04 -->
      <g transform="translate(28.334375 234.312562)scale(0.1 -0.1)">
       <use xlink:href="#DejaVuSans-30"/>
       <use x="63.623047" xlink:href="#DejaVuSans-2e"/>
       <use x="95.410156" xlink:href="#DejaVuSans-30"/>
       <use x="159.033203" xlink:href="#DejaVuSans-34"/>
      </g>
     </g>
    </g>
    <g id="ytick_4">
     <g id="line2d_10">
      <g>
       <use style="stroke:#000000;stroke-width:0.8;" x="57.6" xlink:href="#m7376a8890b" y="198.026015"/>
      </g>
     </g>
     <g id="text_10">
      <!-- 0.06 -->
      <g transform="translate(28.334375 201.825234)scale(0.1 -0.1)">
       <use xlink:href="#DejaVuSans-30"/>
       <use x="63.623047" xlink:href="#DejaVuSans-2e"/>
       <use x="95.410156" xlink:href="#DejaVuSans-30"/>
       <use x="159.033203" xlink:href="#DejaVuSans-36"/>
      </g>
     </g>
    </g>
    <g id="ytick_5">
     <g id="line2d_11">
      <g>
       <use style="stroke:#000000;stroke-width:0.8;" x="57.6" xlink:href="#m7376a8890b" y="165.538686"/>
      </g>
     </g>
     <g id="text_11">
      <!-- 0.08 -->
      <g transform="translate(28.334375 169.337905)scale(0.1 -0.1)">
       <defs>
        <path d="M 2034 2216 
Q 1584 2216 1326 1975 
Q 1069 1734 1069 1313 
Q 1069 891 1326 650 
Q 1584 409 2034 409 
Q 2484 409 2743 651 
Q 3003 894 3003 1313 
Q 3003 1734 2745 1975 
Q 2488 2216 2034 2216 
z
M 1403 2484 
Q 997 2584 770 2862 
Q 544 3141 544 3541 
Q 544 4100 942 4425 
Q 1341 4750 2034 4750 
Q 2731 4750 3128 4425 
Q 3525 4100 3525 3541 
Q 3525 3141 3298 2862 
Q 3072 2584 2669 2484 
Q 3125 2378 3379 2068 
Q 3634 1759 3634 1313 
Q 3634 634 3220 271 
Q 2806 -91 2034 -91 
Q 1263 -91 848 271 
Q 434 634 434 1313 
Q 434 1759 690 2068 
Q 947 2378 1403 2484 
z
M 1172 3481 
Q 1172 3119 1398 2916 
Q 1625 2713 2034 2713 
Q 2441 2713 2670 2916 
Q 2900 3119 2900 3481 
Q 2900 3844 2670 4047 
Q 2441 4250 2034 4250 
Q 1625 4250 1398 4047 
Q 1172 3844 1172 3481 
z
" id="DejaVuSans-38" transform="scale(0.015625)"/>
       </defs>
       <use xlink:href="#DejaVuSans-30"/>
       <use x="63.623047" xlink:href="#DejaVuSans-2e"/>
       <use x="95.410156" xlink:href="#DejaVuSans-30"/>
       <use x="159.033203" xlink:href="#DejaVuSans-38"/>
      </g>
     </g>
    </g>
    <g id="ytick_6">
     <g id="line2d_12">
      <g>
       <use style="stroke:#000000;stroke-width:0.8;" x="57.6" xlink:href="#m7376a8890b" y="133.051358"/>
      </g>
     </g>
     <g id="text_12">
      <!-- 0.10 -->
      <g transform="translate(28.334375 136.850576)scale(0.1 -0.1)">
       <defs>
        <path d="M 794 531 
L 1825 531 
L 1825 4091 
L 703 3866 
L 703 4441 
L 1819 4666 
L 2450 4666 
L 2450 531 
L 3481 531 
L 3481 0 
L 794 0 
L 794 531 
z
" id="DejaVuSans-31" transform="scale(0.015625)"/>
       </defs>
       <use xlink:href="#DejaVuSans-30"/>
       <use x="63.623047" xlink:href="#DejaVuSans-2e"/>
       <use x="95.410156" xlink:href="#DejaVuSans-31"/>
       <use x="159.033203" xlink:href="#DejaVuSans-30"/>
      </g>
     </g>
    </g>
    <g id="ytick_7">
     <g id="line2d_13">
      <g>
       <use style="stroke:#000000;stroke-width:0.8;" x="57.6" xlink:href="#m7376a8890b" y="100.564029"/>
      </g>
     </g>
     <g id="text_13">
      <!-- 0.12 -->
      <g transform="translate(28.334375 104.363248)scale(0.1 -0.1)">
       <use xlink:href="#DejaVuSans-30"/>
       <use x="63.623047" xlink:href="#DejaVuSans-2e"/>
       <use x="95.410156" xlink:href="#DejaVuSans-31"/>
       <use x="159.033203" xlink:href="#DejaVuSans-32"/>
      </g>
     </g>
    </g>
    <g id="ytick_8">
     <g id="line2d_14">
      <g>
       <use style="stroke:#000000;stroke-width:0.8;" x="57.6" xlink:href="#m7376a8890b" y="68.0767"/>
      </g>
     </g>
     <g id="text_14">
      <!-- 0.14 -->
      <g transform="translate(28.334375 71.875919)scale(0.1 -0.1)">
       <use xlink:href="#DejaVuSans-30"/>
       <use x="63.623047" xlink:href="#DejaVuSans-2e"/>
       <use x="95.410156" xlink:href="#DejaVuSans-31"/>
       <use x="159.033203" xlink:href="#DejaVuSans-34"/>
      </g>
     </g>
    </g>
   </g>
   <g id="line2d_15">
    <path clip-path="url(#p68975d39dd)" d="M 74.224349 295.161478 
L 74.224349 295.190244 
L 74.224349 295.132712 
L 74.224349 295.161478 
L 77.357324 295.21901 
L 73.832727 295.161478 
L 76.965702 295.21901 
L 77.357324 295.276542 
L 77.357324 295.21901 
L 80.881921 295.161478 
L 80.881921 295.132712 
L 80.881921 295.103946 
L 82.056787 295.132712 
L 83.231653 295.132712 
L 83.231653 295.161478 
L 84.014896 295.190244 
L 84.014896 295.21901 
L 89.105981 295.161478 
L 89.105981 295.161478 
L 89.105981 295.103946 
L 90.280847 295.103946 
L 89.889225 295.103946 
L 91.06409 295.075179 
L 91.06409 295.075179 
L 94.197065 295.21901 
L 94.197065 295.190244 
L 93.805444 295.21901 
L 94.197065 295.21901 
L 94.588687 295.276542 
L 95.371931 295.21901 
L 95.371931 295.21901 
L 98.896528 295.161478 
L 98.896528 295.161478 
L 100.071394 295.046413 
L 100.463016 295.103946 
L 100.463016 295.075179 
L 101.637881 295.075179 
L 101.637881 295.103946 
L 101.637881 295.046413 
L 105.162478 295.21901 
L 106.728966 295.190244 
L 106.728966 295.190244 
L 108.295453 295.103946 
L 108.295453 295.132712 
L 108.295453 295.075179 
L 109.861941 295.103946 
L 111.428429 295.075179 
L 111.428429 295.103946 
L 112.603294 295.103946 
L 112.603294 295.132712 
L 113.386538 295.161478 
L 112.994916 295.190244 
L 116.127891 295.247776 
L 116.127891 295.21901 
L 119.652488 295.046413 
L 119.652488 295.046413 
L 119.652488 295.075179 
L 123.177085 295.132712 
L 123.177085 295.161478 
L 125.135195 295.21901 
L 125.135195 295.21901 
L 129.051414 295.017647 
L 129.051414 295.075179 
L 129.051414 295.017647 
L 132.184389 295.103946 
L 132.184389 295.075179 
L 132.967632 295.132712 
L 132.967632 295.103946 
L 136.100608 295.247776 
L 136.100608 295.21901 
L 137.275473 295.21901 
L 137.275473 295.21901 
L 137.275473 295.190244 
L 138.841961 295.017647 
L 138.841961 294.960115 
L 138.841961 294.960115 
L 142.366558 294.960115 
L 142.366558 295.046413 
L 146.282777 295.247776 
L 145.891155 295.247776 
L 148.240886 295.190244 
L 148.240886 295.161478 
L 148.240886 295.132712 
L 149.415752 295.075179 
L 149.415752 295.017647 
L 152.157105 294.902583 
L 152.157105 294.902583 
L 157.248189 295.21901 
L 162.730896 294.845051 
L 164.297383 295.017647 
L 164.297383 294.988881 
L 165.080627 295.017647 
L 165.080627 295.075179 
L 165.863871 295.21901 
L 165.863871 295.190244 
L 169.388468 295.132712 
L 169.388468 295.046413 
L 170.954956 294.873817 
L 171.346577 294.902583 
L 171.346577 294.845051 
L 172.913065 294.643688 
L 177.220906 295.046413 
L 178.787393 295.190244 
L 178.787393 295.161478 
L 178.787393 295.161478 
L 179.962259 295.190244 
L 179.962259 295.161478 
L 180.745503 295.103946 
L 180.745503 295.046413 
L 180.745503 295.046413 
L 181.920368 294.873817 
L 183.878478 294.643688 
L 183.878478 294.643688 
L 183.878478 294.70122 
L 184.661722 294.70122 
L 184.661722 294.787518 
L 184.661722 294.787518 
L 186.228209 294.816284 
L 186.228209 294.873817 
L 186.228209 294.960115 
L 190.53605 295.190244 
L 190.53605 295.103946 
L 191.319294 295.046413 
L 191.319294 295.017647 
L 192.102538 294.873817 
L 192.102538 294.845051 
L 193.669025 294.643688 
L 196.018756 294.327261 
L 196.018756 294.384793 
L 196.410378 294.356027 
L 196.410378 294.413559 
L 197.193622 294.557389 
L 197.193622 294.586156 
L 197.976866 294.729986 
L 198.76011 294.960115 
L 198.76011 295.017647 
L 200.718219 295.103946 
L 200.718219 295.075179 
L 201.893085 295.046413 
L 201.893085 294.988881 
L 201.893085 294.902583 
L 202.676329 294.70122 
L 202.676329 294.672454 
L 203.06795 294.557389 
L 203.06795 294.499857 
L 203.06795 294.499857 
L 203.851194 294.356027 
L 204.242816 294.269728 
L 203.851194 294.240962 
L 204.242816 294.18343 
L 205.417682 293.953301 
L 206.592547 294.154664 
L 206.592547 294.240962 
L 207.767413 294.327261 
L 207.767413 294.442325 
L 208.159035 294.442325 
L 207.767413 294.499857 
L 209.333901 294.816284 
L 209.333901 294.845051 
L 209.725523 294.931349 
L 209.725523 295.017647 
L 210.508766 295.132712 
L 210.508766 295.190244 
L 211.29201 295.161478 
L 211.29201 295.21901 
L 212.466876 295.046413 
L 212.075254 295.075179 
L 213.25012 294.758752 
L 213.25012 294.557389 
L 213.641741 294.557389 
L 213.641741 294.413559 
L 214.424985 294.212196 
L 214.424985 294.154664 
L 215.208229 293.982067 
L 214.816607 293.867003 
L 215.991473 293.636874 
L 215.991473 293.579342 
L 217.55796 293.550576 
L 217.55796 293.579342 
L 217.949582 293.521809 
L 217.949582 293.608108 
L 217.949582 293.694406 
L 218.341204 293.66564 
L 218.341204 293.751938 
L 219.124448 293.953301 
L 219.124448 294.068366 
L 219.51607 294.154664 
L 219.51607 294.269728 
L 219.907692 294.413559 
L 219.907692 294.471091 
L 220.690935 294.729986 
L 220.690935 294.845051 
L 221.474179 294.988881 
L 221.474179 295.132712 
L 222.649045 295.21901 
L 222.649045 295.161478 
L 223.432289 294.988881 
L 223.432289 294.758752 
L 224.215532 294.729986 
L 224.215532 294.70122 
L 224.998776 294.442325 
L 224.998776 293.66564 
L 225.390398 293.521809 
L 225.78202 293.119084 
L 225.78202 293.061552 
L 226.565264 293.061552 
L 226.565264 293.004019 
L 226.565264 292.63006 
L 227.348508 291.997206 
L 227.348508 291.882141 
L 227.740129 291.910907 
L 227.740129 291.910907 
L 227.740129 291.795843 
L 228.523373 291.910907 
L 228.914995 291.997206 
L 228.914995 292.198568 
L 229.306617 292.371165 
L 229.306617 292.745124 
L 229.698239 293.032786 
L 229.698239 293.205382 
L 230.089861 293.493043 
L 230.481483 293.723172 
L 230.481483 293.982067 
L 230.873105 294.125898 
L 230.873105 294.528623 
L 231.656348 294.70122 
L 231.656348 294.672454 
L 232.439592 294.845051 
L 232.439592 294.960115 
L 232.831214 295.017647 
L 232.831214 294.960115 
L 233.222836 294.902583 
L 233.222836 294.729986 
L 233.614458 294.528623 
L 233.614458 294.471091 
L 234.00608 294.499857 
L 234.00608 294.471091 
L 234.397702 294.384793 
L 234.397702 294.269728 
L 234.789323 294.097132 
L 234.789323 293.090318 
L 235.180945 292.486229 
L 235.180945 291.997206 
L 235.572567 291.680778 
L 235.572567 291.364351 
L 235.964189 291.047924 
L 235.964189 290.443836 
L 236.355811 290.213707 
L 236.747433 289.782215 
L 236.747433 288.401442 
L 237.139055 287.941184 
L 237.139055 287.222031 
L 237.530677 286.445346 
L 237.922298 286.330282 
L 237.922298 285.985088 
L 238.31392 286.128919 
L 238.31392 285.870024 
L 238.705542 285.697427 
L 238.705542 285.496064 
L 239.097164 285.265936 
L 239.097164 285.007041 
L 239.488786 285.007041 
L 239.488786 285.208403 
L 239.880408 285.409766 
L 239.880408 285.668661 
L 240.27203 285.611129 
L 240.27203 285.438532 
L 240.27203 285.611129 
L 240.663652 285.668661 
L 241.055274 285.985088 
L 241.055274 286.359048 
L 241.446895 286.93437 
L 241.446895 288.228845 
L 241.838517 288.746635 
L 241.838517 289.293191 
L 242.230139 289.983578 
L 242.230139 290.271239 
L 242.621761 290.472602 
L 242.621761 290.990392 
L 243.013383 291.220521 
L 243.013383 291.824609 
L 243.405005 292.313633 
L 243.405005 292.917721 
L 243.796627 293.406745 
L 243.796627 293.608108 
L 243.796627 293.493043 
L 244.188249 293.435511 
L 244.188249 292.831423 
L 244.579871 292.514996 
L 244.579871 291.968439 
L 244.971492 291.565714 
L 244.579871 291.134222 
L 244.971492 289.983578 
L 245.363114 288.171313 
L 245.363114 286.531644 
L 245.754736 283.82763 
L 245.754736 278.218238 
L 246.146358 276.118312 
L 246.146358 273.98962 
L 246.53798 272.838976 
L 246.53798 272.982806 
L 246.53798 274.047152 
L 246.929602 272.838976 
L 246.929602 271.371904 
L 247.321224 270.250026 
L 247.712846 266.826859 
L 247.712846 262.368111 
L 248.104468 259.807928 
L 248.104468 258.053195 
L 248.496089 256.672421 
L 248.496089 252.156142 
L 248.887711 247.179605 
L 248.887711 240.390803 
L 249.279333 237.053934 
L 249.279333 227.417287 
L 249.670955 225.461191 
L 250.062577 222.095556 
L 250.062577 211.595926 
L 250.454199 206.446792 
L 250.454199 195.51567 
L 250.845821 189.96381 
L 250.845821 186.828304 
L 251.237443 180.787421 
L 250.845821 174.027385 
L 251.629065 163.153795 
L 251.629065 154.063704 
L 252.020686 145.664 
L 252.020686 125.441424 
L 252.412308 123.140135 
L 252.80393 113.445956 
L 252.80393 106.369492 
L 253.195552 100.069714 
L 253.195552 83.241539 
L 253.587174 82.234725 
L 253.978796 75.733584 
L 253.978796 61.810787 
L 254.370418 59.538264 
L 256.720149 59.538264 
L 256.720149 59.538264 
L 256.720149 60.60261 
L 257.111771 65.751744 
L 257.503393 73.374763 
L 257.503393 82.522387 
L 257.503393 82.004597 
L 257.895015 85.341465 
L 257.895015 87.383859 
L 258.286637 90.346769 
L 258.286637 86.405811 
L 258.678259 91.238518 
L 258.678259 100.213545 
L 259.06988 104.09697 
L 259.06988 125.642787 
L 259.461502 133.984959 
L 259.461502 145.779064 
L 259.853124 152.567866 
L 259.853124 155.243115 
L 260.244746 158.522451 
L 260.244746 169.827533 
L 260.636368 175.235562 
L 260.636368 183.865395 
L 261.02799 192.55276 
L 261.02799 201.757916 
L 261.419612 209.726129 
L 261.419612 224.914635 
L 262.202856 236.334781 
L 262.202856 254.16977 
L 262.986099 263.461224 
L 262.986099 266.826859 
L 263.377721 267.143286 
L 262.986099 267.056987 
L 263.377721 266.855625 
L 263.377721 267.804906 
L 263.769343 269.588405 
L 264.160965 273.069105 
L 264.160965 288.027482 
L 264.944209 290.443836 
L 264.944209 291.680778 
L 265.335831 291.508182 
L 265.335831 291.767077 
L 265.727453 292.687592 
L 265.727453 293.982067 
L 266.119074 294.586156 
L 266.510696 294.787518 
L 266.119074 294.758752 
L 266.510696 294.729986 
L 266.902318 294.471091 
L 266.902318 294.097132 
L 267.29394 293.751938 
L 267.29394 293.205382 
L 267.685562 292.831423 
L 267.685562 292.457463 
L 268.077184 291.767077 
L 267.685562 291.047924 
L 268.468806 289.667151 
L 268.468806 288.890466 
L 268.860428 288.458974 
L 268.860428 287.595991 
L 269.25205 287.595991 
L 269.25205 287.135733 
L 269.643671 286.905604 
L 269.643671 287.078201 
L 269.643671 286.991902 
L 270.035293 286.819306 
L 270.426915 287.078201 
L 270.426915 286.963136 
L 270.426915 286.531644 
L 270.818537 286.560411 
L 270.818537 286.330282 
L 271.210159 286.215217 
L 271.210159 286.474112 
L 271.210159 286.474112 
L 271.993403 286.589177 
L 271.993403 286.790539 
L 272.385025 286.93437 
L 272.385025 287.106967 
L 272.776647 287.394628 
L 272.385025 287.624757 
L 272.776647 288.113781 
L 272.776647 288.890466 
L 273.168268 289.091828 
L 273.168268 289.494554 
L 273.55989 289.695917 
L 273.55989 290.443836 
L 273.951512 290.616432 
L 273.951512 291.249287 
L 274.734756 292.198568 
L 274.734756 292.486229 
L 275.126378 292.888955 
L 274.734756 293.090318 
L 275.126378 293.291681 
L 275.126378 293.723172 
L 275.518 293.780704 
L 275.518 293.982067 
L 276.301244 294.442325 
L 276.301244 295.075179 
L 277.476109 295.103946 
L 277.476109 295.075179 
L 277.476109 295.046413 
L 278.259353 294.960115 
L 278.259353 294.729986 
L 278.650975 294.557389 
L 278.650975 294.212196 
L 279.042597 294.039599 
L 279.042597 293.895769 
L 279.434219 293.723172 
L 279.434219 293.608108 
L 279.825841 293.435511 
L 279.825841 293.14785 
L 280.217462 293.234148 
L 280.217462 293.090318 
L 280.609084 292.745124 
L 280.609084 292.543762 
L 281.000706 292.63006 
L 281.000706 292.514996 
L 281.000706 292.572528 
L 281.392328 292.457463 
L 281.78395 292.486229 
L 281.78395 292.428697 
L 281.78395 292.342399 
L 281.78395 292.371165 
L 282.175572 292.486229 
L 283.742059 292.888955 
L 283.742059 292.975253 
L 284.133681 293.234148 
L 284.133681 293.320447 
L 284.525303 293.550576 
L 284.525303 293.924535 
L 285.308547 294.471091 
L 285.308547 294.672454 
L 285.700169 294.758752 
L 285.700169 294.758752 
L 285.700169 294.845051 
L 286.483413 294.960115 
L 286.483413 295.103946 
L 287.658278 295.190244 
L 287.658278 295.161478 
L 287.658278 295.161478 
L 288.441522 295.103946 
L 288.441522 295.075179 
L 288.441522 294.988881 
L 289.616388 294.672454 
L 289.616388 294.586156 
L 290.00801 294.442325 
L 290.00801 294.384793 
L 290.791253 294.154664 
L 290.791253 294.068366 
L 293.924229 294.154664 
L 294.707472 294.327261 
L 294.707472 294.557389 
L 295.490716 294.557389 
L 295.490716 294.643688 
L 296.665582 294.787518 
L 296.27396 294.845051 
L 297.448826 295.103946 
L 297.448826 295.103946 
L 297.448826 295.132712 
L 297.448826 295.103946 
L 298.623691 295.21901 
L 298.623691 295.190244 
L 299.406935 295.132712 
L 299.406935 295.103946 
L 300.581801 294.931349 
L 300.581801 294.902583 
L 301.365044 294.845051 
L 301.365044 294.758752 
L 302.53991 294.557389 
L 302.53991 294.557389 
L 302.931532 294.586156 
L 302.931532 294.586156 
L 303.323154 294.499857 
L 303.323154 294.528623 
L 304.889641 294.614922 
L 304.889641 294.614922 
L 305.281263 294.729986 
L 306.456129 294.816284 
L 306.456129 294.873817 
L 306.847751 294.873817 
L 306.847751 294.960115 
L 311.155592 295.190244 
L 311.155592 295.103946 
L 311.938835 295.132712 
L 311.938835 295.046413 
L 311.938835 295.075179 
L 313.113701 294.931349 
L 313.113701 294.873817 
L 313.896945 294.873817 
L 313.896945 294.787518 
L 313.896945 294.816284 
L 315.463432 294.787518 
L 316.638298 294.902583 
L 316.638298 294.988881 
L 318.988029 295.21901 
L 318.988029 295.21901 
L 318.988029 295.276542 
L 322.121004 295.103946 
L 322.121004 295.161478 
L 322.121004 295.132712 
L 323.687492 294.960115 
L 323.687492 294.960115 
L 326.428845 295.017647 
L 326.428845 295.075179 
L 327.995333 295.161478 
L 327.995333 295.190244 
L 327.995333 295.190244 
L 333.869661 295.103946 
L 333.869661 295.103946 
L 335.436149 295.075179 
L 335.436149 295.103946 
L 335.436149 295.075179 
L 338.569124 295.161478 
L 338.569124 295.161478 
L 338.569124 295.190244 
L 391.829701 295.276542 
L 391.829701 295.276542 
L 391.829701 295.305308 
L 393.396188 295.276542 
L 393.396188 295.276542 
L 398.487273 295.247776 
L 398.095651 295.276542 
L 398.095651 290.242473 
L 398.095651 291.508182 
L 397.704029 291.191754 
L 398.095651 291.249287 
L 398.095651 291.364351 
L 398.095651 291.019158 
L 398.095651 291.278053 
L 397.704029 291.134222 
L 398.095651 291.364351 
L 398.095651 291.162988 
L 398.095651 291.07669 
L 398.095651 291.795843 
L 398.095651 291.450649 
L 398.487273 291.738311 
L 398.095651 291.853375 
L 398.095651 291.508182 
L 398.095651 291.709544 
L 398.487273 291.795843 
L 398.095651 291.709544 
L 398.095651 291.59448 
L 398.095651 291.824609 
L 398.095651 291.709544 
L 397.704029 291.709544 
L 398.095651 291.623246 
L 398.095651 291.479416 
L 398.095651 291.59448 
L 398.487273 291.59448 
L 398.095651 291.680778 
L 398.095651 291.306819 
L 398.095651 291.59448 
L 397.704029 291.652012 
L 398.095651 291.565714 
L 398.095651 291.680778 
L 398.095651 291.968439 
L 398.095651 291.652012 
L 398.095651 291.795843 
L 397.704029 291.767077 
L 398.095651 291.795843 
L 398.095651 291.680778 
L 398.095651 292.169802 
L 398.095651 292.083504 
L 398.487273 292.054738 
L 398.095651 292.141036 
L 398.487273 292.083504 
L 398.095651 291.939673 
L 398.095651 292.141036 
L 398.095651 292.025972 
L 398.487273 292.11227 
L 398.095651 291.939673 
L 398.095651 292.141036 
L 398.095651 291.910907 
L 398.095651 292.141036 
L 397.704029 292.11227 
L 398.095651 291.939673 
L 398.095651 292.083504 
L 398.095651 292.169802 
L 397.704029 292.11227 
L 398.095651 292.141036 
L 398.095651 291.997206 
L 397.704029 292.141036 
L 398.095651 291.910907 
L 398.095651 292.025972 
L 397.704029 291.939673 
L 397.704029 292.025972 
L 398.095651 291.910907 
L 398.095651 291.939673 
L 398.095651 292.083504 
L 398.095651 291.882141 
L 398.095651 292.025972 
L 397.704029 291.997206 
L 398.487273 292.083504 
L 398.095651 291.997206 
L 398.095651 291.910907 
L 398.095651 292.11227 
L 398.095651 291.910907 
L 397.704029 292.025972 
L 398.095651 292.025972 
L 398.095651 292.11227 
L 398.095651 291.968439 
L 398.487273 291.997206 
L 398.095651 292.083504 
L 398.095651 291.853375 
L 398.095651 292.141036 
L 398.095651 291.910907 
L 397.704029 291.968439 
L 398.095651 291.853375 
L 398.095651 291.997206 
L 398.095651 292.054738 
L 398.095651 291.882141 
L 398.095651 291.968439 
L 397.704029 291.882141 
L 398.095651 292.054738 
L 398.095651 291.968439 
L 398.095651 292.083504 
L 398.095651 291.910907 
L 398.095651 292.083504 
L 397.704029 292.169802 
L 398.095651 291.997206 
L 398.095651 292.11227 
L 397.704029 292.025972 
L 398.095651 292.025972 
L 398.095651 291.997206 
L 398.095651 292.11227 
L 398.095651 292.11227 
L 397.704029 292.11227 
L 398.095651 291.968439 
L 398.095651 291.997206 
L 398.095651 292.141036 
L 398.095651 292.054738 
L 397.704029 292.025972 
L 398.095651 292.141036 
L 398.095651 291.997206 
L 398.095651 292.227334 
L 398.095651 291.709544 
L 398.095651 291.939673 
L 398.487273 291.853375 
L 397.704029 291.910907 
L 398.095651 291.882141 
L 398.095651 291.680778 
L 398.095651 291.738311 
L 398.487273 291.767077 
L 398.095651 291.652012 
L 398.095651 291.709544 
L 398.095651 291.623246 
L 398.095651 291.738311 
L 398.095651 291.623246 
L 397.704029 291.795843 
L 398.095651 291.652012 
L 398.095651 291.767077 
L 398.095651 291.652012 
L 397.704029 291.652012 
L 398.095651 291.738311 
L 398.095651 291.795843 
L 398.095651 291.565714 
L 397.704029 291.652012 
L 398.095651 291.479416 
L 398.095651 291.59448 
L 398.095651 291.709544 
L 398.095651 291.508182 
L 398.095651 291.536948 
L 397.704029 291.59448 
L 398.095651 291.508182 
L 398.095651 291.623246 
L 398.095651 291.738311 
L 398.095651 291.450649 
L 398.095651 291.565714 
L 397.704029 291.652012 
L 398.095651 291.508182 
L 398.095651 291.623246 
L 398.095651 291.680778 
L 398.095651 291.508182 
L 398.095651 291.59448 
L 398.487273 291.565714 
L 397.704029 291.565714 
L 398.095651 291.565714 
L 398.095651 291.709544 
L 398.095651 291.536948 
L 398.095651 291.680778 
L 397.704029 291.652012 
L 398.095651 291.652012 
L 398.095651 291.795843 
L 398.095651 291.565714 
L 398.095651 291.652012 
L 397.704029 291.680778 
L 398.095651 291.652012 
L 398.095651 291.824609 
L 398.095651 291.623246 
L 398.095651 291.709544 
L 397.704029 291.709544 
L 398.095651 291.882141 
L 398.487273 291.680778 
L 397.704029 291.680778 
L 398.095651 291.738311 
L 398.095651 291.997206 
L 398.095651 291.652012 
L 398.095651 291.795843 
L 397.704029 291.824609 
L 398.095651 291.738311 
L 398.095651 291.421883 
L 398.095651 291.824609 
L 398.095651 291.450649 
L 398.487273 291.59448 
L 398.095651 291.421883 
L 398.095651 291.508182 
L 398.095651 291.623246 
L 398.095651 291.565714 
L 398.487273 291.393117 
L 398.095651 291.623246 
L 398.095651 291.565714 
L 397.704029 291.421883 
L 398.095651 291.623246 
L 398.095651 291.508182 
L 398.095651 291.393117 
L 398.095651 291.59448 
L 398.095651 291.536948 
L 397.704029 291.479416 
L 398.095651 291.59448 
L 398.095651 291.393117 
L 398.095651 291.59448 
L 397.704029 291.479416 
L 398.095651 291.652012 
L 398.095651 291.508182 
L 398.487273 291.508182 
L 398.095651 291.565714 
L 398.095651 291.680778 
L 398.095651 291.479416 
L 398.095651 291.59448 
L 397.704029 291.59448 
L 398.095651 291.623246 
L 398.095651 291.364351 
L 398.095651 291.652012 
L 398.095651 291.421883 
L 397.704029 291.623246 
L 397.704029 291.623246 
L 398.095651 291.536948 
L 397.704029 291.508182 
L 398.095651 291.59448 
L 398.095651 291.508182 
L 398.095651 291.421883 
L 397.704029 291.508182 
L 398.095651 291.59448 
L 397.704029 291.508182 
L 398.095651 291.421883 
L 397.704029 291.59448 
L 398.095651 291.421883 
L 398.095651 291.623246 
L 398.095651 291.335585 
L 398.095651 291.450649 
L 397.704029 291.450649 
L 398.095651 291.421883 
L 398.095651 291.565714 
L 398.095651 291.393117 
L 397.704029 291.508182 
L 398.095651 291.508182 
L 398.095651 291.536948 
L 398.095651 291.508182 
L 397.704029 291.623246 
L 398.095651 291.393117 
L 398.095651 291.565714 
L 397.704029 291.479416 
L 398.095651 291.59448 
L 398.095651 291.536948 
L 398.095651 291.335585 
L 398.095651 291.536948 
L 397.704029 291.450649 
L 398.487273 291.536948 
L 398.095651 291.479416 
L 398.095651 291.364351 
L 398.095651 291.59448 
L 398.095651 291.536948 
L 397.704029 291.508182 
L 398.095651 291.565714 
L 398.095651 291.421883 
L 398.095651 291.479416 
L 397.704029 291.421883 
L 398.095651 291.59448 
L 398.095651 291.565714 
L 398.095651 291.421883 
L 398.095651 291.508182 
L 397.704029 291.536948 
L 398.095651 291.421883 
L 398.095651 291.479416 
L 398.095651 291.364351 
L 398.095651 291.623246 
L 397.704029 291.393117 
L 398.095651 291.565714 
L 398.095651 291.536948 
L 398.095651 291.335585 
L 398.095651 291.652012 
L 398.095651 291.508182 
L 397.704029 291.479416 
L 398.095651 291.59448 
L 398.095651 291.479416 
" style="fill:none;stroke:#1f77b4;stroke-linecap:square;stroke-width:1.5;"/>
   </g>
   <g id="line2d_16">
    <path clip-path="url(#p68975d39dd)" d="M 73.832727 295.470937 
L 78.057461 295.444607 
L 82.607174 295.421841 
L 88.131826 295.454417 
L 93.006519 295.407573 
L 98.531171 295.456151 
L 103.730844 295.399422 
L 108.930516 295.45832 
L 114.130188 295.37884 
L 119.329861 295.460954 
L 124.854513 295.364912 
L 129.729206 295.464074 
L 135.253857 295.33328 
L 140.45353 295.454203 
L 145.653202 295.292393 
L 150.852875 295.457825 
L 156.377527 295.254957 
L 161.252219 295.462199 
L 167.101851 295.20461 
L 171.651564 295.46737 
L 173.926421 295.232664 
L 176.201278 295.051796 
L 178.151155 295.169974 
L 181.40095 295.487767 
L 183.025848 295.385256 
L 187.250581 294.911098 
L 188.875479 295.080018 
L 191.800295 295.483386 
L 193.100213 295.425648 
L 194.725111 295.118579 
L 196.999967 294.698182 
L 198.299885 294.711592 
L 199.924783 295.016303 
L 202.19964 295.468202 
L 203.499558 295.430286 
L 204.799476 295.122515 
L 207.399312 294.342062 
L 208.374251 294.273335 
L 209.349189 294.402486 
L 210.649107 294.812793 
L 212.598984 295.426525 
L 213.573923 295.477117 
L 214.548862 295.272302 
L 215.84878 294.668377 
L 217.798657 293.673937 
L 218.773595 293.47257 
L 219.423554 293.517779 
L 220.398493 293.850589 
L 222.023391 294.81353 
L 222.998329 295.309805 
L 223.648288 295.473509 
L 224.298247 295.448638 
L 224.948206 295.214301 
L 225.598165 294.778709 
L 226.573104 293.839959 
L 228.198002 292.156475 
L 228.847961 291.708078 
L 229.49792 291.506259 
L 230.147879 291.592706 
L 230.797838 291.969008 
L 231.772776 292.97077 
L 233.397674 294.91592 
L 234.047633 295.382075 
L 234.697592 295.467124 
L 235.022572 295.336193 
L 235.672531 294.695384 
L 236.32249 293.554464 
L 237.297428 291.076219 
L 239.247305 285.591281 
L 239.897265 284.471107 
L 240.222244 284.170042 
L 240.547224 284.067823 
L 240.872203 284.176756 
L 241.197183 284.502089 
L 241.847142 285.782783 
L 242.497101 287.783126 
L 244.446978 294.665709 
L 244.771957 295.260571 
L 245.096937 295.487741 
L 245.421916 295.263408 
L 245.746896 294.505189 
L 246.071876 293.134176 
L 246.396855 291.077011 
L 247.046814 284.65081 
L 247.696773 274.826699 
L 248.346732 261.41341 
L 249.321671 234.768899 
L 250.621589 189.532722 
L 253.221425 94.374684 
L 253.871384 76.573561 
L 254.521343 63.381366 
L 255.171302 55.560294 
L 255.496282 53.820001 
L 255.821261 53.568 
L 256.146241 54.808021 
L 256.47122 57.521722 
L 257.121179 67.189058 
L 257.771138 82.006236 
L 258.746077 111.963625 
L 260.370975 172.9316 
L 261.995872 231.326388 
L 262.970811 258.797504 
L 263.62077 272.817615 
L 264.270729 283.240115 
L 264.920688 290.21646 
L 265.570647 294.114976 
L 265.895627 295.071328 
L 266.220606 295.466683 
L 266.545586 295.382484 
L 266.870565 294.902285 
L 267.520524 293.086783 
L 269.795381 285.26953 
L 270.44534 284.262277 
L 270.770319 284.080553 
L 271.095299 284.112585 
L 271.420278 284.348345 
L 272.070238 285.359903 
L 272.720197 286.926103 
L 275.320033 293.985122 
L 275.969992 294.964415 
L 276.619951 295.436657 
L 276.94493 295.487785 
L 277.594889 295.264065 
L 278.244848 294.698907 
L 280.844685 291.813944 
L 281.494644 291.531137 
L 282.144603 291.542494 
L 282.794562 291.832371 
L 283.7695 292.665576 
L 286.044357 294.943559 
L 286.694316 295.31527 
L 287.344275 295.479618 
L 287.994234 295.438378 
L 288.969173 295.061868 
L 291.893989 293.540052 
L 292.868927 293.490426 
L 293.843866 293.75601 
L 295.143784 294.423077 
L 296.768681 295.233873 
L 297.74362 295.466985 
L 298.718559 295.444058 
L 300.018477 295.094621 
L 302.293333 294.357709 
L 303.268272 294.271546 
L 304.24321 294.382148 
L 305.868108 294.867803 
L 307.493006 295.353537 
L 308.792924 295.487776 
L 310.092842 295.346433 
L 313.667617 294.677043 
L 314.967535 294.759735 
L 317.242391 295.239594 
L 318.867289 295.474104 
L 320.167207 295.44962 
L 322.442064 295.097918 
L 324.066962 294.91515 
L 325.691859 294.976727 
L 330.566552 295.471926 
L 332.841409 295.223761 
L 334.791286 295.055256 
L 336.416183 295.112615 
L 340.965897 295.482508 
L 343.240753 295.304738 
L 345.84059 295.148479 
L 348.115446 295.2888 
L 351.040262 295.48759 
L 353.315119 295.385555 
L 356.564914 295.217065 
L 359.16475 295.362666 
L 362.089566 295.485824 
L 365.339361 295.313887 
L 367.939197 295.283125 
L 374.113808 295.440298 
L 378.338542 295.311507 
L 385.488092 295.413129 
L 389.062867 295.341007 
L 396.212416 295.419219 
L 398.487273 295.354616 
L 398.487273 295.354616 
" style="fill:none;stroke:#ff7f0e;stroke-linecap:square;stroke-width:1.5;"/>
   </g>
   <g id="patch_3">
    <path d="M 57.6 307.584 
L 57.6 41.472 
" style="fill:none;stroke:#000000;stroke-linecap:square;stroke-linejoin:miter;stroke-width:0.8;"/>
   </g>
   <g id="patch_4">
    <path d="M 414.72 307.584 
L 414.72 41.472 
" style="fill:none;stroke:#000000;stroke-linecap:square;stroke-linejoin:miter;stroke-width:0.8;"/>
   </g>
   <g id="patch_5">
    <path d="M 57.6 307.584 
L 414.72 307.584 
" style="fill:none;stroke:#000000;stroke-linecap:square;stroke-linejoin:miter;stroke-width:0.8;"/>
   </g>
   <g id="patch_6">
    <path d="M 57.6 41.472 
L 414.72 41.472 
" style="fill:none;stroke:#000000;stroke-linecap:square;stroke-linejoin:miter;stroke-width:0.8;"/>
   </g>
   <g id="legend_1">
    <g id="patch_7">
     <path d="M 313.723125 78.82825 
L 407.72 78.82825 
Q 409.72 78.82825 409.72 76.82825 
L 409.72 48.472 
Q 409.72 46.472 407.72 46.472 
L 313.723125 46.472 
Q 311.723125 46.472 311.723125 48.472 
L 311.723125 76.82825 
Q 311.723125 78.82825 313.723125 78.82825 
z
" style="fill:#ffffff;opacity:0.8;stroke:#cccccc;stroke-linejoin:miter;"/>
    </g>
    <g id="line2d_17">
     <path d="M 315.723125 54.570437 
L 335.723125 54.570437 
" style="fill:none;stroke:#1f77b4;stroke-linecap:square;stroke-width:1.5;"/>
    </g>
    <g id="line2d_18"/>
    <g id="text_15">
     <!-- .16Good2 -->
     <g transform="translate(343.723125 58.070437)scale(0.1 -0.1)">
      <defs>
       <path d="M 3809 666 
L 3809 1919 
L 2778 1919 
L 2778 2438 
L 4434 2438 
L 4434 434 
Q 4069 175 3628 42 
Q 3188 -91 2688 -91 
Q 1594 -91 976 548 
Q 359 1188 359 2328 
Q 359 3472 976 4111 
Q 1594 4750 2688 4750 
Q 3144 4750 3555 4637 
Q 3966 4525 4313 4306 
L 4313 3634 
Q 3963 3931 3569 4081 
Q 3175 4231 2741 4231 
Q 1884 4231 1454 3753 
Q 1025 3275 1025 2328 
Q 1025 1384 1454 906 
Q 1884 428 2741 428 
Q 3075 428 3337 486 
Q 3600 544 3809 666 
z
" id="DejaVuSans-47" transform="scale(0.015625)"/>
       <path d="M 1959 3097 
Q 1497 3097 1228 2736 
Q 959 2375 959 1747 
Q 959 1119 1226 758 
Q 1494 397 1959 397 
Q 2419 397 2687 759 
Q 2956 1122 2956 1747 
Q 2956 2369 2687 2733 
Q 2419 3097 1959 3097 
z
M 1959 3584 
Q 2709 3584 3137 3096 
Q 3566 2609 3566 1747 
Q 3566 888 3137 398 
Q 2709 -91 1959 -91 
Q 1206 -91 779 398 
Q 353 888 353 1747 
Q 353 2609 779 3096 
Q 1206 3584 1959 3584 
z
" id="DejaVuSans-6f" transform="scale(0.015625)"/>
       <path d="M 2906 2969 
L 2906 4863 
L 3481 4863 
L 3481 0 
L 2906 0 
L 2906 525 
Q 2725 213 2448 61 
Q 2172 -91 1784 -91 
Q 1150 -91 751 415 
Q 353 922 353 1747 
Q 353 2572 751 3078 
Q 1150 3584 1784 3584 
Q 2172 3584 2448 3432 
Q 2725 3281 2906 2969 
z
M 947 1747 
Q 947 1113 1208 752 
Q 1469 391 1925 391 
Q 2381 391 2643 752 
Q 2906 1113 2906 1747 
Q 2906 2381 2643 2742 
Q 2381 3103 1925 3103 
Q 1469 3103 1208 2742 
Q 947 2381 947 1747 
z
" id="DejaVuSans-64" transform="scale(0.015625)"/>
      </defs>
      <use xlink:href="#DejaVuSans-2e"/>
      <use x="31.787109" xlink:href="#DejaVuSans-31"/>
      <use x="95.410156" xlink:href="#DejaVuSans-36"/>
      <use x="159.033203" xlink:href="#DejaVuSans-47"/>
      <use x="236.523438" xlink:href="#DejaVuSans-6f"/>
      <use x="297.705078" xlink:href="#DejaVuSans-6f"/>
      <use x="358.886719" xlink:href="#DejaVuSans-64"/>
      <use x="422.363281" xlink:href="#DejaVuSans-32"/>
     </g>
    </g>
    <g id="line2d_19">
     <path d="M 315.723125 69.248562 
L 335.723125 69.248562 
" style="fill:none;stroke:#ff7f0e;stroke-linecap:square;stroke-width:1.5;"/>
    </g>
    <g id="line2d_20"/>
    <g id="text_16">
     <!-- .16Good2 fit -->
     <g transform="translate(343.723125 72.748562)scale(0.1 -0.1)">
      <defs>
       <path id="DejaVuSans-20" transform="scale(0.015625)"/>
       <path d="M 2375 4863 
L 2375 4384 
L 1825 4384 
Q 1516 4384 1395 4259 
Q 1275 4134 1275 3809 
L 1275 3500 
L 2222 3500 
L 2222 3053 
L 1275 3053 
L 1275 0 
L 697 0 
L 697 3053 
L 147 3053 
L 147 3500 
L 697 3500 
L 697 3744 
Q 697 4328 969 4595 
Q 1241 4863 1831 4863 
L 2375 4863 
z
" id="DejaVuSans-66" transform="scale(0.015625)"/>
       <path d="M 603 3500 
L 1178 3500 
L 1178 0 
L 603 0 
L 603 3500 
z
M 603 4863 
L 1178 4863 
L 1178 4134 
L 603 4134 
L 603 4863 
z
" id="DejaVuSans-69" transform="scale(0.015625)"/>
       <path d="M 1172 4494 
L 1172 3500 
L 2356 3500 
L 2356 3053 
L 1172 3053 
L 1172 1153 
Q 1172 725 1289 603 
Q 1406 481 1766 481 
L 2356 481 
L 2356 0 
L 1766 0 
Q 1100 0 847 248 
Q 594 497 594 1153 
L 594 3053 
L 172 3053 
L 172 3500 
L 594 3500 
L 594 4494 
L 1172 4494 
z
" id="DejaVuSans-74" transform="scale(0.015625)"/>
      </defs>
      <use xlink:href="#DejaVuSans-2e"/>
      <use x="31.787109" xlink:href="#DejaVuSans-31"/>
      <use x="95.410156" xlink:href="#DejaVuSans-36"/>
      <use x="159.033203" xlink:href="#DejaVuSans-47"/>
      <use x="236.523438" xlink:href="#DejaVuSans-6f"/>
      <use x="297.705078" xlink:href="#DejaVuSans-6f"/>
      <use x="358.886719" xlink:href="#DejaVuSans-64"/>
      <use x="422.363281" xlink:href="#DejaVuSans-32"/>
      <use x="485.986328" xlink:href="#DejaVuSans-20"/>
      <use x="517.773438" xlink:href="#DejaVuSans-66"/>
      <use x="552.978516" xlink:href="#DejaVuSans-69"/>
      <use x="580.761719" xlink:href="#DejaVuSans-74"/>
     </g>
    </g>
   </g>
  </g>
 </g>
 <defs>
  <clipPath id="p68975d39dd">
   <rect height="266.112" width="357.12" x="57.6" y="41.472"/>
  </clipPath>
 </defs>
</svg>
