<?xml version="1.0" encoding="utf-8" standalone="no"?>
<!DOCTYPE svg PUBLIC "-//W3C//DTD SVG 1.1//EN"
  "http://www.w3.org/Graphics/SVG/1.1/DTD/svg11.dtd">
<!-- Created with matplotlib (https://matplotlib.org/) -->
<svg height="345.6pt" version="1.1" viewBox="0 0 460.8 345.6" width="460.8pt" xmlns="http://www.w3.org/2000/svg" xmlns:xlink="http://www.w3.org/1999/xlink">
 <metadata>
  <rdf:RDF xmlns:cc="http://creativecommons.org/ns#" xmlns:dc="http://purl.org/dc/elements/1.1/" xmlns:rdf="http://www.w3.org/1999/02/22-rdf-syntax-ns#">
   <cc:Work>
    <dc:type rdf:resource="http://purl.org/dc/dcmitype/StillImage"/>
    <dc:date>2021-05-03T08:33:31.326455</dc:date>
    <dc:format>image/svg+xml</dc:format>
    <dc:creator>
     <cc:Agent>
      <dc:title>Matplotlib v3.3.4, https://matplotlib.org/</dc:title>
     </cc:Agent>
    </dc:creator>
   </cc:Work>
  </rdf:RDF>
 </metadata>
 <defs>
  <style type="text/css">*{stroke-linecap:butt;stroke-linejoin:round;}</style>
 </defs>
 <g id="figure_1">
  <g id="patch_1">
   <path d="M 0 345.6 
L 460.8 345.6 
L 460.8 0 
L 0 0 
z
" style="fill:#ffffff;"/>
  </g>
  <g id="axes_1">
   <g id="patch_2">
    <path d="M 57.6 307.584 
L 414.72 307.584 
L 414.72 41.472 
L 57.6 41.472 
z
" style="fill:#ffffff;"/>
   </g>
   <g id="matplotlib.axis_1">
    <g id="xtick_1">
     <g id="line2d_1">
      <defs>
       <path d="M 0 0 
L 0 3.5 
" id="mcb01ed0a0d" style="stroke:#000000;stroke-width:0.8;"/>
      </defs>
      <g>
       <use style="stroke:#000000;stroke-width:0.8;" x="73.824348" xlink:href="#mcb01ed0a0d" y="307.584"/>
      </g>
     </g>
     <g id="text_1">
      <!-- −1.00 -->
      <g transform="translate(58.501692 322.182437)scale(0.1 -0.1)">
       <defs>
        <path d="M 10.59375 35.5 
L 73.1875 35.5 
L 73.1875 27.203125 
L 10.59375 27.203125 
z
" id="DejaVuSans-8722"/>
        <path d="M 12.40625 8.296875 
L 28.515625 8.296875 
L 28.515625 63.921875 
L 10.984375 60.40625 
L 10.984375 69.390625 
L 28.421875 72.90625 
L 38.28125 72.90625 
L 38.28125 8.296875 
L 54.390625 8.296875 
L 54.390625 0 
L 12.40625 0 
z
" id="DejaVuSans-49"/>
        <path d="M 10.6875 12.40625 
L 21 12.40625 
L 21 0 
L 10.6875 0 
z
" id="DejaVuSans-46"/>
        <path d="M 31.78125 66.40625 
Q 24.171875 66.40625 20.328125 58.90625 
Q 16.5 51.421875 16.5 36.375 
Q 16.5 21.390625 20.328125 13.890625 
Q 24.171875 6.390625 31.78125 6.390625 
Q 39.453125 6.390625 43.28125 13.890625 
Q 47.125 21.390625 47.125 36.375 
Q 47.125 51.421875 43.28125 58.90625 
Q 39.453125 66.40625 31.78125 66.40625 
z
M 31.78125 74.21875 
Q 44.046875 74.21875 50.515625 64.515625 
Q 56.984375 54.828125 56.984375 36.375 
Q 56.984375 17.96875 50.515625 8.265625 
Q 44.046875 -1.421875 31.78125 -1.421875 
Q 19.53125 -1.421875 13.0625 8.265625 
Q 6.59375 17.96875 6.59375 36.375 
Q 6.59375 54.828125 13.0625 64.515625 
Q 19.53125 74.21875 31.78125 74.21875 
z
" id="DejaVuSans-48"/>
       </defs>
       <use xlink:href="#DejaVuSans-8722"/>
       <use x="83.789062" xlink:href="#DejaVuSans-49"/>
       <use x="147.412109" xlink:href="#DejaVuSans-46"/>
       <use x="179.199219" xlink:href="#DejaVuSans-48"/>
       <use x="242.822266" xlink:href="#DejaVuSans-48"/>
      </g>
     </g>
    </g>
    <g id="xtick_2">
     <g id="line2d_2">
      <g>
       <use style="stroke:#000000;stroke-width:0.8;" x="114.426639" xlink:href="#mcb01ed0a0d" y="307.584"/>
      </g>
     </g>
     <g id="text_2">
      <!-- −0.75 -->
      <g transform="translate(99.103983 322.182437)scale(0.1 -0.1)">
       <defs>
        <path d="M 8.203125 72.90625 
L 55.078125 72.90625 
L 55.078125 68.703125 
L 28.609375 0 
L 18.3125 0 
L 43.21875 64.59375 
L 8.203125 64.59375 
z
" id="DejaVuSans-55"/>
        <path d="M 10.796875 72.90625 
L 49.515625 72.90625 
L 49.515625 64.59375 
L 19.828125 64.59375 
L 19.828125 46.734375 
Q 21.96875 47.46875 24.109375 47.828125 
Q 26.265625 48.1875 28.421875 48.1875 
Q 40.625 48.1875 47.75 41.5 
Q 54.890625 34.8125 54.890625 23.390625 
Q 54.890625 11.625 47.5625 5.09375 
Q 40.234375 -1.421875 26.90625 -1.421875 
Q 22.3125 -1.421875 17.546875 -0.640625 
Q 12.796875 0.140625 7.71875 1.703125 
L 7.71875 11.625 
Q 12.109375 9.234375 16.796875 8.0625 
Q 21.484375 6.890625 26.703125 6.890625 
Q 35.15625 6.890625 40.078125 11.328125 
Q 45.015625 15.765625 45.015625 23.390625 
Q 45.015625 31 40.078125 35.4375 
Q 35.15625 39.890625 26.703125 39.890625 
Q 22.75 39.890625 18.8125 39.015625 
Q 14.890625 38.140625 10.796875 36.28125 
z
" id="DejaVuSans-53"/>
       </defs>
       <use xlink:href="#DejaVuSans-8722"/>
       <use x="83.789062" xlink:href="#DejaVuSans-48"/>
       <use x="147.412109" xlink:href="#DejaVuSans-46"/>
       <use x="179.199219" xlink:href="#DejaVuSans-55"/>
       <use x="242.822266" xlink:href="#DejaVuSans-53"/>
      </g>
     </g>
    </g>
    <g id="xtick_3">
     <g id="line2d_3">
      <g>
       <use style="stroke:#000000;stroke-width:0.8;" x="155.028929" xlink:href="#mcb01ed0a0d" y="307.584"/>
      </g>
     </g>
     <g id="text_3">
      <!-- −0.50 -->
      <g transform="translate(139.706273 322.182437)scale(0.1 -0.1)">
       <use xlink:href="#DejaVuSans-8722"/>
       <use x="83.789062" xlink:href="#DejaVuSans-48"/>
       <use x="147.412109" xlink:href="#DejaVuSans-46"/>
       <use x="179.199219" xlink:href="#DejaVuSans-53"/>
       <use x="242.822266" xlink:href="#DejaVuSans-48"/>
      </g>
     </g>
    </g>
    <g id="xtick_4">
     <g id="line2d_4">
      <g>
       <use style="stroke:#000000;stroke-width:0.8;" x="195.631219" xlink:href="#mcb01ed0a0d" y="307.584"/>
      </g>
     </g>
     <g id="text_4">
      <!-- −0.25 -->
      <g transform="translate(180.308563 322.182437)scale(0.1 -0.1)">
       <defs>
        <path d="M 19.1875 8.296875 
L 53.609375 8.296875 
L 53.609375 0 
L 7.328125 0 
L 7.328125 8.296875 
Q 12.9375 14.109375 22.625 23.890625 
Q 32.328125 33.6875 34.8125 36.53125 
Q 39.546875 41.84375 41.421875 45.53125 
Q 43.3125 49.21875 43.3125 52.78125 
Q 43.3125 58.59375 39.234375 62.25 
Q 35.15625 65.921875 28.609375 65.921875 
Q 23.96875 65.921875 18.8125 64.3125 
Q 13.671875 62.703125 7.8125 59.421875 
L 7.8125 69.390625 
Q 13.765625 71.78125 18.9375 73 
Q 24.125 74.21875 28.421875 74.21875 
Q 39.75 74.21875 46.484375 68.546875 
Q 53.21875 62.890625 53.21875 53.421875 
Q 53.21875 48.921875 51.53125 44.890625 
Q 49.859375 40.875 45.40625 35.40625 
Q 44.1875 33.984375 37.640625 27.21875 
Q 31.109375 20.453125 19.1875 8.296875 
z
" id="DejaVuSans-50"/>
       </defs>
       <use xlink:href="#DejaVuSans-8722"/>
       <use x="83.789062" xlink:href="#DejaVuSans-48"/>
       <use x="147.412109" xlink:href="#DejaVuSans-46"/>
       <use x="179.199219" xlink:href="#DejaVuSans-50"/>
       <use x="242.822266" xlink:href="#DejaVuSans-53"/>
      </g>
     </g>
    </g>
    <g id="xtick_5">
     <g id="line2d_5">
      <g>
       <use style="stroke:#000000;stroke-width:0.8;" x="236.23351" xlink:href="#mcb01ed0a0d" y="307.584"/>
      </g>
     </g>
     <g id="text_5">
      <!-- 0.00 -->
      <g transform="translate(225.100697 322.182437)scale(0.1 -0.1)">
       <use xlink:href="#DejaVuSans-48"/>
       <use x="63.623047" xlink:href="#DejaVuSans-46"/>
       <use x="95.410156" xlink:href="#DejaVuSans-48"/>
       <use x="159.033203" xlink:href="#DejaVuSans-48"/>
      </g>
     </g>
    </g>
    <g id="xtick_6">
     <g id="line2d_6">
      <g>
       <use style="stroke:#000000;stroke-width:0.8;" x="276.8358" xlink:href="#mcb01ed0a0d" y="307.584"/>
      </g>
     </g>
     <g id="text_6">
      <!-- 0.25 -->
      <g transform="translate(265.702988 322.182437)scale(0.1 -0.1)">
       <use xlink:href="#DejaVuSans-48"/>
       <use x="63.623047" xlink:href="#DejaVuSans-46"/>
       <use x="95.410156" xlink:href="#DejaVuSans-50"/>
       <use x="159.033203" xlink:href="#DejaVuSans-53"/>
      </g>
     </g>
    </g>
    <g id="xtick_7">
     <g id="line2d_7">
      <g>
       <use style="stroke:#000000;stroke-width:0.8;" x="317.43809" xlink:href="#mcb01ed0a0d" y="307.584"/>
      </g>
     </g>
     <g id="text_7">
      <!-- 0.50 -->
      <g transform="translate(306.305278 322.182437)scale(0.1 -0.1)">
       <use xlink:href="#DejaVuSans-48"/>
       <use x="63.623047" xlink:href="#DejaVuSans-46"/>
       <use x="95.410156" xlink:href="#DejaVuSans-53"/>
       <use x="159.033203" xlink:href="#DejaVuSans-48"/>
      </g>
     </g>
    </g>
    <g id="xtick_8">
     <g id="line2d_8">
      <g>
       <use style="stroke:#000000;stroke-width:0.8;" x="358.040381" xlink:href="#mcb01ed0a0d" y="307.584"/>
      </g>
     </g>
     <g id="text_8">
      <!-- 0.75 -->
      <g transform="translate(346.907568 322.182437)scale(0.1 -0.1)">
       <use xlink:href="#DejaVuSans-48"/>
       <use x="63.623047" xlink:href="#DejaVuSans-46"/>
       <use x="95.410156" xlink:href="#DejaVuSans-55"/>
       <use x="159.033203" xlink:href="#DejaVuSans-53"/>
      </g>
     </g>
    </g>
    <g id="xtick_9">
     <g id="line2d_9">
      <g>
       <use style="stroke:#000000;stroke-width:0.8;" x="398.642671" xlink:href="#mcb01ed0a0d" y="307.584"/>
      </g>
     </g>
     <g id="text_9">
      <!-- 1.00 -->
      <g transform="translate(387.509858 322.182437)scale(0.1 -0.1)">
       <use xlink:href="#DejaVuSans-49"/>
       <use x="63.623047" xlink:href="#DejaVuSans-46"/>
       <use x="95.410156" xlink:href="#DejaVuSans-48"/>
       <use x="159.033203" xlink:href="#DejaVuSans-48"/>
      </g>
     </g>
    </g>
   </g>
   <g id="matplotlib.axis_2">
    <g id="ytick_1">
     <g id="line2d_10">
      <defs>
       <path d="M 0 0 
L -3.5 0 
" id="meb91a497cf" style="stroke:#000000;stroke-width:0.8;"/>
      </defs>
      <g>
       <use style="stroke:#000000;stroke-width:0.8;" x="57.6" xlink:href="#meb91a497cf" y="295.488"/>
      </g>
     </g>
     <g id="text_10">
      <!-- 0.00 -->
      <g transform="translate(28.334375 299.287219)scale(0.1 -0.1)">
       <use xlink:href="#DejaVuSans-48"/>
       <use x="63.623047" xlink:href="#DejaVuSans-46"/>
       <use x="95.410156" xlink:href="#DejaVuSans-48"/>
       <use x="159.033203" xlink:href="#DejaVuSans-48"/>
      </g>
     </g>
    </g>
    <g id="ytick_2">
     <g id="line2d_11">
      <g>
       <use style="stroke:#000000;stroke-width:0.8;" x="57.6" xlink:href="#meb91a497cf" y="265.753932"/>
      </g>
     </g>
     <g id="text_11">
      <!-- 0.01 -->
      <g transform="translate(28.334375 269.55315)scale(0.1 -0.1)">
       <use xlink:href="#DejaVuSans-48"/>
       <use x="63.623047" xlink:href="#DejaVuSans-46"/>
       <use x="95.410156" xlink:href="#DejaVuSans-48"/>
       <use x="159.033203" xlink:href="#DejaVuSans-49"/>
      </g>
     </g>
    </g>
    <g id="ytick_3">
     <g id="line2d_12">
      <g>
       <use style="stroke:#000000;stroke-width:0.8;" x="57.6" xlink:href="#meb91a497cf" y="236.019863"/>
      </g>
     </g>
     <g id="text_12">
      <!-- 0.02 -->
      <g transform="translate(28.334375 239.819082)scale(0.1 -0.1)">
       <use xlink:href="#DejaVuSans-48"/>
       <use x="63.623047" xlink:href="#DejaVuSans-46"/>
       <use x="95.410156" xlink:href="#DejaVuSans-48"/>
       <use x="159.033203" xlink:href="#DejaVuSans-50"/>
      </g>
     </g>
    </g>
    <g id="ytick_4">
     <g id="line2d_13">
      <g>
       <use style="stroke:#000000;stroke-width:0.8;" x="57.6" xlink:href="#meb91a497cf" y="206.285795"/>
      </g>
     </g>
     <g id="text_13">
      <!-- 0.03 -->
      <g transform="translate(28.334375 210.085013)scale(0.1 -0.1)">
       <defs>
        <path d="M 40.578125 39.3125 
Q 47.65625 37.796875 51.625 33 
Q 55.609375 28.21875 55.609375 21.1875 
Q 55.609375 10.40625 48.1875 4.484375 
Q 40.765625 -1.421875 27.09375 -1.421875 
Q 22.515625 -1.421875 17.65625 -0.515625 
Q 12.796875 0.390625 7.625 2.203125 
L 7.625 11.71875 
Q 11.71875 9.328125 16.59375 8.109375 
Q 21.484375 6.890625 26.8125 6.890625 
Q 36.078125 6.890625 40.9375 10.546875 
Q 45.796875 14.203125 45.796875 21.1875 
Q 45.796875 27.640625 41.28125 31.265625 
Q 36.765625 34.90625 28.71875 34.90625 
L 20.21875 34.90625 
L 20.21875 43.015625 
L 29.109375 43.015625 
Q 36.375 43.015625 40.234375 45.921875 
Q 44.09375 48.828125 44.09375 54.296875 
Q 44.09375 59.90625 40.109375 62.90625 
Q 36.140625 65.921875 28.71875 65.921875 
Q 24.65625 65.921875 20.015625 65.03125 
Q 15.375 64.15625 9.8125 62.3125 
L 9.8125 71.09375 
Q 15.4375 72.65625 20.34375 73.4375 
Q 25.25 74.21875 29.59375 74.21875 
Q 40.828125 74.21875 47.359375 69.109375 
Q 53.90625 64.015625 53.90625 55.328125 
Q 53.90625 49.265625 50.4375 45.09375 
Q 46.96875 40.921875 40.578125 39.3125 
z
" id="DejaVuSans-51"/>
       </defs>
       <use xlink:href="#DejaVuSans-48"/>
       <use x="63.623047" xlink:href="#DejaVuSans-46"/>
       <use x="95.410156" xlink:href="#DejaVuSans-48"/>
       <use x="159.033203" xlink:href="#DejaVuSans-51"/>
      </g>
     </g>
    </g>
    <g id="ytick_5">
     <g id="line2d_14">
      <g>
       <use style="stroke:#000000;stroke-width:0.8;" x="57.6" xlink:href="#meb91a497cf" y="176.551726"/>
      </g>
     </g>
     <g id="text_14">
      <!-- 0.04 -->
      <g transform="translate(28.334375 180.350945)scale(0.1 -0.1)">
       <defs>
        <path d="M 37.796875 64.3125 
L 12.890625 25.390625 
L 37.796875 25.390625 
z
M 35.203125 72.90625 
L 47.609375 72.90625 
L 47.609375 25.390625 
L 58.015625 25.390625 
L 58.015625 17.1875 
L 47.609375 17.1875 
L 47.609375 0 
L 37.796875 0 
L 37.796875 17.1875 
L 4.890625 17.1875 
L 4.890625 26.703125 
z
" id="DejaVuSans-52"/>
       </defs>
       <use xlink:href="#DejaVuSans-48"/>
       <use x="63.623047" xlink:href="#DejaVuSans-46"/>
       <use x="95.410156" xlink:href="#DejaVuSans-48"/>
       <use x="159.033203" xlink:href="#DejaVuSans-52"/>
      </g>
     </g>
    </g>
    <g id="ytick_6">
     <g id="line2d_15">
      <g>
       <use style="stroke:#000000;stroke-width:0.8;" x="57.6" xlink:href="#meb91a497cf" y="146.817658"/>
      </g>
     </g>
     <g id="text_15">
      <!-- 0.05 -->
      <g transform="translate(28.334375 150.616877)scale(0.1 -0.1)">
       <use xlink:href="#DejaVuSans-48"/>
       <use x="63.623047" xlink:href="#DejaVuSans-46"/>
       <use x="95.410156" xlink:href="#DejaVuSans-48"/>
       <use x="159.033203" xlink:href="#DejaVuSans-53"/>
      </g>
     </g>
    </g>
    <g id="ytick_7">
     <g id="line2d_16">
      <g>
       <use style="stroke:#000000;stroke-width:0.8;" x="57.6" xlink:href="#meb91a497cf" y="117.083589"/>
      </g>
     </g>
     <g id="text_16">
      <!-- 0.06 -->
      <g transform="translate(28.334375 120.882808)scale(0.1 -0.1)">
       <defs>
        <path d="M 33.015625 40.375 
Q 26.375 40.375 22.484375 35.828125 
Q 18.609375 31.296875 18.609375 23.390625 
Q 18.609375 15.53125 22.484375 10.953125 
Q 26.375 6.390625 33.015625 6.390625 
Q 39.65625 6.390625 43.53125 10.953125 
Q 47.40625 15.53125 47.40625 23.390625 
Q 47.40625 31.296875 43.53125 35.828125 
Q 39.65625 40.375 33.015625 40.375 
z
M 52.59375 71.296875 
L 52.59375 62.3125 
Q 48.875 64.0625 45.09375 64.984375 
Q 41.3125 65.921875 37.59375 65.921875 
Q 27.828125 65.921875 22.671875 59.328125 
Q 17.53125 52.734375 16.796875 39.40625 
Q 19.671875 43.65625 24.015625 45.921875 
Q 28.375 48.1875 33.59375 48.1875 
Q 44.578125 48.1875 50.953125 41.515625 
Q 57.328125 34.859375 57.328125 23.390625 
Q 57.328125 12.15625 50.6875 5.359375 
Q 44.046875 -1.421875 33.015625 -1.421875 
Q 20.359375 -1.421875 13.671875 8.265625 
Q 6.984375 17.96875 6.984375 36.375 
Q 6.984375 53.65625 15.1875 63.9375 
Q 23.390625 74.21875 37.203125 74.21875 
Q 40.921875 74.21875 44.703125 73.484375 
Q 48.484375 72.75 52.59375 71.296875 
z
" id="DejaVuSans-54"/>
       </defs>
       <use xlink:href="#DejaVuSans-48"/>
       <use x="63.623047" xlink:href="#DejaVuSans-46"/>
       <use x="95.410156" xlink:href="#DejaVuSans-48"/>
       <use x="159.033203" xlink:href="#DejaVuSans-54"/>
      </g>
     </g>
    </g>
    <g id="ytick_8">
     <g id="line2d_17">
      <g>
       <use style="stroke:#000000;stroke-width:0.8;" x="57.6" xlink:href="#meb91a497cf" y="87.349521"/>
      </g>
     </g>
     <g id="text_17">
      <!-- 0.07 -->
      <g transform="translate(28.334375 91.14874)scale(0.1 -0.1)">
       <use xlink:href="#DejaVuSans-48"/>
       <use x="63.623047" xlink:href="#DejaVuSans-46"/>
       <use x="95.410156" xlink:href="#DejaVuSans-48"/>
       <use x="159.033203" xlink:href="#DejaVuSans-55"/>
      </g>
     </g>
    </g>
    <g id="ytick_9">
     <g id="line2d_18">
      <g>
       <use style="stroke:#000000;stroke-width:0.8;" x="57.6" xlink:href="#meb91a497cf" y="57.615452"/>
      </g>
     </g>
     <g id="text_18">
      <!-- 0.08 -->
      <g transform="translate(28.334375 61.414671)scale(0.1 -0.1)">
       <defs>
        <path d="M 31.78125 34.625 
Q 24.75 34.625 20.71875 30.859375 
Q 16.703125 27.09375 16.703125 20.515625 
Q 16.703125 13.921875 20.71875 10.15625 
Q 24.75 6.390625 31.78125 6.390625 
Q 38.8125 6.390625 42.859375 10.171875 
Q 46.921875 13.96875 46.921875 20.515625 
Q 46.921875 27.09375 42.890625 30.859375 
Q 38.875 34.625 31.78125 34.625 
z
M 21.921875 38.8125 
Q 15.578125 40.375 12.03125 44.71875 
Q 8.5 49.078125 8.5 55.328125 
Q 8.5 64.0625 14.71875 69.140625 
Q 20.953125 74.21875 31.78125 74.21875 
Q 42.671875 74.21875 48.875 69.140625 
Q 55.078125 64.0625 55.078125 55.328125 
Q 55.078125 49.078125 51.53125 44.71875 
Q 48 40.375 41.703125 38.8125 
Q 48.828125 37.15625 52.796875 32.3125 
Q 56.78125 27.484375 56.78125 20.515625 
Q 56.78125 9.90625 50.3125 4.234375 
Q 43.84375 -1.421875 31.78125 -1.421875 
Q 19.734375 -1.421875 13.25 4.234375 
Q 6.78125 9.90625 6.78125 20.515625 
Q 6.78125 27.484375 10.78125 32.3125 
Q 14.796875 37.15625 21.921875 38.8125 
z
M 18.3125 54.390625 
Q 18.3125 48.734375 21.84375 45.5625 
Q 25.390625 42.390625 31.78125 42.390625 
Q 38.140625 42.390625 41.71875 45.5625 
Q 45.3125 48.734375 45.3125 54.390625 
Q 45.3125 60.0625 41.71875 63.234375 
Q 38.140625 66.40625 31.78125 66.40625 
Q 25.390625 66.40625 21.84375 63.234375 
Q 18.3125 60.0625 18.3125 54.390625 
z
" id="DejaVuSans-56"/>
       </defs>
       <use xlink:href="#DejaVuSans-48"/>
       <use x="63.623047" xlink:href="#DejaVuSans-46"/>
       <use x="95.410156" xlink:href="#DejaVuSans-48"/>
       <use x="159.033203" xlink:href="#DejaVuSans-56"/>
      </g>
     </g>
    </g>
   </g>
   <g id="line2d_19">
    <path clip-path="url(#p0570bdb8a6)" d="M 398.487273 294.719173 
L 397.649455 294.619007 
L 397.649455 294.619007 
L 381.730909 294.719173 
L 381.730909 294.66909 
L 381.730909 294.769257 
L 381.521455 294.66909 
L 380.893091 294.719173 
L 380.893091 294.719173 
L 380.683636 294.66909 
L 379.426909 294.719173 
L 379.426909 294.66909 
L 379.217455 294.719173 
L 379.217455 294.719173 
L 378.170182 294.66909 
L 378.170182 294.719173 
L 375.656727 294.619007 
L 375.656727 294.568923 
L 375.656727 294.66909 
L 375.447273 294.568923 
L 374.818909 294.619007 
L 374.818909 294.619007 
L 374.609455 294.568923 
L 374.190545 294.66909 
L 374.190545 294.619007 
L 371.677091 294.51884 
L 371.677091 294.468757 
L 369.163636 294.51884 
L 369.163636 294.568923 
L 368.744727 294.568923 
L 368.744727 294.51884 
L 366.859636 294.51884 
L 366.859636 294.36859 
L 365.812364 294.568923 
L 365.393455 294.468757 
L 365.393455 294.51884 
L 364.765091 294.619007 
L 364.765091 294.568923 
L 364.346182 294.568923 
L 364.346182 294.568923 
L 364.346182 294.619007 
L 363.717818 294.568923 
L 363.717818 294.619007 
L 363.089455 294.568923 
L 363.089455 294.568923 
L 360.576 294.619007 
L 360.157091 294.719173 
L 360.157091 294.719173 
L 359.738182 294.66909 
L 359.109818 294.719173 
L 353.035636 294.66909 
L 353.035636 294.568923 
L 352.407273 294.619007 
L 352.407273 294.51884 
L 351.778909 294.568923 
L 351.778909 294.51884 
L 351.36 294.568923 
L 351.36 294.568923 
L 350.941091 294.51884 
L 350.522182 294.619007 
L 350.312727 294.51884 
L 350.522182 294.468757 
L 349.684364 294.568923 
L 349.893818 294.468757 
L 349.684364 294.568923 
L 349.056 294.51884 
L 349.056 294.51884 
L 349.056 294.568923 
L 349.056 294.51884 
L 348.846545 294.619007 
L 348.846545 294.568923 
L 348.427636 294.51884 
L 348.427636 294.51884 
L 348.218182 294.418673 
L 348.218182 294.468757 
L 347.589818 294.36859 
L 346.752 294.268423 
L 346.752 294.268423 
L 345.914182 294.36859 
L 345.914182 294.418673 
L 345.914182 294.36859 
L 343.400727 294.268423 
L 343.610182 294.21834 
L 342.772364 294.36859 
L 342.772364 294.318507 
L 341.934545 294.418673 
L 341.934545 294.418673 
L 341.306182 294.51884 
L 340.677818 294.468757 
L 340.677818 294.51884 
L 336.069818 294.619007 
L 336.069818 294.568923 
L 336.069818 294.66909 
L 335.650909 294.66909 
L 335.650909 294.66909 
L 331.671273 294.568923 
L 331.671273 294.568923 
L 330.833455 294.468757 
L 330.833455 294.468757 
L 330.414545 294.51884 
L 330.414545 294.468757 
L 328.738909 294.418673 
L 328.738909 294.468757 
L 328.738909 294.318507 
L 328.32 294.36859 
L 328.32 294.268423 
L 327.901091 294.318507 
L 327.901091 294.268423 
L 327.691636 294.168257 
L 327.691636 294.318507 
L 327.272727 294.118174 
L 327.272727 294.118174 
L 327.063273 294.118174 
L 327.063273 294.018007 
L 327.063273 293.967924 
L 326.853818 293.717507 
L 326.644364 293.867757 
L 326.644364 293.76759 
L 326.225455 293.91784 
L 326.016 293.667424 
L 325.806545 293.817674 
L 325.806545 293.667424 
L 325.806545 293.76759 
L 325.387636 293.717507 
L 325.387636 293.717507 
L 325.387636 293.817674 
L 324.968727 293.817674 
L 324.968727 293.867757 
L 324.759273 293.817674 
L 324.759273 293.91784 
L 323.921455 294.018007 
L 323.921455 294.018007 
L 323.712 294.168257 
L 323.712 293.967924 
L 323.502545 294.06809 
L 323.502545 293.967924 
L 323.083636 294.018007 
L 323.083636 294.018007 
L 322.664727 293.967924 
L 322.664727 294.06809 
L 322.455273 293.91784 
L 322.245818 294.018007 
L 322.245818 293.967924 
L 321.617455 293.867757 
L 320.989091 293.817674 
L 321.198545 293.817674 
L 320.360727 293.717507 
L 320.360727 293.817674 
L 320.360727 293.667424 
L 320.151273 293.867757 
L 320.151273 293.76759 
L 319.941818 293.717507 
L 319.941818 293.867757 
L 319.522909 293.867757 
L 319.522909 293.76759 
L 319.522909 294.018007 
L 319.313455 293.867757 
L 318.894545 294.118174 
L 318.894545 294.118174 
L 318.475636 294.118174 
L 318.266182 294.318507 
L 318.266182 294.268423 
L 317.218909 294.468757 
L 317.009455 294.418673 
L 316.8 294.51884 
L 316.8 294.468757 
L 315.543273 294.51884 
L 315.543273 294.568923 
L 315.543273 294.619007 
L 314.705455 294.568923 
L 314.705455 294.66909 
L 314.286545 294.568923 
L 314.286545 294.66909 
L 313.658182 294.568923 
L 313.658182 294.66909 
L 313.658182 294.619007 
L 313.239273 294.66909 
L 313.239273 294.619007 
L 311.144727 294.51884 
L 311.144727 294.568923 
L 311.144727 294.418673 
L 310.725818 294.51884 
L 309.469091 294.268423 
L 309.050182 294.268423 
L 309.050182 294.268423 
L 308.631273 294.21834 
L 308.631273 294.21834 
L 308.421818 294.118174 
L 308.421818 294.118174 
L 308.212364 294.168257 
L 308.212364 294.168257 
L 306.955636 293.667424 
L 306.955636 293.667424 
L 306.746182 293.61734 
L 306.536727 293.366924 
L 306.536727 293.216674 
L 306.117818 293.16659 
L 306.117818 293.016341 
L 305.908364 293.016341 
L 305.908364 293.016341 
L 305.908364 292.765924 
L 305.489455 292.615674 
L 305.28 292.415341 
L 305.28 292.465424 
L 305.070545 292.415341 
L 304.861091 292.515507 
L 305.070545 292.465424 
L 304.861091 292.365257 
L 304.651636 292.465424 
L 304.651636 292.215007 
L 304.651636 292.365257 
L 304.442182 292.465424 
L 304.023273 292.315174 
L 303.813818 292.465424 
L 303.813818 292.465424 
L 303.394909 292.215007 
L 303.394909 292.465424 
L 303.394909 292.465424 
L 303.185455 292.365257 
L 302.557091 292.515507 
L 302.557091 292.465424 
L 302.557091 292.665757 
L 302.557091 292.615674 
L 302.138182 292.665757 
L 302.138182 292.665757 
L 302.138182 292.816007 
L 301.719273 292.615674 
L 301.719273 292.816007 
L 301.300364 292.866091 
L 301.300364 292.916174 
L 300.672 293.066424 
L 300.672 292.916174 
L 300.672 293.066424 
L 298.996364 293.016341 
L 298.996364 293.016341 
L 298.996364 292.866091 
L 298.786909 293.066424 
L 298.786909 293.016341 
L 298.158545 293.116507 
L 298.158545 292.916174 
L 297.949091 293.116507 
L 297.949091 293.116507 
L 297.739636 292.966257 
L 297.530182 293.16659 
L 297.530182 293.066424 
L 297.111273 293.16659 
L 296.901818 292.916174 
L 296.901818 293.116507 
L 296.482909 293.16659 
L 296.482909 293.116507 
L 296.482909 293.016341 
L 296.482909 293.066424 
L 296.064 293.216674 
L 296.064 292.966257 
L 296.064 293.116507 
L 295.645091 293.116507 
L 295.645091 293.116507 
L 295.645091 293.16659 
L 294.807273 293.216674 
L 295.016727 293.366924 
L 294.807273 293.31684 
L 294.807273 293.417007 
L 294.178909 293.46709 
L 294.388364 293.46709 
L 294.178909 293.717507 
L 293.969455 293.61734 
L 293.969455 293.667424 
L 293.76 293.817674 
L 293.76 293.91784 
L 293.550545 293.817674 
L 293.550545 294.018007 
L 293.341091 293.91784 
L 293.341091 294.168257 
L 293.341091 294.06809 
L 290.827636 294.66909 
L 290.827636 294.51884 
L 290.618182 294.66909 
L 290.618182 294.568923 
L 289.152 294.468757 
L 289.152 294.418673 
L 288.733091 294.418673 
L 288.733091 294.268423 
L 288.733091 294.268423 
L 288.314182 294.168257 
L 288.314182 294.168257 
L 288.104727 294.018007 
L 288.104727 294.06809 
L 287.685818 293.867757 
L 287.685818 293.717507 
L 287.057455 293.867757 
L 287.057455 293.817674 
L 286.638545 293.717507 
L 286.638545 293.76759 
L 286.638545 293.567257 
L 286.219636 293.61734 
L 286.219636 293.366924 
L 285.800727 293.16659 
L 285.800727 293.016341 
L 285.800727 293.16659 
L 285.381818 292.665757 
L 285.381818 292.565591 
L 285.172364 292.565591 
L 285.172364 292.365257 
L 284.962909 292.265091 
L 284.962909 292.265091 
L 284.962909 292.114841 
L 284.962909 292.164924 
L 284.753455 292.114841 
L 284.753455 291.814341 
L 284.334545 291.563924 
L 284.334545 291.313508 
L 284.125091 291.313508 
L 284.125091 290.962925 
L 283.706182 290.562258 
L 283.706182 290.412008 
L 283.496727 290.462091 
L 283.496727 290.311841 
L 283.496727 290.361925 
L 283.077818 290.111508 
L 283.077818 290.311841 
L 283.077818 290.111508 
L 282.868364 290.061425 
L 282.868364 289.911175 
L 282.868364 289.911175 
L 282.658909 289.460425 
L 282.658909 289.510508 
L 282.24 288.909509 
L 282.24 288.008009 
L 282.030545 288.158259 
L 282.030545 287.807676 
L 281.821091 288.008009 
L 281.821091 287.907842 
L 281.821091 287.757592 
L 281.611636 287.457092 
L 281.611636 287.206676 
L 281.402182 287.256759 
L 281.611636 287.156592 
L 281.192727 287.056426 
L 281.402182 286.806009 
L 281.192727 286.806009 
L 281.192727 286.605676 
L 280.564364 286.305176 
L 280.773818 286.154926 
L 280.354909 286.505509 
L 280.354909 286.004676 
L 280.145455 286.054759 
L 280.145455 286.205009 
L 279.936 286.104843 
L 279.936 286.255093 
L 279.936 286.004676 
L 279.936 286.255093 
L 279.726545 286.054759 
L 279.726545 286.054759 
L 279.517091 286.154926 
L 279.726545 286.004676 
L 279.517091 286.004676 
L 279.307636 286.305176 
L 279.307636 286.054759 
L 279.307636 286.054759 
L 279.098182 286.154926 
L 279.098182 286.154926 
L 278.679273 286.004676 
L 278.469818 286.505509 
L 278.469818 286.255093 
L 278.469818 286.104843 
L 278.050909 286.605676 
L 278.050909 286.405343 
L 277.841455 286.455426 
L 277.841455 286.605676 
L 277.632 286.555593 
L 277.632 286.605676 
L 277.632 286.856092 
L 277.632 286.705843 
L 277.422545 287.006342 
L 277.422545 286.956259 
L 277.422545 286.806009 
L 277.213091 287.056426 
L 277.213091 287.056426 
L 277.213091 287.356926 
L 277.003636 287.156592 
L 277.003636 287.356926 
L 276.794182 287.256759 
L 276.794182 287.557259 
L 276.584727 287.306842 
L 276.584727 287.807676 
L 276.584727 287.457092 
L 276.375273 288.008009 
L 276.165818 287.857759 
L 276.165818 288.008009 
L 275.956364 288.158259 
L 275.956364 288.308509 
L 275.956364 288.208342 
L 275.746909 288.508842 
L 275.537455 288.558925 
L 275.537455 288.709175 
L 275.537455 288.709175 
L 275.328 288.659092 
L 275.328 288.909509 
L 274.909091 288.909509 
L 275.118545 289.210008 
L 274.909091 289.410342 
L 274.909091 289.360258 
L 274.490182 289.260092 
L 274.490182 289.660758 
L 274.071273 289.811008 
L 274.071273 290.161591 
L 273.861818 289.911175 
L 273.652364 290.211675 
L 273.652364 290.161591 
L 273.442909 290.261758 
L 273.442909 290.211675 
L 273.024 290.912841 
L 273.024 290.862758 
L 272.605091 290.962925 
L 272.605091 291.063091 
L 272.186182 290.962925 
L 272.186182 291.063091 
L 271.767273 291.263424 
L 271.767273 290.962925 
L 271.557818 291.113174 
L 271.557818 291.363591 
L 271.557818 291.263424 
L 271.348364 291.263424 
L 271.348364 291.213341 
L 271.348364 291.113174 
L 271.348364 291.263424 
L 271.348364 291.113174 
L 271.138909 291.263424 
L 271.138909 291.263424 
L 270.929455 291.163258 
L 270.929455 291.463758 
L 270.929455 291.463758 
L 270.510545 292.114841 
L 270.510545 292.365257 
L 270.510545 292.315174 
L 270.301091 292.415341 
L 270.301091 292.415341 
L 270.091636 292.265091 
L 270.091636 292.615674 
L 269.882182 292.615674 
L 269.882182 292.765924 
L 269.672727 292.916174 
L 269.882182 293.016341 
L 269.672727 293.066424 
L 269.672727 293.266757 
L 269.672727 293.266757 
L 269.463273 293.517174 
L 269.253818 293.417007 
L 269.253818 293.46709 
L 269.044364 293.61734 
L 269.044364 294.06809 
L 268.834909 293.967924 
L 268.625455 294.21834 
L 268.416 294.168257 
L 268.416 294.318507 
L 268.416 294.318507 
L 268.206545 294.21834 
L 267.787636 294.318507 
L 267.787636 294.168257 
L 267.368727 294.21834 
L 267.368727 294.118174 
L 266.740364 293.46709 
L 266.740364 293.16659 
L 266.530909 292.866091 
L 266.321455 292.966257 
L 266.321455 292.665757 
L 266.112 292.315174 
L 266.112 291.864424 
L 265.902545 291.513841 
L 265.902545 290.812675 
L 265.693091 290.612341 
L 265.693091 290.412008 
L 265.483636 290.111508 
L 265.483636 289.911175 
L 265.274182 289.610675 
L 265.274182 289.410342 
L 264.855273 288.158259 
L 264.855273 286.755926 
L 264.645818 286.004676 
L 264.645818 285.103176 
L 264.436364 284.902843 
L 264.436364 284.55226 
L 264.226909 284.25176 
L 264.226909 284.452093 
L 264.017455 284.151593 
L 264.017455 283.04976 
L 263.808 281.497178 
L 263.808 279.744261 
L 262.970182 276.288513 
L 262.970182 275.336929 
L 262.132364 270.428764 
L 262.132364 268.625765 
L 261.713455 267.523932 
L 261.713455 266.171682 
L 261.294545 265.220099 
L 261.504 264.518933 
L 261.504 263.667517 
L 261.294545 262.415434 
L 261.294545 260.462184 
L 260.875636 258.058185 
L 260.875636 257.457185 
L 260.456727 254.752686 
L 260.456727 252.54902 
L 260.247273 251.697604 
L 260.247273 250.145021 
L 260.037818 249.193438 
L 260.037818 246.939689 
L 259.828364 246.989772 
L 259.828364 244.235189 
L 259.618909 242.682607 
L 259.618909 241.731024 
L 259.2 240.228524 
L 259.409455 239.727691 
L 259.409455 237.874608 
L 258.990545 236.221859 
L 258.990545 234.118359 
L 258.990545 234.268609 
L 258.781091 233.016526 
L 258.781091 228.509028 
L 258.571636 227.757778 
L 258.362182 225.403862 
L 258.362182 223.100029 
L 258.152727 219.443947 
L 258.152727 216.188532 
L 257.733818 210.679367 
L 257.733818 210.929783 
L 257.524364 210.479033 
L 257.524364 206.672701 
L 257.105455 201.564203 
L 257.105455 198.859704 
L 256.896 196.305455 
L 256.896 194.252039 
L 256.686545 193.651039 
L 256.686545 194.151872 
L 256.477091 193.801289 
L 256.477091 194.652705 
L 256.477091 191.347206 
L 256.267636 190.295457 
L 256.058182 188.39229 
L 256.058182 187.240374 
L 255.848727 183.684459 
L 255.848727 176.472461 
L 255.639273 172.415712 
L 255.429818 171.714546 
L 255.429818 172.065129 
L 255.429818 170.512546 
L 255.220364 170.712879 
L 255.220364 170.562629 
L 255.010909 170.512546 
L 255.010909 168.90988 
L 254.801455 165.854798 
L 254.801455 160.495883 
L 254.382545 152.332302 
L 254.382545 153.684552 
L 254.173091 152.883218 
L 253.963636 152.682885 
L 254.173091 153.033468 
L 253.963636 151.931635 
L 253.754182 146.87322 
L 253.754182 141.914972 
L 253.544727 141.764722 
L 253.544727 138.70964 
L 253.335273 135.955057 
L 253.335273 131.898308 
L 253.125818 129.544393 
L 253.125818 130.445892 
L 252.916364 132.899975 
L 252.916364 132.549392 
L 252.706909 129.844892 
L 252.706909 124.285644 
L 252.497455 117.774813 
L 252.288 117.824896 
L 252.288 116.272313 
L 252.078545 117.57448 
L 252.078545 116.422563 
L 251.869091 113.367481 
L 251.659636 113.367481 
L 251.869091 112.465981 
L 251.450182 106.155483 
L 251.450182 103.751484 
L 251.240727 97.491069 
L 250.821818 100.546152 
L 250.821818 98.392569 
L 250.612364 95.637987 
L 250.821818 92.883404 
L 250.402909 91.080405 
L 250.402909 91.881738 
L 250.193455 89.227322 
L 250.193455 86.773239 
L 249.984 85.320823 
L 250.193455 86.873406 
L 249.774545 80.913491 
L 249.774545 82.716491 
L 249.565091 86.222323 
L 249.565091 82.766574 
L 249.565091 82.866741 
L 249.355636 80.512825 
L 249.355636 78.409325 
L 249.146182 79.260742 
L 249.146182 78.709825 
L 249.146182 80.612991 
L 248.936727 76.456076 
L 248.727273 76.155576 
L 248.727273 81.814991 
L 248.517818 77.758242 
L 248.517818 81.013658 
L 248.308364 77.758242 
L 248.308364 73.50116 
L 248.098909 71.397661 
L 248.098909 66.940246 
L 247.889455 57.023749 
L 247.889455 58.676498 
L 247.68 53.568 
L 247.68 55.721583 
L 247.68 59.527915 
L 247.261091 64.13558 
L 247.261091 58.876832 
L 247.051636 55.320916 
L 247.051636 58.876832 
L 246.842182 59.728248 
L 246.842182 61.230748 
L 246.632727 58.325915 
L 246.632727 58.826748 
L 246.423273 57.925249 
L 246.423273 54.31925 
L 246.213818 61.781664 
L 246.213818 61.431081 
L 246.004364 60.078831 
L 246.004364 61.130581 
L 245.794909 61.280831 
L 245.585455 58.926915 
L 245.585455 63.033747 
L 245.585455 62.432747 
L 245.166545 57.875165 
L 245.166545 55.971999 
L 245.166545 58.776665 
L 244.747636 56.022083 
L 244.747636 54.419416 
L 244.747636 60.078831 
L 244.538182 62.78333 
L 244.538182 60.830081 
L 244.328727 58.325915 
L 244.328727 61.180664 
L 244.119273 61.981997 
L 244.119273 62.63308 
L 243.700364 60.880164 
L 243.700364 59.577998 
L 243.700364 60.779998 
L 243.281455 63.634747 
L 243.281455 66.188996 
L 243.072 61.280831 
L 242.862545 63.334247 
L 242.862545 70.496161 
L 242.443636 66.840079 
L 242.443636 68.142245 
L 242.234182 67.441079 
L 242.234182 72.549577 
L 242.234182 70.195661 
L 241.605818 77.457742 
L 241.605818 76.506159 
L 241.396364 80.112158 
L 241.186909 79.761575 
L 240.977455 82.265741 
L 241.186909 84.118824 
L 240.977455 83.668074 
L 240.768 83.668074 
L 240.768 87.023656 
L 240.558545 87.574573 
L 240.558545 86.522823 
L 240.558545 88.976905 
L 240.139636 90.128822 
L 240.139636 97.240653 
L 239.930182 97.791569 
L 239.930182 96.73982 
L 239.301818 105.905067 
L 239.092364 106.25565 
L 239.092364 108.359149 
L 238.673455 112.916731 
L 238.673455 114.970147 
L 238.464 117.42423 
L 238.464 118.976813 
L 238.254545 120.579479 
L 238.254545 122.182145 
L 238.045091 123.434228 
L 238.045091 125.187144 
L 237.835636 124.485977 
L 237.835636 126.739727 
L 236.997818 136.355724 
L 236.997818 141.013472 
L 236.997818 139.811473 
L 236.788364 141.163722 
L 236.788364 143.617805 
L 236.578909 141.163722 
L 236.578909 143.116972 
L 236.369455 145.220471 
L 236.369455 148.07522 
L 235.950545 153.534302 
L 235.950545 160.445799 
L 235.741091 162.499215 
L 235.741091 161.497549 
L 235.531636 161.347299 
L 235.531636 163.751298 
L 235.322182 165.604381 
L 235.322182 166.606047 
L 235.112727 165.954964 
L 235.112727 168.15863 
L 234.903273 170.863129 
L 234.903273 177.023377 
L 234.484364 183.033376 
L 234.484364 186.589291 
L 234.274909 186.589291 
L 234.274909 191.898123 
L 234.065455 195.003288 
L 234.065455 193.901455 
L 233.646545 198.709454 
L 233.646545 200.562537 
L 233.437091 203.667702 
L 233.437091 209.176867 
L 233.227636 212.031616 
L 233.227636 214.485699 
L 232.808727 219.243614 
L 232.808727 222.298696 
L 232.599273 222.64928 
L 232.389818 225.804529 
L 232.389818 227.958111 
L 232.180364 232.31536 
L 232.180364 236.121692 
L 231.761455 243.33369 
L 231.552 244.185106 
L 231.552 245.837856 
L 231.342545 246.539022 
L 231.133091 247.690938 
L 231.342545 248.291938 
L 231.133091 250.295271 
L 231.133091 252.54902 
L 230.714182 256.155019 
L 230.714182 258.609101 
L 230.295273 263.617433 
L 230.295273 265.370349 
L 230.085818 265.720933 
L 229.876364 266.472182 
L 229.876364 267.273515 
L 229.666909 268.976348 
L 229.666909 270.679181 
L 229.457455 272.031431 
L 229.457455 273.68418 
L 229.248 274.836096 
L 229.248 276.038096 
L 229.038545 276.438762 
L 229.038545 277.440429 
L 228.619636 278.892845 
L 228.619636 280.195011 
L 228.200727 281.346928 
L 228.200727 281.847761 
L 227.991273 281.998011 
L 227.991273 283.550594 
L 227.572364 284.85276 
L 227.572364 286.305176 
L 227.153455 287.557259 
L 227.153455 288.358592 
L 226.944 288.558925 
L 226.944 289.009675 
L 226.734545 289.260092 
L 226.734545 289.911175 
L 226.315636 290.211675 
L 226.315636 291.163258 
L 225.896727 292.164924 
L 225.896727 292.565591 
L 225.477818 292.816007 
L 225.477818 293.216674 
L 224.64 293.967924 
L 223.802182 294.06809 
L 223.802182 294.06809 
L 223.383273 293.967924 
L 223.383273 293.867757 
L 222.964364 293.76759 
L 222.964364 293.76759 
L 222.545455 293.417007 
L 222.336 293.366924 
L 222.336 293.366924 
L 222.126545 293.116507 
L 221.707636 292.916174 
L 221.707636 292.565591 
L 221.498182 292.415341 
L 221.498182 292.265091 
L 221.079273 292.215007 
L 221.079273 291.814341 
L 220.660364 291.013008 
L 220.660364 290.862758 
L 219.613091 289.861092 
L 219.613091 289.610675 
L 219.403636 289.210008 
L 219.194182 289.159925 
L 219.194182 288.408675 
L 218.984727 288.158259 
L 218.984727 287.557259 
L 218.356364 286.906176 
L 218.356364 287.006342 
L 218.146909 286.806009 
L 218.146909 286.355259 
L 217.937455 286.104843 
L 217.937455 285.654093 
L 217.728 285.353593 
L 217.728 285.403676 
L 217.518545 284.55226 
L 217.309091 284.25176 
L 217.309091 283.80101 
L 217.099636 283.600677 
L 217.099636 283.400344 
L 216.890182 283.65076 
L 216.890182 283.400344 
L 216.471273 282.849427 
L 216.471273 282.398677 
L 216.261818 282.248427 
L 216.261818 281.897844 
L 215.842909 280.094845 
L 215.633455 280.144928 
L 215.633455 279.543928 
L 215.214545 279.944595 
L 215.214545 279.844428 
L 215.005091 279.343595 
L 215.005091 278.942928 
L 214.795636 278.942928 
L 214.376727 277.891179 
L 214.167273 278.191679 
L 213.957818 277.891179 
L 213.957818 278.041429 
L 213.748364 278.191679 
L 213.538909 278.091512 
L 213.538909 277.791012 
L 213.329455 278.392012 
L 212.910545 278.742595 
L 212.910545 278.341929 
L 212.910545 278.742595 
L 212.701091 278.842762 
L 212.701091 279.193345 
L 212.491636 279.493845 
L 212.282182 279.393678 
L 212.282182 280.144928 
L 212.072727 280.044761 
L 212.072727 280.295178 
L 211.653818 280.445428 
L 211.653818 280.846094 
L 211.653818 280.796011 
L 211.234909 281.697511 
L 211.025455 282.098177 
L 211.025455 282.398677 
L 210.816 282.799344 
L 210.816 283.700843 
L 210.606545 284.10151 
L 210.397091 283.95126 
L 210.397091 284.40201 
L 210.187636 284.952926 
L 210.187636 284.802676 
L 209.768727 284.802676 
L 209.768727 286.205009 
L 209.559273 286.305176 
L 209.559273 286.555593 
L 209.140364 287.507176 
L 208.930909 287.557259 
L 208.930909 288.058092 
L 208.721455 288.058092 
L 208.512 288.609009 
L 208.302545 289.210008 
L 207.883636 289.560592 
L 207.883636 290.011341 
L 207.674182 289.961258 
L 206.836364 290.962925 
L 206.836364 291.313508 
L 206.626909 291.263424 
L 206.626909 291.413674 
L 206.417455 291.513841 
L 206.417455 291.714174 
L 206.208 291.513841 
L 205.789091 292.014674 
L 205.789091 292.014674 
L 205.789091 292.114841 
L 205.370182 292.365257 
L 205.160727 292.465424 
L 205.160727 292.615674 
L 204.951273 292.715841 
L 204.951273 292.866091 
L 204.322909 293.016341 
L 204.322909 293.016341 
L 203.904 293.266757 
L 203.904 293.46709 
L 203.485091 293.567257 
L 203.694545 293.717507 
L 203.066182 293.867757 
L 203.066182 294.06809 
L 202.856727 294.018007 
L 202.856727 294.118174 
L 202.647273 294.118174 
L 202.647273 294.268423 
L 202.228364 294.318507 
L 202.018909 294.51884 
L 202.018909 294.51884 
L 200.552727 294.468757 
L 200.552727 294.418673 
L 200.552727 294.36859 
L 199.924364 294.318507 
L 199.924364 294.318507 
L 199.505455 294.06809 
L 199.505455 294.06809 
L 199.086545 293.967924 
L 199.086545 294.018007 
L 198.667636 293.91784 
L 198.458182 293.76759 
L 198.248727 293.61734 
L 197.829818 293.517174 
L 197.829818 293.567257 
L 197.829818 293.46709 
L 196.992 293.366924 
L 196.992 293.31684 
L 195.525818 292.515507 
L 195.525818 292.365257 
L 195.106909 292.315174 
L 195.106909 292.315174 
L 195.106909 292.164924 
L 194.688 292.064758 
L 194.688 292.014674 
L 194.478545 291.964591 
L 194.478545 291.513841 
L 194.269091 291.413674 
L 194.269091 291.263424 
L 194.059636 291.013008 
L 194.059636 291.113174 
L 193.850182 291.113174 
L 193.850182 290.912841 
L 193.431273 290.612341 
L 193.431273 290.562258 
L 193.221818 290.111508 
L 193.221818 289.760925 
L 193.012364 289.811008 
L 193.012364 289.560592 
L 192.802909 289.360258 
L 192.802909 289.159925 
L 192.593455 288.909509 
L 192.384 288.959592 
L 192.384 288.909509 
L 191.755636 288.458759 
L 191.755636 288.558925 
L 191.755636 288.308509 
L 191.336727 288.558925 
L 191.336727 288.308509 
L 191.336727 288.358592 
L 191.127273 288.508842 
L 190.917818 288.408675 
L 190.708364 288.659092 
L 190.498909 288.659092 
L 190.498909 288.759259 
L 190.289455 289.109842 
L 190.498909 289.109842 
L 190.08 289.260092 
L 190.08 289.460425 
L 190.08 289.460425 
L 189.870545 289.510508 
L 188.823273 290.762591 
L 188.823273 290.762591 
L 188.613818 290.712508 
L 188.404364 291.013008 
L 188.194909 291.013008 
L 187.985455 291.163258 
L 187.985455 291.313508 
L 187.985455 291.313508 
L 187.357091 291.513841 
L 187.357091 291.463758 
L 187.357091 291.614008 
L 185.890909 291.864424 
L 185.890909 291.864424 
L 185.472 291.964591 
L 185.262545 292.014674 
L 185.262545 291.964591 
L 185.262545 292.164924 
L 184.843636 292.014674 
L 184.843636 292.064758 
L 184.215273 292.365257 
L 184.215273 292.515507 
L 183.796364 292.365257 
L 183.796364 292.515507 
L 183.796364 292.515507 
L 183.377455 292.765924 
L 183.586909 292.715841 
L 182.958545 293.266757 
L 182.958545 293.46709 
L 182.749091 293.61734 
L 182.330182 293.717507 
L 182.330182 293.76759 
L 182.120727 293.867757 
L 181.701818 294.21834 
L 179.607273 294.619007 
L 177.303273 294.568923 
L 177.303273 294.468757 
L 176.256 294.168257 
L 176.256 294.06809 
L 175.837091 294.21834 
L 176.046545 294.018007 
L 175.627636 293.91784 
L 174.999273 293.717507 
L 174.580364 293.76759 
L 174.580364 293.717507 
L 173.323636 293.517174 
L 173.323636 293.567257 
L 172.904727 293.366924 
L 172.485818 293.31684 
L 172.485818 293.31684 
L 172.485818 293.216674 
L 172.276364 293.366924 
L 172.066909 293.31684 
L 172.066909 293.31684 
L 172.066909 293.116507 
L 171.857455 293.116507 
L 171.648 292.866091 
L 171.648 292.715841 
L 171.019636 292.465424 
L 171.019636 292.565591 
L 170.600727 292.215007 
L 170.600727 292.114841 
L 170.391273 292.064758 
L 170.391273 291.614008 
L 169.553455 291.313508 
L 169.134545 291.413674 
L 169.134545 291.313508 
L 168.296727 292.014674 
L 168.296727 292.215007 
L 167.877818 292.215007 
L 167.877818 292.215007 
L 167.877818 292.365257 
L 167.668364 292.415341 
L 167.458909 292.315174 
L 167.458909 292.565591 
L 167.249455 292.565591 
L 167.04 292.816007 
L 166.830545 292.765924 
L 166.621091 292.866091 
L 166.621091 292.715841 
L 166.621091 292.765924 
L 166.411636 292.665757 
L 165.992727 292.816007 
L 165.992727 292.665757 
L 165.364364 292.665757 
L 165.364364 292.665757 
L 165.364364 292.465424 
L 164.945455 292.615674 
L 164.945455 292.565591 
L 164.736 292.415341 
L 164.526545 292.465424 
L 164.526545 292.315174 
L 163.060364 293.066424 
L 163.060364 293.216674 
L 162.641455 293.717507 
L 162.641455 293.61734 
L 162.222545 293.76759 
L 162.222545 293.667424 
L 162.013091 293.667424 
L 161.384727 294.018007 
L 161.384727 293.967924 
L 161.175273 294.118174 
L 160.756364 294.06809 
L 160.756364 294.21834 
L 160.756364 294.21834 
L 160.546909 294.168257 
L 160.128 294.268423 
L 160.128 294.21834 
L 160.128 294.318507 
L 159.709091 294.318507 
L 159.709091 294.318507 
L 159.290182 294.36859 
L 159.290182 294.36859 
L 159.290182 294.468757 
L 159.080727 294.318507 
L 159.080727 294.468757 
L 158.871273 294.36859 
L 158.871273 294.36859 
L 157.824 294.51884 
L 157.824 294.468757 
L 157.824 294.619007 
L 157.614545 294.568923 
L 157.405091 294.66909 
L 157.405091 294.66909 
L 157.195636 294.619007 
L 157.195636 294.619007 
L 156.986182 294.719173 
L 156.776727 294.619007 
L 156.148364 294.66909 
L 156.148364 294.619007 
L 154.263273 294.568923 
L 154.263273 294.418673 
L 154.263273 294.468757 
L 153.216 294.418673 
L 153.216 294.318507 
L 153.216 294.36859 
L 153.006545 294.268423 
L 153.006545 294.318507 
L 152.797091 294.36859 
L 152.797091 294.268423 
L 152.797091 294.168257 
L 152.587636 294.21834 
L 152.378182 293.967924 
L 152.378182 294.018007 
L 151.121455 293.817674 
L 151.121455 293.817674 
L 149.864727 293.817674 
L 149.864727 293.61734 
L 149.655273 293.867757 
L 149.236364 293.46709 
L 149.026909 293.46709 
L 148.189091 292.866091 
L 147.979636 292.916174 
L 147.979636 292.665757 
L 147.979636 292.715841 
L 147.351273 292.715841 
L 147.351273 292.765924 
L 146.513455 293.31684 
L 146.304 293.266757 
L 146.304 293.266757 
L 146.094545 293.417007 
L 146.094545 293.366924 
L 145.466182 293.46709 
L 144.837818 293.266757 
L 144.837818 293.366924 
L 144.837818 293.216674 
L 144 293.366924 
L 144 293.216674 
L 144 293.216674 
L 143.790545 293.066424 
L 143.581091 292.966257 
L 143.581091 293.016341 
L 142.952727 292.916174 
L 142.952727 292.866091 
L 142.114909 293.366924 
L 142.324364 293.517174 
L 141.067636 294.06809 
L 141.067636 294.018007 
L 140.229818 294.118174 
L 140.229818 294.118174 
L 140.229818 294.06809 
L 139.810909 294.06809 
L 139.182545 294.118174 
L 139.182545 294.21834 
L 138.973091 294.118174 
L 138.763636 294.268423 
L 138.763636 294.21834 
L 138.554182 294.21834 
L 138.344727 294.36859 
L 138.344727 294.268423 
L 137.506909 294.619007 
L 137.506909 294.619007 
L 132.270545 294.568923 
L 132.061091 294.468757 
L 132.061091 294.51884 
L 131.223273 294.418673 
L 131.223273 294.318507 
L 131.223273 294.418673 
L 130.804364 294.268423 
L 130.385455 294.268423 
L 129.338182 293.967924 
L 129.128727 293.817674 
L 129.128727 293.967924 
L 128.919273 294.018007 
L 128.919273 293.967924 
L 128.500364 293.967924 
L 128.500364 294.018007 
L 127.034182 293.91784 
L 127.034182 293.91784 
L 126.405818 293.667424 
L 125.986909 293.567257 
L 125.777455 293.417007 
L 125.777455 293.417007 
L 124.520727 293.46709 
L 124.520727 293.517174 
L 123.473455 293.76759 
L 123.682909 293.91784 
L 123.473455 293.867757 
L 123.264 293.91784 
L 123.054545 293.817674 
L 123.054545 293.867757 
L 122.845091 293.867757 
L 122.845091 293.76759 
L 122.845091 293.717507 
L 122.216727 293.717507 
L 122.216727 293.517174 
L 122.007273 293.517174 
L 122.007273 293.417007 
L 121.588364 293.366924 
L 121.588364 293.417007 
L 120.96 293.417007 
L 120.750545 293.667424 
L 120.750545 293.817674 
L 120.541091 294.018007 
L 120.331636 293.967924 
L 120.122182 294.06809 
L 119.912727 294.018007 
L 119.912727 294.018007 
L 119.703273 294.168257 
L 119.703273 294.168257 
L 118.237091 294.06809 
L 118.237091 294.118174 
L 117.608727 294.06809 
L 117.608727 294.118174 
L 116.770909 294.21834 
L 116.770909 294.268423 
L 115.095273 294.568923 
L 115.095273 294.568923 
L 113.210182 294.66909 
L 113.210182 294.719173 
L 110.068364 294.619007 
L 110.068364 294.568923 
L 110.068364 294.568923 
L 109.858909 294.619007 
L 109.858909 294.568923 
L 109.649455 294.51884 
L 109.44 294.619007 
L 108.811636 294.51884 
L 108.811636 294.568923 
L 108.183273 294.51884 
L 108.183273 294.468757 
L 106.507636 294.118174 
L 106.298182 294.21834 
L 105.879273 294.168257 
L 105.879273 294.168257 
L 105.460364 294.268423 
L 104.622545 294.21834 
L 104.413091 294.118174 
L 104.413091 294.21834 
L 104.203636 294.21834 
L 104.203636 294.018007 
L 103.365818 293.91784 
L 102.946909 293.817674 
L 102.946909 293.817674 
L 102.737455 293.867757 
L 102.737455 293.717507 
L 101.690182 294.118174 
L 101.690182 294.06809 
L 100.433455 294.018007 
L 100.433455 293.967924 
L 99.386182 293.717507 
L 99.386182 293.76759 
L 98.129455 294.268423 
L 98.129455 294.268423 
L 97.710545 294.268423 
L 96.663273 294.168257 
L 96.663273 294.118174 
L 96.663273 294.168257 
L 96.453818 294.06809 
L 96.244364 294.168257 
L 96.244364 294.118174 
L 95.825455 294.118174 
L 95.825455 294.168257 
L 95.616 294.21834 
L 95.825455 294.318507 
L 93.940364 294.468757 
L 93.940364 294.418673 
L 93.312 294.468757 
L 93.102545 294.468757 
L 93.102545 294.619007 
L 92.683636 294.51884 
L 92.683636 294.619007 
L 92.055273 294.66909 
L 92.055273 294.66909 
L 87.237818 294.619007 
L 87.237818 294.51884 
L 86.818909 294.568923 
L 86.818909 294.568923 
L 85.981091 294.468757 
L 85.981091 294.51884 
L 84.933818 294.468757 
L 84.933818 294.418673 
L 84.724364 294.36859 
L 84.724364 294.468757 
L 84.096 294.36859 
L 84.096 294.36859 
L 83.258182 294.21834 
L 82.839273 294.268423 
L 82.839273 294.21834 
L 81.792 294.318507 
L 81.792 294.36859 
L 80.744727 294.168257 
L 80.744727 294.21834 
L 80.325818 294.118174 
L 80.325818 294.06809 
L 80.325818 294.118174 
L 79.697455 293.967924 
L 79.488 294.168257 
L 79.488 294.168257 
L 78.440727 294.268423 
L 78.440727 294.318507 
L 76.765091 294.018007 
L 76.765091 294.018007 
L 75.298909 294.268423 
L 73.832727 294.21834 
L 73.832727 294.21834 
" style="fill:none;stroke:#1f77b4;stroke-linecap:square;stroke-width:1.5;"/>
   </g>
   <g id="line2d_20">
    <path clip-path="url(#p0570bdb8a6)" d="M 73.832727 295.077981 
L 77.407502 295.080997 
L 82.607174 295.356732 
L 86.831908 295.487527 
L 90.406683 295.356302 
L 98.531171 294.909561 
L 101.780966 295.034881 
L 109.580475 295.486938 
L 112.505291 295.3565 
L 121.929697 294.690367 
L 124.854513 294.886484 
L 131.679083 295.486307 
L 133.953939 295.414368 
L 136.553776 295.116792 
L 142.728387 294.304866 
L 145.003243 294.308405 
L 147.2781 294.537358 
L 154.427649 295.486343 
L 156.377527 295.400674 
L 158.327404 295.097521 
L 161.252219 294.37915 
L 164.177035 293.704591 
L 166.126912 293.490441 
L 167.75181 293.52438 
L 169.701687 293.821523 
L 172.301523 294.514173 
L 175.226339 295.273384 
L 176.851237 295.475177 
L 178.476134 295.420592 
L 179.776052 295.171571 
L 181.40095 294.621025 
L 183.675807 293.544027 
L 186.600622 292.153402 
L 188.22552 291.663349 
L 189.525438 291.519394 
L 190.825356 291.629055 
L 192.125274 291.989925 
L 193.750172 292.735406 
L 198.299885 295.166609 
L 199.274824 295.422429 
L 200.249762 295.482677 
L 201.224701 295.315648 
L 202.19964 294.902683 
L 203.174578 294.240589 
L 204.149517 293.343212 
L 205.449435 291.837523 
L 207.724292 288.723889 
L 209.674169 286.191549 
L 210.649107 285.199422 
L 211.624046 284.49718 
L 212.274005 284.223089 
L 212.923964 284.122104 
L 213.573923 284.20441 
L 214.223882 284.474866 
L 214.873841 284.932396 
L 215.84878 285.951162 
L 216.823718 287.317983 
L 218.448616 290.108529 
L 220.398493 293.478272 
L 221.373432 294.73743 
L 222.023391 295.273107 
L 222.67335 295.486852 
L 223.323309 295.310452 
L 223.973268 294.676722 
L 224.623227 293.520957 
L 225.273186 291.782411 
L 225.923145 289.405763 
L 226.573104 286.342553 
L 227.548043 280.37495 
L 228.522981 272.679572 
L 229.49792 263.217749 
L 230.797838 247.904382 
L 232.097756 229.739385 
L 233.722654 203.727592 
L 236.32249 157.740695 
L 238.922326 112.826422 
L 240.547224 88.888173 
L 241.847142 73.536619 
L 242.82208 64.755755 
L 243.472039 60.348877 
L 244.121998 57.167705 
L 244.771957 55.253224 
L 245.096937 54.77937 
L 245.421916 54.630169 
L 245.746896 54.806103 
L 246.071876 55.306602 
L 246.396855 56.130046 
L 247.046814 58.734081 
L 247.696773 62.584607 
L 248.346732 67.632128 
L 249.321671 77.302749 
L 250.296609 89.242937 
L 251.596527 108.107703 
L 253.221425 135.110938 
L 258.746077 230.138936 
L 260.045995 248.249123 
L 261.345913 263.500622 
L 262.320852 272.914039 
L 263.29579 280.561265 
L 264.270729 286.482598 
L 265.245667 290.774141 
L 265.895627 292.799012 
L 266.545586 294.214955 
L 267.195545 295.080407 
L 267.845504 295.458441 
L 268.495463 295.415285 
L 269.145422 295.018859 
L 269.795381 294.337345 
L 270.770319 292.926671 
L 272.720197 289.472892 
L 274.345094 286.789682 
L 275.320033 285.53991 
L 276.294971 284.66189 
L 276.94493 284.305077 
L 277.594889 284.136692 
L 278.244848 284.154527 
L 278.894808 284.350759 
L 279.869746 284.950478 
L 280.844685 285.861785 
L 282.144603 287.430059 
L 286.694316 293.370713 
L 287.994234 294.507667 
L 288.969173 295.080572 
L 289.944111 295.403595 
L 290.91905 295.485742 
L 291.893989 295.350693 
L 293.193907 294.895774 
L 294.818804 294.039472 
L 298.0686 292.24262 
L 299.368518 291.772165 
L 300.668436 291.539686 
L 301.968354 291.563837 
L 303.268272 291.830142 
L 304.89317 292.436043 
L 307.817985 293.886538 
L 309.767862 294.760163 
L 311.39276 295.256846 
L 312.692678 295.456367 
L 314.317576 295.451321 
L 315.942473 295.202375 
L 318.21733 294.601787 
L 321.467125 293.74947 
L 323.417002 293.499796 
L 325.0419 293.509596 
L 326.991777 293.768432 
L 329.591613 294.38621 
L 333.166388 295.224952 
L 335.116265 295.456186 
L 337.066143 295.464107 
L 339.340999 295.22779 
L 346.165569 294.292258 
L 348.440426 294.325136 
L 351.040262 294.612818 
L 357.214873 295.438187 
L 359.48973 295.480121 
L 362.089566 295.313096 
L 369.239115 294.682762 
L 371.838952 294.743085 
L 375.413726 295.071617 
L 379.96344 295.456187 
L 382.888256 295.464492 
L 386.78801 295.209028 
L 391.662703 294.916976 
L 394.912498 294.970095 
L 398.487273 295.216398 
L 398.487273 295.216398 
" style="fill:none;stroke:#ff7f0e;stroke-linecap:square;stroke-width:1.5;"/>
   </g>
   <g id="patch_3">
    <path d="M 57.6 307.584 
L 57.6 41.472 
" style="fill:none;stroke:#000000;stroke-linecap:square;stroke-linejoin:miter;stroke-width:0.8;"/>
   </g>
   <g id="patch_4">
    <path d="M 414.72 307.584 
L 414.72 41.472 
" style="fill:none;stroke:#000000;stroke-linecap:square;stroke-linejoin:miter;stroke-width:0.8;"/>
   </g>
   <g id="patch_5">
    <path d="M 57.6 307.584 
L 414.72 307.584 
" style="fill:none;stroke:#000000;stroke-linecap:square;stroke-linejoin:miter;stroke-width:0.8;"/>
   </g>
   <g id="patch_6">
    <path d="M 57.6 41.472 
L 414.72 41.472 
" style="fill:none;stroke:#000000;stroke-linecap:square;stroke-linejoin:miter;stroke-width:0.8;"/>
   </g>
   <g id="legend_1">
    <g id="patch_7">
     <path d="M 313.723125 78.82825 
L 407.72 78.82825 
Q 409.72 78.82825 409.72 76.82825 
L 409.72 48.472 
Q 409.72 46.472 407.72 46.472 
L 313.723125 46.472 
Q 311.723125 46.472 311.723125 48.472 
L 311.723125 76.82825 
Q 311.723125 78.82825 313.723125 78.82825 
z
" style="fill:#ffffff;opacity:0.8;stroke:#cccccc;stroke-linejoin:miter;"/>
    </g>
    <g id="line2d_21">
     <path d="M 315.723125 54.570437 
L 335.723125 54.570437 
" style="fill:none;stroke:#1f77b4;stroke-linecap:square;stroke-width:1.5;"/>
    </g>
    <g id="line2d_22"/>
    <g id="text_19">
     <!-- .04Good2 -->
     <g transform="translate(343.723125 58.070437)scale(0.1 -0.1)">
      <defs>
       <path d="M 59.515625 10.40625 
L 59.515625 29.984375 
L 43.40625 29.984375 
L 43.40625 38.09375 
L 69.28125 38.09375 
L 69.28125 6.78125 
Q 63.578125 2.734375 56.6875 0.65625 
Q 49.8125 -1.421875 42 -1.421875 
Q 24.90625 -1.421875 15.25 8.5625 
Q 5.609375 18.5625 5.609375 36.375 
Q 5.609375 54.25 15.25 64.234375 
Q 24.90625 74.21875 42 74.21875 
Q 49.125 74.21875 55.546875 72.453125 
Q 61.96875 70.703125 67.390625 67.28125 
L 67.390625 56.78125 
Q 61.921875 61.421875 55.765625 63.765625 
Q 49.609375 66.109375 42.828125 66.109375 
Q 29.4375 66.109375 22.71875 58.640625 
Q 16.015625 51.171875 16.015625 36.375 
Q 16.015625 21.625 22.71875 14.15625 
Q 29.4375 6.6875 42.828125 6.6875 
Q 48.046875 6.6875 52.140625 7.59375 
Q 56.25 8.5 59.515625 10.40625 
z
" id="DejaVuSans-71"/>
       <path d="M 30.609375 48.390625 
Q 23.390625 48.390625 19.1875 42.75 
Q 14.984375 37.109375 14.984375 27.296875 
Q 14.984375 17.484375 19.15625 11.84375 
Q 23.34375 6.203125 30.609375 6.203125 
Q 37.796875 6.203125 41.984375 11.859375 
Q 46.1875 17.53125 46.1875 27.296875 
Q 46.1875 37.015625 41.984375 42.703125 
Q 37.796875 48.390625 30.609375 48.390625 
z
M 30.609375 56 
Q 42.328125 56 49.015625 48.375 
Q 55.71875 40.765625 55.71875 27.296875 
Q 55.71875 13.875 49.015625 6.21875 
Q 42.328125 -1.421875 30.609375 -1.421875 
Q 18.84375 -1.421875 12.171875 6.21875 
Q 5.515625 13.875 5.515625 27.296875 
Q 5.515625 40.765625 12.171875 48.375 
Q 18.84375 56 30.609375 56 
z
" id="DejaVuSans-111"/>
       <path d="M 45.40625 46.390625 
L 45.40625 75.984375 
L 54.390625 75.984375 
L 54.390625 0 
L 45.40625 0 
L 45.40625 8.203125 
Q 42.578125 3.328125 38.25 0.953125 
Q 33.9375 -1.421875 27.875 -1.421875 
Q 17.96875 -1.421875 11.734375 6.484375 
Q 5.515625 14.40625 5.515625 27.296875 
Q 5.515625 40.1875 11.734375 48.09375 
Q 17.96875 56 27.875 56 
Q 33.9375 56 38.25 53.625 
Q 42.578125 51.265625 45.40625 46.390625 
z
M 14.796875 27.296875 
Q 14.796875 17.390625 18.875 11.75 
Q 22.953125 6.109375 30.078125 6.109375 
Q 37.203125 6.109375 41.296875 11.75 
Q 45.40625 17.390625 45.40625 27.296875 
Q 45.40625 37.203125 41.296875 42.84375 
Q 37.203125 48.484375 30.078125 48.484375 
Q 22.953125 48.484375 18.875 42.84375 
Q 14.796875 37.203125 14.796875 27.296875 
z
" id="DejaVuSans-100"/>
      </defs>
      <use xlink:href="#DejaVuSans-46"/>
      <use x="31.787109" xlink:href="#DejaVuSans-48"/>
      <use x="95.410156" xlink:href="#DejaVuSans-52"/>
      <use x="159.033203" xlink:href="#DejaVuSans-71"/>
      <use x="236.523438" xlink:href="#DejaVuSans-111"/>
      <use x="297.705078" xlink:href="#DejaVuSans-111"/>
      <use x="358.886719" xlink:href="#DejaVuSans-100"/>
      <use x="422.363281" xlink:href="#DejaVuSans-50"/>
     </g>
    </g>
    <g id="line2d_23">
     <path d="M 315.723125 69.248562 
L 335.723125 69.248562 
" style="fill:none;stroke:#ff7f0e;stroke-linecap:square;stroke-width:1.5;"/>
    </g>
    <g id="line2d_24"/>
    <g id="text_20">
     <!-- .04Good2 fit -->
     <g transform="translate(343.723125 72.748562)scale(0.1 -0.1)">
      <defs>
       <path id="DejaVuSans-32"/>
       <path d="M 37.109375 75.984375 
L 37.109375 68.5 
L 28.515625 68.5 
Q 23.6875 68.5 21.796875 66.546875 
Q 19.921875 64.59375 19.921875 59.515625 
L 19.921875 54.6875 
L 34.71875 54.6875 
L 34.71875 47.703125 
L 19.921875 47.703125 
L 19.921875 0 
L 10.890625 0 
L 10.890625 47.703125 
L 2.296875 47.703125 
L 2.296875 54.6875 
L 10.890625 54.6875 
L 10.890625 58.5 
Q 10.890625 67.625 15.140625 71.796875 
Q 19.390625 75.984375 28.609375 75.984375 
z
" id="DejaVuSans-102"/>
       <path d="M 9.421875 54.6875 
L 18.40625 54.6875 
L 18.40625 0 
L 9.421875 0 
z
M 9.421875 75.984375 
L 18.40625 75.984375 
L 18.40625 64.59375 
L 9.421875 64.59375 
z
" id="DejaVuSans-105"/>
       <path d="M 18.3125 70.21875 
L 18.3125 54.6875 
L 36.8125 54.6875 
L 36.8125 47.703125 
L 18.3125 47.703125 
L 18.3125 18.015625 
Q 18.3125 11.328125 20.140625 9.421875 
Q 21.96875 7.515625 27.59375 7.515625 
L 36.8125 7.515625 
L 36.8125 0 
L 27.59375 0 
Q 17.1875 0 13.234375 3.875 
Q 9.28125 7.765625 9.28125 18.015625 
L 9.28125 47.703125 
L 2.6875 47.703125 
L 2.6875 54.6875 
L 9.28125 54.6875 
L 9.28125 70.21875 
z
" id="DejaVuSans-116"/>
      </defs>
      <use xlink:href="#DejaVuSans-46"/>
      <use x="31.787109" xlink:href="#DejaVuSans-48"/>
      <use x="95.410156" xlink:href="#DejaVuSans-52"/>
      <use x="159.033203" xlink:href="#DejaVuSans-71"/>
      <use x="236.523438" xlink:href="#DejaVuSans-111"/>
      <use x="297.705078" xlink:href="#DejaVuSans-111"/>
      <use x="358.886719" xlink:href="#DejaVuSans-100"/>
      <use x="422.363281" xlink:href="#DejaVuSans-50"/>
      <use x="485.986328" xlink:href="#DejaVuSans-32"/>
      <use x="517.773438" xlink:href="#DejaVuSans-102"/>
      <use x="552.978516" xlink:href="#DejaVuSans-105"/>
      <use x="580.761719" xlink:href="#DejaVuSans-116"/>
     </g>
    </g>
   </g>
  </g>
 </g>
 <defs>
  <clipPath id="p0570bdb8a6">
   <rect height="266.112" width="357.12" x="57.6" y="41.472"/>
  </clipPath>
 </defs>
</svg>
