<?xml version="1.0" encoding="utf-8" standalone="no"?>
<!DOCTYPE svg PUBLIC "-//W3C//DTD SVG 1.1//EN"
  "http://www.w3.org/Graphics/SVG/1.1/DTD/svg11.dtd">
<!-- Created with matplotlib (https://matplotlib.org/) -->
<svg height="345.6pt" version="1.1" viewBox="0 0 460.8 345.6" width="460.8pt" xmlns="http://www.w3.org/2000/svg" xmlns:xlink="http://www.w3.org/1999/xlink">
 <metadata>
  <rdf:RDF xmlns:cc="http://creativecommons.org/ns#" xmlns:dc="http://purl.org/dc/elements/1.1/" xmlns:rdf="http://www.w3.org/1999/02/22-rdf-syntax-ns#">
   <cc:Work>
    <dc:type rdf:resource="http://purl.org/dc/dcmitype/StillImage"/>
    <dc:date>2021-05-03T09:06:27.154285</dc:date>
    <dc:format>image/svg+xml</dc:format>
    <dc:creator>
     <cc:Agent>
      <dc:title>Matplotlib v3.3.4, https://matplotlib.org/</dc:title>
     </cc:Agent>
    </dc:creator>
   </cc:Work>
  </rdf:RDF>
 </metadata>
 <defs>
  <style type="text/css">*{stroke-linecap:butt;stroke-linejoin:round;}</style>
 </defs>
 <g id="figure_1">
  <g id="patch_1">
   <path d="M 0 345.6 
L 460.8 345.6 
L 460.8 0 
L 0 0 
z
" style="fill:#ffffff;"/>
  </g>
  <g id="axes_1">
   <g id="patch_2">
    <path d="M 57.6 307.584 
L 414.72 307.584 
L 414.72 41.472 
L 57.6 41.472 
z
" style="fill:#ffffff;"/>
   </g>
   <g id="matplotlib.axis_1">
    <g id="xtick_1">
     <g id="line2d_1">
      <defs>
       <path d="M 0 0 
L 0 3.5 
" id="m71ee70f3f0" style="stroke:#000000;stroke-width:0.8;"/>
      </defs>
      <g>
       <use style="stroke:#000000;stroke-width:0.8;" x="85.110773" xlink:href="#m71ee70f3f0" y="307.584"/>
      </g>
     </g>
     <g id="text_1">
      <!-- −0.75 -->
      <g transform="translate(69.788116 322.182437)scale(0.1 -0.1)">
       <defs>
        <path d="M 10.59375 35.5 
L 73.1875 35.5 
L 73.1875 27.203125 
L 10.59375 27.203125 
z
" id="DejaVuSans-8722"/>
        <path d="M 31.78125 66.40625 
Q 24.171875 66.40625 20.328125 58.90625 
Q 16.5 51.421875 16.5 36.375 
Q 16.5 21.390625 20.328125 13.890625 
Q 24.171875 6.390625 31.78125 6.390625 
Q 39.453125 6.390625 43.28125 13.890625 
Q 47.125 21.390625 47.125 36.375 
Q 47.125 51.421875 43.28125 58.90625 
Q 39.453125 66.40625 31.78125 66.40625 
z
M 31.78125 74.21875 
Q 44.046875 74.21875 50.515625 64.515625 
Q 56.984375 54.828125 56.984375 36.375 
Q 56.984375 17.96875 50.515625 8.265625 
Q 44.046875 -1.421875 31.78125 -1.421875 
Q 19.53125 -1.421875 13.0625 8.265625 
Q 6.59375 17.96875 6.59375 36.375 
Q 6.59375 54.828125 13.0625 64.515625 
Q 19.53125 74.21875 31.78125 74.21875 
z
" id="DejaVuSans-48"/>
        <path d="M 10.6875 12.40625 
L 21 12.40625 
L 21 0 
L 10.6875 0 
z
" id="DejaVuSans-46"/>
        <path d="M 8.203125 72.90625 
L 55.078125 72.90625 
L 55.078125 68.703125 
L 28.609375 0 
L 18.3125 0 
L 43.21875 64.59375 
L 8.203125 64.59375 
z
" id="DejaVuSans-55"/>
        <path d="M 10.796875 72.90625 
L 49.515625 72.90625 
L 49.515625 64.59375 
L 19.828125 64.59375 
L 19.828125 46.734375 
Q 21.96875 47.46875 24.109375 47.828125 
Q 26.265625 48.1875 28.421875 48.1875 
Q 40.625 48.1875 47.75 41.5 
Q 54.890625 34.8125 54.890625 23.390625 
Q 54.890625 11.625 47.5625 5.09375 
Q 40.234375 -1.421875 26.90625 -1.421875 
Q 22.3125 -1.421875 17.546875 -0.640625 
Q 12.796875 0.140625 7.71875 1.703125 
L 7.71875 11.625 
Q 12.109375 9.234375 16.796875 8.0625 
Q 21.484375 6.890625 26.703125 6.890625 
Q 35.15625 6.890625 40.078125 11.328125 
Q 45.015625 15.765625 45.015625 23.390625 
Q 45.015625 31 40.078125 35.4375 
Q 35.15625 39.890625 26.703125 39.890625 
Q 22.75 39.890625 18.8125 39.015625 
Q 14.890625 38.140625 10.796875 36.28125 
z
" id="DejaVuSans-53"/>
       </defs>
       <use xlink:href="#DejaVuSans-8722"/>
       <use x="83.789062" xlink:href="#DejaVuSans-48"/>
       <use x="147.412109" xlink:href="#DejaVuSans-46"/>
       <use x="179.199219" xlink:href="#DejaVuSans-55"/>
       <use x="242.822266" xlink:href="#DejaVuSans-53"/>
      </g>
     </g>
    </g>
    <g id="xtick_2">
     <g id="line2d_2">
      <g>
       <use style="stroke:#000000;stroke-width:0.8;" x="129.903335" xlink:href="#m71ee70f3f0" y="307.584"/>
      </g>
     </g>
     <g id="text_2">
      <!-- −0.50 -->
      <g transform="translate(114.580679 322.182437)scale(0.1 -0.1)">
       <use xlink:href="#DejaVuSans-8722"/>
       <use x="83.789062" xlink:href="#DejaVuSans-48"/>
       <use x="147.412109" xlink:href="#DejaVuSans-46"/>
       <use x="179.199219" xlink:href="#DejaVuSans-53"/>
       <use x="242.822266" xlink:href="#DejaVuSans-48"/>
      </g>
     </g>
    </g>
    <g id="xtick_3">
     <g id="line2d_3">
      <g>
       <use style="stroke:#000000;stroke-width:0.8;" x="174.695897" xlink:href="#m71ee70f3f0" y="307.584"/>
      </g>
     </g>
     <g id="text_3">
      <!-- −0.25 -->
      <g transform="translate(159.373241 322.182437)scale(0.1 -0.1)">
       <defs>
        <path d="M 19.1875 8.296875 
L 53.609375 8.296875 
L 53.609375 0 
L 7.328125 0 
L 7.328125 8.296875 
Q 12.9375 14.109375 22.625 23.890625 
Q 32.328125 33.6875 34.8125 36.53125 
Q 39.546875 41.84375 41.421875 45.53125 
Q 43.3125 49.21875 43.3125 52.78125 
Q 43.3125 58.59375 39.234375 62.25 
Q 35.15625 65.921875 28.609375 65.921875 
Q 23.96875 65.921875 18.8125 64.3125 
Q 13.671875 62.703125 7.8125 59.421875 
L 7.8125 69.390625 
Q 13.765625 71.78125 18.9375 73 
Q 24.125 74.21875 28.421875 74.21875 
Q 39.75 74.21875 46.484375 68.546875 
Q 53.21875 62.890625 53.21875 53.421875 
Q 53.21875 48.921875 51.53125 44.890625 
Q 49.859375 40.875 45.40625 35.40625 
Q 44.1875 33.984375 37.640625 27.21875 
Q 31.109375 20.453125 19.1875 8.296875 
z
" id="DejaVuSans-50"/>
       </defs>
       <use xlink:href="#DejaVuSans-8722"/>
       <use x="83.789062" xlink:href="#DejaVuSans-48"/>
       <use x="147.412109" xlink:href="#DejaVuSans-46"/>
       <use x="179.199219" xlink:href="#DejaVuSans-50"/>
       <use x="242.822266" xlink:href="#DejaVuSans-53"/>
      </g>
     </g>
    </g>
    <g id="xtick_4">
     <g id="line2d_4">
      <g>
       <use style="stroke:#000000;stroke-width:0.8;" x="219.488459" xlink:href="#m71ee70f3f0" y="307.584"/>
      </g>
     </g>
     <g id="text_4">
      <!-- 0.00 -->
      <g transform="translate(208.355647 322.182437)scale(0.1 -0.1)">
       <use xlink:href="#DejaVuSans-48"/>
       <use x="63.623047" xlink:href="#DejaVuSans-46"/>
       <use x="95.410156" xlink:href="#DejaVuSans-48"/>
       <use x="159.033203" xlink:href="#DejaVuSans-48"/>
      </g>
     </g>
    </g>
    <g id="xtick_5">
     <g id="line2d_5">
      <g>
       <use style="stroke:#000000;stroke-width:0.8;" x="264.281022" xlink:href="#m71ee70f3f0" y="307.584"/>
      </g>
     </g>
     <g id="text_5">
      <!-- 0.25 -->
      <g transform="translate(253.148209 322.182437)scale(0.1 -0.1)">
       <use xlink:href="#DejaVuSans-48"/>
       <use x="63.623047" xlink:href="#DejaVuSans-46"/>
       <use x="95.410156" xlink:href="#DejaVuSans-50"/>
       <use x="159.033203" xlink:href="#DejaVuSans-53"/>
      </g>
     </g>
    </g>
    <g id="xtick_6">
     <g id="line2d_6">
      <g>
       <use style="stroke:#000000;stroke-width:0.8;" x="309.073584" xlink:href="#m71ee70f3f0" y="307.584"/>
      </g>
     </g>
     <g id="text_6">
      <!-- 0.50 -->
      <g transform="translate(297.940771 322.182437)scale(0.1 -0.1)">
       <use xlink:href="#DejaVuSans-48"/>
       <use x="63.623047" xlink:href="#DejaVuSans-46"/>
       <use x="95.410156" xlink:href="#DejaVuSans-53"/>
       <use x="159.033203" xlink:href="#DejaVuSans-48"/>
      </g>
     </g>
    </g>
    <g id="xtick_7">
     <g id="line2d_7">
      <g>
       <use style="stroke:#000000;stroke-width:0.8;" x="353.866146" xlink:href="#m71ee70f3f0" y="307.584"/>
      </g>
     </g>
     <g id="text_7">
      <!-- 0.75 -->
      <g transform="translate(342.733334 322.182437)scale(0.1 -0.1)">
       <use xlink:href="#DejaVuSans-48"/>
       <use x="63.623047" xlink:href="#DejaVuSans-46"/>
       <use x="95.410156" xlink:href="#DejaVuSans-55"/>
       <use x="159.033203" xlink:href="#DejaVuSans-53"/>
      </g>
     </g>
    </g>
    <g id="xtick_8">
     <g id="line2d_8">
      <g>
       <use style="stroke:#000000;stroke-width:0.8;" x="398.658709" xlink:href="#m71ee70f3f0" y="307.584"/>
      </g>
     </g>
     <g id="text_8">
      <!-- 1.00 -->
      <g transform="translate(387.525896 322.182437)scale(0.1 -0.1)">
       <defs>
        <path d="M 12.40625 8.296875 
L 28.515625 8.296875 
L 28.515625 63.921875 
L 10.984375 60.40625 
L 10.984375 69.390625 
L 28.421875 72.90625 
L 38.28125 72.90625 
L 38.28125 8.296875 
L 54.390625 8.296875 
L 54.390625 0 
L 12.40625 0 
z
" id="DejaVuSans-49"/>
       </defs>
       <use xlink:href="#DejaVuSans-49"/>
       <use x="63.623047" xlink:href="#DejaVuSans-46"/>
       <use x="95.410156" xlink:href="#DejaVuSans-48"/>
       <use x="159.033203" xlink:href="#DejaVuSans-48"/>
      </g>
     </g>
    </g>
   </g>
   <g id="matplotlib.axis_2">
    <g id="ytick_1">
     <g id="line2d_9">
      <defs>
       <path d="M 0 0 
L -3.5 0 
" id="md2780067fe" style="stroke:#000000;stroke-width:0.8;"/>
      </defs>
      <g>
       <use style="stroke:#000000;stroke-width:0.8;" x="57.6" xlink:href="#md2780067fe" y="295.488001"/>
      </g>
     </g>
     <g id="text_9">
      <!-- 0.00 -->
      <g transform="translate(28.334375 299.28722)scale(0.1 -0.1)">
       <use xlink:href="#DejaVuSans-48"/>
       <use x="63.623047" xlink:href="#DejaVuSans-46"/>
       <use x="95.410156" xlink:href="#DejaVuSans-48"/>
       <use x="159.033203" xlink:href="#DejaVuSans-48"/>
      </g>
     </g>
    </g>
    <g id="ytick_2">
     <g id="line2d_10">
      <g>
       <use style="stroke:#000000;stroke-width:0.8;" x="57.6" xlink:href="#md2780067fe" y="252.812999"/>
      </g>
     </g>
     <g id="text_10">
      <!-- 0.02 -->
      <g transform="translate(28.334375 256.612218)scale(0.1 -0.1)">
       <use xlink:href="#DejaVuSans-48"/>
       <use x="63.623047" xlink:href="#DejaVuSans-46"/>
       <use x="95.410156" xlink:href="#DejaVuSans-48"/>
       <use x="159.033203" xlink:href="#DejaVuSans-50"/>
      </g>
     </g>
    </g>
    <g id="ytick_3">
     <g id="line2d_11">
      <g>
       <use style="stroke:#000000;stroke-width:0.8;" x="57.6" xlink:href="#md2780067fe" y="210.137996"/>
      </g>
     </g>
     <g id="text_11">
      <!-- 0.04 -->
      <g transform="translate(28.334375 213.937215)scale(0.1 -0.1)">
       <defs>
        <path d="M 37.796875 64.3125 
L 12.890625 25.390625 
L 37.796875 25.390625 
z
M 35.203125 72.90625 
L 47.609375 72.90625 
L 47.609375 25.390625 
L 58.015625 25.390625 
L 58.015625 17.1875 
L 47.609375 17.1875 
L 47.609375 0 
L 37.796875 0 
L 37.796875 17.1875 
L 4.890625 17.1875 
L 4.890625 26.703125 
z
" id="DejaVuSans-52"/>
       </defs>
       <use xlink:href="#DejaVuSans-48"/>
       <use x="63.623047" xlink:href="#DejaVuSans-46"/>
       <use x="95.410156" xlink:href="#DejaVuSans-48"/>
       <use x="159.033203" xlink:href="#DejaVuSans-52"/>
      </g>
     </g>
    </g>
    <g id="ytick_4">
     <g id="line2d_12">
      <g>
       <use style="stroke:#000000;stroke-width:0.8;" x="57.6" xlink:href="#md2780067fe" y="167.462994"/>
      </g>
     </g>
     <g id="text_12">
      <!-- 0.06 -->
      <g transform="translate(28.334375 171.262212)scale(0.1 -0.1)">
       <defs>
        <path d="M 33.015625 40.375 
Q 26.375 40.375 22.484375 35.828125 
Q 18.609375 31.296875 18.609375 23.390625 
Q 18.609375 15.53125 22.484375 10.953125 
Q 26.375 6.390625 33.015625 6.390625 
Q 39.65625 6.390625 43.53125 10.953125 
Q 47.40625 15.53125 47.40625 23.390625 
Q 47.40625 31.296875 43.53125 35.828125 
Q 39.65625 40.375 33.015625 40.375 
z
M 52.59375 71.296875 
L 52.59375 62.3125 
Q 48.875 64.0625 45.09375 64.984375 
Q 41.3125 65.921875 37.59375 65.921875 
Q 27.828125 65.921875 22.671875 59.328125 
Q 17.53125 52.734375 16.796875 39.40625 
Q 19.671875 43.65625 24.015625 45.921875 
Q 28.375 48.1875 33.59375 48.1875 
Q 44.578125 48.1875 50.953125 41.515625 
Q 57.328125 34.859375 57.328125 23.390625 
Q 57.328125 12.15625 50.6875 5.359375 
Q 44.046875 -1.421875 33.015625 -1.421875 
Q 20.359375 -1.421875 13.671875 8.265625 
Q 6.984375 17.96875 6.984375 36.375 
Q 6.984375 53.65625 15.1875 63.9375 
Q 23.390625 74.21875 37.203125 74.21875 
Q 40.921875 74.21875 44.703125 73.484375 
Q 48.484375 72.75 52.59375 71.296875 
z
" id="DejaVuSans-54"/>
       </defs>
       <use xlink:href="#DejaVuSans-48"/>
       <use x="63.623047" xlink:href="#DejaVuSans-46"/>
       <use x="95.410156" xlink:href="#DejaVuSans-48"/>
       <use x="159.033203" xlink:href="#DejaVuSans-54"/>
      </g>
     </g>
    </g>
    <g id="ytick_5">
     <g id="line2d_13">
      <g>
       <use style="stroke:#000000;stroke-width:0.8;" x="57.6" xlink:href="#md2780067fe" y="124.787991"/>
      </g>
     </g>
     <g id="text_13">
      <!-- 0.08 -->
      <g transform="translate(28.334375 128.58721)scale(0.1 -0.1)">
       <defs>
        <path d="M 31.78125 34.625 
Q 24.75 34.625 20.71875 30.859375 
Q 16.703125 27.09375 16.703125 20.515625 
Q 16.703125 13.921875 20.71875 10.15625 
Q 24.75 6.390625 31.78125 6.390625 
Q 38.8125 6.390625 42.859375 10.171875 
Q 46.921875 13.96875 46.921875 20.515625 
Q 46.921875 27.09375 42.890625 30.859375 
Q 38.875 34.625 31.78125 34.625 
z
M 21.921875 38.8125 
Q 15.578125 40.375 12.03125 44.71875 
Q 8.5 49.078125 8.5 55.328125 
Q 8.5 64.0625 14.71875 69.140625 
Q 20.953125 74.21875 31.78125 74.21875 
Q 42.671875 74.21875 48.875 69.140625 
Q 55.078125 64.0625 55.078125 55.328125 
Q 55.078125 49.078125 51.53125 44.71875 
Q 48 40.375 41.703125 38.8125 
Q 48.828125 37.15625 52.796875 32.3125 
Q 56.78125 27.484375 56.78125 20.515625 
Q 56.78125 9.90625 50.3125 4.234375 
Q 43.84375 -1.421875 31.78125 -1.421875 
Q 19.734375 -1.421875 13.25 4.234375 
Q 6.78125 9.90625 6.78125 20.515625 
Q 6.78125 27.484375 10.78125 32.3125 
Q 14.796875 37.15625 21.921875 38.8125 
z
M 18.3125 54.390625 
Q 18.3125 48.734375 21.84375 45.5625 
Q 25.390625 42.390625 31.78125 42.390625 
Q 38.140625 42.390625 41.71875 45.5625 
Q 45.3125 48.734375 45.3125 54.390625 
Q 45.3125 60.0625 41.71875 63.234375 
Q 38.140625 66.40625 31.78125 66.40625 
Q 25.390625 66.40625 21.84375 63.234375 
Q 18.3125 60.0625 18.3125 54.390625 
z
" id="DejaVuSans-56"/>
       </defs>
       <use xlink:href="#DejaVuSans-48"/>
       <use x="63.623047" xlink:href="#DejaVuSans-46"/>
       <use x="95.410156" xlink:href="#DejaVuSans-48"/>
       <use x="159.033203" xlink:href="#DejaVuSans-56"/>
      </g>
     </g>
    </g>
    <g id="ytick_6">
     <g id="line2d_14">
      <g>
       <use style="stroke:#000000;stroke-width:0.8;" x="57.6" xlink:href="#md2780067fe" y="82.112988"/>
      </g>
     </g>
     <g id="text_14">
      <!-- 0.10 -->
      <g transform="translate(28.334375 85.912207)scale(0.1 -0.1)">
       <use xlink:href="#DejaVuSans-48"/>
       <use x="63.623047" xlink:href="#DejaVuSans-46"/>
       <use x="95.410156" xlink:href="#DejaVuSans-49"/>
       <use x="159.033203" xlink:href="#DejaVuSans-48"/>
      </g>
     </g>
    </g>
   </g>
   <g id="line2d_15">
    <path clip-path="url(#p3f9b896db0)" d="M 398.487273 295.249007 
L 398.487273 295.223448 
L 397.562989 295.249007 
L 397.562989 295.223448 
L 313.222129 295.121215 
L 313.4532 295.095657 
L 311.142491 295.249007 
L 311.142491 295.223448 
L 311.142491 295.249007 
L 309.524995 295.172332 
L 309.524995 295.146774 
L 309.524995 295.095657 
L 308.600712 295.095657 
L 308.600712 295.070099 
L 308.600712 295.095657 
L 307.907499 295.095657 
L 305.827862 295.223448 
L 305.827862 295.223448 
L 304.210366 295.146774 
L 304.210366 295.095657 
L 303.517153 295.095657 
L 303.517153 295.070099 
L 303.517153 294.993424 
L 302.82394 294.993424 
L 302.82394 294.993424 
L 302.130728 295.018982 
L 299.126807 295.249007 
L 299.126807 295.249007 
L 295.198602 294.916749 
L 295.198602 294.967865 
L 295.198602 294.942307 
L 294.274319 295.095657 
L 293.812177 295.146774 
L 292.194681 295.249007 
L 292.194681 295.249007 
L 292.194681 295.172332 
L 291.501469 295.146774 
L 291.501469 295.070099 
L 291.501469 295.070099 
L 288.728619 294.865632 
L 288.728619 294.865632 
L 288.728619 294.891191 
L 288.728619 294.865632 
L 287.342193 295.121215 
L 287.342193 295.172332 
L 287.342193 295.172332 
L 285.724698 295.121215 
L 285.724698 295.095657 
L 285.724698 295.04454 
L 285.031485 294.967865 
L 285.031485 294.865632 
L 284.338272 294.763399 
L 284.338272 294.763399 
L 284.569343 294.737841 
L 284.107202 294.686724 
L 284.107202 294.635608 
L 284.107202 294.635608 
L 283.64506 294.584491 
L 283.64506 294.661166 
L 282.951847 294.686724 
L 282.951847 294.737841 
L 282.951847 294.788957 
L 282.951847 294.763399 
L 282.258635 294.967865 
L 282.489706 295.04454 
L 282.258635 295.070099 
L 282.258635 295.121215 
L 281.565422 295.146774 
L 281.565422 295.19789 
L 281.565422 295.19789 
L 280.641139 295.223448 
L 280.641139 295.19789 
L 280.178997 295.146774 
L 280.178997 295.070099 
L 279.716855 295.018982 
L 279.254714 294.967865 
L 279.485785 294.942307 
L 277.868289 294.507816 
L 277.868289 294.533374 
L 277.868289 294.533374 
L 276.944005 294.482258 
L 276.944005 294.558933 
L 276.944005 294.558933 
L 274.633297 294.737841 
L 274.633297 294.737841 
L 274.633297 294.686724 
L 274.633297 294.763399 
L 274.171155 294.865632 
L 274.402226 294.916749 
L 274.171155 294.916749 
L 274.171155 295.095657 
L 273.709013 295.070099 
L 273.709013 295.095657 
L 273.709013 295.223448 
L 273.015801 295.172332 
L 273.015801 295.146774 
L 273.015801 295.070099 
L 272.78473 294.942307 
L 272.78473 294.865632 
L 272.322588 294.712283 
L 272.322588 294.533374 
L 272.091517 294.533374 
L 272.091517 294.277791 
L 271.629376 294.226675 
L 271.629376 294.201117 
L 270.474021 293.99665 
L 270.474021 294.047767 
L 270.474021 294.098883 
L 270.01188 293.99665 
L 270.01188 294.098883 
L 270.01188 294.047767 
L 269.780809 294.098883 
L 269.780809 294.073325 
L 269.780809 294.175558 
L 269.780809 294.124442 
L 269.318667 294.277791 
L 269.318667 294.277791 
L 269.318667 294.354466 
L 269.087596 294.354466 
L 269.087596 294.4567 
L 269.087596 294.661166 
L 269.087596 294.635608 
L 268.856525 294.737841 
L 268.625455 294.712283 
L 268.856525 294.814516 
L 268.394384 294.942307 
L 268.394384 295.04454 
L 268.394384 295.04454 
L 267.932242 295.223448 
L 267.932242 295.223448 
L 267.239029 295.146774 
L 267.4701 295.121215 
L 267.007959 294.942307 
L 267.007959 294.967865 
L 267.007959 294.891191 
L 266.776888 294.814516 
L 266.776888 294.763399 
L 266.545817 294.661166 
L 266.776888 294.533374 
L 266.314746 294.30335 
L 266.314746 294.047767 
L 266.083675 293.894417 
L 266.314746 293.8433 
L 266.083675 293.817742 
L 265.621533 293.562159 
L 265.621533 293.587717 
L 265.621533 293.511042 
L 265.390463 293.383251 
L 265.159392 293.562159 
L 265.159392 293.408809 
L 265.159392 293.485484 
L 264.69725 293.638834 
L 264.69725 293.638834 
L 264.69725 293.715509 
L 263.310825 294.686724 
L 263.541896 294.788957 
L 263.310825 294.712283 
L 263.310825 294.814516 
L 263.079754 294.737841 
L 263.079754 294.788957 
L 263.079754 294.865632 
L 263.079754 294.840074 
L 262.155471 294.993424 
L 262.155471 294.967865 
L 261.693329 294.891191 
L 261.693329 294.788957 
L 261.693329 294.814516 
L 261.231187 294.635608 
L 261.231187 294.533374 
L 261.231187 294.533374 
L 261.000116 294.354466 
L 261.000116 294.354466 
L 260.769046 294.354466 
L 260.769046 294.226675 
L 261.000116 294.073325 
L 260.537975 293.817742 
L 260.537975 293.613276 
L 260.306904 293.613276 
L 260.306904 293.434368 
L 260.075833 293.281018 
L 260.075833 293.229901 
L 259.844762 293.10211 
L 259.844762 292.872085 
L 259.382621 292.693177 
L 259.382621 292.744293 
L 259.382621 292.48871 
L 259.15155 292.514269 
L 259.15155 292.463152 
L 258.689408 292.412036 
L 258.689408 292.463152 
L 258.458337 292.539827 
L 258.458337 292.693177 
L 257.765125 292.79541 
L 257.765125 293.332134 
L 257.534054 293.434368 
L 257.534054 293.587717 
L 257.302983 293.766625 
L 257.534054 293.919975 
L 257.071912 293.8433 
L 257.302983 293.99665 
L 257.071912 293.99665 
L 256.840841 294.277791 
L 256.840841 294.533374 
L 256.60977 294.686724 
L 256.60977 294.840074 
L 255.685487 294.967865 
L 255.685487 294.967865 
L 255.685487 294.788957 
L 255.223345 294.661166 
L 255.223345 294.507816 
L 254.992274 294.405583 
L 254.992274 294.201117 
L 254.761203 294.098883 
L 254.761203 293.792184 
L 254.530133 293.664392 
L 254.530133 293.536601 
L 254.299062 293.408809 
L 254.299062 293.306576 
L 253.83692 292.999876 
L 253.83692 292.769852 
L 253.605849 292.590944 
L 253.83692 292.360919 
L 253.605849 292.284244 
L 253.605849 291.926428 
L 253.605849 291.977545 
L 253.143708 291.389704 
L 253.143708 291.210796 
L 252.912637 291.236354 
L 253.143708 290.980771 
L 252.912637 290.878538 
L 252.912637 290.69963 
L 252.219424 290.265138 
L 252.219424 290.444047 
L 251.988353 290.469605 
L 251.988353 290.674071 
L 251.526212 291.108562 
L 251.757282 291.236354 
L 251.295141 291.670845 
L 251.295141 291.951986 
L 251.06407 292.182011 
L 251.06407 292.463152 
L 250.832999 292.64206 
L 250.832999 292.999876 
L 250.601928 293.178785 
L 250.601928 293.332134 
L 250.370857 293.587717 
L 250.370857 294.073325 
L 250.139786 294.558933 
L 250.139786 294.763399 
L 249.908716 294.865632 
L 249.908716 294.967865 
L 249.446574 295.018982 
L 249.446574 294.891191 
L 249.215503 294.584491 
L 248.984432 294.328908 
L 248.984432 293.817742 
L 248.753361 293.741067 
L 248.753361 293.459926 
L 248.522291 293.10211 
L 248.522291 292.64206 
L 248.29122 292.130894 
L 248.29122 290.878538 
L 247.829078 290.009555 
L 247.829078 289.217248 
L 247.366936 288.527174 
L 247.598007 288.016008 
L 246.904795 286.968118 
L 246.904795 286.226927 
L 246.673724 286.073577 
L 246.673724 285.664645 
L 246.442653 285.43462 
L 246.442653 285.12792 
L 246.211582 284.846779 
L 246.211582 285.153479 
L 245.980511 284.974571 
L 246.211582 284.642313 
L 245.980511 284.846779 
L 245.980511 284.642313 
L 245.74944 284.565638 
L 245.74944 284.335613 
L 245.74944 284.488963 
L 245.518369 284.207822 
L 245.518369 284.310055 
L 245.287299 284.156705 
L 245.287299 284.156705 
L 245.056228 283.824447 
L 245.056228 284.105588 
L 244.825157 284.284496 
L 244.825157 285.230154 
L 244.594086 285.076804 
L 244.594086 285.179037 
L 244.594086 285.690203 
L 244.363015 285.690203 
L 244.363015 286.584743 
L 244.131944 286.865885 
L 244.131944 288.092683 
L 243.900874 288.782757 
L 243.900874 289.319481 
L 243.669803 289.319481 
L 243.900874 289.881764 
L 243.669803 290.418488 
L 243.669803 291.185237 
L 243.438732 291.466379 
L 243.438732 292.999876 
L 243.207661 293.511042 
L 243.207661 293.919975 
L 242.97659 294.226675 
L 242.97659 294.840074 
L 242.745519 294.840074 
L 242.745519 294.558933 
L 242.514448 294.328908 
L 242.514448 293.587717 
L 242.283378 292.974318 
L 242.283378 292.105336 
L 242.052307 291.491937 
L 242.052307 290.111789 
L 241.821236 289.396156 
L 241.821236 285.996903 
L 241.590165 285.051245 
L 241.590165 283.619981 
L 241.359094 282.827673 
L 241.359094 280.450752 
L 241.128023 278.636112 
L 241.128023 274.188968 
L 240.665882 272.195421 
L 240.665882 264.425698 
L 240.20374 263.991207 
L 240.20374 265.396913 
L 240.20374 263.480041 
L 239.972669 261.972101 
L 239.972669 260.898653 
L 239.741598 260.847536 
L 239.741598 260.18302 
L 239.741598 261.128677 
L 239.279456 263.556716 
L 239.048386 263.607832 
L 238.817315 264.681281 
L 238.817315 269.614033 
L 238.586244 271.530905 
L 238.586244 273.141078 
L 238.355173 275.722466 
L 238.355173 278.866137 
L 238.124102 281.396409 
L 238.124102 283.313281 
L 238.355173 284.540079 
L 237.893031 287.223701 
L 237.893031 288.603849 
L 237.661961 290.54628 
L 237.661961 293.025435 
L 237.43089 293.587717 
L 237.199819 292.105336 
L 237.199819 291.159679 
L 236.968748 289.140573 
L 236.737677 289.242806 
L 236.737677 288.808315 
L 236.506606 288.041566 
L 236.506606 278.584996 
L 236.275535 273.626686 
L 236.275535 267.952743 
L 236.044465 260.055229 
L 236.044465 251.416524 
L 235.813394 244.669133 
L 235.813394 234.062439 
L 235.582323 229.896436 
L 235.582323 220.874356 
L 235.351252 209.347563 
L 235.351252 197.999679 
L 235.120181 184.811596 
L 235.120181 123.701703 
L 234.658039 85.849862 
L 234.658039 85.849862 
L 226.801631 85.849862 
L 226.801631 85.849862 
L 226.57056 103.894021 
L 226.57056 138.218817 
L 226.108418 162.320293 
L 226.108418 189.999931 
L 225.877347 194.779333 
L 225.877347 219.034159 
L 225.646276 225.9349 
L 225.646276 245.052507 
L 225.415205 255.37806 
L 225.415205 261.818752 
L 224.953064 281.958691 
L 224.953064 285.639086 
L 224.721993 286.584743 
L 224.721993 288.424941 
L 224.490922 289.370598 
L 224.259851 288.961665 
L 224.02878 288.859432 
L 224.02878 285.74132 
L 223.797709 285.000129 
L 223.797709 282.699882 
L 223.566639 282.265391 
L 223.566639 281.140826 
L 223.335568 279.837352 
L 223.335568 277.000381 
L 223.104497 275.645791 
L 223.104497 273.319986 
L 222.873426 271.224206 
L 222.873426 269.435125 
L 222.642355 267.313786 
L 222.642355 264.016765 
L 222.411284 263.096666 
L 222.411284 261.512052 
L 222.180214 259.901879 
L 222.180214 257.576074 
L 221.949143 256.502625 
L 221.949143 255.812551 
L 221.718072 255.454735 
L 221.718072 255.83811 
L 221.718072 255.020244 
L 221.487001 255.556968 
L 221.25593 255.480293 
L 221.487001 255.83811 
L 221.25593 256.349276 
L 221.25593 257.013791 
L 221.024859 257.831657 
L 221.024859 259.186247 
L 220.793788 259.390713 
L 220.793788 260.873094 
L 220.562718 261.103119 
L 220.562718 262.585501 
L 220.331647 263.1989 
L 220.331647 263.096666 
L 220.331647 266.265896 
L 219.869505 267.211553 
L 220.100576 268.233885 
L 219.869505 268.642817 
L 219.869505 271.556463 
L 219.638434 272.246538 
L 219.638434 273.294428 
L 219.407363 274.265643 
L 219.407363 275.645791 
L 219.407363 275.466883 
L 219.176292 275.850258 
L 219.176292 277.128173 
L 218.945222 278.124946 
L 218.945222 280.885243 
L 218.714151 282.316507 
L 218.714151 285.639086 
L 218.48308 286.94256 
L 218.48308 288.1438 
L 218.252009 289.166132 
L 218.252009 290.674071 
L 218.020938 291.057446 
L 218.020938 291.798636 
L 217.789867 292.539827 
L 217.789867 293.945534 
L 217.558797 294.15 
L 217.558797 294.30335 
L 217.327726 294.380025 
L 217.327726 294.252233 
L 217.327726 294.30335 
L 217.096655 294.124442 
L 217.327726 293.8433 
L 217.096655 293.587717 
L 216.865584 293.127668 
L 216.865584 291.415262 
L 216.634513 290.418488 
L 216.634513 289.370598 
L 216.403442 288.527174 
L 216.403442 286.891443 
L 216.172371 286.48251 
L 216.172371 286.201369 
L 215.941301 286.022461 
L 215.941301 284.718988 
L 215.71023 283.875564 
L 215.71023 282.827673 
L 215.479159 282.418741 
L 215.479159 282.060924 
L 215.248088 281.626433 
L 215.017017 281.805341 
L 215.017017 281.754225 
L 215.017017 282.086483 
L 214.785946 282.214274 
L 214.785946 282.163158 
L 214.554875 282.57209 
L 214.554875 282.929907 
L 214.323805 283.236606 
L 214.092734 284.054472 
L 214.092734 284.616754 
L 213.861663 285.306828 
L 213.861663 286.150252 
L 213.630592 286.405835 
L 213.630592 287.504842 
L 213.399521 287.68375 
L 213.399521 288.654966 
L 212.937379 289.753972 
L 212.937379 290.597396 
L 212.706309 291.210796 
L 212.706309 291.849753 
L 212.475238 292.258686 
L 212.475238 292.999876 
L 212.244167 293.485484 
L 212.244167 294.073325 
L 212.013096 294.635608 
L 212.013096 294.788957 
L 211.550954 294.942307 
L 211.550954 294.993424 
L 211.550954 294.993424 
L 211.319884 294.840074 
L 211.088813 294.635608 
L 211.088813 294.277791 
L 210.3956 293.050993 
L 210.3956 292.616502 
L 210.164529 292.182011 
L 210.164529 291.721962 
L 209.933458 291.057446 
L 209.933458 290.622955 
L 209.702388 290.750746 
L 209.702388 290.54628 
L 209.471317 290.495163 
L 209.471317 289.932881 
L 209.009175 289.268365 
L 209.009175 288.88499 
L 208.547033 288.348266 
L 207.853821 288.910549 
L 207.853821 289.03834 
L 207.62275 289.293923 
L 207.62275 289.421715 
L 207.391679 289.728414 
L 207.391679 290.08623 
L 207.160608 290.265138 
L 207.160608 290.520721 
L 206.929537 290.648513 
L 206.929537 290.980771 
L 206.467396 291.389704 
L 206.467396 291.74752 
L 206.467396 291.74752 
L 206.236325 292.130894 
L 206.236325 292.309802 
L 206.005254 292.258686 
L 205.774183 292.463152 
L 206.005254 292.514269 
L 205.774183 292.667619 
L 205.774183 293.255459 
L 205.312041 293.792184 
L 205.543112 294.073325 
L 205.080971 294.431141 
L 205.080971 294.635608 
L 204.618829 294.686724 
L 204.618829 294.865632 
L 204.387758 294.993424 
L 203.925616 294.865632 
L 203.925616 294.763399 
L 203.694545 294.763399 
L 203.694545 294.661166 
L 203.694545 294.405583 
L 203.463475 294.201117 
L 203.463475 294.022208 
L 203.232404 293.817742 
L 203.232404 293.562159 
L 203.001333 293.459926 
L 203.001333 293.050993 
L 202.770262 292.769852 
L 202.770262 292.207569 
L 202.30812 291.44082 
L 202.30812 291.261912 
L 202.077049 291.031887 
L 202.077049 290.904096 
L 201.845979 290.674071 
L 201.383837 290.495163 
L 201.614908 290.520721 
L 201.383837 290.290697 
L 201.152766 290.418488 
L 200.921695 290.23958 
L 200.921695 290.418488 
L 200.459554 290.54628 
L 200.690624 290.750746 
L 200.459554 290.904096 
L 200.459554 291.261912 
L 200.228483 291.389704 
L 200.228483 291.951986 
L 199.766341 292.463152 
L 199.53527 292.744293 
L 199.53527 293.076551 
L 199.304199 293.383251 
L 199.304199 293.638834 
L 199.073128 293.894417 
L 199.073128 294.558933 
L 198.842058 294.558933 
L 198.379916 294.763399 
L 198.379916 294.712283 
L 198.148845 294.788957 
L 198.148845 294.661166 
L 197.917774 294.610049 
L 197.917774 294.482258 
L 197.686703 294.252233 
L 197.455632 294.098883 
L 197.455632 293.817742 
L 197.224562 293.715509 
L 197.224562 293.562159 
L 196.993491 293.408809 
L 196.993491 293.178785 
L 195.607066 291.798636 
L 194.913853 291.721962 
L 194.913853 291.74752 
L 194.913853 291.875311 
L 194.913853 291.798636 
L 194.451711 292.079778 
L 194.451711 292.309802 
L 193.758499 292.872085 
L 193.527428 293.255459 
L 193.527428 293.459926 
L 192.834215 293.971092 
L 193.065286 294.022208 
L 192.834215 294.252233 
L 192.834215 294.405583 
L 192.603145 294.533374 
L 192.603145 294.661166 
L 192.372074 294.686724 
L 192.372074 294.916749 
L 191.44779 295.121215 
L 191.44779 295.070099 
L 190.985649 294.942307 
L 190.985649 294.942307 
L 190.523507 294.737841 
L 190.523507 294.507816 
L 190.292436 294.328908 
L 190.292436 294.201117 
L 190.061365 294.073325 
L 190.061365 293.817742 
L 189.599224 293.613276 
L 189.368153 293.511042 
L 189.599224 293.434368 
L 189.137082 293.408809 
L 189.368153 293.281018 
L 189.137082 293.229901 
L 189.137082 293.076551 
L 189.137082 293.127668 
L 188.67494 292.94876 
L 188.67494 292.94876 
L 188.443869 292.94876 
L 188.443869 292.94876 
L 187.981728 293.153226 
L 187.981728 293.050993 
L 187.981728 293.127668 
L 187.057444 293.434368 
L 187.288515 293.511042 
L 187.057444 293.792184 
L 187.057444 293.945534 
L 186.826373 294.022208 
L 186.826373 294.277791 
L 186.364232 294.584491 
L 185.439948 295.018982 
L 184.977807 294.967865 
L 184.977807 294.840074 
L 184.746736 294.891191 
L 184.746736 294.763399 
L 184.515665 294.610049 
L 184.515665 294.533374 
L 184.053523 294.277791 
L 183.822452 294.175558 
L 183.822452 294.175558 
L 183.822452 294.022208 
L 183.591381 293.919975 
L 183.822452 293.868859 
L 183.12924 293.511042 
L 183.12924 293.511042 
L 182.898169 293.485484 
L 182.898169 293.485484 
L 182.898169 293.357693 
L 182.667098 293.204343 
L 182.667098 293.076551 
L 182.436027 292.974318 
L 182.204956 293.10211 
L 182.436027 292.94876 
L 181.973885 292.974318 
L 181.742815 292.897643 
L 181.742815 292.974318 
L 181.280673 293.255459 
L 181.280673 293.485484 
L 180.818531 293.792184 
L 180.818531 293.971092 
L 180.58746 294.047767 
L 180.58746 294.277791 
L 180.35639 294.380025 
L 180.35639 294.635608 
L 179.894248 294.763399 
L 179.894248 294.865632 
L 178.969964 295.095657 
L 178.969964 295.095657 
L 178.507823 295.146774 
L 178.507823 295.070099 
L 177.121398 294.533374 
L 177.121398 294.4567 
L 176.890327 294.328908 
L 176.890327 294.30335 
L 176.428185 293.99665 
L 176.428185 293.971092 
L 175.04176 293.894417 
L 175.04176 293.945534 
L 174.117477 294.277791 
L 174.117477 294.405583 
L 173.886406 294.533374 
L 173.655335 294.635608 
L 173.886406 294.686724 
L 173.193193 294.865632 
L 173.193193 294.865632 
L 173.193193 294.916749 
L 172.499981 294.993424 
L 172.499981 294.967865 
L 172.037839 294.788957 
L 172.037839 294.610049 
L 171.575697 294.277791 
L 171.575697 294.277791 
L 171.344626 294.226675 
L 171.344626 294.098883 
L 171.113555 294.15 
L 171.113555 294.047767 
L 171.113555 293.868859 
L 170.882485 293.894417 
L 170.882485 293.8433 
L 170.651414 293.766625 
L 170.651414 293.817742 
L 169.49606 294.022208 
L 169.49606 294.073325 
L 169.264989 293.945534 
L 169.264989 293.99665 
L 169.033918 294.124442 
L 169.033918 294.201117 
L 168.340705 294.533374 
L 167.878564 294.661166 
L 167.878564 294.814516 
L 167.878564 294.814516 
L 166.95428 295.095657 
L 166.95428 295.095657 
L 166.95428 295.146774 
L 165.336784 295.04454 
L 165.336784 295.018982 
L 165.336784 295.018982 
L 164.643572 294.814516 
L 164.643572 294.712283 
L 164.18143 294.507816 
L 164.18143 294.431141 
L 163.950359 294.354466 
L 163.950359 294.175558 
L 163.488217 294.098883 
L 163.488217 294.124442 
L 163.488217 294.022208 
L 163.488217 294.022208 
L 163.026076 293.894417 
L 163.026076 293.919975 
L 162.332863 294.047767 
L 162.332863 294.124442 
L 162.101792 294.252233 
L 162.101792 294.30335 
L 162.101792 294.30335 
L 161.40858 294.584491 
L 161.40858 294.686724 
L 161.177509 294.661166 
L 161.177509 294.763399 
L 159.791084 295.121215 
L 159.791084 295.121215 
L 159.328942 295.095657 
L 159.328942 295.070099 
L 159.328942 295.04454 
L 158.8668 294.942307 
L 158.8668 294.942307 
L 158.404659 294.814516 
L 158.404659 294.712283 
L 157.711446 294.533374 
L 157.018234 294.30335 
L 157.018234 294.380025 
L 155.862879 294.354466 
L 155.862879 294.431141 
L 155.631808 294.4567 
L 155.631808 294.533374 
L 154.476454 294.916749 
L 154.707525 294.942307 
L 154.707525 294.967865 
L 153.3211 294.942307 
L 153.3211 294.865632 
L 152.858958 294.840074 
L 152.858958 294.814516 
L 152.858958 294.686724 
L 152.165746 294.635608 
L 152.165746 294.507816 
L 151.703604 294.482258 
L 151.703604 294.482258 
L 151.010391 294.431141 
L 151.010391 294.482258 
L 150.317179 294.661166 
L 150.317179 294.661166 
L 148.00647 295.095657 
L 148.00647 295.070099 
L 147.544329 294.967865 
L 147.544329 295.018982 
L 147.313258 294.840074 
L 147.313258 294.763399 
L 146.851116 294.610049 
L 145.695762 294.4567 
L 145.695762 294.507816 
L 145.695762 294.482258 
L 144.309337 294.737841 
L 144.309337 294.814516 
L 144.309337 294.788957 
L 143.616124 294.967865 
L 143.616124 295.018982 
L 142.46077 295.095657 
L 142.229699 295.146774 
L 142.229699 295.121215 
L 141.074345 294.763399 
L 141.074345 294.686724 
L 140.612203 294.558933 
L 140.612203 294.507816 
L 138.763636 294.584491 
L 138.763636 294.661166 
L 138.070424 294.865632 
L 138.070424 294.865632 
L 138.070424 294.942307 
L 138.070424 294.942307 
L 136.683999 295.146774 
L 136.683999 295.121215 
L 135.528644 294.942307 
L 135.528644 294.865632 
L 134.604361 294.661166 
L 134.604361 294.584491 
L 134.142219 294.533374 
L 134.142219 294.507816 
L 134.142219 294.507816 
L 132.755794 294.763399 
L 132.986865 294.814516 
L 132.524723 294.788957 
L 132.524723 294.814516 
L 129.520802 295.095657 
L 129.520802 295.04454 
L 129.520802 294.967865 
L 128.82759 294.788957 
L 127.903306 294.686724 
L 127.903306 294.686724 
L 126.979023 294.763399 
L 126.516881 294.865632 
L 125.592598 294.916749 
L 125.592598 294.993424 
L 125.592598 294.993424 
L 124.437244 295.095657 
L 124.437244 295.095657 
L 123.744031 295.146774 
L 123.744031 295.146774 
L 123.744031 295.121215 
L 121.664393 295.070099 
L 121.664393 295.04454 
L 121.433323 294.891191 
L 121.433323 294.891191 
L 121.433323 294.840074 
L 119.353685 294.916749 
L 119.353685 294.942307 
L 119.353685 294.967865 
L 119.353685 294.942307 
L 118.429401 295.04454 
L 118.429401 295.018982 
L 118.429401 295.070099 
L 118.429401 295.070099 
L 117.736189 295.095657 
L 117.96726 295.095657 
L 116.580835 294.993424 
L 116.580835 294.967865 
L 116.580835 294.967865 
L 115.42548 294.891191 
L 115.42548 294.916749 
L 115.42548 294.840074 
L 115.42548 294.865632 
L 114.039055 294.814516 
L 114.039055 294.865632 
L 114.039055 294.814516 
L 113.345843 294.840074 
L 113.345843 294.840074 
L 113.345843 294.865632 
L 112.883701 294.891191 
L 112.883701 294.916749 
L 112.883701 294.942307 
L 110.572993 295.121215 
L 110.572993 295.121215 
L 108.955497 294.993424 
L 108.955497 295.070099 
L 108.955497 294.993424 
L 108.262284 294.993424 
L 108.493355 294.916749 
L 108.262284 294.942307 
L 106.875859 294.686724 
L 106.875859 294.737841 
L 106.875859 294.763399 
L 106.413717 294.788957 
L 106.413717 294.891191 
L 105.951576 294.891191 
L 105.951576 294.942307 
L 105.951576 295.018982 
L 105.027292 295.121215 
L 105.027292 295.172332 
L 105.027292 295.172332 
L 103.640867 295.121215 
L 103.640867 295.070099 
L 103.640867 295.018982 
L 103.640867 295.04454 
L 102.023371 294.737841 
L 102.023371 294.737841 
L 101.099088 294.942307 
L 101.099088 294.942307 
L 100.636946 294.993424 
L 100.636946 294.993424 
L 99.712663 294.967865 
L 99.712663 294.993424 
L 99.712663 295.04454 
L 99.712663 295.018982 
L 98.788379 295.121215 
L 98.788379 295.095657 
L 98.788379 295.146774 
L 98.788379 295.121215 
L 97.864096 295.172332 
L 97.864096 295.121215 
L 97.170883 295.04454 
L 97.170883 294.967865 
L 97.170883 294.993424 
L 95.322316 294.891191 
L 95.322316 294.916749 
L 95.322316 294.891191 
L 94.629104 294.865632 
L 94.629104 294.865632 
L 93.011608 294.942307 
L 93.011608 294.993424 
L 92.549466 294.993424 
L 92.549466 295.018982 
L 92.549466 295.095657 
L 92.087324 295.04454 
L 92.087324 295.04454 
L 92.087324 295.070099 
L 92.087324 295.070099 
L 89.314474 294.967865 
L 89.314474 294.865632 
L 88.621262 294.737841 
L 88.621262 294.737841 
L 87.465907 295.018982 
L 87.696978 295.070099 
L 87.234837 295.04454 
L 87.234837 295.070099 
L 84.693057 294.967865 
L 84.693057 294.967865 
L 84.693057 294.942307 
L 84.693057 294.942307 
L 81.689136 295.018982 
L 81.689136 295.04454 
L 79.840569 295.172332 
L 79.840569 295.146774 
L 78.916286 295.095657 
L 78.916286 295.04454 
L 78.916286 295.018982 
L 78.223073 294.942307 
L 78.223073 294.916749 
L 78.223073 294.891191 
L 73.832727 294.788957 
L 73.832727 294.840074 
L 73.832727 294.763399 
L 73.832727 294.840074 
L 74.294869 294.840074 
L 73.832727 294.840074 
" style="fill:none;stroke:#1f77b4;stroke-linecap:square;stroke-width:1.5;"/>
   </g>
   <g id="line2d_16">
    <path clip-path="url(#p3f9b896db0)" d="M 73.832727 295.421605 
L 78.70742 295.458672 
L 83.582113 295.416879 
L 88.131826 295.460676 
L 93.006519 295.400224 
L 97.556233 295.463082 
L 102.430925 295.379736 
L 107.305618 295.453434 
L 111.855332 295.354272 
L 116.730025 295.456049 
L 121.279738 295.322191 
L 126.47941 295.442173 
L 130.704144 295.281075 
L 136.228796 295.422363 
L 140.12855 295.227224 
L 145.978182 295.39349 
L 149.227977 295.148514 
L 151.177854 295.28139 
L 153.77769 295.48794 
L 155.402588 295.389902 
L 158.977363 295.053673 
L 160.60226 295.194801 
L 163.202097 295.485331 
L 164.826994 295.386032 
L 168.726749 294.913641 
L 170.351646 295.119999 
L 172.626503 295.476013 
L 173.926421 295.430183 
L 175.551319 295.08833 
L 177.501196 294.697595 
L 178.801114 294.727229 
L 180.426011 295.093176 
L 182.050909 295.452193 
L 183.025848 295.472745 
L 184.000786 295.297362 
L 185.950663 294.608033 
L 187.250581 294.293431 
L 188.22552 294.311267 
L 189.200459 294.557994 
L 191.800295 295.45498 
L 192.775233 295.443118 
L 193.750172 295.122821 
L 195.05009 294.371423 
L 196.350008 293.670299 
L 196.999967 293.494396 
L 197.649926 293.490212 
L 198.299885 293.665167 
L 199.274824 294.199856 
L 200.899722 295.241712 
L 201.549681 295.459551 
L 202.19964 295.45501 
L 202.849599 295.196473 
L 203.499558 294.695021 
L 204.474496 293.620405 
L 205.774414 292.146495 
L 206.424373 291.669076 
L 207.074333 291.49972 
L 207.724292 291.68554 
L 208.374251 292.212225 
L 209.349189 293.448398 
L 210.324128 294.749932 
L 210.974087 295.332534 
L 211.299066 295.467841 
L 211.624046 295.473471 
L 211.949025 295.335282 
L 212.274005 295.044319 
L 212.923964 293.998392 
L 213.573923 292.390375 
L 214.873841 288.225722 
L 215.84878 285.419347 
L 216.498739 284.310097 
L 216.823718 284.087124 
L 217.148698 284.115566 
L 217.473677 284.406284 
L 217.798657 284.958828 
L 218.448616 286.784225 
L 219.423554 290.721875 
L 220.398493 294.426865 
L 220.723473 295.169428 
L 221.048452 295.484307 
L 221.373432 295.25886 
L 221.698411 294.382287 
L 222.023391 292.748973 
L 222.34837 290.261882 
L 222.998329 282.401079 
L 223.648288 270.317984 
L 224.298247 253.858224 
L 225.273186 221.584322 
L 226.573104 168.786376 
L 228.198002 102.716141 
L 229.17294 72.830169 
L 229.822899 59.981062 
L 230.147879 56.058639 
L 230.472858 53.908054 
L 230.797838 53.568 
L 231.122817 55.044604 
L 231.447797 58.311279 
L 232.097756 69.949537 
L 232.747715 87.65908 
L 233.722654 122.832603 
L 236.647469 240.120512 
L 237.622408 267.572738 
L 238.272367 280.473128 
L 238.922326 289.095249 
L 239.572285 293.865744 
L 239.897265 295.013212 
L 240.222244 295.469286 
L 240.547224 295.343224 
L 240.872203 294.747364 
L 241.522162 292.591658 
L 243.14706 286.118804 
L 243.797019 284.582593 
L 244.121998 284.193304 
L 244.446978 284.067518 
L 244.771957 284.198442 
L 245.096937 284.568868 
L 245.746896 285.917181 
L 246.721835 288.897961 
L 248.021753 292.946606 
L 248.671712 294.391023 
L 249.321671 295.244698 
L 249.64665 295.439249 
L 249.97163 295.485984 
L 250.296609 295.397201 
L 250.946568 294.884544 
L 251.921507 293.619742 
L 252.896446 292.343017 
L 253.546405 291.759601 
L 254.196364 291.506997 
L 254.846323 291.611848 
L 255.496282 292.037695 
L 256.47122 293.078796 
L 258.096118 294.875632 
L 258.746077 295.304964 
L 259.396036 295.483049 
L 260.045995 295.412738 
L 260.695954 295.13748 
L 263.62077 293.509606 
L 264.270729 293.479913 
L 264.920688 293.625701 
L 265.895627 294.09828 
L 267.845504 295.212942 
L 268.820442 295.471496 
L 269.795381 295.420202 
L 270.770319 295.122302 
L 273.045176 294.330533 
L 274.020115 294.282343 
L 274.995053 294.465774 
L 278.569828 295.484736 
L 279.544767 295.424717 
L 281.169664 295.037344 
L 282.794562 294.703655 
L 284.09448 294.718653 
L 285.719378 295.057057 
L 287.669255 295.453452 
L 288.969173 295.46154 
L 290.59407 295.206219 
L 292.543948 294.91974 
L 293.843866 294.947977 
L 296.118722 295.317451 
L 297.74362 295.485352 
L 299.368518 295.393894 
L 302.618313 295.051315 
L 304.24321 295.159111 
L 307.493006 295.487721 
L 309.442883 295.36801 
L 312.367699 295.148514 
L 314.317576 295.277555 
L 317.242391 295.487897 
L 319.517248 295.351122 
L 322.117084 295.21752 
L 324.391941 295.358937 
L 326.991777 295.486997 
L 329.591613 295.342766 
L 332.19145 295.276278 
L 338.366061 295.418158 
L 341.615856 295.307158 
L 348.765405 295.388482 
L 351.690221 295.345493 
L 357.539853 295.439701 
L 361.439607 295.369434 
L 366.964259 295.453016 
L 371.188993 295.388708 
L 376.713645 295.453064 
L 381.263358 295.413412 
L 386.138051 295.462383 
L 391.012744 295.425787 
L 395.887437 295.461872 
L 398.487273 295.408821 
L 398.487273 295.408821 
" style="fill:none;stroke:#ff7f0e;stroke-linecap:square;stroke-width:1.5;"/>
   </g>
   <g id="patch_3">
    <path d="M 57.6 307.584 
L 57.6 41.472 
" style="fill:none;stroke:#000000;stroke-linecap:square;stroke-linejoin:miter;stroke-width:0.8;"/>
   </g>
   <g id="patch_4">
    <path d="M 414.72 307.584 
L 414.72 41.472 
" style="fill:none;stroke:#000000;stroke-linecap:square;stroke-linejoin:miter;stroke-width:0.8;"/>
   </g>
   <g id="patch_5">
    <path d="M 57.6 307.584 
L 414.72 307.584 
" style="fill:none;stroke:#000000;stroke-linecap:square;stroke-linejoin:miter;stroke-width:0.8;"/>
   </g>
   <g id="patch_6">
    <path d="M 57.6 41.472 
L 414.72 41.472 
" style="fill:none;stroke:#000000;stroke-linecap:square;stroke-linejoin:miter;stroke-width:0.8;"/>
   </g>
   <g id="legend_1">
    <g id="patch_7">
     <path d="M 320.085625 78.82825 
L 407.72 78.82825 
Q 409.72 78.82825 409.72 76.82825 
L 409.72 48.472 
Q 409.72 46.472 407.72 46.472 
L 320.085625 46.472 
Q 318.085625 46.472 318.085625 48.472 
L 318.085625 76.82825 
Q 318.085625 78.82825 320.085625 78.82825 
z
" style="fill:#ffffff;opacity:0.8;stroke:#cccccc;stroke-linejoin:miter;"/>
    </g>
    <g id="line2d_17">
     <path d="M 322.085625 54.570437 
L 342.085625 54.570437 
" style="fill:none;stroke:#1f77b4;stroke-linecap:square;stroke-width:1.5;"/>
    </g>
    <g id="line2d_18"/>
    <g id="text_15">
     <!-- .16Good -->
     <g transform="translate(350.085625 58.070437)scale(0.1 -0.1)">
      <defs>
       <path d="M 59.515625 10.40625 
L 59.515625 29.984375 
L 43.40625 29.984375 
L 43.40625 38.09375 
L 69.28125 38.09375 
L 69.28125 6.78125 
Q 63.578125 2.734375 56.6875 0.65625 
Q 49.8125 -1.421875 42 -1.421875 
Q 24.90625 -1.421875 15.25 8.5625 
Q 5.609375 18.5625 5.609375 36.375 
Q 5.609375 54.25 15.25 64.234375 
Q 24.90625 74.21875 42 74.21875 
Q 49.125 74.21875 55.546875 72.453125 
Q 61.96875 70.703125 67.390625 67.28125 
L 67.390625 56.78125 
Q 61.921875 61.421875 55.765625 63.765625 
Q 49.609375 66.109375 42.828125 66.109375 
Q 29.4375 66.109375 22.71875 58.640625 
Q 16.015625 51.171875 16.015625 36.375 
Q 16.015625 21.625 22.71875 14.15625 
Q 29.4375 6.6875 42.828125 6.6875 
Q 48.046875 6.6875 52.140625 7.59375 
Q 56.25 8.5 59.515625 10.40625 
z
" id="DejaVuSans-71"/>
       <path d="M 30.609375 48.390625 
Q 23.390625 48.390625 19.1875 42.75 
Q 14.984375 37.109375 14.984375 27.296875 
Q 14.984375 17.484375 19.15625 11.84375 
Q 23.34375 6.203125 30.609375 6.203125 
Q 37.796875 6.203125 41.984375 11.859375 
Q 46.1875 17.53125 46.1875 27.296875 
Q 46.1875 37.015625 41.984375 42.703125 
Q 37.796875 48.390625 30.609375 48.390625 
z
M 30.609375 56 
Q 42.328125 56 49.015625 48.375 
Q 55.71875 40.765625 55.71875 27.296875 
Q 55.71875 13.875 49.015625 6.21875 
Q 42.328125 -1.421875 30.609375 -1.421875 
Q 18.84375 -1.421875 12.171875 6.21875 
Q 5.515625 13.875 5.515625 27.296875 
Q 5.515625 40.765625 12.171875 48.375 
Q 18.84375 56 30.609375 56 
z
" id="DejaVuSans-111"/>
       <path d="M 45.40625 46.390625 
L 45.40625 75.984375 
L 54.390625 75.984375 
L 54.390625 0 
L 45.40625 0 
L 45.40625 8.203125 
Q 42.578125 3.328125 38.25 0.953125 
Q 33.9375 -1.421875 27.875 -1.421875 
Q 17.96875 -1.421875 11.734375 6.484375 
Q 5.515625 14.40625 5.515625 27.296875 
Q 5.515625 40.1875 11.734375 48.09375 
Q 17.96875 56 27.875 56 
Q 33.9375 56 38.25 53.625 
Q 42.578125 51.265625 45.40625 46.390625 
z
M 14.796875 27.296875 
Q 14.796875 17.390625 18.875 11.75 
Q 22.953125 6.109375 30.078125 6.109375 
Q 37.203125 6.109375 41.296875 11.75 
Q 45.40625 17.390625 45.40625 27.296875 
Q 45.40625 37.203125 41.296875 42.84375 
Q 37.203125 48.484375 30.078125 48.484375 
Q 22.953125 48.484375 18.875 42.84375 
Q 14.796875 37.203125 14.796875 27.296875 
z
" id="DejaVuSans-100"/>
      </defs>
      <use xlink:href="#DejaVuSans-46"/>
      <use x="31.787109" xlink:href="#DejaVuSans-49"/>
      <use x="95.410156" xlink:href="#DejaVuSans-54"/>
      <use x="159.033203" xlink:href="#DejaVuSans-71"/>
      <use x="236.523438" xlink:href="#DejaVuSans-111"/>
      <use x="297.705078" xlink:href="#DejaVuSans-111"/>
      <use x="358.886719" xlink:href="#DejaVuSans-100"/>
     </g>
    </g>
    <g id="line2d_19">
     <path d="M 322.085625 69.248562 
L 342.085625 69.248562 
" style="fill:none;stroke:#ff7f0e;stroke-linecap:square;stroke-width:1.5;"/>
    </g>
    <g id="line2d_20"/>
    <g id="text_16">
     <!-- .16Good fit -->
     <g transform="translate(350.085625 72.748562)scale(0.1 -0.1)">
      <defs>
       <path id="DejaVuSans-32"/>
       <path d="M 37.109375 75.984375 
L 37.109375 68.5 
L 28.515625 68.5 
Q 23.6875 68.5 21.796875 66.546875 
Q 19.921875 64.59375 19.921875 59.515625 
L 19.921875 54.6875 
L 34.71875 54.6875 
L 34.71875 47.703125 
L 19.921875 47.703125 
L 19.921875 0 
L 10.890625 0 
L 10.890625 47.703125 
L 2.296875 47.703125 
L 2.296875 54.6875 
L 10.890625 54.6875 
L 10.890625 58.5 
Q 10.890625 67.625 15.140625 71.796875 
Q 19.390625 75.984375 28.609375 75.984375 
z
" id="DejaVuSans-102"/>
       <path d="M 9.421875 54.6875 
L 18.40625 54.6875 
L 18.40625 0 
L 9.421875 0 
z
M 9.421875 75.984375 
L 18.40625 75.984375 
L 18.40625 64.59375 
L 9.421875 64.59375 
z
" id="DejaVuSans-105"/>
       <path d="M 18.3125 70.21875 
L 18.3125 54.6875 
L 36.8125 54.6875 
L 36.8125 47.703125 
L 18.3125 47.703125 
L 18.3125 18.015625 
Q 18.3125 11.328125 20.140625 9.421875 
Q 21.96875 7.515625 27.59375 7.515625 
L 36.8125 7.515625 
L 36.8125 0 
L 27.59375 0 
Q 17.1875 0 13.234375 3.875 
Q 9.28125 7.765625 9.28125 18.015625 
L 9.28125 47.703125 
L 2.6875 47.703125 
L 2.6875 54.6875 
L 9.28125 54.6875 
L 9.28125 70.21875 
z
" id="DejaVuSans-116"/>
      </defs>
      <use xlink:href="#DejaVuSans-46"/>
      <use x="31.787109" xlink:href="#DejaVuSans-49"/>
      <use x="95.410156" xlink:href="#DejaVuSans-54"/>
      <use x="159.033203" xlink:href="#DejaVuSans-71"/>
      <use x="236.523438" xlink:href="#DejaVuSans-111"/>
      <use x="297.705078" xlink:href="#DejaVuSans-111"/>
      <use x="358.886719" xlink:href="#DejaVuSans-100"/>
      <use x="422.363281" xlink:href="#DejaVuSans-32"/>
      <use x="454.150391" xlink:href="#DejaVuSans-102"/>
      <use x="489.355469" xlink:href="#DejaVuSans-105"/>
      <use x="517.138672" xlink:href="#DejaVuSans-116"/>
     </g>
    </g>
   </g>
  </g>
 </g>
 <defs>
  <clipPath id="p3f9b896db0">
   <rect height="266.112" width="357.12" x="57.6" y="41.472"/>
  </clipPath>
 </defs>
</svg>
