<?xml version="1.0" encoding="utf-8" standalone="no"?>
<!DOCTYPE svg PUBLIC "-//W3C//DTD SVG 1.1//EN"
  "http://www.w3.org/Graphics/SVG/1.1/DTD/svg11.dtd">
<!-- Created with matplotlib (https://matplotlib.org/) -->
<svg height="345.6pt" version="1.1" viewBox="0 0 460.8 345.6" width="460.8pt" xmlns="http://www.w3.org/2000/svg" xmlns:xlink="http://www.w3.org/1999/xlink">
 <metadata>
  <rdf:RDF xmlns:cc="http://creativecommons.org/ns#" xmlns:dc="http://purl.org/dc/elements/1.1/" xmlns:rdf="http://www.w3.org/1999/02/22-rdf-syntax-ns#">
   <cc:Work>
    <dc:type rdf:resource="http://purl.org/dc/dcmitype/StillImage"/>
    <dc:date>2021-06-07T13:38:34.293378</dc:date>
    <dc:format>image/svg+xml</dc:format>
    <dc:creator>
     <cc:Agent>
      <dc:title>Matplotlib v3.3.4, https://matplotlib.org/</dc:title>
     </cc:Agent>
    </dc:creator>
   </cc:Work>
  </rdf:RDF>
 </metadata>
 <defs>
  <style type="text/css">*{stroke-linecap:butt;stroke-linejoin:round;}</style>
 </defs>
 <g id="figure_1">
  <g id="patch_1">
   <path d="M 0 345.6 
L 460.8 345.6 
L 460.8 0 
L 0 0 
z
" style="fill:#ffffff;"/>
  </g>
  <g id="axes_1">
   <g id="patch_2">
    <path d="M 57.6 307.584 
L 414.72 307.584 
L 414.72 41.472 
L 57.6 41.472 
z
" style="fill:#ffffff;"/>
   </g>
   <g id="matplotlib.axis_1">
    <g id="xtick_1">
     <g id="line2d_1">
      <defs>
       <path d="M 0 0 
L 0 3.5 
" id="m941e2f41f9" style="stroke:#000000;stroke-width:0.8;"/>
      </defs>
      <g>
       <use style="stroke:#000000;stroke-width:0.8;" x="70.798573" xlink:href="#m941e2f41f9" y="307.584"/>
      </g>
     </g>
     <g id="text_1">
      <!-- 0 -->
      <g transform="translate(67.617323 322.182437)scale(0.1 -0.1)">
       <defs>
        <path d="M 31.78125 66.40625 
Q 24.171875 66.40625 20.328125 58.90625 
Q 16.5 51.421875 16.5 36.375 
Q 16.5 21.390625 20.328125 13.890625 
Q 24.171875 6.390625 31.78125 6.390625 
Q 39.453125 6.390625 43.28125 13.890625 
Q 47.125 21.390625 47.125 36.375 
Q 47.125 51.421875 43.28125 58.90625 
Q 39.453125 66.40625 31.78125 66.40625 
z
M 31.78125 74.21875 
Q 44.046875 74.21875 50.515625 64.515625 
Q 56.984375 54.828125 56.984375 36.375 
Q 56.984375 17.96875 50.515625 8.265625 
Q 44.046875 -1.421875 31.78125 -1.421875 
Q 19.53125 -1.421875 13.0625 8.265625 
Q 6.59375 17.96875 6.59375 36.375 
Q 6.59375 54.828125 13.0625 64.515625 
Q 19.53125 74.21875 31.78125 74.21875 
z
" id="DejaVuSans-48"/>
       </defs>
       <use xlink:href="#DejaVuSans-48"/>
      </g>
     </g>
    </g>
    <g id="xtick_2">
     <g id="line2d_2">
      <g>
       <use style="stroke:#000000;stroke-width:0.8;" x="131.481665" xlink:href="#m941e2f41f9" y="307.584"/>
      </g>
     </g>
     <g id="text_2">
      <!-- 20 -->
      <g transform="translate(125.119165 322.182437)scale(0.1 -0.1)">
       <defs>
        <path d="M 19.1875 8.296875 
L 53.609375 8.296875 
L 53.609375 0 
L 7.328125 0 
L 7.328125 8.296875 
Q 12.9375 14.109375 22.625 23.890625 
Q 32.328125 33.6875 34.8125 36.53125 
Q 39.546875 41.84375 41.421875 45.53125 
Q 43.3125 49.21875 43.3125 52.78125 
Q 43.3125 58.59375 39.234375 62.25 
Q 35.15625 65.921875 28.609375 65.921875 
Q 23.96875 65.921875 18.8125 64.3125 
Q 13.671875 62.703125 7.8125 59.421875 
L 7.8125 69.390625 
Q 13.765625 71.78125 18.9375 73 
Q 24.125 74.21875 28.421875 74.21875 
Q 39.75 74.21875 46.484375 68.546875 
Q 53.21875 62.890625 53.21875 53.421875 
Q 53.21875 48.921875 51.53125 44.890625 
Q 49.859375 40.875 45.40625 35.40625 
Q 44.1875 33.984375 37.640625 27.21875 
Q 31.109375 20.453125 19.1875 8.296875 
z
" id="DejaVuSans-50"/>
       </defs>
       <use xlink:href="#DejaVuSans-50"/>
       <use x="63.623047" xlink:href="#DejaVuSans-48"/>
      </g>
     </g>
    </g>
    <g id="xtick_3">
     <g id="line2d_3">
      <g>
       <use style="stroke:#000000;stroke-width:0.8;" x="192.164758" xlink:href="#m941e2f41f9" y="307.584"/>
      </g>
     </g>
     <g id="text_3">
      <!-- 40 -->
      <g transform="translate(185.802258 322.182437)scale(0.1 -0.1)">
       <defs>
        <path d="M 37.796875 64.3125 
L 12.890625 25.390625 
L 37.796875 25.390625 
z
M 35.203125 72.90625 
L 47.609375 72.90625 
L 47.609375 25.390625 
L 58.015625 25.390625 
L 58.015625 17.1875 
L 47.609375 17.1875 
L 47.609375 0 
L 37.796875 0 
L 37.796875 17.1875 
L 4.890625 17.1875 
L 4.890625 26.703125 
z
" id="DejaVuSans-52"/>
       </defs>
       <use xlink:href="#DejaVuSans-52"/>
       <use x="63.623047" xlink:href="#DejaVuSans-48"/>
      </g>
     </g>
    </g>
    <g id="xtick_4">
     <g id="line2d_4">
      <g>
       <use style="stroke:#000000;stroke-width:0.8;" x="252.84785" xlink:href="#m941e2f41f9" y="307.584"/>
      </g>
     </g>
     <g id="text_4">
      <!-- 60 -->
      <g transform="translate(246.48535 322.182437)scale(0.1 -0.1)">
       <defs>
        <path d="M 33.015625 40.375 
Q 26.375 40.375 22.484375 35.828125 
Q 18.609375 31.296875 18.609375 23.390625 
Q 18.609375 15.53125 22.484375 10.953125 
Q 26.375 6.390625 33.015625 6.390625 
Q 39.65625 6.390625 43.53125 10.953125 
Q 47.40625 15.53125 47.40625 23.390625 
Q 47.40625 31.296875 43.53125 35.828125 
Q 39.65625 40.375 33.015625 40.375 
z
M 52.59375 71.296875 
L 52.59375 62.3125 
Q 48.875 64.0625 45.09375 64.984375 
Q 41.3125 65.921875 37.59375 65.921875 
Q 27.828125 65.921875 22.671875 59.328125 
Q 17.53125 52.734375 16.796875 39.40625 
Q 19.671875 43.65625 24.015625 45.921875 
Q 28.375 48.1875 33.59375 48.1875 
Q 44.578125 48.1875 50.953125 41.515625 
Q 57.328125 34.859375 57.328125 23.390625 
Q 57.328125 12.15625 50.6875 5.359375 
Q 44.046875 -1.421875 33.015625 -1.421875 
Q 20.359375 -1.421875 13.671875 8.265625 
Q 6.984375 17.96875 6.984375 36.375 
Q 6.984375 53.65625 15.1875 63.9375 
Q 23.390625 74.21875 37.203125 74.21875 
Q 40.921875 74.21875 44.703125 73.484375 
Q 48.484375 72.75 52.59375 71.296875 
z
" id="DejaVuSans-54"/>
       </defs>
       <use xlink:href="#DejaVuSans-54"/>
       <use x="63.623047" xlink:href="#DejaVuSans-48"/>
      </g>
     </g>
    </g>
    <g id="xtick_5">
     <g id="line2d_5">
      <g>
       <use style="stroke:#000000;stroke-width:0.8;" x="313.530943" xlink:href="#m941e2f41f9" y="307.584"/>
      </g>
     </g>
     <g id="text_5">
      <!-- 80 -->
      <g transform="translate(307.168443 322.182437)scale(0.1 -0.1)">
       <defs>
        <path d="M 31.78125 34.625 
Q 24.75 34.625 20.71875 30.859375 
Q 16.703125 27.09375 16.703125 20.515625 
Q 16.703125 13.921875 20.71875 10.15625 
Q 24.75 6.390625 31.78125 6.390625 
Q 38.8125 6.390625 42.859375 10.171875 
Q 46.921875 13.96875 46.921875 20.515625 
Q 46.921875 27.09375 42.890625 30.859375 
Q 38.875 34.625 31.78125 34.625 
z
M 21.921875 38.8125 
Q 15.578125 40.375 12.03125 44.71875 
Q 8.5 49.078125 8.5 55.328125 
Q 8.5 64.0625 14.71875 69.140625 
Q 20.953125 74.21875 31.78125 74.21875 
Q 42.671875 74.21875 48.875 69.140625 
Q 55.078125 64.0625 55.078125 55.328125 
Q 55.078125 49.078125 51.53125 44.71875 
Q 48 40.375 41.703125 38.8125 
Q 48.828125 37.15625 52.796875 32.3125 
Q 56.78125 27.484375 56.78125 20.515625 
Q 56.78125 9.90625 50.3125 4.234375 
Q 43.84375 -1.421875 31.78125 -1.421875 
Q 19.734375 -1.421875 13.25 4.234375 
Q 6.78125 9.90625 6.78125 20.515625 
Q 6.78125 27.484375 10.78125 32.3125 
Q 14.796875 37.15625 21.921875 38.8125 
z
M 18.3125 54.390625 
Q 18.3125 48.734375 21.84375 45.5625 
Q 25.390625 42.390625 31.78125 42.390625 
Q 38.140625 42.390625 41.71875 45.5625 
Q 45.3125 48.734375 45.3125 54.390625 
Q 45.3125 60.0625 41.71875 63.234375 
Q 38.140625 66.40625 31.78125 66.40625 
Q 25.390625 66.40625 21.84375 63.234375 
Q 18.3125 60.0625 18.3125 54.390625 
z
" id="DejaVuSans-56"/>
       </defs>
       <use xlink:href="#DejaVuSans-56"/>
       <use x="63.623047" xlink:href="#DejaVuSans-48"/>
      </g>
     </g>
    </g>
    <g id="xtick_6">
     <g id="line2d_6">
      <g>
       <use style="stroke:#000000;stroke-width:0.8;" x="374.214036" xlink:href="#m941e2f41f9" y="307.584"/>
      </g>
     </g>
     <g id="text_6">
      <!-- 100 -->
      <g transform="translate(364.670286 322.182437)scale(0.1 -0.1)">
       <defs>
        <path d="M 12.40625 8.296875 
L 28.515625 8.296875 
L 28.515625 63.921875 
L 10.984375 60.40625 
L 10.984375 69.390625 
L 28.421875 72.90625 
L 38.28125 72.90625 
L 38.28125 8.296875 
L 54.390625 8.296875 
L 54.390625 0 
L 12.40625 0 
z
" id="DejaVuSans-49"/>
       </defs>
       <use xlink:href="#DejaVuSans-49"/>
       <use x="63.623047" xlink:href="#DejaVuSans-48"/>
       <use x="127.246094" xlink:href="#DejaVuSans-48"/>
      </g>
     </g>
    </g>
   </g>
   <g id="matplotlib.axis_2">
    <g id="ytick_1">
     <g id="line2d_7">
      <defs>
       <path d="M 0 0 
L -3.5 0 
" id="ma9eff76df2" style="stroke:#000000;stroke-width:0.8;"/>
      </defs>
      <g>
       <use style="stroke:#000000;stroke-width:0.8;" x="57.6" xlink:href="#ma9eff76df2" y="299.659034"/>
      </g>
     </g>
     <g id="text_7">
      <!-- 0 -->
      <g transform="translate(44.2375 303.458253)scale(0.1 -0.1)">
       <use xlink:href="#DejaVuSans-48"/>
      </g>
     </g>
    </g>
    <g id="ytick_2">
     <g id="line2d_8">
      <g>
       <use style="stroke:#000000;stroke-width:0.8;" x="57.6" xlink:href="#ma9eff76df2" y="257.94869"/>
      </g>
     </g>
     <g id="text_8">
      <!-- 1 -->
      <g transform="translate(44.2375 261.747908)scale(0.1 -0.1)">
       <use xlink:href="#DejaVuSans-49"/>
      </g>
     </g>
    </g>
    <g id="ytick_3">
     <g id="line2d_9">
      <g>
       <use style="stroke:#000000;stroke-width:0.8;" x="57.6" xlink:href="#ma9eff76df2" y="216.238345"/>
      </g>
     </g>
     <g id="text_9">
      <!-- 2 -->
      <g transform="translate(44.2375 220.037564)scale(0.1 -0.1)">
       <use xlink:href="#DejaVuSans-50"/>
      </g>
     </g>
    </g>
    <g id="ytick_4">
     <g id="line2d_10">
      <g>
       <use style="stroke:#000000;stroke-width:0.8;" x="57.6" xlink:href="#ma9eff76df2" y="174.528"/>
      </g>
     </g>
     <g id="text_10">
      <!-- 3 -->
      <g transform="translate(44.2375 178.327219)scale(0.1 -0.1)">
       <defs>
        <path d="M 40.578125 39.3125 
Q 47.65625 37.796875 51.625 33 
Q 55.609375 28.21875 55.609375 21.1875 
Q 55.609375 10.40625 48.1875 4.484375 
Q 40.765625 -1.421875 27.09375 -1.421875 
Q 22.515625 -1.421875 17.65625 -0.515625 
Q 12.796875 0.390625 7.625 2.203125 
L 7.625 11.71875 
Q 11.71875 9.328125 16.59375 8.109375 
Q 21.484375 6.890625 26.8125 6.890625 
Q 36.078125 6.890625 40.9375 10.546875 
Q 45.796875 14.203125 45.796875 21.1875 
Q 45.796875 27.640625 41.28125 31.265625 
Q 36.765625 34.90625 28.71875 34.90625 
L 20.21875 34.90625 
L 20.21875 43.015625 
L 29.109375 43.015625 
Q 36.375 43.015625 40.234375 45.921875 
Q 44.09375 48.828125 44.09375 54.296875 
Q 44.09375 59.90625 40.109375 62.90625 
Q 36.140625 65.921875 28.71875 65.921875 
Q 24.65625 65.921875 20.015625 65.03125 
Q 15.375 64.15625 9.8125 62.3125 
L 9.8125 71.09375 
Q 15.4375 72.65625 20.34375 73.4375 
Q 25.25 74.21875 29.59375 74.21875 
Q 40.828125 74.21875 47.359375 69.109375 
Q 53.90625 64.015625 53.90625 55.328125 
Q 53.90625 49.265625 50.4375 45.09375 
Q 46.96875 40.921875 40.578125 39.3125 
z
" id="DejaVuSans-51"/>
       </defs>
       <use xlink:href="#DejaVuSans-51"/>
      </g>
     </g>
    </g>
    <g id="ytick_5">
     <g id="line2d_11">
      <g>
       <use style="stroke:#000000;stroke-width:0.8;" x="57.6" xlink:href="#ma9eff76df2" y="132.817655"/>
      </g>
     </g>
     <g id="text_11">
      <!-- 4 -->
      <g transform="translate(44.2375 136.616874)scale(0.1 -0.1)">
       <use xlink:href="#DejaVuSans-52"/>
      </g>
     </g>
    </g>
    <g id="ytick_6">
     <g id="line2d_12">
      <g>
       <use style="stroke:#000000;stroke-width:0.8;" x="57.6" xlink:href="#ma9eff76df2" y="91.10731"/>
      </g>
     </g>
     <g id="text_12">
      <!-- 5 -->
      <g transform="translate(44.2375 94.906529)scale(0.1 -0.1)">
       <defs>
        <path d="M 10.796875 72.90625 
L 49.515625 72.90625 
L 49.515625 64.59375 
L 19.828125 64.59375 
L 19.828125 46.734375 
Q 21.96875 47.46875 24.109375 47.828125 
Q 26.265625 48.1875 28.421875 48.1875 
Q 40.625 48.1875 47.75 41.5 
Q 54.890625 34.8125 54.890625 23.390625 
Q 54.890625 11.625 47.5625 5.09375 
Q 40.234375 -1.421875 26.90625 -1.421875 
Q 22.3125 -1.421875 17.546875 -0.640625 
Q 12.796875 0.140625 7.71875 1.703125 
L 7.71875 11.625 
Q 12.109375 9.234375 16.796875 8.0625 
Q 21.484375 6.890625 26.703125 6.890625 
Q 35.15625 6.890625 40.078125 11.328125 
Q 45.015625 15.765625 45.015625 23.390625 
Q 45.015625 31 40.078125 35.4375 
Q 35.15625 39.890625 26.703125 39.890625 
Q 22.75 39.890625 18.8125 39.015625 
Q 14.890625 38.140625 10.796875 36.28125 
z
" id="DejaVuSans-53"/>
       </defs>
       <use xlink:href="#DejaVuSans-53"/>
      </g>
     </g>
    </g>
    <g id="ytick_7">
     <g id="line2d_13">
      <g>
       <use style="stroke:#000000;stroke-width:0.8;" x="57.6" xlink:href="#ma9eff76df2" y="49.396966"/>
      </g>
     </g>
     <g id="text_13">
      <!-- 6 -->
      <g transform="translate(44.2375 53.196184)scale(0.1 -0.1)">
       <use xlink:href="#DejaVuSans-54"/>
      </g>
     </g>
    </g>
   </g>
   <g id="line2d_14">
    <path clip-path="url(#p15153afc5a)" d="M 249.813696 53.568 
L 252.84785 53.568 
L 255.882005 53.568 
L 258.91616 53.568 
L 261.950314 53.568 
L 264.984469 53.568 
L 268.018624 53.568 
L 271.052778 53.568 
L 274.086933 53.568 
L 277.121088 53.568 
L 280.155242 53.568 
L 283.189397 53.568 
L 286.223551 53.568 
L 289.257706 53.568 
L 292.291861 53.568 
L 295.326015 53.568 
L 298.36017 53.568 
L 301.394325 53.568 
L 304.428479 53.568 
L 307.462634 53.568 
L 310.496788 53.568 
L 313.530943 53.568 
L 316.565098 53.568 
L 319.599252 53.568 
L 322.633407 53.568 
L 325.667562 53.568 
L 328.701716 53.568 
L 331.735871 53.568 
L 334.770025 53.568 
L 337.80418 53.568 
L 340.838335 53.568 
L 343.872489 53.568 
L 346.906644 53.568 
L 349.940799 53.568 
L 352.974953 53.568 
L 356.009108 53.568 
L 359.043263 53.568 
L 362.077417 53.568 
L 365.111572 53.568 
L 368.145726 53.568 
L 371.179881 53.568 
L 374.214036 53.568 
L 377.24819 53.568 
L 380.282345 53.568 
L 383.3165 53.568 
L 386.350654 53.568 
L 389.384809 53.568 
L 392.418963 53.568 
L 395.453118 53.568 
L 398.487273 53.568 
" style="fill:none;stroke:#008080;stroke-linecap:square;stroke-width:1.5;"/>
   </g>
   <g id="line2d_15">
    <path clip-path="url(#p15153afc5a)" d="M 243.745387 61.910069 
L 246.779541 61.910069 
L 249.813696 61.910069 
L 252.84785 61.910069 
L 255.882005 61.910069 
L 258.91616 61.910069 
L 261.950314 61.910069 
L 264.984469 61.910069 
L 268.018624 61.910069 
L 271.052778 61.910069 
L 274.086933 61.910069 
L 277.121088 61.910069 
L 280.155242 61.910069 
L 283.189397 61.910069 
L 286.223551 61.910069 
L 289.257706 61.910069 
L 292.291861 61.910069 
L 295.326015 61.910069 
L 298.36017 61.910069 
L 301.394325 61.910069 
L 304.428479 61.910069 
L 307.462634 61.910069 
L 310.496788 61.910069 
L 313.530943 61.910069 
L 316.565098 61.910069 
L 319.599252 61.910069 
L 322.633407 61.910069 
L 325.667562 61.910069 
L 328.701716 61.910069 
L 331.735871 61.910069 
L 334.770025 61.910069 
L 337.80418 61.910069 
L 340.838335 61.910069 
L 343.872489 61.910069 
L 346.906644 61.910069 
L 349.940799 61.910069 
L 352.974953 61.910069 
L 356.009108 61.910069 
L 359.043263 61.910069 
L 362.077417 61.910069 
L 365.111572 61.910069 
L 368.145726 61.910069 
L 371.179881 61.910069 
L 374.214036 61.910069 
L 377.24819 61.910069 
L 380.282345 61.910069 
L 383.3165 61.910069 
L 386.350654 61.910069 
L 389.384809 61.910069 
L 392.418963 61.910069 
" style="fill:none;stroke:#808000;stroke-linecap:square;stroke-width:1.5;"/>
   </g>
   <g id="line2d_16">
    <path clip-path="url(#p15153afc5a)" d="M 237.677077 70.252138 
L 240.711232 70.252138 
L 243.745387 70.252138 
L 246.779541 70.252138 
L 249.813696 70.252138 
L 252.84785 70.252138 
L 255.882005 70.252138 
L 258.91616 58.334897 
L 261.950314 64.293517 
L 264.984469 54.362483 
L 268.018624 66.279724 
L 271.052778 68.265931 
L 274.086933 70.252138 
L 277.121088 68.265931 
L 280.155242 70.252138 
L 283.189397 70.252138 
L 286.223551 70.252138 
L 289.257706 70.252138 
L 292.291861 70.252138 
L 295.326015 70.252138 
L 298.36017 70.252138 
L 301.394325 70.252138 
L 304.428479 70.252138 
L 307.462634 70.252138 
L 310.496788 70.252138 
L 313.530943 70.252138 
L 316.565098 70.252138 
L 319.599252 70.252138 
L 322.633407 70.252138 
L 325.667562 70.252138 
L 328.701716 70.252138 
L 331.735871 70.252138 
L 334.770025 70.252138 
L 337.80418 70.252138 
L 340.838335 70.252138 
L 343.872489 70.252138 
L 346.906644 70.252138 
L 349.940799 70.252138 
L 352.974953 70.252138 
L 356.009108 70.252138 
L 359.043263 70.252138 
L 362.077417 70.252138 
L 365.111572 70.252138 
L 368.145726 70.252138 
L 371.179881 70.252138 
L 374.214036 70.252138 
L 377.24819 70.252138 
L 380.282345 70.252138 
L 383.3165 70.252138 
L 386.350654 70.252138 
" style="fill:none;stroke:#2f4f4f;stroke-linecap:square;stroke-width:1.5;"/>
   </g>
   <g id="line2d_17">
    <path clip-path="url(#p15153afc5a)" d="M 231.608768 78.594207 
L 234.642923 78.594207 
L 237.677077 78.594207 
L 240.711232 78.594207 
L 243.745387 78.594207 
L 246.779541 78.594207 
L 249.813696 78.594207 
L 252.84785 70.687033 
L 255.882005 63.570576 
L 258.91616 68.117201 
L 261.950314 73.849902 
L 264.984469 76.419734 
L 268.018624 77.60581 
L 271.052778 78.198848 
L 274.086933 78.594207 
L 277.121088 78.594207 
L 280.155242 78.594207 
L 283.189397 78.594207 
L 286.223551 78.594207 
L 289.257706 78.594207 
L 292.291861 78.594207 
L 295.326015 78.594207 
L 298.36017 78.594207 
L 301.394325 78.594207 
L 304.428479 78.594207 
L 307.462634 78.594207 
L 310.496788 78.594207 
L 313.530943 78.594207 
L 316.565098 78.594207 
L 319.599252 78.594207 
L 322.633407 78.594207 
L 325.667562 78.594207 
L 328.701716 78.594207 
L 331.735871 78.594207 
L 334.770025 78.594207 
L 337.80418 78.594207 
L 340.838335 78.594207 
L 343.872489 78.594207 
L 346.906644 78.594207 
L 349.940799 78.594207 
L 352.974953 78.594207 
L 356.009108 78.594207 
L 359.043263 78.594207 
L 362.077417 78.594207 
L 365.111572 78.594207 
L 368.145726 78.594207 
L 371.179881 78.594207 
L 374.214036 78.594207 
L 377.24819 78.594207 
L 380.282345 78.594207 
" style="fill:none;stroke:#708090;stroke-linecap:square;stroke-width:1.5;"/>
   </g>
   <g id="line2d_18">
    <path clip-path="url(#p15153afc5a)" d="M 225.540459 86.936276 
L 228.574613 86.936276 
L 231.608768 86.936276 
L 234.642923 86.936276 
L 237.677077 86.936276 
L 240.711232 86.936276 
L 243.745387 86.909191 
L 246.779541 76.10242 
L 249.813696 72.71684 
L 252.84785 77.456652 
L 255.882005 82.846495 
L 258.91616 84.986182 
L 261.950314 86.367498 
L 264.984469 86.502922 
L 268.018624 86.855022 
L 271.052778 86.936276 
L 274.086933 86.936276 
L 277.121088 86.936276 
L 280.155242 86.936276 
L 283.189397 86.909191 
L 286.223551 86.936276 
L 289.257706 86.936276 
L 292.291861 86.936276 
L 295.326015 86.936276 
L 298.36017 86.936276 
L 301.394325 86.936276 
L 304.428479 86.936276 
L 307.462634 86.936276 
L 310.496788 86.936276 
L 313.530943 86.936276 
L 316.565098 86.936276 
L 319.599252 86.936276 
L 322.633407 86.936276 
L 325.667562 86.936276 
L 328.701716 86.936276 
L 331.735871 86.936276 
L 334.770025 86.936276 
L 337.80418 86.936276 
L 340.838335 86.936276 
L 343.872489 86.936276 
L 346.906644 86.936276 
L 349.940799 86.936276 
L 352.974953 86.936276 
L 356.009108 86.936276 
L 359.043263 86.936276 
L 362.077417 86.936276 
L 365.111572 86.936276 
L 368.145726 86.936276 
L 371.179881 86.936276 
L 374.214036 86.936276 
" style="fill:none;stroke:#008080;stroke-linecap:square;stroke-width:1.5;"/>
   </g>
   <g id="line2d_19">
    <path clip-path="url(#p15153afc5a)" d="M 219.47215 95.278345 
L 222.506304 95.278345 
L 225.540459 95.278345 
L 228.574613 95.278345 
L 231.608768 95.278345 
L 234.642923 95.278345 
L 237.677077 95.227717 
L 240.711232 85.102091 
L 243.745387 80.567257 
L 246.779541 86.150817 
L 249.813696 90.844767 
L 252.84785 93.470197 
L 255.882005 94.374271 
L 258.91616 94.967343 
L 261.950314 95.119228 
L 264.984469 95.26388 
L 268.018624 95.271112 
L 271.052778 95.278345 
L 274.086933 95.271112 
L 277.121088 95.278345 
L 280.155242 95.278345 
L 283.189397 95.278345 
L 286.223551 95.278345 
L 289.257706 95.278345 
L 292.291861 95.278345 
L 295.326015 95.278345 
L 298.36017 95.278345 
L 301.394325 95.278345 
L 304.428479 95.278345 
L 307.462634 95.278345 
L 310.496788 95.278345 
L 313.530943 95.278345 
L 316.565098 95.278345 
L 319.599252 95.278345 
L 322.633407 95.278345 
L 325.667562 95.278345 
L 328.701716 95.278345 
L 331.735871 95.278345 
L 334.770025 95.278345 
L 337.80418 95.278345 
L 340.838335 95.278345 
L 343.872489 95.278345 
L 346.906644 95.278345 
L 349.940799 95.278345 
L 352.974953 95.278345 
L 356.009108 95.278345 
L 359.043263 95.278345 
L 362.077417 95.278345 
L 365.111572 95.278345 
L 368.145726 95.278345 
" style="fill:none;stroke:#808000;stroke-linecap:square;stroke-width:1.5;"/>
   </g>
   <g id="line2d_20">
    <path clip-path="url(#p15153afc5a)" d="M 213.40384 103.620414 
L 216.437995 103.620414 
L 219.47215 103.620414 
L 222.506304 103.620414 
L 225.540459 103.620414 
L 228.574613 103.620414 
L 231.608768 103.541104 
L 234.642923 93.125084 
L 237.677077 88.987756 
L 240.711232 94.51631 
L 243.745387 99.456649 
L 246.779541 101.674019 
L 249.813696 102.797575 
L 252.84785 103.29987 
L 255.882005 103.534495 
L 258.91616 103.584063 
L 261.950314 103.603891 
L 264.984469 103.617109 
L 268.018624 103.620414 
L 271.052778 103.617109 
L 274.086933 103.620414 
L 277.121088 103.620414 
L 280.155242 103.620414 
L 283.189397 103.620414 
L 286.223551 103.620414 
L 289.257706 103.620414 
L 292.291861 103.620414 
L 295.326015 103.620414 
L 298.36017 103.620414 
L 301.394325 103.620414 
L 304.428479 103.620414 
L 307.462634 103.620414 
L 310.496788 103.620414 
L 313.530943 103.620414 
L 316.565098 103.620414 
L 319.599252 103.620414 
L 322.633407 103.620414 
L 325.667562 103.620414 
L 328.701716 103.620414 
L 331.735871 103.620414 
L 334.770025 103.620414 
L 337.80418 103.620414 
L 340.838335 103.620414 
L 343.872489 103.620414 
L 346.906644 103.620414 
L 349.940799 103.620414 
L 352.974953 103.620414 
L 356.009108 103.620414 
L 359.043263 103.620414 
L 362.077417 103.620414 
" style="fill:none;stroke:#2f4f4f;stroke-linecap:square;stroke-width:1.5;"/>
   </g>
   <g id="line2d_21">
    <path clip-path="url(#p15153afc5a)" d="M 207.335531 111.962483 
L 210.369686 111.962483 
L 213.40384 111.962483 
L 216.437995 111.962483 
L 219.47215 111.962483 
L 222.506304 111.962483 
L 225.540459 111.850841 
L 228.574613 100.550914 
L 231.608768 97.60444 
L 234.642923 103.320075 
L 237.677077 107.713518 
L 240.711232 110.241882 
L 243.745387 111.277307 
L 246.779541 111.59691 
L 249.813696 111.861786 
L 252.84785 111.920891 
L 255.882005 111.947159 
L 258.91616 111.958105 
L 261.950314 111.958105 
L 264.984469 111.962483 
L 268.018624 111.962483 
L 271.052778 111.962483 
L 274.086933 111.962483 
L 277.121088 111.962483 
L 280.155242 111.962483 
L 283.189397 111.962483 
L 286.223551 111.962483 
L 289.257706 111.962483 
L 292.291861 111.962483 
L 295.326015 111.962483 
L 298.36017 111.962483 
L 301.394325 111.962483 
L 304.428479 111.962483 
L 307.462634 111.962483 
L 310.496788 111.962483 
L 313.530943 111.962483 
L 316.565098 111.962483 
L 319.599252 111.962483 
L 322.633407 111.962483 
L 325.667562 111.962483 
L 328.701716 111.962483 
L 331.735871 111.962483 
L 334.770025 111.962483 
L 337.80418 111.962483 
L 340.838335 111.962483 
L 343.872489 111.962483 
L 346.906644 111.962483 
L 349.940799 111.962483 
L 352.974953 111.962483 
L 356.009108 111.962483 
" style="fill:none;stroke:#708090;stroke-linecap:square;stroke-width:1.5;"/>
   </g>
   <g id="line2d_22">
    <path clip-path="url(#p15153afc5a)" d="M 201.267222 120.304552 
L 204.301376 120.304552 
L 207.335531 120.304552 
L 210.369686 120.304552 
L 213.40384 120.304552 
L 216.437995 120.304552 
L 219.47215 119.974565 
L 222.506304 108.444644 
L 225.540459 105.902853 
L 228.574613 111.83905 
L 231.608768 116.392869 
L 234.642923 118.697426 
L 237.677077 119.598201 
L 240.711232 120.060183 
L 243.745387 120.20288 
L 246.779541 120.249257 
L 249.813696 120.284931 
L 252.84785 120.302768 
L 255.882005 120.302768 
L 258.91616 120.302768 
L 261.950314 120.302768 
L 264.984469 120.304552 
L 268.018624 120.304552 
L 271.052778 120.304552 
L 274.086933 120.304552 
L 277.121088 120.304552 
L 280.155242 120.304552 
L 283.189397 120.304552 
L 286.223551 120.304552 
L 289.257706 120.304552 
L 292.291861 120.304552 
L 295.326015 120.304552 
L 298.36017 120.304552 
L 301.394325 120.304552 
L 304.428479 120.304552 
L 307.462634 120.304552 
L 310.496788 120.304552 
L 313.530943 120.304552 
L 316.565098 120.304552 
L 319.599252 120.304552 
L 322.633407 120.304552 
L 325.667562 120.304552 
L 328.701716 120.304552 
L 331.735871 120.304552 
L 334.770025 120.304552 
L 337.80418 120.304552 
L 340.838335 120.304552 
L 343.872489 120.304552 
L 346.906644 120.304552 
L 349.940799 120.304552 
" style="fill:none;stroke:#008080;stroke-linecap:square;stroke-width:1.5;"/>
   </g>
   <g id="line2d_23">
    <path clip-path="url(#p15153afc5a)" d="M 195.198912 128.646621 
L 198.233067 128.646621 
L 201.267222 128.646621 
L 204.301376 128.646621 
L 207.335531 128.646621 
L 210.369686 128.646621 
L 213.40384 127.958873 
L 216.437995 115.652582 
L 219.47215 114.66242 
L 222.506304 120.879788 
L 225.540459 125.012777 
L 228.574613 127.126422 
L 231.608768 127.940988 
L 234.642923 128.362092 
L 237.677077 128.557197 
L 240.711232 128.623858 
L 243.745387 128.63524 
L 246.779541 128.640117 
L 249.813696 128.646621 
L 252.84785 128.644995 
L 255.882005 128.644995 
L 258.91616 128.646621 
L 261.950314 128.646621 
L 264.984469 128.646621 
L 268.018624 128.646621 
L 271.052778 128.646621 
L 274.086933 128.646621 
L 277.121088 128.646621 
L 280.155242 128.646621 
L 283.189397 128.646621 
L 286.223551 128.646621 
L 289.257706 128.646621 
L 292.291861 128.646621 
L 295.326015 128.646621 
L 298.36017 128.646621 
L 301.394325 128.646621 
L 304.428479 128.646621 
L 307.462634 128.646621 
L 310.496788 128.646621 
L 313.530943 128.646621 
L 316.565098 128.646621 
L 319.599252 128.646621 
L 322.633407 128.646621 
L 325.667562 128.646621 
L 328.701716 128.646621 
L 331.735871 128.646621 
L 334.770025 128.646621 
L 337.80418 128.646621 
L 340.838335 128.646621 
L 343.872489 128.646621 
" style="fill:none;stroke:#808000;stroke-linecap:square;stroke-width:1.5;"/>
   </g>
   <g id="line2d_24">
    <path clip-path="url(#p15153afc5a)" d="M 189.130603 136.98869 
L 192.164758 136.98869 
L 195.198912 136.98869 
L 198.233067 136.98869 
L 201.267222 136.98869 
L 204.301376 136.98869 
L 207.335531 135.762051 
L 210.369686 123.209035 
L 213.40384 123.467924 
L 216.437995 129.550265 
L 219.47215 133.669368 
L 222.506304 135.544769 
L 225.540459 136.407731 
L 228.574613 136.757539 
L 231.608768 136.891606 
L 234.642923 136.945542 
L 237.677077 136.976362 
L 240.711232 136.976362 
L 243.745387 136.985608 
L 246.779541 136.987149 
L 249.813696 136.98869 
L 252.84785 136.98869 
L 255.882005 136.98869 
L 258.91616 136.98869 
L 261.950314 136.98869 
L 264.984469 136.98869 
L 268.018624 136.98869 
L 271.052778 136.98869 
L 274.086933 136.98869 
L 277.121088 136.98869 
L 280.155242 136.98869 
L 283.189397 136.98869 
L 286.223551 136.98869 
L 289.257706 136.98869 
L 292.291861 136.98869 
L 295.326015 136.98869 
L 298.36017 136.98869 
L 301.394325 136.98869 
L 304.428479 136.98869 
L 307.462634 136.98869 
L 310.496788 136.98869 
L 313.530943 136.98869 
L 316.565098 136.98869 
L 319.599252 136.98869 
L 322.633407 136.98869 
L 325.667562 136.98869 
L 328.701716 136.98869 
L 331.735871 136.98869 
L 334.770025 136.98869 
L 337.80418 136.98869 
" style="fill:none;stroke:#2f4f4f;stroke-linecap:square;stroke-width:1.5;"/>
   </g>
   <g id="line2d_25">
    <path clip-path="url(#p15153afc5a)" d="M 183.062294 145.330759 
L 186.096449 145.330759 
L 189.130603 145.330759 
L 192.164758 145.330759 
L 195.198912 145.330759 
L 198.233067 145.330759 
L 201.267222 143.048168 
L 204.301376 130.837263 
L 207.335531 132.611797 
L 210.369686 138.422959 
L 213.40384 142.204825 
L 216.437995 144.040854 
L 219.47215 144.796348 
L 222.506304 145.116995 
L 225.540459 145.247303 
L 228.574613 145.30294 
L 231.608768 145.311725 
L 234.642923 145.32051 
L 237.677077 145.330759 
L 240.711232 145.329294 
L 243.745387 145.329294 
L 246.779541 145.330759 
L 249.813696 145.330759 
L 252.84785 145.330759 
L 255.882005 145.330759 
L 258.91616 145.330759 
L 261.950314 145.330759 
L 264.984469 145.330759 
L 268.018624 145.330759 
L 271.052778 145.330759 
L 274.086933 145.330759 
L 277.121088 145.330759 
L 280.155242 145.330759 
L 283.189397 145.330759 
L 286.223551 145.330759 
L 289.257706 145.330759 
L 292.291861 145.330759 
L 295.326015 145.330759 
L 298.36017 145.330759 
L 301.394325 145.330759 
L 304.428479 145.330759 
L 307.462634 145.330759 
L 310.496788 145.330759 
L 313.530943 145.330759 
L 316.565098 145.330759 
L 319.599252 145.330759 
L 322.633407 145.330759 
L 325.667562 145.330759 
L 328.701716 145.330759 
L 331.735871 145.330759 
" style="fill:none;stroke:#708090;stroke-linecap:square;stroke-width:1.5;"/>
   </g>
   <g id="line2d_26">
    <path clip-path="url(#p15153afc5a)" d="M 176.993985 153.672828 
L 180.028139 153.672828 
L 183.062294 153.672828 
L 186.096449 153.672828 
L 189.130603 153.672828 
L 192.164758 153.672828 
L 195.198912 149.990273 
L 198.233067 138.636533 
L 201.267222 141.647652 
L 204.301376 147.471356 
L 207.335531 150.897469 
L 210.369686 152.495403 
L 213.40384 153.202685 
L 216.437995 153.463263 
L 219.47215 153.585968 
L 222.506304 153.650768 
L 225.540459 153.653526 
L 228.574613 153.671449 
L 231.608768 153.671449 
L 234.642923 153.671449 
L 237.677077 153.672828 
L 240.711232 153.672828 
L 243.745387 153.672828 
L 246.779541 153.672828 
L 249.813696 153.672828 
L 252.84785 153.672828 
L 255.882005 153.672828 
L 258.91616 153.672828 
L 261.950314 153.672828 
L 264.984469 153.672828 
L 268.018624 153.672828 
L 271.052778 153.672828 
L 274.086933 153.672828 
L 277.121088 153.672828 
L 280.155242 153.672828 
L 283.189397 153.672828 
L 286.223551 153.672828 
L 289.257706 153.672828 
L 292.291861 153.672828 
L 295.326015 153.672828 
L 298.36017 153.672828 
L 301.394325 153.672828 
L 304.428479 153.672828 
L 307.462634 153.672828 
L 310.496788 153.672828 
L 313.530943 153.672828 
L 316.565098 153.672828 
L 319.599252 153.672828 
L 322.633407 153.672828 
L 325.667562 153.672828 
" style="fill:none;stroke:#008080;stroke-linecap:square;stroke-width:1.5;"/>
   </g>
   <g id="line2d_27">
    <path clip-path="url(#p15153afc5a)" d="M 170.925675 162.014897 
L 173.95983 162.014897 
L 176.993985 162.014897 
L 180.028139 162.014897 
L 183.062294 162.014897 
L 186.096449 162.014897 
L 189.130603 156.613735 
L 192.164758 146.884878 
L 195.198912 150.777982 
L 198.233067 156.293647 
L 201.267222 159.503636 
L 204.301376 160.997381 
L 207.335531 161.579004 
L 210.369686 161.863961 
L 213.40384 161.951139 
L 216.437995 161.994078 
L 219.47215 162.005788 
L 222.506304 162.008391 
L 225.540459 162.009692 
L 228.574613 162.014897 
L 231.608768 162.014897 
L 234.642923 162.014897 
L 237.677077 162.014897 
L 240.711232 162.014897 
L 243.745387 162.014897 
L 246.779541 162.014897 
L 249.813696 162.014897 
L 252.84785 162.014897 
L 255.882005 162.014897 
L 258.91616 162.014897 
L 261.950314 162.014897 
L 264.984469 162.014897 
L 268.018624 162.014897 
L 271.052778 162.014897 
L 274.086933 162.014897 
L 277.121088 162.014897 
L 280.155242 162.014897 
L 283.189397 162.014897 
L 286.223551 162.014897 
L 289.257706 162.014897 
L 292.291861 162.014897 
L 295.326015 162.014897 
L 298.36017 162.014897 
L 301.394325 162.014897 
L 304.428479 162.014897 
L 307.462634 162.014897 
L 310.496788 162.014897 
L 313.530943 162.014897 
L 316.565098 162.014897 
L 319.599252 162.014897 
" style="fill:none;stroke:#808000;stroke-linecap:square;stroke-width:1.5;"/>
   </g>
   <g id="line2d_28">
    <path clip-path="url(#p15153afc5a)" d="M 164.857366 170.356966 
L 167.891521 170.356966 
L 170.925675 170.356966 
L 173.95983 170.356966 
L 176.993985 170.356966 
L 180.028139 170.355758 
L 183.062294 162.872939 
L 186.096449 155.436005 
L 189.130603 159.878363 
L 192.164758 165.382105 
L 195.198912 168.078431 
L 198.233067 169.415123 
L 201.267222 169.964531 
L 204.301376 170.209652 
L 207.335531 170.299006 
L 210.369686 170.329193 
L 213.40384 170.352136 
L 216.437995 170.356966 
L 219.47215 170.356966 
L 222.506304 170.356966 
L 225.540459 170.356966 
L 228.574613 170.356966 
L 231.608768 170.356966 
L 234.642923 170.356966 
L 237.677077 170.356966 
L 240.711232 170.356966 
L 243.745387 170.356966 
L 246.779541 170.356966 
L 249.813696 170.356966 
L 252.84785 170.356966 
L 255.882005 170.356966 
L 258.91616 170.356966 
L 261.950314 170.356966 
L 264.984469 170.356966 
L 268.018624 170.356966 
L 271.052778 170.356966 
L 274.086933 170.356966 
L 277.121088 170.356966 
L 280.155242 170.356966 
L 283.189397 170.356966 
L 286.223551 170.356966 
L 289.257706 170.356966 
L 292.291861 170.356966 
L 295.326015 170.356966 
L 298.36017 170.356966 
L 301.394325 170.356966 
L 304.428479 170.356966 
L 307.462634 170.356966 
L 310.496788 170.356966 
L 313.530943 170.356966 
" style="fill:none;stroke:#2f4f4f;stroke-linecap:square;stroke-width:1.5;"/>
   </g>
   <g id="line2d_29">
    <path clip-path="url(#p15153afc5a)" d="M 158.789057 178.699034 
L 161.823212 178.699034 
L 164.857366 178.699034 
L 167.891521 178.699034 
L 170.925675 178.699034 
L 173.95983 178.683304 
L 176.993985 168.99561 
L 180.028139 163.722547 
L 183.062294 169.337185 
L 186.096449 174.320358 
L 189.130603 176.746215 
L 192.164758 177.904648 
L 195.198912 178.386673 
L 198.233067 178.570944 
L 201.267222 178.651843 
L 204.301376 178.673192 
L 207.335531 178.693416 
L 210.369686 178.695664 
L 213.40384 178.69454 
L 216.437995 178.699034 
L 219.47215 178.699034 
L 222.506304 178.699034 
L 225.540459 178.699034 
L 228.574613 178.699034 
L 231.608768 178.699034 
L 234.642923 178.699034 
L 237.677077 178.699034 
L 240.711232 178.699034 
L 243.745387 178.699034 
L 246.779541 178.699034 
L 249.813696 178.699034 
L 252.84785 178.699034 
L 255.882005 178.699034 
L 258.91616 178.699034 
L 261.950314 178.699034 
L 264.984469 178.699034 
L 268.018624 178.699034 
L 271.052778 178.699034 
L 274.086933 178.699034 
L 277.121088 178.699034 
L 280.155242 178.699034 
L 283.189397 178.699034 
L 286.223551 178.699034 
L 289.257706 178.699034 
L 292.291861 178.699034 
L 295.326015 178.699034 
L 298.36017 178.699034 
L 301.394325 178.699034 
L 304.428479 178.699034 
L 307.462634 178.699034 
" style="fill:none;stroke:#708090;stroke-linecap:square;stroke-width:1.5;"/>
   </g>
   <g id="line2d_30">
    <path clip-path="url(#p15153afc5a)" d="M 152.720748 187.041103 
L 155.754902 187.041103 
L 158.789057 187.041103 
L 161.823212 187.041103 
L 164.857366 187.041103 
L 167.891521 186.865557 
L 170.925675 175.28687 
L 173.95983 172.617712 
L 176.993985 178.520738 
L 180.028139 183.009872 
L 183.062294 185.382926 
L 186.096449 186.326226 
L 189.130603 186.772496 
L 192.164758 186.94487 
L 195.198912 186.998803 
L 198.233067 187.025241 
L 201.267222 187.035816 
L 204.301376 187.041103 
L 207.335531 187.037931 
L 210.369686 187.040046 
L 213.40384 187.041103 
L 216.437995 187.041103 
L 219.47215 187.041103 
L 222.506304 187.041103 
L 225.540459 187.041103 
L 228.574613 187.041103 
L 231.608768 187.041103 
L 234.642923 187.041103 
L 237.677077 187.041103 
L 240.711232 187.041103 
L 243.745387 187.041103 
L 246.779541 187.041103 
L 249.813696 187.041103 
L 252.84785 187.041103 
L 255.882005 187.041103 
L 258.91616 187.041103 
L 261.950314 187.041103 
L 264.984469 187.041103 
L 268.018624 187.041103 
L 271.052778 187.041103 
L 274.086933 187.041103 
L 277.121088 187.041103 
L 280.155242 187.041103 
L 283.189397 187.041103 
L 286.223551 187.041103 
L 289.257706 187.041103 
L 292.291861 187.041103 
L 295.326015 187.041103 
L 298.36017 187.041103 
L 301.394325 187.041103 
" style="fill:none;stroke:#008080;stroke-linecap:square;stroke-width:1.5;"/>
   </g>
   <g id="line2d_31">
    <path clip-path="url(#p15153afc5a)" d="M 146.652438 195.383172 
L 149.686593 195.383172 
L 152.720748 195.383172 
L 155.754902 195.383172 
L 158.789057 195.383172 
L 161.823212 194.728635 
L 164.857366 181.770956 
L 167.891521 181.462766 
L 170.925675 187.804632 
L 173.95983 191.951011 
L 176.993985 193.914622 
L 180.028139 194.751138 
L 183.062294 195.119988 
L 186.096449 195.295118 
L 189.130603 195.34208 
L 192.164758 195.37241 
L 195.198912 195.378281 
L 198.233067 195.380237 
L 201.267222 195.382194 
L 204.301376 195.383172 
L 207.335531 195.383172 
L 210.369686 195.383172 
L 213.40384 195.383172 
L 216.437995 195.383172 
L 219.47215 195.383172 
L 222.506304 195.383172 
L 225.540459 195.383172 
L 228.574613 195.383172 
L 231.608768 195.383172 
L 234.642923 195.383172 
L 237.677077 195.383172 
L 240.711232 195.383172 
L 243.745387 195.383172 
L 246.779541 195.383172 
L 249.813696 195.383172 
L 252.84785 195.383172 
L 255.882005 195.383172 
L 258.91616 195.383172 
L 261.950314 195.383172 
L 264.984469 195.383172 
L 268.018624 195.383172 
L 271.052778 195.383172 
L 274.086933 195.383172 
L 277.121088 195.383172 
L 280.155242 195.383172 
L 283.189397 195.383172 
L 286.223551 195.383172 
L 289.257706 195.383172 
L 292.291861 195.383172 
L 295.326015 195.383172 
" style="fill:none;stroke:#808000;stroke-linecap:square;stroke-width:1.5;"/>
   </g>
   <g id="line2d_32">
    <path clip-path="url(#p15153afc5a)" d="M 140.584129 203.725241 
L 143.618284 203.725241 
L 146.652438 203.725241 
L 149.686593 203.725241 
L 152.720748 203.725241 
L 155.754902 201.565683 
L 158.789057 189.086106 
L 161.823212 190.851024 
L 164.857366 196.953328 
L 167.891521 200.617451 
L 170.925675 202.427131 
L 173.95983 203.202709 
L 176.993985 203.52244 
L 180.028139 203.643025 
L 183.062294 203.698749 
L 186.096449 203.711539 
L 189.130603 203.717933 
L 192.164758 203.720674 
L 195.198912 203.725241 
L 198.233067 203.725241 
L 201.267222 203.725241 
L 204.301376 203.725241 
L 207.335531 203.725241 
L 210.369686 203.725241 
L 213.40384 203.725241 
L 216.437995 203.725241 
L 219.47215 203.725241 
L 222.506304 203.725241 
L 225.540459 203.725241 
L 228.574613 203.725241 
L 231.608768 203.725241 
L 234.642923 203.725241 
L 237.677077 203.725241 
L 240.711232 203.725241 
L 243.745387 203.725241 
L 246.779541 203.725241 
L 249.813696 203.725241 
L 252.84785 203.725241 
L 255.882005 203.725241 
L 258.91616 203.725241 
L 261.950314 203.725241 
L 264.984469 203.725241 
L 268.018624 203.725241 
L 271.052778 203.725241 
L 274.086933 203.725241 
L 277.121088 203.725241 
L 280.155242 203.725241 
L 283.189397 203.725241 
L 286.223551 203.725241 
L 289.257706 203.725241 
" style="fill:none;stroke:#2f4f4f;stroke-linecap:square;stroke-width:1.5;"/>
   </g>
   <g id="line2d_33">
    <path clip-path="url(#p15153afc5a)" d="M 134.51582 212.06731 
L 137.549975 212.06731 
L 140.584129 212.06731 
L 143.618284 212.06731 
L 146.652438 212.06731 
L 149.686593 207.357744 
L 152.720748 196.876603 
L 155.754902 200.58123 
L 158.789057 206.103018 
L 161.823212 209.54297 
L 164.857366 210.944095 
L 167.891521 211.648793 
L 170.925675 211.902715 
L 173.95983 211.991216 
L 176.993985 212.03588 
L 180.028139 212.054904 
L 183.062294 212.061521 
L 186.096449 212.064002 
L 189.130603 212.06731 
L 192.164758 212.06731 
L 195.198912 212.06731 
L 198.233067 212.06731 
L 201.267222 212.06731 
L 204.301376 212.06731 
L 207.335531 212.06731 
L 210.369686 212.06731 
L 213.40384 212.06731 
L 216.437995 212.06731 
L 219.47215 212.06731 
L 222.506304 212.06731 
L 225.540459 212.06731 
L 228.574613 212.06731 
L 231.608768 212.06731 
L 234.642923 212.06731 
L 237.677077 212.06731 
L 240.711232 212.06731 
L 243.745387 212.06731 
L 246.779541 212.06731 
L 249.813696 212.06731 
L 252.84785 212.06731 
L 255.882005 212.06731 
L 258.91616 212.06731 
L 261.950314 212.06731 
L 264.984469 212.06731 
L 268.018624 212.06731 
L 271.052778 212.06731 
L 274.086933 212.06731 
L 277.121088 212.06731 
L 280.155242 212.06731 
L 283.189397 212.06731 
" style="fill:none;stroke:#708090;stroke-linecap:square;stroke-width:1.5;"/>
   </g>
   <g id="line2d_34">
    <path clip-path="url(#p15153afc5a)" d="M 128.447511 220.409379 
L 131.481665 220.409379 
L 134.51582 220.409379 
L 137.549975 220.409379 
L 140.584129 220.409379 
L 143.618284 212.440971 
L 146.652438 205.308264 
L 149.686593 210.272882 
L 152.720748 215.469188 
L 155.754902 218.294587 
L 158.789057 219.531485 
L 161.823212 220.050375 
L 164.857366 220.280582 
L 167.891521 220.357564 
L 170.925675 220.388653 
L 173.95983 220.401977 
L 176.993985 220.407899 
L 180.028139 220.407899 
L 183.062294 220.408639 
L 186.096449 220.409379 
L 189.130603 220.409379 
L 192.164758 220.409379 
L 195.198912 220.409379 
L 198.233067 220.409379 
L 201.267222 220.409379 
L 204.301376 220.409379 
L 207.335531 220.409379 
L 210.369686 220.409379 
L 213.40384 220.409379 
L 216.437995 220.409379 
L 219.47215 220.409379 
L 222.506304 220.409379 
L 225.540459 220.409379 
L 228.574613 220.409379 
L 231.608768 220.409379 
L 234.642923 220.409379 
L 237.677077 220.409379 
L 240.711232 220.409379 
L 243.745387 220.409379 
L 246.779541 220.409379 
L 249.813696 220.409379 
L 252.84785 220.409379 
L 255.882005 220.409379 
L 258.91616 220.409379 
L 261.950314 220.409379 
L 264.984469 220.409379 
L 268.018624 220.409379 
L 271.052778 220.409379 
L 274.086933 220.409379 
L 277.121088 220.409379 
" style="fill:none;stroke:#008080;stroke-linecap:square;stroke-width:1.5;"/>
   </g>
   <g id="line2d_35">
    <path clip-path="url(#p15153afc5a)" d="M 122.379201 228.751448 
L 125.413356 228.751448 
L 128.447511 228.751448 
L 131.481665 228.751448 
L 134.51582 228.751448 
L 137.549975 217.024196 
L 140.584129 214.18282 
L 143.618284 220.16681 
L 146.652438 224.797858 
L 149.686593 227.07622 
L 152.720748 228.02795 
L 155.754902 228.471257 
L 158.789057 228.631742 
L 161.823212 228.707381 
L 164.857366 228.731716 
L 167.891521 228.741582 
L 170.925675 228.750133 
L 173.95983 228.748817 
L 176.993985 228.751448 
L 180.028139 228.751448 
L 183.062294 228.751448 
L 186.096449 228.751448 
L 189.130603 228.751448 
L 192.164758 228.751448 
L 195.198912 228.751448 
L 198.233067 228.751448 
L 201.267222 228.751448 
L 204.301376 228.751448 
L 207.335531 228.751448 
L 210.369686 228.751448 
L 213.40384 228.751448 
L 216.437995 228.751448 
L 219.47215 228.751448 
L 222.506304 228.751448 
L 225.540459 228.751448 
L 228.574613 228.751448 
L 231.608768 228.751448 
L 234.642923 228.751448 
L 237.677077 228.751448 
L 240.711232 228.751448 
L 243.745387 228.751448 
L 246.779541 228.751448 
L 249.813696 228.751448 
L 252.84785 228.751448 
L 255.882005 228.751448 
L 258.91616 228.751448 
L 261.950314 228.751448 
L 264.984469 228.751448 
L 268.018624 228.751448 
L 271.052778 228.751448 
" style="fill:none;stroke:#808000;stroke-linecap:square;stroke-width:1.5;"/>
   </g>
   <g id="line2d_36">
    <path clip-path="url(#p15153afc5a)" d="M 116.310892 237.093517 
L 119.345047 237.093517 
L 122.379201 237.093517 
L 125.413356 237.093517 
L 128.447511 236.332527 
L 131.481665 222.454287 
L 134.51582 223.695212 
L 137.549975 229.759313 
L 140.584129 233.821499 
L 143.618284 235.714446 
L 146.652438 236.531409 
L 149.686593 236.867245 
L 152.720748 237.016108 
L 155.754902 237.05779 
L 158.789057 237.083395 
L 161.823212 237.082799 
L 164.857366 237.09054 
L 167.891521 237.093517 
L 170.925675 237.092326 
L 173.95983 237.093517 
L 176.993985 237.093517 
L 180.028139 237.093517 
L 183.062294 237.093517 
L 186.096449 237.093517 
L 189.130603 237.093517 
L 192.164758 237.093517 
L 195.198912 237.093517 
L 198.233067 237.093517 
L 201.267222 237.093517 
L 204.301376 237.093517 
L 207.335531 237.093517 
L 210.369686 237.093517 
L 213.40384 237.093517 
L 216.437995 237.093517 
L 219.47215 237.093517 
L 222.506304 237.093517 
L 225.540459 237.093517 
L 228.574613 237.093517 
L 231.608768 237.093517 
L 234.642923 237.093517 
L 237.677077 237.093517 
L 240.711232 237.093517 
L 243.745387 237.093517 
L 246.779541 237.093517 
L 249.813696 237.093517 
L 252.84785 237.093517 
L 255.882005 237.093517 
L 258.91616 237.093517 
L 261.950314 237.093517 
L 264.984469 237.093517 
" style="fill:none;stroke:#2f4f4f;stroke-linecap:square;stroke-width:1.5;"/>
   </g>
   <g id="line2d_37">
    <path clip-path="url(#p15153afc5a)" d="M 110.242583 245.435586 
L 113.276737 245.435586 
L 116.310892 245.435586 
L 119.345047 245.435586 
L 122.379201 240.962682 
L 125.413356 229.835561 
L 128.447511 233.876118 
L 131.481665 239.580617 
L 134.51582 242.929626 
L 137.549975 244.390534 
L 140.584129 245.017153 
L 143.618284 245.278416 
L 146.652438 245.378902 
L 149.686593 245.410336 
L 152.720748 245.426311 
L 155.754902 245.432494 
L 158.789057 245.43404 
L 161.823212 245.435586 
L 164.857366 245.435586 
L 167.891521 245.435071 
L 170.925675 245.435586 
L 173.95983 245.435586 
L 176.993985 245.435586 
L 180.028139 245.435586 
L 183.062294 245.435586 
L 186.096449 245.435586 
L 189.130603 245.435586 
L 192.164758 245.435586 
L 195.198912 245.435586 
L 198.233067 245.435586 
L 201.267222 245.435586 
L 204.301376 245.435586 
L 207.335531 245.435586 
L 210.369686 245.435586 
L 213.40384 245.435586 
L 216.437995 245.435586 
L 219.47215 245.435586 
L 222.506304 245.435586 
L 225.540459 245.435586 
L 228.574613 245.435586 
L 231.608768 245.435586 
L 234.642923 245.435586 
L 237.677077 245.435586 
L 240.711232 245.435586 
L 243.745387 245.435586 
L 246.779541 245.435586 
L 249.813696 245.435586 
L 252.84785 245.435586 
L 255.882005 245.435586 
L 258.91616 245.435586 
" style="fill:none;stroke:#708090;stroke-linecap:square;stroke-width:1.5;"/>
   </g>
   <g id="line2d_38">
    <path clip-path="url(#p15153afc5a)" d="M 104.174274 253.777655 
L 107.208428 253.777655 
L 110.242583 253.777655 
L 113.276737 253.777655 
L 116.310892 243.075918 
L 119.345047 238.950023 
L 122.379201 244.782491 
L 125.413356 249.605194 
L 128.447511 252.011512 
L 131.481665 253.0175 
L 134.51582 253.478963 
L 137.549975 253.660192 
L 140.584129 253.737382 
L 143.618284 253.762972 
L 146.652438 253.768845 
L 149.686593 253.77388 
L 152.720748 253.775558 
L 155.754902 253.776397 
L 158.789057 253.777655 
L 161.823212 253.777655 
L 164.857366 253.777655 
L 167.891521 253.777655 
L 170.925675 253.777655 
L 173.95983 253.777655 
L 176.993985 253.777655 
L 180.028139 253.777655 
L 183.062294 253.777655 
L 186.096449 253.777655 
L 189.130603 253.777655 
L 192.164758 253.777655 
L 195.198912 253.777655 
L 198.233067 253.777655 
L 201.267222 253.777655 
L 204.301376 253.777655 
L 207.335531 253.777655 
L 210.369686 253.777655 
L 213.40384 253.777655 
L 216.437995 253.777655 
L 219.47215 253.777655 
L 222.506304 253.777655 
L 225.540459 253.777655 
L 228.574613 253.777655 
L 231.608768 253.777655 
L 234.642923 253.777655 
L 237.677077 253.777655 
L 240.711232 253.777655 
L 243.745387 253.777655 
L 246.779541 253.777655 
L 249.813696 253.777655 
L 252.84785 253.777655 
" style="fill:none;stroke:#008080;stroke-linecap:square;stroke-width:1.5;"/>
   </g>
   <g id="line2d_39">
    <path clip-path="url(#p15153afc5a)" d="M 98.105964 262.119724 
L 101.140119 262.119724 
L 104.174274 262.119724 
L 107.208428 262.119724 
L 110.242583 246.365771 
L 113.276737 248.565182 
L 116.310892 255.060044 
L 119.345047 258.96581 
L 122.379201 260.799706 
L 125.413356 261.598038 
L 128.447511 261.916702 
L 131.481665 262.036061 
L 134.51582 262.079938 
L 137.549975 262.111544 
L 140.584129 262.111544 
L 143.618284 262.116749 
L 146.652438 262.119352 
L 149.686593 262.119724 
L 152.720748 262.119352 
L 155.754902 262.119724 
L 158.789057 262.119724 
L 161.823212 262.119724 
L 164.857366 262.119724 
L 167.891521 262.119724 
L 170.925675 262.119724 
L 173.95983 262.119724 
L 176.993985 262.119724 
L 180.028139 262.119724 
L 183.062294 262.119724 
L 186.096449 262.119724 
L 189.130603 262.119724 
L 192.164758 262.119724 
L 195.198912 262.119724 
L 198.233067 262.119724 
L 201.267222 262.119724 
L 204.301376 262.119724 
L 207.335531 262.119724 
L 210.369686 262.119724 
L 213.40384 262.119724 
L 216.437995 262.119724 
L 219.47215 262.119724 
L 222.506304 262.119724 
L 225.540459 262.119724 
L 228.574613 262.119724 
L 231.608768 262.119724 
L 234.642923 262.119724 
L 237.677077 262.119724 
L 240.711232 262.119724 
L 243.745387 262.119724 
L 246.779541 262.119724 
" style="fill:none;stroke:#808000;stroke-linecap:square;stroke-width:1.5;"/>
   </g>
   <g id="line2d_40">
    <path clip-path="url(#p15153afc5a)" d="M 92.037655 270.461793 
L 95.07181 270.461793 
L 98.105964 270.461793 
L 101.140119 260.454166 
L 104.174274 255.311543 
L 107.208428 261.281697 
L 110.242583 266.137375 
L 113.276737 268.657266 
L 116.310892 269.711527 
L 119.345047 270.160461 
L 122.379201 270.345097 
L 125.413356 270.418365 
L 128.447511 270.443942 
L 131.481665 270.4538 
L 134.51582 270.458862 
L 137.549975 270.459395 
L 140.584129 270.461527 
L 143.618284 270.461793 
L 146.652438 270.461527 
L 149.686593 270.461793 
L 152.720748 270.461793 
L 155.754902 270.461793 
L 158.789057 270.461793 
L 161.823212 270.461793 
L 164.857366 270.461793 
L 167.891521 270.461793 
L 170.925675 270.461793 
L 173.95983 270.461793 
L 176.993985 270.461793 
L 180.028139 270.461793 
L 183.062294 270.461793 
L 186.096449 270.461793 
L 189.130603 270.461793 
L 192.164758 270.461793 
L 195.198912 270.461793 
L 198.233067 270.461793 
L 201.267222 270.461793 
L 204.301376 270.461793 
L 207.335531 270.461793 
L 210.369686 270.461793 
L 213.40384 270.461793 
L 216.437995 270.461793 
L 219.47215 270.461793 
L 222.506304 270.461793 
L 225.540459 270.461793 
L 228.574613 270.461793 
L 231.608768 270.461793 
L 234.642923 270.461793 
L 237.677077 270.461793 
L 240.711232 270.461793 
" style="fill:none;stroke:#2f4f4f;stroke-linecap:square;stroke-width:1.5;"/>
   </g>
   <g id="line2d_41">
    <path clip-path="url(#p15153afc5a)" d="M 85.969346 278.803862 
L 89.0035 278.803862 
L 92.037655 278.803862 
L 95.07181 260.699646 
L 98.105964 265.952716 
L 101.140119 272.589264 
L 104.174274 276.112412 
L 107.208428 277.693397 
L 110.242583 278.348995 
L 113.276737 278.631445 
L 116.310892 278.743781 
L 119.345047 278.770944 
L 122.379201 278.792352 
L 125.413356 278.800179 
L 128.447511 278.802021 
L 131.481665 278.803171 
L 134.51582 278.803862 
L 137.549975 278.803402 
L 140.584129 278.803862 
L 143.618284 278.803862 
L 146.652438 278.803862 
L 149.686593 278.803862 
L 152.720748 278.803862 
L 155.754902 278.803862 
L 158.789057 278.803862 
L 161.823212 278.803862 
L 164.857366 278.803862 
L 167.891521 278.803862 
L 170.925675 278.803862 
L 173.95983 278.803862 
L 176.993985 278.803862 
L 180.028139 278.803862 
L 183.062294 278.803862 
L 186.096449 278.803862 
L 189.130603 278.803862 
L 192.164758 278.803862 
L 195.198912 278.803862 
L 198.233067 278.803862 
L 201.267222 278.803862 
L 204.301376 278.803862 
L 207.335531 278.803862 
L 210.369686 278.803862 
L 213.40384 278.803862 
L 216.437995 278.803862 
L 219.47215 278.803862 
L 222.506304 278.803862 
L 225.540459 278.803862 
L 228.574613 278.803862 
L 231.608768 278.803862 
L 234.642923 278.803862 
" style="fill:none;stroke:#708090;stroke-linecap:square;stroke-width:1.5;"/>
   </g>
   <g id="line2d_42">
    <path clip-path="url(#p15153afc5a)" d="M 79.901037 287.145931 
L 82.935191 287.145931 
L 85.969346 267.53399 
L 89.0035 274.793375 
L 92.037655 281.469859 
L 95.07181 284.716925 
L 98.105964 286.169322 
L 101.140119 286.743194 
L 104.174274 286.987928 
L 107.208428 287.085055 
L 110.242583 287.119529 
L 113.276737 287.135397 
L 116.310892 287.142785 
L 119.345047 287.144563 
L 122.379201 287.145247 
L 125.413356 287.145657 
L 128.447511 287.145794 
L 131.481665 287.145931 
L 134.51582 287.145931 
L 137.549975 287.145931 
L 140.584129 287.145931 
L 143.618284 287.145931 
L 146.652438 287.145931 
L 149.686593 287.145931 
L 152.720748 287.145931 
L 155.754902 287.145931 
L 158.789057 287.145931 
L 161.823212 287.145931 
L 164.857366 287.145931 
L 167.891521 287.145931 
L 170.925675 287.145931 
L 173.95983 287.145931 
L 176.993985 287.145931 
L 180.028139 287.145931 
L 183.062294 287.145931 
L 186.096449 287.145931 
L 189.130603 287.145931 
L 192.164758 287.145931 
L 195.198912 287.145931 
L 198.233067 287.145931 
L 201.267222 287.145931 
L 204.301376 287.145931 
L 207.335531 287.145931 
L 210.369686 287.145931 
L 213.40384 287.145931 
L 216.437995 287.145931 
L 219.47215 287.145931 
L 222.506304 287.145931 
L 225.540459 287.145931 
L 228.574613 287.145931 
" style="fill:none;stroke:#008080;stroke-linecap:square;stroke-width:1.5;"/>
   </g>
   <g id="line2d_43">
    <path clip-path="url(#p15153afc5a)" d="M 73.832727 270.448442 
L 76.866882 285.460158 
L 79.901037 291.490535 
L 82.935191 293.89313 
L 85.969346 294.857754 
L 89.0035 295.233598 
L 92.037655 295.388693 
L 95.07181 295.448137 
L 98.105964 295.471674 
L 101.140119 295.48164 
L 104.174274 295.485346 
L 107.208428 295.486948 
L 110.242583 295.4877 
L 113.276737 295.48795 
L 116.310892 295.48795 
L 119.345047 295.488 
L 122.379201 295.488 
L 125.413356 295.488 
L 128.447511 295.488 
L 131.481665 295.488 
L 134.51582 295.488 
L 137.549975 295.488 
L 140.584129 295.488 
L 143.618284 295.488 
L 146.652438 295.488 
L 149.686593 295.488 
L 152.720748 295.488 
L 155.754902 295.488 
L 158.789057 295.488 
L 161.823212 295.488 
L 164.857366 295.488 
L 167.891521 295.488 
L 170.925675 295.488 
L 173.95983 295.488 
L 176.993985 295.488 
L 180.028139 295.488 
L 183.062294 295.488 
L 186.096449 295.488 
L 189.130603 295.488 
L 192.164758 295.488 
L 195.198912 295.488 
L 198.233067 295.488 
L 201.267222 295.488 
L 204.301376 295.488 
L 207.335531 295.488 
L 210.369686 295.488 
L 213.40384 295.488 
L 216.437995 295.488 
L 219.47215 295.488 
L 222.506304 295.488 
" style="fill:none;stroke:#808000;stroke-linecap:square;stroke-width:1.5;"/>
   </g>
   <g id="patch_3">
    <path d="M 57.6 307.584 
L 57.6 41.472 
" style="fill:none;stroke:#000000;stroke-linecap:square;stroke-linejoin:miter;stroke-width:0.8;"/>
   </g>
   <g id="patch_4">
    <path d="M 414.72 307.584 
L 414.72 41.472 
" style="fill:none;stroke:#000000;stroke-linecap:square;stroke-linejoin:miter;stroke-width:0.8;"/>
   </g>
   <g id="patch_5">
    <path d="M 57.6 307.584 
L 414.72 307.584 
" style="fill:none;stroke:#000000;stroke-linecap:square;stroke-linejoin:miter;stroke-width:0.8;"/>
   </g>
   <g id="patch_6">
    <path d="M 57.6 41.472 
L 414.72 41.472 
" style="fill:none;stroke:#000000;stroke-linecap:square;stroke-linejoin:miter;stroke-width:0.8;"/>
   </g>
  </g>
 </g>
 <defs>
  <clipPath id="p15153afc5a">
   <rect height="266.112" width="357.12" x="57.6" y="41.472"/>
  </clipPath>
 </defs>
</svg>
