<?xml version="1.0" encoding="utf-8" standalone="no"?>
<!DOCTYPE svg PUBLIC "-//W3C//DTD SVG 1.1//EN"
  "http://www.w3.org/Graphics/SVG/1.1/DTD/svg11.dtd">
<!-- Created with matplotlib (https://matplotlib.org/) -->
<svg height="345.6pt" version="1.1" viewBox="0 0 460.8 345.6" width="460.8pt" xmlns="http://www.w3.org/2000/svg" xmlns:xlink="http://www.w3.org/1999/xlink">
 <metadata>
  <rdf:RDF xmlns:cc="http://creativecommons.org/ns#" xmlns:dc="http://purl.org/dc/elements/1.1/" xmlns:rdf="http://www.w3.org/1999/02/22-rdf-syntax-ns#">
   <cc:Work>
    <dc:type rdf:resource="http://purl.org/dc/dcmitype/StillImage"/>
    <dc:date>2021-06-07T13:38:34.400914</dc:date>
    <dc:format>image/svg+xml</dc:format>
    <dc:creator>
     <cc:Agent>
      <dc:title>Matplotlib v3.3.4, https://matplotlib.org/</dc:title>
     </cc:Agent>
    </dc:creator>
   </cc:Work>
  </rdf:RDF>
 </metadata>
 <defs>
  <style type="text/css">*{stroke-linecap:butt;stroke-linejoin:round;}</style>
 </defs>
 <g id="figure_1">
  <g id="patch_1">
   <path d="M 0 345.6 
L 460.8 345.6 
L 460.8 0 
L 0 0 
z
" style="fill:#ffffff;"/>
  </g>
  <g id="axes_1">
   <g id="patch_2">
    <path d="M 57.6 307.584 
L 414.72 307.584 
L 414.72 41.472 
L 57.6 41.472 
z
" style="fill:#ffffff;"/>
   </g>
   <g id="matplotlib.axis_1">
    <g id="xtick_1">
     <g id="line2d_1">
      <defs>
       <path d="M 0 0 
L 0 3.5 
" id="m9ea25bc671" style="stroke:#000000;stroke-width:0.8;"/>
      </defs>
      <g>
       <use style="stroke:#000000;stroke-width:0.8;" x="70.798573" xlink:href="#m9ea25bc671" y="307.584"/>
      </g>
     </g>
     <g id="text_1">
      <!-- 0 -->
      <g transform="translate(67.617323 322.182437)scale(0.1 -0.1)">
       <defs>
        <path d="M 31.78125 66.40625 
Q 24.171875 66.40625 20.328125 58.90625 
Q 16.5 51.421875 16.5 36.375 
Q 16.5 21.390625 20.328125 13.890625 
Q 24.171875 6.390625 31.78125 6.390625 
Q 39.453125 6.390625 43.28125 13.890625 
Q 47.125 21.390625 47.125 36.375 
Q 47.125 51.421875 43.28125 58.90625 
Q 39.453125 66.40625 31.78125 66.40625 
z
M 31.78125 74.21875 
Q 44.046875 74.21875 50.515625 64.515625 
Q 56.984375 54.828125 56.984375 36.375 
Q 56.984375 17.96875 50.515625 8.265625 
Q 44.046875 -1.421875 31.78125 -1.421875 
Q 19.53125 -1.421875 13.0625 8.265625 
Q 6.59375 17.96875 6.59375 36.375 
Q 6.59375 54.828125 13.0625 64.515625 
Q 19.53125 74.21875 31.78125 74.21875 
z
" id="DejaVuSans-48"/>
       </defs>
       <use xlink:href="#DejaVuSans-48"/>
      </g>
     </g>
    </g>
    <g id="xtick_2">
     <g id="line2d_2">
      <g>
       <use style="stroke:#000000;stroke-width:0.8;" x="131.481665" xlink:href="#m9ea25bc671" y="307.584"/>
      </g>
     </g>
     <g id="text_2">
      <!-- 20 -->
      <g transform="translate(125.119165 322.182437)scale(0.1 -0.1)">
       <defs>
        <path d="M 19.1875 8.296875 
L 53.609375 8.296875 
L 53.609375 0 
L 7.328125 0 
L 7.328125 8.296875 
Q 12.9375 14.109375 22.625 23.890625 
Q 32.328125 33.6875 34.8125 36.53125 
Q 39.546875 41.84375 41.421875 45.53125 
Q 43.3125 49.21875 43.3125 52.78125 
Q 43.3125 58.59375 39.234375 62.25 
Q 35.15625 65.921875 28.609375 65.921875 
Q 23.96875 65.921875 18.8125 64.3125 
Q 13.671875 62.703125 7.8125 59.421875 
L 7.8125 69.390625 
Q 13.765625 71.78125 18.9375 73 
Q 24.125 74.21875 28.421875 74.21875 
Q 39.75 74.21875 46.484375 68.546875 
Q 53.21875 62.890625 53.21875 53.421875 
Q 53.21875 48.921875 51.53125 44.890625 
Q 49.859375 40.875 45.40625 35.40625 
Q 44.1875 33.984375 37.640625 27.21875 
Q 31.109375 20.453125 19.1875 8.296875 
z
" id="DejaVuSans-50"/>
       </defs>
       <use xlink:href="#DejaVuSans-50"/>
       <use x="63.623047" xlink:href="#DejaVuSans-48"/>
      </g>
     </g>
    </g>
    <g id="xtick_3">
     <g id="line2d_3">
      <g>
       <use style="stroke:#000000;stroke-width:0.8;" x="192.164758" xlink:href="#m9ea25bc671" y="307.584"/>
      </g>
     </g>
     <g id="text_3">
      <!-- 40 -->
      <g transform="translate(185.802258 322.182437)scale(0.1 -0.1)">
       <defs>
        <path d="M 37.796875 64.3125 
L 12.890625 25.390625 
L 37.796875 25.390625 
z
M 35.203125 72.90625 
L 47.609375 72.90625 
L 47.609375 25.390625 
L 58.015625 25.390625 
L 58.015625 17.1875 
L 47.609375 17.1875 
L 47.609375 0 
L 37.796875 0 
L 37.796875 17.1875 
L 4.890625 17.1875 
L 4.890625 26.703125 
z
" id="DejaVuSans-52"/>
       </defs>
       <use xlink:href="#DejaVuSans-52"/>
       <use x="63.623047" xlink:href="#DejaVuSans-48"/>
      </g>
     </g>
    </g>
    <g id="xtick_4">
     <g id="line2d_4">
      <g>
       <use style="stroke:#000000;stroke-width:0.8;" x="252.84785" xlink:href="#m9ea25bc671" y="307.584"/>
      </g>
     </g>
     <g id="text_4">
      <!-- 60 -->
      <g transform="translate(246.48535 322.182437)scale(0.1 -0.1)">
       <defs>
        <path d="M 33.015625 40.375 
Q 26.375 40.375 22.484375 35.828125 
Q 18.609375 31.296875 18.609375 23.390625 
Q 18.609375 15.53125 22.484375 10.953125 
Q 26.375 6.390625 33.015625 6.390625 
Q 39.65625 6.390625 43.53125 10.953125 
Q 47.40625 15.53125 47.40625 23.390625 
Q 47.40625 31.296875 43.53125 35.828125 
Q 39.65625 40.375 33.015625 40.375 
z
M 52.59375 71.296875 
L 52.59375 62.3125 
Q 48.875 64.0625 45.09375 64.984375 
Q 41.3125 65.921875 37.59375 65.921875 
Q 27.828125 65.921875 22.671875 59.328125 
Q 17.53125 52.734375 16.796875 39.40625 
Q 19.671875 43.65625 24.015625 45.921875 
Q 28.375 48.1875 33.59375 48.1875 
Q 44.578125 48.1875 50.953125 41.515625 
Q 57.328125 34.859375 57.328125 23.390625 
Q 57.328125 12.15625 50.6875 5.359375 
Q 44.046875 -1.421875 33.015625 -1.421875 
Q 20.359375 -1.421875 13.671875 8.265625 
Q 6.984375 17.96875 6.984375 36.375 
Q 6.984375 53.65625 15.1875 63.9375 
Q 23.390625 74.21875 37.203125 74.21875 
Q 40.921875 74.21875 44.703125 73.484375 
Q 48.484375 72.75 52.59375 71.296875 
z
" id="DejaVuSans-54"/>
       </defs>
       <use xlink:href="#DejaVuSans-54"/>
       <use x="63.623047" xlink:href="#DejaVuSans-48"/>
      </g>
     </g>
    </g>
    <g id="xtick_5">
     <g id="line2d_5">
      <g>
       <use style="stroke:#000000;stroke-width:0.8;" x="313.530943" xlink:href="#m9ea25bc671" y="307.584"/>
      </g>
     </g>
     <g id="text_5">
      <!-- 80 -->
      <g transform="translate(307.168443 322.182437)scale(0.1 -0.1)">
       <defs>
        <path d="M 31.78125 34.625 
Q 24.75 34.625 20.71875 30.859375 
Q 16.703125 27.09375 16.703125 20.515625 
Q 16.703125 13.921875 20.71875 10.15625 
Q 24.75 6.390625 31.78125 6.390625 
Q 38.8125 6.390625 42.859375 10.171875 
Q 46.921875 13.96875 46.921875 20.515625 
Q 46.921875 27.09375 42.890625 30.859375 
Q 38.875 34.625 31.78125 34.625 
z
M 21.921875 38.8125 
Q 15.578125 40.375 12.03125 44.71875 
Q 8.5 49.078125 8.5 55.328125 
Q 8.5 64.0625 14.71875 69.140625 
Q 20.953125 74.21875 31.78125 74.21875 
Q 42.671875 74.21875 48.875 69.140625 
Q 55.078125 64.0625 55.078125 55.328125 
Q 55.078125 49.078125 51.53125 44.71875 
Q 48 40.375 41.703125 38.8125 
Q 48.828125 37.15625 52.796875 32.3125 
Q 56.78125 27.484375 56.78125 20.515625 
Q 56.78125 9.90625 50.3125 4.234375 
Q 43.84375 -1.421875 31.78125 -1.421875 
Q 19.734375 -1.421875 13.25 4.234375 
Q 6.78125 9.90625 6.78125 20.515625 
Q 6.78125 27.484375 10.78125 32.3125 
Q 14.796875 37.15625 21.921875 38.8125 
z
M 18.3125 54.390625 
Q 18.3125 48.734375 21.84375 45.5625 
Q 25.390625 42.390625 31.78125 42.390625 
Q 38.140625 42.390625 41.71875 45.5625 
Q 45.3125 48.734375 45.3125 54.390625 
Q 45.3125 60.0625 41.71875 63.234375 
Q 38.140625 66.40625 31.78125 66.40625 
Q 25.390625 66.40625 21.84375 63.234375 
Q 18.3125 60.0625 18.3125 54.390625 
z
" id="DejaVuSans-56"/>
       </defs>
       <use xlink:href="#DejaVuSans-56"/>
       <use x="63.623047" xlink:href="#DejaVuSans-48"/>
      </g>
     </g>
    </g>
    <g id="xtick_6">
     <g id="line2d_6">
      <g>
       <use style="stroke:#000000;stroke-width:0.8;" x="374.214036" xlink:href="#m9ea25bc671" y="307.584"/>
      </g>
     </g>
     <g id="text_6">
      <!-- 100 -->
      <g transform="translate(364.670286 322.182437)scale(0.1 -0.1)">
       <defs>
        <path d="M 12.40625 8.296875 
L 28.515625 8.296875 
L 28.515625 63.921875 
L 10.984375 60.40625 
L 10.984375 69.390625 
L 28.421875 72.90625 
L 38.28125 72.90625 
L 38.28125 8.296875 
L 54.390625 8.296875 
L 54.390625 0 
L 12.40625 0 
z
" id="DejaVuSans-49"/>
       </defs>
       <use xlink:href="#DejaVuSans-49"/>
       <use x="63.623047" xlink:href="#DejaVuSans-48"/>
       <use x="127.246094" xlink:href="#DejaVuSans-48"/>
      </g>
     </g>
    </g>
   </g>
   <g id="matplotlib.axis_2">
    <g id="ytick_1">
     <g id="line2d_7">
      <defs>
       <path d="M 0 0 
L -3.5 0 
" id="m9fc0b17911" style="stroke:#000000;stroke-width:0.8;"/>
      </defs>
      <g>
       <use style="stroke:#000000;stroke-width:0.8;" x="57.6" xlink:href="#m9fc0b17911" y="300.528"/>
      </g>
     </g>
     <g id="text_7">
      <!-- 0 -->
      <g transform="translate(44.2375 304.327219)scale(0.1 -0.1)">
       <use xlink:href="#DejaVuSans-48"/>
      </g>
     </g>
    </g>
    <g id="ytick_2">
     <g id="line2d_8">
      <g>
       <use style="stroke:#000000;stroke-width:0.8;" x="57.6" xlink:href="#m9fc0b17911" y="250.128"/>
      </g>
     </g>
     <g id="text_8">
      <!-- 1 -->
      <g transform="translate(44.2375 253.927219)scale(0.1 -0.1)">
       <use xlink:href="#DejaVuSans-49"/>
      </g>
     </g>
    </g>
    <g id="ytick_3">
     <g id="line2d_9">
      <g>
       <use style="stroke:#000000;stroke-width:0.8;" x="57.6" xlink:href="#m9fc0b17911" y="199.728"/>
      </g>
     </g>
     <g id="text_9">
      <!-- 2 -->
      <g transform="translate(44.2375 203.527219)scale(0.1 -0.1)">
       <use xlink:href="#DejaVuSans-50"/>
      </g>
     </g>
    </g>
    <g id="ytick_4">
     <g id="line2d_10">
      <g>
       <use style="stroke:#000000;stroke-width:0.8;" x="57.6" xlink:href="#m9fc0b17911" y="149.328"/>
      </g>
     </g>
     <g id="text_10">
      <!-- 3 -->
      <g transform="translate(44.2375 153.127219)scale(0.1 -0.1)">
       <defs>
        <path d="M 40.578125 39.3125 
Q 47.65625 37.796875 51.625 33 
Q 55.609375 28.21875 55.609375 21.1875 
Q 55.609375 10.40625 48.1875 4.484375 
Q 40.765625 -1.421875 27.09375 -1.421875 
Q 22.515625 -1.421875 17.65625 -0.515625 
Q 12.796875 0.390625 7.625 2.203125 
L 7.625 11.71875 
Q 11.71875 9.328125 16.59375 8.109375 
Q 21.484375 6.890625 26.8125 6.890625 
Q 36.078125 6.890625 40.9375 10.546875 
Q 45.796875 14.203125 45.796875 21.1875 
Q 45.796875 27.640625 41.28125 31.265625 
Q 36.765625 34.90625 28.71875 34.90625 
L 20.21875 34.90625 
L 20.21875 43.015625 
L 29.109375 43.015625 
Q 36.375 43.015625 40.234375 45.921875 
Q 44.09375 48.828125 44.09375 54.296875 
Q 44.09375 59.90625 40.109375 62.90625 
Q 36.140625 65.921875 28.71875 65.921875 
Q 24.65625 65.921875 20.015625 65.03125 
Q 15.375 64.15625 9.8125 62.3125 
L 9.8125 71.09375 
Q 15.4375 72.65625 20.34375 73.4375 
Q 25.25 74.21875 29.59375 74.21875 
Q 40.828125 74.21875 47.359375 69.109375 
Q 53.90625 64.015625 53.90625 55.328125 
Q 53.90625 49.265625 50.4375 45.09375 
Q 46.96875 40.921875 40.578125 39.3125 
z
" id="DejaVuSans-51"/>
       </defs>
       <use xlink:href="#DejaVuSans-51"/>
      </g>
     </g>
    </g>
    <g id="ytick_5">
     <g id="line2d_11">
      <g>
       <use style="stroke:#000000;stroke-width:0.8;" x="57.6" xlink:href="#m9fc0b17911" y="98.928"/>
      </g>
     </g>
     <g id="text_11">
      <!-- 4 -->
      <g transform="translate(44.2375 102.727219)scale(0.1 -0.1)">
       <use xlink:href="#DejaVuSans-52"/>
      </g>
     </g>
    </g>
    <g id="ytick_6">
     <g id="line2d_12">
      <g>
       <use style="stroke:#000000;stroke-width:0.8;" x="57.6" xlink:href="#m9fc0b17911" y="48.528"/>
      </g>
     </g>
     <g id="text_12">
      <!-- 5 -->
      <g transform="translate(44.2375 52.327219)scale(0.1 -0.1)">
       <defs>
        <path d="M 10.796875 72.90625 
L 49.515625 72.90625 
L 49.515625 64.59375 
L 19.828125 64.59375 
L 19.828125 46.734375 
Q 21.96875 47.46875 24.109375 47.828125 
Q 26.265625 48.1875 28.421875 48.1875 
Q 40.625 48.1875 47.75 41.5 
Q 54.890625 34.8125 54.890625 23.390625 
Q 54.890625 11.625 47.5625 5.09375 
Q 40.234375 -1.421875 26.90625 -1.421875 
Q 22.3125 -1.421875 17.546875 -0.640625 
Q 12.796875 0.140625 7.71875 1.703125 
L 7.71875 11.625 
Q 12.109375 9.234375 16.796875 8.0625 
Q 21.484375 6.890625 26.703125 6.890625 
Q 35.15625 6.890625 40.078125 11.328125 
Q 45.015625 15.765625 45.015625 23.390625 
Q 45.015625 31 40.078125 35.4375 
Q 35.15625 39.890625 26.703125 39.890625 
Q 22.75 39.890625 18.8125 39.015625 
Q 14.890625 38.140625 10.796875 36.28125 
z
" id="DejaVuSans-53"/>
       </defs>
       <use xlink:href="#DejaVuSans-53"/>
      </g>
     </g>
    </g>
   </g>
   <g id="line2d_13">
    <path clip-path="url(#p6ca91e9c06)" d="M 219.47215 53.568 
L 222.506304 53.568 
L 225.540459 53.568 
L 228.574613 53.568 
L 231.608768 53.568 
L 234.642923 53.568 
L 237.677077 53.568 
L 240.711232 53.568 
L 243.745387 53.568 
L 246.779541 53.568 
L 249.813696 53.568 
L 252.84785 53.568 
L 255.882005 53.568 
L 258.91616 53.568 
L 261.950314 53.568 
L 264.984469 53.568 
L 268.018624 53.568 
L 271.052778 53.568 
L 274.086933 53.568 
L 277.121088 53.568 
L 280.155242 53.568 
L 283.189397 53.568 
L 286.223551 53.568 
L 289.257706 53.568 
L 292.291861 53.568 
L 295.326015 53.568 
L 298.36017 53.568 
L 301.394325 53.568 
L 304.428479 53.568 
L 307.462634 53.568 
L 310.496788 53.568 
L 313.530943 53.568 
L 316.565098 53.568 
L 319.599252 53.568 
L 322.633407 53.568 
L 325.667562 53.568 
L 328.701716 53.568 
L 331.735871 53.568 
L 334.770025 53.568 
L 337.80418 53.568 
L 340.838335 53.568 
L 343.872489 53.568 
L 346.906644 53.568 
L 349.940799 53.568 
L 352.974953 53.568 
L 356.009108 53.568 
L 359.043263 53.568 
L 362.077417 53.568 
L 365.111572 53.568 
L 368.145726 53.568 
L 371.179881 53.568 
L 374.214036 53.568 
L 377.24819 53.568 
L 380.282345 53.568 
L 383.3165 53.568 
L 386.350654 53.568 
L 389.384809 53.568 
L 392.418963 53.568 
L 395.453118 53.568 
L 398.487273 53.568 
" style="fill:none;stroke:#2f4f4f;stroke-linecap:square;stroke-width:1.5;"/>
   </g>
   <g id="line2d_14">
    <path clip-path="url(#p6ca91e9c06)" d="M 213.40384 63.648 
L 216.437995 63.648 
L 219.47215 63.648 
L 222.506304 63.648 
L 225.540459 63.648 
L 228.574613 63.648 
L 231.608768 63.648 
L 234.642923 63.648 
L 237.677077 63.648 
L 240.711232 63.648 
L 243.745387 63.648 
L 246.779541 63.648 
L 249.813696 63.648 
L 252.84785 63.648 
L 255.882005 63.648 
L 258.91616 63.648 
L 261.950314 63.648 
L 264.984469 63.648 
L 268.018624 63.648 
L 271.052778 63.648 
L 274.086933 63.648 
L 277.121088 63.648 
L 280.155242 63.648 
L 283.189397 63.648 
L 286.223551 63.648 
L 289.257706 63.648 
L 292.291861 63.648 
L 295.326015 63.648 
L 298.36017 63.648 
L 301.394325 63.648 
L 304.428479 63.648 
L 307.462634 63.648 
L 310.496788 63.648 
L 313.530943 63.648 
L 316.565098 63.648 
L 319.599252 63.648 
L 322.633407 63.648 
L 325.667562 63.648 
L 328.701716 63.648 
L 331.735871 63.648 
L 334.770025 63.648 
L 337.80418 63.648 
L 340.838335 63.648 
L 343.872489 63.648 
L 346.906644 63.648 
L 349.940799 63.648 
L 352.974953 63.648 
L 356.009108 63.648 
L 359.043263 63.648 
L 362.077417 63.648 
L 365.111572 63.648 
L 368.145726 63.648 
L 371.179881 63.648 
L 374.214036 63.648 
L 377.24819 63.648 
L 380.282345 63.648 
L 383.3165 63.648 
L 386.350654 63.648 
L 389.384809 63.648 
L 392.418963 63.648 
" style="fill:none;stroke:#708090;stroke-linecap:square;stroke-width:1.5;"/>
   </g>
   <g id="line2d_15">
    <path clip-path="url(#p6ca91e9c06)" d="M 207.335531 73.728 
L 210.369686 73.728 
L 213.40384 73.728 
L 216.437995 73.728 
L 219.47215 73.728 
L 222.506304 73.728 
L 225.540459 73.728 
L 228.574613 73.728 
L 231.608768 73.728 
L 234.642923 73.728 
L 237.677077 73.728 
L 240.711232 73.728 
L 243.745387 73.728 
L 246.779541 73.728 
L 249.813696 73.728 
L 252.84785 73.728 
L 255.882005 73.728 
L 258.91616 73.728 
L 261.950314 73.728 
L 264.984469 73.728 
L 268.018624 73.728 
L 271.052778 73.728 
L 274.086933 73.728 
L 277.121088 73.728 
L 280.155242 73.728 
L 283.189397 73.728 
L 286.223551 73.728 
L 289.257706 73.728 
L 292.291861 73.728 
L 295.326015 73.728 
L 298.36017 73.728 
L 301.394325 73.728 
L 304.428479 73.728 
L 307.462634 73.728 
L 310.496788 73.728 
L 313.530943 73.728 
L 316.565098 73.728 
L 319.599252 73.728 
L 322.633407 73.728 
L 325.667562 73.728 
L 328.701716 73.728 
L 331.735871 73.728 
L 334.770025 73.728 
L 337.80418 73.728 
L 340.838335 73.728 
L 343.872489 73.728 
L 346.906644 73.728 
L 349.940799 73.728 
L 352.974953 73.728 
L 356.009108 73.728 
L 359.043263 73.728 
L 362.077417 73.728 
L 365.111572 73.728 
L 368.145726 73.728 
L 371.179881 73.728 
L 374.214036 73.728 
L 377.24819 73.728 
L 380.282345 73.728 
L 383.3165 73.728 
L 386.350654 73.728 
" style="fill:none;stroke:#008080;stroke-linecap:square;stroke-width:1.5;"/>
   </g>
   <g id="line2d_16">
    <path clip-path="url(#p6ca91e9c06)" d="M 201.267222 83.808 
L 204.301376 83.808 
L 207.335531 83.808 
L 210.369686 83.808 
L 213.40384 83.808 
L 216.437995 83.808 
L 219.47215 83.808 
L 222.506304 83.808 
L 225.540459 83.808 
L 228.574613 83.808 
L 231.608768 83.808 
L 234.642923 83.808 
L 237.677077 83.808 
L 240.711232 83.808 
L 243.745387 83.808 
L 246.779541 83.808 
L 249.813696 83.808 
L 252.84785 83.808 
L 255.882005 83.808 
L 258.91616 83.808 
L 261.950314 83.808 
L 264.984469 83.808 
L 268.018624 83.808 
L 271.052778 83.808 
L 274.086933 83.808 
L 277.121088 83.808 
L 280.155242 83.808 
L 283.189397 83.808 
L 286.223551 83.808 
L 289.257706 83.808 
L 292.291861 83.808 
L 295.326015 83.808 
L 298.36017 83.808 
L 301.394325 83.808 
L 304.428479 83.808 
L 307.462634 83.808 
L 310.496788 83.808 
L 313.530943 83.808 
L 316.565098 83.808 
L 319.599252 83.808 
L 322.633407 83.808 
L 325.667562 83.808 
L 328.701716 83.808 
L 331.735871 83.808 
L 334.770025 83.808 
L 337.80418 83.808 
L 340.838335 83.808 
L 343.872489 83.808 
L 346.906644 83.808 
L 349.940799 83.808 
L 352.974953 83.808 
L 356.009108 83.808 
L 359.043263 83.808 
L 362.077417 83.808 
L 365.111572 83.808 
L 368.145726 83.808 
L 371.179881 83.808 
L 374.214036 83.808 
L 377.24819 83.808 
L 380.282345 83.808 
" style="fill:none;stroke:#808000;stroke-linecap:square;stroke-width:1.5;"/>
   </g>
   <g id="line2d_17">
    <path clip-path="url(#p6ca91e9c06)" d="M 195.198912 93.888 
L 198.233067 93.888 
L 201.267222 93.888 
L 204.301376 93.888 
L 207.335531 93.888 
L 210.369686 93.888 
L 213.40384 93.888 
L 216.437995 93.888 
L 219.47215 93.888 
L 222.506304 93.888 
L 225.540459 93.888 
L 228.574613 93.888 
L 231.608768 93.888 
L 234.642923 93.888 
L 237.677077 93.888 
L 240.711232 93.888 
L 243.745387 93.888 
L 246.779541 93.888 
L 249.813696 93.888 
L 252.84785 93.888 
L 255.882005 93.888 
L 258.91616 93.888 
L 261.950314 93.888 
L 264.984469 93.888 
L 268.018624 93.888 
L 271.052778 93.888 
L 274.086933 93.888 
L 277.121088 93.888 
L 280.155242 93.888 
L 283.189397 93.888 
L 286.223551 93.888 
L 289.257706 93.888 
L 292.291861 93.888 
L 295.326015 93.888 
L 298.36017 93.888 
L 301.394325 93.888 
L 304.428479 93.888 
L 307.462634 93.888 
L 310.496788 93.888 
L 313.530943 93.888 
L 316.565098 93.888 
L 319.599252 93.888 
L 322.633407 93.888 
L 325.667562 93.888 
L 328.701716 93.888 
L 331.735871 93.888 
L 334.770025 93.888 
L 337.80418 93.888 
L 340.838335 93.888 
L 343.872489 93.888 
L 346.906644 93.888 
L 349.940799 93.888 
L 352.974953 93.888 
L 356.009108 93.888 
L 359.043263 93.888 
L 362.077417 93.888 
L 365.111572 93.888 
L 368.145726 93.888 
L 371.179881 93.888 
L 374.214036 93.888 
" style="fill:none;stroke:#2f4f4f;stroke-linecap:square;stroke-width:1.5;"/>
   </g>
   <g id="line2d_18">
    <path clip-path="url(#p6ca91e9c06)" d="M 189.130603 103.968 
L 192.164758 103.968 
L 195.198912 103.968 
L 198.233067 103.968 
L 201.267222 103.968 
L 204.301376 103.968 
L 207.335531 103.968 
L 210.369686 103.968 
L 213.40384 103.968 
L 216.437995 103.968 
L 219.47215 103.968 
L 222.506304 103.968 
L 225.540459 103.968 
L 228.574613 103.968 
L 231.608768 103.968 
L 234.642923 103.968 
L 237.677077 103.968 
L 240.711232 103.968 
L 243.745387 103.968 
L 246.779541 103.968 
L 249.813696 103.968 
L 252.84785 103.968 
L 255.882005 103.968 
L 258.91616 103.968 
L 261.950314 103.968 
L 264.984469 103.968 
L 268.018624 103.968 
L 271.052778 103.968 
L 274.086933 103.968 
L 277.121088 103.968 
L 280.155242 103.968 
L 283.189397 103.968 
L 286.223551 103.968 
L 289.257706 103.968 
L 292.291861 103.968 
L 295.326015 103.968 
L 298.36017 103.968 
L 301.394325 103.968 
L 304.428479 103.968 
L 307.462634 103.968 
L 310.496788 103.968 
L 313.530943 103.968 
L 316.565098 103.968 
L 319.599252 103.968 
L 322.633407 103.968 
L 325.667562 103.968 
L 328.701716 103.968 
L 331.735871 103.968 
L 334.770025 103.968 
L 337.80418 103.968 
L 340.838335 103.968 
L 343.872489 103.968 
L 346.906644 103.968 
L 349.940799 103.968 
L 352.974953 103.968 
L 356.009108 103.968 
L 359.043263 103.968 
L 362.077417 103.968 
L 365.111572 103.968 
L 368.145726 103.968 
" style="fill:none;stroke:#708090;stroke-linecap:square;stroke-width:1.5;"/>
   </g>
   <g id="line2d_19">
    <path clip-path="url(#p6ca91e9c06)" d="M 183.062294 114.048 
L 186.096449 114.048 
L 189.130603 114.048 
L 192.164758 114.048 
L 195.198912 114.048 
L 198.233067 114.048 
L 201.267222 114.048 
L 204.301376 114.048 
L 207.335531 114.048 
L 210.369686 114.048 
L 213.40384 114.048 
L 216.437995 114.048 
L 219.47215 114.048 
L 222.506304 114.048 
L 225.540459 114.048 
L 228.574613 114.048 
L 231.608768 114.048 
L 234.642923 114.048 
L 237.677077 114.048 
L 240.711232 114.048 
L 243.745387 114.048 
L 246.779541 114.048 
L 249.813696 114.048 
L 252.84785 114.048 
L 255.882005 114.048 
L 258.91616 114.048 
L 261.950314 114.048 
L 264.984469 114.048 
L 268.018624 114.048 
L 271.052778 114.048 
L 274.086933 114.048 
L 277.121088 114.048 
L 280.155242 114.048 
L 283.189397 114.048 
L 286.223551 114.048 
L 289.257706 114.048 
L 292.291861 114.048 
L 295.326015 114.048 
L 298.36017 114.048 
L 301.394325 114.048 
L 304.428479 114.048 
L 307.462634 114.048 
L 310.496788 114.048 
L 313.530943 114.048 
L 316.565098 114.048 
L 319.599252 114.048 
L 322.633407 114.048 
L 325.667562 114.048 
L 328.701716 114.048 
L 331.735871 114.048 
L 334.770025 114.048 
L 337.80418 114.048 
L 340.838335 114.048 
L 343.872489 114.048 
L 346.906644 114.048 
L 349.940799 114.048 
L 352.974953 114.048 
L 356.009108 114.048 
L 359.043263 114.048 
L 362.077417 114.048 
" style="fill:none;stroke:#008080;stroke-linecap:square;stroke-width:1.5;"/>
   </g>
   <g id="line2d_20">
    <path clip-path="url(#p6ca91e9c06)" d="M 176.993985 124.128 
L 180.028139 124.128 
L 183.062294 124.128 
L 186.096449 124.128 
L 189.130603 124.128 
L 192.164758 124.128 
L 195.198912 124.128 
L 198.233067 124.128 
L 201.267222 124.128 
L 204.301376 124.128 
L 207.335531 124.128 
L 210.369686 124.128 
L 213.40384 124.128 
L 216.437995 124.128 
L 219.47215 124.128 
L 222.506304 124.128 
L 225.540459 124.128 
L 228.574613 124.128 
L 231.608768 124.128 
L 234.642923 124.128 
L 237.677077 124.128 
L 240.711232 124.128 
L 243.745387 124.128 
L 246.779541 124.128 
L 249.813696 124.128 
L 252.84785 124.128 
L 255.882005 124.128 
L 258.91616 124.128 
L 261.950314 124.128 
L 264.984469 124.128 
L 268.018624 124.128 
L 271.052778 124.128 
L 274.086933 124.128 
L 277.121088 124.128 
L 280.155242 124.128 
L 283.189397 124.128 
L 286.223551 124.128 
L 289.257706 124.128 
L 292.291861 124.128 
L 295.326015 124.128 
L 298.36017 124.128 
L 301.394325 124.128 
L 304.428479 124.128 
L 307.462634 124.128 
L 310.496788 124.128 
L 313.530943 124.128 
L 316.565098 124.128 
L 319.599252 124.128 
L 322.633407 124.128 
L 325.667562 124.128 
L 328.701716 124.128 
L 331.735871 124.128 
L 334.770025 124.128 
L 337.80418 124.128 
L 340.838335 124.128 
L 343.872489 124.128 
L 346.906644 124.128 
L 349.940799 124.128 
L 352.974953 124.128 
L 356.009108 124.128 
" style="fill:none;stroke:#808000;stroke-linecap:square;stroke-width:1.5;"/>
   </g>
   <g id="line2d_21">
    <path clip-path="url(#p6ca91e9c06)" d="M 170.925675 134.208 
L 173.95983 134.208 
L 176.993985 134.208 
L 180.028139 134.208 
L 183.062294 134.208 
L 186.096449 134.208 
L 189.130603 134.208 
L 192.164758 134.208 
L 195.198912 134.208 
L 198.233067 134.208 
L 201.267222 134.208 
L 204.301376 134.208 
L 207.335531 134.208 
L 210.369686 134.208 
L 213.40384 134.208 
L 216.437995 134.208 
L 219.47215 134.208 
L 222.506304 134.208 
L 225.540459 134.208 
L 228.574613 134.208 
L 231.608768 134.208 
L 234.642923 134.208 
L 237.677077 134.208 
L 240.711232 134.208 
L 243.745387 134.208 
L 246.779541 134.208 
L 249.813696 134.208 
L 252.84785 134.208 
L 255.882005 134.208 
L 258.91616 134.208 
L 261.950314 134.208 
L 264.984469 134.208 
L 268.018624 134.208 
L 271.052778 134.208 
L 274.086933 134.208 
L 277.121088 134.208 
L 280.155242 134.208 
L 283.189397 134.208 
L 286.223551 134.208 
L 289.257706 134.208 
L 292.291861 134.208 
L 295.326015 134.208 
L 298.36017 134.208 
L 301.394325 134.208 
L 304.428479 134.208 
L 307.462634 134.208 
L 310.496788 134.208 
L 313.530943 134.208 
L 316.565098 134.208 
L 319.599252 134.208 
L 322.633407 134.208 
L 325.667562 134.208 
L 328.701716 134.208 
L 331.735871 134.208 
L 334.770025 134.208 
L 337.80418 134.208 
L 340.838335 134.208 
L 343.872489 134.208 
L 346.906644 134.208 
L 349.940799 134.208 
" style="fill:none;stroke:#2f4f4f;stroke-linecap:square;stroke-width:1.5;"/>
   </g>
   <g id="line2d_22">
    <path clip-path="url(#p6ca91e9c06)" d="M 164.857366 144.288 
L 167.891521 144.288 
L 170.925675 144.288 
L 173.95983 144.288 
L 176.993985 144.288 
L 180.028139 144.288 
L 183.062294 144.288 
L 186.096449 144.288 
L 189.130603 144.288 
L 192.164758 144.288 
L 195.198912 144.288 
L 198.233067 144.288 
L 201.267222 144.288 
L 204.301376 144.288 
L 207.335531 144.288 
L 210.369686 144.288 
L 213.40384 144.288 
L 216.437995 144.288 
L 219.47215 144.288 
L 222.506304 144.288 
L 225.540459 144.288 
L 228.574613 144.288 
L 231.608768 144.288 
L 234.642923 144.288 
L 237.677077 144.288 
L 240.711232 144.288 
L 243.745387 144.288 
L 246.779541 144.288 
L 249.813696 144.288 
L 252.84785 144.288 
L 255.882005 144.288 
L 258.91616 144.288 
L 261.950314 144.288 
L 264.984469 144.288 
L 268.018624 144.288 
L 271.052778 144.288 
L 274.086933 144.288 
L 277.121088 144.288 
L 280.155242 144.288 
L 283.189397 144.288 
L 286.223551 144.288 
L 289.257706 144.288 
L 292.291861 144.288 
L 295.326015 144.288 
L 298.36017 144.288 
L 301.394325 144.288 
L 304.428479 144.288 
L 307.462634 144.288 
L 310.496788 144.288 
L 313.530943 144.288 
L 316.565098 144.288 
L 319.599252 144.288 
L 322.633407 144.288 
L 325.667562 144.288 
L 328.701716 144.288 
L 331.735871 144.288 
L 334.770025 144.288 
L 337.80418 144.288 
L 340.838335 144.288 
L 343.872489 144.288 
" style="fill:none;stroke:#708090;stroke-linecap:square;stroke-width:1.5;"/>
   </g>
   <g id="line2d_23">
    <path clip-path="url(#p6ca91e9c06)" d="M 158.789057 154.368 
L 161.823212 154.368 
L 164.857366 154.368 
L 167.891521 154.368 
L 170.925675 154.368 
L 173.95983 154.368 
L 176.993985 154.368 
L 180.028139 154.368 
L 183.062294 154.368 
L 186.096449 154.368 
L 189.130603 154.368 
L 192.164758 154.368 
L 195.198912 154.368 
L 198.233067 154.368 
L 201.267222 154.368 
L 204.301376 154.368 
L 207.335531 154.368 
L 210.369686 154.368 
L 213.40384 154.368 
L 216.437995 154.368 
L 219.47215 154.368 
L 222.506304 154.368 
L 225.540459 154.368 
L 228.574613 154.368 
L 231.608768 154.368 
L 234.642923 154.368 
L 237.677077 154.368 
L 240.711232 154.368 
L 243.745387 154.368 
L 246.779541 154.368 
L 249.813696 154.368 
L 252.84785 154.368 
L 255.882005 154.368 
L 258.91616 154.368 
L 261.950314 154.368 
L 264.984469 154.368 
L 268.018624 154.368 
L 271.052778 154.368 
L 274.086933 154.368 
L 277.121088 154.368 
L 280.155242 154.368 
L 283.189397 154.368 
L 286.223551 154.368 
L 289.257706 154.368 
L 292.291861 154.368 
L 295.326015 154.368 
L 298.36017 154.368 
L 301.394325 154.368 
L 304.428479 154.368 
L 307.462634 154.368 
L 310.496788 154.368 
L 313.530943 154.368 
L 316.565098 154.368 
L 319.599252 154.368 
L 322.633407 154.368 
L 325.667562 154.368 
L 328.701716 154.368 
L 331.735871 154.368 
L 334.770025 154.368 
L 337.80418 154.368 
" style="fill:none;stroke:#008080;stroke-linecap:square;stroke-width:1.5;"/>
   </g>
   <g id="line2d_24">
    <path clip-path="url(#p6ca91e9c06)" d="M 152.720748 164.448 
L 155.754902 164.448 
L 158.789057 164.448 
L 161.823212 164.448 
L 164.857366 164.448 
L 167.891521 164.448 
L 170.925675 164.448 
L 173.95983 164.448 
L 176.993985 164.448 
L 180.028139 164.448 
L 183.062294 164.448 
L 186.096449 164.448 
L 189.130603 164.448 
L 192.164758 164.448 
L 195.198912 164.448 
L 198.233067 164.448 
L 201.267222 164.448 
L 204.301376 164.448 
L 207.335531 164.448 
L 210.369686 164.448 
L 213.40384 164.448 
L 216.437995 164.448 
L 219.47215 164.448 
L 222.506304 164.448 
L 225.540459 164.448 
L 228.574613 164.448 
L 231.608768 164.448 
L 234.642923 164.448 
L 237.677077 164.448 
L 240.711232 164.448 
L 243.745387 164.448 
L 246.779541 164.448 
L 249.813696 164.448 
L 252.84785 164.448 
L 255.882005 164.448 
L 258.91616 164.448 
L 261.950314 164.448 
L 264.984469 164.448 
L 268.018624 164.448 
L 271.052778 164.448 
L 274.086933 164.448 
L 277.121088 164.448 
L 280.155242 164.448 
L 283.189397 164.448 
L 286.223551 164.448 
L 289.257706 164.448 
L 292.291861 164.448 
L 295.326015 164.448 
L 298.36017 164.448 
L 301.394325 164.448 
L 304.428479 164.448 
L 307.462634 164.448 
L 310.496788 164.448 
L 313.530943 164.448 
L 316.565098 164.448 
L 319.599252 164.448 
L 322.633407 164.448 
L 325.667562 164.448 
L 328.701716 164.448 
L 331.735871 164.448 
" style="fill:none;stroke:#808000;stroke-linecap:square;stroke-width:1.5;"/>
   </g>
   <g id="line2d_25">
    <path clip-path="url(#p6ca91e9c06)" d="M 146.652438 174.528 
L 149.686593 174.528 
L 152.720748 174.528 
L 155.754902 174.528 
L 158.789057 174.528 
L 161.823212 174.528 
L 164.857366 174.528 
L 167.891521 174.528 
L 170.925675 174.528 
L 173.95983 174.528 
L 176.993985 174.528 
L 180.028139 174.528 
L 183.062294 174.528 
L 186.096449 174.528 
L 189.130603 174.528 
L 192.164758 174.528 
L 195.198912 174.528 
L 198.233067 174.528 
L 201.267222 174.528 
L 204.301376 174.528 
L 207.335531 174.528 
L 210.369686 174.528 
L 213.40384 174.528 
L 216.437995 174.528 
L 219.47215 174.528 
L 222.506304 174.528 
L 225.540459 174.528 
L 228.574613 174.528 
L 231.608768 174.528 
L 234.642923 174.528 
L 237.677077 174.528 
L 240.711232 174.528 
L 243.745387 174.528 
L 246.779541 174.528 
L 249.813696 174.528 
L 252.84785 174.528 
L 255.882005 174.528 
L 258.91616 174.528 
L 261.950314 174.528 
L 264.984469 174.528 
L 268.018624 174.528 
L 271.052778 174.528 
L 274.086933 174.528 
L 277.121088 174.528 
L 280.155242 174.528 
L 283.189397 174.528 
L 286.223551 174.528 
L 289.257706 174.528 
L 292.291861 174.528 
L 295.326015 174.528 
L 298.36017 174.528 
L 301.394325 174.528 
L 304.428479 174.528 
L 307.462634 174.528 
L 310.496788 174.528 
L 313.530943 174.528 
L 316.565098 174.528 
L 319.599252 174.528 
L 322.633407 174.528 
L 325.667562 174.528 
" style="fill:none;stroke:#2f4f4f;stroke-linecap:square;stroke-width:1.5;"/>
   </g>
   <g id="line2d_26">
    <path clip-path="url(#p6ca91e9c06)" d="M 140.584129 184.608 
L 143.618284 184.608 
L 146.652438 184.608 
L 149.686593 184.608 
L 152.720748 184.608 
L 155.754902 184.608 
L 158.789057 184.608 
L 161.823212 184.608 
L 164.857366 184.608 
L 167.891521 184.608 
L 170.925675 184.608 
L 173.95983 184.608 
L 176.993985 184.608 
L 180.028139 184.608 
L 183.062294 184.608 
L 186.096449 184.608 
L 189.130603 184.608 
L 192.164758 184.608 
L 195.198912 184.608 
L 198.233067 184.608 
L 201.267222 184.608 
L 204.301376 184.608 
L 207.335531 184.608 
L 210.369686 184.608 
L 213.40384 184.608 
L 216.437995 184.608 
L 219.47215 184.608 
L 222.506304 184.608 
L 225.540459 184.608 
L 228.574613 184.608 
L 231.608768 184.608 
L 234.642923 184.608 
L 237.677077 184.608 
L 240.711232 184.608 
L 243.745387 184.608 
L 246.779541 184.608 
L 249.813696 184.608 
L 252.84785 184.608 
L 255.882005 184.608 
L 258.91616 184.608 
L 261.950314 184.608 
L 264.984469 184.608 
L 268.018624 184.608 
L 271.052778 184.608 
L 274.086933 184.608 
L 277.121088 184.608 
L 280.155242 184.608 
L 283.189397 184.608 
L 286.223551 184.608 
L 289.257706 184.608 
L 292.291861 184.608 
L 295.326015 184.608 
L 298.36017 184.608 
L 301.394325 184.608 
L 304.428479 184.608 
L 307.462634 184.608 
L 310.496788 184.608 
L 313.530943 184.608 
L 316.565098 184.608 
L 319.599252 184.608 
" style="fill:none;stroke:#708090;stroke-linecap:square;stroke-width:1.5;"/>
   </g>
   <g id="line2d_27">
    <path clip-path="url(#p6ca91e9c06)" d="M 134.51582 194.688 
L 137.549975 194.688 
L 140.584129 194.688 
L 143.618284 194.688 
L 146.652438 194.688 
L 149.686593 194.688 
L 152.720748 194.688 
L 155.754902 194.688 
L 158.789057 194.688 
L 161.823212 194.688 
L 164.857366 194.688 
L 167.891521 194.688 
L 170.925675 194.688 
L 173.95983 194.688 
L 176.993985 194.688 
L 180.028139 194.688 
L 183.062294 194.688 
L 186.096449 194.688 
L 189.130603 194.688 
L 192.164758 194.688 
L 195.198912 194.688 
L 198.233067 194.688 
L 201.267222 194.688 
L 204.301376 194.688 
L 207.335531 194.688 
L 210.369686 194.688 
L 213.40384 169.488 
L 216.437995 194.688 
L 219.47215 194.688 
L 222.506304 194.688 
L 225.540459 194.688 
L 228.574613 194.688 
L 231.608768 194.688 
L 234.642923 194.688 
L 237.677077 169.488 
L 240.711232 194.688 
L 243.745387 194.688 
L 246.779541 194.688 
L 249.813696 194.688 
L 252.84785 194.688 
L 255.882005 194.688 
L 258.91616 194.688 
L 261.950314 194.688 
L 264.984469 194.688 
L 268.018624 194.688 
L 271.052778 194.688 
L 274.086933 194.688 
L 277.121088 194.688 
L 280.155242 194.688 
L 283.189397 194.688 
L 286.223551 194.688 
L 289.257706 194.688 
L 292.291861 194.688 
L 295.326015 194.688 
L 298.36017 194.688 
L 301.394325 194.688 
L 304.428479 194.688 
L 307.462634 194.688 
L 310.496788 194.688 
L 313.530943 194.688 
" style="fill:none;stroke:#008080;stroke-linecap:square;stroke-width:1.5;"/>
   </g>
   <g id="line2d_28">
    <path clip-path="url(#p6ca91e9c06)" d="M 128.447511 204.768 
L 131.481665 204.768 
L 134.51582 204.768 
L 137.549975 204.768 
L 140.584129 204.768 
L 143.618284 204.768 
L 146.652438 204.768 
L 149.686593 204.768 
L 152.720748 204.768 
L 155.754902 204.768 
L 158.789057 204.768 
L 161.823212 204.768 
L 164.857366 204.768 
L 167.891521 202.368 
L 170.925675 202.368 
L 173.95983 204.768 
L 176.993985 204.768 
L 180.028139 204.768 
L 183.062294 204.768 
L 186.096449 204.768 
L 189.130603 204.768 
L 192.164758 204.768 
L 195.198912 202.368 
L 198.233067 204.768 
L 201.267222 202.368 
L 204.301376 204.768 
L 207.335531 199.968 
L 210.369686 202.368 
L 213.40384 204.768 
L 216.437995 204.768 
L 219.47215 204.768 
L 222.506304 204.768 
L 225.540459 204.768 
L 228.574613 204.768 
L 231.608768 202.368 
L 234.642923 202.368 
L 237.677077 204.768 
L 240.711232 202.368 
L 243.745387 204.768 
L 246.779541 202.368 
L 249.813696 204.768 
L 252.84785 202.368 
L 255.882005 204.768 
L 258.91616 202.368 
L 261.950314 192.768 
L 264.984469 204.768 
L 268.018624 202.368 
L 271.052778 202.368 
L 274.086933 204.768 
L 277.121088 204.768 
L 280.155242 204.768 
L 283.189397 202.368 
L 286.223551 204.768 
L 289.257706 204.768 
L 292.291861 204.768 
L 295.326015 204.768 
L 298.36017 204.768 
L 301.394325 204.768 
L 304.428479 204.768 
L 307.462634 204.768 
" style="fill:none;stroke:#808000;stroke-linecap:square;stroke-width:1.5;"/>
   </g>
   <g id="line2d_29">
    <path clip-path="url(#p6ca91e9c06)" d="M 122.379201 214.848 
L 125.413356 214.848 
L 128.447511 214.848 
L 131.481665 214.848 
L 134.51582 214.848 
L 137.549975 213.955965 
L 140.584129 214.848 
L 143.618284 214.848 
L 146.652438 214.848 
L 149.686593 214.848 
L 152.720748 213.509947 
L 155.754902 213.509947 
L 158.789057 214.401982 
L 161.823212 214.848 
L 164.857366 214.401982 
L 167.891521 214.848 
L 170.925675 213.955965 
L 173.95983 213.063929 
L 176.993985 213.509947 
L 180.028139 213.955965 
L 183.062294 213.955965 
L 186.096449 213.063929 
L 189.130603 214.401982 
L 192.164758 212.617912 
L 195.198912 214.401982 
L 198.233067 213.509947 
L 201.267222 213.955965 
L 204.301376 214.848 
L 207.335531 213.955965 
L 210.369686 213.509947 
L 213.40384 212.617912 
L 216.437995 214.848 
L 219.47215 212.171894 
L 222.506304 212.617912 
L 225.540459 213.509947 
L 228.574613 214.401982 
L 231.608768 214.401982 
L 234.642923 211.725876 
L 237.677077 210.833841 
L 240.711232 211.279858 
L 243.745387 212.617912 
L 246.779541 213.063929 
L 249.813696 213.509947 
L 252.84785 214.401982 
L 255.882005 213.509947 
L 258.91616 213.955965 
L 261.950314 213.509947 
L 264.984469 214.401982 
L 268.018624 214.401982 
L 271.052778 214.848 
L 274.086933 214.401982 
L 277.121088 214.848 
L 280.155242 214.848 
L 283.189397 214.848 
L 286.223551 214.848 
L 289.257706 214.848 
L 292.291861 214.848 
L 295.326015 214.848 
L 298.36017 214.848 
L 301.394325 214.848 
" style="fill:none;stroke:#2f4f4f;stroke-linecap:square;stroke-width:1.5;"/>
   </g>
   <g id="line2d_30">
    <path clip-path="url(#p6ca91e9c06)" d="M 116.310892 224.928 
L 119.345047 224.928 
L 122.379201 224.851636 
L 125.413356 224.775273 
L 128.447511 224.851636 
L 131.481665 224.698909 
L 134.51582 224.698909 
L 137.549975 224.240727 
L 140.584129 224.469818 
L 143.618284 224.317091 
L 146.652438 224.469818 
L 149.686593 224.240727 
L 152.720748 224.546182 
L 155.754902 224.469818 
L 158.789057 224.164364 
L 161.823212 223.553455 
L 164.857366 224.393455 
L 167.891521 223.782545 
L 170.925675 224.317091 
L 173.95983 224.164364 
L 176.993985 224.164364 
L 180.028139 223.782545 
L 183.062294 223.935273 
L 186.096449 223.782545 
L 189.130603 224.164364 
L 192.164758 224.088 
L 195.198912 224.011636 
L 198.233067 223.782545 
L 201.267222 223.782545 
L 204.301376 223.171636 
L 207.335531 223.629818 
L 210.369686 223.171636 
L 213.40384 222.942545 
L 216.437995 223.706182 
L 219.47215 223.248 
L 222.506304 223.706182 
L 225.540459 223.171636 
L 228.574613 223.477091 
L 231.608768 223.477091 
L 234.642923 222.789818 
L 237.677077 223.324364 
L 240.711232 223.858909 
L 243.745387 222.789818 
L 246.779541 222.560727 
L 249.813696 222.789818 
L 252.84785 223.477091 
L 255.882005 223.553455 
L 258.91616 224.088 
L 261.950314 224.164364 
L 264.984469 224.775273 
L 268.018624 224.698909 
L 271.052778 224.928 
L 274.086933 224.928 
L 277.121088 224.928 
L 280.155242 224.928 
L 283.189397 224.928 
L 286.223551 224.928 
L 289.257706 224.928 
L 292.291861 224.928 
L 295.326015 224.928 
" style="fill:none;stroke:#708090;stroke-linecap:square;stroke-width:1.5;"/>
   </g>
   <g id="line2d_31">
    <path clip-path="url(#p6ca91e9c06)" d="M 110.242583 235.008 
L 113.276737 234.996244 
L 116.310892 234.890435 
L 119.345047 234.890435 
L 122.379201 234.772871 
L 125.413356 234.819896 
L 128.447511 234.596523 
L 131.481665 234.655306 
L 134.51582 234.655306 
L 137.549975 234.749358 
L 140.584129 234.455446 
L 143.618284 234.596523 
L 146.652438 234.420176 
L 149.686593 234.431933 
L 152.720748 234.349638 
L 155.754902 234.302612 
L 158.789057 234.232073 
L 161.823212 234.220316 
L 164.857366 234.314368 
L 167.891521 234.185047 
L 170.925675 234.185047 
L 173.95983 233.926404 
L 176.993985 233.97343 
L 180.028139 233.949917 
L 183.062294 233.985187 
L 186.096449 233.949917 
L 189.130603 233.77357 
L 192.164758 233.938161 
L 195.198912 233.738301 
L 198.233067 233.667762 
L 201.267222 233.644249 
L 204.301376 233.57371 
L 207.335531 233.703031 
L 210.369686 233.644249 
L 213.40384 233.420876 
L 216.437995 233.221016 
L 219.47215 233.37385 
L 222.506304 233.291555 
L 225.540459 233.37385 
L 228.574613 233.244529 
L 231.608768 233.17399 
L 234.642923 232.950617 
L 237.677077 233.20926 
L 240.711232 233.397363 
L 243.745387 233.315068 
L 246.779541 233.044669 
L 249.813696 233.714788 
L 252.84785 233.867622 
L 255.882005 234.279099 
L 258.91616 234.502472 
L 261.950314 234.725845 
L 264.984469 234.819896 
L 268.018624 234.960974 
L 271.052778 234.984487 
L 274.086933 234.984487 
L 277.121088 234.996244 
L 280.155242 235.008 
L 283.189397 235.008 
L 286.223551 235.008 
L 289.257706 235.008 
" style="fill:none;stroke:#008080;stroke-linecap:square;stroke-width:1.5;"/>
   </g>
   <g id="line2d_32">
    <path clip-path="url(#p6ca91e9c06)" d="M 104.174274 245.088 
L 107.208428 245.048466 
L 110.242583 244.997637 
L 113.276737 244.943043 
L 116.310892 244.909156 
L 119.345047 244.818793 
L 122.379201 244.79432 
L 125.413356 244.781142 
L 128.447511 244.775494 
L 131.481665 244.664423 
L 134.51582 244.591003 
L 137.549975 244.560882 
L 140.584129 244.496875 
L 143.618284 244.513818 
L 146.652438 244.432868 
L 149.686593 244.372626 
L 152.720748 244.278498 
L 155.754902 244.286028 
L 158.789057 244.270967 
L 161.823212 244.174957 
L 164.857366 244.180604 
L 167.891521 244.135423 
L 170.925675 244.013056 
L 173.95983 244.011173 
L 176.993985 243.954697 
L 180.028139 243.871864 
L 183.062294 243.84739 
L 186.096449 243.815387 
L 189.130603 243.830447 
L 192.164758 243.757027 
L 195.198912 243.691138 
L 198.233067 243.6196 
L 201.267222 243.630896 
L 204.301376 243.615835 
L 207.335531 243.595127 
L 210.369686 243.48029 
L 213.40384 243.467113 
L 216.437995 243.429461 
L 219.47215 243.346628 
L 222.506304 243.324038 
L 225.540459 243.350394 
L 228.574613 243.327803 
L 231.608768 243.256265 
L 234.642923 243.39181 
L 237.677077 243.453935 
L 240.711232 243.608305 
L 243.745387 243.792796 
L 246.779541 243.97917 
L 249.813696 244.33874 
L 252.84785 244.617359 
L 255.882005 244.77926 
L 258.91616 244.952455 
L 261.950314 245.025875 
L 264.984469 245.067292 
L 268.018624 245.084235 
L 271.052778 245.086117 
L 274.086933 245.088 
L 277.121088 245.088 
L 280.155242 245.088 
L 283.189397 245.088 
" style="fill:none;stroke:#808000;stroke-linecap:square;stroke-width:1.5;"/>
   </g>
   <g id="line2d_33">
    <path clip-path="url(#p6ca91e9c06)" d="M 98.105964 255.168 
L 101.140119 255.124839 
L 104.174274 255.05755 
L 107.208428 255.016768 
L 110.242583 254.94676 
L 113.276737 254.913455 
L 116.310892 254.841747 
L 119.345047 254.783633 
L 122.379201 254.708867 
L 125.413356 254.691195 
L 128.447511 254.637499 
L 131.481665 254.552197 
L 134.51582 254.513455 
L 137.549975 254.47879 
L 140.584129 254.418977 
L 143.618284 254.380914 
L 146.652438 254.357805 
L 149.686593 254.30241 
L 152.720748 254.238858 
L 155.754902 254.197057 
L 158.789057 254.147779 
L 161.823212 254.130787 
L 164.857366 254.060778 
L 167.891521 254.01184 
L 170.925675 254.003344 
L 173.95983 253.975816 
L 176.993985 253.903429 
L 180.028139 253.872503 
L 183.062294 253.83478 
L 186.096449 253.843616 
L 189.130603 253.695782 
L 192.164758 253.76783 
L 195.198912 253.646845 
L 198.233067 253.673692 
L 201.267222 253.647184 
L 204.301376 253.639368 
L 207.335531 253.56834 
L 210.369686 253.564602 
L 213.40384 253.578535 
L 216.437995 253.527558 
L 219.47215 253.503769 
L 222.506304 253.544551 
L 225.540459 253.493913 
L 228.574613 253.555086 
L 231.608768 253.617618 
L 234.642923 253.826284 
L 237.677077 253.989071 
L 240.711232 254.231721 
L 243.745387 254.505638 
L 246.779541 254.739113 
L 249.813696 254.933166 
L 252.84785 255.049054 
L 255.882005 255.117363 
L 258.91616 255.149988 
L 261.950314 255.161203 
L 264.984469 255.165281 
L 268.018624 255.168 
L 271.052778 255.168 
L 274.086933 255.168 
L 277.121088 255.168 
" style="fill:none;stroke:#2f4f4f;stroke-linecap:square;stroke-width:1.5;"/>
   </g>
   <g id="line2d_34">
    <path clip-path="url(#p6ca91e9c06)" d="M 92.037655 265.248 
L 95.07181 265.161507 
L 98.105964 265.032093 
L 101.140119 264.928105 
L 104.174274 264.798908 
L 107.208428 264.723824 
L 110.242583 264.585391 
L 113.276737 264.512046 
L 116.310892 264.410666 
L 119.345047 264.326346 
L 122.379201 264.236266 
L 125.413356 264.167267 
L 128.447511 264.091966 
L 131.481665 264.013405 
L 134.51582 263.967007 
L 137.549975 263.909634 
L 140.584129 263.84998 
L 143.618284 263.829769 
L 146.652438 263.786849 
L 149.686593 263.76001 
L 152.720748 263.74534 
L 155.754902 263.739038 
L 158.789057 263.730128 
L 161.823212 263.716654 
L 164.857366 263.744797 
L 167.891521 263.701985 
L 170.925675 263.744145 
L 173.95983 263.765986 
L 176.993985 263.799344 
L 180.028139 263.79967 
L 183.062294 263.829335 
L 186.096449 263.905288 
L 189.130603 263.934192 
L 192.164758 263.984501 
L 195.198912 264.032638 
L 198.233067 264.062954 
L 201.267222 264.128693 
L 204.301376 264.172374 
L 207.335531 264.230833 
L 210.369686 264.276362 
L 213.40384 264.331996 
L 216.437995 264.379589 
L 219.47215 264.457824 
L 222.506304 264.525519 
L 225.540459 264.601038 
L 228.574613 264.681555 
L 231.608768 264.788803 
L 234.642923 264.902896 
L 237.677077 265.005253 
L 240.711232 265.095115 
L 243.745387 265.162267 
L 246.779541 265.204536 
L 249.813696 265.231158 
L 252.84785 265.243654 
L 255.882005 265.246153 
L 258.91616 265.247348 
L 261.950314 265.248 
L 264.984469 265.248 
L 268.018624 265.248 
L 271.052778 265.248 
" style="fill:none;stroke:#708090;stroke-linecap:square;stroke-width:1.5;"/>
   </g>
   <g id="line2d_35">
    <path clip-path="url(#p6ca91e9c06)" d="M 85.969346 275.328 
L 89.0035 274.815936 
L 92.037655 274.066589 
L 95.07181 273.538195 
L 98.105964 272.835216 
L 101.140119 272.606702 
L 104.174274 272.017627 
L 107.208428 271.854835 
L 110.242583 271.699603 
L 113.276737 271.653538 
L 116.310892 271.619165 
L 119.345047 271.765224 
L 122.379201 272.005834 
L 125.413356 272.276482 
L 128.447511 272.605795 
L 131.481665 272.849832 
L 134.51582 273.206664 
L 137.549975 273.530736 
L 140.584129 273.897346 
L 143.618284 274.242888 
L 146.652438 274.517165 
L 149.686593 274.754045 
L 152.720748 274.951915 
L 155.754902 275.089709 
L 158.789057 275.194339 
L 161.823212 275.260565 
L 164.857366 275.296147 
L 167.891521 275.311267 
L 170.925675 275.322355 
L 173.95983 275.326589 
L 176.993985 275.327798 
L 180.028139 275.327899 
L 183.062294 275.328 
L 186.096449 275.328 
L 189.130603 275.328 
L 192.164758 275.328 
L 195.198912 275.328 
L 198.233067 275.328 
L 201.267222 275.328 
L 204.301376 275.328 
L 207.335531 275.328 
L 210.369686 275.328 
L 213.40384 275.328 
L 216.437995 275.328 
L 219.47215 275.328 
L 222.506304 275.328 
L 225.540459 275.328 
L 228.574613 275.328 
L 231.608768 275.328 
L 234.642923 275.328 
L 237.677077 275.328 
L 240.711232 275.328 
L 243.745387 275.328 
L 246.779541 275.328 
L 249.813696 275.328 
L 252.84785 275.328 
L 255.882005 275.328 
L 258.91616 275.328 
L 261.950314 275.328 
L 264.984469 275.328 
" style="fill:none;stroke:#008080;stroke-linecap:square;stroke-width:1.5;"/>
   </g>
   <g id="line2d_36">
    <path clip-path="url(#p6ca91e9c06)" d="M 79.901037 285.408 
L 82.935191 282.197822 
L 85.969346 277.855661 
L 89.0035 276.306062 
L 92.037655 274.898995 
L 95.07181 277.480382 
L 98.105964 278.507736 
L 101.140119 281.62175 
L 104.174274 283.99559 
L 107.208428 285.408 
L 110.242583 285.408 
L 113.276737 285.408 
L 116.310892 285.408 
L 119.345047 285.408 
L 122.379201 285.408 
L 125.413356 285.408 
L 128.447511 285.408 
L 131.481665 285.408 
L 134.51582 285.408 
L 137.549975 285.408 
L 140.584129 285.408 
L 143.618284 285.408 
L 146.652438 285.408 
L 149.686593 285.408 
L 152.720748 285.408 
L 155.754902 285.408 
L 158.789057 285.408 
L 161.823212 285.408 
L 164.857366 285.408 
L 167.891521 285.408 
L 170.925675 285.408 
L 173.95983 285.408 
L 176.993985 285.408 
L 180.028139 285.408 
L 183.062294 285.408 
L 186.096449 285.408 
L 189.130603 285.408 
L 192.164758 285.408 
L 195.198912 285.408 
L 198.233067 285.408 
L 201.267222 285.408 
L 204.301376 285.408 
L 207.335531 285.408 
L 210.369686 285.408 
L 213.40384 285.408 
L 216.437995 285.408 
L 219.47215 285.408 
L 222.506304 285.408 
L 225.540459 285.408 
L 228.574613 285.408 
L 231.608768 285.408 
L 234.642923 285.408 
L 237.677077 285.408 
L 240.711232 285.408 
L 243.745387 285.408 
L 246.779541 285.408 
L 249.813696 285.408 
L 252.84785 285.408 
L 255.882005 285.408 
L 258.91616 285.408 
" style="fill:none;stroke:#808000;stroke-linecap:square;stroke-width:1.5;"/>
   </g>
   <g id="line2d_37">
    <path clip-path="url(#p6ca91e9c06)" d="M 73.832727 295.488 
L 76.866882 275.303808 
L 79.901037 265.272192 
L 82.935191 295.488 
L 85.969346 295.488 
L 89.0035 295.488 
L 92.037655 295.488 
L 95.07181 295.488 
L 98.105964 295.488 
L 101.140119 295.488 
L 104.174274 295.488 
L 107.208428 295.488 
L 110.242583 295.488 
L 113.276737 295.488 
L 116.310892 295.488 
L 119.345047 295.488 
L 122.379201 295.488 
L 125.413356 295.488 
L 128.447511 295.488 
L 131.481665 295.488 
L 134.51582 295.488 
L 137.549975 295.488 
L 140.584129 295.488 
L 143.618284 295.488 
L 146.652438 295.488 
L 149.686593 295.488 
L 152.720748 295.488 
L 155.754902 295.488 
L 158.789057 295.488 
L 161.823212 295.488 
L 164.857366 295.488 
L 167.891521 295.488 
L 170.925675 295.488 
L 173.95983 295.488 
L 176.993985 295.488 
L 180.028139 295.488 
L 183.062294 295.488 
L 186.096449 295.488 
L 189.130603 295.488 
L 192.164758 295.488 
L 195.198912 295.488 
L 198.233067 295.488 
L 201.267222 295.488 
L 204.301376 295.488 
L 207.335531 295.488 
L 210.369686 295.488 
L 213.40384 295.488 
L 216.437995 295.488 
L 219.47215 295.488 
L 222.506304 295.488 
L 225.540459 295.488 
L 228.574613 295.488 
L 231.608768 295.488 
L 234.642923 295.488 
L 237.677077 295.488 
L 240.711232 295.488 
L 243.745387 295.488 
L 246.779541 295.488 
L 249.813696 295.488 
L 252.84785 295.488 
" style="fill:none;stroke:#2f4f4f;stroke-linecap:square;stroke-width:1.5;"/>
   </g>
   <g id="patch_3">
    <path d="M 57.6 307.584 
L 57.6 41.472 
" style="fill:none;stroke:#000000;stroke-linecap:square;stroke-linejoin:miter;stroke-width:0.8;"/>
   </g>
   <g id="patch_4">
    <path d="M 414.72 307.584 
L 414.72 41.472 
" style="fill:none;stroke:#000000;stroke-linecap:square;stroke-linejoin:miter;stroke-width:0.8;"/>
   </g>
   <g id="patch_5">
    <path d="M 57.6 307.584 
L 414.72 307.584 
" style="fill:none;stroke:#000000;stroke-linecap:square;stroke-linejoin:miter;stroke-width:0.8;"/>
   </g>
   <g id="patch_6">
    <path d="M 57.6 41.472 
L 414.72 41.472 
" style="fill:none;stroke:#000000;stroke-linecap:square;stroke-linejoin:miter;stroke-width:0.8;"/>
   </g>
  </g>
 </g>
 <defs>
  <clipPath id="p6ca91e9c06">
   <rect height="266.112" width="357.12" x="57.6" y="41.472"/>
  </clipPath>
 </defs>
</svg>
