<?xml version="1.0" encoding="utf-8" standalone="no"?>
<!DOCTYPE svg PUBLIC "-//W3C//DTD SVG 1.1//EN"
  "http://www.w3.org/Graphics/SVG/1.1/DTD/svg11.dtd">
<!-- Created with matplotlib (https://matplotlib.org/) -->
<svg height="345.6pt" version="1.1" viewBox="0 0 460.8 345.6" width="460.8pt" xmlns="http://www.w3.org/2000/svg" xmlns:xlink="http://www.w3.org/1999/xlink">
 <metadata>
  <rdf:RDF xmlns:cc="http://creativecommons.org/ns#" xmlns:dc="http://purl.org/dc/elements/1.1/" xmlns:rdf="http://www.w3.org/1999/02/22-rdf-syntax-ns#">
   <cc:Work>
    <dc:type rdf:resource="http://purl.org/dc/dcmitype/StillImage"/>
    <dc:date>2021-06-07T14:21:28.101177</dc:date>
    <dc:format>image/svg+xml</dc:format>
    <dc:creator>
     <cc:Agent>
      <dc:title>Matplotlib v3.3.4, https://matplotlib.org/</dc:title>
     </cc:Agent>
    </dc:creator>
   </cc:Work>
  </rdf:RDF>
 </metadata>
 <defs>
  <style type="text/css">*{stroke-linecap:butt;stroke-linejoin:round;}</style>
 </defs>
 <g id="figure_1">
  <g id="patch_1">
   <path d="M 0 345.6 
L 460.8 345.6 
L 460.8 0 
L 0 0 
z
" style="fill:#ffffff;"/>
  </g>
  <g id="axes_1">
   <g id="patch_2">
    <path d="M 57.6 307.584 
L 414.72 307.584 
L 414.72 41.472 
L 57.6 41.472 
z
" style="fill:#ffffff;"/>
   </g>
   <g id="matplotlib.axis_1">
    <g id="xtick_1">
     <g id="line2d_1">
      <defs>
       <path d="M 0 0 
L 0 3.5 
" id="me878f0c53a" style="stroke:#000000;stroke-width:0.8;"/>
      </defs>
      <g>
       <use style="stroke:#000000;stroke-width:0.8;" x="71.057902" xlink:href="#me878f0c53a" y="307.584"/>
      </g>
     </g>
     <g id="text_1">
      <!-- 0 -->
      <g transform="translate(67.876652 322.182437)scale(0.1 -0.1)">
       <defs>
        <path d="M 31.78125 66.40625 
Q 24.171875 66.40625 20.328125 58.90625 
Q 16.5 51.421875 16.5 36.375 
Q 16.5 21.390625 20.328125 13.890625 
Q 24.171875 6.390625 31.78125 6.390625 
Q 39.453125 6.390625 43.28125 13.890625 
Q 47.125 21.390625 47.125 36.375 
Q 47.125 51.421875 43.28125 58.90625 
Q 39.453125 66.40625 31.78125 66.40625 
z
M 31.78125 74.21875 
Q 44.046875 74.21875 50.515625 64.515625 
Q 56.984375 54.828125 56.984375 36.375 
Q 56.984375 17.96875 50.515625 8.265625 
Q 44.046875 -1.421875 31.78125 -1.421875 
Q 19.53125 -1.421875 13.0625 8.265625 
Q 6.59375 17.96875 6.59375 36.375 
Q 6.59375 54.828125 13.0625 64.515625 
Q 19.53125 74.21875 31.78125 74.21875 
z
" id="DejaVuSans-48"/>
       </defs>
       <use xlink:href="#DejaVuSans-48"/>
      </g>
     </g>
    </g>
    <g id="xtick_2">
     <g id="line2d_2">
      <g>
       <use style="stroke:#000000;stroke-width:0.8;" x="126.554406" xlink:href="#me878f0c53a" y="307.584"/>
      </g>
     </g>
     <g id="text_2">
      <!-- 20 -->
      <g transform="translate(120.191906 322.182437)scale(0.1 -0.1)">
       <defs>
        <path d="M 19.1875 8.296875 
L 53.609375 8.296875 
L 53.609375 0 
L 7.328125 0 
L 7.328125 8.296875 
Q 12.9375 14.109375 22.625 23.890625 
Q 32.328125 33.6875 34.8125 36.53125 
Q 39.546875 41.84375 41.421875 45.53125 
Q 43.3125 49.21875 43.3125 52.78125 
Q 43.3125 58.59375 39.234375 62.25 
Q 35.15625 65.921875 28.609375 65.921875 
Q 23.96875 65.921875 18.8125 64.3125 
Q 13.671875 62.703125 7.8125 59.421875 
L 7.8125 69.390625 
Q 13.765625 71.78125 18.9375 73 
Q 24.125 74.21875 28.421875 74.21875 
Q 39.75 74.21875 46.484375 68.546875 
Q 53.21875 62.890625 53.21875 53.421875 
Q 53.21875 48.921875 51.53125 44.890625 
Q 49.859375 40.875 45.40625 35.40625 
Q 44.1875 33.984375 37.640625 27.21875 
Q 31.109375 20.453125 19.1875 8.296875 
z
" id="DejaVuSans-50"/>
       </defs>
       <use xlink:href="#DejaVuSans-50"/>
       <use x="63.623047" xlink:href="#DejaVuSans-48"/>
      </g>
     </g>
    </g>
    <g id="xtick_3">
     <g id="line2d_3">
      <g>
       <use style="stroke:#000000;stroke-width:0.8;" x="182.050909" xlink:href="#me878f0c53a" y="307.584"/>
      </g>
     </g>
     <g id="text_3">
      <!-- 40 -->
      <g transform="translate(175.688409 322.182437)scale(0.1 -0.1)">
       <defs>
        <path d="M 37.796875 64.3125 
L 12.890625 25.390625 
L 37.796875 25.390625 
z
M 35.203125 72.90625 
L 47.609375 72.90625 
L 47.609375 25.390625 
L 58.015625 25.390625 
L 58.015625 17.1875 
L 47.609375 17.1875 
L 47.609375 0 
L 37.796875 0 
L 37.796875 17.1875 
L 4.890625 17.1875 
L 4.890625 26.703125 
z
" id="DejaVuSans-52"/>
       </defs>
       <use xlink:href="#DejaVuSans-52"/>
       <use x="63.623047" xlink:href="#DejaVuSans-48"/>
      </g>
     </g>
    </g>
    <g id="xtick_4">
     <g id="line2d_4">
      <g>
       <use style="stroke:#000000;stroke-width:0.8;" x="237.547413" xlink:href="#me878f0c53a" y="307.584"/>
      </g>
     </g>
     <g id="text_4">
      <!-- 60 -->
      <g transform="translate(231.184913 322.182437)scale(0.1 -0.1)">
       <defs>
        <path d="M 33.015625 40.375 
Q 26.375 40.375 22.484375 35.828125 
Q 18.609375 31.296875 18.609375 23.390625 
Q 18.609375 15.53125 22.484375 10.953125 
Q 26.375 6.390625 33.015625 6.390625 
Q 39.65625 6.390625 43.53125 10.953125 
Q 47.40625 15.53125 47.40625 23.390625 
Q 47.40625 31.296875 43.53125 35.828125 
Q 39.65625 40.375 33.015625 40.375 
z
M 52.59375 71.296875 
L 52.59375 62.3125 
Q 48.875 64.0625 45.09375 64.984375 
Q 41.3125 65.921875 37.59375 65.921875 
Q 27.828125 65.921875 22.671875 59.328125 
Q 17.53125 52.734375 16.796875 39.40625 
Q 19.671875 43.65625 24.015625 45.921875 
Q 28.375 48.1875 33.59375 48.1875 
Q 44.578125 48.1875 50.953125 41.515625 
Q 57.328125 34.859375 57.328125 23.390625 
Q 57.328125 12.15625 50.6875 5.359375 
Q 44.046875 -1.421875 33.015625 -1.421875 
Q 20.359375 -1.421875 13.671875 8.265625 
Q 6.984375 17.96875 6.984375 36.375 
Q 6.984375 53.65625 15.1875 63.9375 
Q 23.390625 74.21875 37.203125 74.21875 
Q 40.921875 74.21875 44.703125 73.484375 
Q 48.484375 72.75 52.59375 71.296875 
z
" id="DejaVuSans-54"/>
       </defs>
       <use xlink:href="#DejaVuSans-54"/>
       <use x="63.623047" xlink:href="#DejaVuSans-48"/>
      </g>
     </g>
    </g>
    <g id="xtick_5">
     <g id="line2d_5">
      <g>
       <use style="stroke:#000000;stroke-width:0.8;" x="293.043916" xlink:href="#me878f0c53a" y="307.584"/>
      </g>
     </g>
     <g id="text_5">
      <!-- 80 -->
      <g transform="translate(286.681416 322.182437)scale(0.1 -0.1)">
       <defs>
        <path d="M 31.78125 34.625 
Q 24.75 34.625 20.71875 30.859375 
Q 16.703125 27.09375 16.703125 20.515625 
Q 16.703125 13.921875 20.71875 10.15625 
Q 24.75 6.390625 31.78125 6.390625 
Q 38.8125 6.390625 42.859375 10.171875 
Q 46.921875 13.96875 46.921875 20.515625 
Q 46.921875 27.09375 42.890625 30.859375 
Q 38.875 34.625 31.78125 34.625 
z
M 21.921875 38.8125 
Q 15.578125 40.375 12.03125 44.71875 
Q 8.5 49.078125 8.5 55.328125 
Q 8.5 64.0625 14.71875 69.140625 
Q 20.953125 74.21875 31.78125 74.21875 
Q 42.671875 74.21875 48.875 69.140625 
Q 55.078125 64.0625 55.078125 55.328125 
Q 55.078125 49.078125 51.53125 44.71875 
Q 48 40.375 41.703125 38.8125 
Q 48.828125 37.15625 52.796875 32.3125 
Q 56.78125 27.484375 56.78125 20.515625 
Q 56.78125 9.90625 50.3125 4.234375 
Q 43.84375 -1.421875 31.78125 -1.421875 
Q 19.734375 -1.421875 13.25 4.234375 
Q 6.78125 9.90625 6.78125 20.515625 
Q 6.78125 27.484375 10.78125 32.3125 
Q 14.796875 37.15625 21.921875 38.8125 
z
M 18.3125 54.390625 
Q 18.3125 48.734375 21.84375 45.5625 
Q 25.390625 42.390625 31.78125 42.390625 
Q 38.140625 42.390625 41.71875 45.5625 
Q 45.3125 48.734375 45.3125 54.390625 
Q 45.3125 60.0625 41.71875 63.234375 
Q 38.140625 66.40625 31.78125 66.40625 
Q 25.390625 66.40625 21.84375 63.234375 
Q 18.3125 60.0625 18.3125 54.390625 
z
" id="DejaVuSans-56"/>
       </defs>
       <use xlink:href="#DejaVuSans-56"/>
       <use x="63.623047" xlink:href="#DejaVuSans-48"/>
      </g>
     </g>
    </g>
    <g id="xtick_6">
     <g id="line2d_6">
      <g>
       <use style="stroke:#000000;stroke-width:0.8;" x="348.54042" xlink:href="#me878f0c53a" y="307.584"/>
      </g>
     </g>
     <g id="text_6">
      <!-- 100 -->
      <g transform="translate(338.99667 322.182437)scale(0.1 -0.1)">
       <defs>
        <path d="M 12.40625 8.296875 
L 28.515625 8.296875 
L 28.515625 63.921875 
L 10.984375 60.40625 
L 10.984375 69.390625 
L 28.421875 72.90625 
L 38.28125 72.90625 
L 38.28125 8.296875 
L 54.390625 8.296875 
L 54.390625 0 
L 12.40625 0 
z
" id="DejaVuSans-49"/>
       </defs>
       <use xlink:href="#DejaVuSans-49"/>
       <use x="63.623047" xlink:href="#DejaVuSans-48"/>
       <use x="127.246094" xlink:href="#DejaVuSans-48"/>
      </g>
     </g>
    </g>
    <g id="xtick_7">
     <g id="line2d_7">
      <g>
       <use style="stroke:#000000;stroke-width:0.8;" x="404.036923" xlink:href="#me878f0c53a" y="307.584"/>
      </g>
     </g>
     <g id="text_7">
      <!-- 120 -->
      <g transform="translate(394.493173 322.182437)scale(0.1 -0.1)">
       <use xlink:href="#DejaVuSans-49"/>
       <use x="63.623047" xlink:href="#DejaVuSans-50"/>
       <use x="127.246094" xlink:href="#DejaVuSans-48"/>
      </g>
     </g>
    </g>
   </g>
   <g id="matplotlib.axis_2">
    <g id="ytick_1">
     <g id="line2d_8">
      <defs>
       <path d="M 0 0 
L -3.5 0 
" id="m718325a199" style="stroke:#000000;stroke-width:0.8;"/>
      </defs>
      <g>
       <use style="stroke:#000000;stroke-width:0.8;" x="57.6" xlink:href="#m718325a199" y="298.589538"/>
      </g>
     </g>
     <g id="text_8">
      <!-- 0 -->
      <g transform="translate(44.2375 302.388757)scale(0.1 -0.1)">
       <use xlink:href="#DejaVuSans-48"/>
      </g>
     </g>
    </g>
    <g id="ytick_2">
     <g id="line2d_9">
      <g>
       <use style="stroke:#000000;stroke-width:0.8;" x="57.6" xlink:href="#m718325a199" y="267.574154"/>
      </g>
     </g>
     <g id="text_9">
      <!-- 1 -->
      <g transform="translate(44.2375 271.373373)scale(0.1 -0.1)">
       <use xlink:href="#DejaVuSans-49"/>
      </g>
     </g>
    </g>
    <g id="ytick_3">
     <g id="line2d_10">
      <g>
       <use style="stroke:#000000;stroke-width:0.8;" x="57.6" xlink:href="#m718325a199" y="236.558769"/>
      </g>
     </g>
     <g id="text_10">
      <!-- 2 -->
      <g transform="translate(44.2375 240.357988)scale(0.1 -0.1)">
       <use xlink:href="#DejaVuSans-50"/>
      </g>
     </g>
    </g>
    <g id="ytick_4">
     <g id="line2d_11">
      <g>
       <use style="stroke:#000000;stroke-width:0.8;" x="57.6" xlink:href="#m718325a199" y="205.543385"/>
      </g>
     </g>
     <g id="text_11">
      <!-- 3 -->
      <g transform="translate(44.2375 209.342603)scale(0.1 -0.1)">
       <defs>
        <path d="M 40.578125 39.3125 
Q 47.65625 37.796875 51.625 33 
Q 55.609375 28.21875 55.609375 21.1875 
Q 55.609375 10.40625 48.1875 4.484375 
Q 40.765625 -1.421875 27.09375 -1.421875 
Q 22.515625 -1.421875 17.65625 -0.515625 
Q 12.796875 0.390625 7.625 2.203125 
L 7.625 11.71875 
Q 11.71875 9.328125 16.59375 8.109375 
Q 21.484375 6.890625 26.8125 6.890625 
Q 36.078125 6.890625 40.9375 10.546875 
Q 45.796875 14.203125 45.796875 21.1875 
Q 45.796875 27.640625 41.28125 31.265625 
Q 36.765625 34.90625 28.71875 34.90625 
L 20.21875 34.90625 
L 20.21875 43.015625 
L 29.109375 43.015625 
Q 36.375 43.015625 40.234375 45.921875 
Q 44.09375 48.828125 44.09375 54.296875 
Q 44.09375 59.90625 40.109375 62.90625 
Q 36.140625 65.921875 28.71875 65.921875 
Q 24.65625 65.921875 20.015625 65.03125 
Q 15.375 64.15625 9.8125 62.3125 
L 9.8125 71.09375 
Q 15.4375 72.65625 20.34375 73.4375 
Q 25.25 74.21875 29.59375 74.21875 
Q 40.828125 74.21875 47.359375 69.109375 
Q 53.90625 64.015625 53.90625 55.328125 
Q 53.90625 49.265625 50.4375 45.09375 
Q 46.96875 40.921875 40.578125 39.3125 
z
" id="DejaVuSans-51"/>
       </defs>
       <use xlink:href="#DejaVuSans-51"/>
      </g>
     </g>
    </g>
    <g id="ytick_5">
     <g id="line2d_12">
      <g>
       <use style="stroke:#000000;stroke-width:0.8;" x="57.6" xlink:href="#m718325a199" y="174.528"/>
      </g>
     </g>
     <g id="text_12">
      <!-- 4 -->
      <g transform="translate(44.2375 178.327219)scale(0.1 -0.1)">
       <use xlink:href="#DejaVuSans-52"/>
      </g>
     </g>
    </g>
    <g id="ytick_6">
     <g id="line2d_13">
      <g>
       <use style="stroke:#000000;stroke-width:0.8;" x="57.6" xlink:href="#m718325a199" y="143.512615"/>
      </g>
     </g>
     <g id="text_13">
      <!-- 5 -->
      <g transform="translate(44.2375 147.311834)scale(0.1 -0.1)">
       <defs>
        <path d="M 10.796875 72.90625 
L 49.515625 72.90625 
L 49.515625 64.59375 
L 19.828125 64.59375 
L 19.828125 46.734375 
Q 21.96875 47.46875 24.109375 47.828125 
Q 26.265625 48.1875 28.421875 48.1875 
Q 40.625 48.1875 47.75 41.5 
Q 54.890625 34.8125 54.890625 23.390625 
Q 54.890625 11.625 47.5625 5.09375 
Q 40.234375 -1.421875 26.90625 -1.421875 
Q 22.3125 -1.421875 17.546875 -0.640625 
Q 12.796875 0.140625 7.71875 1.703125 
L 7.71875 11.625 
Q 12.109375 9.234375 16.796875 8.0625 
Q 21.484375 6.890625 26.703125 6.890625 
Q 35.15625 6.890625 40.078125 11.328125 
Q 45.015625 15.765625 45.015625 23.390625 
Q 45.015625 31 40.078125 35.4375 
Q 35.15625 39.890625 26.703125 39.890625 
Q 22.75 39.890625 18.8125 39.015625 
Q 14.890625 38.140625 10.796875 36.28125 
z
" id="DejaVuSans-53"/>
       </defs>
       <use xlink:href="#DejaVuSans-53"/>
      </g>
     </g>
    </g>
    <g id="ytick_7">
     <g id="line2d_14">
      <g>
       <use style="stroke:#000000;stroke-width:0.8;" x="57.6" xlink:href="#m718325a199" y="112.497231"/>
      </g>
     </g>
     <g id="text_14">
      <!-- 6 -->
      <g transform="translate(44.2375 116.29645)scale(0.1 -0.1)">
       <use xlink:href="#DejaVuSans-54"/>
      </g>
     </g>
    </g>
    <g id="ytick_8">
     <g id="line2d_15">
      <g>
       <use style="stroke:#000000;stroke-width:0.8;" x="57.6" xlink:href="#m718325a199" y="81.481846"/>
      </g>
     </g>
     <g id="text_15">
      <!-- 7 -->
      <g transform="translate(44.2375 85.281065)scale(0.1 -0.1)">
       <defs>
        <path d="M 8.203125 72.90625 
L 55.078125 72.90625 
L 55.078125 68.703125 
L 28.609375 0 
L 18.3125 0 
L 43.21875 64.59375 
L 8.203125 64.59375 
z
" id="DejaVuSans-55"/>
       </defs>
       <use xlink:href="#DejaVuSans-55"/>
      </g>
     </g>
    </g>
    <g id="ytick_9">
     <g id="line2d_16">
      <g>
       <use style="stroke:#000000;stroke-width:0.8;" x="57.6" xlink:href="#m718325a199" y="50.466462"/>
      </g>
     </g>
     <g id="text_16">
      <!-- 8 -->
      <g transform="translate(44.2375 54.26568)scale(0.1 -0.1)">
       <use xlink:href="#DejaVuSans-56"/>
      </g>
     </g>
    </g>
   </g>
   <g id="line2d_17">
    <path clip-path="url(#p80e58b1196)" d="M 290.269091 53.568 
L 293.043916 53.568 
L 295.818741 53.568 
L 298.593566 53.568 
L 301.368392 53.568 
L 304.143217 53.568 
L 306.918042 53.568 
L 309.692867 53.568 
L 312.467692 53.568 
L 315.242517 53.568 
L 318.017343 53.568 
L 320.792168 53.568 
L 323.566993 53.568 
L 326.341818 53.568 
L 329.116643 53.568 
L 331.891469 53.568 
L 334.666294 53.568 
L 337.441119 53.568 
L 340.215944 53.568 
L 342.990769 53.568 
L 345.765594 53.568 
L 348.54042 53.568 
L 351.315245 53.568 
L 354.09007 53.568 
L 356.864895 53.568 
L 359.63972 53.568 
L 362.414545 53.568 
L 365.189371 53.568 
L 367.964196 53.568 
L 370.739021 53.568 
L 373.513846 53.568 
L 376.288671 53.568 
L 379.063497 53.568 
L 381.838322 53.568 
L 384.613147 53.568 
L 387.387972 53.568 
L 390.162797 53.568 
L 392.937622 53.568 
L 395.712448 53.568 
L 398.487273 53.568 
" style="fill:none;stroke:#008080;stroke-linecap:square;stroke-width:1.5;"/>
   </g>
   <g id="line2d_18">
    <path clip-path="url(#p80e58b1196)" d="M 284.719441 59.771077 
L 287.494266 59.771077 
L 290.269091 59.771077 
L 293.043916 59.771077 
L 295.818741 59.771077 
L 298.593566 59.771077 
L 301.368392 59.771077 
L 304.143217 59.771077 
L 306.918042 59.771077 
L 309.692867 59.771077 
L 312.467692 59.771077 
L 315.242517 59.771077 
L 318.017343 59.771077 
L 320.792168 59.771077 
L 323.566993 59.771077 
L 326.341818 59.771077 
L 329.116643 59.771077 
L 331.891469 59.771077 
L 334.666294 59.771077 
L 337.441119 59.771077 
L 340.215944 59.771077 
L 342.990769 59.771077 
L 345.765594 59.771077 
L 348.54042 59.771077 
L 351.315245 59.771077 
L 354.09007 59.771077 
L 356.864895 59.771077 
L 359.63972 59.771077 
L 362.414545 59.771077 
L 365.189371 59.771077 
L 367.964196 59.771077 
L 370.739021 59.771077 
L 373.513846 59.771077 
L 376.288671 59.771077 
L 379.063497 59.771077 
L 381.838322 59.771077 
L 384.613147 59.771077 
L 387.387972 59.771077 
L 390.162797 59.771077 
L 392.937622 59.771077 
" style="fill:none;stroke:#808000;stroke-linecap:square;stroke-width:1.5;"/>
   </g>
   <g id="line2d_19">
    <path clip-path="url(#p80e58b1196)" d="M 279.16979 65.974154 
L 281.944615 65.974154 
L 284.719441 65.974154 
L 287.494266 65.974154 
L 290.269091 65.974154 
L 293.043916 65.974154 
L 295.818741 65.974154 
L 298.593566 65.974154 
L 301.368392 65.974154 
L 304.143217 65.974154 
L 306.918042 65.974154 
L 309.692867 65.974154 
L 312.467692 65.974154 
L 315.242517 65.974154 
L 318.017343 65.974154 
L 320.792168 65.974154 
L 323.566993 65.974154 
L 326.341818 65.974154 
L 329.116643 65.974154 
L 331.891469 65.974154 
L 334.666294 65.974154 
L 337.441119 65.974154 
L 340.215944 65.974154 
L 342.990769 65.974154 
L 345.765594 65.974154 
L 348.54042 65.974154 
L 351.315245 65.974154 
L 354.09007 65.974154 
L 356.864895 65.974154 
L 359.63972 65.974154 
L 362.414545 65.974154 
L 365.189371 65.974154 
L 367.964196 65.974154 
L 370.739021 65.974154 
L 373.513846 65.974154 
L 376.288671 65.974154 
L 379.063497 65.974154 
L 381.838322 65.974154 
L 384.613147 65.974154 
L 387.387972 65.974154 
" style="fill:none;stroke:#2f4f4f;stroke-linecap:square;stroke-width:1.5;"/>
   </g>
   <g id="line2d_20">
    <path clip-path="url(#p80e58b1196)" d="M 273.62014 72.177231 
L 276.394965 72.177231 
L 279.16979 72.177231 
L 281.944615 72.177231 
L 284.719441 72.177231 
L 287.494266 72.177231 
L 290.269091 72.177231 
L 293.043916 72.177231 
L 295.818741 58.884923 
L 298.593566 67.746462 
L 301.368392 63.315692 
L 304.143217 67.746462 
L 306.918042 72.177231 
L 309.692867 72.177231 
L 312.467692 72.177231 
L 315.242517 72.177231 
L 318.017343 72.177231 
L 320.792168 72.177231 
L 323.566993 72.177231 
L 326.341818 72.177231 
L 329.116643 72.177231 
L 331.891469 72.177231 
L 334.666294 72.177231 
L 337.441119 72.177231 
L 340.215944 72.177231 
L 342.990769 72.177231 
L 345.765594 72.177231 
L 348.54042 72.177231 
L 351.315245 72.177231 
L 354.09007 72.177231 
L 356.864895 72.177231 
L 359.63972 72.177231 
L 362.414545 72.177231 
L 365.189371 72.177231 
L 367.964196 72.177231 
L 370.739021 72.177231 
L 373.513846 72.177231 
L 376.288671 72.177231 
L 379.063497 72.177231 
L 381.838322 72.177231 
" style="fill:none;stroke:#708090;stroke-linecap:square;stroke-width:1.5;"/>
   </g>
   <g id="line2d_21">
    <path clip-path="url(#p80e58b1196)" d="M 268.07049 78.380308 
L 270.845315 78.380308 
L 273.62014 78.380308 
L 276.394965 78.380308 
L 279.16979 78.380308 
L 281.944615 78.380308 
L 284.719441 78.380308 
L 287.494266 77.272615 
L 290.269091 68.411077 
L 293.043916 69.518769 
L 295.818741 72.288 
L 298.593566 75.611077 
L 301.368392 76.718769 
L 304.143217 77.826462 
L 306.918042 78.380308 
L 309.692867 78.380308 
L 312.467692 78.380308 
L 315.242517 78.380308 
L 318.017343 78.380308 
L 320.792168 78.380308 
L 323.566993 78.380308 
L 326.341818 78.380308 
L 329.116643 78.380308 
L 331.891469 78.380308 
L 334.666294 78.380308 
L 337.441119 78.380308 
L 340.215944 78.380308 
L 342.990769 78.380308 
L 345.765594 78.380308 
L 348.54042 78.380308 
L 351.315245 78.380308 
L 354.09007 78.380308 
L 356.864895 78.380308 
L 359.63972 78.380308 
L 362.414545 78.380308 
L 365.189371 78.380308 
L 367.964196 78.380308 
L 370.739021 78.380308 
L 373.513846 78.380308 
L 376.288671 78.380308 
" style="fill:none;stroke:#008080;stroke-linecap:square;stroke-width:1.5;"/>
   </g>
   <g id="line2d_22">
    <path clip-path="url(#p80e58b1196)" d="M 262.520839 84.583385 
L 265.295664 84.583385 
L 268.07049 84.583385 
L 270.845315 84.583385 
L 273.62014 84.583385 
L 276.394965 84.583385 
L 279.16979 84.583385 
L 281.944615 83.832407 
L 284.719441 74.069695 
L 287.494266 74.595379 
L 290.269091 79.026149 
L 293.043916 82.255353 
L 295.818741 83.456918 
L 298.593566 84.207896 
L 301.368392 84.358091 
L 304.143217 84.508287 
L 306.918042 84.508287 
L 309.692867 84.583385 
L 312.467692 84.583385 
L 315.242517 84.583385 
L 318.017343 84.583385 
L 320.792168 84.583385 
L 323.566993 84.583385 
L 326.341818 84.583385 
L 329.116643 84.583385 
L 331.891469 84.583385 
L 334.666294 84.583385 
L 337.441119 84.583385 
L 340.215944 84.583385 
L 342.990769 84.583385 
L 345.765594 84.583385 
L 348.54042 84.583385 
L 351.315245 84.583385 
L 354.09007 84.583385 
L 356.864895 84.583385 
L 359.63972 84.583385 
L 362.414545 84.583385 
L 365.189371 84.583385 
L 367.964196 84.583385 
L 370.739021 84.583385 
" style="fill:none;stroke:#808000;stroke-linecap:square;stroke-width:1.5;"/>
   </g>
   <g id="line2d_23">
    <path clip-path="url(#p80e58b1196)" d="M 256.971189 90.786462 
L 259.746014 90.786462 
L 262.520839 90.786462 
L 265.295664 90.786462 
L 268.07049 90.786462 
L 270.845315 90.786462 
L 273.62014 90.786462 
L 276.394965 89.537884 
L 279.16979 80.399746 
L 281.944615 80.562604 
L 284.719441 85.538818 
L 287.494266 88.560737 
L 290.269091 89.736933 
L 293.043916 90.388364 
L 295.818741 90.605508 
L 298.593566 90.750271 
L 301.368392 90.786462 
L 304.143217 90.768366 
L 306.918042 90.786462 
L 309.692867 90.786462 
L 312.467692 90.786462 
L 315.242517 90.786462 
L 318.017343 90.786462 
L 320.792168 90.786462 
L 323.566993 90.786462 
L 326.341818 90.786462 
L 329.116643 90.786462 
L 331.891469 90.786462 
L 334.666294 90.786462 
L 337.441119 90.786462 
L 340.215944 90.786462 
L 342.990769 90.786462 
L 345.765594 90.786462 
L 348.54042 90.786462 
L 351.315245 90.786462 
L 354.09007 90.786462 
L 356.864895 90.786462 
L 359.63972 90.786462 
L 362.414545 90.786462 
L 365.189371 90.786462 
" style="fill:none;stroke:#2f4f4f;stroke-linecap:square;stroke-width:1.5;"/>
   </g>
   <g id="line2d_24">
    <path clip-path="url(#p80e58b1196)" d="M 251.421538 96.989538 
L 254.196364 96.989538 
L 256.971189 96.989538 
L 259.746014 96.989538 
L 262.520839 96.989538 
L 265.295664 96.989538 
L 268.07049 96.989538 
L 270.845315 95.822942 
L 273.62014 86.6846 
L 276.394965 86.892442 
L 279.16979 91.739853 
L 281.944615 94.555776 
L 284.719441 95.963738 
L 287.494266 96.593968 
L 290.269091 96.808515 
L 293.043916 96.922493 
L 295.818741 96.942606 
L 298.593566 96.949311 
L 301.368392 96.982834 
L 304.143217 96.989538 
L 306.918042 96.989538 
L 309.692867 96.989538 
L 312.467692 96.989538 
L 315.242517 96.989538 
L 318.017343 96.989538 
L 320.792168 96.989538 
L 323.566993 96.989538 
L 326.341818 96.989538 
L 329.116643 96.989538 
L 331.891469 96.989538 
L 334.666294 96.989538 
L 337.441119 96.989538 
L 340.215944 96.989538 
L 342.990769 96.989538 
L 345.765594 96.989538 
L 348.54042 96.989538 
L 351.315245 96.989538 
L 354.09007 96.989538 
L 356.864895 96.989538 
L 359.63972 96.989538 
" style="fill:none;stroke:#708090;stroke-linecap:square;stroke-width:1.5;"/>
   </g>
   <g id="line2d_25">
    <path clip-path="url(#p80e58b1196)" d="M 245.871888 103.192615 
L 248.646713 103.192615 
L 251.421538 103.192615 
L 254.196364 103.192615 
L 256.971189 103.192615 
L 259.746014 103.192615 
L 262.520839 103.192615 
L 265.295664 101.801911 
L 268.07049 92.601095 
L 270.845315 93.434174 
L 273.62014 98.150474 
L 276.394965 100.716894 
L 279.16979 102.161345 
L 281.944615 102.782794 
L 284.719441 103.017938 
L 287.494266 103.105276 
L 290.269091 103.162383 
L 293.043916 103.182538 
L 295.818741 103.185897 
L 298.593566 103.189256 
L 301.368392 103.189256 
L 304.143217 103.192615 
L 306.918042 103.192615 
L 309.692867 103.192615 
L 312.467692 103.192615 
L 315.242517 103.192615 
L 318.017343 103.192615 
L 320.792168 103.192615 
L 323.566993 103.192615 
L 326.341818 103.192615 
L 329.116643 103.192615 
L 331.891469 103.192615 
L 334.666294 103.192615 
L 337.441119 103.192615 
L 340.215944 103.192615 
L 342.990769 103.192615 
L 345.765594 103.192615 
L 348.54042 103.192615 
L 351.315245 103.192615 
L 354.09007 103.192615 
" style="fill:none;stroke:#008080;stroke-linecap:square;stroke-width:1.5;"/>
   </g>
   <g id="line2d_26">
    <path clip-path="url(#p80e58b1196)" d="M 240.322238 109.395692 
L 243.097063 109.395692 
L 245.871888 109.395692 
L 248.646713 109.395692 
L 251.421538 109.395692 
L 254.196364 109.395692 
L 256.971189 109.395692 
L 259.746014 107.701964 
L 262.520839 98.74907 
L 265.295664 99.805622 
L 268.07049 104.249632 
L 270.845315 107.078691 
L 273.62014 108.452673 
L 276.394965 108.950828 
L 279.16979 109.275208 
L 281.944615 109.319231 
L 284.719441 109.372522 
L 287.494266 109.388741 
L 290.269091 109.391058 
L 293.043916 109.393375 
L 295.818741 109.395692 
L 298.593566 109.395692 
L 301.368392 109.395692 
L 304.143217 109.395692 
L 306.918042 109.395692 
L 309.692867 109.395692 
L 312.467692 109.395692 
L 315.242517 109.395692 
L 318.017343 109.395692 
L 320.792168 109.395692 
L 323.566993 109.395692 
L 326.341818 109.395692 
L 329.116643 109.395692 
L 331.891469 109.395692 
L 334.666294 109.395692 
L 337.441119 109.395692 
L 340.215944 109.395692 
L 342.990769 109.395692 
L 345.765594 109.395692 
L 348.54042 109.395692 
" style="fill:none;stroke:#808000;stroke-linecap:square;stroke-width:1.5;"/>
   </g>
   <g id="line2d_27">
    <path clip-path="url(#p80e58b1196)" d="M 234.772587 115.598769 
L 237.547413 115.598769 
L 240.322238 115.598769 
L 243.097063 115.598769 
L 245.871888 115.598769 
L 248.646713 115.598769 
L 251.421538 115.598769 
L 254.196364 113.597291 
L 256.971189 104.72796 
L 259.746014 106.225306 
L 262.520839 110.593193 
L 265.295664 113.403539 
L 268.07049 114.699609 
L 270.845315 115.239481 
L 273.62014 115.438877 
L 276.394965 115.516001 
L 279.16979 115.54798 
L 281.944615 115.583721 
L 284.719441 115.596888 
L 287.494266 115.598769 
L 290.269091 115.598769 
L 293.043916 115.598769 
L 295.818741 115.598769 
L 298.593566 115.598769 
L 301.368392 115.598769 
L 304.143217 115.598769 
L 306.918042 115.598769 
L 309.692867 115.598769 
L 312.467692 115.598769 
L 315.242517 115.598769 
L 318.017343 115.598769 
L 320.792168 115.598769 
L 323.566993 115.598769 
L 326.341818 115.598769 
L 329.116643 115.598769 
L 331.891469 115.598769 
L 334.666294 115.598769 
L 337.441119 115.598769 
L 340.215944 115.598769 
L 342.990769 115.598769 
" style="fill:none;stroke:#2f4f4f;stroke-linecap:square;stroke-width:1.5;"/>
   </g>
   <g id="line2d_28">
    <path clip-path="url(#p80e58b1196)" d="M 229.222937 121.801846 
L 231.997762 121.801846 
L 234.772587 121.801846 
L 237.547413 121.801846 
L 240.322238 121.801846 
L 243.097063 121.801846 
L 245.871888 121.801846 
L 248.646713 119.171711 
L 251.421538 110.846376 
L 254.196364 112.582676 
L 256.971189 117.202535 
L 259.746014 119.70767 
L 262.520839 120.908011 
L 265.295664 121.421709 
L 268.07049 121.644312 
L 270.845315 121.757326 
L 273.62014 121.774449 
L 276.394965 121.791572 
L 279.16979 121.800134 
L 281.944615 121.800134 
L 284.719441 121.801846 
L 287.494266 121.801846 
L 290.269091 121.801846 
L 293.043916 121.801846 
L 295.818741 121.801846 
L 298.593566 121.801846 
L 301.368392 121.801846 
L 304.143217 121.801846 
L 306.918042 121.801846 
L 309.692867 121.801846 
L 312.467692 121.801846 
L 315.242517 121.801846 
L 318.017343 121.801846 
L 320.792168 121.801846 
L 323.566993 121.801846 
L 326.341818 121.801846 
L 329.116643 121.801846 
L 331.891469 121.801846 
L 334.666294 121.801846 
L 337.441119 121.801846 
" style="fill:none;stroke:#708090;stroke-linecap:square;stroke-width:1.5;"/>
   </g>
   <g id="line2d_29">
    <path clip-path="url(#p80e58b1196)" d="M 223.673287 128.004923 
L 226.448112 128.004923 
L 229.222937 128.004923 
L 231.997762 128.004923 
L 234.772587 128.004923 
L 237.547413 128.004923 
L 240.322238 128.004923 
L 243.097063 124.754269 
L 245.871888 116.832507 
L 248.646713 119.315088 
L 251.421538 123.423799 
L 254.196364 126.042961 
L 256.971189 127.179003 
L 259.746014 127.689981 
L 262.520839 127.871555 
L 265.295664 127.951897 
L 268.07049 127.982427 
L 270.845315 127.998496 
L 273.62014 128.004923 
L 276.394965 128.001709 
L 279.16979 128.004923 
L 281.944615 128.004923 
L 284.719441 128.004923 
L 287.494266 128.004923 
L 290.269091 128.004923 
L 293.043916 128.004923 
L 295.818741 128.004923 
L 298.593566 128.004923 
L 301.368392 128.004923 
L 304.143217 128.004923 
L 306.918042 128.004923 
L 309.692867 128.004923 
L 312.467692 128.004923 
L 315.242517 128.004923 
L 318.017343 128.004923 
L 320.792168 128.004923 
L 323.566993 128.004923 
L 326.341818 128.004923 
L 329.116643 128.004923 
L 331.891469 128.004923 
" style="fill:none;stroke:#008080;stroke-linecap:square;stroke-width:1.5;"/>
   </g>
   <g id="line2d_30">
    <path clip-path="url(#p80e58b1196)" d="M 218.123636 134.208 
L 220.898462 134.208 
L 223.673287 134.208 
L 226.448112 134.208 
L 229.222937 134.208 
L 231.997762 134.208 
L 234.772587 134.208 
L 237.547413 130.230044 
L 240.322238 123.06076 
L 243.097063 125.841002 
L 245.871888 129.81123 
L 248.646713 132.30093 
L 251.421538 133.523371 
L 254.196364 133.885004 
L 256.971189 134.087456 
L 259.746014 134.155455 
L 262.520839 134.187909 
L 265.295664 134.194091 
L 268.07049 134.203364 
L 270.845315 134.208 
L 273.62014 134.208 
L 276.394965 134.208 
L 279.16979 134.208 
L 281.944615 134.208 
L 284.719441 134.208 
L 287.494266 134.208 
L 290.269091 134.208 
L 293.043916 134.208 
L 295.818741 134.208 
L 298.593566 134.208 
L 301.368392 134.208 
L 304.143217 134.208 
L 306.918042 134.208 
L 309.692867 134.208 
L 312.467692 134.208 
L 315.242517 134.208 
L 318.017343 134.208 
L 320.792168 134.208 
L 323.566993 134.208 
L 326.341818 134.208 
" style="fill:none;stroke:#808000;stroke-linecap:square;stroke-width:1.5;"/>
   </g>
   <g id="line2d_31">
    <path clip-path="url(#p80e58b1196)" d="M 212.573986 140.411077 
L 215.348811 140.411077 
L 218.123636 140.411077 
L 220.898462 140.411077 
L 223.673287 140.411077 
L 226.448112 140.411077 
L 229.222937 140.408149 
L 231.997762 135.513372 
L 234.772587 129.154845 
L 237.547413 132.424861 
L 240.322238 136.393085 
L 243.097063 138.716055 
L 245.871888 139.749462 
L 248.646713 140.097835 
L 251.421538 140.291049 
L 254.196364 140.374483 
L 256.971189 140.396439 
L 259.746014 140.400831 
L 262.520839 140.411077 
L 265.295664 140.408149 
L 268.07049 140.411077 
L 270.845315 140.411077 
L 273.62014 140.411077 
L 276.394965 140.411077 
L 279.16979 140.411077 
L 281.944615 140.411077 
L 284.719441 140.411077 
L 287.494266 140.411077 
L 290.269091 140.411077 
L 293.043916 140.411077 
L 295.818741 140.411077 
L 298.593566 140.411077 
L 301.368392 140.411077 
L 304.143217 140.411077 
L 306.918042 140.411077 
L 309.692867 140.411077 
L 312.467692 140.411077 
L 315.242517 140.411077 
L 318.017343 140.411077 
L 320.792168 140.411077 
" style="fill:none;stroke:#2f4f4f;stroke-linecap:square;stroke-width:1.5;"/>
   </g>
   <g id="line2d_32">
    <path clip-path="url(#p80e58b1196)" d="M 207.024336 146.614154 
L 209.799161 146.614154 
L 212.573986 146.614154 
L 215.348811 146.614154 
L 218.123636 146.614154 
L 220.898462 146.614154 
L 223.673287 146.611309 
L 226.448112 140.606496 
L 229.222937 135.519046 
L 231.997762 138.979423 
L 234.772587 142.977416 
L 237.547413 145.01837 
L 240.322238 145.992623 
L 243.097063 146.362413 
L 245.871888 146.514595 
L 248.646713 146.570064 
L 251.421538 146.595664 
L 254.196364 146.611309 
L 256.971189 146.611309 
L 259.746014 146.612732 
L 262.520839 146.614154 
L 265.295664 146.614154 
L 268.07049 146.614154 
L 270.845315 146.614154 
L 273.62014 146.614154 
L 276.394965 146.614154 
L 279.16979 146.614154 
L 281.944615 146.614154 
L 284.719441 146.614154 
L 287.494266 146.614154 
L 290.269091 146.614154 
L 293.043916 146.614154 
L 295.818741 146.614154 
L 298.593566 146.614154 
L 301.368392 146.614154 
L 304.143217 146.614154 
L 306.918042 146.614154 
L 309.692867 146.614154 
L 312.467692 146.614154 
L 315.242517 146.614154 
" style="fill:none;stroke:#708090;stroke-linecap:square;stroke-width:1.5;"/>
   </g>
   <g id="line2d_33">
    <path clip-path="url(#p80e58b1196)" d="M 201.474685 152.817231 
L 204.24951 152.817231 
L 207.024336 152.817231 
L 209.799161 152.817231 
L 212.573986 152.817231 
L 215.348811 152.817231 
L 218.123636 152.796719 
L 220.898462 146.153593 
L 223.673287 141.712079 
L 226.448112 145.400122 
L 229.222937 149.428662 
L 231.997762 151.323963 
L 234.772587 152.283921 
L 237.547413 152.602539 
L 240.322238 152.705099 
L 243.097063 152.774839 
L 245.871888 152.807659 
L 248.646713 152.810393 
L 251.421538 152.813128 
L 254.196364 152.815863 
L 256.971189 152.814496 
L 259.746014 152.817231 
L 262.520839 152.817231 
L 265.295664 152.817231 
L 268.07049 152.817231 
L 270.845315 152.817231 
L 273.62014 152.817231 
L 276.394965 152.817231 
L 279.16979 152.817231 
L 281.944615 152.817231 
L 284.719441 152.817231 
L 287.494266 152.817231 
L 290.269091 152.817231 
L 293.043916 152.817231 
L 295.818741 152.817231 
L 298.593566 152.817231 
L 301.368392 152.817231 
L 304.143217 152.817231 
L 306.918042 152.817231 
L 309.692867 152.817231 
" style="fill:none;stroke:#008080;stroke-linecap:square;stroke-width:1.5;"/>
   </g>
   <g id="line2d_34">
    <path clip-path="url(#p80e58b1196)" d="M 195.925035 159.020308 
L 198.69986 159.020308 
L 201.474685 159.020308 
L 204.24951 159.020308 
L 207.024336 159.020308 
L 209.799161 159.020308 
L 212.573986 158.936736 
L 215.348811 151.148939 
L 218.123636 148.361054 
L 220.898462 152.126984 
L 223.673287 155.734912 
L 226.448112 157.685779 
L 229.222937 158.470565 
L 231.997762 158.827049 
L 234.772587 158.936736 
L 237.547413 158.983745 
L 240.322238 159.002026 
L 243.097063 159.01639 
L 245.871888 159.017696 
L 248.646713 159.020308 
L 251.421538 159.020308 
L 254.196364 159.020308 
L 256.971189 159.020308 
L 259.746014 159.020308 
L 262.520839 159.020308 
L 265.295664 159.020308 
L 268.07049 159.020308 
L 270.845315 159.020308 
L 273.62014 159.020308 
L 276.394965 159.020308 
L 279.16979 159.020308 
L 281.944615 159.020308 
L 284.719441 159.020308 
L 287.494266 159.020308 
L 290.269091 159.020308 
L 293.043916 159.020308 
L 295.818741 159.020308 
L 298.593566 159.020308 
L 301.368392 159.020308 
L 304.143217 159.020308 
" style="fill:none;stroke:#808000;stroke-linecap:square;stroke-width:1.5;"/>
   </g>
   <g id="line2d_35">
    <path clip-path="url(#p80e58b1196)" d="M 190.375385 165.223385 
L 193.15021 165.223385 
L 195.925035 165.223385 
L 198.69986 165.223385 
L 201.474685 165.223385 
L 204.24951 165.223385 
L 207.024336 165.018992 
L 209.799161 156.439473 
L 212.573986 154.702133 
L 215.348811 158.745125 
L 218.123636 162.303307 
L 220.898462 163.97584 
L 223.673287 164.702432 
L 226.448112 165.006529 
L 229.222937 165.148607 
L 231.997762 165.195966 
L 234.772587 165.210922 
L 237.547413 165.217153 
L 240.322238 165.223385 
L 243.097063 165.222138 
L 245.871888 165.223385 
L 248.646713 165.223385 
L 251.421538 165.223385 
L 254.196364 165.223385 
L 256.971189 165.223385 
L 259.746014 165.223385 
L 262.520839 165.223385 
L 265.295664 165.223385 
L 268.07049 165.223385 
L 270.845315 165.223385 
L 273.62014 165.223385 
L 276.394965 165.223385 
L 279.16979 165.223385 
L 281.944615 165.223385 
L 284.719441 165.223385 
L 287.494266 165.223385 
L 290.269091 165.223385 
L 293.043916 165.223385 
L 295.818741 165.223385 
L 298.593566 165.223385 
" style="fill:none;stroke:#2f4f4f;stroke-linecap:square;stroke-width:1.5;"/>
   </g>
   <g id="line2d_36">
    <path clip-path="url(#p80e58b1196)" d="M 184.825734 171.426462 
L 187.600559 171.426462 
L 190.375385 171.426462 
L 193.15021 171.426462 
L 195.925035 171.426462 
L 198.69986 171.426462 
L 201.474685 170.941306 
L 204.24951 161.978445 
L 207.024336 160.950917 
L 209.799161 165.46632 
L 212.573986 168.714597 
L 215.348811 170.299995 
L 218.123636 170.916273 
L 220.898462 171.250041 
L 223.673287 171.357324 
L 226.448112 171.394277 
L 229.222937 171.418117 
L 231.997762 171.420501 
L 234.772587 171.424077 
L 237.547413 171.42527 
L 240.322238 171.426462 
L 243.097063 171.424077 
L 245.871888 171.426462 
L 248.646713 171.426462 
L 251.421538 171.426462 
L 254.196364 171.426462 
L 256.971189 171.426462 
L 259.746014 171.426462 
L 262.520839 171.426462 
L 265.295664 171.426462 
L 268.07049 171.426462 
L 270.845315 171.426462 
L 273.62014 171.426462 
L 276.394965 171.426462 
L 279.16979 171.426462 
L 281.944615 171.426462 
L 284.719441 171.426462 
L 287.494266 171.426462 
L 290.269091 171.426462 
L 293.043916 171.426462 
" style="fill:none;stroke:#708090;stroke-linecap:square;stroke-width:1.5;"/>
   </g>
   <g id="line2d_37">
    <path clip-path="url(#p80e58b1196)" d="M 179.276084 177.629538 
L 182.050909 177.629538 
L 184.825734 177.629538 
L 187.600559 177.629538 
L 190.375385 177.629538 
L 193.15021 177.629538 
L 195.925035 176.648097 
L 198.69986 167.385314 
L 201.474685 167.679516 
L 204.24951 171.997169 
L 207.024336 175.18398 
L 209.799161 176.612471 
L 212.573986 177.191682 
L 215.348811 177.454856 
L 218.123636 177.558286 
L 220.898462 177.593912 
L 223.673287 177.611151 
L 226.448112 177.624942 
L 229.222937 177.62724 
L 231.997762 177.629538 
L 234.772587 177.629538 
L 237.547413 177.629538 
L 240.322238 177.629538 
L 243.097063 177.629538 
L 245.871888 177.629538 
L 248.646713 177.629538 
L 251.421538 177.629538 
L 254.196364 177.629538 
L 256.971189 177.629538 
L 259.746014 177.629538 
L 262.520839 177.629538 
L 265.295664 177.629538 
L 268.07049 177.629538 
L 270.845315 177.629538 
L 273.62014 177.629538 
L 276.394965 177.629538 
L 279.16979 177.629538 
L 281.944615 177.629538 
L 284.719441 177.629538 
L 287.494266 177.629538 
" style="fill:none;stroke:#008080;stroke-linecap:square;stroke-width:1.5;"/>
   </g>
   <g id="line2d_38">
    <path clip-path="url(#p80e58b1196)" d="M 173.726434 183.832615 
L 176.501259 183.832615 
L 179.276084 183.832615 
L 182.050909 183.832615 
L 184.825734 183.832615 
L 187.600559 183.832615 
L 190.375385 182.053648 
L 193.15021 172.956091 
L 195.925035 174.32311 
L 198.69986 178.751556 
L 201.474685 181.61785 
L 204.24951 182.929581 
L 207.024336 183.423919 
L 209.799161 183.69277 
L 212.573986 183.774075 
L 215.348811 183.799009 
L 218.123636 183.826111 
L 220.898462 183.830447 
L 223.673287 183.830447 
L 226.448112 183.832615 
L 229.222937 183.832615 
L 231.997762 183.832615 
L 234.772587 183.832615 
L 237.547413 183.832615 
L 240.322238 183.832615 
L 243.097063 183.832615 
L 245.871888 183.832615 
L 248.646713 183.832615 
L 251.421538 183.832615 
L 254.196364 183.832615 
L 256.971189 183.832615 
L 259.746014 183.832615 
L 262.520839 183.832615 
L 265.295664 183.832615 
L 268.07049 183.832615 
L 270.845315 183.832615 
L 273.62014 183.832615 
L 276.394965 183.832615 
L 279.16979 183.832615 
L 281.944615 183.832615 
" style="fill:none;stroke:#808000;stroke-linecap:square;stroke-width:1.5;"/>
   </g>
   <g id="line2d_39">
    <path clip-path="url(#p80e58b1196)" d="M 168.176783 190.035692 
L 170.951608 190.035692 
L 173.726434 190.035692 
L 176.501259 190.035692 
L 179.276084 190.035692 
L 182.050909 190.035692 
L 184.825734 187.309877 
L 187.600559 179.107801 
L 190.375385 181.008482 
L 193.15021 185.331198 
L 195.925035 187.889729 
L 198.69986 189.137692 
L 201.474685 189.707281 
L 204.24951 189.873539 
L 207.024336 189.975141 
L 209.799161 190.010035 
L 212.573986 190.027482 
L 215.348811 190.034666 
L 218.123636 190.035692 
L 220.898462 190.035692 
L 223.673287 190.035692 
L 226.448112 190.035692 
L 229.222937 190.035692 
L 231.997762 190.035692 
L 234.772587 190.035692 
L 237.547413 190.035692 
L 240.322238 190.035692 
L 243.097063 190.035692 
L 245.871888 190.035692 
L 248.646713 190.035692 
L 251.421538 190.035692 
L 254.196364 190.035692 
L 256.971189 190.035692 
L 259.746014 190.035692 
L 262.520839 190.035692 
L 265.295664 190.035692 
L 268.07049 190.035692 
L 270.845315 190.035692 
L 273.62014 190.035692 
L 276.394965 190.035692 
" style="fill:none;stroke:#2f4f4f;stroke-linecap:square;stroke-width:1.5;"/>
   </g>
   <g id="line2d_40">
    <path clip-path="url(#p80e58b1196)" d="M 162.627133 196.238769 
L 165.401958 196.238769 
L 168.176783 196.238769 
L 170.951608 196.238769 
L 173.726434 196.238769 
L 176.501259 196.238769 
L 179.276084 192.125491 
L 182.050909 184.93492 
L 184.825734 187.965253 
L 187.600559 192.014321 
L 190.375385 194.355593 
L 193.15021 195.541084 
L 195.925035 195.924427 
L 198.69986 196.114183 
L 201.474685 196.186059 
L 204.24951 196.221519 
L 207.024336 196.232061 
L 209.799161 196.236853 
L 212.573986 196.237811 
L 215.348811 196.238769 
L 218.123636 196.238769 
L 220.898462 196.237811 
L 223.673287 196.238769 
L 226.448112 196.238769 
L 229.222937 196.238769 
L 231.997762 196.238769 
L 234.772587 196.238769 
L 237.547413 196.238769 
L 240.322238 196.238769 
L 243.097063 196.238769 
L 245.871888 196.238769 
L 248.646713 196.238769 
L 251.421538 196.238769 
L 254.196364 196.238769 
L 256.971189 196.238769 
L 259.746014 196.238769 
L 262.520839 196.238769 
L 265.295664 196.238769 
L 268.07049 196.238769 
L 270.845315 196.238769 
" style="fill:none;stroke:#708090;stroke-linecap:square;stroke-width:1.5;"/>
   </g>
   <g id="line2d_41">
    <path clip-path="url(#p80e58b1196)" d="M 157.077483 202.441846 
L 159.852308 202.441846 
L 162.627133 202.441846 
L 165.401958 202.441846 
L 168.176783 202.441846 
L 170.951608 202.440944 
L 173.726434 196.926837 
L 176.501259 191.20346 
L 179.276084 194.729493 
L 182.050909 198.664146 
L 184.825734 200.80376 
L 187.600559 201.762618 
L 190.375385 202.166727 
L 193.15021 202.325484 
L 195.925035 202.405765 
L 198.69986 202.428316 
L 201.474685 202.432826 
L 204.24951 202.43914 
L 207.024336 202.440944 
L 209.799161 202.441846 
L 212.573986 202.441846 
L 215.348811 202.441846 
L 218.123636 202.441846 
L 220.898462 202.441846 
L 223.673287 202.441846 
L 226.448112 202.441846 
L 229.222937 202.441846 
L 231.997762 202.441846 
L 234.772587 202.441846 
L 237.547413 202.441846 
L 240.322238 202.441846 
L 243.097063 202.441846 
L 245.871888 202.441846 
L 248.646713 202.441846 
L 251.421538 202.441846 
L 254.196364 202.441846 
L 256.971189 202.441846 
L 259.746014 202.441846 
L 262.520839 202.441846 
L 265.295664 202.441846 
" style="fill:none;stroke:#008080;stroke-linecap:square;stroke-width:1.5;"/>
   </g>
   <g id="line2d_42">
    <path clip-path="url(#p80e58b1196)" d="M 151.527832 208.644923 
L 154.302657 208.644923 
L 157.077483 208.644923 
L 159.852308 208.644923 
L 162.627133 208.644923 
L 165.401958 208.638235 
L 168.176783 201.555119 
L 170.951608 197.572121 
L 173.726434 201.535054 
L 176.501259 205.346659 
L 179.276084 207.1977 
L 182.050909 208.072221 
L 184.825734 208.398285 
L 187.600559 208.547104 
L 190.375385 208.597268 
L 193.15021 208.63071 
L 195.925035 208.639907 
L 198.69986 208.642415 
L 201.474685 208.641579 
L 204.24951 208.644087 
L 207.024336 208.644923 
L 209.799161 208.644923 
L 212.573986 208.644923 
L 215.348811 208.644923 
L 218.123636 208.644923 
L 220.898462 208.644923 
L 223.673287 208.644923 
L 226.448112 208.644923 
L 229.222937 208.644923 
L 231.997762 208.644923 
L 234.772587 208.644923 
L 237.547413 208.644923 
L 240.322238 208.644923 
L 243.097063 208.644923 
L 245.871888 208.644923 
L 248.646713 208.644923 
L 251.421538 208.644923 
L 254.196364 208.644923 
L 256.971189 208.644923 
L 259.746014 208.644923 
" style="fill:none;stroke:#808000;stroke-linecap:square;stroke-width:1.5;"/>
   </g>
   <g id="line2d_43">
    <path clip-path="url(#p80e58b1196)" d="M 145.978182 214.848 
L 148.753007 214.848 
L 151.527832 214.848 
L 154.302657 214.848 
L 157.077483 214.848 
L 159.852308 214.727761 
L 162.627133 206.279028 
L 165.401958 204.08584 
L 168.176783 208.282489 
L 170.951608 211.908394 
L 173.726434 213.605011 
L 176.501259 214.365483 
L 179.276084 214.644999 
L 182.050909 214.765238 
L 184.825734 214.815208 
L 187.600559 214.838631 
L 190.375385 214.844877 
L 193.15021 214.846438 
L 195.925035 214.847219 
L 198.69986 214.848 
L 201.474685 214.848 
L 204.24951 214.848 
L 207.024336 214.848 
L 209.799161 214.848 
L 212.573986 214.848 
L 215.348811 214.848 
L 218.123636 214.848 
L 220.898462 214.848 
L 223.673287 214.848 
L 226.448112 214.848 
L 229.222937 214.848 
L 231.997762 214.848 
L 234.772587 214.848 
L 237.547413 214.848 
L 240.322238 214.848 
L 243.097063 214.848 
L 245.871888 214.848 
L 248.646713 214.848 
L 251.421538 214.848 
L 254.196364 214.848 
" style="fill:none;stroke:#2f4f4f;stroke-linecap:square;stroke-width:1.5;"/>
   </g>
   <g id="line2d_44">
    <path clip-path="url(#p80e58b1196)" d="M 140.428531 221.051077 
L 143.203357 221.051077 
L 145.978182 221.051077 
L 148.753007 221.051077 
L 151.527832 221.051077 
L 154.302657 220.522061 
L 157.077483 211.110839 
L 159.852308 210.784953 
L 162.627133 215.268436 
L 165.401958 218.392114 
L 168.176783 219.936052 
L 170.951608 220.608282 
L 173.726434 220.89471 
L 176.501259 220.988969 
L 179.276084 221.014543 
L 182.050909 221.032079 
L 184.825734 221.045962 
L 187.600559 221.049616 
L 190.375385 221.051077 
L 193.15021 221.051077 
L 195.925035 221.051077 
L 198.69986 221.051077 
L 201.474685 221.051077 
L 204.24951 221.051077 
L 207.024336 221.051077 
L 209.799161 221.051077 
L 212.573986 221.051077 
L 215.348811 221.051077 
L 218.123636 221.051077 
L 220.898462 221.051077 
L 223.673287 221.051077 
L 226.448112 221.051077 
L 229.222937 221.051077 
L 231.997762 221.051077 
L 234.772587 221.051077 
L 237.547413 221.051077 
L 240.322238 221.051077 
L 243.097063 221.051077 
L 245.871888 221.051077 
L 248.646713 221.051077 
" style="fill:none;stroke:#708090;stroke-linecap:square;stroke-width:1.5;"/>
   </g>
   <g id="line2d_45">
    <path clip-path="url(#p80e58b1196)" d="M 134.878881 227.254154 
L 137.653706 227.254154 
L 140.428531 227.254154 
L 143.203357 227.254154 
L 145.978182 227.254154 
L 148.753007 225.701818 
L 151.527832 216.329905 
L 154.302657 217.610463 
L 157.077483 222.164617 
L 159.852308 224.981845 
L 162.627133 226.348227 
L 165.401958 226.89587 
L 168.176783 227.104301 
L 170.951608 227.182633 
L 173.726434 227.224864 
L 176.501259 227.242574 
L 179.276084 227.251429 
L 182.050909 227.250748 
L 184.825734 227.254154 
L 187.600559 227.254154 
L 190.375385 227.253473 
L 193.15021 227.254154 
L 195.925035 227.254154 
L 198.69986 227.254154 
L 201.474685 227.254154 
L 204.24951 227.254154 
L 207.024336 227.254154 
L 209.799161 227.254154 
L 212.573986 227.254154 
L 215.348811 227.254154 
L 218.123636 227.254154 
L 220.898462 227.254154 
L 223.673287 227.254154 
L 226.448112 227.254154 
L 229.222937 227.254154 
L 231.997762 227.254154 
L 234.772587 227.254154 
L 237.547413 227.254154 
L 240.322238 227.254154 
L 243.097063 227.254154 
" style="fill:none;stroke:#008080;stroke-linecap:square;stroke-width:1.5;"/>
   </g>
   <g id="line2d_46">
    <path clip-path="url(#p80e58b1196)" d="M 129.329231 233.457231 
L 132.104056 233.457231 
L 134.878881 233.457231 
L 137.653706 233.457231 
L 140.428531 233.457231 
L 143.203357 230.061045 
L 145.978182 222.078042 
L 148.753007 224.88137 
L 151.527832 229.065166 
L 154.302657 231.512165 
L 157.077483 232.670235 
L 159.852308 233.132848 
L 162.627133 233.317157 
L 165.401958 233.411768 
L 168.176783 233.436957 
L 170.951608 233.450473 
L 173.726434 233.456002 
L 176.501259 233.455388 
L 179.276084 233.457231 
L 182.050909 233.457231 
L 184.825734 233.457231 
L 187.600559 233.457231 
L 190.375385 233.457231 
L 193.15021 233.457231 
L 195.925035 233.457231 
L 198.69986 233.457231 
L 201.474685 233.457231 
L 204.24951 233.457231 
L 207.024336 233.457231 
L 209.799161 233.457231 
L 212.573986 233.457231 
L 215.348811 233.457231 
L 218.123636 233.457231 
L 220.898462 233.457231 
L 223.673287 233.457231 
L 226.448112 233.457231 
L 229.222937 233.457231 
L 231.997762 233.457231 
L 234.772587 233.457231 
L 237.547413 233.457231 
" style="fill:none;stroke:#808000;stroke-linecap:square;stroke-width:1.5;"/>
   </g>
   <g id="line2d_47">
    <path clip-path="url(#p80e58b1196)" d="M 123.77958 239.660308 
L 126.554406 239.660308 
L 129.329231 239.660308 
L 132.104056 239.660308 
L 134.878881 239.660308 
L 137.653706 233.717539 
L 140.428531 228.329282 
L 143.203357 232.129692 
L 145.978182 236.027732 
L 148.753007 238.101531 
L 151.527832 239.051496 
L 154.302657 239.399232 
L 157.077483 239.570906 
L 159.852308 239.625754 
L 162.627133 239.648241 
L 165.401958 239.650984 
L 168.176783 239.658114 
L 170.951608 239.658662 
L 173.726434 239.659759 
L 176.501259 239.660308 
L 179.276084 239.660308 
L 182.050909 239.660308 
L 184.825734 239.660308 
L 187.600559 239.660308 
L 190.375385 239.660308 
L 193.15021 239.660308 
L 195.925035 239.660308 
L 198.69986 239.660308 
L 201.474685 239.660308 
L 204.24951 239.660308 
L 207.024336 239.660308 
L 209.799161 239.660308 
L 212.573986 239.660308 
L 215.348811 239.660308 
L 218.123636 239.660308 
L 220.898462 239.660308 
L 223.673287 239.660308 
L 226.448112 239.660308 
L 229.222937 239.660308 
L 231.997762 239.660308 
" style="fill:none;stroke:#2f4f4f;stroke-linecap:square;stroke-width:1.5;"/>
   </g>
   <g id="line2d_48">
    <path clip-path="url(#p80e58b1196)" d="M 118.22993 245.863385 
L 121.004755 245.863385 
L 123.77958 245.863385 
L 126.554406 245.863385 
L 129.329231 245.863385 
L 132.104056 237.252594 
L 134.878881 234.944411 
L 137.653706 239.408595 
L 140.428531 242.899495 
L 143.203357 244.647392 
L 145.978182 245.386285 
L 148.753007 245.641717 
L 151.527832 245.777262 
L 154.302657 245.817877 
L 157.077483 245.848705 
L 159.852308 245.860449 
L 162.627133 245.860938 
L 165.401958 245.863385 
L 168.176783 245.863385 
L 170.951608 245.862895 
L 173.726434 245.863385 
L 176.501259 245.863385 
L 179.276084 245.863385 
L 182.050909 245.863385 
L 184.825734 245.863385 
L 187.600559 245.863385 
L 190.375385 245.863385 
L 193.15021 245.863385 
L 195.925035 245.863385 
L 198.69986 245.863385 
L 201.474685 245.863385 
L 204.24951 245.863385 
L 207.024336 245.863385 
L 209.799161 245.863385 
L 212.573986 245.863385 
L 215.348811 245.863385 
L 218.123636 245.863385 
L 220.898462 245.863385 
L 223.673287 245.863385 
L 226.448112 245.863385 
" style="fill:none;stroke:#708090;stroke-linecap:square;stroke-width:1.5;"/>
   </g>
   <g id="line2d_49">
    <path clip-path="url(#p80e58b1196)" d="M 112.68028 252.066462 
L 115.455105 252.066462 
L 118.22993 252.066462 
L 121.004755 252.066462 
L 123.77958 251.519123 
L 126.554406 241.31849 
L 129.329231 241.967433 
L 132.104056 246.629305 
L 134.878881 249.611613 
L 137.653706 251.022587 
L 140.428531 251.658277 
L 143.203357 251.90787 
L 145.978182 251.992688 
L 148.753007 252.038631 
L 151.527832 252.055418 
L 154.302657 252.062486 
L 157.077483 252.065578 
L 159.852308 252.06602 
L 162.627133 252.066462 
L 165.401958 252.06602 
L 168.176783 252.066462 
L 170.951608 252.066462 
L 173.726434 252.066462 
L 176.501259 252.066462 
L 179.276084 252.066462 
L 182.050909 252.066462 
L 184.825734 252.066462 
L 187.600559 252.066462 
L 190.375385 252.066462 
L 193.15021 252.066462 
L 195.925035 252.066462 
L 198.69986 252.066462 
L 201.474685 252.066462 
L 204.24951 252.066462 
L 207.024336 252.066462 
L 209.799161 252.066462 
L 212.573986 252.066462 
L 215.348811 252.066462 
L 218.123636 252.066462 
L 220.898462 252.066462 
" style="fill:none;stroke:#008080;stroke-linecap:square;stroke-width:1.5;"/>
   </g>
   <g id="line2d_50">
    <path clip-path="url(#p80e58b1196)" d="M 107.130629 258.269538 
L 109.905455 258.269538 
L 112.68028 258.269538 
L 115.455105 258.269538 
L 118.22993 254.929326 
L 121.004755 246.657353 
L 123.77958 249.717134 
L 126.554406 253.891728 
L 129.329231 256.403322 
L 132.104056 257.528891 
L 134.878881 257.964905 
L 137.653706 258.135853 
L 140.428531 258.217678 
L 143.203357 258.246489 
L 145.978182 258.262624 
L 148.753007 258.267234 
L 151.527832 258.266465 
L 154.302657 258.269154 
L 157.077483 258.269538 
L 159.852308 258.269538 
L 162.627133 258.269538 
L 165.401958 258.269538 
L 168.176783 258.269538 
L 170.951608 258.269538 
L 173.726434 258.269538 
L 176.501259 258.269538 
L 179.276084 258.269538 
L 182.050909 258.269538 
L 184.825734 258.269538 
L 187.600559 258.269538 
L 190.375385 258.269538 
L 193.15021 258.269538 
L 195.925035 258.269538 
L 198.69986 258.269538 
L 201.474685 258.269538 
L 204.24951 258.269538 
L 207.024336 258.269538 
L 209.799161 258.269538 
L 212.573986 258.269538 
L 215.348811 258.269538 
" style="fill:none;stroke:#808000;stroke-linecap:square;stroke-width:1.5;"/>
   </g>
   <g id="line2d_51">
    <path clip-path="url(#p80e58b1196)" d="M 101.580979 264.472615 
L 104.355804 264.472615 
L 107.130629 264.472615 
L 109.905455 264.472615 
L 112.68028 256.474205 
L 115.455105 253.468373 
L 118.22993 257.762863 
L 121.004755 261.353968 
L 123.77958 263.169932 
L 126.554406 263.938141 
L 129.329231 264.265994 
L 132.104056 264.388159 
L 134.878881 264.437399 
L 137.653706 264.461084 
L 140.428531 264.466382 
L 143.203357 264.471057 
L 145.978182 264.47168 
L 148.753007 264.472304 
L 151.527832 264.472304 
L 154.302657 264.472615 
L 157.077483 264.472615 
L 159.852308 264.472615 
L 162.627133 264.472615 
L 165.401958 264.472615 
L 168.176783 264.472615 
L 170.951608 264.472615 
L 173.726434 264.472615 
L 176.501259 264.472615 
L 179.276084 264.472615 
L 182.050909 264.472615 
L 184.825734 264.472615 
L 187.600559 264.472615 
L 190.375385 264.472615 
L 193.15021 264.472615 
L 195.925035 264.472615 
L 198.69986 264.472615 
L 201.474685 264.472615 
L 204.24951 264.472615 
L 207.024336 264.472615 
L 209.799161 264.472615 
" style="fill:none;stroke:#2f4f4f;stroke-linecap:square;stroke-width:1.5;"/>
   </g>
   <g id="line2d_52">
    <path clip-path="url(#p80e58b1196)" d="M 96.031329 270.675692 
L 98.806154 270.675692 
L 101.580979 270.675692 
L 104.355804 270.675692 
L 107.130629 259.056992 
L 109.905455 260.548129 
L 112.68028 265.348541 
L 115.455105 268.37176 
L 118.22993 269.711018 
L 121.004755 270.261826 
L 123.77958 270.529622 
L 126.554406 270.61068 
L 129.329231 270.646921 
L 132.104056 270.663243 
L 134.878881 270.671543 
L 137.653706 270.673202 
L 140.428531 270.675139 
L 143.203357 270.675692 
L 145.978182 270.675692 
L 148.753007 270.675692 
L 151.527832 270.675692 
L 154.302657 270.675692 
L 157.077483 270.675692 
L 159.852308 270.675692 
L 162.627133 270.675692 
L 165.401958 270.675692 
L 168.176783 270.675692 
L 170.951608 270.675692 
L 173.726434 270.675692 
L 176.501259 270.675692 
L 179.276084 270.675692 
L 182.050909 270.675692 
L 184.825734 270.675692 
L 187.600559 270.675692 
L 190.375385 270.675692 
L 193.15021 270.675692 
L 195.925035 270.675692 
L 198.69986 270.675692 
L 201.474685 270.675692 
L 204.24951 270.675692 
" style="fill:none;stroke:#708090;stroke-linecap:square;stroke-width:1.5;"/>
   </g>
   <g id="line2d_53">
    <path clip-path="url(#p80e58b1196)" d="M 90.481678 276.878769 
L 93.256503 276.878769 
L 96.031329 276.878769 
L 98.806154 269.439656 
L 101.580979 265.614048 
L 104.355804 270.032119 
L 107.130629 273.685306 
L 109.905455 275.536503 
L 112.68028 276.320434 
L 115.455105 276.655554 
L 118.22993 276.792658 
L 121.004755 276.840475 
L 123.77958 276.864483 
L 126.554406 276.873214 
L 129.329231 276.876984 
L 132.104056 276.877579 
L 134.878881 276.878769 
L 137.653706 276.878372 
L 140.428531 276.878769 
L 143.203357 276.878769 
L 145.978182 276.878769 
L 148.753007 276.878769 
L 151.527832 276.878769 
L 154.302657 276.878769 
L 157.077483 276.878769 
L 159.852308 276.878769 
L 162.627133 276.878769 
L 165.401958 276.878769 
L 168.176783 276.878769 
L 170.951608 276.878769 
L 173.726434 276.878769 
L 176.501259 276.878769 
L 179.276084 276.878769 
L 182.050909 276.878769 
L 184.825734 276.878769 
L 187.600559 276.878769 
L 190.375385 276.878769 
L 193.15021 276.878769 
L 195.925035 276.878769 
L 198.69986 276.878769 
" style="fill:none;stroke:#008080;stroke-linecap:square;stroke-width:1.5;"/>
   </g>
   <g id="line2d_54">
    <path clip-path="url(#p80e58b1196)" d="M 84.932028 283.081846 
L 87.706853 283.081846 
L 90.481678 283.081846 
L 93.256503 269.662029 
L 96.031329 273.51184 
L 98.806154 278.431738 
L 101.580979 281.077596 
L 104.355804 282.261007 
L 107.130629 282.753339 
L 109.905455 282.94815 
L 112.68028 283.027066 
L 115.455105 283.061817 
L 118.22993 283.073629 
L 121.004755 283.078936 
L 123.77958 283.080305 
L 126.554406 283.081504 
L 129.329231 283.081504 
L 132.104056 283.081846 
L 134.878881 283.081846 
L 137.653706 283.081846 
L 140.428531 283.081846 
L 143.203357 283.081846 
L 145.978182 283.081846 
L 148.753007 283.081846 
L 151.527832 283.081846 
L 154.302657 283.081846 
L 157.077483 283.081846 
L 159.852308 283.081846 
L 162.627133 283.081846 
L 165.401958 283.081846 
L 168.176783 283.081846 
L 170.951608 283.081846 
L 173.726434 283.081846 
L 176.501259 283.081846 
L 179.276084 283.081846 
L 182.050909 283.081846 
L 184.825734 283.081846 
L 187.600559 283.081846 
L 190.375385 283.081846 
L 193.15021 283.081846 
" style="fill:none;stroke:#808000;stroke-linecap:square;stroke-width:1.5;"/>
   </g>
   <g id="line2d_55">
    <path clip-path="url(#p80e58b1196)" d="M 79.382378 289.284923 
L 82.157203 289.284923 
L 84.932028 274.660243 
L 87.706853 280.12957 
L 90.481678 285.028314 
L 93.256503 287.51829 
L 96.031329 288.562496 
L 98.806154 288.995159 
L 101.580979 289.166111 
L 104.355804 289.23563 
L 107.130629 289.265917 
L 109.905455 289.276792 
L 112.68028 289.282585 
L 115.455105 289.283094 
L 118.22993 289.284618 
L 121.004755 289.28472 
L 123.77958 289.284923 
L 126.554406 289.284923 
L 129.329231 289.284923 
L 132.104056 289.284923 
L 134.878881 289.284923 
L 137.653706 289.284923 
L 140.428531 289.284923 
L 143.203357 289.284923 
L 145.978182 289.284923 
L 148.753007 289.284923 
L 151.527832 289.284923 
L 154.302657 289.284923 
L 157.077483 289.284923 
L 159.852308 289.284923 
L 162.627133 289.284923 
L 165.401958 289.284923 
L 168.176783 289.284923 
L 170.951608 289.284923 
L 173.726434 289.284923 
L 176.501259 289.284923 
L 179.276084 289.284923 
L 182.050909 289.284923 
L 184.825734 289.284923 
L 187.600559 289.284923 
" style="fill:none;stroke:#2f4f4f;stroke-linecap:square;stroke-width:1.5;"/>
   </g>
   <g id="line2d_56">
    <path clip-path="url(#p80e58b1196)" d="M 73.832727 276.872574 
L 76.607552 288.044883 
L 79.382378 292.512548 
L 82.157203 294.299703 
L 84.932028 295.015094 
L 87.706853 295.298383 
L 90.481678 295.409555 
L 93.256503 295.456428 
L 96.031329 295.475267 
L 98.806154 295.483048 
L 101.580979 295.486176 
L 104.355804 295.487255 
L 107.130629 295.487814 
L 109.905455 295.487888 
L 112.68028 295.488 
L 115.455105 295.488 
L 118.22993 295.488 
L 121.004755 295.488 
L 123.77958 295.488 
L 126.554406 295.488 
L 129.329231 295.488 
L 132.104056 295.488 
L 134.878881 295.488 
L 137.653706 295.488 
L 140.428531 295.488 
L 143.203357 295.488 
L 145.978182 295.488 
L 148.753007 295.488 
L 151.527832 295.488 
L 154.302657 295.488 
L 157.077483 295.488 
L 159.852308 295.488 
L 162.627133 295.488 
L 165.401958 295.488 
L 168.176783 295.488 
L 170.951608 295.488 
L 173.726434 295.488 
L 176.501259 295.488 
L 179.276084 295.488 
L 182.050909 295.488 
" style="fill:none;stroke:#708090;stroke-linecap:square;stroke-width:1.5;"/>
   </g>
   <g id="patch_3">
    <path d="M 57.6 307.584 
L 57.6 41.472 
" style="fill:none;stroke:#000000;stroke-linecap:square;stroke-linejoin:miter;stroke-width:0.8;"/>
   </g>
   <g id="patch_4">
    <path d="M 414.72 307.584 
L 414.72 41.472 
" style="fill:none;stroke:#000000;stroke-linecap:square;stroke-linejoin:miter;stroke-width:0.8;"/>
   </g>
   <g id="patch_5">
    <path d="M 57.6 307.584 
L 414.72 307.584 
" style="fill:none;stroke:#000000;stroke-linecap:square;stroke-linejoin:miter;stroke-width:0.8;"/>
   </g>
   <g id="patch_6">
    <path d="M 57.6 41.472 
L 414.72 41.472 
" style="fill:none;stroke:#000000;stroke-linecap:square;stroke-linejoin:miter;stroke-width:0.8;"/>
   </g>
  </g>
 </g>
 <defs>
  <clipPath id="p80e58b1196">
   <rect height="266.112" width="357.12" x="57.6" y="41.472"/>
  </clipPath>
 </defs>
</svg>
