<?xml version="1.0" encoding="utf-8" standalone="no"?>
<!DOCTYPE svg PUBLIC "-//W3C//DTD SVG 1.1//EN"
  "http://www.w3.org/Graphics/SVG/1.1/DTD/svg11.dtd">
<!-- Created with matplotlib (https://matplotlib.org/) -->
<svg height="345.6pt" version="1.1" viewBox="0 0 460.8 345.6" width="460.8pt" xmlns="http://www.w3.org/2000/svg" xmlns:xlink="http://www.w3.org/1999/xlink">
 <metadata>
  <rdf:RDF xmlns:cc="http://creativecommons.org/ns#" xmlns:dc="http://purl.org/dc/elements/1.1/" xmlns:rdf="http://www.w3.org/1999/02/22-rdf-syntax-ns#">
   <cc:Work>
    <dc:type rdf:resource="http://purl.org/dc/dcmitype/StillImage"/>
    <dc:date>2021-06-07T14:21:45.339783</dc:date>
    <dc:format>image/svg+xml</dc:format>
    <dc:creator>
     <cc:Agent>
      <dc:title>Matplotlib v3.3.4, https://matplotlib.org/</dc:title>
     </cc:Agent>
    </dc:creator>
   </cc:Work>
  </rdf:RDF>
 </metadata>
 <defs>
  <style type="text/css">*{stroke-linecap:butt;stroke-linejoin:round;}</style>
 </defs>
 <g id="figure_1">
  <g id="patch_1">
   <path d="M 0 345.6 
L 460.8 345.6 
L 460.8 0 
L 0 0 
z
" style="fill:#ffffff;"/>
  </g>
  <g id="axes_1">
   <g id="patch_2">
    <path d="M 57.6 307.584 
L 414.72 307.584 
L 414.72 41.472 
L 57.6 41.472 
z
" style="fill:#ffffff;"/>
   </g>
   <g id="matplotlib.axis_1">
    <g id="xtick_1">
     <g id="line2d_1">
      <defs>
       <path d="M 0 0 
L 0 3.5 
" id="m30eb572be5" style="stroke:#000000;stroke-width:0.8;"/>
      </defs>
      <g>
       <use style="stroke:#000000;stroke-width:0.8;" x="71.057902" xlink:href="#m30eb572be5" y="307.584"/>
      </g>
     </g>
     <g id="text_1">
      <!-- 0 -->
      <g transform="translate(67.876652 322.182437)scale(0.1 -0.1)">
       <defs>
        <path d="M 31.78125 66.40625 
Q 24.171875 66.40625 20.328125 58.90625 
Q 16.5 51.421875 16.5 36.375 
Q 16.5 21.390625 20.328125 13.890625 
Q 24.171875 6.390625 31.78125 6.390625 
Q 39.453125 6.390625 43.28125 13.890625 
Q 47.125 21.390625 47.125 36.375 
Q 47.125 51.421875 43.28125 58.90625 
Q 39.453125 66.40625 31.78125 66.40625 
z
M 31.78125 74.21875 
Q 44.046875 74.21875 50.515625 64.515625 
Q 56.984375 54.828125 56.984375 36.375 
Q 56.984375 17.96875 50.515625 8.265625 
Q 44.046875 -1.421875 31.78125 -1.421875 
Q 19.53125 -1.421875 13.0625 8.265625 
Q 6.59375 17.96875 6.59375 36.375 
Q 6.59375 54.828125 13.0625 64.515625 
Q 19.53125 74.21875 31.78125 74.21875 
z
" id="DejaVuSans-48"/>
       </defs>
       <use xlink:href="#DejaVuSans-48"/>
      </g>
     </g>
    </g>
    <g id="xtick_2">
     <g id="line2d_2">
      <g>
       <use style="stroke:#000000;stroke-width:0.8;" x="126.554406" xlink:href="#m30eb572be5" y="307.584"/>
      </g>
     </g>
     <g id="text_2">
      <!-- 20 -->
      <g transform="translate(120.191906 322.182437)scale(0.1 -0.1)">
       <defs>
        <path d="M 19.1875 8.296875 
L 53.609375 8.296875 
L 53.609375 0 
L 7.328125 0 
L 7.328125 8.296875 
Q 12.9375 14.109375 22.625 23.890625 
Q 32.328125 33.6875 34.8125 36.53125 
Q 39.546875 41.84375 41.421875 45.53125 
Q 43.3125 49.21875 43.3125 52.78125 
Q 43.3125 58.59375 39.234375 62.25 
Q 35.15625 65.921875 28.609375 65.921875 
Q 23.96875 65.921875 18.8125 64.3125 
Q 13.671875 62.703125 7.8125 59.421875 
L 7.8125 69.390625 
Q 13.765625 71.78125 18.9375 73 
Q 24.125 74.21875 28.421875 74.21875 
Q 39.75 74.21875 46.484375 68.546875 
Q 53.21875 62.890625 53.21875 53.421875 
Q 53.21875 48.921875 51.53125 44.890625 
Q 49.859375 40.875 45.40625 35.40625 
Q 44.1875 33.984375 37.640625 27.21875 
Q 31.109375 20.453125 19.1875 8.296875 
z
" id="DejaVuSans-50"/>
       </defs>
       <use xlink:href="#DejaVuSans-50"/>
       <use x="63.623047" xlink:href="#DejaVuSans-48"/>
      </g>
     </g>
    </g>
    <g id="xtick_3">
     <g id="line2d_3">
      <g>
       <use style="stroke:#000000;stroke-width:0.8;" x="182.050909" xlink:href="#m30eb572be5" y="307.584"/>
      </g>
     </g>
     <g id="text_3">
      <!-- 40 -->
      <g transform="translate(175.688409 322.182437)scale(0.1 -0.1)">
       <defs>
        <path d="M 37.796875 64.3125 
L 12.890625 25.390625 
L 37.796875 25.390625 
z
M 35.203125 72.90625 
L 47.609375 72.90625 
L 47.609375 25.390625 
L 58.015625 25.390625 
L 58.015625 17.1875 
L 47.609375 17.1875 
L 47.609375 0 
L 37.796875 0 
L 37.796875 17.1875 
L 4.890625 17.1875 
L 4.890625 26.703125 
z
" id="DejaVuSans-52"/>
       </defs>
       <use xlink:href="#DejaVuSans-52"/>
       <use x="63.623047" xlink:href="#DejaVuSans-48"/>
      </g>
     </g>
    </g>
    <g id="xtick_4">
     <g id="line2d_4">
      <g>
       <use style="stroke:#000000;stroke-width:0.8;" x="237.547413" xlink:href="#m30eb572be5" y="307.584"/>
      </g>
     </g>
     <g id="text_4">
      <!-- 60 -->
      <g transform="translate(231.184913 322.182437)scale(0.1 -0.1)">
       <defs>
        <path d="M 33.015625 40.375 
Q 26.375 40.375 22.484375 35.828125 
Q 18.609375 31.296875 18.609375 23.390625 
Q 18.609375 15.53125 22.484375 10.953125 
Q 26.375 6.390625 33.015625 6.390625 
Q 39.65625 6.390625 43.53125 10.953125 
Q 47.40625 15.53125 47.40625 23.390625 
Q 47.40625 31.296875 43.53125 35.828125 
Q 39.65625 40.375 33.015625 40.375 
z
M 52.59375 71.296875 
L 52.59375 62.3125 
Q 48.875 64.0625 45.09375 64.984375 
Q 41.3125 65.921875 37.59375 65.921875 
Q 27.828125 65.921875 22.671875 59.328125 
Q 17.53125 52.734375 16.796875 39.40625 
Q 19.671875 43.65625 24.015625 45.921875 
Q 28.375 48.1875 33.59375 48.1875 
Q 44.578125 48.1875 50.953125 41.515625 
Q 57.328125 34.859375 57.328125 23.390625 
Q 57.328125 12.15625 50.6875 5.359375 
Q 44.046875 -1.421875 33.015625 -1.421875 
Q 20.359375 -1.421875 13.671875 8.265625 
Q 6.984375 17.96875 6.984375 36.375 
Q 6.984375 53.65625 15.1875 63.9375 
Q 23.390625 74.21875 37.203125 74.21875 
Q 40.921875 74.21875 44.703125 73.484375 
Q 48.484375 72.75 52.59375 71.296875 
z
" id="DejaVuSans-54"/>
       </defs>
       <use xlink:href="#DejaVuSans-54"/>
       <use x="63.623047" xlink:href="#DejaVuSans-48"/>
      </g>
     </g>
    </g>
    <g id="xtick_5">
     <g id="line2d_5">
      <g>
       <use style="stroke:#000000;stroke-width:0.8;" x="293.043916" xlink:href="#m30eb572be5" y="307.584"/>
      </g>
     </g>
     <g id="text_5">
      <!-- 80 -->
      <g transform="translate(286.681416 322.182437)scale(0.1 -0.1)">
       <defs>
        <path d="M 31.78125 34.625 
Q 24.75 34.625 20.71875 30.859375 
Q 16.703125 27.09375 16.703125 20.515625 
Q 16.703125 13.921875 20.71875 10.15625 
Q 24.75 6.390625 31.78125 6.390625 
Q 38.8125 6.390625 42.859375 10.171875 
Q 46.921875 13.96875 46.921875 20.515625 
Q 46.921875 27.09375 42.890625 30.859375 
Q 38.875 34.625 31.78125 34.625 
z
M 21.921875 38.8125 
Q 15.578125 40.375 12.03125 44.71875 
Q 8.5 49.078125 8.5 55.328125 
Q 8.5 64.0625 14.71875 69.140625 
Q 20.953125 74.21875 31.78125 74.21875 
Q 42.671875 74.21875 48.875 69.140625 
Q 55.078125 64.0625 55.078125 55.328125 
Q 55.078125 49.078125 51.53125 44.71875 
Q 48 40.375 41.703125 38.8125 
Q 48.828125 37.15625 52.796875 32.3125 
Q 56.78125 27.484375 56.78125 20.515625 
Q 56.78125 9.90625 50.3125 4.234375 
Q 43.84375 -1.421875 31.78125 -1.421875 
Q 19.734375 -1.421875 13.25 4.234375 
Q 6.78125 9.90625 6.78125 20.515625 
Q 6.78125 27.484375 10.78125 32.3125 
Q 14.796875 37.15625 21.921875 38.8125 
z
M 18.3125 54.390625 
Q 18.3125 48.734375 21.84375 45.5625 
Q 25.390625 42.390625 31.78125 42.390625 
Q 38.140625 42.390625 41.71875 45.5625 
Q 45.3125 48.734375 45.3125 54.390625 
Q 45.3125 60.0625 41.71875 63.234375 
Q 38.140625 66.40625 31.78125 66.40625 
Q 25.390625 66.40625 21.84375 63.234375 
Q 18.3125 60.0625 18.3125 54.390625 
z
" id="DejaVuSans-56"/>
       </defs>
       <use xlink:href="#DejaVuSans-56"/>
       <use x="63.623047" xlink:href="#DejaVuSans-48"/>
      </g>
     </g>
    </g>
    <g id="xtick_6">
     <g id="line2d_6">
      <g>
       <use style="stroke:#000000;stroke-width:0.8;" x="348.54042" xlink:href="#m30eb572be5" y="307.584"/>
      </g>
     </g>
     <g id="text_6">
      <!-- 100 -->
      <g transform="translate(338.99667 322.182437)scale(0.1 -0.1)">
       <defs>
        <path d="M 12.40625 8.296875 
L 28.515625 8.296875 
L 28.515625 63.921875 
L 10.984375 60.40625 
L 10.984375 69.390625 
L 28.421875 72.90625 
L 38.28125 72.90625 
L 38.28125 8.296875 
L 54.390625 8.296875 
L 54.390625 0 
L 12.40625 0 
z
" id="DejaVuSans-49"/>
       </defs>
       <use xlink:href="#DejaVuSans-49"/>
       <use x="63.623047" xlink:href="#DejaVuSans-48"/>
       <use x="127.246094" xlink:href="#DejaVuSans-48"/>
      </g>
     </g>
    </g>
    <g id="xtick_7">
     <g id="line2d_7">
      <g>
       <use style="stroke:#000000;stroke-width:0.8;" x="404.036923" xlink:href="#m30eb572be5" y="307.584"/>
      </g>
     </g>
     <g id="text_7">
      <!-- 120 -->
      <g transform="translate(394.493173 322.182437)scale(0.1 -0.1)">
       <use xlink:href="#DejaVuSans-49"/>
       <use x="63.623047" xlink:href="#DejaVuSans-50"/>
       <use x="127.246094" xlink:href="#DejaVuSans-48"/>
      </g>
     </g>
    </g>
   </g>
   <g id="matplotlib.axis_2">
    <g id="ytick_1">
     <g id="line2d_8">
      <defs>
       <path d="M 0 0 
L -3.5 0 
" id="m6fe8675096" style="stroke:#000000;stroke-width:0.8;"/>
      </defs>
      <g>
       <use style="stroke:#000000;stroke-width:0.8;" x="57.6" xlink:href="#m6fe8675096" y="298.406845"/>
      </g>
     </g>
     <g id="text_8">
      <!-- 0 -->
      <g transform="translate(44.2375 302.206064)scale(0.1 -0.1)">
       <use xlink:href="#DejaVuSans-48"/>
      </g>
     </g>
    </g>
    <g id="ytick_2">
     <g id="line2d_9">
      <g>
       <use style="stroke:#000000;stroke-width:0.8;" x="57.6" xlink:href="#m6fe8675096" y="240.029937"/>
      </g>
     </g>
     <g id="text_9">
      <!-- 2 -->
      <g transform="translate(44.2375 243.829156)scale(0.1 -0.1)">
       <use xlink:href="#DejaVuSans-50"/>
      </g>
     </g>
    </g>
    <g id="ytick_3">
     <g id="line2d_10">
      <g>
       <use style="stroke:#000000;stroke-width:0.8;" x="57.6" xlink:href="#m6fe8675096" y="181.653029"/>
      </g>
     </g>
     <g id="text_10">
      <!-- 4 -->
      <g transform="translate(44.2375 185.452247)scale(0.1 -0.1)">
       <use xlink:href="#DejaVuSans-52"/>
      </g>
     </g>
    </g>
    <g id="ytick_4">
     <g id="line2d_11">
      <g>
       <use style="stroke:#000000;stroke-width:0.8;" x="57.6" xlink:href="#m6fe8675096" y="123.27612"/>
      </g>
     </g>
     <g id="text_11">
      <!-- 6 -->
      <g transform="translate(44.2375 127.075339)scale(0.1 -0.1)">
       <use xlink:href="#DejaVuSans-54"/>
      </g>
     </g>
    </g>
    <g id="ytick_5">
     <g id="line2d_12">
      <g>
       <use style="stroke:#000000;stroke-width:0.8;" x="57.6" xlink:href="#m6fe8675096" y="64.899212"/>
      </g>
     </g>
     <g id="text_12">
      <!-- 8 -->
      <g transform="translate(44.2375 68.698431)scale(0.1 -0.1)">
       <use xlink:href="#DejaVuSans-56"/>
      </g>
     </g>
    </g>
   </g>
   <g id="line2d_13">
    <path clip-path="url(#p973d9d0c61)" d="M 290.269091 67.818057 
L 293.043916 67.818057 
L 295.818741 67.818057 
L 298.593566 67.818057 
L 301.368392 67.818057 
L 304.143217 67.818057 
L 306.918042 67.818057 
L 309.692867 67.818057 
L 312.467692 66.782125 
L 315.242517 53.568 
L 318.017343 58.258308 
L 320.792168 64.605256 
L 323.566993 66.963153 
L 326.341818 67.60849 
L 329.116643 67.768078 
L 331.891469 67.80624 
L 334.666294 67.815271 
L 337.441119 67.817401 
L 340.215944 67.817903 
L 342.990769 67.818021 
L 345.765594 67.818049 
L 348.54042 67.818055 
L 351.315245 67.818057 
L 354.09007 67.818057 
L 356.864895 67.818057 
L 359.63972 67.818057 
L 362.414545 67.818057 
L 365.189371 67.818057 
L 367.964196 67.818057 
L 370.739021 67.818057 
L 373.513846 67.818057 
L 376.288671 67.818057 
L 379.063497 67.818057 
L 381.838322 67.818057 
L 384.613147 67.818057 
L 387.387972 67.818057 
L 390.162797 67.818057 
L 392.937622 67.818057 
L 395.712448 67.818057 
L 398.487273 67.818057 
" style="fill:none;stroke:#008080;stroke-linecap:square;stroke-width:1.5;"/>
   </g>
   <g id="line2d_14">
    <path clip-path="url(#p973d9d0c61)" d="M 284.719441 73.655748 
L 287.494266 73.655748 
L 290.269091 73.655748 
L 293.043916 73.655748 
L 295.818741 73.655748 
L 298.593566 73.655748 
L 301.368392 73.655748 
L 304.143217 73.655748 
L 306.918042 72.204526 
L 309.692867 59.143391 
L 312.467692 64.501151 
L 315.242517 70.638601 
L 318.017343 72.858442 
L 320.792168 73.460763 
L 323.566993 73.609282 
L 326.341818 73.644765 
L 329.116643 73.653158 
L 331.891469 73.655138 
L 334.666294 73.655604 
L 337.441119 73.655714 
L 340.215944 73.65574 
L 342.990769 73.655746 
L 345.765594 73.655748 
L 348.54042 73.655748 
L 351.315245 73.655748 
L 354.09007 73.655748 
L 356.864895 73.655748 
L 359.63972 73.655748 
L 362.414545 73.655748 
L 365.189371 73.655748 
L 367.964196 73.655748 
L 370.739021 73.655748 
L 373.513846 73.655748 
L 376.288671 73.655748 
L 379.063497 73.655748 
L 381.838322 73.655748 
L 384.613147 73.655748 
L 387.387972 73.655748 
L 390.162797 73.655748 
L 392.937622 73.655748 
" style="fill:none;stroke:#808000;stroke-linecap:square;stroke-width:1.5;"/>
   </g>
   <g id="line2d_15">
    <path clip-path="url(#p973d9d0c61)" d="M 279.16979 79.493439 
L 281.944615 79.493439 
L 284.719441 79.493439 
L 287.494266 79.493439 
L 290.269091 79.493439 
L 293.043916 79.493439 
L 295.818741 79.493439 
L 298.593566 79.493439 
L 301.368392 77.517869 
L 304.143217 64.814592 
L 306.918042 70.761691 
L 309.692867 76.669618 
L 312.467692 78.752211 
L 315.242517 79.312584 
L 318.017343 79.450372 
L 320.792168 79.483261 
L 323.566993 79.491039 
L 326.341818 79.492874 
L 329.116643 79.493306 
L 331.891469 79.493408 
L 334.666294 79.493432 
L 337.441119 79.493437 
L 340.215944 79.493439 
L 342.990769 79.493439 
L 345.765594 79.493439 
L 348.54042 79.493439 
L 351.315245 79.493439 
L 354.09007 79.493439 
L 356.864895 79.493439 
L 359.63972 79.493439 
L 362.414545 79.493439 
L 365.189371 79.493439 
L 367.964196 79.493439 
L 370.739021 79.493439 
L 373.513846 79.493439 
L 376.288671 79.493439 
L 379.063497 79.493439 
L 381.838322 79.493439 
L 384.613147 79.493439 
L 387.387972 79.493439 
" style="fill:none;stroke:#2f4f4f;stroke-linecap:square;stroke-width:1.5;"/>
   </g>
   <g id="line2d_16">
    <path clip-path="url(#p973d9d0c61)" d="M 273.62014 85.33113 
L 276.394965 85.33113 
L 279.16979 85.33113 
L 281.944615 85.33113 
L 284.719441 85.33113 
L 287.494266 85.33113 
L 290.269091 85.33113 
L 293.043916 85.33113 
L 295.818741 82.714839 
L 298.593566 70.589067 
L 301.368392 77.03958 
L 304.143217 82.698395 
L 306.918042 84.644539 
L 309.692867 85.163977 
L 312.467692 85.291354 
L 315.242517 85.321732 
L 318.017343 85.328914 
L 320.792168 85.330608 
L 323.566993 85.331007 
L 326.341818 85.331101 
L 329.116643 85.331123 
L 331.891469 85.331128 
L 334.666294 85.33113 
L 337.441119 85.33113 
L 340.215944 85.33113 
L 342.990769 85.33113 
L 345.765594 85.33113 
L 348.54042 85.33113 
L 351.315245 85.33113 
L 354.09007 85.33113 
L 356.864895 85.33113 
L 359.63972 85.33113 
L 362.414545 85.33113 
L 365.189371 85.33113 
L 367.964196 85.33113 
L 370.739021 85.33113 
L 373.513846 85.33113 
L 376.288671 85.33113 
L 379.063497 85.33113 
L 381.838322 85.33113 
" style="fill:none;stroke:#708090;stroke-linecap:square;stroke-width:1.5;"/>
   </g>
   <g id="line2d_17">
    <path clip-path="url(#p973d9d0c61)" d="M 268.07049 91.168821 
L 270.845315 91.168821 
L 273.62014 91.168821 
L 276.394965 91.168821 
L 279.16979 91.168821 
L 281.944615 91.168821 
L 284.719441 91.168821 
L 287.494266 91.168821 
L 290.269091 87.79437 
L 293.043916 76.470499 
L 295.818741 83.332725 
L 298.593566 88.724486 
L 301.368392 90.535362 
L 304.143217 91.014933 
L 306.918042 91.132226 
L 309.692867 91.160176 
L 312.467692 91.166783 
L 315.242517 91.16834 
L 318.017343 91.168708 
L 320.792168 91.168794 
L 323.566993 91.168814 
L 326.341818 91.168819 
L 329.116643 91.16882 
L 331.891469 91.168821 
L 334.666294 91.168821 
L 337.441119 91.168821 
L 340.215944 91.168821 
L 342.990769 91.168821 
L 345.765594 91.168821 
L 348.54042 91.168821 
L 351.315245 91.168821 
L 354.09007 91.168821 
L 356.864895 91.168821 
L 359.63972 91.168821 
L 362.414545 91.168821 
L 365.189371 91.168821 
L 367.964196 91.168821 
L 370.739021 91.168821 
L 373.513846 91.168821 
L 376.288671 91.168821 
" style="fill:none;stroke:#008080;stroke-linecap:square;stroke-width:1.5;"/>
   </g>
   <g id="line2d_18">
    <path clip-path="url(#p973d9d0c61)" d="M 262.520839 97.006512 
L 265.295664 97.006512 
L 268.07049 97.006512 
L 270.845315 97.006512 
L 273.62014 97.006512 
L 276.394965 97.006512 
L 279.16979 97.006512 
L 281.944615 97.006512 
L 284.719441 92.762621 
L 287.494266 82.457843 
L 290.269091 89.637219 
L 293.043916 94.746933 
L 295.818741 96.424484 
L 298.593566 96.865409 
L 301.368392 96.972979 
L 304.143217 96.998592 
L 306.918042 97.004645 
L 309.692867 97.006072 
L 312.467692 97.006408 
L 315.242517 97.006487 
L 318.017343 97.006506 
L 320.792168 97.00651 
L 323.566993 97.006511 
L 326.341818 97.006511 
L 329.116643 97.006512 
L 331.891469 97.006512 
L 334.666294 97.006512 
L 337.441119 97.006512 
L 340.215944 97.006512 
L 342.990769 97.006512 
L 345.765594 97.006512 
L 348.54042 97.006512 
L 351.315245 97.006512 
L 354.09007 97.006512 
L 356.864895 97.006512 
L 359.63972 97.006512 
L 362.414545 97.006512 
L 365.189371 97.006512 
L 367.964196 97.006512 
L 370.739021 97.006512 
" style="fill:none;stroke:#808000;stroke-linecap:square;stroke-width:1.5;"/>
   </g>
   <g id="line2d_19">
    <path clip-path="url(#p973d9d0c61)" d="M 256.971189 102.844202 
L 259.746014 102.844202 
L 262.520839 102.844202 
L 265.295664 102.844202 
L 268.07049 102.844202 
L 270.845315 102.844202 
L 273.62014 102.844202 
L 276.394965 102.844202 
L 279.16979 97.633006 
L 281.944615 88.544931 
L 284.719441 95.947559 
L 287.494266 100.76437 
L 290.269091 102.311613 
L 293.043916 102.715341 
L 295.818741 102.813598 
L 298.593566 102.836976 
L 301.368392 102.842499 
L 304.143217 102.843801 
L 306.918042 102.844108 
L 309.692867 102.84418 
L 312.467692 102.844197 
L 315.242517 102.844201 
L 318.017343 102.844202 
L 320.792168 102.844202 
L 323.566993 102.844202 
L 326.341818 102.844202 
L 329.116643 102.844202 
L 331.891469 102.844202 
L 334.666294 102.844202 
L 337.441119 102.844202 
L 340.215944 102.844202 
L 342.990769 102.844202 
L 345.765594 102.844202 
L 348.54042 102.844202 
L 351.315245 102.844202 
L 354.09007 102.844202 
L 356.864895 102.844202 
L 359.63972 102.844202 
L 362.414545 102.844202 
L 365.189371 102.844202 
" style="fill:none;stroke:#2f4f4f;stroke-linecap:square;stroke-width:1.5;"/>
   </g>
   <g id="line2d_20">
    <path clip-path="url(#p973d9d0c61)" d="M 251.421538 108.681893 
L 254.196364 108.681893 
L 256.971189 108.681893 
L 259.746014 108.681893 
L 262.520839 108.681893 
L 265.295664 108.681893 
L 268.07049 108.681893 
L 270.845315 108.681893 
L 273.62014 102.425192 
L 276.394965 94.720766 
L 279.16979 102.257126 
L 281.944615 106.775198 
L 284.719441 108.196398 
L 287.494266 108.56465 
L 290.269091 108.654065 
L 293.043916 108.675323 
L 295.818741 108.680345 
L 298.593566 108.681528 
L 301.368392 108.681807 
L 304.143217 108.681873 
L 306.918042 108.681888 
L 309.692867 108.681892 
L 312.467692 108.681893 
L 315.242517 108.681893 
L 318.017343 108.681893 
L 320.792168 108.681893 
L 323.566993 108.681893 
L 326.341818 108.681893 
L 329.116643 108.681893 
L 331.891469 108.681893 
L 334.666294 108.681893 
L 337.441119 108.681893 
L 340.215944 108.681893 
L 342.990769 108.681893 
L 345.765594 108.681893 
L 348.54042 108.681893 
L 351.315245 108.681893 
L 354.09007 108.681893 
L 356.864895 108.681893 
L 359.63972 108.681893 
" style="fill:none;stroke:#708090;stroke-linecap:square;stroke-width:1.5;"/>
   </g>
   <g id="line2d_21">
    <path clip-path="url(#p973d9d0c61)" d="M 245.871888 114.519584 
L 248.646713 114.519584 
L 251.421538 114.519584 
L 254.196364 114.519584 
L 256.971189 114.519584 
L 259.746014 114.519584 
L 262.520839 114.519584 
L 265.295664 114.519547 
L 268.07049 107.163257 
L 270.845315 100.970477 
L 273.62014 108.55884 
L 276.394965 112.777779 
L 279.16979 114.078489 
L 281.944615 114.413258 
L 284.719441 114.494362 
L 287.494266 114.51363 
L 290.269091 114.518181 
L 293.043916 114.519253 
L 295.818741 114.519506 
L 298.593566 114.519566 
L 301.368392 114.51958 
L 304.143217 114.519583 
L 306.918042 114.519584 
L 309.692867 114.519584 
L 312.467692 114.519584 
L 315.242517 114.519584 
L 318.017343 114.519584 
L 320.792168 114.519584 
L 323.566993 114.519584 
L 326.341818 114.519584 
L 329.116643 114.519584 
L 331.891469 114.519584 
L 334.666294 114.519584 
L 337.441119 114.519584 
L 340.215944 114.519584 
L 342.990769 114.519584 
L 345.765594 114.519584 
L 348.54042 114.519584 
L 351.315245 114.519584 
L 354.09007 114.519584 
" style="fill:none;stroke:#008080;stroke-linecap:square;stroke-width:1.5;"/>
   </g>
   <g id="line2d_22">
    <path clip-path="url(#p973d9d0c61)" d="M 240.322238 120.357275 
L 243.097063 120.357275 
L 245.871888 120.357275 
L 248.646713 120.357275 
L 251.421538 120.357275 
L 254.196364 120.357275 
L 256.971189 120.357275 
L 259.746014 120.356817 
L 262.520839 111.873424 
L 265.295664 107.276852 
L 268.07049 114.845887 
L 270.845315 118.770654 
L 273.62014 119.957583 
L 276.394965 120.261097 
L 279.16979 120.334473 
L 281.944615 120.351893 
L 284.719441 120.356006 
L 287.494266 120.356976 
L 290.269091 120.357204 
L 293.043916 120.357258 
L 295.818741 120.357271 
L 298.593566 120.357274 
L 301.368392 120.357275 
L 304.143217 120.357275 
L 306.918042 120.357275 
L 309.692867 120.357275 
L 312.467692 120.357275 
L 315.242517 120.357275 
L 318.017343 120.357275 
L 320.792168 120.357275 
L 323.566993 120.357275 
L 326.341818 120.357275 
L 329.116643 120.357275 
L 331.891469 120.357275 
L 334.666294 120.357275 
L 337.441119 120.357275 
L 340.215944 120.357275 
L 342.990769 120.357275 
L 345.765594 120.357275 
L 348.54042 120.357275 
" style="fill:none;stroke:#808000;stroke-linecap:square;stroke-width:1.5;"/>
   </g>
   <g id="line2d_23">
    <path clip-path="url(#p973d9d0c61)" d="M 234.772587 126.194966 
L 237.547413 126.194966 
L 240.322238 126.194966 
L 243.097063 126.194966 
L 245.871888 126.194966 
L 248.646713 126.194966 
L 251.421538 126.194966 
L 254.196364 126.191996 
L 256.971189 116.582051 
L 259.746014 113.622373 
L 262.520839 121.112489 
L 265.295664 124.752728 
L 268.07049 125.833475 
L 270.845315 126.108126 
L 273.62014 126.174388 
L 276.394965 126.19011 
L 279.16979 126.193821 
L 281.944615 126.194696 
L 284.719441 126.194902 
L 287.494266 126.194951 
L 290.269091 126.194962 
L 293.043916 126.194965 
L 295.818741 126.194966 
L 298.593566 126.194966 
L 301.368392 126.194966 
L 304.143217 126.194966 
L 306.918042 126.194966 
L 309.692867 126.194966 
L 312.467692 126.194966 
L 315.242517 126.194966 
L 318.017343 126.194966 
L 320.792168 126.194966 
L 323.566993 126.194966 
L 326.341818 126.194966 
L 329.116643 126.194966 
L 331.891469 126.194966 
L 334.666294 126.194966 
L 337.441119 126.194966 
L 340.215944 126.194966 
L 342.990769 126.194966 
" style="fill:none;stroke:#2f4f4f;stroke-linecap:square;stroke-width:1.5;"/>
   </g>
   <g id="line2d_24">
    <path clip-path="url(#p973d9d0c61)" d="M 229.222937 132.032657 
L 231.997762 132.032657 
L 234.772587 132.032657 
L 237.547413 132.032657 
L 240.322238 132.032657 
L 243.097063 132.032657 
L 245.871888 132.032657 
L 248.646713 132.01941 
L 251.421538 121.314742 
L 254.196364 119.991707 
L 256.971189 127.354667 
L 259.746014 130.723462 
L 262.520839 131.706097 
L 265.295664 131.954333 
L 268.07049 132.014106 
L 270.845315 132.02828 
L 273.62014 132.031625 
L 276.394965 132.032414 
L 279.16979 132.032599 
L 281.944615 132.032643 
L 284.719441 132.032653 
L 287.494266 132.032656 
L 290.269091 132.032656 
L 293.043916 132.032657 
L 295.818741 132.032657 
L 298.593566 132.032657 
L 301.368392 132.032657 
L 304.143217 132.032657 
L 306.918042 132.032657 
L 309.692867 132.032657 
L 312.467692 132.032657 
L 315.242517 132.032657 
L 318.017343 132.032657 
L 320.792168 132.032657 
L 323.566993 132.032657 
L 326.341818 132.032657 
L 329.116643 132.032657 
L 331.891469 132.032657 
L 334.666294 132.032657 
L 337.441119 132.032657 
" style="fill:none;stroke:#708090;stroke-linecap:square;stroke-width:1.5;"/>
   </g>
   <g id="line2d_25">
    <path clip-path="url(#p973d9d0c61)" d="M 223.673287 137.870347 
L 226.448112 137.870347 
L 229.222937 137.870347 
L 231.997762 137.870347 
L 234.772587 137.870347 
L 237.547413 137.870347 
L 240.322238 137.870347 
L 243.097063 137.824732 
L 245.871888 126.097374 
L 248.646713 126.374474 
L 251.421538 133.570941 
L 254.196364 136.68302 
L 256.971189 137.575556 
L 259.746014 137.799751 
L 262.520839 137.853635 
L 265.295664 137.866405 
L 268.07049 137.869418 
L 270.845315 137.870128 
L 273.62014 137.870296 
L 276.394965 137.870335 
L 279.16979 137.870345 
L 281.944615 137.870347 
L 284.719441 137.870347 
L 287.494266 137.870347 
L 290.269091 137.870347 
L 293.043916 137.870347 
L 295.818741 137.870347 
L 298.593566 137.870347 
L 301.368392 137.870347 
L 304.143217 137.870347 
L 306.918042 137.870347 
L 309.692867 137.870347 
L 312.467692 137.870347 
L 315.242517 137.870347 
L 318.017343 137.870347 
L 320.792168 137.870347 
L 323.566993 137.870347 
L 326.341818 137.870347 
L 329.116643 137.870347 
L 331.891469 137.870347 
" style="fill:none;stroke:#008080;stroke-linecap:square;stroke-width:1.5;"/>
   </g>
   <g id="line2d_26">
    <path clip-path="url(#p973d9d0c61)" d="M 218.123636 143.708038 
L 220.898462 143.708038 
L 223.673287 143.708038 
L 226.448112 143.708038 
L 229.222937 143.708038 
L 231.997762 143.708038 
L 234.772587 143.708038 
L 237.547413 143.578766 
L 240.322238 130.959321 
L 243.097063 132.767695 
L 245.871888 139.762777 
L 248.646713 142.632344 
L 251.421538 143.442144 
L 254.196364 143.644455 
L 256.971189 143.692993 
L 259.746014 143.704489 
L 262.520839 143.707202 
L 265.295664 143.707841 
L 268.07049 143.707992 
L 270.845315 143.708027 
L 273.62014 143.708036 
L 276.394965 143.708038 
L 279.16979 143.708038 
L 281.944615 143.708038 
L 284.719441 143.708038 
L 287.494266 143.708038 
L 290.269091 143.708038 
L 293.043916 143.708038 
L 295.818741 143.708038 
L 298.593566 143.708038 
L 301.368392 143.708038 
L 304.143217 143.708038 
L 306.918042 143.708038 
L 309.692867 143.708038 
L 312.467692 143.708038 
L 315.242517 143.708038 
L 318.017343 143.708038 
L 320.792168 143.708038 
L 323.566993 143.708038 
L 326.341818 143.708038 
" style="fill:none;stroke:#808000;stroke-linecap:square;stroke-width:1.5;"/>
   </g>
   <g id="line2d_27">
    <path clip-path="url(#p973d9d0c61)" d="M 212.573986 149.545729 
L 215.348811 149.545729 
L 218.123636 149.545729 
L 220.898462 149.545729 
L 223.673287 149.545729 
L 226.448112 149.545729 
L 229.222937 149.545729 
L 231.997762 149.232069 
L 234.772587 135.937847 
L 237.547413 139.176966 
L 240.322238 145.9345 
L 243.097063 148.573085 
L 245.871888 149.306321 
L 248.646713 149.488558 
L 251.421538 149.532206 
L 254.196364 149.54254 
L 256.971189 149.544978 
L 259.746014 149.545552 
L 262.520839 149.545687 
L 265.295664 149.545719 
L 268.07049 149.545727 
L 270.845315 149.545729 
L 273.62014 149.545729 
L 276.394965 149.545729 
L 279.16979 149.545729 
L 281.944615 149.545729 
L 284.719441 149.545729 
L 287.494266 149.545729 
L 290.269091 149.545729 
L 293.043916 149.545729 
L 295.818741 149.545729 
L 298.593566 149.545729 
L 301.368392 149.545729 
L 304.143217 149.545729 
L 306.918042 149.545729 
L 309.692867 149.545729 
L 312.467692 149.545729 
L 315.242517 149.545729 
L 318.017343 149.545729 
L 320.792168 149.545729 
" style="fill:none;stroke:#2f4f4f;stroke-linecap:square;stroke-width:1.5;"/>
   </g>
   <g id="line2d_28">
    <path clip-path="url(#p973d9d0c61)" d="M 207.024336 155.38342 
L 209.799161 155.38342 
L 212.573986 155.38342 
L 215.348811 155.38342 
L 218.123636 155.38342 
L 220.898462 155.38342 
L 223.673287 155.38342 
L 226.448112 154.714969 
L 229.222937 141.08084 
L 231.997762 145.61502 
L 234.772587 152.092358 
L 237.547413 154.507312 
L 240.322238 155.168638 
L 243.097063 155.332196 
L 245.871888 155.371309 
L 248.646713 155.380564 
L 251.421538 155.382747 
L 254.196364 155.383261 
L 256.971189 155.383383 
L 259.746014 155.383411 
L 262.520839 155.383418 
L 265.295664 155.383419 
L 268.07049 155.38342 
L 270.845315 155.38342 
L 273.62014 155.38342 
L 276.394965 155.38342 
L 279.16979 155.38342 
L 281.944615 155.38342 
L 284.719441 155.38342 
L 287.494266 155.38342 
L 290.269091 155.38342 
L 293.043916 155.38342 
L 295.818741 155.38342 
L 298.593566 155.38342 
L 301.368392 155.38342 
L 304.143217 155.38342 
L 306.918042 155.38342 
L 309.692867 155.38342 
L 312.467692 155.38342 
L 315.242517 155.38342 
" style="fill:none;stroke:#708090;stroke-linecap:square;stroke-width:1.5;"/>
   </g>
   <g id="line2d_29">
    <path clip-path="url(#p973d9d0c61)" d="M 201.474685 161.221111 
L 204.24951 161.221111 
L 207.024336 161.221111 
L 209.799161 161.221111 
L 212.573986 161.221111 
L 215.348811 161.221111 
L 218.123636 161.221111 
L 220.898462 159.947984 
L 223.673287 146.443825 
L 226.448112 152.096845 
L 229.222937 158.242654 
L 231.997762 160.437007 
L 234.772587 161.029616 
L 237.547413 161.175497 
L 240.322238 161.21033 
L 243.097063 161.218569 
L 245.871888 161.220512 
L 248.646713 161.22097 
L 251.421538 161.221078 
L 254.196364 161.221103 
L 256.971189 161.221109 
L 259.746014 161.22111 
L 262.520839 161.221111 
L 265.295664 161.221111 
L 268.07049 161.221111 
L 270.845315 161.221111 
L 273.62014 161.221111 
L 276.394965 161.221111 
L 279.16979 161.221111 
L 281.944615 161.221111 
L 284.719441 161.221111 
L 287.494266 161.221111 
L 290.269091 161.221111 
L 293.043916 161.221111 
L 295.818741 161.221111 
L 298.593566 161.221111 
L 301.368392 161.221111 
L 304.143217 161.221111 
L 306.918042 161.221111 
L 309.692867 161.221111 
" style="fill:none;stroke:#008080;stroke-linecap:square;stroke-width:1.5;"/>
   </g>
   <g id="line2d_30">
    <path clip-path="url(#p973d9d0c61)" d="M 195.925035 167.058802 
L 198.69986 167.058802 
L 201.474685 167.058802 
L 204.24951 167.058802 
L 207.024336 167.058802 
L 209.799161 167.058802 
L 212.573986 167.058802 
L 215.348811 164.863975 
L 218.123636 152.078555 
L 220.898462 158.632114 
L 223.673287 164.389367 
L 226.448112 166.363455 
L 229.222937 166.889594 
L 231.997762 167.018543 
L 234.772587 167.04929 
L 237.547413 167.056559 
L 240.322238 167.058273 
L 243.097063 167.058677 
L 245.871888 167.058772 
L 248.646713 167.058795 
L 251.421538 167.0588 
L 254.196364 167.058801 
L 256.971189 167.058802 
L 259.746014 167.058802 
L 262.520839 167.058802 
L 265.295664 167.058802 
L 268.07049 167.058802 
L 270.845315 167.058802 
L 273.62014 167.058802 
L 276.394965 167.058802 
L 279.16979 167.058802 
L 281.944615 167.058802 
L 284.719441 167.058802 
L 287.494266 167.058802 
L 290.269091 167.058802 
L 293.043916 167.058802 
L 295.818741 167.058802 
L 298.593566 167.058802 
L 301.368392 167.058802 
L 304.143217 167.058802 
" style="fill:none;stroke:#808000;stroke-linecap:square;stroke-width:1.5;"/>
   </g>
   <g id="line2d_31">
    <path clip-path="url(#p973d9d0c61)" d="M 190.375385 172.896492 
L 193.15021 172.896492 
L 195.925035 172.896492 
L 198.69986 172.896492 
L 201.474685 172.896492 
L 204.24951 172.896492 
L 207.024336 172.896492 
L 209.799161 169.43523 
L 212.573986 158.015574 
L 215.348811 165.217976 
L 218.123636 170.532285 
L 220.898462 172.286804 
L 223.673287 172.748633 
L 226.448112 172.861351 
L 229.222937 172.888193 
L 231.997762 172.894536 
L 234.772587 172.896031 
L 237.547413 172.896384 
L 240.322238 172.896467 
L 243.097063 172.896486 
L 245.871888 172.896491 
L 248.646713 172.896492 
L 251.421538 172.896492 
L 254.196364 172.896492 
L 256.971189 172.896492 
L 259.746014 172.896492 
L 262.520839 172.896492 
L 265.295664 172.896492 
L 268.07049 172.896492 
L 270.845315 172.896492 
L 273.62014 172.896492 
L 276.394965 172.896492 
L 279.16979 172.896492 
L 281.944615 172.896492 
L 284.719441 172.896492 
L 287.494266 172.896492 
L 290.269091 172.896492 
L 293.043916 172.896492 
L 295.818741 172.896492 
L 298.593566 172.896492 
" style="fill:none;stroke:#2f4f4f;stroke-linecap:square;stroke-width:1.5;"/>
   </g>
   <g id="line2d_32">
    <path clip-path="url(#p973d9d0c61)" d="M 184.825734 178.734183 
L 187.600559 178.734183 
L 190.375385 178.734183 
L 193.15021 178.734183 
L 195.925035 178.734183 
L 198.69986 178.734183 
L 201.474685 178.734183 
L 204.24951 173.692468 
L 207.024336 164.248642 
L 209.799161 171.836007 
L 212.573986 176.666659 
L 215.348811 178.20604 
L 218.123636 178.606508 
L 220.898462 178.70387 
L 223.673287 178.727026 
L 226.448112 178.732496 
L 229.222937 178.733786 
L 231.997762 178.73409 
L 234.772587 178.734161 
L 237.547413 178.734178 
L 240.322238 178.734182 
L 243.097063 178.734183 
L 245.871888 178.734183 
L 248.646713 178.734183 
L 251.421538 178.734183 
L 254.196364 178.734183 
L 256.971189 178.734183 
L 259.746014 178.734183 
L 262.520839 178.734183 
L 265.295664 178.734183 
L 268.07049 178.734183 
L 270.845315 178.734183 
L 273.62014 178.734183 
L 276.394965 178.734183 
L 279.16979 178.734183 
L 281.944615 178.734183 
L 284.719441 178.734183 
L 287.494266 178.734183 
L 290.269091 178.734183 
L 293.043916 178.734183 
" style="fill:none;stroke:#708090;stroke-linecap:square;stroke-width:1.5;"/>
   </g>
   <g id="line2d_33">
    <path clip-path="url(#p973d9d0c61)" d="M 179.276084 184.571874 
L 182.050909 184.571874 
L 184.825734 184.571874 
L 187.600559 184.571874 
L 190.375385 184.571874 
L 193.15021 184.571874 
L 195.925035 184.571874 
L 198.69986 177.723358 
L 201.474685 170.730644 
L 204.24951 178.455646 
L 207.024336 182.784753 
L 209.799161 184.119422 
L 212.573986 184.462824 
L 215.348811 184.546007 
L 218.123636 184.565768 
L 220.898462 184.570435 
L 223.673287 184.571535 
L 226.448112 184.571794 
L 229.222937 184.571855 
L 231.997762 184.57187 
L 234.772587 184.571873 
L 237.547413 184.571874 
L 240.322238 184.571874 
L 243.097063 184.571874 
L 245.871888 184.571874 
L 248.646713 184.571874 
L 251.421538 184.571874 
L 254.196364 184.571874 
L 256.971189 184.571874 
L 259.746014 184.571874 
L 262.520839 184.571874 
L 265.295664 184.571874 
L 268.07049 184.571874 
L 270.845315 184.571874 
L 273.62014 184.571874 
L 276.394965 184.571874 
L 279.16979 184.571874 
L 281.944615 184.571874 
L 284.719441 184.571874 
L 287.494266 184.571874 
" style="fill:none;stroke:#008080;stroke-linecap:square;stroke-width:1.5;"/>
   </g>
   <g id="line2d_34">
    <path clip-path="url(#p973d9d0c61)" d="M 173.726434 190.409565 
L 176.501259 190.409565 
L 179.276084 190.409565 
L 182.050909 190.409565 
L 184.825734 190.409565 
L 187.600559 190.409565 
L 190.375385 190.409565 
L 193.15021 181.64977 
L 195.925035 177.38441 
L 198.69986 185.042529 
L 201.474685 188.878518 
L 204.24951 190.025185 
L 207.024336 190.317179 
L 209.799161 190.38767 
L 212.573986 190.404398 
L 215.348811 190.408347 
L 218.123636 190.409278 
L 220.898462 190.409497 
L 223.673287 190.409549 
L 226.448112 190.409561 
L 229.222937 190.409564 
L 231.997762 190.409565 
L 234.772587 190.409565 
L 237.547413 190.409565 
L 240.322238 190.409565 
L 243.097063 190.409565 
L 245.871888 190.409565 
L 248.646713 190.409565 
L 251.421538 190.409565 
L 254.196364 190.409565 
L 256.971189 190.409565 
L 259.746014 190.409565 
L 262.520839 190.409565 
L 265.295664 190.409565 
L 268.07049 190.409565 
L 270.845315 190.409565 
L 273.62014 190.409565 
L 276.394965 190.409565 
L 279.16979 190.409565 
L 281.944615 190.409565 
" style="fill:none;stroke:#808000;stroke-linecap:square;stroke-width:1.5;"/>
   </g>
   <g id="line2d_35">
    <path clip-path="url(#p973d9d0c61)" d="M 168.176783 196.247256 
L 170.951608 196.247256 
L 173.726434 196.247256 
L 176.501259 196.247256 
L 179.276084 196.247256 
L 182.050909 196.247256 
L 184.825734 196.247256 
L 187.600559 185.595508 
L 190.375385 184.122867 
L 193.15021 191.567392 
L 195.925035 194.942022 
L 198.69986 195.922132 
L 201.474685 196.169315 
L 204.24951 196.228799 
L 207.024336 196.242901 
L 209.799161 196.246229 
L 212.573986 196.247014 
L 215.348811 196.247199 
L 218.123636 196.247242 
L 220.898462 196.247253 
L 223.673287 196.247255 
L 226.448112 196.247256 
L 229.222937 196.247256 
L 231.997762 196.247256 
L 234.772587 196.247256 
L 237.547413 196.247256 
L 240.322238 196.247256 
L 243.097063 196.247256 
L 245.871888 196.247256 
L 248.646713 196.247256 
L 251.421538 196.247256 
L 254.196364 196.247256 
L 256.971189 196.247256 
L 259.746014 196.247256 
L 262.520839 196.247256 
L 265.295664 196.247256 
L 268.07049 196.247256 
L 270.845315 196.247256 
L 273.62014 196.247256 
L 276.394965 196.247256 
" style="fill:none;stroke:#2f4f4f;stroke-linecap:square;stroke-width:1.5;"/>
   </g>
   <g id="line2d_36">
    <path clip-path="url(#p973d9d0c61)" d="M 162.627133 202.084947 
L 165.401958 202.084947 
L 168.176783 202.084947 
L 170.951608 202.084947 
L 173.726434 202.084947 
L 176.501259 202.084947 
L 179.276084 202.084947 
L 182.050909 189.661121 
L 184.825734 190.867637 
L 187.600559 198.011245 
L 190.375385 200.972552 
L 193.15021 201.809878 
L 195.925035 202.019163 
L 198.69986 202.06938 
L 201.474685 202.081275 
L 204.24951 202.084081 
L 207.024336 202.084743 
L 209.799161 202.084899 
L 212.573986 202.084935 
L 215.348811 202.084944 
L 218.123636 202.084946 
L 220.898462 202.084946 
L 223.673287 202.084947 
L 226.448112 202.084947 
L 229.222937 202.084947 
L 231.997762 202.084947 
L 234.772587 202.084947 
L 237.547413 202.084947 
L 240.322238 202.084947 
L 243.097063 202.084947 
L 245.871888 202.084947 
L 248.646713 202.084947 
L 251.421538 202.084947 
L 254.196364 202.084947 
L 256.971189 202.084947 
L 259.746014 202.084947 
L 262.520839 202.084947 
L 265.295664 202.084947 
L 268.07049 202.084947 
L 270.845315 202.084947 
" style="fill:none;stroke:#708090;stroke-linecap:square;stroke-width:1.5;"/>
   </g>
   <g id="line2d_37">
    <path clip-path="url(#p973d9d0c61)" d="M 157.077483 207.922637 
L 159.852308 207.922637 
L 162.627133 207.922637 
L 165.401958 207.922637 
L 168.176783 207.922637 
L 170.951608 207.922637 
L 173.726434 207.819278 
L 176.501259 193.957241 
L 179.276084 197.599744 
L 182.050909 204.380044 
L 184.825734 206.974165 
L 187.600559 207.689688 
L 190.375385 207.867049 
L 193.15021 207.909492 
L 195.925035 207.919537 
L 198.69986 207.921907 
L 201.474685 207.922465 
L 204.24951 207.922597 
L 207.024336 207.922628 
L 209.799161 207.922635 
L 212.573986 207.922637 
L 215.348811 207.922637 
L 218.123636 207.922637 
L 220.898462 207.922637 
L 223.673287 207.922637 
L 226.448112 207.922637 
L 229.222937 207.922637 
L 231.997762 207.922637 
L 234.772587 207.922637 
L 237.547413 207.922637 
L 240.322238 207.922637 
L 243.097063 207.922637 
L 245.871888 207.922637 
L 248.646713 207.922637 
L 251.421538 207.922637 
L 254.196364 207.922637 
L 256.971189 207.922637 
L 259.746014 207.922637 
L 262.520839 207.922637 
L 265.295664 207.922637 
" style="fill:none;stroke:#008080;stroke-linecap:square;stroke-width:1.5;"/>
   </g>
   <g id="line2d_38">
    <path clip-path="url(#p973d9d0c61)" d="M 151.527832 213.760328 
L 154.302657 213.760328 
L 157.077483 213.760328 
L 159.852308 213.760328 
L 162.627133 213.760328 
L 165.401958 213.760328 
L 168.176783 213.123019 
L 170.951608 198.690833 
L 173.726434 204.389958 
L 176.501259 210.708281 
L 179.276084 212.95799 
L 182.050909 213.564495 
L 184.825734 213.71369 
L 187.600559 213.749306 
L 190.375385 213.757729 
L 193.15021 213.759716 
L 195.925035 213.760184 
L 198.69986 213.760294 
L 201.474685 213.76032 
L 204.24951 213.760326 
L 207.024336 213.760328 
L 209.799161 213.760328 
L 212.573986 213.760328 
L 215.348811 213.760328 
L 218.123636 213.760328 
L 220.898462 213.760328 
L 223.673287 213.760328 
L 226.448112 213.760328 
L 229.222937 213.760328 
L 231.997762 213.760328 
L 234.772587 213.760328 
L 237.547413 213.760328 
L 240.322238 213.760328 
L 243.097063 213.760328 
L 245.871888 213.760328 
L 248.646713 213.760328 
L 251.421538 213.760328 
L 254.196364 213.760328 
L 256.971189 213.760328 
L 259.746014 213.760328 
" style="fill:none;stroke:#808000;stroke-linecap:square;stroke-width:1.5;"/>
   </g>
   <g id="line2d_39">
    <path clip-path="url(#p973d9d0c61)" d="M 145.978182 219.598019 
L 148.753007 219.598019 
L 151.527832 219.598019 
L 154.302657 219.598019 
L 157.077483 219.598019 
L 159.852308 219.598019 
L 162.627133 217.513323 
L 165.401958 204.175726 
L 168.176783 211.349884 
L 170.951608 217.037288 
L 173.726434 218.936064 
L 176.501259 219.437368 
L 179.276084 219.559829 
L 182.050909 219.588999 
L 184.825734 219.595892 
L 187.600559 219.597518 
L 190.375385 219.597901 
L 193.15021 219.597991 
L 195.925035 219.598013 
L 198.69986 219.598018 
L 201.474685 219.598019 
L 204.24951 219.598019 
L 207.024336 219.598019 
L 209.799161 219.598019 
L 212.573986 219.598019 
L 215.348811 219.598019 
L 218.123636 219.598019 
L 220.898462 219.598019 
L 223.673287 219.598019 
L 226.448112 219.598019 
L 229.222937 219.598019 
L 231.997762 219.598019 
L 234.772587 219.598019 
L 237.547413 219.598019 
L 240.322238 219.598019 
L 243.097063 219.598019 
L 245.871888 219.598019 
L 248.646713 219.598019 
L 251.421538 219.598019 
L 254.196364 219.598019 
" style="fill:none;stroke:#2f4f4f;stroke-linecap:square;stroke-width:1.5;"/>
   </g>
   <g id="line2d_40">
    <path clip-path="url(#p973d9d0c61)" d="M 140.428531 225.43571 
L 143.203357 225.43571 
L 145.978182 225.43571 
L 148.753007 225.43571 
L 151.527832 225.43571 
L 154.302657 225.43571 
L 157.077483 220.824768 
L 159.852308 210.57715 
L 162.627133 218.477383 
L 165.401958 223.368015 
L 168.176783 224.909346 
L 170.951608 225.308622 
L 173.726434 225.405548 
L 176.501259 225.428589 
L 179.276084 225.434031 
L 182.050909 225.435314 
L 184.825734 225.435617 
L 187.600559 225.435688 
L 190.375385 225.435705 
L 193.15021 225.435709 
L 195.925035 225.43571 
L 198.69986 225.43571 
L 201.474685 225.43571 
L 204.24951 225.43571 
L 207.024336 225.43571 
L 209.799161 225.43571 
L 212.573986 225.43571 
L 215.348811 225.43571 
L 218.123636 225.43571 
L 220.898462 225.43571 
L 223.673287 225.43571 
L 226.448112 225.43571 
L 229.222937 225.43571 
L 231.997762 225.43571 
L 234.772587 225.43571 
L 237.547413 225.43571 
L 240.322238 225.43571 
L 243.097063 225.43571 
L 245.871888 225.43571 
L 248.646713 225.43571 
" style="fill:none;stroke:#708090;stroke-linecap:square;stroke-width:1.5;"/>
   </g>
   <g id="line2d_41">
    <path clip-path="url(#p973d9d0c61)" d="M 134.878881 231.273401 
L 137.653706 231.273401 
L 140.428531 231.273401 
L 143.203357 231.273401 
L 145.978182 231.273401 
L 148.753007 231.273401 
L 151.527832 223.415612 
L 154.302657 217.721547 
L 157.077483 225.635741 
L 159.852308 229.663636 
L 162.627133 230.869266 
L 165.401958 231.176274 
L 168.176783 231.250383 
L 170.951608 231.267969 
L 173.726434 231.272121 
L 176.501259 231.273099 
L 179.276084 231.27333 
L 182.050909 231.273384 
L 184.825734 231.273397 
L 187.600559 231.2734 
L 190.375385 231.273401 
L 193.15021 231.273401 
L 195.925035 231.273401 
L 198.69986 231.273401 
L 201.474685 231.273401 
L 204.24951 231.273401 
L 207.024336 231.273401 
L 209.799161 231.273401 
L 212.573986 231.273401 
L 215.348811 231.273401 
L 218.123636 231.273401 
L 220.898462 231.273401 
L 223.673287 231.273401 
L 226.448112 231.273401 
L 229.222937 231.273401 
L 231.997762 231.273401 
L 234.772587 231.273401 
L 237.547413 231.273401 
L 240.322238 231.273401 
L 243.097063 231.273401 
" style="fill:none;stroke:#008080;stroke-linecap:square;stroke-width:1.5;"/>
   </g>
   <g id="line2d_42">
    <path clip-path="url(#p973d9d0c61)" d="M 129.329231 237.111092 
L 132.104056 237.111092 
L 134.878881 237.111092 
L 137.653706 237.111092 
L 140.428531 237.111092 
L 143.203357 237.111092 
L 145.978182 225.948366 
L 148.753007 225.179076 
L 151.527832 232.647163 
L 154.302657 235.881683 
L 157.077483 236.806274 
L 159.852308 237.038133 
L 162.627133 237.093823 
L 165.401958 237.107018 
L 168.176783 237.110132 
L 170.951608 237.110865 
L 173.726434 237.111038 
L 176.501259 237.111079 
L 179.276084 237.111089 
L 182.050909 237.111091 
L 184.825734 237.111091 
L 187.600559 237.111092 
L 190.375385 237.111092 
L 193.15021 237.111092 
L 195.925035 237.111092 
L 198.69986 237.111092 
L 201.474685 237.111092 
L 204.24951 237.111092 
L 207.024336 237.111092 
L 209.799161 237.111092 
L 212.573986 237.111092 
L 215.348811 237.111092 
L 218.123636 237.111092 
L 220.898462 237.111092 
L 223.673287 237.111092 
L 226.448112 237.111092 
L 229.222937 237.111092 
L 231.997762 237.111092 
L 234.772587 237.111092 
L 237.547413 237.111092 
" style="fill:none;stroke:#808000;stroke-linecap:square;stroke-width:1.5;"/>
   </g>
   <g id="line2d_43">
    <path clip-path="url(#p973d9d0c61)" d="M 123.77958 242.948782 
L 126.554406 242.948782 
L 129.329231 242.948782 
L 132.104056 242.948782 
L 134.878881 242.948782 
L 137.653706 242.948782 
L 140.428531 228.922535 
L 143.203357 232.565402 
L 145.978182 239.415224 
L 148.753007 242.006667 
L 151.527832 242.71777 
L 154.302657 242.893687 
L 157.077483 242.935756 
L 159.852308 242.945711 
L 162.627133 242.948059 
L 165.401958 242.948612 
L 168.176783 242.948742 
L 170.951608 242.948773 
L 173.726434 242.94878 
L 176.501259 242.948782 
L 179.276084 242.948782 
L 182.050909 242.948782 
L 184.825734 242.948782 
L 187.600559 242.948782 
L 190.375385 242.948782 
L 193.15021 242.948782 
L 195.925035 242.948782 
L 198.69986 242.948782 
L 201.474685 242.948782 
L 204.24951 242.948782 
L 207.024336 242.948782 
L 209.799161 242.948782 
L 212.573986 242.948782 
L 215.348811 242.948782 
L 218.123636 242.948782 
L 220.898462 242.948782 
L 223.673287 242.948782 
L 226.448112 242.948782 
L 229.222937 242.948782 
L 231.997762 242.948782 
" style="fill:none;stroke:#2f4f4f;stroke-linecap:square;stroke-width:1.5;"/>
   </g>
   <g id="line2d_44">
    <path clip-path="url(#p973d9d0c61)" d="M 118.22993 248.786473 
L 121.004755 248.786473 
L 123.77958 248.786473 
L 126.554406 248.786473 
L 129.329231 248.786473 
L 132.104056 248.786473 
L 134.878881 232.551694 
L 137.653706 239.667404 
L 140.428531 245.928341 
L 143.203357 248.045848 
L 145.978182 248.606609 
L 148.753007 248.743708 
L 151.527832 248.776372 
L 154.302657 248.784092 
L 157.077483 248.785912 
L 159.852308 248.786341 
L 162.627133 248.786442 
L 165.401958 248.786466 
L 168.176783 248.786472 
L 170.951608 248.786473 
L 173.726434 248.786473 
L 176.501259 248.786473 
L 179.276084 248.786473 
L 182.050909 248.786473 
L 184.825734 248.786473 
L 187.600559 248.786473 
L 190.375385 248.786473 
L 193.15021 248.786473 
L 195.925035 248.786473 
L 198.69986 248.786473 
L 201.474685 248.786473 
L 204.24951 248.786473 
L 207.024336 248.786473 
L 209.799161 248.786473 
L 212.573986 248.786473 
L 215.348811 248.786473 
L 218.123636 248.786473 
L 220.898462 248.786473 
L 223.673287 248.786473 
L 226.448112 248.786473 
" style="fill:none;stroke:#708090;stroke-linecap:square;stroke-width:1.5;"/>
   </g>
   <g id="line2d_45">
    <path clip-path="url(#p973d9d0c61)" d="M 112.68028 254.624164 
L 115.455105 254.624164 
L 118.22993 254.624164 
L 121.004755 254.624164 
L 123.77958 254.624164 
L 126.554406 250.611511 
L 129.329231 239.137273 
L 132.104056 247.649019 
L 134.878881 252.587773 
L 137.653706 254.1093 
L 140.428531 254.500148 
L 143.203357 254.594754 
L 145.978182 254.617222 
L 148.753007 254.622528 
L 151.527832 254.623779 
L 154.302657 254.624073 
L 157.077483 254.624143 
L 159.852308 254.624159 
L 162.627133 254.624163 
L 165.401958 254.624164 
L 168.176783 254.624164 
L 170.951608 254.624164 
L 173.726434 254.624164 
L 176.501259 254.624164 
L 179.276084 254.624164 
L 182.050909 254.624164 
L 184.825734 254.624164 
L 187.600559 254.624164 
L 190.375385 254.624164 
L 193.15021 254.624164 
L 195.925035 254.624164 
L 198.69986 254.624164 
L 201.474685 254.624164 
L 204.24951 254.624164 
L 207.024336 254.624164 
L 209.799161 254.624164 
L 212.573986 254.624164 
L 215.348811 254.624164 
L 218.123636 254.624164 
L 220.898462 254.624164 
" style="fill:none;stroke:#008080;stroke-linecap:square;stroke-width:1.5;"/>
   </g>
   <g id="line2d_46">
    <path clip-path="url(#p973d9d0c61)" d="M 107.130629 260.461855 
L 109.905455 260.461855 
L 112.68028 260.461855 
L 115.455105 260.461855 
L 118.22993 260.461855 
L 121.004755 250.245023 
L 123.77958 247.914321 
L 126.554406 255.752883 
L 129.329231 259.16766 
L 132.104056 260.141356 
L 134.878881 260.385179 
L 137.653706 260.443709 
L 140.428531 260.457575 
L 143.203357 260.460846 
L 145.978182 260.461617 
L 148.753007 260.461799 
L 151.527832 260.461842 
L 154.302657 260.461852 
L 157.077483 260.461854 
L 159.852308 260.461855 
L 162.627133 260.461855 
L 165.401958 260.461855 
L 168.176783 260.461855 
L 170.951608 260.461855 
L 173.726434 260.461855 
L 176.501259 260.461855 
L 179.276084 260.461855 
L 182.050909 260.461855 
L 184.825734 260.461855 
L 187.600559 260.461855 
L 190.375385 260.461855 
L 193.15021 260.461855 
L 195.925035 260.461855 
L 198.69986 260.461855 
L 201.474685 260.461855 
L 204.24951 260.461855 
L 207.024336 260.461855 
L 209.799161 260.461855 
L 212.573986 260.461855 
L 215.348811 260.461855 
" style="fill:none;stroke:#808000;stroke-linecap:square;stroke-width:1.5;"/>
   </g>
   <g id="line2d_47">
    <path clip-path="url(#p973d9d0c61)" d="M 101.580979 266.299546 
L 104.355804 266.299546 
L 107.130629 266.299546 
L 109.905455 266.299546 
L 112.68028 266.299546 
L 115.455105 250.997924 
L 118.22993 256.607827 
L 121.004755 263.179394 
L 123.77958 265.48472 
L 126.554406 266.101194 
L 129.329231 266.252352 
L 132.104056 266.288396 
L 134.878881 266.296917 
L 137.653706 266.298926 
L 140.428531 266.2994 
L 143.203357 266.299511 
L 145.978182 266.299538 
L 148.753007 266.299544 
L 151.527832 266.299545 
L 154.302657 266.299546 
L 157.077483 266.299546 
L 159.852308 266.299546 
L 162.627133 266.299546 
L 165.401958 266.299546 
L 168.176783 266.299546 
L 170.951608 266.299546 
L 173.726434 266.299546 
L 176.501259 266.299546 
L 179.276084 266.299546 
L 182.050909 266.299546 
L 184.825734 266.299546 
L 187.600559 266.299546 
L 190.375385 266.299546 
L 193.15021 266.299546 
L 195.925035 266.299546 
L 198.69986 266.299546 
L 201.474685 266.299546 
L 204.24951 266.299546 
L 207.024336 266.299546 
L 209.799161 266.299546 
" style="fill:none;stroke:#2f4f4f;stroke-linecap:square;stroke-width:1.5;"/>
   </g>
   <g id="line2d_48">
    <path clip-path="url(#p973d9d0c61)" d="M 96.031329 272.137237 
L 98.806154 272.137237 
L 101.580979 272.137237 
L 104.355804 272.137237 
L 107.130629 272.137237 
L 109.905455 253.944158 
L 112.68028 264.177213 
L 115.455105 269.854955 
L 118.22993 271.564447 
L 121.004755 271.999629 
L 123.77958 272.10463 
L 126.554406 272.129542 
L 129.329231 272.135423 
L 132.104056 272.136809 
L 134.878881 272.137136 
L 137.653706 272.137213 
L 140.428531 272.137231 
L 143.203357 272.137235 
L 145.978182 272.137236 
L 148.753007 272.137237 
L 151.527832 272.137237 
L 154.302657 272.137237 
L 157.077483 272.137237 
L 159.852308 272.137237 
L 162.627133 272.137237 
L 165.401958 272.137237 
L 168.176783 272.137237 
L 170.951608 272.137237 
L 173.726434 272.137237 
L 176.501259 272.137237 
L 179.276084 272.137237 
L 182.050909 272.137237 
L 184.825734 272.137237 
L 187.600559 272.137237 
L 190.375385 272.137237 
L 193.15021 272.137237 
L 195.925035 272.137237 
L 198.69986 272.137237 
L 201.474685 272.137237 
L 204.24951 272.137237 
" style="fill:none;stroke:#708090;stroke-linecap:square;stroke-width:1.5;"/>
   </g>
   <g id="line2d_49">
    <path clip-path="url(#p973d9d0c61)" d="M 90.481678 277.974927 
L 93.256503 277.974927 
L 96.031329 277.974927 
L 98.806154 277.974927 
L 101.580979 263.746756 
L 104.355804 267.586646 
L 107.130629 274.576587 
L 109.905455 277.085353 
L 112.68028 277.758313 
L 115.455105 277.923387 
L 118.22993 277.962751 
L 121.004755 277.972057 
L 123.77958 277.974251 
L 126.554406 277.974768 
L 129.329231 277.97489 
L 132.104056 277.974919 
L 134.878881 277.974925 
L 137.653706 277.974927 
L 140.428531 277.974927 
L 143.203357 277.974927 
L 145.978182 277.974927 
L 148.753007 277.974927 
L 151.527832 277.974927 
L 154.302657 277.974927 
L 157.077483 277.974927 
L 159.852308 277.974927 
L 162.627133 277.974927 
L 165.401958 277.974927 
L 168.176783 277.974927 
L 170.951608 277.974927 
L 173.726434 277.974927 
L 176.501259 277.974927 
L 179.276084 277.974927 
L 182.050909 277.974927 
L 184.825734 277.974927 
L 187.600559 277.974927 
L 190.375385 277.974927 
L 193.15021 277.974927 
L 195.925035 277.974927 
L 198.69986 277.974927 
" style="fill:none;stroke:#008080;stroke-linecap:square;stroke-width:1.5;"/>
   </g>
   <g id="line2d_50">
    <path clip-path="url(#p973d9d0c61)" d="M 84.932028 283.812618 
L 87.706853 283.812618 
L 90.481678 283.812618 
L 93.256503 283.812618 
L 96.031329 264.596162 
L 98.806154 276.47932 
L 101.580979 281.818408 
L 104.355804 283.321609 
L 107.130629 283.695408 
L 109.905455 283.7849 
L 112.68028 283.806082 
L 115.455105 283.811078 
L 118.22993 283.812255 
L 121.004755 283.812533 
L 123.77958 283.812598 
L 126.554406 283.812614 
L 129.329231 283.812617 
L 132.104056 283.812618 
L 134.878881 283.812618 
L 137.653706 283.812618 
L 140.428531 283.812618 
L 143.203357 283.812618 
L 145.978182 283.812618 
L 148.753007 283.812618 
L 151.527832 283.812618 
L 154.302657 283.812618 
L 157.077483 283.812618 
L 159.852308 283.812618 
L 162.627133 283.812618 
L 165.401958 283.812618 
L 168.176783 283.812618 
L 170.951608 283.812618 
L 173.726434 283.812618 
L 176.501259 283.812618 
L 179.276084 283.812618 
L 182.050909 283.812618 
L 184.825734 283.812618 
L 187.600559 283.812618 
L 190.375385 283.812618 
L 193.15021 283.812618 
" style="fill:none;stroke:#808000;stroke-linecap:square;stroke-width:1.5;"/>
   </g>
   <g id="line2d_51">
    <path clip-path="url(#p973d9d0c61)" d="M 79.382378 289.650309 
L 82.157203 289.650309 
L 84.932028 289.650309 
L 87.706853 269.745997 
L 90.481678 282.751886 
L 93.256503 287.841244 
L 96.031329 289.210516 
L 98.806154 289.545758 
L 101.580979 289.625616 
L 104.355804 289.644488 
L 107.130629 289.648937 
L 109.905455 289.649986 
L 112.68028 289.650233 
L 115.455105 289.650291 
L 118.22993 289.650305 
L 121.004755 289.650308 
L 123.77958 289.650309 
L 126.554406 289.650309 
L 129.329231 289.650309 
L 132.104056 289.650309 
L 134.878881 289.650309 
L 137.653706 289.650309 
L 140.428531 289.650309 
L 143.203357 289.650309 
L 145.978182 289.650309 
L 148.753007 289.650309 
L 151.527832 289.650309 
L 154.302657 289.650309 
L 157.077483 289.650309 
L 159.852308 289.650309 
L 162.627133 289.650309 
L 165.401958 289.650309 
L 168.176783 289.650309 
L 170.951608 289.650309 
L 173.726434 289.650309 
L 176.501259 289.650309 
L 179.276084 289.650309 
L 182.050909 289.650309 
L 184.825734 289.650309 
L 187.600559 289.650309 
" style="fill:none;stroke:#2f4f4f;stroke-linecap:square;stroke-width:1.5;"/>
   </g>
   <g id="line2d_52">
    <path clip-path="url(#p973d9d0c61)" d="M 73.832727 295.488 
L 76.607552 273.175814 
L 79.382378 290.231655 
L 82.157203 294.249701 
L 84.932028 295.196279 
L 87.706853 295.419276 
L 90.481678 295.47181 
L 93.256503 295.484186 
L 96.031329 295.487101 
L 98.806154 295.487788 
L 101.580979 295.48795 
L 104.355804 295.487988 
L 107.130629 295.487997 
L 109.905455 295.487999 
L 112.68028 295.488 
L 115.455105 295.488 
L 118.22993 295.488 
L 121.004755 295.488 
L 123.77958 295.488 
L 126.554406 295.488 
L 129.329231 295.488 
L 132.104056 295.488 
L 134.878881 295.488 
L 137.653706 295.488 
L 140.428531 295.488 
L 143.203357 295.488 
L 145.978182 295.488 
L 148.753007 295.488 
L 151.527832 295.488 
L 154.302657 295.488 
L 157.077483 295.488 
L 159.852308 295.488 
L 162.627133 295.488 
L 165.401958 295.488 
L 168.176783 295.488 
L 170.951608 295.488 
L 173.726434 295.488 
L 176.501259 295.488 
L 179.276084 295.488 
L 182.050909 295.488 
" style="fill:none;stroke:#708090;stroke-linecap:square;stroke-width:1.5;"/>
   </g>
   <g id="patch_3">
    <path d="M 57.6 307.584 
L 57.6 41.472 
" style="fill:none;stroke:#000000;stroke-linecap:square;stroke-linejoin:miter;stroke-width:0.8;"/>
   </g>
   <g id="patch_4">
    <path d="M 414.72 307.584 
L 414.72 41.472 
" style="fill:none;stroke:#000000;stroke-linecap:square;stroke-linejoin:miter;stroke-width:0.8;"/>
   </g>
   <g id="patch_5">
    <path d="M 57.6 307.584 
L 414.72 307.584 
" style="fill:none;stroke:#000000;stroke-linecap:square;stroke-linejoin:miter;stroke-width:0.8;"/>
   </g>
   <g id="patch_6">
    <path d="M 57.6 41.472 
L 414.72 41.472 
" style="fill:none;stroke:#000000;stroke-linecap:square;stroke-linejoin:miter;stroke-width:0.8;"/>
   </g>
  </g>
 </g>
 <defs>
  <clipPath id="p973d9d0c61">
   <rect height="266.112" width="357.12" x="57.6" y="41.472"/>
  </clipPath>
 </defs>
</svg>
