<?xml version="1.0" encoding="utf-8" standalone="no"?>
<!DOCTYPE svg PUBLIC "-//W3C//DTD SVG 1.1//EN"
  "http://www.w3.org/Graphics/SVG/1.1/DTD/svg11.dtd">
<!-- Created with matplotlib (https://matplotlib.org/) -->
<svg height="345.6pt" version="1.1" viewBox="0 0 460.8 345.6" width="460.8pt" xmlns="http://www.w3.org/2000/svg" xmlns:xlink="http://www.w3.org/1999/xlink">
 <metadata>
  <rdf:RDF xmlns:cc="http://creativecommons.org/ns#" xmlns:dc="http://purl.org/dc/elements/1.1/" xmlns:rdf="http://www.w3.org/1999/02/22-rdf-syntax-ns#">
   <cc:Work>
    <dc:type rdf:resource="http://purl.org/dc/dcmitype/StillImage"/>
    <dc:date>2021-05-29T10:57:57.850976</dc:date>
    <dc:format>image/svg+xml</dc:format>
    <dc:creator>
     <cc:Agent>
      <dc:title>Matplotlib v3.3.4, https://matplotlib.org/</dc:title>
     </cc:Agent>
    </dc:creator>
   </cc:Work>
  </rdf:RDF>
 </metadata>
 <defs>
  <style type="text/css">*{stroke-linecap:butt;stroke-linejoin:round;}</style>
 </defs>
 <g id="figure_1">
  <g id="patch_1">
   <path d="M 0 345.6 
L 460.8 345.6 
L 460.8 0 
L 0 0 
z
" style="fill:#ffffff;"/>
  </g>
  <g id="axes_1">
   <g id="patch_2">
    <path d="M 57.6 307.584 
L 414.72 307.584 
L 414.72 41.472 
L 57.6 41.472 
z
" style="fill:#ffffff;"/>
   </g>
   <g id="matplotlib.axis_1">
    <g id="xtick_1">
     <g id="line2d_1">
      <defs>
       <path d="M 0 0 
L 0 3.5 
" id="m5f2ccc27f0" style="stroke:#000000;stroke-width:0.8;"/>
      </defs>
      <g>
       <use style="stroke:#000000;stroke-width:0.8;" x="116.178972" xlink:href="#m5f2ccc27f0" y="307.584"/>
      </g>
     </g>
     <g id="text_1">
      <!-- $\mathdefault{10}$ -->
      <g transform="translate(111.197637 321.502498)scale(0.1 -0.1)">
       <defs>
        <path d="M 26.59375 63.40625 
C 26.59375 65.5 26.5 65.5 25.09375 65.5 
C 21.203125 61.1875 15.296875 59.796875 9.703125 59.796875 
C 9.40625 59.796875 8.90625 59.796875 8.796875 59.5 
C 8.703125 59.296875 8.703125 59.09375 8.703125 57 
C 11.796875 57 17 57.59375 21 59.984375 
L 21 7.203125 
C 21 3.6875 20.796875 2.5 12.203125 2.5 
L 9.203125 2.5 
L 9.203125 0 
C 14 0 19 0 23.796875 0 
C 28.59375 0 33.59375 0 38.40625 0 
L 38.40625 2.5 
L 35.40625 2.5 
C 26.796875 2.5 26.59375 3.59375 26.59375 7.15625 
z
" id="CMR17-49"/>
        <path d="M 42 31.640625 
C 42 37.75 41.90625 48.125 37.703125 56.109375 
C 34 63.109375 28.09375 65.59375 22.90625 65.59375 
C 18.09375 65.59375 12 63.40625 8.203125 56.203125 
C 4.203125 48.71875 3.796875 39.4375 3.796875 31.640625 
C 3.796875 25.953125 3.90625 17.28125 7 9.671875 
C 11.296875 -0.609375 19 -2 22.90625 -2 
C 27.5 -2 34.5 -0.109375 38.59375 9.375 
C 41.59375 16.28125 42 24.359375 42 31.640625 
z
M 22.90625 -0.40625 
C 16.5 -0.40625 12.703125 5.078125 11.296875 12.6875 
C 10.203125 18.5625 10.203125 27.15625 10.203125 32.75 
C 10.203125 40.4375 10.203125 46.828125 11.5 52.921875 
C 13.40625 61.390625 19 64 22.90625 64 
C 27 64 32.296875 61.296875 34.203125 53.125 
C 35.5 47.4375 35.59375 40.734375 35.59375 32.75 
C 35.59375 26.25 35.59375 18.265625 34.40625 12.375 
C 32.296875 1.484375 26.40625 -0.40625 22.90625 -0.40625 
z
" id="CMR17-48"/>
       </defs>
       <use transform="scale(0.996264)" xlink:href="#CMR17-49"/>
       <use transform="translate(45.690477 0)scale(0.996264)" xlink:href="#CMR17-48"/>
      </g>
     </g>
    </g>
    <g id="xtick_2">
     <g id="line2d_2">
      <g>
       <use style="stroke:#000000;stroke-width:0.8;" x="186.756047" xlink:href="#m5f2ccc27f0" y="307.584"/>
      </g>
     </g>
     <g id="text_2">
      <!-- $\mathdefault{20}$ -->
      <g transform="translate(181.774712 321.502498)scale(0.1 -0.1)">
       <defs>
        <path d="M 41.703125 15.453125 
L 39.90625 15.453125 
C 38.90625 8.375 38.09375 7.171875 37.703125 6.5625 
C 37.203125 5.765625 30 5.765625 28.59375 5.765625 
L 9.40625 5.765625 
C 13 9.671875 20 16.75 28.5 24.953125 
C 34.59375 30.734375 41.703125 37.53125 41.703125 47.421875 
C 41.703125 59.21875 32.296875 66 21.796875 66 
C 10.796875 66 4.09375 56.3125 4.09375 47.34375 
C 4.09375 43.4375 7 42.9375 8.203125 42.9375 
C 9.203125 42.9375 12.203125 43.546875 12.203125 47.03125 
C 12.203125 50.109375 9.59375 51 8.203125 51 
C 7.59375 51 7 50.90625 6.59375 50.703125 
C 8.5 59.21875 14.296875 63.40625 20.40625 63.40625 
C 29.09375 63.40625 34.796875 56.515625 34.796875 47.421875 
C 34.796875 38.734375 29.703125 31.25 24 24.75 
L 4.09375 2.28125 
L 4.09375 0 
L 39.296875 0 
z
" id="CMR17-50"/>
       </defs>
       <use transform="scale(0.996264)" xlink:href="#CMR17-50"/>
       <use transform="translate(45.690477 0)scale(0.996264)" xlink:href="#CMR17-48"/>
      </g>
     </g>
    </g>
    <g id="xtick_3">
     <g id="line2d_3">
      <g>
       <use style="stroke:#000000;stroke-width:0.8;" x="257.333123" xlink:href="#m5f2ccc27f0" y="307.584"/>
      </g>
     </g>
     <g id="text_3">
      <!-- $\mathdefault{30}$ -->
      <g transform="translate(252.351787 321.502498)scale(0.1 -0.1)">
       <defs>
        <path d="M 22.09375 33.703125 
C 31 33.703125 34.90625 25.96875 34.90625 17.03125 
C 34.90625 5 28.5 0.390625 22.703125 0.390625 
C 17.40625 0.390625 8.796875 3.03125 6.09375 10.828125 
C 6.59375 10.625 7.09375 10.625 7.59375 10.625 
C 10 10.625 11.796875 12.21875 11.796875 14.8125 
C 11.796875 17.703125 9.59375 19 7.59375 19 
C 5.90625 19 3.296875 18.203125 3.296875 14.46875 
C 3.296875 5.234375 12.296875 -2 22.90625 -2 
C 34 -2 42.5 6.71875 42.5 16.953125 
C 42.5 26.671875 34.5 33.703125 25 34.796875 
C 32.59375 36.375 39.90625 43.0625 39.90625 52.015625 
C 39.90625 59.6875 32 65.296875 23 65.296875 
C 13.90625 65.296875 5.90625 59.828125 5.90625 52.015625 
C 5.90625 48.59375 8.5 48 9.796875 48 
C 11.90625 48 13.703125 49.296875 13.703125 51.890625 
C 13.703125 54.46875 11.90625 55.765625 9.796875 55.765625 
C 9.40625 55.765625 8.90625 55.765625 8.5 55.578125 
C 11.40625 61.859375 19.296875 63 22.796875 63 
C 26.296875 63 32.90625 61.328125 32.90625 51.875 
C 32.90625 49.109375 32.5 44.1875 29.09375 39.84375 
C 26.09375 36 22.703125 36 19.40625 35.6875 
C 18.90625 35.6875 16.59375 35.453125 16.203125 35.453125 
C 15.5 35.359375 15.09375 35.265625 15.09375 34.5 
C 15.09375 33.796875 15.203125 33.703125 17.203125 33.703125 
z
" id="CMR17-51"/>
       </defs>
       <use transform="scale(0.996264)" xlink:href="#CMR17-51"/>
       <use transform="translate(45.690477 0)scale(0.996264)" xlink:href="#CMR17-48"/>
      </g>
     </g>
    </g>
    <g id="xtick_4">
     <g id="line2d_4">
      <g>
       <use style="stroke:#000000;stroke-width:0.8;" x="327.910198" xlink:href="#m5f2ccc27f0" y="307.584"/>
      </g>
     </g>
     <g id="text_4">
      <!-- $\mathdefault{40}$ -->
      <g transform="translate(322.928862 321.502498)scale(0.1 -0.1)">
       <defs>
        <path d="M 33.59375 64.40625 
C 33.59375 66.5 33.5 66.5 31.703125 66.5 
L 2 19.59375 
L 2 17 
L 27.796875 17 
L 27.796875 7.140625 
C 27.796875 3.5 27.59375 2.5 20.59375 2.5 
L 18.703125 2.5 
L 18.703125 0 
C 21.90625 0 27.296875 0 30.703125 0 
C 34.09375 0 39.5 0 42.703125 0 
L 42.703125 2.5 
L 40.796875 2.5 
C 33.796875 2.5 33.59375 3.5 33.59375 7.140625 
L 33.59375 17 
L 43.796875 17 
L 43.796875 19.59375 
L 33.59375 19.59375 
z
M 28.09375 57.859375 
L 28.09375 19.59375 
L 4 19.59375 
z
" id="CMR17-52"/>
       </defs>
       <use transform="scale(0.996264)" xlink:href="#CMR17-52"/>
       <use transform="translate(45.690477 0)scale(0.996264)" xlink:href="#CMR17-48"/>
      </g>
     </g>
    </g>
    <g id="xtick_5">
     <g id="line2d_5">
      <g>
       <use style="stroke:#000000;stroke-width:0.8;" x="398.487273" xlink:href="#m5f2ccc27f0" y="307.584"/>
      </g>
     </g>
     <g id="text_5">
      <!-- $\mathdefault{50}$ -->
      <g transform="translate(393.505937 321.502498)scale(0.1 -0.1)">
       <defs>
        <path d="M 11.40625 57.6875 
C 12.40625 57.28125 16.5 56 20.703125 56 
C 30 56 35.09375 61.109375 38 64.0625 
C 38 64.953125 38 65.5 37.40625 65.5 
C 37.296875 65.5 37.09375 65.5 36.296875 65.046875 
C 32.796875 63.40625 28.703125 62.078125 23.703125 62.078125 
C 20.703125 62.078125 16.203125 62.484375 11.296875 64.671875 
C 10.203125 65.171875 10 65.171875 9.90625 65.171875 
C 9.40625 65.171875 9.296875 65.0625 9.296875 63.078125 
L 9.296875 34.421875 
C 9.296875 32.640625 9.296875 32.140625 10.296875 32.140625 
C 10.796875 32.140625 11 32.34375 11.5 33.03125 
C 14.703125 37.515625 19.09375 39.40625 24.09375 39.40625 
C 27.59375 39.40625 35.09375 37.21875 35.09375 20.140625 
C 35.09375 16.953125 35.09375 11.171875 32.09375 6.578125 
C 29.59375 2.484375 25.703125 0.390625 21.40625 0.390625 
C 14.796875 0.390625 8.09375 5 6.296875 12.71875 
C 6.703125 12.609375 7.5 12.421875 7.90625 12.421875 
C 9.203125 12.421875 11.703125 13.125 11.703125 16.21875 
C 11.703125 18.90625 9.796875 20 7.90625 20 
C 5.59375 20 4.09375 18.59375 4.09375 15.796875 
C 4.09375 7.09375 11 -2 21.59375 -2 
C 31.90625 -2 41.703125 6.875 41.703125 19.75 
C 41.703125 31.71875 33.90625 41 24.203125 41 
C 19.09375 41 14.796875 39.109375 11.40625 35.53125 
z
" id="CMR17-53"/>
       </defs>
       <use transform="scale(0.996264)" xlink:href="#CMR17-53"/>
       <use transform="translate(45.690477 0)scale(0.996264)" xlink:href="#CMR17-48"/>
      </g>
     </g>
    </g>
    <g id="text_6">
     <!--  $ (\frac{1}{W} \ or \ d)_{[mm]} $ -->
     <g transform="translate(206.768623 335.856539)scale(0.1 -0.1)">
      <defs>
       <path d="M 30.59375 -24.390625 
C 30.59375 -24.296875 30.59375 -24.09375 30.296875 -23.796875 
C 25.703125 -19.125 13.40625 -6.359375 13.40625 24.703125 
C 13.40625 55.765625 25.5 68.421875 30.40625 73.390625 
C 30.40625 73.5 30.59375 73.703125 30.59375 74 
C 30.59375 74.296875 30.296875 74.5 29.90625 74.5 
C 28.796875 74.5 20.296875 67.125 15.40625 56.15625 
C 10.40625 45.109375 9 34.359375 9 24.8125 
C 9 17.625 9.703125 5.484375 15.703125 -7.359375 
C 20.5 -17.734375 28.703125 -25 29.90625 -25 
C 30.40625 -25 30.59375 -24.796875 30.59375 -24.390625 
z
" id="CMR17-40"/>
       <path d="M 90.296875 56.96875 
C 92.59375 60.84375 94.796875 64.515625 100.796875 65.125 
C 101.703125 65.21875 102.59375 65.3125 102.59375 66.90625 
C 102.59375 68 101.703125 68 101.40625 68 
C 101.203125 68 100.5 68 93.90625 68 
C 90.90625 68 87.796875 68 84.90625 68 
C 84.296875 68 83.09375 68 83.09375 66.03125 
C 83.09375 65.09375 83.90625 65 84.5 65 
C 86.5 65 89.703125 64.40625 89.703125 61.328125 
C 89.703125 60.03125 89.296875 59.328125 88.296875 57.65625 
L 61 10.125 
L 57.40625 61.921875 
C 57.40625 63.109375 58.5 65 64.09375 65 
C 65.40625 65 66.40625 65 66.40625 66.96875 
C 66.40625 68 65.40625 68 64.90625 68 
C 61.40625 68 57.703125 68 54.09375 68 
L 48.90625 68 
C 47.40625 68 45.59375 68 44.09375 68 
C 43.5 68 42.296875 68 42.296875 66.03125 
C 42.296875 65 43 65 44.703125 65 
C 49.296875 65 49.296875 64.890625 49.703125 58.9375 
L 50 55.359375 
L 24.09375 10.125 
L 20.40625 61.421875 
C 20.40625 62.53125 20.40625 65 27.203125 65 
C 28.296875 65 29.40625 65 29.40625 66.859375 
C 29.40625 68 28.5 68 27.90625 68 
C 24.40625 68 20.703125 68 17.09375 68 
L 11.90625 68 
C 10.40625 68 8.59375 68 7.09375 68 
C 6.5 68 5.296875 68 5.296875 66.03125 
C 5.296875 65 6.09375 65 7.5 65 
C 12.203125 65 12.296875 64.390625 12.5 61.21875 
L 16.90625 0.28125 
C 17 -1.40625 17.09375 -2 18.296875 -2 
C 19.296875 -2 19.5 -1.609375 20.40625 -0.109375 
L 50.203125 51.671875 
L 53.90625 0.28125 
C 54 -1.40625 54.09375 -2 55.296875 -2 
C 56.296875 -2 56.59375 -1.5 57.40625 -0.109375 
z
" id="CMMI12-87"/>
       <path d="M 45.59375 27.4375 
C 45.59375 36.921875 39.40625 44 30.296875 44 
C 17.09375 44 4.09375 29.640625 4.09375 15.5625 
C 4.09375 6.09375 10.296875 -1 19.40625 -1 
C 32.703125 -1 45.59375 13.375 45.59375 27.4375 
z
M 19.5 1 
C 14.5 1 10.796875 4.984375 10.796875 11.96875 
C 10.796875 16.5625 13.203125 26.75 16 31.734375 
C 20.5 39.421875 26.09375 42.015625 30.203125 42.015625 
C 35.09375 42.015625 38.90625 38.015625 38.90625 31.03125 
C 38.90625 27.046875 36.796875 16.359375 33 10.28125 
C 28.90625 3.59375 23.40625 1 19.5 1 
z
" id="CMMI12-111"/>
       <path d="M 38.90625 40.8125 
C 35.796875 40.21875 34.203125 38.015625 34.203125 35.828125 
C 34.203125 33.421875 36.09375 32.625 37.5 32.625 
C 40.296875 32.625 42.59375 35.03125 42.59375 38.015625 
C 42.59375 41.21875 39.5 44 34.5 44 
C 30.5 44 25.90625 42.203125 21.703125 36.125 
C 21 41.40625 17 44 13 44 
C 9.09375 44 7.09375 41.015625 5.90625 38.8125 
C 4.203125 35.21875 2.703125 29.234375 2.703125 28.734375 
C 2.703125 28.34375 3.09375 27.84375 3.796875 27.84375 
C 4.59375 27.84375 4.703125 27.9375 5.296875 30.234375 
C 6.796875 36.21875 8.703125 42.015625 12.703125 42.015625 
C 15.09375 42.015625 15.796875 40.3125 15.796875 37.421875 
C 15.796875 35.21875 14.796875 31.328125 14.09375 28.234375 
L 11.296875 17.46875 
C 10.90625 15.5625 9.796875 11.078125 9.296875 9.28125 
C 8.59375 6.6875 7.5 2 7.5 1.5 
C 7.5 0.09375 8.59375 -1 10.09375 -1 
C 11.203125 -1 13.09375 -0.296875 13.703125 1.703125 
C 14 2.5 17.703125 17.5625 18.296875 19.859375 
C 18.796875 22.046875 19.40625 24.15625 19.90625 26.34375 
C 20.296875 27.734375 20.703125 29.34375 21 30.640625 
C 21.296875 31.53125 24 36.421875 26.5 38.625 
C 27.703125 39.71875 30.296875 42.015625 34.40625 42.015625 
C 36 42.015625 37.59375 41.71875 38.90625 40.8125 
z
" id="CMMI12-114"/>
       <path d="M 50.296875 66.515625 
C 50.40625 66.90625 50.59375 67.5 50.59375 68 
C 50.59375 69 49.59375 69 49.40625 69 
C 49.296875 69 44.40625 68.5625 43.90625 68.4375 
C 42.203125 68.328125 40.703125 68.09375 38.90625 68.09375 
C 36.40625 67.890625 35.703125 67.796875 35.703125 66 
C 35.703125 65 36.5 65 37.90625 65 
C 42.796875 65 42.90625 64.109375 42.90625 63.125 
C 42.90625 62.53125 42.703125 61.75 42.59375 61.453125 
L 36.5 37.421875 
C 35.40625 40.015625 32.703125 44 27.5 44 
C 16.203125 44 4 29.4375 4 14.671875 
C 4 4.796875 9.796875 -1 16.59375 -1 
C 22.09375 -1 26.796875 3.296875 29.59375 6.59375 
C 30.59375 0.703125 35.296875 -1 38.296875 -1 
C 41.296875 -1 43.703125 0.796875 45.5 4.390625 
C 47.09375 7.78125 48.5 13.875 48.5 14.265625 
C 48.5 14.765625 48.09375 15.171875 47.5 15.171875 
C 46.59375 15.171875 46.5 14.671875 46.09375 13.171875 
C 44.59375 7.28125 42.703125 1 38.59375 1 
C 35.703125 1 35.5 3.578125 35.5 5.578125 
C 35.5 5.96875 35.5 8.046875 36.203125 10.84375 
z
M 30.09375 11.875 
C 29.59375 10.171875 29.59375 9.984375 28.203125 8.078125 
C 26 5.28125 21.59375 1 16.90625 1 
C 12.796875 1 10.5 4.6875 10.5 10.578125 
C 10.5 16.0625 13.59375 27.234375 15.5 31.4375 
C 18.90625 38.421875 23.59375 42.015625 27.5 42.015625 
C 34.09375 42.015625 35.40625 33.828125 35.40625 33.03125 
C 35.40625 32.9375 35.09375 31.625 35 31.4375 
z
" id="CMMI12-100"/>
       <path d="M 26.296875 24.703125 
C 26.296875 31.875 25.59375 44.015625 19.59375 56.859375 
C 14.796875 67.234375 6.59375 74.5 5.40625 74.5 
C 5.09375 74.5 4.703125 74.390625 4.703125 73.890625 
C 4.703125 73.703125 4.796875 73.59375 4.90625 73.390625 
C 9.703125 68.40625 21.90625 55.75 21.90625 24.75 
C 21.90625 -6.359375 9.796875 -19.015625 4.90625 -24.015625 
C 4.796875 -24.203125 4.703125 -24.3125 4.703125 -24.5 
C 4.703125 -25 5.09375 -25 5.40625 -25 
C 6.5 -25 15 -17.625 19.90625 -6.65625 
C 24.90625 4.390625 26.296875 15.140625 26.296875 24.703125 
z
" id="CMR17-41"/>
       <path d="M 23.5 -25 
L 23.5 -21.515625 
L 14.09375 -21.515625 
L 14.09375 71 
L 23.5 71 
L 23.5 74.484375 
L 10.59375 74.484375 
L 10.59375 -25 
z
" id="CMR17-91"/>
       <path d="M 20.59375 29.234375 
C 20.796875 29.84375 23.296875 34.828125 27 38.015625 
C 29.59375 40.40625 33 42.015625 36.90625 42.015625 
C 40.90625 42.015625 42.296875 39.015625 42.296875 35.03125 
C 42.296875 34.421875 42.296875 32.4375 41.09375 27.734375 
L 38.59375 17.46875 
C 37.796875 14.46875 35.90625 7.078125 35.703125 5.984375 
C 35.296875 4.484375 34.703125 1.890625 34.703125 1.5 
C 34.703125 0.09375 35.796875 -1 37.296875 -1 
C 40.296875 -1 40.796875 1.296875 41.703125 4.890625 
L 47.703125 28.734375 
C 47.90625 29.53125 53.09375 42.015625 64.09375 42.015625 
C 68.09375 42.015625 69.5 39.015625 69.5 35.03125 
C 69.5 29.4375 65.59375 18.5625 63.40625 12.578125 
C 62.5 10.171875 62 8.875 62 7.078125 
C 62 2.59375 65.09375 -1 69.90625 -1 
C 79.203125 -1 82.703125 13.671875 82.703125 14.265625 
C 82.703125 14.765625 82.296875 15.171875 81.703125 15.171875 
C 80.796875 15.171875 80.703125 14.875 80.203125 13.171875 
C 77.90625 5.1875 74.203125 1 70.203125 1 
C 69.203125 1 67.59375 1 67.59375 4.203125 
C 67.59375 6.8125 68.796875 10 69.203125 11.09375 
C 71 15.90625 75.5 27.703125 75.5 33.515625 
C 75.5 39.5 72 44 64.40625 44 
C 57.703125 44 52.296875 40.21875 48.296875 34.328125 
C 48 39.71875 44.703125 44 37.203125 44 
C 28.296875 44 23.59375 37.734375 21.796875 35.234375 
C 21.5 40.90625 17.40625 44 13 44 
C 10.09375 44 7.796875 42.609375 5.90625 38.8125 
C 4.09375 35.21875 2.703125 29.140625 2.703125 28.734375 
C 2.703125 28.34375 3.09375 27.84375 3.796875 27.84375 
C 4.59375 27.84375 4.703125 27.9375 5.296875 30.234375 
C 6.796875 36.125 8.703125 42.015625 12.703125 42.015625 
C 15 42.015625 15.796875 40.40625 15.796875 37.421875 
C 15.796875 35.21875 14.796875 31.328125 14.09375 28.234375 
L 11.296875 17.46875 
C 10.90625 15.5625 9.796875 11.078125 9.296875 9.28125 
C 8.59375 6.6875 7.5 2 7.5 1.5 
C 7.5 0.09375 8.59375 -1 10.09375 -1 
C 11.296875 -1 12.703125 -0.40625 13.5 1.09375 
C 13.703125 1.59375 14.59375 5.09375 15.09375 7.078125 
L 17.296875 16.0625 
z
" id="CMMI12-109"/>
       <path d="M 14.296875 74.484375 
L 1.40625 74.484375 
L 1.40625 71 
L 10.796875 71 
L 10.796875 -21.515625 
L 1.40625 -21.515625 
L 1.40625 -25 
L 14.296875 -25 
z
" id="CMR17-93"/>
      </defs>
      <use transform="scale(0.996264)" xlink:href="#CMR17-40"/>
      <use transform="translate(57.460107 39.226102)scale(0.697382)" xlink:href="#CMR17-49"/>
      <use transform="translate(36.476282 -34.355253)scale(0.697382)" xlink:href="#CMMI12-87"/>
      <use transform="translate(142.851727 0)scale(0.996264)" xlink:href="#CMMI12-111"/>
      <use transform="translate(189.747036 0)scale(0.996264)" xlink:href="#CMMI12-114"/>
      <use transform="translate(267.646761 0)scale(0.996264)" xlink:href="#CMMI12-100"/>
      <use transform="translate(318.335858 0)scale(0.996264)" xlink:href="#CMR17-41"/>
      <use transform="translate(353.616626 -17.925121)scale(0.697382)" xlink:href="#CMR17-91"/>
      <use transform="translate(371.026284 -17.925121)scale(0.697382)" xlink:href="#CMMI12-109"/>
      <use transform="translate(430.755076 -17.925121)scale(0.697382)" xlink:href="#CMMI12-109"/>
      <use transform="translate(490.483867 -17.925121)scale(0.697382)" xlink:href="#CMR17-93"/>
      <path d="M 36.476282 22.914133 
L 110.4271 22.914133 
L 110.4271 26.899083 
L 36.476282 26.899083 
L 36.476282 22.914133 
z
"/>
     </g>
    </g>
   </g>
   <g id="matplotlib.axis_2">
    <g id="ytick_1">
     <g id="line2d_6">
      <defs>
       <path d="M 0 0 
L -3.5 0 
" id="mf2c97d5525" style="stroke:#000000;stroke-width:0.8;"/>
      </defs>
      <g>
       <use style="stroke:#000000;stroke-width:0.8;" x="57.6" xlink:href="#mf2c97d5525" y="266.653142"/>
      </g>
     </g>
     <g id="text_7">
      <!-- $\mathdefault{−0.01}$ -->
      <g transform="translate(25.139842 270.112392)scale(0.1 -0.1)">
       <defs>
        <path d="M 65.90625 23 
C 67.59375 23 69.40625 23 69.40625 25 
C 69.40625 27 67.59375 27 65.90625 27 
L 11.796875 27 
C 10.09375 27 8.296875 27 8.296875 25 
C 8.296875 23 10.09375 23 11.796875 23 
z
" id="CMSY10-0"/>
        <path d="M 18.40625 4.796875 
C 18.40625 7.6875 16 9.671875 13.59375 9.671875 
C 10.703125 9.671875 8.703125 7.28125 8.703125 4.890625 
C 8.703125 2 11.09375 0 13.5 0 
C 16.40625 0 18.40625 2.390625 18.40625 4.796875 
z
" id="CMMI12-58"/>
       </defs>
       <use transform="scale(0.996264)" xlink:href="#CMSY10-0"/>
       <use transform="translate(77.487468 0)scale(0.996264)" xlink:href="#CMR17-48"/>
       <use transform="translate(123.177945 0)scale(0.996264)" xlink:href="#CMMI12-58"/>
       <use transform="translate(150.275122 0)scale(0.996264)" xlink:href="#CMR17-48"/>
       <use transform="translate(195.965599 0)scale(0.996264)" xlink:href="#CMR17-49"/>
      </g>
     </g>
    </g>
    <g id="ytick_2">
     <g id="line2d_7">
      <g>
       <use style="stroke:#000000;stroke-width:0.8;" x="57.6" xlink:href="#mf2c97d5525" y="207.553734"/>
      </g>
     </g>
     <g id="text_8">
      <!-- $\mathdefault{0.00}$ -->
      <g transform="translate(32.888586 211.012984)scale(0.1 -0.1)">
       <use transform="scale(0.996264)" xlink:href="#CMR17-48"/>
       <use transform="translate(45.690477 0)scale(0.996264)" xlink:href="#CMMI12-58"/>
       <use transform="translate(72.787654 0)scale(0.996264)" xlink:href="#CMR17-48"/>
       <use transform="translate(118.478131 0)scale(0.996264)" xlink:href="#CMR17-48"/>
      </g>
     </g>
    </g>
    <g id="ytick_3">
     <g id="line2d_8">
      <g>
       <use style="stroke:#000000;stroke-width:0.8;" x="57.6" xlink:href="#mf2c97d5525" y="148.454326"/>
      </g>
     </g>
     <g id="text_9">
      <!-- $\mathdefault{0.01}$ -->
      <g transform="translate(32.888586 151.913575)scale(0.1 -0.1)">
       <use transform="scale(0.996264)" xlink:href="#CMR17-48"/>
       <use transform="translate(45.690477 0)scale(0.996264)" xlink:href="#CMMI12-58"/>
       <use transform="translate(72.787654 0)scale(0.996264)" xlink:href="#CMR17-48"/>
       <use transform="translate(118.478131 0)scale(0.996264)" xlink:href="#CMR17-49"/>
      </g>
     </g>
    </g>
    <g id="ytick_4">
     <g id="line2d_9">
      <g>
       <use style="stroke:#000000;stroke-width:0.8;" x="57.6" xlink:href="#mf2c97d5525" y="89.354918"/>
      </g>
     </g>
     <g id="text_10">
      <!-- $\mathdefault{0.02}$ -->
      <g transform="translate(32.888586 92.814167)scale(0.1 -0.1)">
       <use transform="scale(0.996264)" xlink:href="#CMR17-48"/>
       <use transform="translate(45.690477 0)scale(0.996264)" xlink:href="#CMMI12-58"/>
       <use transform="translate(72.787654 0)scale(0.996264)" xlink:href="#CMR17-48"/>
       <use transform="translate(118.478131 0)scale(0.996264)" xlink:href="#CMR17-50"/>
      </g>
     </g>
    </g>
    <g id="text_11">
     <!--  $ \frac{1}{\alpha(W)}_{[\cdot]}$  -->
     <g transform="translate(13.719274 188.549835)rotate(-90)scale(0.1 -0.1)">
      <defs>
       <path d="M 46.296875 25.25 
C 46.296875 34.921875 40.796875 43.984375 30.203125 43.984375 
C 17.09375 43.984375 4 29.71875 4 15.5625 
C 4 6.890625 9.40625 -1 19.59375 -1 
C 25.796875 -1 33.203125 1.390625 40.296875 7.375 
C 41.703125 1.796875 44.796875 -1 49.09375 -1 
C 54.5 -1 57.203125 4.59375 57.203125 5.890625 
C 57.203125 6.78125 56.5 6.78125 56.203125 6.78125 
C 55.40625 6.78125 55.296875 6.484375 55 5.6875 
C 54.09375 3.1875 51.796875 1 49.40625 1 
C 46.296875 1 46.296875 7.375 46.296875 13.46875 
C 56.5 25.640625 58.90625 38.21875 58.90625 38.3125 
C 58.90625 39.21875 58.09375 39.21875 57.796875 39.21875 
C 56.90625 39.21875 56.796875 38.921875 56.40625 37.125 
C 55.09375 32.734375 52.5 24.953125 46.296875 16.765625 
z
M 40 9.78125 
C 31.203125 1.890625 23.296875 1 19.796875 1 
C 12.703125 1 10.703125 7.28125 10.703125 11.96875 
C 10.703125 16.25 12.90625 26.4375 16 31.9375 
C 20.09375 38.921875 25.703125 42 30.203125 42 
C 39.90625 42 39.90625 29.328125 39.90625 20.953125 
C 39.90625 18.46875 39.796875 15.875 39.796875 13.375 
C 39.796875 11.375 39.90625 10.875 40 9.78125 
z
" id="CMMI12-11"/>
       <path d="M 19.203125 25.296875 
C 19.203125 28.203125 16.796875 30.59375 13.90625 30.59375 
C 11 30.59375 8.59375 28.203125 8.59375 25.296875 
C 8.59375 22.390625 11 20 13.90625 20 
C 16.796875 20 19.203125 22.390625 19.203125 25.296875 
z
" id="CMSY10-1"/>
      </defs>
      <use transform="translate(67.618501 39.226102)scale(0.697382)" xlink:href="#CMR17-49"/>
      <use transform="translate(0 -34.355253)scale(0.697382)" xlink:href="#CMMI12-11"/>
      <use transform="translate(43.876524 -34.355253)scale(0.697382)" xlink:href="#CMR17-40"/>
      <use transform="translate(68.572945 -34.355253)scale(0.697382)" xlink:href="#CMMI12-87"/>
      <use transform="translate(142.523763 -34.355253)scale(0.697382)" xlink:href="#CMR17-41"/>
      <use transform="translate(168.415698 -55.218392)scale(0.697382)" xlink:href="#CMR17-91"/>
      <use transform="translate(185.825356 -55.218392)scale(0.697382)" xlink:href="#CMSY10-1"/>
      <use transform="translate(205.197125 -55.218392)scale(0.697382)" xlink:href="#CMR17-93"/>
      <path d="M 0 22.914133 
L 167.220184 22.914133 
L 167.220184 26.899083 
L 0 26.899083 
L 0 22.914133 
z
"/>
     </g>
    </g>
   </g>
   <g id="LineCollection_1">
    <path clip-path="url(#p297ee6bca2)" d="M 398.487273 188.927945 
L 398.487273 158.687945 
" style="fill:none;stroke:#000000;stroke-opacity:0.2;stroke-width:1.5;"/>
    <path clip-path="url(#p297ee6bca2)" d="M 222.044585 204.773351 
L 222.044585 144.293351 
" style="fill:none;stroke:#000000;stroke-opacity:0.2;stroke-width:1.5;"/>
    <path clip-path="url(#p297ee6bca2)" d="M 133.823241 234.394621 
L 133.823241 113.434621 
" style="fill:none;stroke:#000000;stroke-opacity:0.2;stroke-width:1.5;"/>
    <path clip-path="url(#p297ee6bca2)" d="M 89.712569 295.488 
L 89.712569 53.568 
" style="fill:none;stroke:#000000;stroke-opacity:0.2;stroke-width:1.5;"/>
   </g>
   <g id="LineCollection_2">
    <path clip-path="url(#p297ee6bca2)" d="M 133.823241 193.251121 
L 133.823241 144.710654 
" style="fill:none;stroke:#000000;stroke-opacity:0.2;stroke-width:1.5;"/>
    <path clip-path="url(#p297ee6bca2)" d="M 222.044585 181.696678 
L 222.044585 157.426445 
" style="fill:none;stroke:#000000;stroke-opacity:0.2;stroke-width:1.5;"/>
    <path clip-path="url(#p297ee6bca2)" d="M 222.044585 187.426123 
L 222.044585 163.15589 
" style="fill:none;stroke:#000000;stroke-opacity:0.2;stroke-width:1.5;"/>
    <path clip-path="url(#p297ee6bca2)" d="M 133.823241 194.083912 
L 133.823241 145.543446 
" style="fill:none;stroke:#000000;stroke-opacity:0.2;stroke-width:1.5;"/>
    <path clip-path="url(#p297ee6bca2)" d="M 133.823241 194.762966 
L 133.823241 146.222499 
" style="fill:none;stroke:#000000;stroke-opacity:0.2;stroke-width:1.5;"/>
   </g>
   <g id="LineCollection_3">
    <path clip-path="url(#p297ee6bca2)" d="M 73.832727 227.244938 
L 73.832727 140.062401 
" style="fill:none;stroke:#000000;stroke-opacity:0.2;stroke-width:1.5;"/>
    <path clip-path="url(#p297ee6bca2)" d="M 73.832727 228.277491 
L 73.832727 141.094954 
" style="fill:none;stroke:#000000;stroke-opacity:0.2;stroke-width:1.5;"/>
    <path clip-path="url(#p297ee6bca2)" d="M 102.063557 217.938235 
L 102.063557 174.346967 
" style="fill:none;stroke:#000000;stroke-opacity:0.2;stroke-width:1.5;"/>
    <path clip-path="url(#p297ee6bca2)" d="M 102.063557 217.365895 
L 102.063557 173.774627 
" style="fill:none;stroke:#000000;stroke-opacity:0.2;stroke-width:1.5;"/>
    <path clip-path="url(#p297ee6bca2)" d="M 73.832727 232.154714 
L 73.832727 144.972177 
" style="fill:none;stroke:#000000;stroke-opacity:0.2;stroke-width:1.5;"/>
   </g>
   <g id="line2d_10">
    <path clip-path="url(#p297ee6bca2)" d="M 398.487273 160.273564 
L 222.044585 183.913649 
L 133.823241 195.733692 
L 89.712569 201.643713 
" style="fill:none;stroke:#008080;stroke-linecap:square;stroke-width:1.5;"/>
   </g>
   <g id="line2d_11">
    <path clip-path="url(#p297ee6bca2)" d="M 133.823241 184.473397 
L 222.044585 161.393061 
L 222.044585 161.393061 
L 133.823241 184.473397 
L 133.823241 184.473397 
" style="fill:none;stroke:#808000;stroke-linecap:square;stroke-width:1.5;"/>
   </g>
   <g id="line2d_12">
    <path clip-path="url(#p297ee6bca2)" d="M 73.832727 197.322182 
L 73.832727 197.322182 
L 102.063557 187.090629 
L 102.063557 187.090629 
L 73.832727 197.322182 
" style="fill:none;stroke:#2f4f4f;stroke-linecap:square;stroke-width:1.5;"/>
   </g>
   <g id="line2d_13">
    <defs>
     <path d="M 0 3 
C 0.795609 3 1.55874 2.683901 2.12132 2.12132 
C 2.683901 1.55874 3 0.795609 3 0 
C 3 -0.795609 2.683901 -1.55874 2.12132 -2.12132 
C 1.55874 -2.683901 0.795609 -3 0 -3 
C -0.795609 -3 -1.55874 -2.683901 -2.12132 -2.12132 
C -2.683901 -1.55874 -3 -0.795609 -3 0 
C -3 0.795609 -2.683901 1.55874 -2.12132 2.12132 
C -1.55874 2.683901 -0.795609 3 0 3 
z
" id="mf8dbe1ca3c" style="stroke:#000000;stroke-opacity:0.2;"/>
    </defs>
    <g clip-path="url(#p297ee6bca2)">
     <use style="fill-opacity:0.2;stroke:#000000;stroke-opacity:0.2;" x="398.487273" xlink:href="#mf8dbe1ca3c" y="173.807945"/>
     <use style="fill-opacity:0.2;stroke:#000000;stroke-opacity:0.2;" x="222.044585" xlink:href="#mf8dbe1ca3c" y="174.533351"/>
     <use style="fill-opacity:0.2;stroke:#000000;stroke-opacity:0.2;" x="133.823241" xlink:href="#mf8dbe1ca3c" y="173.914621"/>
     <use style="fill-opacity:0.2;stroke:#000000;stroke-opacity:0.2;" x="89.712569" xlink:href="#mf8dbe1ca3c" y="174.528"/>
    </g>
   </g>
   <g id="line2d_14">
    <g clip-path="url(#p297ee6bca2)">
     <use style="fill-opacity:0.2;stroke:#000000;stroke-opacity:0.2;" x="133.823241" xlink:href="#mf8dbe1ca3c" y="168.980887"/>
     <use style="fill-opacity:0.2;stroke:#000000;stroke-opacity:0.2;" x="222.044585" xlink:href="#mf8dbe1ca3c" y="169.561561"/>
     <use style="fill-opacity:0.2;stroke:#000000;stroke-opacity:0.2;" x="222.044585" xlink:href="#mf8dbe1ca3c" y="175.291006"/>
     <use style="fill-opacity:0.2;stroke:#000000;stroke-opacity:0.2;" x="133.823241" xlink:href="#mf8dbe1ca3c" y="169.813679"/>
     <use style="fill-opacity:0.2;stroke:#000000;stroke-opacity:0.2;" x="133.823241" xlink:href="#mf8dbe1ca3c" y="170.492733"/>
    </g>
   </g>
   <g id="line2d_15">
    <g clip-path="url(#p297ee6bca2)">
     <use style="fill-opacity:0.2;stroke:#000000;stroke-opacity:0.2;" x="73.832727" xlink:href="#mf8dbe1ca3c" y="183.653669"/>
     <use style="fill-opacity:0.2;stroke:#000000;stroke-opacity:0.2;" x="73.832727" xlink:href="#mf8dbe1ca3c" y="184.686223"/>
     <use style="fill-opacity:0.2;stroke:#000000;stroke-opacity:0.2;" x="102.063557" xlink:href="#mf8dbe1ca3c" y="196.142601"/>
     <use style="fill-opacity:0.2;stroke:#000000;stroke-opacity:0.2;" x="102.063557" xlink:href="#mf8dbe1ca3c" y="195.570261"/>
     <use style="fill-opacity:0.2;stroke:#000000;stroke-opacity:0.2;" x="73.832727" xlink:href="#mf8dbe1ca3c" y="188.563446"/>
    </g>
   </g>
   <g id="patch_3">
    <path d="M 57.6 307.584 
L 57.6 41.472 
" style="fill:none;stroke:#000000;stroke-linecap:square;stroke-linejoin:miter;stroke-width:0.8;"/>
   </g>
   <g id="patch_4">
    <path d="M 414.72 307.584 
L 414.72 41.472 
" style="fill:none;stroke:#000000;stroke-linecap:square;stroke-linejoin:miter;stroke-width:0.8;"/>
   </g>
   <g id="patch_5">
    <path d="M 57.6 307.584 
L 414.72 307.584 
" style="fill:none;stroke:#000000;stroke-linecap:square;stroke-linejoin:miter;stroke-width:0.8;"/>
   </g>
   <g id="patch_6">
    <path d="M 57.6 41.472 
L 414.72 41.472 
" style="fill:none;stroke:#000000;stroke-linecap:square;stroke-linejoin:miter;stroke-width:0.8;"/>
   </g>
   <g id="text_12">
    <!--  $\frac{1}{\alpha} \ - \ W \ linear \ connection $ -->
    <g transform="translate(167.473536 35.472)scale(0.12 -0.12)">
     <defs>
      <path d="M 25.40625 66.515625 
C 25.5 66.90625 25.703125 67.5 25.703125 68 
C 25.703125 69 24.703125 69 24.5 69 
C 24.40625 69 20.796875 68.640625 19 68.390625 
C 17.296875 68.390625 15.796875 68.09375 14 68.09375 
C 11.59375 67.890625 10.90625 67.796875 10.90625 66 
C 10.90625 65 11.90625 65 12.90625 65 
C 18 65 18 64.09375 18 63.109375 
C 18 62.71875 18 62.515625 17.5 60.734375 
L 5.09375 11.421875 
C 4.796875 10.328125 4.59375 9.53125 4.59375 7.953125 
C 4.59375 2.984375 8.296875 -1 13.40625 -1 
C 16.703125 -1 18.90625 1.1875 20.5 4.28125 
C 22.203125 7.546875 23.59375 13.8125 23.59375 14.203125 
C 23.59375 14.703125 23.203125 15.109375 22.59375 15.109375 
C 21.703125 15.109375 21.59375 14.609375 21.203125 13.125 
C 19.40625 6.265625 17.59375 1 13.59375 1 
C 10.59375 1 10.59375 4.171875 10.59375 5.578125 
C 10.59375 5.96875 10.59375 8.046875 11.296875 10.84375 
z
" id="CMMI12-108"/>
      <path d="M 28.296875 14.265625 
C 28.296875 14.765625 27.90625 15.171875 27.296875 15.171875 
C 26.40625 15.171875 26.296875 14.875 25.796875 13.171875 
C 23.203125 4.09375 19.09375 1 15.796875 1 
C 14.59375 1 13.203125 1.296875 13.203125 4.296875 
C 13.203125 6.984375 14.40625 9.984375 15.5 12.96875 
L 22.5 31.53125 
C 22.796875 32.328125 23.5 34.125 23.5 36.015625 
C 23.5 40.21875 20.5 44 15.59375 44 
C 6.40625 44 2.703125 29.53125 2.703125 28.734375 
C 2.703125 28.34375 3.09375 27.84375 3.796875 27.84375 
C 4.703125 27.84375 4.796875 28.234375 5.203125 29.625 
C 7.59375 37.9375 11.40625 41.90625 15.296875 41.90625 
C 16.203125 41.90625 17.90625 41.90625 17.90625 38.71875 
C 17.90625 36.125 16.59375 32.828125 15.796875 30.640625 
L 8.796875 12.078125 
C 8.203125 10.484375 7.59375 8.875 7.59375 7.078125 
C 7.59375 2.59375 10.703125 -1 15.5 -1 
C 24.703125 -1 28.296875 13.578125 28.296875 14.265625 
z
M 27.5 62.703125 
C 27.5 64.203125 26.296875 66 24.09375 66 
C 21.796875 66 19.203125 63.796875 19.203125 61.203125 
C 19.203125 58.71875 21.296875 57.921875 22.5 57.921875 
C 25.203125 57.921875 27.5 60.515625 27.5 62.703125 
z
" id="CMMI12-105"/>
      <path d="M 20.59375 29.234375 
C 20.796875 29.84375 23.296875 34.828125 27 38.015625 
C 29.59375 40.40625 33 42.015625 36.90625 42.015625 
C 40.90625 42.015625 42.296875 39.015625 42.296875 35.03125 
C 42.296875 29.34375 38.203125 17.96875 36.203125 12.578125 
C 35.296875 10.171875 34.796875 8.875 34.796875 7.078125 
C 34.796875 2.59375 37.90625 -1 42.703125 -1 
C 52 -1 55.5 13.671875 55.5 14.265625 
C 55.5 14.765625 55.09375 15.171875 54.5 15.171875 
C 53.59375 15.171875 53.5 14.875 53 13.171875 
C 50.703125 4.984375 46.90625 1 43 1 
C 42 1 40.40625 1 40.40625 4.203125 
C 40.40625 6.703125 41.5 9.703125 42.09375 11.09375 
C 44.09375 16.609375 48.296875 27.8125 48.296875 33.515625 
C 48.296875 39.5 44.796875 44 37.203125 44 
C 28.296875 44 23.59375 37.734375 21.796875 35.234375 
C 21.5 40.90625 17.40625 44 13 44 
C 9.796875 44 7.59375 42.109375 5.90625 38.71875 
C 4.09375 35.125 2.703125 29.140625 2.703125 28.734375 
C 2.703125 28.34375 3.09375 27.84375 3.796875 27.84375 
C 4.59375 27.84375 4.703125 27.9375 5.296875 30.234375 
C 6.90625 36.328125 8.703125 42.015625 12.703125 42.015625 
C 15 42.015625 15.796875 40.40625 15.796875 37.421875 
C 15.796875 35.21875 14.796875 31.328125 14.09375 28.234375 
L 11.296875 17.46875 
C 10.90625 15.5625 9.796875 11.078125 9.296875 9.28125 
C 8.59375 6.6875 7.5 2 7.5 1.5 
C 7.5 0.09375 8.59375 -1 10.09375 -1 
C 11.296875 -1 12.703125 -0.40625 13.5 1.09375 
C 13.703125 1.59375 14.59375 5.09375 15.09375 7.078125 
L 17.296875 16.0625 
z
" id="CMMI12-110"/>
      <path d="M 17.90625 23.109375 
C 20.59375 23.109375 27.40625 23.109375 32.203125 24.921875 
C 39.796875 27.859375 40.5 33.71875 40.5 35.53125 
C 40.5 39.96875 36.703125 44 30.09375 44 
C 19.59375 44 4.5 34.53125 4.5 16.765625 
C 4.5 6.28125 10.5 -1 19.59375 -1 
C 33.203125 -1 41.796875 9.515625 41.796875 10.8125 
C 41.796875 11.40625 41.203125 11.90625 40.796875 11.90625 
C 40.5 11.90625 40.40625 11.8125 39.5 10.921875 
C 33.09375 2.484375 23.59375 1 19.796875 1 
C 14.09375 1 11.09375 5.46875 11.09375 12.84375 
C 11.09375 14.234375 11.09375 16.734375 12.59375 23.109375 
z
M 13.09375 25 
C 17.40625 40.5 26.90625 42.015625 30.09375 42.015625 
C 34.5 42.015625 37.5 39.40625 37.5 35.578125 
C 37.5 25 21.5 25 17.296875 25 
z
" id="CMMI12-101"/>
      <path d="M 30.09375 11.875 
C 29.59375 10.171875 29.59375 9.984375 28.203125 8.078125 
C 26 5.28125 21.59375 1 16.90625 1 
C 12.796875 1 10.5 4.6875 10.5 10.578125 
C 10.5 16.0625 13.59375 27.234375 15.5 31.4375 
C 18.90625 38.421875 23.59375 42.015625 27.5 42.015625 
C 34.09375 42.015625 35.40625 33.828125 35.40625 33.03125 
C 35.40625 32.9375 35.09375 31.625 35 31.4375 
z
M 36.5 37.421875 
C 35.40625 40.015625 32.703125 44 27.5 44 
C 16.203125 44 4 29.4375 4 14.671875 
C 4 4.796875 9.796875 -1 16.59375 -1 
C 22.09375 -1 26.796875 3.296875 29.59375 6.59375 
C 30.59375 0.703125 35.296875 -1 38.296875 -1 
C 41.296875 -1 43.703125 0.796875 45.5 4.390625 
C 47.09375 7.78125 48.5 13.875 48.5 14.265625 
C 48.5 14.765625 48.09375 15.171875 47.5 15.171875 
C 46.59375 15.171875 46.5 14.671875 46.09375 13.171875 
C 44.59375 7.28125 42.703125 1 38.59375 1 
C 35.703125 1 35.5 3.59375 35.5 5.59375 
C 35.5 7.890625 35.796875 8.984375 36.703125 12.875 
C 37.40625 15.375 37.90625 17.5625 38.703125 20.453125 
C 42.40625 35.421875 43.296875 39.015625 43.296875 39.609375 
C 43.296875 41.015625 42.203125 42.109375 40.703125 42.109375 
C 37.5 42.109375 36.703125 38.625 36.5 37.421875 
z
" id="CMMI12-97"/>
      <path d="M 39.09375 37.984375 
C 37.203125 37.984375 36.296875 37.984375 34.90625 36.796875 
C 34.296875 36.296875 33.203125 34.796875 33.203125 33.203125 
C 33.203125 31.203125 34.703125 30 36.59375 30 
C 39 30 41.703125 31.9375 41.703125 35.8125 
C 41.703125 40.4375 37.09375 44 30.203125 44 
C 17.09375 44 4 29.734375 4 15.5625 
C 4 6.890625 9.40625 -1 19.59375 -1 
C 33.203125 -1 41.796875 9.71875 41.796875 11.03125 
C 41.796875 11.625 41.203125 12.125 40.796875 12.125 
C 40.5 12.125 40.40625 12.03125 39.5 11.140625 
C 33.09375 2.53125 23.59375 1 19.796875 1 
C 12.90625 1 10.703125 6.96875 10.703125 11.9375 
C 10.703125 15.4375 12.40625 25.078125 16 31.859375 
C 18.59375 36.53125 24 41.90625 30.296875 41.90625 
C 31.59375 41.90625 37.09375 41.90625 39.09375 37.984375 
z
" id="CMMI12-99"/>
      <path d="M 20.09375 40.09375 
L 29.296875 40.09375 
C 31.203125 40.09375 32.203125 40.09375 32.203125 41.890625 
C 32.203125 43 31.59375 43 29.59375 43 
L 20.796875 43 
L 24.5 57.6875 
C 24.90625 59.078125 24.90625 59.28125 24.90625 60 
C 24.90625 61.609375 23.59375 62.5 22.296875 62.5 
C 21.5 62.5 19.203125 62.203125 18.40625 58.984375 
L 14.5 43 
L 5.09375 43 
C 3.09375 43 2.203125 43 2.203125 41.09375 
C 2.203125 40.09375 2.90625 40.09375 4.796875 40.09375 
L 13.703125 40.09375 
L 7.09375 13.765625 
C 6.296875 10.28125 6 9.28125 6 7.984375 
C 6 3.296875 9.296875 -1 14.90625 -1 
C 25 -1 30.40625 13.5625 30.40625 14.25 
C 30.40625 14.859375 30 15.15625 29.40625 15.15625 
C 29.203125 15.15625 28.796875 15.15625 28.59375 14.75 
C 28.5 14.65625 28.40625 14.546875 27.703125 12.953125 
C 25.59375 7.984375 21 1 15.203125 1 
C 12.203125 1 12 3.5 12 5.6875 
C 12 5.78125 12 7.6875 12.296875 8.875 
z
" id="CMMI12-116"/>
     </defs>
     <use transform="translate(5.946679 39.226102)scale(0.697382)" xlink:href="#CMR17-49"/>
     <use transform="translate(0 -34.355253)scale(0.697382)" xlink:href="#CMMI12-11"/>
     <use transform="translate(98.440358 0)scale(0.996264)" xlink:href="#CMSY10-0"/>
     <use transform="translate(229.296145 0)scale(0.996264)" xlink:href="#CMMI12-87"/>
     <use transform="translate(366.169756 0)scale(0.996264)" xlink:href="#CMMI12-108"/>
     <use transform="translate(397.41816 0)scale(0.996264)" xlink:href="#CMMI12-105"/>
     <use transform="translate(430.696762 0)scale(0.996264)" xlink:href="#CMMI12-110"/>
     <use transform="translate(488.926809 0)scale(0.996264)" xlink:href="#CMMI12-101"/>
     <use transform="translate(534.13881 0)scale(0.996264)" xlink:href="#CMMI12-97"/>
     <use transform="translate(585.346668 0)scale(0.996264)" xlink:href="#CMMI12-114"/>
     <use transform="translate(663.246392 0)scale(0.996264)" xlink:href="#CMMI12-99"/>
     <use transform="translate(705.229626 0)scale(0.996264)" xlink:href="#CMMI12-111"/>
     <use transform="translate(752.124936 0)scale(0.996264)" xlink:href="#CMMI12-110"/>
     <use transform="translate(810.354983 0)scale(0.996264)" xlink:href="#CMMI12-110"/>
     <use transform="translate(868.58503 0)scale(0.996264)" xlink:href="#CMMI12-101"/>
     <use transform="translate(913.797031 0)scale(0.996264)" xlink:href="#CMMI12-99"/>
     <use transform="translate(955.780265 0)scale(0.996264)" xlink:href="#CMMI12-116"/>
     <use transform="translate(991.006595 0)scale(0.996264)" xlink:href="#CMMI12-105"/>
     <use transform="translate(1024.285197 0)scale(0.996264)" xlink:href="#CMMI12-111"/>
     <use transform="translate(1071.180507 0)scale(0.996264)" xlink:href="#CMMI12-110"/>
     <path d="M 0 22.914133 
L 43.876524 22.914133 
L 43.876524 26.899083 
L 0 26.899083 
L 0 22.914133 
z
"/>
    </g>
   </g>
   <g id="legend_1">
    <g id="patch_7">
     <path d="M 276.536381 94.32832 
L 407.72 94.32832 
Q 409.72 94.32832 409.72 92.32832 
L 409.72 48.472 
Q 409.72 46.472 407.72 46.472 
L 276.536381 46.472 
Q 274.536381 46.472 274.536381 48.472 
L 274.536381 92.32832 
Q 274.536381 94.32832 276.536381 94.32832 
z
" style="fill:#ffffff;opacity:0.8;stroke:#cccccc;stroke-linejoin:miter;"/>
    </g>
    <g id="line2d_16">
     <path d="M 278.536381 54.570438 
L 298.536381 54.570438 
" style="fill:none;stroke:#008080;stroke-linecap:square;stroke-width:1.5;"/>
    </g>
    <g id="line2d_17"/>
    <g id="text_13">
     <!-- single slit, $\lambda = 0.0$ -->
     <g transform="translate(306.536381 58.070438)scale(0.1 -0.1)">
      <defs>
       <path d="M 32.203125 41.046875 
C 26.296875 43.859375 21.703125 43.859375 18.703125 43.859375 
C 11.59375 43.859375 3.09375 41.375 3.09375 31.296875 
C 3.09375 21.234375 14.09375 19.03125 17.09375 18.421875 
C 21.703125 17.53125 26.796875 16.53125 26.796875 11.5625 
C 26.796875 5.265625 19.59375 5.265625 18.296875 5.265625 
C 14.296875 5.265625 8.796875 6.359375 3.796875 9.96875 
L 2.59375 3.28125 
C 8.296875 0 13.796875 -1 18.40625 -1 
C 30.703125 -1 33.796875 6.5 33.796875 12.203125 
C 33.796875 17.09375 31 20.390625 29.09375 21.890625 
C 25.796875 24.5 24.59375 24.796875 16.40625 26.5 
C 15 26.703125 10.09375 27.796875 10.09375 32.28125 
C 10.09375 38 16.40625 38 17.796875 38 
C 24.296875 38 28.296875 35.984375 31 34.5 
z
" id="CMSS17-115"/>
       <path d="M 15.296875 65.359375 
L 6.90625 65.359375 
L 6.90625 57 
L 15.296875 57 
z
M 14.796875 42.796875 
L 7.40625 42.796875 
L 7.40625 0 
L 14.796875 0 
z
" id="CMSS17-105"/>
       <path d="M 40.90625 29.328125 
C 40.90625 35.671875 39.40625 44 28.09375 44 
C 21.703125 44 17.5 40.71875 14.703125 37.328125 
L 14.703125 43.09375 
L 7.40625 43.09375 
L 7.40625 0 
L 15 0 
L 15 24.359375 
C 15 30.6875 17.40625 37.9375 24.203125 37.9375 
C 33 37.9375 33.296875 32 33.296875 28.578125 
L 33.296875 0 
L 40.90625 0 
z
" id="CMSS17-110"/>
       <path d="M 44.5 43.875 
C 38.796875 43.875 33.90625 42.78125 29.90625 40.890625 
C 26.59375 43.390625 23.203125 43.875 20.90625 43.875 
C 12.203125 43.875 5.59375 36.703125 5.59375 28.34375 
C 5.59375 22.9375 8.59375 18.859375 8.796875 18.671875 
C 7 16.171875 6 13.484375 6 10.5 
C 6 7 7.40625 4.515625 8.5 3.125 
C 3.296875 -0.046875 2.59375 -4.90625 2.59375 -6.796875 
C 2.59375 -14.03125 11.703125 -20 23.40625 -20 
C 35.203125 -20 44.296875 -14.03125 44.296875 -6.6875 
C 44.296875 7 29 7 24.796875 7 
L 16.703125 7 
C 15.203125 7 11.203125 7 11.203125 12.359375 
C 11.203125 14.390625 12.09375 15.6875 12.203125 15.78125 
C 13.703125 14.6875 16.796875 13 20.90625 13 
C 29.203125 13 36.09375 19.96875 36.09375 28.546875 
C 36.09375 33.3125 33.90625 36.796875 33 38 
L 33.296875 38 
C 33.59375 38 37.796875 38 39.296875 38 
C 42.5 38 42.796875 37.953125 45.59375 37.796875 
z
M 20.90625 18.46875 
C 17.5 18.46875 12.703125 20.546875 12.703125 28.484375 
C 12.703125 37.109375 18.203125 38.5 20.796875 38.5 
C 24.203125 38.5 29 36.421875 29 28.484375 
C 29 19.859375 23.5 18.46875 20.90625 18.46875 
z
M 24.703125 -0.15625 
C 27.09375 -0.15625 37.203125 -0.15625 37.203125 -6.90625 
C 37.203125 -11.15625 31 -14.515625 23.5 -14.515625 
C 15.90625 -14.515625 9.703125 -11.25 9.703125 -6.796875 
C 9.703125 -6.296875 9.703125 -0.15625 16.59375 -0.15625 
z
" id="CMSS17-103"/>
       <path d="M 14.796875 69 
L 7.40625 69 
L 7.40625 0 
L 14.796875 0 
z
" id="CMSS17-108"/>
       <path d="M 39.09375 21.515625 
C 39.09375 24.84375 38.90625 31.296875 35.703125 36.640625 
C 32.203125 42.390625 26.5 44 22.203125 44 
C 11.796875 44 3 34.1875 3 21.484375 
C 3 9.09375 12.09375 -1 23.59375 -1 
C 28.09375 -1 33.59375 0.296875 38.59375 3.875 
C 38.59375 4.28125 38.40625 6.46875 38.296875 6.5625 
C 38.296875 6.765625 38 9.84375 38 10.25 
C 33.203125 6.359375 27.703125 5.078125 23.703125 5.078125 
C 17.296875 5.078125 10.40625 10.421875 10.09375 21.515625 
z
M 10.90625 27 
C 12.203125 32.5625 16.59375 37.828125 22.203125 37.828125 
C 23.703125 37.828125 30.703125 37.828125 32.5 27 
z
" id="CMSS17-101"/>
       <path d="M 16.703125 37 
L 29.703125 37 
L 29.703125 42.765625 
L 16.703125 42.765625 
L 16.703125 55 
L 9.59375 55 
L 9.59375 42.765625 
L 1.703125 42.765625 
L 1.703125 37 
L 9.40625 37 
L 9.40625 11.703125 
C 9.40625 6 10.703125 -1 17.296875 -1 
C 22.296875 -1 26.90625 0.390625 31.296875 2.6875 
L 29.703125 8.5625 
C 27.296875 6.46875 24.40625 5.265625 21.296875 5.265625 
C 16.90625 5.265625 16.703125 10.875 16.703125 13.375 
z
" id="CMSS17-116"/>
       <path d="M 17 0.09375 
L 17 7.96875 
L 9 7.96875 
L 9 0 
L 11.5 0 
L 8.90625 -12.5 
L 12.90625 -12.5 
z
" id="CMSS17-44"/>
       <path d="M 30.90625 61.953125 
C 28.40625 69 20.5 69 19.203125 69 
C 18.59375 69 17.5 69 17.5 68 
C 17.5 67.21875 18.09375 67.109375 18.59375 67.015625 
C 20.09375 66.8125 21.296875 66.609375 22.90625 63.75 
C 23.90625 61.859375 34.203125 32.171875 34.203125 31.96875 
C 34.203125 31.875 34.09375 31.765625 33.296875 30.96875 
L 7.296875 4.859375 
C 6.09375 3.65625 5.296875 2.859375 5.296875 1.59375 
C 5.296875 0.1875 6.5 -1 8.09375 -1 
C 8.5 -1 9.59375 -0.796875 10.203125 -0.203125 
C 11.796875 1.28125 26.09375 18.65625 35.203125 29.390625 
C 37.796875 21.609375 41 12.453125 44.09375 4.078125 
C 44.59375 2.59375 45.09375 1.1875 46.5 -0.09375 
C 47.5 -1 47.703125 -1 50.5 -1 
L 52.40625 -1 
C 52.796875 -1 53.5 -1 53.5 -0.203125 
C 53.5 0.203125 53.40625 0.296875 53 0.703125 
C 52.09375 1.796875 51.40625 3.578125 51 4.78125 
z
" id="CMMI12-21"/>
       <path d="M 64.296875 31.515625 
C 65.796875 31.515625 67.296875 31.515625 67.296875 33.203125 
C 67.296875 35 65.59375 35 63.90625 35 
L 8 35 
C 6.296875 35 4.59375 35 4.59375 33.203125 
C 4.59375 31.515625 6.09375 31.515625 7.59375 31.515625 
z
M 63.90625 14 
C 65.59375 14 67.296875 14 67.296875 15.796875 
C 67.296875 17.484375 65.796875 17.484375 64.296875 17.484375 
L 7.59375 17.484375 
C 6.09375 17.484375 4.59375 17.484375 4.59375 15.796875 
C 4.59375 14 6.296875 14 8 14 
z
" id="CMR17-61"/>
      </defs>
      <use transform="scale(0.996264)" xlink:href="#CMSS17-115"/>
      <use transform="translate(35.913542 0)scale(0.996264)" xlink:href="#CMSS17-105"/>
      <use transform="translate(58.094265 0)scale(0.996264)" xlink:href="#CMSS17-110"/>
      <use transform="translate(106.299208 0)scale(0.996264)" xlink:href="#CMSS17-103"/>
      <use transform="translate(153.142832 0)scale(0.996264)" xlink:href="#CMSS17-108"/>
      <use transform="translate(175.323555 0)scale(0.996264)" xlink:href="#CMSS17-101"/>
      <use transform="translate(248.19149 0)scale(0.996264)" xlink:href="#CMSS17-115"/>
      <use transform="translate(284.105032 0)scale(0.996264)" xlink:href="#CMSS17-108"/>
      <use transform="translate(306.285755 0)scale(0.996264)" xlink:href="#CMSS17-105"/>
      <use transform="translate(328.466478 0)scale(0.996264)" xlink:href="#CMSS17-116"/>
      <use transform="translate(362.298044 0)scale(0.996264)" xlink:href="#CMSS17-44"/>
      <use transform="translate(419.551362 0)scale(0.996264)" xlink:href="#CMMI12-21"/>
      <use transform="translate(504.129443 0)scale(0.996264)" xlink:href="#CMR17-61"/>
      <use transform="translate(603.51824 0)scale(0.996264)" xlink:href="#CMR17-48"/>
      <use transform="translate(649.208717 0)scale(0.996264)" xlink:href="#CMMI12-58"/>
      <use transform="translate(676.305894 0)scale(0.996264)" xlink:href="#CMR17-48"/>
     </g>
    </g>
    <g id="line2d_18">
     <path d="M 278.536381 69.248563 
L 298.536381 69.248563 
" style="fill:none;stroke:#808000;stroke-linecap:square;stroke-width:1.5;"/>
    </g>
    <g id="line2d_19"/>
    <g id="text_14">
     <!-- double slit, $\lambda(W) = 0.0$ -->
     <g transform="translate(306.536381 72.748563)scale(0.1 -0.1)">
      <defs>
       <path d="M 40.796875 69 
L 33.40625 69 
L 33.40625 38.09375 
C 30.296875 40.671875 25.203125 43.0625 19.59375 43.0625 
C 10.5 43.0625 3.296875 33.296875 3.296875 21.046875 
C 3.296875 8.78125 10.40625 -1 19.296875 -1 
C 26.203125 -1 30.796875 2.6875 33.203125 4.78125 
L 33.203125 -0.203125 
L 40.796875 -0.203125 
z
M 33.203125 13.0625 
C 33.203125 11.671875 33.203125 10.203125 30.09375 7.53125 
C 28.09375 5.859375 25.703125 5.078125 23.40625 5.078125 
C 18 5.078125 10.90625 9 10.90625 20.9375 
C 10.90625 33.34375 18.90625 37 24.40625 37 
C 28.09375 37 31.09375 35.21875 33.203125 32.265625 
z
" id="CMSS17-100"/>
       <path d="M 44.203125 21.1875 
C 44.203125 34 34.703125 44 23.5 44 
C 12 44 2.703125 33.703125 2.703125 21.1875 
C 2.703125 8.5 12.296875 -1 23.40625 -1 
C 34.796875 -1 44.203125 8.796875 44.203125 21.1875 
z
M 23.5 5.265625 
C 16.40625 5.265625 10.296875 11.078125 10.296875 22 
C 10.296875 33.609375 17.40625 37.921875 23.40625 37.921875 
C 29.90625 37.921875 36.59375 33.21875 36.59375 22 
C 36.59375 10.671875 30.09375 5.265625 23.5 5.265625 
z
" id="CMSS17-111"/>
       <path d="M 40.90625 42.796875 
L 33.296875 42.796875 
L 33.296875 15.1875 
C 33.296875 7.78125 27.90625 4.78125 22.203125 4.78125 
C 15.59375 4.78125 15 6.984375 15 11.078125 
L 15 42.796875 
L 7.40625 42.796875 
L 7.40625 10.59375 
C 7.40625 2.796875 10.09375 -1 17 -1 
C 20.40625 -1 28.09375 -0.203125 33.5 4.78125 
L 33.5 0 
L 40.90625 0 
z
" id="CMSS17-117"/>
       <path d="M 14.90625 69 
L 7.5 69 
L 7.5 -0.203125 
L 15.09375 -0.203125 
L 15.09375 4.28125 
C 18.90625 0.59375 23.5 -1 27.59375 -1 
C 37.203125 -1 45 8.578125 45 21.125 
C 45 32.59375 39 43.0625 30.09375 43.0625 
C 23.796875 43.0625 18.203125 40.484375 14.90625 37.796875 
z
M 15.09375 31.96875 
C 17.296875 34.71875 20.40625 37 24.796875 37 
C 30.703125 37 37.40625 32.765625 37.40625 21.125 
C 37.40625 8.71875 29.40625 5.078125 23.90625 5.078125 
C 21.90625 5.078125 19.796875 5.5625 17.796875 7.25 
C 15.09375 9.609375 15.09375 11.078125 15.09375 12.453125 
z
" id="CMSS17-98"/>
      </defs>
      <use transform="scale(0.996264)" xlink:href="#CMSS17-100"/>
      <use transform="translate(48.204943 0)scale(0.996264)" xlink:href="#CMSS17-111"/>
      <use transform="translate(95.048567 0)scale(0.996264)" xlink:href="#CMSS17-117"/>
      <use transform="translate(143.25351 0)scale(0.996264)" xlink:href="#CMSS17-98"/>
      <use transform="translate(191.458453 0)scale(0.996264)" xlink:href="#CMSS17-108"/>
      <use transform="translate(213.639176 0)scale(0.996264)" xlink:href="#CMSS17-101"/>
      <use transform="translate(286.507111 0)scale(0.996264)" xlink:href="#CMSS17-115"/>
      <use transform="translate(322.420653 0)scale(0.996264)" xlink:href="#CMSS17-108"/>
      <use transform="translate(344.601376 0)scale(0.996264)" xlink:href="#CMSS17-105"/>
      <use transform="translate(366.782099 0)scale(0.996264)" xlink:href="#CMSS17-116"/>
      <use transform="translate(400.613666 0)scale(0.996264)" xlink:href="#CMSS17-44"/>
      <use transform="translate(457.866983 0)scale(0.996264)" xlink:href="#CMMI12-21"/>
      <use transform="translate(514.771055 0)scale(0.996264)" xlink:href="#CMR17-40"/>
      <use transform="translate(550.051823 0)scale(0.996264)" xlink:href="#CMMI12-87"/>
      <use transform="translate(655.696321 0)scale(0.996264)" xlink:href="#CMR17-41"/>
      <use transform="translate(718.651097 0)scale(0.996264)" xlink:href="#CMR17-61"/>
      <use transform="translate(818.039894 0)scale(0.996264)" xlink:href="#CMR17-48"/>
      <use transform="translate(863.730371 0)scale(0.996264)" xlink:href="#CMMI12-58"/>
      <use transform="translate(890.827549 0)scale(0.996264)" xlink:href="#CMR17-48"/>
     </g>
    </g>
    <g id="line2d_20">
     <path d="M 278.536381 84.33766 
L 298.536381 84.33766 
" style="fill:none;stroke:#2f4f4f;stroke-linecap:square;stroke-width:1.5;"/>
    </g>
    <g id="line2d_21"/>
    <g id="text_15">
     <!-- double slit, $\lambda(d) = 0.0$ -->
     <g transform="translate(306.536381 87.83766)scale(0.1 -0.1)">
      <use transform="scale(0.996264)" xlink:href="#CMSS17-100"/>
      <use transform="translate(48.204943 0)scale(0.996264)" xlink:href="#CMSS17-111"/>
      <use transform="translate(95.048567 0)scale(0.996264)" xlink:href="#CMSS17-117"/>
      <use transform="translate(143.25351 0)scale(0.996264)" xlink:href="#CMSS17-98"/>
      <use transform="translate(191.458453 0)scale(0.996264)" xlink:href="#CMSS17-108"/>
      <use transform="translate(213.639176 0)scale(0.996264)" xlink:href="#CMSS17-101"/>
      <use transform="translate(286.507111 0)scale(0.996264)" xlink:href="#CMSS17-115"/>
      <use transform="translate(322.420653 0)scale(0.996264)" xlink:href="#CMSS17-108"/>
      <use transform="translate(344.601376 0)scale(0.996264)" xlink:href="#CMSS17-105"/>
      <use transform="translate(366.782099 0)scale(0.996264)" xlink:href="#CMSS17-116"/>
      <use transform="translate(400.613666 0)scale(0.996264)" xlink:href="#CMSS17-44"/>
      <use transform="translate(457.866983 0)scale(0.996264)" xlink:href="#CMMI12-21"/>
      <use transform="translate(514.771055 0)scale(0.996264)" xlink:href="#CMR17-40"/>
      <use transform="translate(550.051823 0)scale(0.996264)" xlink:href="#CMMI12-100"/>
      <use transform="translate(600.74092 0)scale(0.996264)" xlink:href="#CMR17-41"/>
      <use transform="translate(663.695696 0)scale(0.996264)" xlink:href="#CMR17-61"/>
      <use transform="translate(763.084493 0)scale(0.996264)" xlink:href="#CMR17-48"/>
      <use transform="translate(808.77497 0)scale(0.996264)" xlink:href="#CMMI12-58"/>
      <use transform="translate(835.872148 0)scale(0.996264)" xlink:href="#CMR17-48"/>
     </g>
    </g>
   </g>
  </g>
 </g>
 <defs>
  <clipPath id="p297ee6bca2">
   <rect height="266.112" width="357.12" x="57.6" y="41.472"/>
  </clipPath>
 </defs>
</svg>
