<?xml version="1.0" encoding="utf-8" standalone="no"?>
<!DOCTYPE svg PUBLIC "-//W3C//DTD SVG 1.1//EN"
  "http://www.w3.org/Graphics/SVG/1.1/DTD/svg11.dtd">
<!-- Created with matplotlib (https://matplotlib.org/) -->
<svg height="345.6pt" version="1.1" viewBox="0 0 460.8 345.6" width="460.8pt" xmlns="http://www.w3.org/2000/svg" xmlns:xlink="http://www.w3.org/1999/xlink">
 <metadata>
  <rdf:RDF xmlns:cc="http://creativecommons.org/ns#" xmlns:dc="http://purl.org/dc/elements/1.1/" xmlns:rdf="http://www.w3.org/1999/02/22-rdf-syntax-ns#">
   <cc:Work>
    <dc:type rdf:resource="http://purl.org/dc/dcmitype/StillImage"/>
    <dc:date>2021-05-17T10:46:52.189268</dc:date>
    <dc:format>image/svg+xml</dc:format>
    <dc:creator>
     <cc:Agent>
      <dc:title>Matplotlib v3.3.4, https://matplotlib.org/</dc:title>
     </cc:Agent>
    </dc:creator>
   </cc:Work>
  </rdf:RDF>
 </metadata>
 <defs>
  <style type="text/css">*{stroke-linecap:butt;stroke-linejoin:round;}</style>
 </defs>
 <g id="figure_1">
  <g id="patch_1">
   <path d="M 0 345.6 
L 460.8 345.6 
L 460.8 0 
L 0 0 
z
" style="fill:#ffffff;"/>
  </g>
  <g id="axes_1">
   <g id="patch_2">
    <path d="M 57.6 307.584 
L 414.72 307.584 
L 414.72 41.472 
L 57.6 41.472 
z
" style="fill:#ffffff;"/>
   </g>
   <g id="matplotlib.axis_1">
    <g id="xtick_1">
     <g id="line2d_1">
      <defs>
       <path d="M 0 0 
L 0 3.5 
" id="md53a6f3301" style="stroke:#000000;stroke-width:0.8;"/>
      </defs>
      <g>
       <use style="stroke:#000000;stroke-width:0.8;" x="105.413918" xlink:href="#md53a6f3301" y="307.584"/>
      </g>
     </g>
     <g id="text_1">
      <!-- −0.4 -->
      <g transform="translate(93.272511 322.182437)scale(0.1 -0.1)">
       <defs>
        <path d="M 10.59375 35.5 
L 73.1875 35.5 
L 73.1875 27.203125 
L 10.59375 27.203125 
z
" id="DejaVuSans-8722"/>
        <path d="M 31.78125 66.40625 
Q 24.171875 66.40625 20.328125 58.90625 
Q 16.5 51.421875 16.5 36.375 
Q 16.5 21.390625 20.328125 13.890625 
Q 24.171875 6.390625 31.78125 6.390625 
Q 39.453125 6.390625 43.28125 13.890625 
Q 47.125 21.390625 47.125 36.375 
Q 47.125 51.421875 43.28125 58.90625 
Q 39.453125 66.40625 31.78125 66.40625 
z
M 31.78125 74.21875 
Q 44.046875 74.21875 50.515625 64.515625 
Q 56.984375 54.828125 56.984375 36.375 
Q 56.984375 17.96875 50.515625 8.265625 
Q 44.046875 -1.421875 31.78125 -1.421875 
Q 19.53125 -1.421875 13.0625 8.265625 
Q 6.59375 17.96875 6.59375 36.375 
Q 6.59375 54.828125 13.0625 64.515625 
Q 19.53125 74.21875 31.78125 74.21875 
z
" id="DejaVuSans-48"/>
        <path d="M 10.6875 12.40625 
L 21 12.40625 
L 21 0 
L 10.6875 0 
z
" id="DejaVuSans-46"/>
        <path d="M 37.796875 64.3125 
L 12.890625 25.390625 
L 37.796875 25.390625 
z
M 35.203125 72.90625 
L 47.609375 72.90625 
L 47.609375 25.390625 
L 58.015625 25.390625 
L 58.015625 17.1875 
L 47.609375 17.1875 
L 47.609375 0 
L 37.796875 0 
L 37.796875 17.1875 
L 4.890625 17.1875 
L 4.890625 26.703125 
z
" id="DejaVuSans-52"/>
       </defs>
       <use xlink:href="#DejaVuSans-8722"/>
       <use x="83.789062" xlink:href="#DejaVuSans-48"/>
       <use x="147.412109" xlink:href="#DejaVuSans-46"/>
       <use x="179.199219" xlink:href="#DejaVuSans-52"/>
      </g>
     </g>
    </g>
    <g id="xtick_2">
     <g id="line2d_2">
      <g>
       <use style="stroke:#000000;stroke-width:0.8;" x="170.545664" xlink:href="#md53a6f3301" y="307.584"/>
      </g>
     </g>
     <g id="text_2">
      <!-- −0.2 -->
      <g transform="translate(158.404258 322.182437)scale(0.1 -0.1)">
       <defs>
        <path d="M 19.1875 8.296875 
L 53.609375 8.296875 
L 53.609375 0 
L 7.328125 0 
L 7.328125 8.296875 
Q 12.9375 14.109375 22.625 23.890625 
Q 32.328125 33.6875 34.8125 36.53125 
Q 39.546875 41.84375 41.421875 45.53125 
Q 43.3125 49.21875 43.3125 52.78125 
Q 43.3125 58.59375 39.234375 62.25 
Q 35.15625 65.921875 28.609375 65.921875 
Q 23.96875 65.921875 18.8125 64.3125 
Q 13.671875 62.703125 7.8125 59.421875 
L 7.8125 69.390625 
Q 13.765625 71.78125 18.9375 73 
Q 24.125 74.21875 28.421875 74.21875 
Q 39.75 74.21875 46.484375 68.546875 
Q 53.21875 62.890625 53.21875 53.421875 
Q 53.21875 48.921875 51.53125 44.890625 
Q 49.859375 40.875 45.40625 35.40625 
Q 44.1875 33.984375 37.640625 27.21875 
Q 31.109375 20.453125 19.1875 8.296875 
z
" id="DejaVuSans-50"/>
       </defs>
       <use xlink:href="#DejaVuSans-8722"/>
       <use x="83.789062" xlink:href="#DejaVuSans-48"/>
       <use x="147.412109" xlink:href="#DejaVuSans-46"/>
       <use x="179.199219" xlink:href="#DejaVuSans-50"/>
      </g>
     </g>
    </g>
    <g id="xtick_3">
     <g id="line2d_3">
      <g>
       <use style="stroke:#000000;stroke-width:0.8;" x="235.67741" xlink:href="#md53a6f3301" y="307.584"/>
      </g>
     </g>
     <g id="text_3">
      <!-- 0.0 -->
      <g transform="translate(227.725848 322.182437)scale(0.1 -0.1)">
       <use xlink:href="#DejaVuSans-48"/>
       <use x="63.623047" xlink:href="#DejaVuSans-46"/>
       <use x="95.410156" xlink:href="#DejaVuSans-48"/>
      </g>
     </g>
    </g>
    <g id="xtick_4">
     <g id="line2d_4">
      <g>
       <use style="stroke:#000000;stroke-width:0.8;" x="300.809157" xlink:href="#md53a6f3301" y="307.584"/>
      </g>
     </g>
     <g id="text_4">
      <!-- 0.2 -->
      <g transform="translate(292.857594 322.182437)scale(0.1 -0.1)">
       <use xlink:href="#DejaVuSans-48"/>
       <use x="63.623047" xlink:href="#DejaVuSans-46"/>
       <use x="95.410156" xlink:href="#DejaVuSans-50"/>
      </g>
     </g>
    </g>
    <g id="xtick_5">
     <g id="line2d_5">
      <g>
       <use style="stroke:#000000;stroke-width:0.8;" x="365.940903" xlink:href="#md53a6f3301" y="307.584"/>
      </g>
     </g>
     <g id="text_5">
      <!-- 0.4 -->
      <g transform="translate(357.989341 322.182437)scale(0.1 -0.1)">
       <use xlink:href="#DejaVuSans-48"/>
       <use x="63.623047" xlink:href="#DejaVuSans-46"/>
       <use x="95.410156" xlink:href="#DejaVuSans-52"/>
      </g>
     </g>
    </g>
   </g>
   <g id="matplotlib.axis_2">
    <g id="ytick_1">
     <g id="line2d_6">
      <defs>
       <path d="M 0 0 
L -3.5 0 
" id="meb75f9e2a2" style="stroke:#000000;stroke-width:0.8;"/>
      </defs>
      <g>
       <use style="stroke:#000000;stroke-width:0.8;" x="57.6" xlink:href="#meb75f9e2a2" y="295.488"/>
      </g>
     </g>
     <g id="text_6">
      <!-- 0 -->
      <g transform="translate(44.2375 299.287219)scale(0.1 -0.1)">
       <use xlink:href="#DejaVuSans-48"/>
      </g>
     </g>
    </g>
    <g id="ytick_2">
     <g id="line2d_7">
      <g>
       <use style="stroke:#000000;stroke-width:0.8;" x="57.6" xlink:href="#meb75f9e2a2" y="263.059786"/>
      </g>
     </g>
     <g id="text_7">
      <!-- 2 -->
      <g transform="translate(44.2375 266.859005)scale(0.1 -0.1)">
       <use xlink:href="#DejaVuSans-50"/>
      </g>
     </g>
    </g>
    <g id="ytick_3">
     <g id="line2d_8">
      <g>
       <use style="stroke:#000000;stroke-width:0.8;" x="57.6" xlink:href="#meb75f9e2a2" y="230.631572"/>
      </g>
     </g>
     <g id="text_8">
      <!-- 4 -->
      <g transform="translate(44.2375 234.430791)scale(0.1 -0.1)">
       <use xlink:href="#DejaVuSans-52"/>
      </g>
     </g>
    </g>
    <g id="ytick_4">
     <g id="line2d_9">
      <g>
       <use style="stroke:#000000;stroke-width:0.8;" x="57.6" xlink:href="#meb75f9e2a2" y="198.203358"/>
      </g>
     </g>
     <g id="text_9">
      <!-- 6 -->
      <g transform="translate(44.2375 202.002576)scale(0.1 -0.1)">
       <defs>
        <path d="M 33.015625 40.375 
Q 26.375 40.375 22.484375 35.828125 
Q 18.609375 31.296875 18.609375 23.390625 
Q 18.609375 15.53125 22.484375 10.953125 
Q 26.375 6.390625 33.015625 6.390625 
Q 39.65625 6.390625 43.53125 10.953125 
Q 47.40625 15.53125 47.40625 23.390625 
Q 47.40625 31.296875 43.53125 35.828125 
Q 39.65625 40.375 33.015625 40.375 
z
M 52.59375 71.296875 
L 52.59375 62.3125 
Q 48.875 64.0625 45.09375 64.984375 
Q 41.3125 65.921875 37.59375 65.921875 
Q 27.828125 65.921875 22.671875 59.328125 
Q 17.53125 52.734375 16.796875 39.40625 
Q 19.671875 43.65625 24.015625 45.921875 
Q 28.375 48.1875 33.59375 48.1875 
Q 44.578125 48.1875 50.953125 41.515625 
Q 57.328125 34.859375 57.328125 23.390625 
Q 57.328125 12.15625 50.6875 5.359375 
Q 44.046875 -1.421875 33.015625 -1.421875 
Q 20.359375 -1.421875 13.671875 8.265625 
Q 6.984375 17.96875 6.984375 36.375 
Q 6.984375 53.65625 15.1875 63.9375 
Q 23.390625 74.21875 37.203125 74.21875 
Q 40.921875 74.21875 44.703125 73.484375 
Q 48.484375 72.75 52.59375 71.296875 
z
" id="DejaVuSans-54"/>
       </defs>
       <use xlink:href="#DejaVuSans-54"/>
      </g>
     </g>
    </g>
    <g id="ytick_5">
     <g id="line2d_10">
      <g>
       <use style="stroke:#000000;stroke-width:0.8;" x="57.6" xlink:href="#meb75f9e2a2" y="165.775144"/>
      </g>
     </g>
     <g id="text_10">
      <!-- 8 -->
      <g transform="translate(44.2375 169.574362)scale(0.1 -0.1)">
       <defs>
        <path d="M 31.78125 34.625 
Q 24.75 34.625 20.71875 30.859375 
Q 16.703125 27.09375 16.703125 20.515625 
Q 16.703125 13.921875 20.71875 10.15625 
Q 24.75 6.390625 31.78125 6.390625 
Q 38.8125 6.390625 42.859375 10.171875 
Q 46.921875 13.96875 46.921875 20.515625 
Q 46.921875 27.09375 42.890625 30.859375 
Q 38.875 34.625 31.78125 34.625 
z
M 21.921875 38.8125 
Q 15.578125 40.375 12.03125 44.71875 
Q 8.5 49.078125 8.5 55.328125 
Q 8.5 64.0625 14.71875 69.140625 
Q 20.953125 74.21875 31.78125 74.21875 
Q 42.671875 74.21875 48.875 69.140625 
Q 55.078125 64.0625 55.078125 55.328125 
Q 55.078125 49.078125 51.53125 44.71875 
Q 48 40.375 41.703125 38.8125 
Q 48.828125 37.15625 52.796875 32.3125 
Q 56.78125 27.484375 56.78125 20.515625 
Q 56.78125 9.90625 50.3125 4.234375 
Q 43.84375 -1.421875 31.78125 -1.421875 
Q 19.734375 -1.421875 13.25 4.234375 
Q 6.78125 9.90625 6.78125 20.515625 
Q 6.78125 27.484375 10.78125 32.3125 
Q 14.796875 37.15625 21.921875 38.8125 
z
M 18.3125 54.390625 
Q 18.3125 48.734375 21.84375 45.5625 
Q 25.390625 42.390625 31.78125 42.390625 
Q 38.140625 42.390625 41.71875 45.5625 
Q 45.3125 48.734375 45.3125 54.390625 
Q 45.3125 60.0625 41.71875 63.234375 
Q 38.140625 66.40625 31.78125 66.40625 
Q 25.390625 66.40625 21.84375 63.234375 
Q 18.3125 60.0625 18.3125 54.390625 
z
" id="DejaVuSans-56"/>
       </defs>
       <use xlink:href="#DejaVuSans-56"/>
      </g>
     </g>
    </g>
    <g id="ytick_6">
     <g id="line2d_11">
      <g>
       <use style="stroke:#000000;stroke-width:0.8;" x="57.6" xlink:href="#meb75f9e2a2" y="133.346929"/>
      </g>
     </g>
     <g id="text_11">
      <!-- 10 -->
      <g transform="translate(37.875 137.146148)scale(0.1 -0.1)">
       <defs>
        <path d="M 12.40625 8.296875 
L 28.515625 8.296875 
L 28.515625 63.921875 
L 10.984375 60.40625 
L 10.984375 69.390625 
L 28.421875 72.90625 
L 38.28125 72.90625 
L 38.28125 8.296875 
L 54.390625 8.296875 
L 54.390625 0 
L 12.40625 0 
z
" id="DejaVuSans-49"/>
       </defs>
       <use xlink:href="#DejaVuSans-49"/>
       <use x="63.623047" xlink:href="#DejaVuSans-48"/>
      </g>
     </g>
    </g>
    <g id="ytick_7">
     <g id="line2d_12">
      <g>
       <use style="stroke:#000000;stroke-width:0.8;" x="57.6" xlink:href="#meb75f9e2a2" y="100.918715"/>
      </g>
     </g>
     <g id="text_12">
      <!-- 12 -->
      <g transform="translate(37.875 104.717934)scale(0.1 -0.1)">
       <use xlink:href="#DejaVuSans-49"/>
       <use x="63.623047" xlink:href="#DejaVuSans-50"/>
      </g>
     </g>
    </g>
    <g id="ytick_8">
     <g id="line2d_13">
      <g>
       <use style="stroke:#000000;stroke-width:0.8;" x="57.6" xlink:href="#meb75f9e2a2" y="68.490501"/>
      </g>
     </g>
     <g id="text_13">
      <!-- 14 -->
      <g transform="translate(37.875 72.28972)scale(0.1 -0.1)">
       <use xlink:href="#DejaVuSans-49"/>
       <use x="63.623047" xlink:href="#DejaVuSans-52"/>
      </g>
     </g>
    </g>
   </g>
   <g id="line2d_14">
    <path clip-path="url(#pfe459ad0d1)" d="M 73.832727 295.334285 
L 76.352685 295.334285 
L 78.872643 295.125176 
L 83.072572 295.417929 
L 87.692494 295.355196 
L 90.212452 295.438839 
L 92.312417 295.313374 
L 94.832374 295.292463 
L 96.932339 295.397018 
L 99.452297 295.020622 
L 101.972254 294.957889 
L 104.072219 295.417929 
L 108.692142 295.166998 
L 110.792106 295.438839 
L 115.412029 295.271552 
L 119.611958 295.313374 
L 123.811888 294.644226 
L 125.911852 295.104265 
L 128.011817 295.271552 
L 130.111782 294.853335 
L 132.631739 295.313374 
L 134.731704 295.376107 
L 137.251662 295.187909 
L 141.871584 295.271552 
L 143.971549 294.435117 
L 146.071514 294.079632 
L 148.591471 295.187909 
L 150.271443 295.104265 
L 152.791401 294.539672 
L 157.411323 295.438839 
L 161.611252 295.334285 
L 164.13121 294.999711 
L 166.231175 292.992266 
L 169.171125 293.201375 
L 170.851097 295.125176 
L 173.371055 292.908623 
L 175.891013 292.971356 
L 178.41097 295.355196 
L 180.510935 295.125176 
L 183.030893 295.020622 
L 185.130857 295.083354 
L 187.650815 292.783158 
L 189.75078 288.391873 
L 192.270737 290.922089 
L 194.790695 293.870523 
L 197.310653 286.509894 
L 199.83061 292.323118 
L 202.350568 295.250641 
L 204.870526 294.706959 
L 206.97049 294.790602 
L 209.490448 292.218564 
L 211.590413 270.72218 
L 214.11037 252.592447 
L 216.630328 277.330018 
L 219.150286 228.524025 
L 221.25025 128.967327 
L 224.190201 258.928444 
L 226.710159 162.592021 
L 229.230116 123.969626 
L 232.170067 272.645981 
L 234.690025 175.744964 
L 237.209982 167.255147 
L 239.72994 250.334072 
L 241.829905 289.186486 
L 243.929869 255.687257 
L 246.449827 281.825857 
L 248.969785 295.229731 
L 251.489742 293.849613 
L 253.589707 295.292463 
L 256.109665 293.222286 
L 259.049615 289.081932 
L 261.569573 293.870523 
L 264.089531 291.695792 
L 266.609488 288.203675 
L 269.129446 294.644226 
L 271.649404 295.334285 
L 273.749368 295.104265 
L 276.269326 295.355196 
L 279.62927 294.226008 
L 282.149227 293.598682 
L 285.089178 295.166998 
L 287.609136 292.783158 
L 290.549086 294.518761 
L 293.489037 295.187909 
L 298.948945 295.376107 
L 301.468903 295.041533 
L 304.408853 294.769691 
L 306.928811 295.292463 
L 309.868762 294.246919 
L 312.388719 294.476939 
L 314.908677 295.397018 
L 317.848628 295.041533 
L 320.368585 295.417929 
L 322.888543 295.376107 
L 325.408501 295.166998 
L 327.928458 295.292463 
L 330.448416 294.9788 
L 332.968374 294.142365 
L 335.488331 294.936978 
L 338.008289 295.397018 
L 340.948239 295.250641 
L 343.468197 295.438839 
L 345.988155 295.417929 
L 348.088119 295.271552 
L 352.708042 295.250641 
L 354.808007 294.895157 
L 357.327964 295.271552 
L 359.427929 295.376107 
L 361.947887 295.166998 
L 364.047851 295.397018 
L 369.50776 295.438839 
L 373.287696 295.397018 
L 374.967668 295.104265 
L 377.067633 295.083354 
L 379.58759 295.417929 
L 383.78752 295.187909 
L 385.887484 295.438839 
L 393.447357 295.397018 
L 395.547322 295.104265 
L 398.487273 295.334285 
L 398.487273 295.334285 
" style="fill:none;stroke:#1f77b4;stroke-linecap:square;stroke-width:1.5;"/>
   </g>
   <g id="line2d_15">
    <path clip-path="url(#pfe459ad0d1)" d="M 73.832727 295.482954 
L 77.826378 295.319846 
L 79.157594 295.208176 
L 80.26153 295.384654 
L 81.300529 295.481342 
L 82.112246 295.307438 
L 83.670744 294.895078 
L 84.385055 295.004012 
L 86.365646 295.480477 
L 87.242301 295.293585 
L 88.411174 295.06615 
L 89.25536 295.160264 
L 91.235951 295.487992 
L 98.314128 295.37409 
L 99.807688 295.303131 
L 102.080498 295.395208 
L 103.087027 295.006332 
L 103.931213 294.774385 
L 104.548119 294.837756 
L 105.392305 295.186967 
L 106.26896 295.477515 
L 106.853397 295.436376 
L 107.600177 295.132345 
L 108.639175 294.738414 
L 109.256081 294.767159 
L 110.035329 295.062757 
L 111.139265 295.458085 
L 111.886045 295.464177 
L 114.126386 295.2902 
L 116.691413 295.487949 
L 122.470842 295.376381 
L 123.444903 294.975345 
L 124.289089 294.708688 
L 124.873526 294.759429 
L 125.587837 295.076081 
L 126.52943 295.472462 
L 127.048929 295.440527 
L 127.600897 295.16253 
L 129.126926 294.235831 
L 129.613956 294.297072 
L 130.198393 294.635459 
L 131.464672 295.443635 
L 131.984172 295.472635 
L 132.601077 295.264448 
L 133.834887 294.805468 
L 134.451793 294.857004 
L 135.458323 295.226993 
L 136.399915 295.465537 
L 137.471382 295.469036 
L 139.679254 295.487919 
L 142.926124 295.370273 
L 143.900185 294.985786 
L 144.744371 294.726438 
L 145.296339 294.781394 
L 145.978182 295.097663 
L 146.854837 295.478127 
L 147.309399 295.430862 
L 147.76396 295.147041 
L 148.445803 294.404605 
L 149.225052 293.645255 
L 149.647145 293.527702 
L 150.036769 293.665367 
L 150.5238 294.120174 
L 151.757611 295.415857 
L 152.147235 295.481908 
L 152.53686 295.315252 
L 153.088827 294.790861 
L 154.03042 293.900567 
L 154.452513 293.797822 
L 154.874606 293.937836 
L 155.426574 294.393244 
L 156.53051 295.342041 
L 157.050009 295.485812 
L 157.666914 295.405755 
L 158.998131 295.162365 
L 159.907255 295.305711 
L 161.238471 295.482602 
L 163.316468 295.432574 
L 164.225592 295.17432 
L 165.329528 294.858659 
L 165.913964 294.951936 
L 167.5374 295.436762 
L 167.927024 295.168245 
L 168.414054 294.518619 
L 169.745271 292.523871 
L 170.069958 292.450238 
L 170.362177 292.609207 
L 170.751801 293.122737 
L 172.245361 295.477025 
L 172.505111 295.441375 
L 172.797329 295.158236 
L 173.219422 294.363172 
L 174.51817 291.587802 
L 174.810389 291.449686 
L 175.070138 291.559547 
L 175.394825 291.980894 
L 175.914325 293.110303 
L 176.823448 295.076014 
L 177.213073 295.446079 
L 177.53776 295.46547 
L 177.894915 295.228957 
L 178.609227 294.374668 
L 179.161195 293.874544 
L 179.550819 293.787169 
L 179.940443 293.933363 
L 180.52488 294.443772 
L 181.498941 295.275526 
L 182.083378 295.465623 
L 183.02497 295.475643 
L 185.03803 295.334783 
L 186.174434 295.11592 
L 186.791339 295.270599 
L 187.603057 295.484624 
L 187.960213 295.3373 
L 188.317368 294.918484 
L 188.739462 294.043006 
L 190.297959 290.312944 
L 190.52524 290.309931 
L 190.752521 290.541906 
L 191.077208 291.255894 
L 191.629176 293.152477 
L 192.27855 295.163224 
L 192.570768 295.484864 
L 192.765581 295.396449 
L 192.992861 294.95803 
L 193.317548 293.718465 
L 193.804579 290.808126 
L 194.77864 284.93314 
L 195.103327 284.170245 
L 195.265671 284.138713 
L 195.428014 284.348458 
L 195.687764 285.163607 
L 196.077388 287.299831 
L 197.343667 295.018066 
L 197.603417 295.468699 
L 197.765761 295.446941 
L 197.960573 295.121139 
L 198.252791 294.090305 
L 198.77229 291.225419 
L 199.51907 287.361495 
L 199.843757 286.621114 
L 200.03857 286.554654 
L 200.233382 286.771967 
L 200.493131 287.462941 
L 200.915225 289.31326 
L 202.051629 294.568656 
L 202.441254 295.333205 
L 202.733472 295.48798 
L 203.02569 295.375639 
L 204.356907 294.528123 
L 204.779 294.742906 
L 205.915405 295.468126 
L 206.467373 295.455841 
L 207.344027 295.422076 
L 208.058339 295.433743 
L 208.350557 295.157598 
L 208.642776 294.522069 
L 208.999931 293.102581 
L 209.454493 290.220076 
L 210.720772 281.501203 
L 210.948053 281.242086 
L 211.077928 281.413459 
L 211.27274 282.122641 
L 211.564959 284.148948 
L 212.116927 290.023786 
L 212.636426 294.801291 
L 212.863707 295.486955 
L 212.961113 295.379631 
L 213.123456 294.578183 
L 213.350737 292.015406 
L 213.675424 285.265535 
L 214.129986 270.288017 
L 215.396265 225.421847 
L 215.656015 222.951617 
L 215.720952 222.942913 
L 215.818359 223.404719 
L 216.013171 226.041104 
L 216.305389 234.050001 
L 216.759951 253.83238 
L 217.604137 290.833667 
L 217.863887 295.233338 
L 217.928824 295.4822 
L 217.993762 295.360515 
L 218.123636 293.963524 
L 218.318449 288.893682 
L 218.610667 274.659587 
L 219.065229 239.191887 
L 220.266571 138.700979 
L 220.558789 131.051901 
L 220.623726 130.813464 
L 220.656195 130.900303 
L 220.753601 131.988355 
L 220.948413 137.849074 
L 221.240632 155.217216 
L 221.727662 200.926991 
L 222.604317 283.177202 
L 222.896535 294.508673 
L 222.993942 295.47221 
L 223.058879 295.281664 
L 223.188754 292.866714 
L 223.416035 282.146405 
L 223.740722 253.596438 
L 224.29269 180.619781 
L 225.104407 78.340883 
L 225.429094 59.563968 
L 225.591438 57.173797 
L 225.623906 57.28344 
L 225.721312 58.791454 
L 225.916125 67.020619 
L 226.208343 91.360393 
L 226.695374 155.059286 
L 227.604497 274.765703 
L 227.929184 293.425721 
L 228.091528 295.464144 
L 228.188934 294.257164 
L 228.351277 288.249637 
L 228.611027 268.912609 
L 229.03312 217.392971 
L 230.169525 68.469416 
L 230.461743 54.663168 
L 230.559149 53.568 
L 230.591618 53.602024 
L 230.689024 54.897845 
L 230.851367 60.962116 
L 231.111117 80.097637 
L 231.53321 130.485965 
L 232.702083 279.438494 
L 233.02677 294.361934 
L 233.156645 295.473904 
L 233.189114 295.318018 
L 233.318989 293.000606 
L 233.54627 282.808708 
L 233.903425 253.849169 
L 235.267111 127.780413 
L 235.494392 122.784397 
L 235.559329 122.652274 
L 235.591798 122.802151 
L 235.721673 124.821589 
L 235.948953 133.567935 
L 236.306109 158.656627 
L 237.117827 238.664771 
L 237.669795 280.958297 
L 238.02695 293.836032 
L 238.221763 295.482797 
L 238.319169 294.945416 
L 238.481512 292.196171 
L 238.77373 282.310671 
L 239.358167 252.036365 
L 239.975072 223.78002 
L 240.299759 216.620374 
L 240.462103 215.600051 
L 240.494572 215.604124 
L 240.591978 216.025702 
L 240.754321 218.045427 
L 241.04654 225.383315 
L 241.53357 244.945108 
L 242.507631 284.799967 
L 242.897256 293.00311 
L 243.189474 295.360402 
L 243.28688 295.487049 
L 243.319349 295.463136 
L 243.449223 295.064026 
L 243.676504 293.373885 
L 244.131066 287.753524 
L 244.812909 279.846312 
L 245.137596 278.221384 
L 245.299939 278.073026 
L 245.429814 278.263394 
L 245.657095 279.194939 
L 246.014251 281.858248 
L 247.442874 293.826231 
L 247.832498 295.060328 
L 248.157185 295.44299 
L 248.481872 295.471468 
L 249.650745 295.296999 
L 250.689744 295.463699 
L 251.209243 295.237089 
L 252.020961 294.876693 
L 252.443054 294.963548 
L 253.611927 295.434098 
L 253.871677 295.166924 
L 254.196364 294.46133 
L 254.618457 292.931076 
L 255.982142 287.413524 
L 256.209423 287.244944 
L 256.371767 287.347305 
L 256.599048 287.801909 
L 256.956203 289.164727 
L 258.352357 295.415727 
L 258.54717 295.469707 
L 258.709513 295.262888 
L 258.969263 294.465474 
L 259.358887 292.353056 
L 260.690104 284.243128 
L 260.949854 283.887527 
L 261.112197 283.984281 
L 261.339478 284.520427 
L 261.664165 285.994854 
L 262.28107 290.129174 
L 262.962913 294.223924 
L 263.320069 295.29526 
L 263.54735 295.487974 
L 263.742162 295.360837 
L 264.001911 294.826357 
L 264.456473 293.2122 
L 265.30066 290.188982 
L 265.625347 289.694183 
L 265.852627 289.661092 
L 266.079908 289.878322 
L 266.404595 290.557436 
L 267.021501 292.521946 
L 267.768281 294.668532 
L 268.190374 295.301375 
L 268.54753 295.483624 
L 268.937154 295.414781 
L 270.333308 294.933718 
L 270.982682 295.123034 
L 272.119087 295.464315 
L 273.352897 295.485346 
L 274.521771 295.387963 
L 275.106207 295.089446 
L 276.762111 294.045389 
L 277.151736 294.179794 
L 277.671235 294.640491 
L 278.54789 295.443983 
L 278.872577 295.472076 
L 279.197264 295.259421 
L 279.586888 294.683819 
L 280.236262 293.219643 
L 280.918105 291.85218 
L 281.275261 291.554511 
L 281.53501 291.587314 
L 281.827229 291.875957 
L 282.249322 292.679166 
L 283.515601 295.343143 
L 283.840288 295.487424 
L 284.100038 295.369647 
L 284.457193 294.910238 
L 285.106567 293.585506 
L 285.723473 292.508549 
L 286.080628 292.249099 
L 286.372847 292.287418 
L 286.697534 292.578341 
L 287.184564 293.366835 
L 288.256031 295.163075 
L 288.678125 295.454204 
L 289.067749 295.466151 
L 289.587248 295.222528 
L 290.593778 294.718228 
L 291.113277 294.72774 
L 291.827589 295.001875 
L 292.963993 295.421952 
L 293.938054 295.487994 
L 296.243332 295.379598 
L 297.607017 295.257508 
L 299.652546 295.345801 
L 300.236982 294.942993 
L 301.53573 293.940064 
L 301.957823 293.930344 
L 302.379917 294.149116 
L 303.061759 294.815209 
L 303.776071 295.412248 
L 304.198164 295.479162 
L 304.587788 295.298368 
L 305.107287 294.764033 
L 306.178755 293.587995 
L 306.568379 293.472589 
L 306.958003 293.599665 
L 307.445034 294.039898 
L 308.776251 295.398063 
L 309.230813 295.485076 
L 309.717843 295.329309 
L 311.308809 294.60389 
L 311.860777 294.711831 
L 314.230993 295.487999 
L 320.400046 295.359628 
L 322.510511 294.903686 
L 323.224823 295.138517 
L 324.29629 295.486282 
L 324.815789 295.405401 
L 325.400226 295.076472 
L 326.698974 294.264919 
L 327.186004 294.271158 
L 327.705504 294.519227 
L 329.328939 295.483292 
L 329.848438 295.41369 
L 330.562749 295.050955 
L 331.439404 294.659209 
L 331.991372 294.652857 
L 332.640746 294.881781 
L 334.069369 295.454593 
L 334.848618 295.471367 
L 336.959084 295.390473 
L 339.426705 295.487988 
L 341.634577 295.380945 
L 343.128137 295.312605 
L 345.30354 295.400898 
L 346.245132 295.034973 
L 347.154256 294.761574 
L 347.771161 294.818328 
L 348.582879 295.154199 
L 349.492002 295.473868 
L 350.076439 295.443437 
L 350.823219 295.14942 
L 351.862217 294.754765 
L 352.479123 294.77523 
L 353.258372 295.059491 
L 354.394776 295.459325 
L 355.141556 295.464172 
L 357.446834 295.28714 
L 360.011862 295.48772 
L 366.148446 295.360072 
L 367.901756 295.10696 
L 368.81088 295.277961 
L 370.012222 295.487669 
L 370.759002 295.360232 
L 372.609718 294.891847 
L 373.356498 295.053148 
L 374.947464 295.486314 
L 375.759182 295.403926 
L 377.415086 295.169479 
L 378.55149 295.333789 
L 379.980113 295.487228 
L 386.441385 295.446535 
L 388.909006 295.360932 
L 390.727253 295.457779 
L 391.896126 295.193898 
L 392.902656 295.054991 
L 393.746842 295.181929 
L 395.370277 295.487415 
L 396.279401 295.355223 
L 397.708024 295.13676 
L 398.487273 295.22409 
L 398.487273 295.22409 
" style="fill:none;stroke:#ff7f0e;stroke-linecap:square;stroke-width:1.5;"/>
   </g>
   <g id="patch_3">
    <path d="M 57.6 307.584 
L 57.6 41.472 
" style="fill:none;stroke:#000000;stroke-linecap:square;stroke-linejoin:miter;stroke-width:0.8;"/>
   </g>
   <g id="patch_4">
    <path d="M 414.72 307.584 
L 414.72 41.472 
" style="fill:none;stroke:#000000;stroke-linecap:square;stroke-linejoin:miter;stroke-width:0.8;"/>
   </g>
   <g id="patch_5">
    <path d="M 57.6 307.584 
L 414.72 307.584 
" style="fill:none;stroke:#000000;stroke-linecap:square;stroke-linejoin:miter;stroke-width:0.8;"/>
   </g>
   <g id="patch_6">
    <path d="M 57.6 41.472 
L 414.72 41.472 
" style="fill:none;stroke:#000000;stroke-linecap:square;stroke-linejoin:miter;stroke-width:0.8;"/>
   </g>
   <g id="legend_1">
    <g id="patch_7">
     <path d="M 311.702812 78.82825 
L 407.72 78.82825 
Q 409.72 78.82825 409.72 76.82825 
L 409.72 48.472 
Q 409.72 46.472 407.72 46.472 
L 311.702812 46.472 
Q 309.702812 46.472 309.702812 48.472 
L 309.702812 76.82825 
Q 309.702812 78.82825 311.702812 78.82825 
z
" style="fill:#ffffff;opacity:0.8;stroke:#cccccc;stroke-linejoin:miter;"/>
    </g>
    <g id="line2d_16">
     <path d="M 313.702812 54.570437 
L 333.702812 54.570437 
" style="fill:none;stroke:#1f77b4;stroke-linecap:square;stroke-width:1.5;"/>
    </g>
    <g id="line2d_17"/>
    <g id="text_14">
     <!-- .25and0.8 -->
     <g transform="translate(341.702812 58.070437)scale(0.1 -0.1)">
      <defs>
       <path d="M 10.796875 72.90625 
L 49.515625 72.90625 
L 49.515625 64.59375 
L 19.828125 64.59375 
L 19.828125 46.734375 
Q 21.96875 47.46875 24.109375 47.828125 
Q 26.265625 48.1875 28.421875 48.1875 
Q 40.625 48.1875 47.75 41.5 
Q 54.890625 34.8125 54.890625 23.390625 
Q 54.890625 11.625 47.5625 5.09375 
Q 40.234375 -1.421875 26.90625 -1.421875 
Q 22.3125 -1.421875 17.546875 -0.640625 
Q 12.796875 0.140625 7.71875 1.703125 
L 7.71875 11.625 
Q 12.109375 9.234375 16.796875 8.0625 
Q 21.484375 6.890625 26.703125 6.890625 
Q 35.15625 6.890625 40.078125 11.328125 
Q 45.015625 15.765625 45.015625 23.390625 
Q 45.015625 31 40.078125 35.4375 
Q 35.15625 39.890625 26.703125 39.890625 
Q 22.75 39.890625 18.8125 39.015625 
Q 14.890625 38.140625 10.796875 36.28125 
z
" id="DejaVuSans-53"/>
       <path d="M 34.28125 27.484375 
Q 23.390625 27.484375 19.1875 25 
Q 14.984375 22.515625 14.984375 16.5 
Q 14.984375 11.71875 18.140625 8.90625 
Q 21.296875 6.109375 26.703125 6.109375 
Q 34.1875 6.109375 38.703125 11.40625 
Q 43.21875 16.703125 43.21875 25.484375 
L 43.21875 27.484375 
z
M 52.203125 31.203125 
L 52.203125 0 
L 43.21875 0 
L 43.21875 8.296875 
Q 40.140625 3.328125 35.546875 0.953125 
Q 30.953125 -1.421875 24.3125 -1.421875 
Q 15.921875 -1.421875 10.953125 3.296875 
Q 6 8.015625 6 15.921875 
Q 6 25.140625 12.171875 29.828125 
Q 18.359375 34.515625 30.609375 34.515625 
L 43.21875 34.515625 
L 43.21875 35.40625 
Q 43.21875 41.609375 39.140625 45 
Q 35.0625 48.390625 27.6875 48.390625 
Q 23 48.390625 18.546875 47.265625 
Q 14.109375 46.140625 10.015625 43.890625 
L 10.015625 52.203125 
Q 14.9375 54.109375 19.578125 55.046875 
Q 24.21875 56 28.609375 56 
Q 40.484375 56 46.34375 49.84375 
Q 52.203125 43.703125 52.203125 31.203125 
z
" id="DejaVuSans-97"/>
       <path d="M 54.890625 33.015625 
L 54.890625 0 
L 45.90625 0 
L 45.90625 32.71875 
Q 45.90625 40.484375 42.875 44.328125 
Q 39.84375 48.1875 33.796875 48.1875 
Q 26.515625 48.1875 22.3125 43.546875 
Q 18.109375 38.921875 18.109375 30.90625 
L 18.109375 0 
L 9.078125 0 
L 9.078125 54.6875 
L 18.109375 54.6875 
L 18.109375 46.1875 
Q 21.34375 51.125 25.703125 53.5625 
Q 30.078125 56 35.796875 56 
Q 45.21875 56 50.046875 50.171875 
Q 54.890625 44.34375 54.890625 33.015625 
z
" id="DejaVuSans-110"/>
       <path d="M 45.40625 46.390625 
L 45.40625 75.984375 
L 54.390625 75.984375 
L 54.390625 0 
L 45.40625 0 
L 45.40625 8.203125 
Q 42.578125 3.328125 38.25 0.953125 
Q 33.9375 -1.421875 27.875 -1.421875 
Q 17.96875 -1.421875 11.734375 6.484375 
Q 5.515625 14.40625 5.515625 27.296875 
Q 5.515625 40.1875 11.734375 48.09375 
Q 17.96875 56 27.875 56 
Q 33.9375 56 38.25 53.625 
Q 42.578125 51.265625 45.40625 46.390625 
z
M 14.796875 27.296875 
Q 14.796875 17.390625 18.875 11.75 
Q 22.953125 6.109375 30.078125 6.109375 
Q 37.203125 6.109375 41.296875 11.75 
Q 45.40625 17.390625 45.40625 27.296875 
Q 45.40625 37.203125 41.296875 42.84375 
Q 37.203125 48.484375 30.078125 48.484375 
Q 22.953125 48.484375 18.875 42.84375 
Q 14.796875 37.203125 14.796875 27.296875 
z
" id="DejaVuSans-100"/>
      </defs>
      <use xlink:href="#DejaVuSans-46"/>
      <use x="31.787109" xlink:href="#DejaVuSans-50"/>
      <use x="95.410156" xlink:href="#DejaVuSans-53"/>
      <use x="159.033203" xlink:href="#DejaVuSans-97"/>
      <use x="220.3125" xlink:href="#DejaVuSans-110"/>
      <use x="283.691406" xlink:href="#DejaVuSans-100"/>
      <use x="347.167969" xlink:href="#DejaVuSans-48"/>
      <use x="410.791016" xlink:href="#DejaVuSans-46"/>
      <use x="442.578125" xlink:href="#DejaVuSans-56"/>
     </g>
    </g>
    <g id="line2d_18">
     <path d="M 313.702812 69.248562 
L 333.702812 69.248562 
" style="fill:none;stroke:#ff7f0e;stroke-linecap:square;stroke-width:1.5;"/>
    </g>
    <g id="line2d_19"/>
    <g id="text_15">
     <!-- .25and0.8 fit -->
     <g transform="translate(341.702812 72.748562)scale(0.1 -0.1)">
      <defs>
       <path id="DejaVuSans-32"/>
       <path d="M 37.109375 75.984375 
L 37.109375 68.5 
L 28.515625 68.5 
Q 23.6875 68.5 21.796875 66.546875 
Q 19.921875 64.59375 19.921875 59.515625 
L 19.921875 54.6875 
L 34.71875 54.6875 
L 34.71875 47.703125 
L 19.921875 47.703125 
L 19.921875 0 
L 10.890625 0 
L 10.890625 47.703125 
L 2.296875 47.703125 
L 2.296875 54.6875 
L 10.890625 54.6875 
L 10.890625 58.5 
Q 10.890625 67.625 15.140625 71.796875 
Q 19.390625 75.984375 28.609375 75.984375 
z
" id="DejaVuSans-102"/>
       <path d="M 9.421875 54.6875 
L 18.40625 54.6875 
L 18.40625 0 
L 9.421875 0 
z
M 9.421875 75.984375 
L 18.40625 75.984375 
L 18.40625 64.59375 
L 9.421875 64.59375 
z
" id="DejaVuSans-105"/>
       <path d="M 18.3125 70.21875 
L 18.3125 54.6875 
L 36.8125 54.6875 
L 36.8125 47.703125 
L 18.3125 47.703125 
L 18.3125 18.015625 
Q 18.3125 11.328125 20.140625 9.421875 
Q 21.96875 7.515625 27.59375 7.515625 
L 36.8125 7.515625 
L 36.8125 0 
L 27.59375 0 
Q 17.1875 0 13.234375 3.875 
Q 9.28125 7.765625 9.28125 18.015625 
L 9.28125 47.703125 
L 2.6875 47.703125 
L 2.6875 54.6875 
L 9.28125 54.6875 
L 9.28125 70.21875 
z
" id="DejaVuSans-116"/>
      </defs>
      <use xlink:href="#DejaVuSans-46"/>
      <use x="31.787109" xlink:href="#DejaVuSans-50"/>
      <use x="95.410156" xlink:href="#DejaVuSans-53"/>
      <use x="159.033203" xlink:href="#DejaVuSans-97"/>
      <use x="220.3125" xlink:href="#DejaVuSans-110"/>
      <use x="283.691406" xlink:href="#DejaVuSans-100"/>
      <use x="347.167969" xlink:href="#DejaVuSans-48"/>
      <use x="410.791016" xlink:href="#DejaVuSans-46"/>
      <use x="442.578125" xlink:href="#DejaVuSans-56"/>
      <use x="506.201172" xlink:href="#DejaVuSans-32"/>
      <use x="537.988281" xlink:href="#DejaVuSans-102"/>
      <use x="573.193359" xlink:href="#DejaVuSans-105"/>
      <use x="600.976562" xlink:href="#DejaVuSans-116"/>
     </g>
    </g>
   </g>
  </g>
 </g>
 <defs>
  <clipPath id="pfe459ad0d1">
   <rect height="266.112" width="357.12" x="57.6" y="41.472"/>
  </clipPath>
 </defs>
</svg>
