<?xml version="1.0" encoding="utf-8" standalone="no"?>
<!DOCTYPE svg PUBLIC "-//W3C//DTD SVG 1.1//EN"
  "http://www.w3.org/Graphics/SVG/1.1/DTD/svg11.dtd">
<!-- Created with matplotlib (https://matplotlib.org/) -->
<svg height="345.6pt" version="1.1" viewBox="0 0 460.8 345.6" width="460.8pt" xmlns="http://www.w3.org/2000/svg" xmlns:xlink="http://www.w3.org/1999/xlink">
 <metadata>
  <rdf:RDF xmlns:cc="http://creativecommons.org/ns#" xmlns:dc="http://purl.org/dc/elements/1.1/" xmlns:rdf="http://www.w3.org/1999/02/22-rdf-syntax-ns#">
   <cc:Work>
    <dc:type rdf:resource="http://purl.org/dc/dcmitype/StillImage"/>
    <dc:date>2021-05-17T10:46:51.863591</dc:date>
    <dc:format>image/svg+xml</dc:format>
    <dc:creator>
     <cc:Agent>
      <dc:title>Matplotlib v3.3.4, https://matplotlib.org/</dc:title>
     </cc:Agent>
    </dc:creator>
   </cc:Work>
  </rdf:RDF>
 </metadata>
 <defs>
  <style type="text/css">*{stroke-linecap:butt;stroke-linejoin:round;}</style>
 </defs>
 <g id="figure_1">
  <g id="patch_1">
   <path d="M 0 345.6 
L 460.8 345.6 
L 460.8 0 
L 0 0 
z
" style="fill:#ffffff;"/>
  </g>
  <g id="axes_1">
   <g id="patch_2">
    <path d="M 57.6 307.584 
L 414.72 307.584 
L 414.72 41.472 
L 57.6 41.472 
z
" style="fill:#ffffff;"/>
   </g>
   <g id="matplotlib.axis_1">
    <g id="xtick_1">
     <g id="line2d_1">
      <defs>
       <path d="M 0 0 
L 0 3.5 
" id="m3ea7a316e2" style="stroke:#000000;stroke-width:0.8;"/>
      </defs>
      <g>
       <use style="stroke:#000000;stroke-width:0.8;" x="104.77407" xlink:href="#m3ea7a316e2" y="307.584"/>
      </g>
     </g>
     <g id="text_1">
      <!-- −0.4 -->
      <g transform="translate(92.632663 322.182437)scale(0.1 -0.1)">
       <defs>
        <path d="M 10.59375 35.5 
L 73.1875 35.5 
L 73.1875 27.203125 
L 10.59375 27.203125 
z
" id="DejaVuSans-8722"/>
        <path d="M 31.78125 66.40625 
Q 24.171875 66.40625 20.328125 58.90625 
Q 16.5 51.421875 16.5 36.375 
Q 16.5 21.390625 20.328125 13.890625 
Q 24.171875 6.390625 31.78125 6.390625 
Q 39.453125 6.390625 43.28125 13.890625 
Q 47.125 21.390625 47.125 36.375 
Q 47.125 51.421875 43.28125 58.90625 
Q 39.453125 66.40625 31.78125 66.40625 
z
M 31.78125 74.21875 
Q 44.046875 74.21875 50.515625 64.515625 
Q 56.984375 54.828125 56.984375 36.375 
Q 56.984375 17.96875 50.515625 8.265625 
Q 44.046875 -1.421875 31.78125 -1.421875 
Q 19.53125 -1.421875 13.0625 8.265625 
Q 6.59375 17.96875 6.59375 36.375 
Q 6.59375 54.828125 13.0625 64.515625 
Q 19.53125 74.21875 31.78125 74.21875 
z
" id="DejaVuSans-48"/>
        <path d="M 10.6875 12.40625 
L 21 12.40625 
L 21 0 
L 10.6875 0 
z
" id="DejaVuSans-46"/>
        <path d="M 37.796875 64.3125 
L 12.890625 25.390625 
L 37.796875 25.390625 
z
M 35.203125 72.90625 
L 47.609375 72.90625 
L 47.609375 25.390625 
L 58.015625 25.390625 
L 58.015625 17.1875 
L 47.609375 17.1875 
L 47.609375 0 
L 37.796875 0 
L 37.796875 17.1875 
L 4.890625 17.1875 
L 4.890625 26.703125 
z
" id="DejaVuSans-52"/>
       </defs>
       <use xlink:href="#DejaVuSans-8722"/>
       <use x="83.789062" xlink:href="#DejaVuSans-48"/>
       <use x="147.412109" xlink:href="#DejaVuSans-46"/>
       <use x="179.199219" xlink:href="#DejaVuSans-52"/>
      </g>
     </g>
    </g>
    <g id="xtick_2">
     <g id="line2d_2">
      <g>
       <use style="stroke:#000000;stroke-width:0.8;" x="170.329851" xlink:href="#m3ea7a316e2" y="307.584"/>
      </g>
     </g>
     <g id="text_2">
      <!-- −0.2 -->
      <g transform="translate(158.188445 322.182437)scale(0.1 -0.1)">
       <defs>
        <path d="M 19.1875 8.296875 
L 53.609375 8.296875 
L 53.609375 0 
L 7.328125 0 
L 7.328125 8.296875 
Q 12.9375 14.109375 22.625 23.890625 
Q 32.328125 33.6875 34.8125 36.53125 
Q 39.546875 41.84375 41.421875 45.53125 
Q 43.3125 49.21875 43.3125 52.78125 
Q 43.3125 58.59375 39.234375 62.25 
Q 35.15625 65.921875 28.609375 65.921875 
Q 23.96875 65.921875 18.8125 64.3125 
Q 13.671875 62.703125 7.8125 59.421875 
L 7.8125 69.390625 
Q 13.765625 71.78125 18.9375 73 
Q 24.125 74.21875 28.421875 74.21875 
Q 39.75 74.21875 46.484375 68.546875 
Q 53.21875 62.890625 53.21875 53.421875 
Q 53.21875 48.921875 51.53125 44.890625 
Q 49.859375 40.875 45.40625 35.40625 
Q 44.1875 33.984375 37.640625 27.21875 
Q 31.109375 20.453125 19.1875 8.296875 
z
" id="DejaVuSans-50"/>
       </defs>
       <use xlink:href="#DejaVuSans-8722"/>
       <use x="83.789062" xlink:href="#DejaVuSans-48"/>
       <use x="147.412109" xlink:href="#DejaVuSans-46"/>
       <use x="179.199219" xlink:href="#DejaVuSans-50"/>
      </g>
     </g>
    </g>
    <g id="xtick_3">
     <g id="line2d_3">
      <g>
       <use style="stroke:#000000;stroke-width:0.8;" x="235.885632" xlink:href="#m3ea7a316e2" y="307.584"/>
      </g>
     </g>
     <g id="text_3">
      <!-- 0.0 -->
      <g transform="translate(227.93407 322.182437)scale(0.1 -0.1)">
       <use xlink:href="#DejaVuSans-48"/>
       <use x="63.623047" xlink:href="#DejaVuSans-46"/>
       <use x="95.410156" xlink:href="#DejaVuSans-48"/>
      </g>
     </g>
    </g>
    <g id="xtick_4">
     <g id="line2d_4">
      <g>
       <use style="stroke:#000000;stroke-width:0.8;" x="301.441413" xlink:href="#m3ea7a316e2" y="307.584"/>
      </g>
     </g>
     <g id="text_4">
      <!-- 0.2 -->
      <g transform="translate(293.489851 322.182437)scale(0.1 -0.1)">
       <use xlink:href="#DejaVuSans-48"/>
       <use x="63.623047" xlink:href="#DejaVuSans-46"/>
       <use x="95.410156" xlink:href="#DejaVuSans-50"/>
      </g>
     </g>
    </g>
    <g id="xtick_5">
     <g id="line2d_5">
      <g>
       <use style="stroke:#000000;stroke-width:0.8;" x="366.997195" xlink:href="#m3ea7a316e2" y="307.584"/>
      </g>
     </g>
     <g id="text_5">
      <!-- 0.4 -->
      <g transform="translate(359.045632 322.182437)scale(0.1 -0.1)">
       <use xlink:href="#DejaVuSans-48"/>
       <use x="63.623047" xlink:href="#DejaVuSans-46"/>
       <use x="95.410156" xlink:href="#DejaVuSans-52"/>
      </g>
     </g>
    </g>
   </g>
   <g id="matplotlib.axis_2">
    <g id="ytick_1">
     <g id="line2d_6">
      <defs>
       <path d="M 0 0 
L -3.5 0 
" id="mc4e1efe5e3" style="stroke:#000000;stroke-width:0.8;"/>
      </defs>
      <g>
       <use style="stroke:#000000;stroke-width:0.8;" x="57.6" xlink:href="#mc4e1efe5e3" y="295.488"/>
      </g>
     </g>
     <g id="text_6">
      <!-- 0 -->
      <g transform="translate(44.2375 299.287219)scale(0.1 -0.1)">
       <use xlink:href="#DejaVuSans-48"/>
      </g>
     </g>
    </g>
    <g id="ytick_2">
     <g id="line2d_7">
      <g>
       <use style="stroke:#000000;stroke-width:0.8;" x="57.6" xlink:href="#mc4e1efe5e3" y="262.166798"/>
      </g>
     </g>
     <g id="text_7">
      <!-- 2 -->
      <g transform="translate(44.2375 265.966016)scale(0.1 -0.1)">
       <use xlink:href="#DejaVuSans-50"/>
      </g>
     </g>
    </g>
    <g id="ytick_3">
     <g id="line2d_8">
      <g>
       <use style="stroke:#000000;stroke-width:0.8;" x="57.6" xlink:href="#mc4e1efe5e3" y="228.845595"/>
      </g>
     </g>
     <g id="text_8">
      <!-- 4 -->
      <g transform="translate(44.2375 232.644814)scale(0.1 -0.1)">
       <use xlink:href="#DejaVuSans-52"/>
      </g>
     </g>
    </g>
    <g id="ytick_4">
     <g id="line2d_9">
      <g>
       <use style="stroke:#000000;stroke-width:0.8;" x="57.6" xlink:href="#mc4e1efe5e3" y="195.524393"/>
      </g>
     </g>
     <g id="text_9">
      <!-- 6 -->
      <g transform="translate(44.2375 199.323612)scale(0.1 -0.1)">
       <defs>
        <path d="M 33.015625 40.375 
Q 26.375 40.375 22.484375 35.828125 
Q 18.609375 31.296875 18.609375 23.390625 
Q 18.609375 15.53125 22.484375 10.953125 
Q 26.375 6.390625 33.015625 6.390625 
Q 39.65625 6.390625 43.53125 10.953125 
Q 47.40625 15.53125 47.40625 23.390625 
Q 47.40625 31.296875 43.53125 35.828125 
Q 39.65625 40.375 33.015625 40.375 
z
M 52.59375 71.296875 
L 52.59375 62.3125 
Q 48.875 64.0625 45.09375 64.984375 
Q 41.3125 65.921875 37.59375 65.921875 
Q 27.828125 65.921875 22.671875 59.328125 
Q 17.53125 52.734375 16.796875 39.40625 
Q 19.671875 43.65625 24.015625 45.921875 
Q 28.375 48.1875 33.59375 48.1875 
Q 44.578125 48.1875 50.953125 41.515625 
Q 57.328125 34.859375 57.328125 23.390625 
Q 57.328125 12.15625 50.6875 5.359375 
Q 44.046875 -1.421875 33.015625 -1.421875 
Q 20.359375 -1.421875 13.671875 8.265625 
Q 6.984375 17.96875 6.984375 36.375 
Q 6.984375 53.65625 15.1875 63.9375 
Q 23.390625 74.21875 37.203125 74.21875 
Q 40.921875 74.21875 44.703125 73.484375 
Q 48.484375 72.75 52.59375 71.296875 
z
" id="DejaVuSans-54"/>
       </defs>
       <use xlink:href="#DejaVuSans-54"/>
      </g>
     </g>
    </g>
    <g id="ytick_5">
     <g id="line2d_10">
      <g>
       <use style="stroke:#000000;stroke-width:0.8;" x="57.6" xlink:href="#mc4e1efe5e3" y="162.20319"/>
      </g>
     </g>
     <g id="text_10">
      <!-- 8 -->
      <g transform="translate(44.2375 166.002409)scale(0.1 -0.1)">
       <defs>
        <path d="M 31.78125 34.625 
Q 24.75 34.625 20.71875 30.859375 
Q 16.703125 27.09375 16.703125 20.515625 
Q 16.703125 13.921875 20.71875 10.15625 
Q 24.75 6.390625 31.78125 6.390625 
Q 38.8125 6.390625 42.859375 10.171875 
Q 46.921875 13.96875 46.921875 20.515625 
Q 46.921875 27.09375 42.890625 30.859375 
Q 38.875 34.625 31.78125 34.625 
z
M 21.921875 38.8125 
Q 15.578125 40.375 12.03125 44.71875 
Q 8.5 49.078125 8.5 55.328125 
Q 8.5 64.0625 14.71875 69.140625 
Q 20.953125 74.21875 31.78125 74.21875 
Q 42.671875 74.21875 48.875 69.140625 
Q 55.078125 64.0625 55.078125 55.328125 
Q 55.078125 49.078125 51.53125 44.71875 
Q 48 40.375 41.703125 38.8125 
Q 48.828125 37.15625 52.796875 32.3125 
Q 56.78125 27.484375 56.78125 20.515625 
Q 56.78125 9.90625 50.3125 4.234375 
Q 43.84375 -1.421875 31.78125 -1.421875 
Q 19.734375 -1.421875 13.25 4.234375 
Q 6.78125 9.90625 6.78125 20.515625 
Q 6.78125 27.484375 10.78125 32.3125 
Q 14.796875 37.15625 21.921875 38.8125 
z
M 18.3125 54.390625 
Q 18.3125 48.734375 21.84375 45.5625 
Q 25.390625 42.390625 31.78125 42.390625 
Q 38.140625 42.390625 41.71875 45.5625 
Q 45.3125 48.734375 45.3125 54.390625 
Q 45.3125 60.0625 41.71875 63.234375 
Q 38.140625 66.40625 31.78125 66.40625 
Q 25.390625 66.40625 21.84375 63.234375 
Q 18.3125 60.0625 18.3125 54.390625 
z
" id="DejaVuSans-56"/>
       </defs>
       <use xlink:href="#DejaVuSans-56"/>
      </g>
     </g>
    </g>
    <g id="ytick_6">
     <g id="line2d_11">
      <g>
       <use style="stroke:#000000;stroke-width:0.8;" x="57.6" xlink:href="#mc4e1efe5e3" y="128.881988"/>
      </g>
     </g>
     <g id="text_11">
      <!-- 10 -->
      <g transform="translate(37.875 132.681207)scale(0.1 -0.1)">
       <defs>
        <path d="M 12.40625 8.296875 
L 28.515625 8.296875 
L 28.515625 63.921875 
L 10.984375 60.40625 
L 10.984375 69.390625 
L 28.421875 72.90625 
L 38.28125 72.90625 
L 38.28125 8.296875 
L 54.390625 8.296875 
L 54.390625 0 
L 12.40625 0 
z
" id="DejaVuSans-49"/>
       </defs>
       <use xlink:href="#DejaVuSans-49"/>
       <use x="63.623047" xlink:href="#DejaVuSans-48"/>
      </g>
     </g>
    </g>
    <g id="ytick_7">
     <g id="line2d_12">
      <g>
       <use style="stroke:#000000;stroke-width:0.8;" x="57.6" xlink:href="#mc4e1efe5e3" y="95.560786"/>
      </g>
     </g>
     <g id="text_12">
      <!-- 12 -->
      <g transform="translate(37.875 99.360004)scale(0.1 -0.1)">
       <use xlink:href="#DejaVuSans-49"/>
       <use x="63.623047" xlink:href="#DejaVuSans-50"/>
      </g>
     </g>
    </g>
    <g id="ytick_8">
     <g id="line2d_13">
      <g>
       <use style="stroke:#000000;stroke-width:0.8;" x="57.6" xlink:href="#mc4e1efe5e3" y="62.239583"/>
      </g>
     </g>
     <g id="text_13">
      <!-- 14 -->
      <g transform="translate(37.875 66.038802)scale(0.1 -0.1)">
       <use xlink:href="#DejaVuSans-49"/>
       <use x="63.623047" xlink:href="#DejaVuSans-52"/>
      </g>
     </g>
    </g>
   </g>
   <g id="line2d_14">
    <path clip-path="url(#pe3c781c5dc)" d="M 73.832727 294.792884 
L 76.791818 295.179645 
L 78.905455 294.642477 
L 81.864545 295.072212 
L 84.400909 295.415999 
L 86.937273 295.308565 
L 90.319091 295.244105 
L 92.432727 294.878831 
L 95.391818 294.663964 
L 97.928182 294.728424 
L 100.887273 295.158158 
L 103.846364 295.072212 
L 106.805455 295.287079 
L 109.341818 295.308565 
L 111.878182 295.308565 
L 114.837273 294.814371 
L 117.373636 294.578017 
L 119.91 295.029238 
L 122.869091 294.642477 
L 125.828182 294.49207 
L 128.364545 295.394512 
L 131.323636 295.072212 
L 133.437273 295.415999 
L 136.396364 294.964778 
L 138.51 294.900318 
L 141.046364 293.976389 
L 143.16 293.954903 
L 145.696364 293.525168 
L 147.81 294.921805 
L 150.346364 293.911929 
L 152.882727 295.050725 
L 155.419091 295.201132 
L 157.955455 294.535044 
L 160.491818 294.384637 
L 163.450909 293.310301 
L 165.564545 293.396248 
L 168.523636 291.29055 
L 170.637273 292.902054 
L 173.596364 294.578017 
L 176.132727 292.902054 
L 179.091818 295.093698 
L 181.205455 294.040849 
L 183.741818 293.546655 
L 186.700909 290.044321 
L 189.66 290.452569 
L 191.773636 289.46418 
L 194.732727 281.900858 
L 197.269091 292.945027 
L 199.805455 287.294022 
L 202.341818 294.29869 
L 204.878182 291.29055 
L 207.414545 289.571614 
L 210.373636 271.458317 
L 212.91 255.386257 
L 215.446364 247.565094 
L 218.405455 178.764647 
L 220.941818 230.031938 
L 223.478182 205.150328 
L 226.437273 119.246458 
L 228.973636 211.46742 
L 231.51 209.060909 
L 234.469091 119.246458 
L 237.005455 194.471432 
L 239.541818 253.753267 
L 242.500909 211.188093 
L 244.614545 284.608183 
L 247.150909 282.137212 
L 249.687273 281.771938 
L 252.646364 294.835858 
L 255.182727 289.679047 
L 257.719091 290.409595 
L 260.678182 283.813175 
L 263.214545 286.047793 
L 266.173636 293.568142 
L 268.71 289.356747 
L 271.246364 293.503682 
L 274.205455 295.265592 
L 276.741818 294.578017 
L 279.700909 294.728424 
L 282.66 292.85908 
L 285.619091 292.60124 
L 288.578182 294.16977 
L 291.114545 292.515293 
L 294.073636 293.911929 
L 297.032727 295.351539 
L 299.569091 295.136672 
L 302.528182 295.029238 
L 305.487273 294.513557 
L 308.023636 294.148283 
L 310.982727 294.663964 
L 313.519091 293.632602 
L 316.478182 294.535044 
L 319.014545 295.394512 
L 321.550909 295.244105 
L 324.087273 295.330052 
L 326.623636 294.792884 
L 329.582727 294.599504 
L 332.541818 295.158158 
L 335.500909 294.599504 
L 338.037273 295.007751 
L 340.996364 295.351539 
L 343.955455 295.287079 
L 346.491818 295.373026 
L 349.028182 295.201132 
L 351.987273 294.986265 
L 354.523636 295.136672 
L 357.482727 295.244105 
L 360.019091 295.072212 
L 362.978182 295.287079 
L 365.937273 295.437486 
L 368.473636 295.265592 
L 371.432727 295.244105 
L 374.391818 295.351539 
L 376.928182 295.136672 
L 379.887273 294.986265 
L 382.423636 295.394512 
L 384.96 295.415999 
L 387.919091 295.394512 
L 390.455455 295.351539 
L 393.414545 295.222619 
L 395.950909 295.330052 
L 398.487273 295.351539 
" style="fill:none;stroke:#1f77b4;stroke-linecap:square;stroke-width:1.5;"/>
   </g>
   <g id="line2d_15">
    <path clip-path="url(#pe3c781c5dc)" d="M 73.832727 295.270734 
L 75.099007 295.487384 
L 75.813318 295.361832 
L 78.118596 294.713293 
L 78.832907 294.936665 
L 80.326468 295.480091 
L 80.975842 295.428325 
L 81.884965 295.093674 
L 82.859026 294.810199 
L 83.540869 294.851524 
L 84.51493 295.176582 
L 85.586397 295.467556 
L 86.463052 295.455003 
L 88.638455 295.303971 
L 92.27495 295.487682 
L 97.827098 295.389141 
L 100.392125 294.93724 
L 101.301249 295.244225 
L 102.210372 295.485179 
L 102.794809 295.410944 
L 103.444183 295.091807 
L 104.840337 294.324734 
L 105.359836 294.324914 
L 105.944273 294.56975 
L 107.665114 295.484472 
L 108.184613 295.416625 
L 108.866456 295.073057 
L 110.002861 294.495749 
L 110.554829 294.475631 
L 111.171734 294.687648 
L 112.989981 295.47696 
L 113.736761 295.436615 
L 115.684883 295.19574 
L 120.490251 295.479439 
L 123.964402 295.485229 
L 124.808588 295.40895 
L 125.587837 295.105508 
L 126.983991 294.509264 
L 127.535959 294.546537 
L 128.152865 294.826829 
L 129.419144 295.476975 
L 129.873706 295.438344 
L 130.360736 295.15714 
L 131.075048 294.430391 
L 131.919234 293.650625 
L 132.373796 293.519969 
L 132.795889 293.644885 
L 133.28292 294.045827 
L 134.77648 295.448231 
L 135.198573 295.466512 
L 135.653135 295.234128 
L 136.367446 294.545644 
L 137.146695 293.885726 
L 137.601257 293.766876 
L 138.055819 293.891761 
L 138.640255 294.331073 
L 139.906535 295.361523 
L 140.458503 295.487937 
L 141.075408 295.378165 
L 142.633906 294.979551 
L 143.413154 295.097424 
L 145.296339 295.476389 
L 147.601617 295.476101 
L 150.848487 295.435114 
L 151.660205 295.465425 
L 152.212172 295.263043 
L 152.829078 294.778317 
L 154.160295 293.645462 
L 154.582388 293.610643 
L 155.004481 293.820612 
L 155.556449 294.38955 
L 156.53051 295.404462 
L 156.887665 295.484483 
L 157.212353 295.337063 
L 157.601977 294.878902 
L 158.186414 293.760848 
L 159.128006 291.967735 
L 159.51763 291.658634 
L 159.809849 291.682427 
L 160.134536 291.968193 
L 160.556629 292.679701 
L 161.985252 295.371805 
L 162.309939 295.486843 
L 162.602157 295.351975 
L 162.959313 294.912369 
L 163.576218 293.712291 
L 164.355467 292.324807 
L 164.745091 292.033848 
L 165.03731 292.054325 
L 165.361997 292.30891 
L 165.816558 292.986537 
L 167.212713 295.269892 
L 167.634806 295.480696 
L 168.02443 295.42929 
L 168.576398 295.09119 
L 169.550459 294.489852 
L 170.03749 294.453273 
L 170.589457 294.64249 
L 172.407705 295.447303 
L 173.479172 295.487162 
L 175.297419 295.374797 
L 177.213073 295.015318 
L 177.927384 295.276151 
L 178.641695 295.487988 
L 179.03132 295.375557 
L 179.420944 294.997623 
L 179.875506 294.195168 
L 180.719692 292.09276 
L 181.304129 290.926588 
L 181.628816 290.659384 
L 181.888566 290.705197 
L 182.180784 291.044022 
L 182.570408 291.914342 
L 183.966562 295.449329 
L 184.193843 295.459141 
L 184.421124 295.190529 
L 184.713343 294.427467 
L 185.135436 292.589077 
L 186.661465 285.141085 
L 186.921214 284.903153 
L 187.083558 285.003484 
L 187.310839 285.462588 
L 187.635526 286.702232 
L 188.187494 289.873633 
L 189.03168 294.516081 
L 189.388836 295.398082 
L 189.583648 295.481205 
L 189.77846 295.273089 
L 190.03821 294.56499 
L 190.427834 292.740056 
L 191.856457 285.295129 
L 192.116207 284.979636 
L 192.27855 285.033833 
L 192.505831 285.426145 
L 192.830518 286.55603 
L 193.382486 289.496446 
L 194.29161 294.216109 
L 194.681234 295.24183 
L 194.973452 295.486993 
L 195.200733 295.390316 
L 195.492951 294.967446 
L 196.044919 293.6654 
L 196.694293 292.30522 
L 197.051449 291.995884 
L 197.343667 292.031794 
L 197.668354 292.346497 
L 198.187854 293.245954 
L 199.161915 294.932407 
L 199.648945 295.341147 
L 200.168444 295.479016 
L 201.564599 295.475104 
L 202.116567 295.304682 
L 202.571128 294.914865 
L 203.220502 293.993707 
L 203.869876 293.165509 
L 204.194563 293.050231 
L 204.454313 293.173586 
L 204.779 293.600132 
L 205.947873 295.480033 
L 206.142686 295.27699 
L 206.369966 294.633975 
L 206.662185 293.053529 
L 207.051809 289.531346 
L 207.603777 282.210757 
L 208.610307 268.847872 
L 208.934994 267.081418 
L 209.064869 266.954776 
L 209.097337 266.978731 
L 209.227212 267.301513 
L 209.454493 268.740273 
L 209.77918 272.594378 
L 210.331148 282.435752 
L 211.012991 293.62621 
L 211.305209 295.451656 
L 211.370146 295.481167 
L 211.402615 295.439276 
L 211.53249 294.877531 
L 211.727302 292.793549 
L 212.01952 286.773957 
L 212.441614 272.338471 
L 213.253331 234.060696 
L 213.837768 211.412439 
L 214.162455 205.421977 
L 214.324798 204.754286 
L 214.422204 205.146701 
L 214.584548 207.13325 
L 214.844298 213.662466 
L 215.233922 230.062316 
L 216.597607 293.725286 
L 216.79242 295.483334 
L 216.857357 295.35909 
L 216.987232 293.996199 
L 217.182044 289.11457 
L 217.474262 275.539108 
L 217.928824 241.779031 
L 219.29251 130.91713 
L 219.584728 123.71821 
L 219.649665 123.43149 
L 219.682134 123.472443 
L 219.77954 124.33521 
L 219.974352 129.361635 
L 220.266571 144.677329 
L 220.721132 183.10297 
L 221.857537 285.035071 
L 222.149755 294.72941 
L 222.247161 295.483703 
L 222.27963 295.446347 
L 222.377036 294.457439 
L 222.53938 289.879773 
L 222.799129 275.160689 
L 223.188754 238.270873 
L 224.77972 66.325011 
L 225.007001 61.584249 
L 225.03947 61.565138 
L 225.136876 62.504358 
L 225.299219 67.359767 
L 225.558969 83.257212 
L 225.948593 122.781323 
L 227.409685 288.345704 
L 227.669435 295.371089 
L 227.701903 295.485633 
L 227.734372 295.428128 
L 227.831778 294.224375 
L 228.02659 287.2475 
L 228.318809 266.145953 
L 228.77337 213.694862 
L 229.942244 70.724367 
L 230.266931 55.142192 
L 230.396805 53.568 
L 230.429274 53.603128 
L 230.52668 54.735951 
L 230.689024 59.995822 
L 230.948773 76.65426 
L 231.370867 121.29081 
L 232.767021 284.117503 
L 233.059239 294.742826 
L 233.156645 295.48739 
L 233.189114 295.423386 
L 233.28652 294.305278 
L 233.481332 288.033498 
L 233.77355 269.527494 
L 234.260581 221.394742 
L 235.234642 123.052066 
L 235.591798 106.444605 
L 235.78661 104.116025 
L 235.851547 104.431617 
L 235.981422 106.680029 
L 236.208703 115.581134 
L 236.565859 140.622247 
L 237.215233 206.160026 
L 237.962013 273.959673 
L 238.351637 292.029893 
L 238.578918 295.433744 
L 238.611387 295.487994 
L 238.643856 295.436434 
L 238.741262 294.658745 
L 238.936074 290.441448 
L 239.228292 278.342778 
L 239.78026 243.68654 
L 240.559509 197.028623 
L 240.916665 186.36238 
L 241.143946 184.513741 
L 241.208883 184.71096 
L 241.338758 186.052248 
L 241.566039 191.278767 
L 241.923195 205.785303 
L 242.637506 247.008056 
L 243.319349 281.503771 
L 243.708973 292.372188 
L 243.968723 295.271136 
L 244.066129 295.487891 
L 244.098597 295.460001 
L 244.228472 294.872831 
L 244.455753 292.192702 
L 244.812909 284.76076 
L 246.04672 256.5784 
L 246.338938 254.486222 
L 246.436344 254.359105 
L 246.468813 254.379562 
L 246.598688 254.768336 
L 246.825968 256.563425 
L 247.183124 261.781621 
L 247.897436 276.708794 
L 248.611747 289.690093 
L 249.03384 293.957438 
L 249.358527 295.338684 
L 249.553339 295.480268 
L 249.715683 295.279022 
L 249.975432 294.506108 
L 251.339118 289.68101 
L 251.566399 289.643149 
L 251.79368 289.875239 
L 252.118367 290.582206 
L 252.897616 293.044525 
L 253.514521 294.598608 
L 253.969083 295.206926 
L 254.391176 295.434835 
L 255.04055 295.487836 
L 256.371767 295.380796 
L 256.891266 295.063203 
L 257.638046 294.272943 
L 258.254951 293.745079 
L 258.612107 293.694188 
L 258.969263 293.889102 
L 259.423825 294.434929 
L 260.235542 295.43349 
L 260.52776 295.467982 
L 260.78751 295.238559 
L 261.079728 294.647396 
L 261.501821 293.187534 
L 262.28107 289.406392 
L 262.897976 286.9571 
L 263.222663 286.395714 
L 263.417475 286.374745 
L 263.612287 286.60109 
L 263.904505 287.383333 
L 264.326598 289.271703 
L 265.52794 295.053034 
L 265.820159 295.477569 
L 265.982502 295.442698 
L 266.177314 295.139473 
L 266.469533 294.178123 
L 266.924095 291.724801 
L 268.125437 284.814492 
L 268.450124 284.163296 
L 268.644936 284.162391 
L 268.839748 284.45487 
L 269.131966 285.401274 
L 269.586528 287.80265 
L 270.78787 294.570605 
L 271.145026 295.38553 
L 271.372307 295.481107 
L 271.567119 295.311663 
L 271.859337 294.678237 
L 272.346368 292.934639 
L 273.255491 289.669826 
L 273.612647 289.103482 
L 273.839928 289.046643 
L 274.067209 289.223823 
L 274.391896 289.836701 
L 274.911395 291.421295 
L 275.950394 294.634238 
L 276.372487 295.295765 
L 276.729642 295.485566 
L 277.054329 295.414909 
L 277.54136 295.046952 
L 278.418015 294.38321 
L 278.872577 294.314683 
L 279.359607 294.47341 
L 281.470073 295.463417 
L 282.866227 295.487788 
L 284.100038 295.372515 
L 286.145566 294.996594 
L 286.924815 295.278821 
L 287.671595 295.487947 
L 288.126157 295.374745 
L 288.580718 294.998486 
L 289.197624 294.131817 
L 290.171685 292.761028 
L 290.561309 292.557028 
L 290.885996 292.623278 
L 291.243152 292.943125 
L 291.762651 293.755097 
L 292.736712 295.295728 
L 293.093868 295.485954 
L 293.386086 295.40669 
L 293.710773 295.068649 
L 294.165335 294.233386 
L 295.464083 291.639475 
L 295.78877 291.453852 
L 296.080988 291.534898 
L 296.405675 291.886928 
L 296.892706 292.807817 
L 298.061579 295.165245 
L 298.451204 295.466685 
L 298.775891 295.447294 
L 299.133046 295.171009 
L 299.685014 294.403451 
L 300.561669 293.223864 
L 300.983762 293.01056 
L 301.340918 293.074201 
L 301.763011 293.404721 
L 302.509791 294.355731 
L 303.28904 295.213197 
L 303.808539 295.464372 
L 304.328039 295.456333 
L 305.3021 295.135252 
L 306.04888 295.015144 
L 306.828129 295.129146 
L 308.646376 295.475222 
L 310.886716 295.469289 
L 312.510151 295.262144 
L 313.484212 295.257315 
L 315.497272 295.400576 
L 316.114177 295.081449 
L 317.80255 294.047895 
L 318.257112 294.110954 
L 318.776611 294.421214 
L 320.270171 295.478175 
L 320.692264 295.431505 
L 321.146826 295.137414 
L 321.861137 294.349324 
L 322.640386 293.587048 
L 323.094948 293.438502 
L 323.484572 293.538984 
L 323.971603 293.923562 
L 325.595038 295.449496 
L 326.0496 295.464163 
L 326.53663 295.2365 
L 328.257472 294.196155 
L 328.744502 294.271755 
L 329.393876 294.630293 
L 330.692624 295.395044 
L 331.341998 295.487611 
L 332.283591 295.353051 
L 333.419995 295.243245 
L 334.783681 295.398428 
L 336.374647 295.487555 
L 339.329299 295.386941 
L 340.822859 295.354988 
L 342.80345 295.426491 
L 343.615167 295.14087 
L 344.978853 294.634444 
L 345.595758 294.68344 
L 346.31007 294.987519 
L 347.446474 295.471541 
L 347.998442 295.443043 
L 348.582879 295.175965 
L 350.238782 294.258388 
L 350.758282 294.314974 
L 351.375187 294.633492 
L 352.771341 295.446285 
L 353.323309 295.471712 
L 353.972683 295.259507 
L 355.401306 294.710763 
L 356.05068 294.758421 
L 356.959804 295.096476 
L 358.063739 295.450787 
L 358.940394 295.471327 
L 361.375547 295.380341 
L 364.037981 295.488 
L 370.401846 295.384044 
L 372.80453 294.941672 
L 373.681185 295.193285 
L 374.785121 295.483591 
L 375.434495 295.419922 
L 376.278681 295.080531 
L 377.350148 294.683517 
L 377.967053 294.693363 
L 378.713834 294.951709 
L 380.077519 295.467062 
L 380.759362 295.453133 
L 381.765891 295.161632 
L 382.739953 294.964446 
L 383.55167 295.047181 
L 385.986823 295.485729 
L 389.980473 295.479681 
L 393.584499 295.447144 
L 395.857308 295.450766 
L 397.448274 295.444027 
L 398.487273 295.241112 
L 398.487273 295.241112 
" style="fill:none;stroke:#ff7f0e;stroke-linecap:square;stroke-width:1.5;"/>
   </g>
   <g id="patch_3">
    <path d="M 57.6 307.584 
L 57.6 41.472 
" style="fill:none;stroke:#000000;stroke-linecap:square;stroke-linejoin:miter;stroke-width:0.8;"/>
   </g>
   <g id="patch_4">
    <path d="M 414.72 307.584 
L 414.72 41.472 
" style="fill:none;stroke:#000000;stroke-linecap:square;stroke-linejoin:miter;stroke-width:0.8;"/>
   </g>
   <g id="patch_5">
    <path d="M 57.6 307.584 
L 414.72 307.584 
" style="fill:none;stroke:#000000;stroke-linecap:square;stroke-linejoin:miter;stroke-width:0.8;"/>
   </g>
   <g id="patch_6">
    <path d="M 57.6 41.472 
L 414.72 41.472 
" style="fill:none;stroke:#000000;stroke-linecap:square;stroke-linejoin:miter;stroke-width:0.8;"/>
   </g>
   <g id="legend_1">
    <g id="patch_7">
     <path d="M 318.065313 78.82825 
L 407.72 78.82825 
Q 409.72 78.82825 409.72 76.82825 
L 409.72 48.472 
Q 409.72 46.472 407.72 46.472 
L 318.065313 46.472 
Q 316.065313 46.472 316.065313 48.472 
L 316.065313 76.82825 
Q 316.065313 78.82825 318.065313 78.82825 
z
" style="fill:#ffffff;opacity:0.8;stroke:#cccccc;stroke-linejoin:miter;"/>
    </g>
    <g id="line2d_16">
     <path d="M 320.065313 54.570437 
L 340.065313 54.570437 
" style="fill:none;stroke:#1f77b4;stroke-linecap:square;stroke-width:1.5;"/>
    </g>
    <g id="line2d_17"/>
    <g id="text_14">
     <!-- .5and0.8 -->
     <g transform="translate(348.065313 58.070437)scale(0.1 -0.1)">
      <defs>
       <path d="M 10.796875 72.90625 
L 49.515625 72.90625 
L 49.515625 64.59375 
L 19.828125 64.59375 
L 19.828125 46.734375 
Q 21.96875 47.46875 24.109375 47.828125 
Q 26.265625 48.1875 28.421875 48.1875 
Q 40.625 48.1875 47.75 41.5 
Q 54.890625 34.8125 54.890625 23.390625 
Q 54.890625 11.625 47.5625 5.09375 
Q 40.234375 -1.421875 26.90625 -1.421875 
Q 22.3125 -1.421875 17.546875 -0.640625 
Q 12.796875 0.140625 7.71875 1.703125 
L 7.71875 11.625 
Q 12.109375 9.234375 16.796875 8.0625 
Q 21.484375 6.890625 26.703125 6.890625 
Q 35.15625 6.890625 40.078125 11.328125 
Q 45.015625 15.765625 45.015625 23.390625 
Q 45.015625 31 40.078125 35.4375 
Q 35.15625 39.890625 26.703125 39.890625 
Q 22.75 39.890625 18.8125 39.015625 
Q 14.890625 38.140625 10.796875 36.28125 
z
" id="DejaVuSans-53"/>
       <path d="M 34.28125 27.484375 
Q 23.390625 27.484375 19.1875 25 
Q 14.984375 22.515625 14.984375 16.5 
Q 14.984375 11.71875 18.140625 8.90625 
Q 21.296875 6.109375 26.703125 6.109375 
Q 34.1875 6.109375 38.703125 11.40625 
Q 43.21875 16.703125 43.21875 25.484375 
L 43.21875 27.484375 
z
M 52.203125 31.203125 
L 52.203125 0 
L 43.21875 0 
L 43.21875 8.296875 
Q 40.140625 3.328125 35.546875 0.953125 
Q 30.953125 -1.421875 24.3125 -1.421875 
Q 15.921875 -1.421875 10.953125 3.296875 
Q 6 8.015625 6 15.921875 
Q 6 25.140625 12.171875 29.828125 
Q 18.359375 34.515625 30.609375 34.515625 
L 43.21875 34.515625 
L 43.21875 35.40625 
Q 43.21875 41.609375 39.140625 45 
Q 35.0625 48.390625 27.6875 48.390625 
Q 23 48.390625 18.546875 47.265625 
Q 14.109375 46.140625 10.015625 43.890625 
L 10.015625 52.203125 
Q 14.9375 54.109375 19.578125 55.046875 
Q 24.21875 56 28.609375 56 
Q 40.484375 56 46.34375 49.84375 
Q 52.203125 43.703125 52.203125 31.203125 
z
" id="DejaVuSans-97"/>
       <path d="M 54.890625 33.015625 
L 54.890625 0 
L 45.90625 0 
L 45.90625 32.71875 
Q 45.90625 40.484375 42.875 44.328125 
Q 39.84375 48.1875 33.796875 48.1875 
Q 26.515625 48.1875 22.3125 43.546875 
Q 18.109375 38.921875 18.109375 30.90625 
L 18.109375 0 
L 9.078125 0 
L 9.078125 54.6875 
L 18.109375 54.6875 
L 18.109375 46.1875 
Q 21.34375 51.125 25.703125 53.5625 
Q 30.078125 56 35.796875 56 
Q 45.21875 56 50.046875 50.171875 
Q 54.890625 44.34375 54.890625 33.015625 
z
" id="DejaVuSans-110"/>
       <path d="M 45.40625 46.390625 
L 45.40625 75.984375 
L 54.390625 75.984375 
L 54.390625 0 
L 45.40625 0 
L 45.40625 8.203125 
Q 42.578125 3.328125 38.25 0.953125 
Q 33.9375 -1.421875 27.875 -1.421875 
Q 17.96875 -1.421875 11.734375 6.484375 
Q 5.515625 14.40625 5.515625 27.296875 
Q 5.515625 40.1875 11.734375 48.09375 
Q 17.96875 56 27.875 56 
Q 33.9375 56 38.25 53.625 
Q 42.578125 51.265625 45.40625 46.390625 
z
M 14.796875 27.296875 
Q 14.796875 17.390625 18.875 11.75 
Q 22.953125 6.109375 30.078125 6.109375 
Q 37.203125 6.109375 41.296875 11.75 
Q 45.40625 17.390625 45.40625 27.296875 
Q 45.40625 37.203125 41.296875 42.84375 
Q 37.203125 48.484375 30.078125 48.484375 
Q 22.953125 48.484375 18.875 42.84375 
Q 14.796875 37.203125 14.796875 27.296875 
z
" id="DejaVuSans-100"/>
      </defs>
      <use xlink:href="#DejaVuSans-46"/>
      <use x="31.787109" xlink:href="#DejaVuSans-53"/>
      <use x="95.410156" xlink:href="#DejaVuSans-97"/>
      <use x="156.689453" xlink:href="#DejaVuSans-110"/>
      <use x="220.068359" xlink:href="#DejaVuSans-100"/>
      <use x="283.544922" xlink:href="#DejaVuSans-48"/>
      <use x="347.167969" xlink:href="#DejaVuSans-46"/>
      <use x="378.955078" xlink:href="#DejaVuSans-56"/>
     </g>
    </g>
    <g id="line2d_18">
     <path d="M 320.065313 69.248562 
L 340.065313 69.248562 
" style="fill:none;stroke:#ff7f0e;stroke-linecap:square;stroke-width:1.5;"/>
    </g>
    <g id="line2d_19"/>
    <g id="text_15">
     <!-- .5and0.8 fit -->
     <g transform="translate(348.065313 72.748562)scale(0.1 -0.1)">
      <defs>
       <path id="DejaVuSans-32"/>
       <path d="M 37.109375 75.984375 
L 37.109375 68.5 
L 28.515625 68.5 
Q 23.6875 68.5 21.796875 66.546875 
Q 19.921875 64.59375 19.921875 59.515625 
L 19.921875 54.6875 
L 34.71875 54.6875 
L 34.71875 47.703125 
L 19.921875 47.703125 
L 19.921875 0 
L 10.890625 0 
L 10.890625 47.703125 
L 2.296875 47.703125 
L 2.296875 54.6875 
L 10.890625 54.6875 
L 10.890625 58.5 
Q 10.890625 67.625 15.140625 71.796875 
Q 19.390625 75.984375 28.609375 75.984375 
z
" id="DejaVuSans-102"/>
       <path d="M 9.421875 54.6875 
L 18.40625 54.6875 
L 18.40625 0 
L 9.421875 0 
z
M 9.421875 75.984375 
L 18.40625 75.984375 
L 18.40625 64.59375 
L 9.421875 64.59375 
z
" id="DejaVuSans-105"/>
       <path d="M 18.3125 70.21875 
L 18.3125 54.6875 
L 36.8125 54.6875 
L 36.8125 47.703125 
L 18.3125 47.703125 
L 18.3125 18.015625 
Q 18.3125 11.328125 20.140625 9.421875 
Q 21.96875 7.515625 27.59375 7.515625 
L 36.8125 7.515625 
L 36.8125 0 
L 27.59375 0 
Q 17.1875 0 13.234375 3.875 
Q 9.28125 7.765625 9.28125 18.015625 
L 9.28125 47.703125 
L 2.6875 47.703125 
L 2.6875 54.6875 
L 9.28125 54.6875 
L 9.28125 70.21875 
z
" id="DejaVuSans-116"/>
      </defs>
      <use xlink:href="#DejaVuSans-46"/>
      <use x="31.787109" xlink:href="#DejaVuSans-53"/>
      <use x="95.410156" xlink:href="#DejaVuSans-97"/>
      <use x="156.689453" xlink:href="#DejaVuSans-110"/>
      <use x="220.068359" xlink:href="#DejaVuSans-100"/>
      <use x="283.544922" xlink:href="#DejaVuSans-48"/>
      <use x="347.167969" xlink:href="#DejaVuSans-46"/>
      <use x="378.955078" xlink:href="#DejaVuSans-56"/>
      <use x="442.578125" xlink:href="#DejaVuSans-32"/>
      <use x="474.365234" xlink:href="#DejaVuSans-102"/>
      <use x="509.570312" xlink:href="#DejaVuSans-105"/>
      <use x="537.353516" xlink:href="#DejaVuSans-116"/>
     </g>
    </g>
   </g>
  </g>
 </g>
 <defs>
  <clipPath id="pe3c781c5dc">
   <rect height="266.112" width="357.12" x="57.6" y="41.472"/>
  </clipPath>
 </defs>
</svg>
