<?xml version="1.0" encoding="utf-8" standalone="no"?>
<!DOCTYPE svg PUBLIC "-//W3C//DTD SVG 1.1//EN"
  "http://www.w3.org/Graphics/SVG/1.1/DTD/svg11.dtd">
<!-- Created with matplotlib (https://matplotlib.org/) -->
<svg height="345.6pt" version="1.1" viewBox="0 0 460.8 345.6" width="460.8pt" xmlns="http://www.w3.org/2000/svg" xmlns:xlink="http://www.w3.org/1999/xlink">
 <metadata>
  <rdf:RDF xmlns:cc="http://creativecommons.org/ns#" xmlns:dc="http://purl.org/dc/elements/1.1/" xmlns:rdf="http://www.w3.org/1999/02/22-rdf-syntax-ns#">
   <cc:Work>
    <dc:type rdf:resource="http://purl.org/dc/dcmitype/StillImage"/>
    <dc:date>2021-05-17T10:46:52.344776</dc:date>
    <dc:format>image/svg+xml</dc:format>
    <dc:creator>
     <cc:Agent>
      <dc:title>Matplotlib v3.3.4, https://matplotlib.org/</dc:title>
     </cc:Agent>
    </dc:creator>
   </cc:Work>
  </rdf:RDF>
 </metadata>
 <defs>
  <style type="text/css">*{stroke-linecap:butt;stroke-linejoin:round;}</style>
 </defs>
 <g id="figure_1">
  <g id="patch_1">
   <path d="M 0 345.6 
L 460.8 345.6 
L 460.8 0 
L 0 0 
z
" style="fill:#ffffff;"/>
  </g>
  <g id="axes_1">
   <g id="patch_2">
    <path d="M 57.6 307.584 
L 414.72 307.584 
L 414.72 41.472 
L 57.6 41.472 
z
" style="fill:#ffffff;"/>
   </g>
   <g id="matplotlib.axis_1">
    <g id="xtick_1">
     <g id="line2d_1">
      <defs>
       <path d="M 0 0 
L 0 3.5 
" id="m191ee6cccc" style="stroke:#000000;stroke-width:0.8;"/>
      </defs>
      <g>
       <use style="stroke:#000000;stroke-width:0.8;" x="106.170236" xlink:href="#m191ee6cccc" y="307.584"/>
      </g>
     </g>
     <g id="text_1">
      <!-- −0.4 -->
      <g transform="translate(94.02883 322.182437)scale(0.1 -0.1)">
       <defs>
        <path d="M 10.59375 35.5 
L 73.1875 35.5 
L 73.1875 27.203125 
L 10.59375 27.203125 
z
" id="DejaVuSans-8722"/>
        <path d="M 31.78125 66.40625 
Q 24.171875 66.40625 20.328125 58.90625 
Q 16.5 51.421875 16.5 36.375 
Q 16.5 21.390625 20.328125 13.890625 
Q 24.171875 6.390625 31.78125 6.390625 
Q 39.453125 6.390625 43.28125 13.890625 
Q 47.125 21.390625 47.125 36.375 
Q 47.125 51.421875 43.28125 58.90625 
Q 39.453125 66.40625 31.78125 66.40625 
z
M 31.78125 74.21875 
Q 44.046875 74.21875 50.515625 64.515625 
Q 56.984375 54.828125 56.984375 36.375 
Q 56.984375 17.96875 50.515625 8.265625 
Q 44.046875 -1.421875 31.78125 -1.421875 
Q 19.53125 -1.421875 13.0625 8.265625 
Q 6.59375 17.96875 6.59375 36.375 
Q 6.59375 54.828125 13.0625 64.515625 
Q 19.53125 74.21875 31.78125 74.21875 
z
" id="DejaVuSans-48"/>
        <path d="M 10.6875 12.40625 
L 21 12.40625 
L 21 0 
L 10.6875 0 
z
" id="DejaVuSans-46"/>
        <path d="M 37.796875 64.3125 
L 12.890625 25.390625 
L 37.796875 25.390625 
z
M 35.203125 72.90625 
L 47.609375 72.90625 
L 47.609375 25.390625 
L 58.015625 25.390625 
L 58.015625 17.1875 
L 47.609375 17.1875 
L 47.609375 0 
L 37.796875 0 
L 37.796875 17.1875 
L 4.890625 17.1875 
L 4.890625 26.703125 
z
" id="DejaVuSans-52"/>
       </defs>
       <use xlink:href="#DejaVuSans-8722"/>
       <use x="83.789062" xlink:href="#DejaVuSans-48"/>
       <use x="147.412109" xlink:href="#DejaVuSans-46"/>
       <use x="179.199219" xlink:href="#DejaVuSans-52"/>
      </g>
     </g>
    </g>
    <g id="xtick_2">
     <g id="line2d_2">
      <g>
       <use style="stroke:#000000;stroke-width:0.8;" x="171.1339" xlink:href="#m191ee6cccc" y="307.584"/>
      </g>
     </g>
     <g id="text_2">
      <!-- −0.2 -->
      <g transform="translate(158.992494 322.182437)scale(0.1 -0.1)">
       <defs>
        <path d="M 19.1875 8.296875 
L 53.609375 8.296875 
L 53.609375 0 
L 7.328125 0 
L 7.328125 8.296875 
Q 12.9375 14.109375 22.625 23.890625 
Q 32.328125 33.6875 34.8125 36.53125 
Q 39.546875 41.84375 41.421875 45.53125 
Q 43.3125 49.21875 43.3125 52.78125 
Q 43.3125 58.59375 39.234375 62.25 
Q 35.15625 65.921875 28.609375 65.921875 
Q 23.96875 65.921875 18.8125 64.3125 
Q 13.671875 62.703125 7.8125 59.421875 
L 7.8125 69.390625 
Q 13.765625 71.78125 18.9375 73 
Q 24.125 74.21875 28.421875 74.21875 
Q 39.75 74.21875 46.484375 68.546875 
Q 53.21875 62.890625 53.21875 53.421875 
Q 53.21875 48.921875 51.53125 44.890625 
Q 49.859375 40.875 45.40625 35.40625 
Q 44.1875 33.984375 37.640625 27.21875 
Q 31.109375 20.453125 19.1875 8.296875 
z
" id="DejaVuSans-50"/>
       </defs>
       <use xlink:href="#DejaVuSans-8722"/>
       <use x="83.789062" xlink:href="#DejaVuSans-48"/>
       <use x="147.412109" xlink:href="#DejaVuSans-46"/>
       <use x="179.199219" xlink:href="#DejaVuSans-50"/>
      </g>
     </g>
    </g>
    <g id="xtick_3">
     <g id="line2d_3">
      <g>
       <use style="stroke:#000000;stroke-width:0.8;" x="236.097565" xlink:href="#m191ee6cccc" y="307.584"/>
      </g>
     </g>
     <g id="text_3">
      <!-- 0.0 -->
      <g transform="translate(228.146002 322.182437)scale(0.1 -0.1)">
       <use xlink:href="#DejaVuSans-48"/>
       <use x="63.623047" xlink:href="#DejaVuSans-46"/>
       <use x="95.410156" xlink:href="#DejaVuSans-48"/>
      </g>
     </g>
    </g>
    <g id="xtick_4">
     <g id="line2d_4">
      <g>
       <use style="stroke:#000000;stroke-width:0.8;" x="301.061229" xlink:href="#m191ee6cccc" y="307.584"/>
      </g>
     </g>
     <g id="text_4">
      <!-- 0.2 -->
      <g transform="translate(293.109667 322.182437)scale(0.1 -0.1)">
       <use xlink:href="#DejaVuSans-48"/>
       <use x="63.623047" xlink:href="#DejaVuSans-46"/>
       <use x="95.410156" xlink:href="#DejaVuSans-50"/>
      </g>
     </g>
    </g>
    <g id="xtick_5">
     <g id="line2d_5">
      <g>
       <use style="stroke:#000000;stroke-width:0.8;" x="366.024894" xlink:href="#m191ee6cccc" y="307.584"/>
      </g>
     </g>
     <g id="text_5">
      <!-- 0.4 -->
      <g transform="translate(358.073331 322.182437)scale(0.1 -0.1)">
       <use xlink:href="#DejaVuSans-48"/>
       <use x="63.623047" xlink:href="#DejaVuSans-46"/>
       <use x="95.410156" xlink:href="#DejaVuSans-52"/>
      </g>
     </g>
    </g>
   </g>
   <g id="matplotlib.axis_2">
    <g id="ytick_1">
     <g id="line2d_6">
      <defs>
       <path d="M 0 0 
L -3.5 0 
" id="mdbac2382f6" style="stroke:#000000;stroke-width:0.8;"/>
      </defs>
      <g>
       <use style="stroke:#000000;stroke-width:0.8;" x="57.6" xlink:href="#mdbac2382f6" y="295.488"/>
      </g>
     </g>
     <g id="text_6">
      <!-- 0 -->
      <g transform="translate(44.2375 299.287219)scale(0.1 -0.1)">
       <use xlink:href="#DejaVuSans-48"/>
      </g>
     </g>
    </g>
    <g id="ytick_2">
     <g id="line2d_7">
      <g>
       <use style="stroke:#000000;stroke-width:0.8;" x="57.6" xlink:href="#mdbac2382f6" y="240.66615"/>
      </g>
     </g>
     <g id="text_7">
      <!-- 2 -->
      <g transform="translate(44.2375 244.465368)scale(0.1 -0.1)">
       <use xlink:href="#DejaVuSans-50"/>
      </g>
     </g>
    </g>
    <g id="ytick_3">
     <g id="line2d_8">
      <g>
       <use style="stroke:#000000;stroke-width:0.8;" x="57.6" xlink:href="#mdbac2382f6" y="185.844299"/>
      </g>
     </g>
     <g id="text_8">
      <!-- 4 -->
      <g transform="translate(44.2375 189.643518)scale(0.1 -0.1)">
       <use xlink:href="#DejaVuSans-52"/>
      </g>
     </g>
    </g>
    <g id="ytick_4">
     <g id="line2d_9">
      <g>
       <use style="stroke:#000000;stroke-width:0.8;" x="57.6" xlink:href="#mdbac2382f6" y="131.022449"/>
      </g>
     </g>
     <g id="text_9">
      <!-- 6 -->
      <g transform="translate(44.2375 134.821668)scale(0.1 -0.1)">
       <defs>
        <path d="M 33.015625 40.375 
Q 26.375 40.375 22.484375 35.828125 
Q 18.609375 31.296875 18.609375 23.390625 
Q 18.609375 15.53125 22.484375 10.953125 
Q 26.375 6.390625 33.015625 6.390625 
Q 39.65625 6.390625 43.53125 10.953125 
Q 47.40625 15.53125 47.40625 23.390625 
Q 47.40625 31.296875 43.53125 35.828125 
Q 39.65625 40.375 33.015625 40.375 
z
M 52.59375 71.296875 
L 52.59375 62.3125 
Q 48.875 64.0625 45.09375 64.984375 
Q 41.3125 65.921875 37.59375 65.921875 
Q 27.828125 65.921875 22.671875 59.328125 
Q 17.53125 52.734375 16.796875 39.40625 
Q 19.671875 43.65625 24.015625 45.921875 
Q 28.375 48.1875 33.59375 48.1875 
Q 44.578125 48.1875 50.953125 41.515625 
Q 57.328125 34.859375 57.328125 23.390625 
Q 57.328125 12.15625 50.6875 5.359375 
Q 44.046875 -1.421875 33.015625 -1.421875 
Q 20.359375 -1.421875 13.671875 8.265625 
Q 6.984375 17.96875 6.984375 36.375 
Q 6.984375 53.65625 15.1875 63.9375 
Q 23.390625 74.21875 37.203125 74.21875 
Q 40.921875 74.21875 44.703125 73.484375 
Q 48.484375 72.75 52.59375 71.296875 
z
" id="DejaVuSans-54"/>
       </defs>
       <use xlink:href="#DejaVuSans-54"/>
      </g>
     </g>
    </g>
    <g id="ytick_5">
     <g id="line2d_10">
      <g>
       <use style="stroke:#000000;stroke-width:0.8;" x="57.6" xlink:href="#mdbac2382f6" y="76.200598"/>
      </g>
     </g>
     <g id="text_10">
      <!-- 8 -->
      <g transform="translate(44.2375 79.999817)scale(0.1 -0.1)">
       <defs>
        <path d="M 31.78125 34.625 
Q 24.75 34.625 20.71875 30.859375 
Q 16.703125 27.09375 16.703125 20.515625 
Q 16.703125 13.921875 20.71875 10.15625 
Q 24.75 6.390625 31.78125 6.390625 
Q 38.8125 6.390625 42.859375 10.171875 
Q 46.921875 13.96875 46.921875 20.515625 
Q 46.921875 27.09375 42.890625 30.859375 
Q 38.875 34.625 31.78125 34.625 
z
M 21.921875 38.8125 
Q 15.578125 40.375 12.03125 44.71875 
Q 8.5 49.078125 8.5 55.328125 
Q 8.5 64.0625 14.71875 69.140625 
Q 20.953125 74.21875 31.78125 74.21875 
Q 42.671875 74.21875 48.875 69.140625 
Q 55.078125 64.0625 55.078125 55.328125 
Q 55.078125 49.078125 51.53125 44.71875 
Q 48 40.375 41.703125 38.8125 
Q 48.828125 37.15625 52.796875 32.3125 
Q 56.78125 27.484375 56.78125 20.515625 
Q 56.78125 9.90625 50.3125 4.234375 
Q 43.84375 -1.421875 31.78125 -1.421875 
Q 19.734375 -1.421875 13.25 4.234375 
Q 6.78125 9.90625 6.78125 20.515625 
Q 6.78125 27.484375 10.78125 32.3125 
Q 14.796875 37.15625 21.921875 38.8125 
z
M 18.3125 54.390625 
Q 18.3125 48.734375 21.84375 45.5625 
Q 25.390625 42.390625 31.78125 42.390625 
Q 38.140625 42.390625 41.71875 45.5625 
Q 45.3125 48.734375 45.3125 54.390625 
Q 45.3125 60.0625 41.71875 63.234375 
Q 38.140625 66.40625 31.78125 66.40625 
Q 25.390625 66.40625 21.84375 63.234375 
Q 18.3125 60.0625 18.3125 54.390625 
z
" id="DejaVuSans-56"/>
       </defs>
       <use xlink:href="#DejaVuSans-56"/>
      </g>
     </g>
    </g>
   </g>
   <g id="line2d_11">
    <path clip-path="url(#p0b307523cf)" d="M 73.832727 295.404891 
L 74.670545 295.298838 
L 74.670545 295.298838 
L 76.346182 294.945327 
L 76.765091 294.945327 
L 76.765091 295.016029 
L 77.602909 295.36954 
L 77.602909 295.36954 
L 78.859636 295.36954 
L 78.859636 295.228136 
L 79.278545 295.05138 
L 80.116364 294.768571 
L 80.116364 294.803922 
L 80.535273 294.980678 
L 82.210909 295.334189 
L 82.210909 295.334189 
L 82.629818 295.263487 
L 83.048727 295.086731 
L 83.467636 294.945327 
L 83.467636 294.768571 
L 84.305455 294.839273 
L 84.305455 294.909976 
L 85.562182 295.263487 
L 86.818909 295.263487 
L 89.332364 295.157433 
L 89.332364 295.228136 
L 90.589091 295.404891 
L 93.102545 295.298838 
L 93.940364 295.298838 
L 93.940364 295.298838 
L 94.359273 295.122082 
L 94.359273 295.228136 
L 95.616 295.157433 
L 95.616 295.334189 
L 97.291636 295.404891 
L 97.291636 295.228136 
L 97.710545 295.298838 
L 97.710545 295.192784 
L 98.129455 295.016029 
L 98.129455 294.839273 
L 98.967273 294.73322 
L 98.967273 295.263487 
L 99.386182 295.404891 
L 99.386182 295.334189 
L 99.805091 295.122082 
L 99.805091 294.839273 
L 100.642909 294.450411 
L 100.642909 294.379709 
L 101.480727 294.273656 
L 101.480727 294.379709 
L 102.318545 294.803922 
L 103.156364 295.36954 
L 103.156364 295.263487 
L 103.575273 295.157433 
L 103.575273 295.016029 
L 104.413091 294.627167 
L 104.413091 294.41506 
L 105.669818 294.521113 
L 105.669818 294.521113 
L 106.926545 295.192784 
L 107.345455 295.228136 
L 107.345455 295.157433 
L 108.602182 294.945327 
L 110.277818 295.05138 
L 111.534545 295.334189 
L 111.534545 295.404891 
L 113.629091 295.334189 
L 113.629091 295.263487 
L 113.629091 295.263487 
L 114.466909 295.228136 
L 114.466909 295.122082 
L 115.304727 295.157433 
L 115.304727 295.122082 
L 116.980364 295.086731 
L 116.980364 295.298838 
L 118.237091 295.36954 
L 118.237091 295.263487 
L 119.074909 295.016029 
L 119.074909 294.803922 
L 119.493818 294.803922 
L 119.493818 294.627167 
L 120.331636 294.521113 
L 120.331636 294.521113 
L 120.750545 294.697869 
L 121.169455 294.909976 
L 121.169455 295.086731 
L 122.007273 295.404891 
L 122.426182 295.228136 
L 122.426182 295.016029 
L 122.845091 294.874625 
L 122.845091 294.662518 
L 123.264 294.450411 
L 123.264 294.238305 
L 123.682909 293.884794 
L 124.520727 293.849443 
L 124.101818 293.990847 
L 124.939636 294.768571 
L 124.939636 295.192784 
L 125.358545 295.334189 
L 125.777455 295.192784 
L 125.777455 295.016029 
L 126.615273 295.086731 
L 126.615273 294.909976 
L 127.453091 294.379709 
L 127.453091 294.238305 
L 127.872 294.238305 
L 128.290909 293.814091 
L 128.290909 294.061549 
L 128.709818 294.450411 
L 129.128727 294.839273 
L 129.547636 294.874625 
L 129.547636 295.016029 
L 129.966545 295.157433 
L 130.804364 294.980678 
L 131.642182 294.450411 
L 131.642182 294.521113 
L 132.061091 294.379709 
L 132.061091 294.521113 
L 134.155636 294.909976 
L 134.155636 295.05138 
L 134.574545 295.05138 
L 134.574545 295.192784 
L 134.993455 295.192784 
L 134.993455 295.36954 
L 136.669091 295.157433 
L 136.669091 295.086731 
L 136.669091 295.086731 
L 137.506909 294.945327 
L 138.344727 295.05138 
L 138.344727 294.980678 
L 140.020364 295.192784 
L 140.858182 295.36954 
L 140.858182 295.298838 
L 141.696 295.05138 
L 142.114909 294.697869 
L 142.114909 294.697869 
L 142.114909 294.309007 
L 142.952727 293.814091 
L 142.952727 293.849443 
L 143.371636 293.849443 
L 143.371636 294.167602 
L 143.790545 294.309007 
L 143.790545 294.662518 
L 144.209455 295.157433 
L 144.628364 295.263487 
L 144.628364 295.404891 
L 145.047273 295.228136 
L 145.047273 295.016029 
L 145.466182 294.662518 
L 145.885091 294.061549 
L 145.885091 293.531283 
L 146.722909 292.930314 
L 146.722909 292.859612 
L 146.722909 293.071718 
L 147.141818 293.849443 
L 147.141818 294.485762 
L 147.560727 295.334189 
L 147.979636 295.157433 
L 148.398545 294.803922 
L 148.398545 294.309007 
L 148.817455 293.637336 
L 149.236364 293.354527 
L 149.236364 293.001016 
L 149.655273 293.107069 
L 150.074182 292.930314 
L 150.074182 293.001016 
L 150.074182 293.425229 
L 150.493091 293.319176 
L 150.912 293.531283 
L 150.912 294.273656 
L 151.330909 294.768571 
L 151.330909 295.016029 
L 151.749818 295.192784 
L 152.587636 295.05138 
L 153.006545 294.839273 
L 153.006545 294.450411 
L 153.844364 294.026198 
L 153.844364 294.167602 
L 153.844364 293.814091 
L 154.682182 294.273656 
L 154.682182 294.697869 
L 155.101091 294.803922 
L 155.101091 294.945327 
L 155.52 295.016029 
L 156.357818 295.334189 
L 156.776727 295.263487 
L 157.614545 295.016029 
L 157.614545 294.73322 
L 158.452364 294.697869 
L 158.452364 294.697869 
L 158.452364 294.839273 
L 159.290182 294.909976 
L 159.290182 295.086731 
L 160.128 295.086731 
L 160.128 295.086731 
L 160.965818 295.122082 
L 160.965818 295.086731 
L 163.060364 295.05138 
L 163.060364 294.874625 
L 163.479273 294.803922 
L 163.479273 294.556465 
L 163.898182 294.41506 
L 163.898182 294.273656 
L 164.317091 294.132251 
L 164.317091 293.955496 
L 164.736 293.990847 
L 164.736 293.708038 
L 165.154909 294.344358 
L 165.573818 293.672687 
L 165.992727 293.814091 
L 165.992727 294.0969 
L 166.411636 294.41506 
L 166.411636 294.73322 
L 166.830545 294.945327 
L 166.830545 295.298838 
L 167.249455 295.36954 
L 167.668364 295.122082 
L 167.668364 294.803922 
L 168.506182 293.601985 
L 168.506182 292.965665 
L 168.925091 292.046536 
L 168.925091 291.763728 
L 169.344 291.51627 
L 169.762909 291.657674 
L 169.762909 291.905132 
L 170.181818 292.435398 
L 170.181818 292.788909 
L 170.600727 293.001016 
L 170.600727 293.672687 
L 171.019636 293.743389 
L 171.019636 294.73322 
L 171.857455 295.263487 
L 171.857455 295.192784 
L 171.857455 294.803922 
L 172.276364 294.238305 
L 172.276364 293.955496 
L 172.695273 292.647505 
L 173.114182 291.940483 
L 173.114182 290.632492 
L 173.533091 290.420386 
L 173.533091 290.172928 
L 173.952 290.56179 
L 173.952 291.127408 
L 174.370909 291.622323 
L 174.370909 292.223292 
L 174.789818 293.001016 
L 175.208727 293.319176 
L 175.208727 293.637336 
L 175.627636 294.273656 
L 176.046545 294.591816 
L 176.046545 295.016029 
L 176.465455 294.980678 
L 176.465455 294.73322 
L 176.884364 294.026198 
L 176.884364 293.495932 
L 176.884364 293.566634 
L 177.303273 291.728376 
L 177.722182 291.268812 
L 178.141091 291.657674 
L 178.141091 291.799079 
L 178.56 291.83443 
L 178.56 292.47075 
L 178.978909 292.965665 
L 179.397818 293.708038 
L 179.397818 294.591816 
L 179.816727 294.945327 
L 179.816727 294.909976 
L 180.235636 294.768571 
L 180.235636 294.309007 
L 180.654545 294.026198 
L 180.654545 293.77874 
L 181.073455 293.814091 
L 181.911273 293.46058 
L 181.911273 293.814091 
L 182.330182 293.743389 
L 183.168 294.309007 
L 183.168 294.839273 
L 183.586909 295.016029 
L 183.586909 295.157433 
L 184.424727 295.192784 
L 184.424727 295.086731 
L 185.262545 295.05138 
L 185.262545 295.016029 
L 185.262545 294.945327 
L 186.100364 294.556465 
L 186.100364 294.556465 
L 186.519273 294.238305 
L 186.938182 294.061549 
L 186.938182 293.637336 
L 187.357091 293.354527 
L 187.357091 293.177772 
L 187.776 292.400047 
L 187.776 291.905132 
L 188.194909 292.117239 
L 188.194909 292.011185 
L 188.613818 292.541452 
L 188.613818 292.965665 
L 189.032727 293.77874 
L 189.032727 294.41506 
L 189.451636 295.016029 
L 189.870545 295.157433 
L 189.870545 293.990847 
L 190.289455 292.859612 
L 190.289455 291.410216 
L 191.127273 291.092057 
L 191.127273 287.733702 
L 191.546182 286.637818 
L 191.546182 285.966147 
L 191.965091 285.43588 
L 192.384 286.602467 
L 192.384 287.132733 
L 192.802909 288.511426 
L 192.802909 291.83443 
L 193.221818 291.304163 
L 193.640727 292.930314 
L 193.221818 294.202954 
L 193.640727 294.945327 
L 194.059636 295.122082 
L 194.478545 294.132251 
L 194.478545 291.869781 
L 194.897455 289.112395 
L 194.897455 286.0722 
L 195.316364 282.643143 
L 196.154182 281.016992 
L 196.154182 286.531764 
L 196.573091 290.950652 
L 196.992 291.374865 
L 196.992 294.132251 
L 197.410909 294.450411 
L 197.829818 293.814091 
L 198.248727 291.728376 
L 198.248727 288.157915 
L 198.667636 285.400529 
L 199.086545 289.713364 
L 199.086545 283.17341 
L 199.505455 284.127889 
L 200.343273 285.259125 
L 200.343273 285.259125 
L 200.343273 286.567115 
L 200.762182 287.380191 
L 201.181091 289.501257 
L 201.181091 290.844599 
L 201.6 292.576803 
L 201.6 293.495932 
L 202.018909 293.920145 
L 202.437818 293.319176 
L 202.437818 293.672687 
L 202.856727 291.233461 
L 203.275636 290.491088 
L 203.275636 289.465906 
L 203.694545 289.112395 
L 203.694545 288.511426 
L 204.113455 288.794235 
L 204.113455 288.758884 
L 204.532364 289.324501 
L 204.951273 289.465906 
L 204.951273 290.491088 
L 205.370182 291.693025 
L 205.370182 292.965665 
L 205.789091 294.132251 
L 205.789091 294.73322 
L 206.208 294.73322 
L 206.626909 294.41506 
L 206.626909 293.920145 
L 207.045818 293.354527 
L 207.045818 292.859612 
L 207.464727 292.506101 
L 207.883636 291.799079 
L 207.883636 291.127408 
L 208.302545 290.137577 
L 208.302545 292.293994 
L 209.140364 283.102707 
L 209.559273 281.971472 
L 209.140364 280.734184 
L 209.978182 280.734184 
L 209.978182 280.769535 
L 210.397091 281.90077 
L 210.397091 282.572441 
L 210.816 285.400529 
L 211.234909 290.137577 
L 211.234909 291.83443 
L 211.653818 293.107069 
L 212.072727 290.526439 
L 212.072727 283.279463 
L 212.491636 272.815537 
L 212.491636 259.806331 
L 213.329455 242.943855 
L 213.748364 243.155962 
L 213.748364 239.974363 
L 214.167273 245.877997 
L 214.167273 253.796644 
L 214.586182 282.395685 
L 215.005091 286.955978 
L 215.005091 293.849443 
L 215.424 286.496413 
L 215.842909 277.057669 
L 215.842909 266.699796 
L 216.261818 259.629575 
L 216.261818 253.018919 
L 216.680727 249.660565 
L 216.680727 241.105598 
L 217.099636 232.126418 
L 217.518545 228.308499 
L 217.518545 195.431974 
L 217.937455 178.675551 
L 218.356364 185.781123 
L 218.356364 205.648442 
L 218.775273 246.125454 
L 218.775273 277.128371 
L 219.194182 291.693025 
L 219.613091 286.673169 
L 219.613091 269.987448 
L 220.450909 209.537063 
L 220.450909 176.024218 
L 220.869818 210.915756 
L 220.869818 125.472142 
L 221.288727 125.40144 
L 221.707636 113.311363 
L 222.126545 136.713793 
L 222.126545 167.363198 
L 222.545455 221.662492 
L 222.545455 268.043138 
L 222.964364 287.380191 
L 222.964364 257.968074 
L 223.383273 200.027617 
L 223.802182 166.302665 
L 224.221091 96.767047 
L 224.221091 68.910378 
L 224.64 70.89004 
L 224.64 63.643064 
L 225.058909 76.01595 
L 225.058909 74.213044 
L 225.477818 92.737021 
L 225.896727 103.024192 
L 225.896727 141.415489 
L 226.315636 174.822281 
L 226.734545 259.099309 
L 227.153455 282.289632 
L 227.572364 278.966628 
L 227.572364 234.141431 
L 227.991273 203.527376 
L 228.410182 161.035351 
L 228.410182 126.638729 
L 228.829091 83.333628 
L 229.248 65.976237 
L 229.248 97.085207 
L 229.666909 53.568 
L 229.666909 62.405776 
L 229.666909 94.575279 
L 230.085818 116.74042 
L 230.923636 185.427612 
L 230.923636 224.066367 
L 231.342545 257.331754 
L 231.342545 276.067838 
L 231.761455 274.406336 
L 232.180364 282.713845 
L 232.180364 230.394214 
L 232.599273 239.373394 
L 232.599273 174.574823 
L 233.018182 162.025182 
L 233.018182 129.89103 
L 233.437091 112.427585 
L 233.437091 84.464863 
L 233.856 77.571398 
L 233.856 67.920548 
L 234.693818 108.256155 
L 234.693818 147.707986 
L 235.112727 194.371441 
L 235.112727 213.425685 
L 235.531636 239.055234 
L 235.531636 260.442651 
L 235.950545 271.33079 
L 235.950545 275.290114 
L 236.369455 266.911903 
L 236.788364 248.317223 
L 236.788364 186.417443 
L 237.207273 151.596607 
L 237.626182 209.360308 
L 238.045091 115.361727 
L 238.045091 140.213552 
L 238.464 127.66391 
L 238.464 158.666827 
L 238.882909 187.407273 
L 238.882909 223.783558 
L 239.301818 251.498822 
L 239.301818 270.128853 
L 239.720727 274.865901 
L 240.139636 268.149191 
L 240.139636 261.467833 
L 240.558545 233.1516 
L 240.558545 211.02181 
L 240.977455 191.47265 
L 241.396364 174.327366 
L 241.815273 170.6155 
L 241.815273 183.907514 
L 242.234182 198.896382 
L 242.653091 209.855223 
L 242.653091 261.04362 
L 243.072 244.287197 
L 243.490909 271.931759 
L 243.490909 279.284788 
L 243.909818 278.825224 
L 243.909818 274.759847 
L 244.747636 253.478484 
L 244.747636 242.837802 
L 245.166545 235.41407 
L 245.166545 266.063476 
L 245.585455 228.909468 
L 245.585455 237.676541 
L 246.004364 244.817464 
L 246.423273 256.129816 
L 246.842182 264.048463 
L 246.842182 272.391323 
L 247.261091 277.587935 
L 247.261091 284.516752 
L 247.68 291.19811 
L 248.098909 283.986485 
L 248.098909 287.415542 
L 248.517818 276.880913 
L 248.517818 278.860575 
L 248.936727 269.846044 
L 249.355636 271.931759 
L 249.355636 273.310452 
L 249.774545 278.895926 
L 249.774545 283.951134 
L 250.193455 288.193266 
L 250.193455 292.046536 
L 251.031273 293.990847 
L 251.031273 292.647505 
L 251.450182 293.213123 
L 251.450182 292.965665 
L 251.450182 293.213123 
L 251.869091 293.495932 
L 252.288 293.389878 
L 252.288 292.965665 
L 253.125818 290.703194 
L 253.125818 289.571959 
L 253.544727 292.647505 
L 253.544727 289.960821 
L 253.963636 292.47075 
L 253.963636 291.728376 
L 254.382545 293.001016 
L 254.382545 292.753558 
L 254.801455 293.177772 
L 254.801455 293.425229 
L 255.220364 293.425229 
L 255.639273 293.177772 
L 255.639273 292.612154 
L 256.058182 292.47075 
L 256.058182 292.682856 
L 256.477091 294.803922 
L 256.896 293.177772 
L 256.896 293.77874 
L 257.314909 293.708038 
L 257.733818 294.026198 
L 257.733818 294.202954 
L 258.152727 294.485762 
L 258.571636 294.591816 
L 258.571636 294.768571 
L 258.990545 294.73322 
L 258.990545 294.73322 
L 258.990545 293.425229 
L 259.409455 293.213123 
L 259.409455 290.314332 
L 259.828364 290.491088 
L 260.247273 287.238786 
L 260.247273 287.238786 
L 260.666182 284.552103 
L 261.085091 284.552103 
L 261.085091 285.011667 
L 261.504 285.365178 
L 261.504 286.355009 
L 261.922909 287.450893 
L 261.922909 289.183097 
L 262.341818 292.753558 
L 262.760727 293.213123 
L 262.760727 295.05138 
L 263.179636 294.167602 
L 263.179636 291.056705 
L 263.598545 289.642661 
L 264.017455 287.02668 
L 264.017455 291.586972 
L 264.017455 283.562272 
L 264.436364 287.34484 
L 264.855273 281.653312 
L 264.855273 286.0722 
L 264.855273 282.996654 
L 265.274182 286.531764 
L 265.693091 285.75404 
L 265.693091 288.087213 
L 266.112 289.465906 
L 266.112 293.354527 
L 266.530909 293.990847 
L 266.949818 292.930314 
L 266.949818 290.915301 
L 266.949818 291.268812 
L 267.368727 286.955978 
L 267.368727 287.062031 
L 267.787636 285.789391 
L 268.206545 285.471231 
L 268.206545 285.789391 
L 268.206545 285.506582 
L 268.625455 285.683338 
L 268.625455 285.895445 
L 269.044364 286.779222 
L 269.044364 287.733702 
L 269.463273 291.622323 
L 269.463273 291.410216 
L 269.882182 293.46058 
L 270.301091 293.814091 
L 270.301091 294.061549 
L 270.301091 293.389878 
L 270.72 292.894963 
L 270.72 292.15259 
L 271.138909 291.905132 
L 271.557818 291.162759 
L 271.557818 291.19811 
L 271.976727 291.056705 
L 272.395636 292.647505 
L 272.395636 291.056705 
L 272.814545 291.586972 
L 272.814545 291.339514 
L 272.814545 291.586972 
L 273.652364 292.117239 
L 273.652364 292.400047 
L 274.071273 292.612154 
L 274.071273 292.965665 
L 274.490182 293.708038 
L 274.490182 292.965665 
L 274.909091 293.495932 
L 275.328 293.248474 
L 275.328 293.495932 
L 275.328 293.389878 
L 275.746909 293.071718 
L 275.746909 293.248474 
L 276.584727 293.213123 
L 276.584727 293.920145 
L 276.584727 293.107069 
L 276.584727 293.177772 
L 277.422545 293.319176 
L 277.003636 293.071718 
L 277.422545 293.283825 
L 277.841455 293.814091 
L 277.841455 293.425229 
L 278.260364 293.849443 
L 278.260364 293.637336 
L 278.260364 294.379709 
L 278.679273 294.627167 
L 278.679273 294.874625 
L 279.098182 294.945327 
L 279.098182 294.697869 
L 279.098182 294.803922 
L 279.936 294.238305 
L 279.936 294.273656 
L 279.936 294.132251 
L 280.773818 294.238305 
L 280.773818 294.803922 
L 281.192727 295.05138 
L 281.192727 295.122082 
L 282.449455 295.122082 
L 282.449455 295.086731 
L 282.868364 295.086731 
L 282.868364 294.980678 
L 282.868364 294.627167 
L 283.287273 294.697869 
L 283.287273 293.955496 
L 283.706182 293.743389 
L 283.706182 293.177772 
L 284.125091 293.107069 
L 284.544 292.894963 
L 284.544 293.107069 
L 284.962909 293.071718 
L 284.962909 293.389878 
L 285.381818 293.389878 
L 285.381818 293.920145 
L 285.800727 294.202954 
L 285.800727 294.73322 
L 286.219636 295.263487 
L 286.638545 294.839273 
L 286.638545 292.824261 
L 287.057455 291.799079 
L 287.057455 290.87995 
L 287.895273 290.56179 
L 287.476364 290.526439 
L 287.895273 290.632492 
L 288.314182 292.894963 
L 288.314182 291.622323 
L 288.733091 293.036367 
L 288.733091 294.061549 
L 289.152 294.909976 
L 289.152 294.874625 
L 289.570909 294.0969 
L 289.989818 293.071718 
L 290.408727 292.364696 
L 290.408727 291.622323 
L 290.827636 292.541452 
L 290.827636 291.445568 
L 291.246545 292.046536 
L 291.246545 291.092057 
L 291.665455 291.445568 
L 292.084364 291.445568 
L 292.084364 291.940483 
L 292.503273 292.15259 
L 292.503273 292.824261 
L 292.922182 293.566634 
L 292.922182 294.521113 
L 293.341091 294.768571 
L 293.76 294.803922 
L 293.76 294.41506 
L 294.178909 294.238305 
L 294.597818 293.495932 
L 294.597818 293.389878 
L 295.435636 293.354527 
L 295.435636 293.77874 
L 295.854545 293.743389 
L 295.854545 293.990847 
L 296.273455 294.485762 
L 296.273455 294.697869 
L 296.692364 294.980678 
L 296.692364 295.122082 
L 297.530182 295.122082 
L 297.530182 294.980678 
L 298.368 294.839273 
L 299.205818 294.874625 
L 299.205818 294.839273 
L 300.043636 294.73322 
L 300.043636 294.803922 
L 300.462545 294.73322 
L 300.881455 295.157433 
L 300.881455 295.263487 
L 301.719273 295.334189 
L 301.719273 295.228136 
L 302.557091 295.334189 
L 302.557091 295.298838 
L 303.394909 295.122082 
L 304.232727 294.874625 
L 304.232727 294.662518 
L 304.651636 294.556465 
L 304.651636 294.344358 
L 305.070545 294.591816 
L 305.070545 294.450411 
L 305.908364 294.379709 
L 305.908364 294.41506 
L 306.327273 294.627167 
L 306.327273 294.768571 
L 306.746182 294.909976 
L 306.746182 295.122082 
L 307.165091 295.404891 
L 308.002909 295.157433 
L 308.421818 294.768571 
L 308.421818 294.132251 
L 308.840727 293.672687 
L 309.259636 293.531283 
L 309.259636 293.319176 
L 309.678545 293.354527 
L 309.678545 293.672687 
L 310.097455 293.920145 
L 310.097455 294.485762 
L 310.516364 294.945327 
L 311.354182 295.228136 
L 311.773091 295.05138 
L 311.773091 294.768571 
L 312.610909 293.884794 
L 312.610909 293.601985 
L 313.029818 293.708038 
L 313.448727 293.884794 
L 313.448727 294.344358 
L 313.448727 294.344358 
L 313.867636 294.627167 
L 314.705455 294.768571 
L 314.705455 295.016029 
L 315.543273 295.228136 
L 315.124364 295.192784 
L 315.962182 295.05138 
L 315.962182 294.909976 
L 316.381091 294.662518 
L 316.381091 294.41506 
L 316.8 294.627167 
L 317.218909 294.309007 
L 317.218909 294.41506 
L 317.637818 294.309007 
L 317.637818 294.41506 
L 318.056727 294.450411 
L 318.056727 294.591816 
L 318.475636 294.697869 
L 318.475636 294.874625 
L 319.313455 295.263487 
L 320.570182 294.945327 
L 320.570182 294.909976 
L 321.826909 294.945327 
L 321.826909 294.980678 
L 324.340364 295.404891 
L 324.340364 295.404891 
L 325.178182 295.298838 
L 326.016 295.192784 
L 326.016 295.157433 
L 326.434909 295.228136 
L 326.434909 295.122082 
L 327.272727 295.05138 
L 327.272727 295.228136 
L 328.110545 295.05138 
L 328.110545 295.086731 
L 328.529455 295.086731 
L 328.529455 295.228136 
L 329.786182 295.263487 
L 330.205091 295.016029 
L 330.205091 294.839273 
L 331.042909 294.909976 
L 331.042909 294.73322 
L 332.299636 294.839273 
L 332.299636 295.05138 
L 332.718545 295.122082 
L 333.137455 295.334189 
L 333.556364 295.36954 
L 333.556364 295.228136 
L 334.394182 294.945327 
L 334.394182 294.73322 
L 335.232 294.309007 
L 335.650909 294.41506 
L 335.650909 294.627167 
L 336.488727 295.157433 
L 337.326545 295.334189 
L 338.164364 295.157433 
L 338.164364 295.122082 
L 339.002182 294.73322 
L 339.002182 294.556465 
L 339.84 294.202954 
L 339.84 294.344358 
L 340.258909 294.344358 
L 340.677818 294.556465 
L 340.677818 294.697869 
L 341.096727 294.909976 
L 341.096727 295.05138 
L 341.934545 295.263487 
L 342.353455 295.086731 
L 342.353455 295.228136 
L 343.191273 295.086731 
L 343.191273 294.909976 
L 343.191273 294.945327 
L 344.029091 294.839273 
L 344.029091 295.016029 
L 346.542545 295.36954 
L 349.474909 295.192784 
L 351.150545 295.36954 
L 351.150545 295.334189 
L 351.569455 295.157433 
L 351.988364 295.192784 
L 351.988364 295.086731 
L 353.664 294.697869 
L 353.664 295.016029 
L 354.082909 294.909976 
L 354.082909 295.086731 
L 354.920727 295.404891 
L 354.920727 295.334189 
L 355.339636 295.228136 
L 355.339636 295.05138 
L 356.596364 294.627167 
L 357.015273 294.697869 
L 357.015273 295.086731 
L 357.434182 295.263487 
L 358.690909 295.228136 
L 358.690909 295.192784 
L 359.109818 295.05138 
L 359.528727 294.909976 
L 360.366545 294.909976 
L 360.366545 294.768571 
L 360.366545 294.909976 
L 362.042182 295.36954 
L 362.042182 295.36954 
L 362.042182 295.334189 
L 362.88 295.263487 
L 363.717818 295.016029 
L 364.974545 295.122082 
L 364.974545 295.192784 
L 365.393455 295.192784 
L 366.231273 295.36954 
L 368.744727 295.263487 
L 368.744727 295.334189 
L 369.163636 295.157433 
L 369.163636 295.334189 
L 370.420364 295.334189 
L 370.420364 295.334189 
L 371.258182 295.404891 
L 371.258182 295.404891 
L 371.677091 295.298838 
L 372.514909 295.334189 
L 374.190545 295.086731 
L 374.609455 295.298838 
L 374.609455 295.334189 
L 376.285091 295.404891 
L 376.704 295.263487 
L 377.122909 295.016029 
L 377.122909 294.839273 
L 377.541818 294.73322 
L 378.379636 294.839273 
L 378.379636 295.086731 
L 379.217455 295.228136 
L 380.055273 295.334189 
L 380.055273 295.192784 
L 381.730909 294.945327 
L 381.730909 294.945327 
L 382.987636 295.228136 
L 383.825455 295.263487 
L 384.244364 295.36954 
L 384.244364 295.36954 
L 387.176727 295.157433 
L 387.176727 295.228136 
L 388.433455 295.334189 
L 388.433455 295.36954 
L 388.433455 295.263487 
L 388.852364 295.36954 
L 388.852364 295.334189 
L 394.717091 295.228136 
L 394.717091 295.192784 
L 395.136 295.157433 
L 395.554909 295.334189 
L 395.554909 295.404891 
L 396.811636 295.298838 
L 397.230545 295.263487 
L 397.230545 295.122082 
L 398.487273 294.980678 
L 398.487273 295.157433 
L 398.487273 295.157433 
" style="fill:none;stroke:#1f77b4;stroke-linecap:square;stroke-width:1.5;"/>
   </g>
   <g id="line2d_12">
    <path clip-path="url(#p0b307523cf)" d="M 73.832727 295.146603 
L 77.891315 295.450486 
L 80.52128 295.483217 
L 84.449993 295.428787 
L 86.982551 295.329457 
L 89.320298 295.434163 
L 90.424234 295.140238 
L 91.625576 294.870269 
L 92.404824 294.929267 
L 93.573698 295.28799 
L 94.547759 295.485113 
L 95.327008 295.413493 
L 97.859566 294.961366 
L 98.963502 295.215577 
L 100.294719 295.474312 
L 101.52853 295.449285 
L 103.50912 295.416837 
L 107.145615 295.48693 
L 109.093737 295.36575 
L 110.814578 295.270671 
L 113.606887 295.36036 
L 114.678354 294.927243 
L 115.652415 294.618534 
L 116.301789 294.6415 
L 117.048569 294.904585 
L 118.50966 295.472691 
L 119.159034 295.441228 
L 119.938283 295.148884 
L 121.2695 294.629323 
L 121.918874 294.635978 
L 122.698123 294.88589 
L 124.289089 295.453487 
L 125.133276 295.471008 
L 127.76324 295.347079 
L 130.360736 295.487986 
L 132.958233 295.380066 
L 134.938823 295.208314 
L 136.205103 295.427754 
L 137.081758 295.470208 
L 137.731132 295.278712 
L 138.575318 294.76655 
L 139.614316 294.180696 
L 140.166284 294.124639 
L 140.718252 294.30723 
L 141.497501 294.846711 
L 142.406625 295.412842 
L 142.926124 295.48258 
L 143.445623 295.312468 
L 144.127466 294.817248 
L 145.198933 294.044136 
L 145.718432 293.937949 
L 146.237931 294.069366 
L 146.919774 294.512492 
L 148.186054 295.362851 
L 148.802959 295.487713 
L 149.51727 295.386541 
L 151.140705 295.075031 
L 152.082298 295.201972 
L 153.868076 295.475747 
L 156.238291 295.464602 
L 157.472102 295.271714 
L 158.835788 295.069994 
L 159.647505 295.204693 
L 161.011191 295.481182 
L 161.53069 295.318683 
L 162.082658 294.89188 
L 163.02425 293.796246 
L 163.706093 293.165922 
L 164.128186 293.03428 
L 164.51781 293.13848 
L 164.972372 293.519688 
L 165.751621 294.549105 
L 166.433464 295.312705 
L 166.855557 295.486978 
L 167.212713 295.395791 
L 167.602337 295.050298 
L 168.186774 294.17633 
L 169.258241 292.545575 
L 169.680334 292.284313 
L 170.03749 292.317856 
L 170.427114 292.611116 
L 170.979082 293.367586 
L 172.245361 295.195301 
L 172.699923 295.460239 
L 173.122016 295.460711 
L 173.641515 295.214084 
L 175.03767 294.427597 
L 175.589638 294.44829 
L 176.27148 294.73373 
L 177.700103 295.386686 
L 178.576758 295.485077 
L 180.719692 295.421012 
L 181.596347 295.154374 
L 182.862627 294.745306 
L 183.414595 294.819331 
L 184.128906 295.174498 
L 184.875686 295.48485 
L 185.265311 295.4085 
L 185.622466 295.102859 
L 186.044559 294.415512 
L 186.628996 292.965659 
L 187.765401 290.055065 
L 188.122556 289.660458 
L 188.382306 289.639212 
L 188.642055 289.856315 
L 188.966742 290.446746 
L 189.486242 291.95503 
L 190.52524 295.068403 
L 190.849927 295.459066 
L 191.077208 295.456814 
L 191.304489 295.210227 
L 191.629176 294.442072 
L 192.083738 292.674126 
L 193.577298 286.315284 
L 193.869516 285.951774 
L 194.064329 285.968119 
L 194.29161 286.248451 
L 194.616297 287.098446 
L 195.103327 289.125835 
L 196.337138 294.575327 
L 196.726762 295.347836 
L 196.986512 295.487911 
L 197.213793 295.375866 
L 197.506011 294.955405 
L 197.993041 293.791771 
L 198.934634 291.545609 
L 199.29179 291.181515 
L 199.584008 291.166839 
L 199.876226 291.395236 
L 200.298319 292.066148 
L 201.986692 295.14378 
L 202.473722 295.424666 
L 203.090628 295.487113 
L 204.941344 295.349841 
L 205.428374 294.98689 
L 206.045279 294.187682 
L 206.856997 293.162919 
L 207.214153 293.039165 
L 207.506371 293.178403 
L 207.863527 293.643245 
L 209.0324 295.48724 
L 209.227212 295.347501 
L 209.454493 294.827739 
L 209.746711 293.48126 
L 210.103867 290.669549 
L 210.590898 284.810105 
L 212.246801 262.662927 
L 212.474082 262.012624 
L 212.571488 262.05243 
L 212.733832 262.559839 
L 212.961113 264.196498 
L 213.318269 268.792042 
L 213.902705 279.940599 
L 214.649485 293.149421 
L 214.941704 295.342654 
L 215.03911 295.487599 
L 215.071578 295.46381 
L 215.201453 294.990771 
L 215.396265 293.092197 
L 215.688484 287.455019 
L 216.078108 274.887546 
L 216.695014 246.152592 
L 217.669075 200.950306 
L 218.058699 191.828557 
L 218.28598 190.349776 
L 218.350917 190.490106 
L 218.480792 191.532987 
L 218.708073 195.775499 
L 219.03276 206.797882 
L 219.552259 233.508383 
L 220.558789 286.508582 
L 220.883476 294.382322 
L 221.045819 295.486307 
L 221.078288 295.461428 
L 221.175694 294.881939 
L 221.338038 292.209365 
L 221.597787 283.508318 
L 221.987412 261.030978 
L 222.604317 209.424525 
L 223.513441 135.388202 
L 223.903065 118.850994 
L 224.130346 115.70563 
L 224.162815 115.674778 
L 224.195284 115.749737 
L 224.29269 116.609648 
L 224.487502 121.157132 
L 224.77972 134.66931 
L 225.234282 168.718989 
L 226.662905 286.664316 
L 226.955123 294.767013 
L 227.084998 295.476481 
L 227.117467 295.367661 
L 227.247341 293.785342 
L 227.442154 288.019927 
L 227.766841 269.98608 
L 228.253871 227.540435 
L 229.520151 110.010028 
L 229.877306 96.20872 
L 230.03965 94.47828 
L 230.072118 94.484963 
L 230.169525 95.210752 
L 230.331868 98.744117 
L 230.591618 110.145576 
L 230.981242 138.57248 
L 231.79296 219.865049 
L 232.442334 274.843404 
L 232.831958 292.182765 
L 233.059239 295.445131 
L 233.091708 295.487495 
L 233.124176 295.424677 
L 233.221583 294.611424 
L 233.416395 290.260509 
L 233.708613 277.53889 
L 234.163175 246.574491 
L 235.429454 155.504946 
L 235.754141 145.882336 
L 235.948953 144.318025 
L 236.013891 144.512767 
L 236.143766 145.962446 
L 236.371047 151.769435 
L 236.728202 168.320999 
L 237.312639 208.437492 
L 238.2867 274.686536 
L 238.708793 290.605864 
L 239.001011 295.151814 
L 239.098417 295.486002 
L 239.130886 295.470497 
L 239.228292 295.054483 
L 239.423104 292.651761 
L 239.715323 285.65039 
L 240.234822 266.61355 
L 241.143946 233.424345 
L 241.53357 226.215035 
L 241.760851 224.839607 
L 241.825788 224.839748 
L 241.858257 224.904579 
L 241.988132 225.587721 
L 242.215413 228.33605 
L 242.572569 236.096509 
L 243.189474 255.6562 
L 244.131066 284.420187 
L 244.585628 292.377811 
L 244.910315 295.02505 
L 245.137596 295.486411 
L 245.267471 295.300838 
L 245.462283 294.505111 
L 245.819439 291.856311 
L 247.053249 281.659702 
L 247.345468 280.861835 
L 247.54028 280.816425 
L 247.735092 281.139215 
L 248.02731 282.225848 
L 248.481872 284.940408 
L 249.78062 293.148995 
L 250.235182 294.639254 
L 250.624806 295.270316 
L 250.981962 295.472149 
L 251.436524 295.454595 
L 252.443054 295.36872 
L 253.806739 295.42521 
L 254.488582 295.110922 
L 255.332768 294.757405 
L 255.819799 294.81324 
L 256.404235 295.141041 
L 257.086078 295.483039 
L 257.410765 295.425162 
L 257.735452 295.123828 
L 258.125077 294.389412 
L 258.644576 292.824641 
L 260.008261 288.353591 
L 260.332948 287.994363 
L 260.560229 288.019549 
L 260.819979 288.334765 
L 261.177134 289.22719 
L 261.729102 291.339568 
L 262.638226 294.766166 
L 262.995382 295.401682 
L 263.222663 295.48305 
L 263.449944 295.298403 
L 263.742162 294.68454 
L 264.164255 293.173101 
L 265.722753 286.918322 
L 266.014971 286.626215 
L 266.209783 286.673672 
L 266.469533 287.03016 
L 266.826688 288.003329 
L 267.411125 290.392608 
L 268.385186 294.30709 
L 268.807279 295.220584 
L 269.131966 295.480849 
L 269.391716 295.426939 
L 269.716403 295.087882 
L 270.268371 294.087574 
L 271.112557 292.612375 
L 271.53465 292.296627 
L 271.859337 292.30841 
L 272.216493 292.555558 
L 272.735992 293.226544 
L 274.067209 295.054501 
L 274.619177 295.394385 
L 275.203613 295.487976 
L 279.489482 295.370648 
L 280.560949 295.428622 
L 281.599948 295.455137 
L 282.184384 295.224024 
L 282.80129 294.717767 
L 284.29485 293.364349 
L 284.716943 293.320767 
L 285.139036 293.515083 
L 285.658535 294.028845 
L 286.924815 295.400096 
L 287.314439 295.484577 
L 287.671595 295.335794 
L 288.093688 294.894631 
L 288.775531 293.787537 
L 289.619717 292.513229 
L 290.04181 292.224903 
L 290.398966 292.237327 
L 290.756121 292.481917 
L 291.243152 293.113857 
L 292.769181 295.306668 
L 293.191274 295.483719 
L 293.613367 295.410375 
L 294.132866 295.063028 
L 295.464083 294.06465 
L 295.951114 294.010505 
L 296.470613 294.182683 
L 297.314799 294.750188 
L 298.28886 295.319778 
L 299.003172 295.477664 
L 300.107107 295.449572 
L 301.763011 295.468391 
L 303.905946 295.457162 
L 306.438504 295.339759 
L 307.445034 294.924356 
L 308.451564 294.565613 
L 309.068469 294.579996 
L 309.750312 294.840449 
L 311.211403 295.482972 
L 311.730903 295.419375 
L 312.28287 295.118604 
L 314.230993 293.801655 
L 314.718023 293.874499 
L 315.269991 294.199926 
L 317.05577 295.455644 
L 317.607738 295.461559 
L 318.257112 295.220072 
L 319.685734 294.614146 
L 320.335108 294.633135 
L 321.146826 294.910939 
L 322.607918 295.427478 
L 323.581979 295.484527 
L 327.05613 295.487983 
L 330.757562 295.381769 
L 333.29012 295.030102 
L 334.329119 295.289225 
L 335.368117 295.487826 
L 336.04996 295.387592 
L 336.894146 295.011725 
L 338.063019 294.50938 
L 338.679925 294.489199 
L 339.361767 294.705798 
L 341.277421 295.483316 
L 341.959264 295.419613 
L 344.524291 294.909891 
L 345.628227 295.19922 
L 346.894506 295.465644 
L 348.160786 295.465507 
L 350.466063 295.468564 
L 354.135027 295.478647 
L 355.823399 295.31113 
L 357.284491 295.218954 
L 358.615707 295.405753 
L 359.719643 295.478882 
L 360.596298 295.305669 
L 362.54442 294.81724 
L 363.323669 294.931258 
L 365.693884 295.480629 
L 366.635477 295.303387 
L 368.096568 295.032278 
L 369.038161 295.119636 
L 371.538251 295.487939 
L 380.79183 295.328581 
L 382.220453 295.385817 
L 384.038701 295.463972 
L 385.240043 295.233871 
L 386.571259 295.019985 
L 387.512852 295.116087 
L 389.785661 295.481473 
L 390.922065 295.304875 
L 392.318219 295.130809 
L 393.454624 295.248802 
L 395.467683 295.487425 
L 398.487273 295.451098 
L 398.487273 295.451098 
" style="fill:none;stroke:#ff7f0e;stroke-linecap:square;stroke-width:1.5;"/>
   </g>
   <g id="patch_3">
    <path d="M 57.6 307.584 
L 57.6 41.472 
" style="fill:none;stroke:#000000;stroke-linecap:square;stroke-linejoin:miter;stroke-width:0.8;"/>
   </g>
   <g id="patch_4">
    <path d="M 414.72 307.584 
L 414.72 41.472 
" style="fill:none;stroke:#000000;stroke-linecap:square;stroke-linejoin:miter;stroke-width:0.8;"/>
   </g>
   <g id="patch_5">
    <path d="M 57.6 307.584 
L 414.72 307.584 
" style="fill:none;stroke:#000000;stroke-linecap:square;stroke-linejoin:miter;stroke-width:0.8;"/>
   </g>
   <g id="patch_6">
    <path d="M 57.6 41.472 
L 414.72 41.472 
" style="fill:none;stroke:#000000;stroke-linecap:square;stroke-linejoin:miter;stroke-width:0.8;"/>
   </g>
   <g id="legend_1">
    <g id="patch_7">
     <path d="M 296.980938 78.82825 
L 407.72 78.82825 
Q 409.72 78.82825 409.72 76.82825 
L 409.72 48.472 
Q 409.72 46.472 407.72 46.472 
L 296.980938 46.472 
Q 294.980938 46.472 294.980938 48.472 
L 294.980938 76.82825 
Q 294.980938 78.82825 296.980938 78.82825 
z
" style="fill:#ffffff;opacity:0.8;stroke:#cccccc;stroke-linejoin:miter;"/>
    </g>
    <g id="line2d_13">
     <path d="M 298.980938 54.570437 
L 318.980938 54.570437 
" style="fill:none;stroke:#1f77b4;stroke-linecap:square;stroke-width:1.5;"/>
    </g>
    <g id="line2d_14"/>
    <g id="text_11">
     <!-- .5and0.8SYM -->
     <g transform="translate(326.980938 58.070437)scale(0.1 -0.1)">
      <defs>
       <path d="M 10.796875 72.90625 
L 49.515625 72.90625 
L 49.515625 64.59375 
L 19.828125 64.59375 
L 19.828125 46.734375 
Q 21.96875 47.46875 24.109375 47.828125 
Q 26.265625 48.1875 28.421875 48.1875 
Q 40.625 48.1875 47.75 41.5 
Q 54.890625 34.8125 54.890625 23.390625 
Q 54.890625 11.625 47.5625 5.09375 
Q 40.234375 -1.421875 26.90625 -1.421875 
Q 22.3125 -1.421875 17.546875 -0.640625 
Q 12.796875 0.140625 7.71875 1.703125 
L 7.71875 11.625 
Q 12.109375 9.234375 16.796875 8.0625 
Q 21.484375 6.890625 26.703125 6.890625 
Q 35.15625 6.890625 40.078125 11.328125 
Q 45.015625 15.765625 45.015625 23.390625 
Q 45.015625 31 40.078125 35.4375 
Q 35.15625 39.890625 26.703125 39.890625 
Q 22.75 39.890625 18.8125 39.015625 
Q 14.890625 38.140625 10.796875 36.28125 
z
" id="DejaVuSans-53"/>
       <path d="M 34.28125 27.484375 
Q 23.390625 27.484375 19.1875 25 
Q 14.984375 22.515625 14.984375 16.5 
Q 14.984375 11.71875 18.140625 8.90625 
Q 21.296875 6.109375 26.703125 6.109375 
Q 34.1875 6.109375 38.703125 11.40625 
Q 43.21875 16.703125 43.21875 25.484375 
L 43.21875 27.484375 
z
M 52.203125 31.203125 
L 52.203125 0 
L 43.21875 0 
L 43.21875 8.296875 
Q 40.140625 3.328125 35.546875 0.953125 
Q 30.953125 -1.421875 24.3125 -1.421875 
Q 15.921875 -1.421875 10.953125 3.296875 
Q 6 8.015625 6 15.921875 
Q 6 25.140625 12.171875 29.828125 
Q 18.359375 34.515625 30.609375 34.515625 
L 43.21875 34.515625 
L 43.21875 35.40625 
Q 43.21875 41.609375 39.140625 45 
Q 35.0625 48.390625 27.6875 48.390625 
Q 23 48.390625 18.546875 47.265625 
Q 14.109375 46.140625 10.015625 43.890625 
L 10.015625 52.203125 
Q 14.9375 54.109375 19.578125 55.046875 
Q 24.21875 56 28.609375 56 
Q 40.484375 56 46.34375 49.84375 
Q 52.203125 43.703125 52.203125 31.203125 
z
" id="DejaVuSans-97"/>
       <path d="M 54.890625 33.015625 
L 54.890625 0 
L 45.90625 0 
L 45.90625 32.71875 
Q 45.90625 40.484375 42.875 44.328125 
Q 39.84375 48.1875 33.796875 48.1875 
Q 26.515625 48.1875 22.3125 43.546875 
Q 18.109375 38.921875 18.109375 30.90625 
L 18.109375 0 
L 9.078125 0 
L 9.078125 54.6875 
L 18.109375 54.6875 
L 18.109375 46.1875 
Q 21.34375 51.125 25.703125 53.5625 
Q 30.078125 56 35.796875 56 
Q 45.21875 56 50.046875 50.171875 
Q 54.890625 44.34375 54.890625 33.015625 
z
" id="DejaVuSans-110"/>
       <path d="M 45.40625 46.390625 
L 45.40625 75.984375 
L 54.390625 75.984375 
L 54.390625 0 
L 45.40625 0 
L 45.40625 8.203125 
Q 42.578125 3.328125 38.25 0.953125 
Q 33.9375 -1.421875 27.875 -1.421875 
Q 17.96875 -1.421875 11.734375 6.484375 
Q 5.515625 14.40625 5.515625 27.296875 
Q 5.515625 40.1875 11.734375 48.09375 
Q 17.96875 56 27.875 56 
Q 33.9375 56 38.25 53.625 
Q 42.578125 51.265625 45.40625 46.390625 
z
M 14.796875 27.296875 
Q 14.796875 17.390625 18.875 11.75 
Q 22.953125 6.109375 30.078125 6.109375 
Q 37.203125 6.109375 41.296875 11.75 
Q 45.40625 17.390625 45.40625 27.296875 
Q 45.40625 37.203125 41.296875 42.84375 
Q 37.203125 48.484375 30.078125 48.484375 
Q 22.953125 48.484375 18.875 42.84375 
Q 14.796875 37.203125 14.796875 27.296875 
z
" id="DejaVuSans-100"/>
       <path d="M 53.515625 70.515625 
L 53.515625 60.890625 
Q 47.90625 63.578125 42.921875 64.890625 
Q 37.9375 66.21875 33.296875 66.21875 
Q 25.25 66.21875 20.875 63.09375 
Q 16.5 59.96875 16.5 54.203125 
Q 16.5 49.359375 19.40625 46.890625 
Q 22.3125 44.4375 30.421875 42.921875 
L 36.375 41.703125 
Q 47.40625 39.59375 52.65625 34.296875 
Q 57.90625 29 57.90625 20.125 
Q 57.90625 9.515625 50.796875 4.046875 
Q 43.703125 -1.421875 29.984375 -1.421875 
Q 24.8125 -1.421875 18.96875 -0.25 
Q 13.140625 0.921875 6.890625 3.21875 
L 6.890625 13.375 
Q 12.890625 10.015625 18.65625 8.296875 
Q 24.421875 6.59375 29.984375 6.59375 
Q 38.421875 6.59375 43.015625 9.90625 
Q 47.609375 13.234375 47.609375 19.390625 
Q 47.609375 24.75 44.3125 27.78125 
Q 41.015625 30.8125 33.5 32.328125 
L 27.484375 33.5 
Q 16.453125 35.6875 11.515625 40.375 
Q 6.59375 45.0625 6.59375 53.421875 
Q 6.59375 63.09375 13.40625 68.65625 
Q 20.21875 74.21875 32.171875 74.21875 
Q 37.3125 74.21875 42.625 73.28125 
Q 47.953125 72.359375 53.515625 70.515625 
z
" id="DejaVuSans-83"/>
       <path d="M -0.203125 72.90625 
L 10.40625 72.90625 
L 30.609375 42.921875 
L 50.6875 72.90625 
L 61.28125 72.90625 
L 35.5 34.71875 
L 35.5 0 
L 25.59375 0 
L 25.59375 34.71875 
z
" id="DejaVuSans-89"/>
       <path d="M 9.8125 72.90625 
L 24.515625 72.90625 
L 43.109375 23.296875 
L 61.8125 72.90625 
L 76.515625 72.90625 
L 76.515625 0 
L 66.890625 0 
L 66.890625 64.015625 
L 48.09375 14.015625 
L 38.1875 14.015625 
L 19.390625 64.015625 
L 19.390625 0 
L 9.8125 0 
z
" id="DejaVuSans-77"/>
      </defs>
      <use xlink:href="#DejaVuSans-46"/>
      <use x="31.787109" xlink:href="#DejaVuSans-53"/>
      <use x="95.410156" xlink:href="#DejaVuSans-97"/>
      <use x="156.689453" xlink:href="#DejaVuSans-110"/>
      <use x="220.068359" xlink:href="#DejaVuSans-100"/>
      <use x="283.544922" xlink:href="#DejaVuSans-48"/>
      <use x="347.167969" xlink:href="#DejaVuSans-46"/>
      <use x="378.955078" xlink:href="#DejaVuSans-56"/>
      <use x="442.578125" xlink:href="#DejaVuSans-83"/>
      <use x="506.054688" xlink:href="#DejaVuSans-89"/>
      <use x="567.138672" xlink:href="#DejaVuSans-77"/>
     </g>
    </g>
    <g id="line2d_15">
     <path d="M 298.980938 69.248562 
L 318.980938 69.248562 
" style="fill:none;stroke:#ff7f0e;stroke-linecap:square;stroke-width:1.5;"/>
    </g>
    <g id="line2d_16"/>
    <g id="text_12">
     <!-- .5and0.8SYM fit -->
     <g transform="translate(326.980938 72.748562)scale(0.1 -0.1)">
      <defs>
       <path id="DejaVuSans-32"/>
       <path d="M 37.109375 75.984375 
L 37.109375 68.5 
L 28.515625 68.5 
Q 23.6875 68.5 21.796875 66.546875 
Q 19.921875 64.59375 19.921875 59.515625 
L 19.921875 54.6875 
L 34.71875 54.6875 
L 34.71875 47.703125 
L 19.921875 47.703125 
L 19.921875 0 
L 10.890625 0 
L 10.890625 47.703125 
L 2.296875 47.703125 
L 2.296875 54.6875 
L 10.890625 54.6875 
L 10.890625 58.5 
Q 10.890625 67.625 15.140625 71.796875 
Q 19.390625 75.984375 28.609375 75.984375 
z
" id="DejaVuSans-102"/>
       <path d="M 9.421875 54.6875 
L 18.40625 54.6875 
L 18.40625 0 
L 9.421875 0 
z
M 9.421875 75.984375 
L 18.40625 75.984375 
L 18.40625 64.59375 
L 9.421875 64.59375 
z
" id="DejaVuSans-105"/>
       <path d="M 18.3125 70.21875 
L 18.3125 54.6875 
L 36.8125 54.6875 
L 36.8125 47.703125 
L 18.3125 47.703125 
L 18.3125 18.015625 
Q 18.3125 11.328125 20.140625 9.421875 
Q 21.96875 7.515625 27.59375 7.515625 
L 36.8125 7.515625 
L 36.8125 0 
L 27.59375 0 
Q 17.1875 0 13.234375 3.875 
Q 9.28125 7.765625 9.28125 18.015625 
L 9.28125 47.703125 
L 2.6875 47.703125 
L 2.6875 54.6875 
L 9.28125 54.6875 
L 9.28125 70.21875 
z
" id="DejaVuSans-116"/>
      </defs>
      <use xlink:href="#DejaVuSans-46"/>
      <use x="31.787109" xlink:href="#DejaVuSans-53"/>
      <use x="95.410156" xlink:href="#DejaVuSans-97"/>
      <use x="156.689453" xlink:href="#DejaVuSans-110"/>
      <use x="220.068359" xlink:href="#DejaVuSans-100"/>
      <use x="283.544922" xlink:href="#DejaVuSans-48"/>
      <use x="347.167969" xlink:href="#DejaVuSans-46"/>
      <use x="378.955078" xlink:href="#DejaVuSans-56"/>
      <use x="442.578125" xlink:href="#DejaVuSans-83"/>
      <use x="506.054688" xlink:href="#DejaVuSans-89"/>
      <use x="567.138672" xlink:href="#DejaVuSans-77"/>
      <use x="653.417969" xlink:href="#DejaVuSans-32"/>
      <use x="685.205078" xlink:href="#DejaVuSans-102"/>
      <use x="720.410156" xlink:href="#DejaVuSans-105"/>
      <use x="748.193359" xlink:href="#DejaVuSans-116"/>
     </g>
    </g>
   </g>
  </g>
 </g>
 <defs>
  <clipPath id="p0b307523cf">
   <rect height="266.112" width="357.12" x="57.6" y="41.472"/>
  </clipPath>
 </defs>
</svg>
