<?xml version="1.0" encoding="utf-8" standalone="no"?>
<!DOCTYPE svg PUBLIC "-//W3C//DTD SVG 1.1//EN"
  "http://www.w3.org/Graphics/SVG/1.1/DTD/svg11.dtd">
<!-- Created with matplotlib (https://matplotlib.org/) -->
<svg height="345.6pt" version="1.1" viewBox="0 0 460.8 345.6" width="460.8pt" xmlns="http://www.w3.org/2000/svg" xmlns:xlink="http://www.w3.org/1999/xlink">
 <metadata>
  <rdf:RDF xmlns:cc="http://creativecommons.org/ns#" xmlns:dc="http://purl.org/dc/elements/1.1/" xmlns:rdf="http://www.w3.org/1999/02/22-rdf-syntax-ns#">
   <cc:Work>
    <dc:type rdf:resource="http://purl.org/dc/dcmitype/StillImage"/>
    <dc:date>2021-05-17T10:46:52.061285</dc:date>
    <dc:format>image/svg+xml</dc:format>
    <dc:creator>
     <cc:Agent>
      <dc:title>Matplotlib v3.3.4, https://matplotlib.org/</dc:title>
     </cc:Agent>
    </dc:creator>
   </cc:Work>
  </rdf:RDF>
 </metadata>
 <defs>
  <style type="text/css">*{stroke-linecap:butt;stroke-linejoin:round;}</style>
 </defs>
 <g id="figure_1">
  <g id="patch_1">
   <path d="M 0 345.6 
L 460.8 345.6 
L 460.8 0 
L 0 0 
z
" style="fill:#ffffff;"/>
  </g>
  <g id="axes_1">
   <g id="patch_2">
    <path d="M 57.6 307.584 
L 414.72 307.584 
L 414.72 41.472 
L 57.6 41.472 
z
" style="fill:#ffffff;"/>
   </g>
   <g id="matplotlib.axis_1">
    <g id="xtick_1">
     <g id="line2d_1">
      <defs>
       <path d="M 0 0 
L 0 3.5 
" id="m23c2721b1c" style="stroke:#000000;stroke-width:0.8;"/>
      </defs>
      <g>
       <use style="stroke:#000000;stroke-width:0.8;" x="106.170236" xlink:href="#m23c2721b1c" y="307.584"/>
      </g>
     </g>
     <g id="text_1">
      <!-- −0.4 -->
      <g transform="translate(94.02883 322.182437)scale(0.1 -0.1)">
       <defs>
        <path d="M 10.59375 35.5 
L 73.1875 35.5 
L 73.1875 27.203125 
L 10.59375 27.203125 
z
" id="DejaVuSans-8722"/>
        <path d="M 31.78125 66.40625 
Q 24.171875 66.40625 20.328125 58.90625 
Q 16.5 51.421875 16.5 36.375 
Q 16.5 21.390625 20.328125 13.890625 
Q 24.171875 6.390625 31.78125 6.390625 
Q 39.453125 6.390625 43.28125 13.890625 
Q 47.125 21.390625 47.125 36.375 
Q 47.125 51.421875 43.28125 58.90625 
Q 39.453125 66.40625 31.78125 66.40625 
z
M 31.78125 74.21875 
Q 44.046875 74.21875 50.515625 64.515625 
Q 56.984375 54.828125 56.984375 36.375 
Q 56.984375 17.96875 50.515625 8.265625 
Q 44.046875 -1.421875 31.78125 -1.421875 
Q 19.53125 -1.421875 13.0625 8.265625 
Q 6.59375 17.96875 6.59375 36.375 
Q 6.59375 54.828125 13.0625 64.515625 
Q 19.53125 74.21875 31.78125 74.21875 
z
" id="DejaVuSans-48"/>
        <path d="M 10.6875 12.40625 
L 21 12.40625 
L 21 0 
L 10.6875 0 
z
" id="DejaVuSans-46"/>
        <path d="M 37.796875 64.3125 
L 12.890625 25.390625 
L 37.796875 25.390625 
z
M 35.203125 72.90625 
L 47.609375 72.90625 
L 47.609375 25.390625 
L 58.015625 25.390625 
L 58.015625 17.1875 
L 47.609375 17.1875 
L 47.609375 0 
L 37.796875 0 
L 37.796875 17.1875 
L 4.890625 17.1875 
L 4.890625 26.703125 
z
" id="DejaVuSans-52"/>
       </defs>
       <use xlink:href="#DejaVuSans-8722"/>
       <use x="83.789062" xlink:href="#DejaVuSans-48"/>
       <use x="147.412109" xlink:href="#DejaVuSans-46"/>
       <use x="179.199219" xlink:href="#DejaVuSans-52"/>
      </g>
     </g>
    </g>
    <g id="xtick_2">
     <g id="line2d_2">
      <g>
       <use style="stroke:#000000;stroke-width:0.8;" x="171.1339" xlink:href="#m23c2721b1c" y="307.584"/>
      </g>
     </g>
     <g id="text_2">
      <!-- −0.2 -->
      <g transform="translate(158.992494 322.182437)scale(0.1 -0.1)">
       <defs>
        <path d="M 19.1875 8.296875 
L 53.609375 8.296875 
L 53.609375 0 
L 7.328125 0 
L 7.328125 8.296875 
Q 12.9375 14.109375 22.625 23.890625 
Q 32.328125 33.6875 34.8125 36.53125 
Q 39.546875 41.84375 41.421875 45.53125 
Q 43.3125 49.21875 43.3125 52.78125 
Q 43.3125 58.59375 39.234375 62.25 
Q 35.15625 65.921875 28.609375 65.921875 
Q 23.96875 65.921875 18.8125 64.3125 
Q 13.671875 62.703125 7.8125 59.421875 
L 7.8125 69.390625 
Q 13.765625 71.78125 18.9375 73 
Q 24.125 74.21875 28.421875 74.21875 
Q 39.75 74.21875 46.484375 68.546875 
Q 53.21875 62.890625 53.21875 53.421875 
Q 53.21875 48.921875 51.53125 44.890625 
Q 49.859375 40.875 45.40625 35.40625 
Q 44.1875 33.984375 37.640625 27.21875 
Q 31.109375 20.453125 19.1875 8.296875 
z
" id="DejaVuSans-50"/>
       </defs>
       <use xlink:href="#DejaVuSans-8722"/>
       <use x="83.789062" xlink:href="#DejaVuSans-48"/>
       <use x="147.412109" xlink:href="#DejaVuSans-46"/>
       <use x="179.199219" xlink:href="#DejaVuSans-50"/>
      </g>
     </g>
    </g>
    <g id="xtick_3">
     <g id="line2d_3">
      <g>
       <use style="stroke:#000000;stroke-width:0.8;" x="236.097565" xlink:href="#m23c2721b1c" y="307.584"/>
      </g>
     </g>
     <g id="text_3">
      <!-- 0.0 -->
      <g transform="translate(228.146002 322.182437)scale(0.1 -0.1)">
       <use xlink:href="#DejaVuSans-48"/>
       <use x="63.623047" xlink:href="#DejaVuSans-46"/>
       <use x="95.410156" xlink:href="#DejaVuSans-48"/>
      </g>
     </g>
    </g>
    <g id="xtick_4">
     <g id="line2d_4">
      <g>
       <use style="stroke:#000000;stroke-width:0.8;" x="301.061229" xlink:href="#m23c2721b1c" y="307.584"/>
      </g>
     </g>
     <g id="text_4">
      <!-- 0.2 -->
      <g transform="translate(293.109667 322.182437)scale(0.1 -0.1)">
       <use xlink:href="#DejaVuSans-48"/>
       <use x="63.623047" xlink:href="#DejaVuSans-46"/>
       <use x="95.410156" xlink:href="#DejaVuSans-50"/>
      </g>
     </g>
    </g>
    <g id="xtick_5">
     <g id="line2d_5">
      <g>
       <use style="stroke:#000000;stroke-width:0.8;" x="366.024894" xlink:href="#m23c2721b1c" y="307.584"/>
      </g>
     </g>
     <g id="text_5">
      <!-- 0.4 -->
      <g transform="translate(358.073331 322.182437)scale(0.1 -0.1)">
       <use xlink:href="#DejaVuSans-48"/>
       <use x="63.623047" xlink:href="#DejaVuSans-46"/>
       <use x="95.410156" xlink:href="#DejaVuSans-52"/>
      </g>
     </g>
    </g>
   </g>
   <g id="matplotlib.axis_2">
    <g id="ytick_1">
     <g id="line2d_6">
      <defs>
       <path d="M 0 0 
L -3.5 0 
" id="m5f42b4b8f5" style="stroke:#000000;stroke-width:0.8;"/>
      </defs>
      <g>
       <use style="stroke:#000000;stroke-width:0.8;" x="57.6" xlink:href="#m5f42b4b8f5" y="295.488"/>
      </g>
     </g>
     <g id="text_6">
      <!-- 0 -->
      <g transform="translate(44.2375 299.287219)scale(0.1 -0.1)">
       <use xlink:href="#DejaVuSans-48"/>
      </g>
     </g>
    </g>
    <g id="ytick_2">
     <g id="line2d_7">
      <g>
       <use style="stroke:#000000;stroke-width:0.8;" x="57.6" xlink:href="#m5f42b4b8f5" y="244.088581"/>
      </g>
     </g>
     <g id="text_7">
      <!-- 2 -->
      <g transform="translate(44.2375 247.8878)scale(0.1 -0.1)">
       <use xlink:href="#DejaVuSans-50"/>
      </g>
     </g>
    </g>
    <g id="ytick_3">
     <g id="line2d_8">
      <g>
       <use style="stroke:#000000;stroke-width:0.8;" x="57.6" xlink:href="#m5f42b4b8f5" y="192.689162"/>
      </g>
     </g>
     <g id="text_8">
      <!-- 4 -->
      <g transform="translate(44.2375 196.488381)scale(0.1 -0.1)">
       <use xlink:href="#DejaVuSans-52"/>
      </g>
     </g>
    </g>
    <g id="ytick_4">
     <g id="line2d_9">
      <g>
       <use style="stroke:#000000;stroke-width:0.8;" x="57.6" xlink:href="#m5f42b4b8f5" y="141.289743"/>
      </g>
     </g>
     <g id="text_9">
      <!-- 6 -->
      <g transform="translate(44.2375 145.088962)scale(0.1 -0.1)">
       <defs>
        <path d="M 33.015625 40.375 
Q 26.375 40.375 22.484375 35.828125 
Q 18.609375 31.296875 18.609375 23.390625 
Q 18.609375 15.53125 22.484375 10.953125 
Q 26.375 6.390625 33.015625 6.390625 
Q 39.65625 6.390625 43.53125 10.953125 
Q 47.40625 15.53125 47.40625 23.390625 
Q 47.40625 31.296875 43.53125 35.828125 
Q 39.65625 40.375 33.015625 40.375 
z
M 52.59375 71.296875 
L 52.59375 62.3125 
Q 48.875 64.0625 45.09375 64.984375 
Q 41.3125 65.921875 37.59375 65.921875 
Q 27.828125 65.921875 22.671875 59.328125 
Q 17.53125 52.734375 16.796875 39.40625 
Q 19.671875 43.65625 24.015625 45.921875 
Q 28.375 48.1875 33.59375 48.1875 
Q 44.578125 48.1875 50.953125 41.515625 
Q 57.328125 34.859375 57.328125 23.390625 
Q 57.328125 12.15625 50.6875 5.359375 
Q 44.046875 -1.421875 33.015625 -1.421875 
Q 20.359375 -1.421875 13.671875 8.265625 
Q 6.984375 17.96875 6.984375 36.375 
Q 6.984375 53.65625 15.1875 63.9375 
Q 23.390625 74.21875 37.203125 74.21875 
Q 40.921875 74.21875 44.703125 73.484375 
Q 48.484375 72.75 52.59375 71.296875 
z
" id="DejaVuSans-54"/>
       </defs>
       <use xlink:href="#DejaVuSans-54"/>
      </g>
     </g>
    </g>
    <g id="ytick_5">
     <g id="line2d_10">
      <g>
       <use style="stroke:#000000;stroke-width:0.8;" x="57.6" xlink:href="#m5f42b4b8f5" y="89.890324"/>
      </g>
     </g>
     <g id="text_10">
      <!-- 8 -->
      <g transform="translate(44.2375 93.689543)scale(0.1 -0.1)">
       <defs>
        <path d="M 31.78125 34.625 
Q 24.75 34.625 20.71875 30.859375 
Q 16.703125 27.09375 16.703125 20.515625 
Q 16.703125 13.921875 20.71875 10.15625 
Q 24.75 6.390625 31.78125 6.390625 
Q 38.8125 6.390625 42.859375 10.171875 
Q 46.921875 13.96875 46.921875 20.515625 
Q 46.921875 27.09375 42.890625 30.859375 
Q 38.875 34.625 31.78125 34.625 
z
M 21.921875 38.8125 
Q 15.578125 40.375 12.03125 44.71875 
Q 8.5 49.078125 8.5 55.328125 
Q 8.5 64.0625 14.71875 69.140625 
Q 20.953125 74.21875 31.78125 74.21875 
Q 42.671875 74.21875 48.875 69.140625 
Q 55.078125 64.0625 55.078125 55.328125 
Q 55.078125 49.078125 51.53125 44.71875 
Q 48 40.375 41.703125 38.8125 
Q 48.828125 37.15625 52.796875 32.3125 
Q 56.78125 27.484375 56.78125 20.515625 
Q 56.78125 9.90625 50.3125 4.234375 
Q 43.84375 -1.421875 31.78125 -1.421875 
Q 19.734375 -1.421875 13.25 4.234375 
Q 6.78125 9.90625 6.78125 20.515625 
Q 6.78125 27.484375 10.78125 32.3125 
Q 14.796875 37.15625 21.921875 38.8125 
z
M 18.3125 54.390625 
Q 18.3125 48.734375 21.84375 45.5625 
Q 25.390625 42.390625 31.78125 42.390625 
Q 38.140625 42.390625 41.71875 45.5625 
Q 45.3125 48.734375 45.3125 54.390625 
Q 45.3125 60.0625 41.71875 63.234375 
Q 38.140625 66.40625 31.78125 66.40625 
Q 25.390625 66.40625 21.84375 63.234375 
Q 18.3125 60.0625 18.3125 54.390625 
z
" id="DejaVuSans-56"/>
       </defs>
       <use xlink:href="#DejaVuSans-56"/>
      </g>
     </g>
    </g>
   </g>
   <g id="line2d_11">
    <path clip-path="url(#p9ba3709ab4)" d="M 73.832727 294.912916 
L 73.832727 294.846628 
L 74.670545 294.614619 
L 76.346182 295.111782 
L 76.765091 295.144926 
L 76.765091 295.012349 
L 77.184 295.045493 
L 77.602909 294.912916 
L 77.602909 294.979205 
L 78.021818 294.912916 
L 78.021818 295.012349 
L 78.859636 295.012349 
L 79.697455 295.211214 
L 81.373091 295.144926 
L 81.373091 295.211214 
L 81.792 295.144926 
L 81.792 295.244358 
L 82.210909 295.211214 
L 82.629818 295.310647 
L 82.629818 295.17807 
L 83.048727 295.277503 
L 83.467636 295.144926 
L 83.467636 295.211214 
L 84.724364 295.144926 
L 85.143273 295.277503 
L 85.981091 295.045493 
L 85.981091 295.211214 
L 86.818909 295.078637 
L 86.818909 295.144926 
L 87.237818 295.045493 
L 88.075636 295.045493 
L 88.494545 294.912916 
L 88.913455 295.078637 
L 88.913455 294.912916 
L 89.332364 295.012349 
L 89.332364 294.912916 
L 89.751273 294.979205 
L 90.589091 294.813484 
L 91.008 294.979205 
L 91.008 294.813484 
L 91.426909 294.846628 
L 91.845818 294.54833 
L 91.845818 294.515186 
L 93.102545 294.349465 
L 93.521455 294.415754 
L 93.521455 294.216888 
L 93.940364 294.515186 
L 93.940364 294.316321 
L 94.778182 294.316321 
L 94.778182 294.1506 
L 95.197091 293.918591 
L 95.197091 293.288851 
L 95.616 293.189418 
L 96.034909 293.288851 
L 96.453818 293.719725 
L 96.872727 293.52086 
L 97.291636 293.75287 
L 97.291636 293.454572 
L 97.710545 293.620293 
L 98.548364 292.559679 
L 98.967273 292.526534 
L 98.967273 292.294525 
L 99.386182 292.592823 
L 99.386182 292.924265 
L 99.805091 293.388283 
L 100.224 293.255707 
L 100.224 293.587149 
L 100.642909 293.421428 
L 101.061818 293.653437 
L 101.480727 293.421428 
L 101.480727 293.554004 
L 101.899636 293.023697 
L 101.899636 293.189418 
L 102.318545 292.692255 
L 102.737455 292.625967 
L 102.737455 292.393958 
L 103.156364 292.49339 
L 103.156364 292.393958 
L 103.994182 292.460246 
L 103.994182 292.625967 
L 104.413091 293.189418 
L 104.413091 293.52086 
L 105.250909 293.885446 
L 105.250909 293.487716 
L 105.669818 293.620293 
L 106.088727 293.388283 
L 106.088727 293.421428 
L 106.088727 292.990553 
L 106.507636 293.056842 
L 107.345455 292.327669 
L 107.764364 292.360813 
L 107.764364 292.327669 
L 108.183273 292.592823 
L 108.183273 293.089986 
L 108.602182 293.454572 
L 108.602182 293.786014 
L 109.021091 293.686581 
L 109.44 293.454572 
L 109.44 293.156274 
L 110.277818 292.526534 
L 110.277818 292.161948 
L 110.696727 292.128804 
L 110.696727 291.896795 
L 111.115636 292.393958 
L 111.534545 292.49339 
L 111.534545 292.990553 
L 112.372364 293.52086 
L 112.372364 293.653437 
L 112.791273 293.454572 
L 112.791273 293.255707 
L 113.210182 293.056842 
L 113.629091 292.659111 
L 113.629091 292.294525 
L 114.048 291.86365 
L 114.048 291.896795 
L 114.466909 291.896795 
L 114.885818 292.161948 
L 114.885818 292.393958 
L 115.304727 292.692255 
L 115.304727 293.023697 
L 115.723636 293.487716 
L 116.980364 293.75287 
L 116.980364 293.620293 
L 118.237091 292.526534 
L 118.656 292.360813 
L 118.656 292.393958 
L 119.074909 292.791688 
L 119.074909 293.222563 
L 119.493818 293.487716 
L 119.493818 293.75287 
L 120.331636 294.482042 
L 120.750545 294.482042 
L 120.750545 294.448898 
L 121.588364 294.1506 
L 121.588364 293.951735 
L 122.426182 293.819158 
L 122.426182 293.951735 
L 122.845091 294.051167 
L 122.845091 294.482042 
L 123.682909 294.813484 
L 123.682909 294.912916 
L 124.101818 295.078637 
L 124.939636 294.979205 
L 124.939636 294.912916 
L 126.615273 295.144926 
L 126.615273 295.17807 
L 130.385455 295.111782 
L 130.385455 295.111782 
L 130.385455 295.012349 
L 131.223273 294.946061 
L 131.223273 294.979205 
L 132.061091 294.946061 
L 133.317818 294.78034 
L 133.736727 294.879772 
L 133.736727 294.846628 
L 134.993455 294.680907 
L 134.993455 294.415754 
L 135.412364 294.283177 
L 135.831273 294.283177 
L 136.250182 293.984879 
L 136.669091 294.018023 
L 136.669091 293.852302 
L 137.088 293.984879 
L 137.925818 293.819158 
L 137.925818 293.75287 
L 139.182545 293.255707 
L 139.182545 293.023697 
L 139.601455 292.659111 
L 139.601455 292.128804 
L 140.439273 292.09566 
L 140.439273 292.228237 
L 140.858182 292.427102 
L 141.277091 292.49339 
L 141.277091 292.360813 
L 141.696 292.161948 
L 142.114909 292.161948 
L 142.533818 291.830506 
L 142.533818 291.035046 
L 143.371636 289.775566 
L 143.790545 289.278403 
L 143.790545 289.41098 
L 144.209455 289.477268 
L 144.209455 289.709278 
L 145.047273 290.902469 
L 145.047273 290.504738 
L 145.466182 290.571027 
L 145.466182 290.206441 
L 146.304 289.576701 
L 146.722909 288.946961 
L 146.722909 287.886347 
L 147.141818 286.991454 
L 147.141818 286.195993 
L 147.560727 286.162849 
L 147.979636 286.361714 
L 147.979636 286.991454 
L 148.398545 287.422328 
L 148.398545 287.588049 
L 148.817455 288.085212 
L 148.817455 288.516087 
L 149.236364 289.046394 
L 149.655273 289.178971 
L 150.074182 289.576701 
L 150.074182 289.278403 
L 150.493091 288.217789 
L 150.493091 286.7263 
L 151.330909 284.074765 
L 151.749818 283.710178 
L 151.749818 284.107909 
L 152.587636 284.704504 
L 152.587636 285.002802 
L 153.425455 286.494291 
L 153.425455 287.554905 
L 153.844364 288.549231 
L 153.844364 289.112682 
L 154.263273 288.946961 
L 154.263273 288.582375 
L 155.101091 287.057742 
L 155.101091 286.162849 
L 155.52 285.002802 
L 155.938909 284.240486 
L 155.938909 283.942188 
L 156.357818 283.445025 
L 156.357818 284.339918 
L 156.776727 285.69883 
L 156.776727 287.488617 
L 157.195636 288.648664 
L 157.195636 289.477268 
L 157.614545 289.709278 
L 158.033455 289.145826 
L 158.033455 287.886347 
L 158.871273 286.030272 
L 158.871273 285.135379 
L 159.290182 285.002802 
L 159.290182 285.499965 
L 159.709091 286.527435 
L 159.709091 288.118356 
L 160.128 289.609845 
L 160.128 290.504738 
L 160.965818 290.869325 
L 160.965818 290.372162 
L 161.384727 289.212115 
L 161.384727 288.482943 
L 162.222545 287.157175 
L 162.641455 287.588049 
L 162.641455 288.085212 
L 163.060364 288.78124 
L 163.060364 290.073864 
L 163.898182 292.327669 
L 164.317091 292.327669 
L 164.736 292.128804 
L 164.736 291.797362 
L 165.573818 291.598497 
L 165.992727 291.200767 
L 165.573818 291.06819 
L 166.411636 290.604171 
L 166.411636 290.637315 
L 166.830545 290.173297 
L 166.830545 290.272729 
L 167.249455 290.504738 
L 167.249455 291.001901 
L 168.087273 292.692255 
L 168.087273 293.321995 
L 168.506182 293.719725 
L 168.506182 293.719725 
L 169.762909 293.156274 
L 170.181818 292.791688 
L 170.181818 292.625967 
L 171.019636 292.924265 
L 171.438545 293.222563 
L 171.857455 293.75287 
L 171.857455 294.117456 
L 172.276364 294.415754 
L 172.276364 294.647763 
L 173.533091 294.54833 
L 173.952 294.382609 
L 173.952 294.448898 
L 174.370909 294.349465 
L 174.370909 294.482042 
L 174.789818 294.349465 
L 175.208727 294.54833 
L 175.627636 294.415754 
L 175.627636 294.448898 
L 176.046545 294.54833 
L 176.046545 294.482042 
L 177.303273 294.581475 
L 178.56 293.984879 
L 178.56 293.554004 
L 178.978909 293.288851 
L 179.816727 292.957409 
L 179.816727 292.824832 
L 180.235636 292.427102 
L 180.235636 292.526534 
L 180.654545 292.393958 
L 180.654545 292.393958 
L 181.073455 291.996227 
L 181.492364 291.929939 
L 181.911273 291.499064 
L 181.911273 291.035046 
L 182.330182 290.372162 
L 182.749091 290.604171 
L 182.749091 290.272729 
L 183.168 289.941287 
L 183.168 289.676134 
L 183.586909 289.477268 
L 184.424727 288.317222 
L 184.424727 287.422328 
L 184.843636 286.428002 
L 184.843636 285.599398 
L 185.262545 284.406207 
L 185.681455 283.64389 
L 185.681455 283.743323 
L 186.100364 284.04162 
L 186.100364 283.677034 
L 186.519273 283.677034 
L 186.938182 283.544457 
L 187.357091 283.975332 
L 187.357091 283.279304 
L 187.776 281.58895 
L 188.194909 278.440251 
L 188.194909 274.960111 
L 188.613818 272.374864 
L 189.032727 271.446826 
L 189.032727 272.673161 
L 189.451636 273.998929 
L 189.870545 273.501766 
L 189.870545 273.998929 
L 190.289455 274.661813 
L 190.708364 274.827534 
L 190.708364 273.568055 
L 191.546182 272.640017 
L 191.546182 269.358742 
L 191.965091 266.309476 
L 191.965091 261.470423 
L 192.384 257.824562 
L 192.802909 255.173026 
L 192.802909 254.443854 
L 193.221818 253.615249 
L 193.221818 254.344421 
L 193.640727 255.637045 
L 194.059636 258.156004 
L 194.478545 259.780069 
L 194.478545 261.669289 
L 194.897455 262.100163 
L 195.316364 261.20527 
L 195.316364 257.592553 
L 196.154182 248.610476 
L 196.154182 243.870856 
L 196.573091 238.435208 
L 196.573091 233.695588 
L 196.992 231.474927 
L 197.410909 232.436108 
L 197.829818 234.756202 
L 197.829818 241.318753 
L 198.667636 247.483573 
L 199.086545 247.019554 
L 199.086545 246.489247 
L 199.505455 243.904 
L 199.505455 240.523292 
L 199.924364 235.220221 
L 199.924364 231.010908 
L 200.762182 217.488076 
L 200.762182 210.130065 
L 201.181091 206.384771 
L 201.181091 204.031533 
L 202.018909 209.467181 
L 202.018909 225.442683 
L 202.437818 230.447457 
L 202.856727 234.093318 
L 202.856727 231.176629 
L 203.275636 228.525093 
L 203.694545 224.912376 
L 204.113455 223.719185 
L 204.113455 217.355499 
L 204.532364 209.997488 
L 204.532364 197.170684 
L 205.370182 176.720716 
L 205.370182 177.184735 
L 205.789091 184.708467 
L 205.789091 199.590211 
L 206.208 209.533469 
L 206.626909 216.294885 
L 207.045818 215.764578 
L 207.464727 210.892381 
L 207.464727 204.362975 
L 207.883636 192.795651 
L 207.883636 177.648753 
L 208.302545 160.579493 
L 208.721455 150.371081 
L 209.140364 147.354959 
L 209.140364 168.467811 
L 209.559273 187.492579 
L 209.978182 198.098722 
L 209.978182 204.56184 
L 210.816 196.474656 
L 211.653818 168.699821 
L 211.653818 131.744043 
L 212.491636 120.243007 
L 212.072727 131.843475 
L 213.329455 178.543647 
L 213.748364 189.282366 
L 214.167273 190.011538 
L 214.586182 182.288941 
L 214.586182 167.871216 
L 215.005091 144.040539 
L 215.424 128.761065 
L 215.424 112.487265 
L 215.842909 107.78079 
L 216.261818 99.229587 
L 216.261818 105.891571 
L 216.680727 110.531758 
L 217.099636 124.883194 
L 217.099636 134.760165 
L 217.518545 152.558598 
L 217.937455 163.960201 
L 217.937455 177.814474 
L 218.356364 183.084401 
L 218.356364 185.437639 
L 219.194182 166.147718 
L 219.613091 151.299118 
L 219.613091 141.12385 
L 220.032 122.861399 
L 220.450909 111.459795 
L 220.450909 96.147177 
L 220.869818 92.169874 
L 220.869818 88.988031 
L 221.288727 103.803486 
L 221.288727 121.303621 
L 221.707636 148.912736 
L 221.707636 164.291643 
L 222.126545 178.212205 
L 222.545455 177.847619 
L 222.964364 174.268045 
L 223.383273 157.132496 
L 223.383273 123.491138 
L 223.802182 110.332893 
L 224.221091 83.552383 
L 224.64 80.668838 
L 225.058909 100.820509 
L 225.058909 116.365136 
L 225.477818 138.140873 
L 225.477818 148.54815 
L 225.896727 166.744313 
L 226.315636 174.864641 
L 226.315636 177.549321 
L 227.153455 140.991273 
L 227.153455 115.470243 
L 227.991273 81.265433 
L 228.410182 82.790066 
L 228.410182 101.185095 
L 228.829091 115.171945 
L 229.248 141.289571 
L 229.248 157.828525 
L 229.666909 173.472585 
L 230.085818 178.609935 
L 230.085818 178.245349 
L 230.923636 141.190139 
L 230.923636 114.210764 
L 231.342545 101.615969 
L 231.761455 85.640467 
L 232.180364 87.827984 
L 232.599273 103.107458 
L 232.599273 111.724949 
L 233.437091 157.165641 
L 233.437091 179.372252 
L 233.856 182.852392 
L 234.274909 183.946151 
L 234.274909 169.793579 
L 234.693818 156.933631 
L 235.112727 134.693876 
L 235.112727 123.292273 
L 235.531636 107.15105 
L 235.531636 101.814834 
L 235.950545 91.805288 
L 236.369455 96.743773 
L 236.369455 95.550582 
L 236.788364 110.830056 
L 236.788364 123.789436 
L 237.626182 149.012169 
L 237.626182 160.314339 
L 238.045091 176.024688 
L 238.045091 190.177259 
L 238.882909 186.63083 
L 238.882909 187.26057 
L 239.301818 173.804027 
L 239.301818 161.142944 
L 239.720727 134.229858 
L 239.720727 122.331091 
L 240.139636 105.593273 
L 240.139636 106.554454 
L 240.558545 102.179421 
L 241.396364 124.319743 
L 241.815273 141.12385 
L 241.815273 148.846448 
L 242.234182 167.871216 
L 242.234182 179.703694 
L 242.653091 194.983168 
L 243.072 194.386572 
L 243.072 192.928227 
L 243.490909 175.660102 
L 243.490909 140.195813 
L 243.909818 132.307494 
L 244.328727 118.950383 
L 244.328727 123.259129 
L 244.747636 117.42575 
L 245.166545 126.540404 
L 244.747636 127.335865 
L 245.585455 143.046213 
L 245.585455 152.823751 
L 246.004364 174.06918 
L 246.004364 189.414943 
L 246.423273 206.351627 
L 246.423273 205.257868 
L 246.842182 198.827894 
L 246.842182 175.925255 
L 247.261091 161.441242 
L 247.261091 140.659831 
L 247.68 144.007395 
L 248.098909 143.974251 
L 248.098909 173.373152 
L 248.517818 189.878961 
L 248.936727 195.911205 
L 248.936727 208.075125 
L 249.355636 210.428363 
L 249.774545 219.973891 
L 250.193455 224.050627 
L 250.612364 214.67082 
L 250.612364 204.296686 
L 251.031273 183.581564 
L 251.031273 175.825823 
L 251.450182 166.346583 
L 251.450182 174.897785 
L 251.869091 178.179061 
L 252.288 189.646952 
L 252.288 193.591111 
L 252.706909 205.98704 
L 252.706909 226.105567 
L 253.125818 233.065848 
L 253.544727 242.213646 
L 253.544727 240.423859 
L 253.963636 236.115114 
L 254.382545 223.851762 
L 254.382545 218.382969 
L 254.801455 207.478529 
L 255.220364 203.600658 
L 255.639273 211.455833 
L 255.639273 217.388644 
L 256.058182 233.463578 
L 256.058182 244.898326 
L 256.477091 258.785744 
L 256.896 263.790517 
L 257.314909 257.426832 
L 257.314909 252.388914 
L 257.733818 244.500595 
L 258.152727 241.815916 
L 258.571636 244.732605 
L 258.571636 247.483573 
L 258.990545 253.084942 
L 258.990545 259.780069 
L 259.409455 268.132407 
L 259.828364 273.733776 
L 259.828364 279.401433 
L 260.247273 280.395759 
L 260.247273 279.633442 
L 260.666182 276.319023 
L 261.085091 275.622995 
L 261.085091 271.778268 
L 261.922909 269.623895 
L 261.922909 272.076566 
L 262.341818 274.197794 
L 262.760727 280.462047 
L 262.760727 285.466821 
L 263.179636 289.609845 
L 264.017455 289.974431 
L 264.017455 288.78124 
L 264.436364 287.886347 
L 264.855273 287.820059 
L 264.855273 286.825733 
L 265.274182 286.295426 
L 265.274182 285.765119 
L 265.693091 285.963984 
L 266.112 286.527435 
L 266.530909 288.118356 
L 266.530909 289.477268 
L 266.949818 291.300199 
L 266.949818 293.056842 
L 268.206545 293.75287 
L 268.625455 293.75287 
L 268.625455 293.355139 
L 269.463273 292.758544 
L 269.882182 292.758544 
L 269.882182 292.891121 
L 270.72 294.117456 
L 271.138909 294.283177 
L 271.557818 294.78034 
L 271.976727 294.879772 
L 274.071273 294.448898 
L 274.071273 294.283177 
L 274.490182 294.415754 
L 275.328 294.216888 
L 275.746909 294.216888 
L 275.746909 294.051167 
L 276.165818 294.051167 
L 277.003636 293.52086 
L 277.422545 293.454572 
L 277.422545 293.12313 
L 277.841455 293.255707 
L 278.679273 292.427102 
L 278.679273 292.460246 
L 279.098182 291.896795 
L 279.517091 291.598497 
L 279.936 291.035046 
L 280.354909 290.04072 
L 280.773818 290.239585 
L 280.773818 289.742422 
L 280.773818 290.073864 
L 281.611636 289.775566 
L 282.030545 289.974431 
L 282.030545 290.173297 
L 282.449455 290.107008 
L 282.868364 289.80871 
L 282.868364 288.847529 
L 283.287273 288.250933 
L 283.287273 287.389184 
L 283.706182 287.090886 
L 284.125091 285.665686 
L 284.544 285.798263 
L 284.544 284.505639 
L 284.962909 284.837081 
L 284.962909 284.737649 
L 285.381818 285.864551 
L 285.800727 285.731974 
L 285.800727 286.991454 
L 286.219636 287.090886 
L 286.638545 287.488617 
L 287.057455 287.256607 
L 287.057455 286.461147 
L 287.476364 286.560579 
L 287.476364 285.334244 
L 287.895273 285.566253 
L 288.733091 282.251834 
L 289.152 281.754671 
L 289.152 282.21869 
L 289.989818 284.538783 
L 290.408727 285.963984 
L 289.989818 287.820059 
L 290.827636 287.75377 
L 290.827636 287.124031 
L 291.246545 286.195993 
L 291.665455 286.030272 
L 291.665455 284.936514 
L 292.084364 284.803937 
L 292.503273 283.577602 
L 292.503273 282.61642 
L 293.341091 283.146727 
L 293.341091 282.881574 
L 293.341091 285.3011 
L 294.178909 289.145826 
L 294.597818 288.913817 
L 294.597818 287.322896 
L 295.435636 286.560579 
L 295.435636 284.737649 
L 296.273455 284.538783 
L 296.273455 285.267956 
L 296.692364 285.267956 
L 297.111273 286.162849 
L 297.530182 286.7263 
L 297.530182 287.853203 
L 297.949091 288.482943 
L 297.949091 289.609845 
L 298.368 289.676134 
L 298.368 290.206441 
L 298.786909 289.576701 
L 298.786909 289.311547 
L 299.624727 287.687482 
L 300.043636 286.991454 
L 300.043636 286.560579 
L 300.462545 285.533109 
L 300.462545 285.731974 
L 300.881455 285.897695 
L 300.881455 286.560579 
L 301.300364 287.190319 
L 301.300364 288.317222 
L 301.719273 288.648664 
L 302.138182 289.742422 
L 302.138182 289.742422 
L 302.138182 290.140152 
L 302.976 289.874999 
L 302.976 289.974431 
L 302.976 288.946961 
L 303.394909 288.184645 
L 303.813818 286.32857 
L 304.232727 286.063416 
L 304.232727 286.593723 
L 304.651636 287.256607 
L 305.070545 288.582375 
L 305.070545 289.01325 
L 305.489455 290.107008 
L 305.908364 290.107008 
L 305.908364 290.43845 
L 306.327273 290.007576 
L 306.327273 290.007576 
L 306.746182 289.178971 
L 306.746182 288.748096 
L 307.165091 287.588049 
L 307.584 287.588049 
L 308.002909 287.057742 
L 308.002909 287.720626 
L 308.002909 287.654338 
L 308.840727 289.178971 
L 308.840727 290.604171 
L 309.678545 292.261381 
L 309.678545 291.996227 
L 310.097455 291.664785 
L 310.516364 290.935613 
L 310.516364 290.736748 
L 310.935273 290.869325 
L 310.935273 290.372162 
L 311.354182 290.935613 
L 311.773091 290.703604 
L 311.773091 291.300199 
L 312.192 291.499064 
L 312.610909 292.294525 
L 312.610909 292.891121 
L 313.029818 293.554004 
L 313.867636 294.1506 
L 313.867636 294.117456 
L 314.705455 293.885446 
L 314.705455 293.786014 
L 315.124364 293.75287 
L 315.124364 293.554004 
L 315.543273 293.719725 
L 315.543273 293.587149 
L 315.962182 293.719725 
L 316.381091 293.620293 
L 316.381091 293.786014 
L 317.637818 294.581475 
L 317.637818 294.813484 
L 318.056727 294.912916 
L 318.056727 294.846628 
L 318.475636 294.879772 
L 318.475636 294.813484 
L 318.894545 294.714051 
L 318.894545 294.78034 
L 320.151273 294.846628 
L 320.151273 294.979205 
L 321.408 295.111782 
L 323.921455 294.846628 
L 323.921455 294.879772 
L 324.340364 294.747195 
L 324.340364 294.813484 
L 325.178182 294.680907 
L 325.178182 294.515186 
L 325.597091 294.448898 
L 325.597091 294.482042 
L 326.016 294.250033 
L 326.016 294.316321 
L 326.434909 294.1506 
L 326.853818 294.283177 
L 326.853818 294.117456 
L 327.272727 294.216888 
L 327.272727 294.1506 
L 328.110545 294.084312 
L 328.529455 293.984879 
L 328.529455 293.620293 
L 329.367273 293.388283 
L 329.367273 293.255707 
L 329.786182 293.089986 
L 329.786182 293.156274 
L 330.205091 293.288851 
L 331.461818 293.786014 
L 331.880727 293.620293 
L 331.880727 293.653437 
L 332.299636 293.52086 
L 332.718545 293.222563 
L 332.718545 293.056842 
L 333.137455 292.7254 
L 333.137455 292.791688 
L 333.975273 292.692255 
L 333.975273 292.891121 
L 334.394182 293.156274 
L 334.813091 293.288851 
L 334.813091 293.487716 
L 336.069818 293.156274 
L 336.069818 292.7254 
L 336.488727 292.559679 
L 336.488727 291.996227 
L 336.907636 291.69793 
L 337.745455 291.631641 
L 337.745455 291.69793 
L 338.164364 291.963083 
L 338.583273 292.062516 
L 338.583273 292.195092 
L 338.583273 292.161948 
L 339.002182 292.360813 
L 339.421091 292.228237 
L 339.421091 291.929939 
L 339.84 291.167622 
L 340.258909 290.637315 
L 340.258909 289.709278 
L 340.677818 289.742422 
L 340.677818 289.344692 
L 341.096727 289.642989 
L 341.515636 289.642989 
L 341.515636 289.908143 
L 341.934545 290.140152 
L 342.353455 290.935613 
L 342.353455 290.935613 
L 342.772364 291.432776 
L 343.191273 291.233911 
L 343.191273 291.06819 
L 344.029091 289.377836 
L 344.029091 289.543557 
L 344.448 289.377836 
L 344.866909 289.609845 
L 344.866909 289.444124 
L 345.285818 289.908143 
L 345.704727 289.874999 
L 345.704727 291.731074 
L 346.123636 292.393958 
L 346.542545 292.592823 
L 346.542545 292.957409 
L 347.380364 292.09566 
L 347.380364 291.764218 
L 347.799273 291.996227 
L 348.218182 291.499064 
L 348.637091 291.631641 
L 348.637091 291.333343 
L 348.637091 291.565353 
L 349.056 291.598497 
L 349.056 292.261381 
L 349.474909 292.559679 
L 349.474909 293.023697 
L 349.893818 293.089986 
L 349.893818 293.421428 
L 350.312727 293.388283 
L 350.312727 293.653437 
L 351.150545 293.52086 
L 351.150545 293.620293 
L 351.150545 293.388283 
L 351.988364 292.990553 
L 351.988364 292.990553 
L 351.988364 292.692255 
L 352.407273 292.625967 
L 352.407273 292.393958 
L 352.826182 292.526534 
L 352.826182 292.294525 
L 353.664 293.089986 
L 353.664 293.487716 
L 354.501818 293.686581 
L 354.501818 293.554004 
L 354.501818 293.554004 
L 354.920727 293.156274 
L 354.920727 292.791688 
L 356.177455 292.791688 
L 356.177455 293.189418 
L 356.596364 293.388283 
L 356.596364 294.084312 
L 357.434182 294.415754 
L 357.434182 294.216888 
L 358.690909 294.018023 
L 358.690909 294.1506 
L 359.109818 294.216888 
L 359.109818 294.349465 
L 359.528727 294.54833 
L 359.528727 294.747195 
L 359.947636 294.912916 
L 359.947636 295.045493 
L 360.785455 295.012349 
L 360.785455 295.012349 
L 362.042182 294.912916 
L 362.042182 294.946061 
L 362.461091 294.912916 
L 364.136727 295.211214 
L 368.325818 294.846628 
L 368.744727 294.979205 
L 369.163636 294.879772 
L 369.163636 294.879772 
L 369.582545 294.946061 
L 371.258182 294.647763 
L 371.677091 294.813484 
L 371.677091 294.78034 
L 372.514909 294.813484 
L 372.514909 294.813484 
L 375.447273 294.183744 
L 375.447273 294.415754 
L 375.866182 294.183744 
L 376.285091 294.316321 
L 376.285091 294.283177 
L 377.122909 293.852302 
L 377.541818 293.620293 
L 377.541818 293.321995 
L 377.960727 293.255707 
L 378.379636 292.990553 
L 378.379636 292.924265 
L 379.217455 293.056842 
L 380.055273 293.255707 
L 380.055273 293.222563 
L 380.474182 293.587149 
L 380.474182 293.421428 
L 380.893091 293.620293 
L 380.893091 293.454572 
L 381.730909 293.222563 
L 381.730909 293.056842 
L 382.149818 292.957409 
L 382.149818 292.824832 
L 382.987636 292.957409 
L 382.987636 293.719725 
L 383.406545 293.918591 
L 383.825455 293.852302 
L 384.244364 293.587149 
L 384.244364 293.355139 
L 384.663273 293.288851 
L 384.663273 293.056842 
L 385.082182 293.056842 
L 385.082182 292.758544 
L 385.501091 292.957409 
L 385.92 292.857976 
L 385.92 293.12313 
L 386.338909 293.222563 
L 386.338909 293.421428 
L 386.757818 293.421428 
L 387.176727 293.288851 
L 387.176727 293.089986 
L 387.595636 292.990553 
L 387.595636 292.791688 
L 388.433455 292.261381 
L 388.433455 292.029371 
L 388.433455 292.062516 
L 388.852364 292.062516 
L 389.271273 292.228237 
L 389.690182 292.195092 
L 389.690182 292.758544 
L 390.109091 293.321995 
L 390.946909 293.686581 
L 390.946909 293.52086 
L 391.365818 293.288851 
L 391.784727 293.12313 
L 392.622545 293.421428 
L 392.622545 293.587149 
L 393.041455 293.786014 
L 393.041455 294.1506 
L 393.460364 294.382609 
L 393.460364 294.382609 
L 394.298182 294.382609 
L 395.554909 293.852302 
L 395.973818 294.117456 
L 396.392727 293.984879 
L 396.392727 294.117456 
L 396.811636 294.051167 
L 396.811636 294.183744 
L 396.811636 294.1506 
L 397.230545 294.349465 
L 397.649455 294.448898 
L 398.487273 294.250033 
L 398.487273 294.250033 
" style="fill:none;stroke:#1f77b4;stroke-linecap:square;stroke-width:1.5;"/>
   </g>
   <g id="line2d_12">
    <path clip-path="url(#p9ba3709ab4)" d="M 73.832727 295.472478 
L 77.306878 295.399166 
L 78.345877 295.47516 
L 79.027719 295.2949 
L 81.00831 294.569063 
L 81.560278 294.746712 
L 83.216182 295.482105 
L 83.670744 295.310221 
L 84.190243 294.851562 
L 85.488991 293.581728 
L 85.878615 293.53296 
L 86.26824 293.719244 
L 86.787739 294.261655 
L 87.826738 295.401386 
L 88.183893 295.485042 
L 88.50858 295.344364 
L 88.898205 294.913628 
L 89.580047 293.73313 
L 90.26189 292.687519 
L 90.651515 292.449546 
L 90.943733 292.505081 
L 91.26842 292.798824 
L 91.75545 293.589555 
L 92.76198 295.294764 
L 93.119136 295.487082 
L 93.411354 295.390881 
L 93.736041 295.020537 
L 94.223072 294.065835 
L 95.26207 291.941534 
L 95.619226 291.683797 
L 95.878976 291.732649 
L 96.171194 292.021902 
L 96.593287 292.795873 
L 97.859566 295.348218 
L 98.184253 295.487152 
L 98.444003 295.363894 
L 98.76869 294.936247 
L 99.288189 293.803074 
L 100.197313 291.833456 
L 100.554469 291.525962 
L 100.814218 291.548274 
L 101.106436 291.818914 
L 101.52853 292.587549 
L 102.859746 295.339062 
L 103.184433 295.487914 
L 103.476652 295.35699 
L 103.833807 294.893643 
L 104.450713 293.626857 
L 105.165024 292.325562 
L 105.52218 292.060239 
L 105.814398 292.097568 
L 106.139085 292.398068 
L 106.593647 293.169225 
L 107.76252 295.273453 
L 108.119676 295.481834 
L 108.444363 295.417131 
L 108.833987 295.062166 
L 109.613236 293.918776 
L 110.197673 293.268211 
L 110.587297 293.142406 
L 110.944453 293.273922 
L 111.399015 293.724071 
L 112.860106 295.405025 
L 113.282199 295.484473 
L 113.736761 295.325228 
L 115.52254 294.406674 
L 116.042039 294.552911 
L 117.081038 295.167292 
L 117.827818 295.452217 
L 118.542129 295.47007 
L 120.717532 295.341342 
L 123.120216 295.487993 
L 125.555369 295.378657 
L 126.919054 295.324094 
L 128.834707 295.398146 
L 129.451613 295.076124 
L 131.01011 294.110889 
L 131.432204 294.176152 
L 131.919234 294.495351 
L 133.185513 295.481174 
L 133.542669 295.417089 
L 133.899825 295.096609 
L 134.354387 294.349595 
L 135.718072 291.873782 
L 136.01029 291.783837 
L 136.27004 291.91785 
L 136.594727 292.355271 
L 137.114226 293.501635 
L 137.925944 295.240492 
L 138.250631 295.485216 
L 138.477912 295.414313 
L 138.737661 295.071679 
L 139.094817 294.173833 
L 139.711722 291.863097 
L 140.426034 289.400717 
L 140.78319 288.842881 
L 141.010471 288.824917 
L 141.237751 289.08102 
L 141.562438 289.885657 
L 142.081938 291.919676 
L 142.893655 294.976876 
L 143.218342 295.464779 
L 143.413154 295.449541 
L 143.640435 295.122496 
L 143.932654 294.234689 
L 144.387215 292.036298 
L 145.458683 286.613386 
L 145.78337 286.006557 
L 145.978182 286.012705 
L 146.172994 286.302885 
L 146.465212 287.233437 
L 146.919774 289.572562 
L 147.893835 294.764827 
L 148.218522 295.445759 
L 148.413334 295.451605 
L 148.608147 295.14372 
L 148.900365 294.126425 
L 149.354927 291.51332 
L 150.426394 285.010936 
L 150.751081 284.280886 
L 150.913424 284.257876 
L 151.075768 284.468195 
L 151.335518 285.265901 
L 151.725142 287.34021 
L 153.02389 295.056681 
L 153.28364 295.475868 
L 153.445983 295.433317 
L 153.640795 295.074645 
L 153.933014 293.960302 
L 154.420044 290.99229 
L 155.329168 285.357511 
L 155.653855 284.450686 
L 155.848667 284.336611 
L 156.011011 284.496669 
L 156.238291 285.09445 
L 156.595447 286.786916 
L 158.153945 295.329604 
L 158.381226 295.484422 
L 158.543569 295.340588 
L 158.77085 294.805118 
L 159.128006 293.312646 
L 160.52416 286.689362 
L 160.78391 286.465624 
L 160.978722 286.614718 
L 161.238471 287.212586 
L 161.628096 288.804395 
L 163.02425 295.145173 
L 163.316468 295.480563 
L 163.511281 295.429803 
L 163.77103 295.050858 
L 164.160655 293.968047 
L 165.361997 290.31079 
L 165.654215 290.073445 
L 165.881496 290.149129 
L 166.141245 290.497019 
L 166.53087 291.434566 
L 167.927024 295.192276 
L 168.28418 295.474748 
L 168.576398 295.440997 
L 168.933554 295.149952 
L 170.329708 293.739088 
L 170.719332 293.773556 
L 171.173894 294.075153 
L 172.797329 295.402415 
L 173.414235 295.487964 
L 178.998851 295.341631 
L 179.420944 294.978235 
L 179.940443 294.201947 
L 181.141785 292.281603 
L 181.434004 292.196339 
L 181.693753 292.336783 
L 182.01844 292.794861 
L 182.570408 294.068223 
L 183.187314 295.338019 
L 183.447063 295.487279 
L 183.641875 295.359721 
L 183.869156 294.910671 
L 184.193843 293.678352 
L 184.648405 290.910189 
L 185.882216 282.750437 
L 186.141965 282.220769 
L 186.304309 282.253684 
L 186.499121 282.677918 
L 186.791339 284.067691 
L 187.245901 287.623569 
L 188.122556 294.681881 
L 188.382306 295.454217 
L 188.512181 295.452341 
L 188.674524 295.046518 
L 188.901805 293.693561 
L 189.226492 290.214014 
L 189.745991 281.724442 
L 190.687584 266.233944 
L 191.012271 263.97589 
L 191.142145 263.779744 
L 191.174614 263.797586 
L 191.304489 264.139217 
L 191.499301 265.453232 
L 191.823988 269.602639 
L 192.375956 280.398615 
L 193.057799 292.869038 
L 193.350017 295.273619 
L 193.479892 295.48286 
L 193.512361 295.445239 
L 193.642235 294.923816 
L 193.837048 293.013005 
L 194.129266 287.682719 
L 194.583828 274.603157 
L 195.720232 240.056446 
L 196.012451 236.90936 
L 196.109857 236.71235 
L 196.142326 236.745111 
L 196.2722 237.370712 
L 196.467013 239.770152 
L 196.7917 247.31931 
L 197.343667 266.909252 
L 198.057979 290.613783 
L 198.382666 295.221322 
L 198.480072 295.487926 
L 198.512541 295.453879 
L 198.609947 294.976023 
L 198.804759 292.315243 
L 199.096977 284.202258 
L 199.551539 263.583714 
L 200.687944 208.08312 
L 200.980162 202.800228 
L 201.077568 202.380501 
L 201.110037 202.39551 
L 201.207443 202.907712 
L 201.369786 205.305379 
L 201.629536 212.939917 
L 202.051629 233.329666 
L 203.155565 290.645555 
L 203.415315 295.215683 
L 203.480252 295.479275 
L 203.545189 295.374356 
L 203.675064 294.044269 
L 203.902345 288.143447 
L 204.227032 272.434359 
L 204.779 232.239055 
L 205.590718 175.615595 
L 205.915405 165.110228 
L 206.077748 163.737582 
L 206.110217 163.790361 
L 206.207623 164.607156 
L 206.402435 169.160936 
L 206.694653 182.7493 
L 207.181684 218.549336 
L 208.090808 285.514934 
L 208.383026 294.536679 
L 208.512901 295.487581 
L 208.545369 295.414711 
L 208.642776 294.441758 
L 208.837588 289.117234 
L 209.129806 273.158512 
L 209.584368 233.569098 
L 210.655835 136.38002 
L 210.948053 126.036114 
L 211.077928 124.98095 
L 211.110397 125.070508 
L 211.207803 126.18895 
L 211.402615 132.184948 
L 211.694833 149.838747 
L 212.181864 195.983154 
L 213.090988 282.063917 
L 213.415675 294.592099 
L 213.513081 295.475451 
L 213.545549 295.460094 
L 213.642956 294.477237 
L 213.805299 289.731845 
L 214.065049 274.436621 
L 214.487142 233.051685 
L 215.720952 100.579212 
L 216.013171 91.138152 
L 216.078108 90.866855 
L 216.110577 90.985966 
L 216.207983 92.361038 
L 216.402795 99.60497 
L 216.695014 120.789017 
L 217.182044 175.910933 
L 218.091168 278.709905 
L 218.415855 294.131414 
L 218.545729 295.486805 
L 218.578198 295.375624 
L 218.675604 293.957311 
L 218.870416 286.30778 
L 219.162635 263.676805 
L 219.649665 204.019385 
L 220.591258 86.035351 
L 220.915945 68.071819 
L 221.078288 65.91061 
L 221.143226 66.376192 
L 221.2731 69.578384 
L 221.500381 82.198113 
L 221.857537 117.603499 
L 223.383566 292.674118 
L 223.54591 295.47467 
L 223.578378 295.448823 
L 223.675784 294.193608 
L 223.838128 288.225495 
L 224.097877 269.204563 
L 224.519971 218.519539 
L 225.688844 67.219179 
L 225.981062 54.33855 
L 226.078468 53.568 
L 226.110937 53.712253 
L 226.208343 55.345354 
L 226.403155 63.897049 
L 226.695374 88.802142 
L 227.182404 153.334971 
L 228.091528 273.998604 
L 228.416215 293.13191 
L 228.578558 295.485798 
L 228.643496 295.02513 
L 228.77337 291.714628 
L 229.000651 278.559315 
L 229.357807 241.617029 
L 230.883836 58.908489 
L 231.078648 55.58932 
L 231.143586 56.070269 
L 231.27346 59.39957 
L 231.500741 72.515767 
L 231.857897 109.224631 
L 233.416395 292.74362 
L 233.578738 295.47714 
L 233.611207 295.445358 
L 233.708613 294.195784 
L 233.870957 288.341994 
L 234.130706 269.885451 
L 234.552799 221.418847 
L 235.656735 86.573479 
L 235.948953 73.014997 
L 236.078828 71.687029 
L 236.111297 71.818975 
L 236.208703 73.324071 
L 236.403515 81.206129 
L 236.695734 104.110911 
L 237.182764 163.261939 
L 238.091888 274.110149 
L 238.449043 293.459628 
L 238.611387 295.485135 
L 238.676324 295.07385 
L 238.806199 292.188969 
L 239.03348 280.855942 
L 239.390636 249.450534 
L 240.851727 103.285903 
L 241.079008 99.590364 
L 241.143946 99.994138 
L 241.27382 102.731984 
L 241.501101 113.444444 
L 241.858257 143.268766 
L 243.416755 292.548118 
L 243.611567 295.481254 
L 243.676504 295.27579 
L 243.806379 293.120171 
L 244.03366 284.043635 
L 244.390816 258.351207 
L 245.851907 138.419157 
L 246.079188 135.474894 
L 246.144126 135.828286 
L 246.274 138.110665 
L 246.501281 146.924793 
L 246.858437 171.29836 
L 248.416935 292.801296 
L 248.644216 295.485337 
L 248.709153 295.204936 
L 248.839028 293.285168 
L 249.066309 285.839224 
L 249.423465 265.52489 
L 250.78715 178.270667 
L 251.014431 174.770741 
L 251.079368 174.672455 
L 251.111837 174.774226 
L 251.241712 176.176629 
L 251.468993 182.304455 
L 251.826148 200.018661 
L 252.605397 254.860704 
L 253.157365 285.695164 
L 253.482052 294.316574 
L 253.644396 295.484969 
L 253.676864 295.465704 
L 253.774271 294.912328 
L 253.969083 291.672168 
L 254.261301 282.146697 
L 254.813269 254.698568 
L 255.52758 221.329767 
L 255.884736 213.401999 
L 256.04708 212.482774 
L 256.079548 212.507291 
L 256.176954 212.994442 
L 256.371767 215.775957 
L 256.663985 224.021248 
L 257.151015 245.372332 
L 258.092608 286.845789 
L 258.449764 294.234381 
L 258.677044 295.486344 
L 258.774451 295.205897 
L 258.936794 293.712061 
L 259.196544 288.955439 
L 259.651105 275.775558 
L 260.52776 250.065865 
L 260.852447 245.682661 
L 261.04726 245.039869 
L 261.144666 245.290717 
L 261.307009 246.530884 
L 261.566759 250.475525 
L 261.988852 260.810924 
L 263.157725 291.363389 
L 263.482412 294.886596 
L 263.677224 295.487156 
L 263.774631 295.373916 
L 263.936974 294.613918 
L 264.196724 292.101196 
L 264.683754 284.572388 
L 265.495472 272.317256 
L 265.820159 270.082289 
L 266.014971 269.777455 
L 266.144846 270.010961 
L 266.339658 270.983439 
L 266.664345 274.041804 
L 267.248782 282.274579 
L 267.995562 292.095612 
L 268.385186 294.822455 
L 268.644936 295.467933 
L 268.774811 295.453598 
L 268.937154 295.150707 
L 269.196904 294.112845 
L 269.716403 290.830888 
L 270.398246 286.820281 
L 270.755401 285.862587 
L 270.950214 285.777485 
L 271.145026 285.996439 
L 271.404775 286.7128 
L 271.826869 288.64199 
L 273.02821 294.498869 
L 273.417835 295.314721 
L 273.710053 295.487923 
L 273.969803 295.38448 
L 274.359427 294.93482 
L 275.30102 293.766924 
L 275.658175 293.65666 
L 276.015331 293.773704 
L 276.53483 294.226716 
L 277.638766 295.244862 
L 278.223203 295.453651 
L 279.099858 295.482833 
L 281.502542 295.334931 
L 282.476603 295.261426 
L 284.29485 295.342437 
L 284.749412 294.951927 
L 285.398786 294.036733 
L 286.210503 292.971565 
L 286.567659 292.818116 
L 286.892346 292.929321 
L 287.249502 293.322472 
L 287.866407 294.421694 
L 288.483312 295.358261 
L 288.775531 295.487778 
L 289.03528 295.354732 
L 289.327499 294.902784 
L 289.717123 293.841485 
L 291.243152 289.073004 
L 291.470433 288.996264 
L 291.697714 289.190205 
L 291.989932 289.8187 
L 292.444494 291.449537 
L 293.418555 295.083255 
L 293.710773 295.472474 
L 293.905585 295.436506 
L 294.132866 295.07935 
L 294.457553 294.010025 
L 294.944584 291.480347 
L 295.886176 286.511376 
L 296.210863 285.766522 
L 296.405675 285.69633 
L 296.600488 285.920904 
L 296.860237 286.657488 
L 297.249862 288.529458 
L 298.516141 295.160987 
L 298.775891 295.486276 
L 298.938234 295.401839 
L 299.165515 294.911536 
L 299.490202 293.527798 
L 300.04217 289.95205 
L 300.821419 285.16584 
L 301.146106 284.228422 
L 301.340918 284.101152 
L 301.503262 284.255541 
L 301.730543 284.856116 
L 302.087698 286.582553 
L 302.899416 292.135424 
L 303.418915 294.809048 
L 303.711133 295.442595 
L 303.873477 295.471057 
L 304.03582 295.265628 
L 304.29557 294.478082 
L 304.685194 292.434133 
L 305.983942 284.955104 
L 306.243692 284.569439 
L 306.406036 284.622251 
L 306.600848 284.980357 
L 306.893066 286.066025 
L 307.380097 288.923686 
L 308.321689 294.494335 
L 308.678845 295.400552 
L 308.873657 295.479751 
L 309.068469 295.264525 
L 309.328219 294.557208 
L 309.750312 292.626341 
L 310.854248 287.248243 
L 311.146466 286.730354 
L 311.341278 286.711324 
L 311.53609 286.953413 
L 311.828309 287.763905 
L 312.28287 289.815015 
L 313.321869 294.700031 
L 313.679025 295.409251 
L 313.906306 295.476773 
L 314.133586 295.254535 
L 314.458273 294.506443 
L 315.04271 292.413431 
L 315.724553 290.210245 
L 316.081709 289.693238 
L 316.308989 289.668391 
L 316.53627 289.879529 
L 316.860957 290.542271 
L 317.412925 292.29801 
L 318.257112 294.857769 
L 318.646736 295.410066 
L 318.938954 295.47751 
L 319.231173 295.271204 
L 319.653266 294.615848 
L 320.78967 292.677791 
L 321.146826 292.519687 
L 321.439044 292.618039 
L 321.828669 293.025095 
L 322.54298 294.20486 
L 323.224823 295.169503 
L 323.679385 295.460511 
L 324.069009 295.463528 
L 324.588508 295.213822 
L 325.757382 294.583772 
L 326.276881 294.594702 
L 326.926255 294.853395 
L 328.257472 295.427586 
L 329.069189 295.4848 
L 332.088778 295.486275 
L 335.140836 295.411122 
L 337.413645 295.162878 
L 339.394236 295.411714 
L 339.978673 295.09709 
L 341.569639 294.070978 
L 341.991732 294.134188 
L 342.478763 294.445228 
L 343.842448 295.480648 
L 344.199604 295.432281 
L 344.589228 295.141298 
L 345.141196 294.388881 
L 346.147726 292.977274 
L 346.53735 292.801579 
L 346.862037 292.899252 
L 347.251662 293.293382 
L 347.901036 294.35737 
L 348.582879 295.320018 
L 348.940034 295.487724 
L 349.232253 295.389889 
L 349.589408 294.98617 
L 350.108908 293.981704 
L 351.0505 292.128128 
L 351.407656 291.846191 
L 351.699874 291.88253 
L 352.024561 292.20284 
L 352.479123 293.042579 
L 353.615527 295.298614 
L 353.940214 295.486575 
L 354.199964 295.407433 
L 354.524651 295.030951 
L 354.979213 294.10228 
L 356.083149 291.727111 
L 356.407836 291.493175 
L 356.667585 291.542276 
L 356.959804 291.842389 
L 357.381897 292.645723 
L 358.648176 295.314119 
L 358.972863 295.487713 
L 359.232613 295.396382 
L 359.5573 295.015273 
L 360.076799 293.97014 
L 360.985923 292.141301 
L 361.343078 291.855366 
L 361.635297 291.889664 
L 361.959984 292.202922 
L 362.414545 293.017659 
L 363.583419 295.26441 
L 363.940574 295.483112 
L 364.232793 295.421733 
L 364.589948 295.081868 
L 365.174385 294.130594 
L 365.953634 292.955387 
L 366.343258 292.732326 
L 366.667945 292.797092 
L 367.025101 293.112458 
L 367.609538 293.989219 
L 368.453724 295.209051 
L 368.875817 295.470272 
L 369.232973 295.449338 
L 369.655066 295.17783 
L 371.31097 293.830717 
L 371.733063 293.919127 
L 372.252562 294.290924 
L 373.648716 295.419769 
L 374.135747 295.483566 
L 374.720183 295.317021 
L 376.148806 294.799774 
L 376.79818 294.877063 
L 379.330739 295.479135 
L 381.993172 295.421478 
L 384.395856 295.487972 
L 390.175285 295.379543 
L 392.188345 295.075093 
L 393.097468 295.288001 
L 394.103998 295.487989 
L 394.720903 295.37484 
L 395.467683 294.986144 
L 396.474213 294.488665 
L 396.993712 294.477321 
L 397.54568 294.697379 
L 398.487273 295.303694 
L 398.487273 295.303694 
" style="fill:none;stroke:#ff7f0e;stroke-linecap:square;stroke-width:1.5;"/>
   </g>
   <g id="patch_3">
    <path d="M 57.6 307.584 
L 57.6 41.472 
" style="fill:none;stroke:#000000;stroke-linecap:square;stroke-linejoin:miter;stroke-width:0.8;"/>
   </g>
   <g id="patch_4">
    <path d="M 414.72 307.584 
L 414.72 41.472 
" style="fill:none;stroke:#000000;stroke-linecap:square;stroke-linejoin:miter;stroke-width:0.8;"/>
   </g>
   <g id="patch_5">
    <path d="M 57.6 307.584 
L 414.72 307.584 
" style="fill:none;stroke:#000000;stroke-linecap:square;stroke-linejoin:miter;stroke-width:0.8;"/>
   </g>
   <g id="patch_6">
    <path d="M 57.6 41.472 
L 414.72 41.472 
" style="fill:none;stroke:#000000;stroke-linecap:square;stroke-linejoin:miter;stroke-width:0.8;"/>
   </g>
   <g id="legend_1">
    <g id="patch_7">
     <path d="M 318.065313 78.82825 
L 407.72 78.82825 
Q 409.72 78.82825 409.72 76.82825 
L 409.72 48.472 
Q 409.72 46.472 407.72 46.472 
L 318.065313 46.472 
Q 316.065313 46.472 316.065313 48.472 
L 316.065313 76.82825 
Q 316.065313 78.82825 318.065313 78.82825 
z
" style="fill:#ffffff;opacity:0.8;stroke:#cccccc;stroke-linejoin:miter;"/>
    </g>
    <g id="line2d_13">
     <path d="M 320.065313 54.570437 
L 340.065313 54.570437 
" style="fill:none;stroke:#1f77b4;stroke-linecap:square;stroke-width:1.5;"/>
    </g>
    <g id="line2d_14"/>
    <g id="text_11">
     <!-- .5and0.4 -->
     <g transform="translate(348.065313 58.070437)scale(0.1 -0.1)">
      <defs>
       <path d="M 10.796875 72.90625 
L 49.515625 72.90625 
L 49.515625 64.59375 
L 19.828125 64.59375 
L 19.828125 46.734375 
Q 21.96875 47.46875 24.109375 47.828125 
Q 26.265625 48.1875 28.421875 48.1875 
Q 40.625 48.1875 47.75 41.5 
Q 54.890625 34.8125 54.890625 23.390625 
Q 54.890625 11.625 47.5625 5.09375 
Q 40.234375 -1.421875 26.90625 -1.421875 
Q 22.3125 -1.421875 17.546875 -0.640625 
Q 12.796875 0.140625 7.71875 1.703125 
L 7.71875 11.625 
Q 12.109375 9.234375 16.796875 8.0625 
Q 21.484375 6.890625 26.703125 6.890625 
Q 35.15625 6.890625 40.078125 11.328125 
Q 45.015625 15.765625 45.015625 23.390625 
Q 45.015625 31 40.078125 35.4375 
Q 35.15625 39.890625 26.703125 39.890625 
Q 22.75 39.890625 18.8125 39.015625 
Q 14.890625 38.140625 10.796875 36.28125 
z
" id="DejaVuSans-53"/>
       <path d="M 34.28125 27.484375 
Q 23.390625 27.484375 19.1875 25 
Q 14.984375 22.515625 14.984375 16.5 
Q 14.984375 11.71875 18.140625 8.90625 
Q 21.296875 6.109375 26.703125 6.109375 
Q 34.1875 6.109375 38.703125 11.40625 
Q 43.21875 16.703125 43.21875 25.484375 
L 43.21875 27.484375 
z
M 52.203125 31.203125 
L 52.203125 0 
L 43.21875 0 
L 43.21875 8.296875 
Q 40.140625 3.328125 35.546875 0.953125 
Q 30.953125 -1.421875 24.3125 -1.421875 
Q 15.921875 -1.421875 10.953125 3.296875 
Q 6 8.015625 6 15.921875 
Q 6 25.140625 12.171875 29.828125 
Q 18.359375 34.515625 30.609375 34.515625 
L 43.21875 34.515625 
L 43.21875 35.40625 
Q 43.21875 41.609375 39.140625 45 
Q 35.0625 48.390625 27.6875 48.390625 
Q 23 48.390625 18.546875 47.265625 
Q 14.109375 46.140625 10.015625 43.890625 
L 10.015625 52.203125 
Q 14.9375 54.109375 19.578125 55.046875 
Q 24.21875 56 28.609375 56 
Q 40.484375 56 46.34375 49.84375 
Q 52.203125 43.703125 52.203125 31.203125 
z
" id="DejaVuSans-97"/>
       <path d="M 54.890625 33.015625 
L 54.890625 0 
L 45.90625 0 
L 45.90625 32.71875 
Q 45.90625 40.484375 42.875 44.328125 
Q 39.84375 48.1875 33.796875 48.1875 
Q 26.515625 48.1875 22.3125 43.546875 
Q 18.109375 38.921875 18.109375 30.90625 
L 18.109375 0 
L 9.078125 0 
L 9.078125 54.6875 
L 18.109375 54.6875 
L 18.109375 46.1875 
Q 21.34375 51.125 25.703125 53.5625 
Q 30.078125 56 35.796875 56 
Q 45.21875 56 50.046875 50.171875 
Q 54.890625 44.34375 54.890625 33.015625 
z
" id="DejaVuSans-110"/>
       <path d="M 45.40625 46.390625 
L 45.40625 75.984375 
L 54.390625 75.984375 
L 54.390625 0 
L 45.40625 0 
L 45.40625 8.203125 
Q 42.578125 3.328125 38.25 0.953125 
Q 33.9375 -1.421875 27.875 -1.421875 
Q 17.96875 -1.421875 11.734375 6.484375 
Q 5.515625 14.40625 5.515625 27.296875 
Q 5.515625 40.1875 11.734375 48.09375 
Q 17.96875 56 27.875 56 
Q 33.9375 56 38.25 53.625 
Q 42.578125 51.265625 45.40625 46.390625 
z
M 14.796875 27.296875 
Q 14.796875 17.390625 18.875 11.75 
Q 22.953125 6.109375 30.078125 6.109375 
Q 37.203125 6.109375 41.296875 11.75 
Q 45.40625 17.390625 45.40625 27.296875 
Q 45.40625 37.203125 41.296875 42.84375 
Q 37.203125 48.484375 30.078125 48.484375 
Q 22.953125 48.484375 18.875 42.84375 
Q 14.796875 37.203125 14.796875 27.296875 
z
" id="DejaVuSans-100"/>
      </defs>
      <use xlink:href="#DejaVuSans-46"/>
      <use x="31.787109" xlink:href="#DejaVuSans-53"/>
      <use x="95.410156" xlink:href="#DejaVuSans-97"/>
      <use x="156.689453" xlink:href="#DejaVuSans-110"/>
      <use x="220.068359" xlink:href="#DejaVuSans-100"/>
      <use x="283.544922" xlink:href="#DejaVuSans-48"/>
      <use x="347.167969" xlink:href="#DejaVuSans-46"/>
      <use x="378.955078" xlink:href="#DejaVuSans-52"/>
     </g>
    </g>
    <g id="line2d_15">
     <path d="M 320.065313 69.248562 
L 340.065313 69.248562 
" style="fill:none;stroke:#ff7f0e;stroke-linecap:square;stroke-width:1.5;"/>
    </g>
    <g id="line2d_16"/>
    <g id="text_12">
     <!-- .5and0.4 fit -->
     <g transform="translate(348.065313 72.748562)scale(0.1 -0.1)">
      <defs>
       <path id="DejaVuSans-32"/>
       <path d="M 37.109375 75.984375 
L 37.109375 68.5 
L 28.515625 68.5 
Q 23.6875 68.5 21.796875 66.546875 
Q 19.921875 64.59375 19.921875 59.515625 
L 19.921875 54.6875 
L 34.71875 54.6875 
L 34.71875 47.703125 
L 19.921875 47.703125 
L 19.921875 0 
L 10.890625 0 
L 10.890625 47.703125 
L 2.296875 47.703125 
L 2.296875 54.6875 
L 10.890625 54.6875 
L 10.890625 58.5 
Q 10.890625 67.625 15.140625 71.796875 
Q 19.390625 75.984375 28.609375 75.984375 
z
" id="DejaVuSans-102"/>
       <path d="M 9.421875 54.6875 
L 18.40625 54.6875 
L 18.40625 0 
L 9.421875 0 
z
M 9.421875 75.984375 
L 18.40625 75.984375 
L 18.40625 64.59375 
L 9.421875 64.59375 
z
" id="DejaVuSans-105"/>
       <path d="M 18.3125 70.21875 
L 18.3125 54.6875 
L 36.8125 54.6875 
L 36.8125 47.703125 
L 18.3125 47.703125 
L 18.3125 18.015625 
Q 18.3125 11.328125 20.140625 9.421875 
Q 21.96875 7.515625 27.59375 7.515625 
L 36.8125 7.515625 
L 36.8125 0 
L 27.59375 0 
Q 17.1875 0 13.234375 3.875 
Q 9.28125 7.765625 9.28125 18.015625 
L 9.28125 47.703125 
L 2.6875 47.703125 
L 2.6875 54.6875 
L 9.28125 54.6875 
L 9.28125 70.21875 
z
" id="DejaVuSans-116"/>
      </defs>
      <use xlink:href="#DejaVuSans-46"/>
      <use x="31.787109" xlink:href="#DejaVuSans-53"/>
      <use x="95.410156" xlink:href="#DejaVuSans-97"/>
      <use x="156.689453" xlink:href="#DejaVuSans-110"/>
      <use x="220.068359" xlink:href="#DejaVuSans-100"/>
      <use x="283.544922" xlink:href="#DejaVuSans-48"/>
      <use x="347.167969" xlink:href="#DejaVuSans-46"/>
      <use x="378.955078" xlink:href="#DejaVuSans-52"/>
      <use x="442.578125" xlink:href="#DejaVuSans-32"/>
      <use x="474.365234" xlink:href="#DejaVuSans-102"/>
      <use x="509.570312" xlink:href="#DejaVuSans-105"/>
      <use x="537.353516" xlink:href="#DejaVuSans-116"/>
     </g>
    </g>
   </g>
  </g>
 </g>
 <defs>
  <clipPath id="p9ba3709ab4">
   <rect height="266.112" width="357.12" x="57.6" y="41.472"/>
  </clipPath>
 </defs>
</svg>
