<?xml version="1.0" encoding="utf-8" standalone="no"?>
<!DOCTYPE svg PUBLIC "-//W3C//DTD SVG 1.1//EN"
  "http://www.w3.org/Graphics/SVG/1.1/DTD/svg11.dtd">
<!-- Created with matplotlib (https://matplotlib.org/) -->
<svg height="345.6pt" version="1.1" viewBox="0 0 460.8 345.6" width="460.8pt" xmlns="http://www.w3.org/2000/svg" xmlns:xlink="http://www.w3.org/1999/xlink">
 <metadata>
  <rdf:RDF xmlns:cc="http://creativecommons.org/ns#" xmlns:dc="http://purl.org/dc/elements/1.1/" xmlns:rdf="http://www.w3.org/1999/02/22-rdf-syntax-ns#">
   <cc:Work>
    <dc:type rdf:resource="http://purl.org/dc/dcmitype/StillImage"/>
    <dc:date>2021-05-17T10:46:51.722985</dc:date>
    <dc:format>image/svg+xml</dc:format>
    <dc:creator>
     <cc:Agent>
      <dc:title>Matplotlib v3.3.4, https://matplotlib.org/</dc:title>
     </cc:Agent>
    </dc:creator>
   </cc:Work>
  </rdf:RDF>
 </metadata>
 <defs>
  <style type="text/css">*{stroke-linecap:butt;stroke-linejoin:round;}</style>
 </defs>
 <g id="figure_1">
  <g id="patch_1">
   <path d="M 0 345.6 
L 460.8 345.6 
L 460.8 0 
L 0 0 
z
" style="fill:#ffffff;"/>
  </g>
  <g id="axes_1">
   <g id="patch_2">
    <path d="M 57.6 307.584 
L 414.72 307.584 
L 414.72 41.472 
L 57.6 41.472 
z
" style="fill:#ffffff;"/>
   </g>
   <g id="matplotlib.axis_1">
    <g id="xtick_1">
     <g id="line2d_1">
      <defs>
       <path d="M 0 0 
L 0 3.5 
" id="md6d9c4770d" style="stroke:#000000;stroke-width:0.8;"/>
      </defs>
      <g>
       <use style="stroke:#000000;stroke-width:0.8;" x="85.110773" xlink:href="#md6d9c4770d" y="307.584"/>
      </g>
     </g>
     <g id="text_1">
      <!-- −0.75 -->
      <g transform="translate(69.788116 322.182437)scale(0.1 -0.1)">
       <defs>
        <path d="M 10.59375 35.5 
L 73.1875 35.5 
L 73.1875 27.203125 
L 10.59375 27.203125 
z
" id="DejaVuSans-8722"/>
        <path d="M 31.78125 66.40625 
Q 24.171875 66.40625 20.328125 58.90625 
Q 16.5 51.421875 16.5 36.375 
Q 16.5 21.390625 20.328125 13.890625 
Q 24.171875 6.390625 31.78125 6.390625 
Q 39.453125 6.390625 43.28125 13.890625 
Q 47.125 21.390625 47.125 36.375 
Q 47.125 51.421875 43.28125 58.90625 
Q 39.453125 66.40625 31.78125 66.40625 
z
M 31.78125 74.21875 
Q 44.046875 74.21875 50.515625 64.515625 
Q 56.984375 54.828125 56.984375 36.375 
Q 56.984375 17.96875 50.515625 8.265625 
Q 44.046875 -1.421875 31.78125 -1.421875 
Q 19.53125 -1.421875 13.0625 8.265625 
Q 6.59375 17.96875 6.59375 36.375 
Q 6.59375 54.828125 13.0625 64.515625 
Q 19.53125 74.21875 31.78125 74.21875 
z
" id="DejaVuSans-48"/>
        <path d="M 10.6875 12.40625 
L 21 12.40625 
L 21 0 
L 10.6875 0 
z
" id="DejaVuSans-46"/>
        <path d="M 8.203125 72.90625 
L 55.078125 72.90625 
L 55.078125 68.703125 
L 28.609375 0 
L 18.3125 0 
L 43.21875 64.59375 
L 8.203125 64.59375 
z
" id="DejaVuSans-55"/>
        <path d="M 10.796875 72.90625 
L 49.515625 72.90625 
L 49.515625 64.59375 
L 19.828125 64.59375 
L 19.828125 46.734375 
Q 21.96875 47.46875 24.109375 47.828125 
Q 26.265625 48.1875 28.421875 48.1875 
Q 40.625 48.1875 47.75 41.5 
Q 54.890625 34.8125 54.890625 23.390625 
Q 54.890625 11.625 47.5625 5.09375 
Q 40.234375 -1.421875 26.90625 -1.421875 
Q 22.3125 -1.421875 17.546875 -0.640625 
Q 12.796875 0.140625 7.71875 1.703125 
L 7.71875 11.625 
Q 12.109375 9.234375 16.796875 8.0625 
Q 21.484375 6.890625 26.703125 6.890625 
Q 35.15625 6.890625 40.078125 11.328125 
Q 45.015625 15.765625 45.015625 23.390625 
Q 45.015625 31 40.078125 35.4375 
Q 35.15625 39.890625 26.703125 39.890625 
Q 22.75 39.890625 18.8125 39.015625 
Q 14.890625 38.140625 10.796875 36.28125 
z
" id="DejaVuSans-53"/>
       </defs>
       <use xlink:href="#DejaVuSans-8722"/>
       <use x="83.789062" xlink:href="#DejaVuSans-48"/>
       <use x="147.412109" xlink:href="#DejaVuSans-46"/>
       <use x="179.199219" xlink:href="#DejaVuSans-55"/>
       <use x="242.822266" xlink:href="#DejaVuSans-53"/>
      </g>
     </g>
    </g>
    <g id="xtick_2">
     <g id="line2d_2">
      <g>
       <use style="stroke:#000000;stroke-width:0.8;" x="129.903335" xlink:href="#md6d9c4770d" y="307.584"/>
      </g>
     </g>
     <g id="text_2">
      <!-- −0.50 -->
      <g transform="translate(114.580679 322.182437)scale(0.1 -0.1)">
       <use xlink:href="#DejaVuSans-8722"/>
       <use x="83.789062" xlink:href="#DejaVuSans-48"/>
       <use x="147.412109" xlink:href="#DejaVuSans-46"/>
       <use x="179.199219" xlink:href="#DejaVuSans-53"/>
       <use x="242.822266" xlink:href="#DejaVuSans-48"/>
      </g>
     </g>
    </g>
    <g id="xtick_3">
     <g id="line2d_3">
      <g>
       <use style="stroke:#000000;stroke-width:0.8;" x="174.695897" xlink:href="#md6d9c4770d" y="307.584"/>
      </g>
     </g>
     <g id="text_3">
      <!-- −0.25 -->
      <g transform="translate(159.373241 322.182437)scale(0.1 -0.1)">
       <defs>
        <path d="M 19.1875 8.296875 
L 53.609375 8.296875 
L 53.609375 0 
L 7.328125 0 
L 7.328125 8.296875 
Q 12.9375 14.109375 22.625 23.890625 
Q 32.328125 33.6875 34.8125 36.53125 
Q 39.546875 41.84375 41.421875 45.53125 
Q 43.3125 49.21875 43.3125 52.78125 
Q 43.3125 58.59375 39.234375 62.25 
Q 35.15625 65.921875 28.609375 65.921875 
Q 23.96875 65.921875 18.8125 64.3125 
Q 13.671875 62.703125 7.8125 59.421875 
L 7.8125 69.390625 
Q 13.765625 71.78125 18.9375 73 
Q 24.125 74.21875 28.421875 74.21875 
Q 39.75 74.21875 46.484375 68.546875 
Q 53.21875 62.890625 53.21875 53.421875 
Q 53.21875 48.921875 51.53125 44.890625 
Q 49.859375 40.875 45.40625 35.40625 
Q 44.1875 33.984375 37.640625 27.21875 
Q 31.109375 20.453125 19.1875 8.296875 
z
" id="DejaVuSans-50"/>
       </defs>
       <use xlink:href="#DejaVuSans-8722"/>
       <use x="83.789062" xlink:href="#DejaVuSans-48"/>
       <use x="147.412109" xlink:href="#DejaVuSans-46"/>
       <use x="179.199219" xlink:href="#DejaVuSans-50"/>
       <use x="242.822266" xlink:href="#DejaVuSans-53"/>
      </g>
     </g>
    </g>
    <g id="xtick_4">
     <g id="line2d_4">
      <g>
       <use style="stroke:#000000;stroke-width:0.8;" x="219.488459" xlink:href="#md6d9c4770d" y="307.584"/>
      </g>
     </g>
     <g id="text_4">
      <!-- 0.00 -->
      <g transform="translate(208.355647 322.182437)scale(0.1 -0.1)">
       <use xlink:href="#DejaVuSans-48"/>
       <use x="63.623047" xlink:href="#DejaVuSans-46"/>
       <use x="95.410156" xlink:href="#DejaVuSans-48"/>
       <use x="159.033203" xlink:href="#DejaVuSans-48"/>
      </g>
     </g>
    </g>
    <g id="xtick_5">
     <g id="line2d_5">
      <g>
       <use style="stroke:#000000;stroke-width:0.8;" x="264.281022" xlink:href="#md6d9c4770d" y="307.584"/>
      </g>
     </g>
     <g id="text_5">
      <!-- 0.25 -->
      <g transform="translate(253.148209 322.182437)scale(0.1 -0.1)">
       <use xlink:href="#DejaVuSans-48"/>
       <use x="63.623047" xlink:href="#DejaVuSans-46"/>
       <use x="95.410156" xlink:href="#DejaVuSans-50"/>
       <use x="159.033203" xlink:href="#DejaVuSans-53"/>
      </g>
     </g>
    </g>
    <g id="xtick_6">
     <g id="line2d_6">
      <g>
       <use style="stroke:#000000;stroke-width:0.8;" x="309.073584" xlink:href="#md6d9c4770d" y="307.584"/>
      </g>
     </g>
     <g id="text_6">
      <!-- 0.50 -->
      <g transform="translate(297.940771 322.182437)scale(0.1 -0.1)">
       <use xlink:href="#DejaVuSans-48"/>
       <use x="63.623047" xlink:href="#DejaVuSans-46"/>
       <use x="95.410156" xlink:href="#DejaVuSans-53"/>
       <use x="159.033203" xlink:href="#DejaVuSans-48"/>
      </g>
     </g>
    </g>
    <g id="xtick_7">
     <g id="line2d_7">
      <g>
       <use style="stroke:#000000;stroke-width:0.8;" x="353.866146" xlink:href="#md6d9c4770d" y="307.584"/>
      </g>
     </g>
     <g id="text_7">
      <!-- 0.75 -->
      <g transform="translate(342.733334 322.182437)scale(0.1 -0.1)">
       <use xlink:href="#DejaVuSans-48"/>
       <use x="63.623047" xlink:href="#DejaVuSans-46"/>
       <use x="95.410156" xlink:href="#DejaVuSans-55"/>
       <use x="159.033203" xlink:href="#DejaVuSans-53"/>
      </g>
     </g>
    </g>
    <g id="xtick_8">
     <g id="line2d_8">
      <g>
       <use style="stroke:#000000;stroke-width:0.8;" x="398.658709" xlink:href="#md6d9c4770d" y="307.584"/>
      </g>
     </g>
     <g id="text_8">
      <!-- 1.00 -->
      <g transform="translate(387.525896 322.182437)scale(0.1 -0.1)">
       <defs>
        <path d="M 12.40625 8.296875 
L 28.515625 8.296875 
L 28.515625 63.921875 
L 10.984375 60.40625 
L 10.984375 69.390625 
L 28.421875 72.90625 
L 38.28125 72.90625 
L 38.28125 8.296875 
L 54.390625 8.296875 
L 54.390625 0 
L 12.40625 0 
z
" id="DejaVuSans-49"/>
       </defs>
       <use xlink:href="#DejaVuSans-49"/>
       <use x="63.623047" xlink:href="#DejaVuSans-46"/>
       <use x="95.410156" xlink:href="#DejaVuSans-48"/>
       <use x="159.033203" xlink:href="#DejaVuSans-48"/>
      </g>
     </g>
    </g>
   </g>
   <g id="matplotlib.axis_2">
    <g id="ytick_1">
     <g id="line2d_9">
      <defs>
       <path d="M 0 0 
L -3.5 0 
" id="m399790440a" style="stroke:#000000;stroke-width:0.8;"/>
      </defs>
      <g>
       <use style="stroke:#000000;stroke-width:0.8;" x="57.6" xlink:href="#m399790440a" y="295.488001"/>
      </g>
     </g>
     <g id="text_9">
      <!-- 0 -->
      <g transform="translate(44.2375 299.28722)scale(0.1 -0.1)">
       <use xlink:href="#DejaVuSans-48"/>
      </g>
     </g>
    </g>
    <g id="ytick_2">
     <g id="line2d_10">
      <g>
       <use style="stroke:#000000;stroke-width:0.8;" x="57.6" xlink:href="#m399790440a" y="255.85273"/>
      </g>
     </g>
     <g id="text_10">
      <!-- 2 -->
      <g transform="translate(44.2375 259.651949)scale(0.1 -0.1)">
       <use xlink:href="#DejaVuSans-50"/>
      </g>
     </g>
    </g>
    <g id="ytick_3">
     <g id="line2d_11">
      <g>
       <use style="stroke:#000000;stroke-width:0.8;" x="57.6" xlink:href="#m399790440a" y="216.21746"/>
      </g>
     </g>
     <g id="text_11">
      <!-- 4 -->
      <g transform="translate(44.2375 220.016678)scale(0.1 -0.1)">
       <defs>
        <path d="M 37.796875 64.3125 
L 12.890625 25.390625 
L 37.796875 25.390625 
z
M 35.203125 72.90625 
L 47.609375 72.90625 
L 47.609375 25.390625 
L 58.015625 25.390625 
L 58.015625 17.1875 
L 47.609375 17.1875 
L 47.609375 0 
L 37.796875 0 
L 37.796875 17.1875 
L 4.890625 17.1875 
L 4.890625 26.703125 
z
" id="DejaVuSans-52"/>
       </defs>
       <use xlink:href="#DejaVuSans-52"/>
      </g>
     </g>
    </g>
    <g id="ytick_4">
     <g id="line2d_12">
      <g>
       <use style="stroke:#000000;stroke-width:0.8;" x="57.6" xlink:href="#m399790440a" y="176.582189"/>
      </g>
     </g>
     <g id="text_12">
      <!-- 6 -->
      <g transform="translate(44.2375 180.381407)scale(0.1 -0.1)">
       <defs>
        <path d="M 33.015625 40.375 
Q 26.375 40.375 22.484375 35.828125 
Q 18.609375 31.296875 18.609375 23.390625 
Q 18.609375 15.53125 22.484375 10.953125 
Q 26.375 6.390625 33.015625 6.390625 
Q 39.65625 6.390625 43.53125 10.953125 
Q 47.40625 15.53125 47.40625 23.390625 
Q 47.40625 31.296875 43.53125 35.828125 
Q 39.65625 40.375 33.015625 40.375 
z
M 52.59375 71.296875 
L 52.59375 62.3125 
Q 48.875 64.0625 45.09375 64.984375 
Q 41.3125 65.921875 37.59375 65.921875 
Q 27.828125 65.921875 22.671875 59.328125 
Q 17.53125 52.734375 16.796875 39.40625 
Q 19.671875 43.65625 24.015625 45.921875 
Q 28.375 48.1875 33.59375 48.1875 
Q 44.578125 48.1875 50.953125 41.515625 
Q 57.328125 34.859375 57.328125 23.390625 
Q 57.328125 12.15625 50.6875 5.359375 
Q 44.046875 -1.421875 33.015625 -1.421875 
Q 20.359375 -1.421875 13.671875 8.265625 
Q 6.984375 17.96875 6.984375 36.375 
Q 6.984375 53.65625 15.1875 63.9375 
Q 23.390625 74.21875 37.203125 74.21875 
Q 40.921875 74.21875 44.703125 73.484375 
Q 48.484375 72.75 52.59375 71.296875 
z
" id="DejaVuSans-54"/>
       </defs>
       <use xlink:href="#DejaVuSans-54"/>
      </g>
     </g>
    </g>
    <g id="ytick_5">
     <g id="line2d_13">
      <g>
       <use style="stroke:#000000;stroke-width:0.8;" x="57.6" xlink:href="#m399790440a" y="136.946918"/>
      </g>
     </g>
     <g id="text_13">
      <!-- 8 -->
      <g transform="translate(44.2375 140.746137)scale(0.1 -0.1)">
       <defs>
        <path d="M 31.78125 34.625 
Q 24.75 34.625 20.71875 30.859375 
Q 16.703125 27.09375 16.703125 20.515625 
Q 16.703125 13.921875 20.71875 10.15625 
Q 24.75 6.390625 31.78125 6.390625 
Q 38.8125 6.390625 42.859375 10.171875 
Q 46.921875 13.96875 46.921875 20.515625 
Q 46.921875 27.09375 42.890625 30.859375 
Q 38.875 34.625 31.78125 34.625 
z
M 21.921875 38.8125 
Q 15.578125 40.375 12.03125 44.71875 
Q 8.5 49.078125 8.5 55.328125 
Q 8.5 64.0625 14.71875 69.140625 
Q 20.953125 74.21875 31.78125 74.21875 
Q 42.671875 74.21875 48.875 69.140625 
Q 55.078125 64.0625 55.078125 55.328125 
Q 55.078125 49.078125 51.53125 44.71875 
Q 48 40.375 41.703125 38.8125 
Q 48.828125 37.15625 52.796875 32.3125 
Q 56.78125 27.484375 56.78125 20.515625 
Q 56.78125 9.90625 50.3125 4.234375 
Q 43.84375 -1.421875 31.78125 -1.421875 
Q 19.734375 -1.421875 13.25 4.234375 
Q 6.78125 9.90625 6.78125 20.515625 
Q 6.78125 27.484375 10.78125 32.3125 
Q 14.796875 37.15625 21.921875 38.8125 
z
M 18.3125 54.390625 
Q 18.3125 48.734375 21.84375 45.5625 
Q 25.390625 42.390625 31.78125 42.390625 
Q 38.140625 42.390625 41.71875 45.5625 
Q 45.3125 48.734375 45.3125 54.390625 
Q 45.3125 60.0625 41.71875 63.234375 
Q 38.140625 66.40625 31.78125 66.40625 
Q 25.390625 66.40625 21.84375 63.234375 
Q 18.3125 60.0625 18.3125 54.390625 
z
" id="DejaVuSans-56"/>
       </defs>
       <use xlink:href="#DejaVuSans-56"/>
      </g>
     </g>
    </g>
    <g id="ytick_6">
     <g id="line2d_14">
      <g>
       <use style="stroke:#000000;stroke-width:0.8;" x="57.6" xlink:href="#m399790440a" y="97.311647"/>
      </g>
     </g>
     <g id="text_14">
      <!-- 10 -->
      <g transform="translate(37.875 101.110866)scale(0.1 -0.1)">
       <use xlink:href="#DejaVuSans-49"/>
       <use x="63.623047" xlink:href="#DejaVuSans-48"/>
      </g>
     </g>
    </g>
    <g id="ytick_7">
     <g id="line2d_15">
      <g>
       <use style="stroke:#000000;stroke-width:0.8;" x="57.6" xlink:href="#m399790440a" y="57.676376"/>
      </g>
     </g>
     <g id="text_15">
      <!-- 12 -->
      <g transform="translate(37.875 61.475595)scale(0.1 -0.1)">
       <use xlink:href="#DejaVuSans-49"/>
       <use x="63.623047" xlink:href="#DejaVuSans-50"/>
      </g>
     </g>
    </g>
   </g>
   <g id="line2d_16">
    <path clip-path="url(#p7105ef110e)" d="M 398.487273 295.249007 
L 398.487273 295.223449 
L 397.562989 295.249007 
L 397.562989 295.223449 
L 313.222129 295.121216 
L 313.4532 295.095658 
L 311.142491 295.249007 
L 311.142491 295.223449 
L 311.142491 295.249007 
L 309.524995 295.172332 
L 309.524995 295.146774 
L 309.524995 295.095658 
L 308.600712 295.095658 
L 308.600712 295.070099 
L 308.600712 295.095658 
L 307.907499 295.095658 
L 305.827862 295.223449 
L 305.827862 295.223449 
L 304.210366 295.146774 
L 304.210366 295.095658 
L 303.517153 295.095658 
L 303.517153 295.070099 
L 303.517153 294.993425 
L 302.82394 294.993425 
L 302.82394 294.993425 
L 302.130728 295.018983 
L 299.126807 295.249007 
L 299.126807 295.249007 
L 295.198602 294.91675 
L 295.198602 294.967866 
L 295.198602 294.942308 
L 294.274319 295.095658 
L 293.812177 295.146774 
L 292.194681 295.249007 
L 292.194681 295.249007 
L 292.194681 295.172332 
L 291.501469 295.146774 
L 291.501469 295.070099 
L 291.501469 295.070099 
L 288.728619 294.865633 
L 288.728619 294.865633 
L 288.728619 294.891192 
L 288.728619 294.865633 
L 287.342193 295.121216 
L 287.342193 295.172332 
L 287.342193 295.172332 
L 285.724698 295.121216 
L 285.724698 295.095658 
L 285.724698 295.044541 
L 285.031485 294.967866 
L 285.031485 294.865633 
L 284.338272 294.7634 
L 284.338272 294.7634 
L 284.569343 294.737842 
L 284.107202 294.686726 
L 284.107202 294.635609 
L 284.107202 294.635609 
L 283.64506 294.584493 
L 283.64506 294.661167 
L 282.951847 294.686726 
L 282.951847 294.737842 
L 282.951847 294.788959 
L 282.951847 294.7634 
L 282.258635 294.967866 
L 282.489706 295.044541 
L 282.258635 295.070099 
L 282.258635 295.121216 
L 281.565422 295.146774 
L 281.565422 295.197891 
L 281.565422 295.197891 
L 280.641139 295.223449 
L 280.641139 295.197891 
L 280.178997 295.146774 
L 280.178997 295.070099 
L 279.716855 295.018983 
L 279.254714 294.967866 
L 279.485785 294.942308 
L 277.868289 294.507818 
L 277.868289 294.533376 
L 277.868289 294.533376 
L 276.944005 294.48226 
L 276.944005 294.558934 
L 276.944005 294.558934 
L 274.633297 294.737842 
L 274.633297 294.737842 
L 274.633297 294.686726 
L 274.633297 294.7634 
L 274.171155 294.865633 
L 274.402226 294.91675 
L 274.171155 294.91675 
L 274.171155 295.095658 
L 273.709013 295.070099 
L 273.709013 295.095658 
L 273.709013 295.223449 
L 273.015801 295.172332 
L 273.015801 295.146774 
L 273.015801 295.070099 
L 272.78473 294.942308 
L 272.78473 294.865633 
L 272.322588 294.712284 
L 272.322588 294.533376 
L 272.091517 294.533376 
L 272.091517 294.277794 
L 271.629376 294.226677 
L 271.629376 294.201119 
L 270.474021 293.996653 
L 270.474021 294.047769 
L 270.474021 294.098886 
L 270.01188 293.996653 
L 270.01188 294.098886 
L 270.01188 294.047769 
L 269.780809 294.098886 
L 269.780809 294.073328 
L 269.780809 294.175561 
L 269.780809 294.124444 
L 269.318667 294.277794 
L 269.318667 294.277794 
L 269.318667 294.354468 
L 269.087596 294.354468 
L 269.087596 294.456701 
L 269.087596 294.661167 
L 269.087596 294.635609 
L 268.856525 294.737842 
L 268.625455 294.712284 
L 268.856525 294.814517 
L 268.394384 294.942308 
L 268.394384 295.044541 
L 267.932242 295.223449 
L 267.932242 295.223449 
L 267.239029 295.146774 
L 267.4701 295.121216 
L 267.007959 294.942308 
L 267.007959 294.967866 
L 267.007959 294.891192 
L 266.776888 294.814517 
L 266.776888 294.7634 
L 266.545817 294.661167 
L 266.776888 294.533376 
L 266.314746 294.303352 
L 266.314746 294.047769 
L 266.083675 293.89442 
L 266.314746 293.843303 
L 266.083675 293.817745 
L 265.621533 293.562163 
L 265.621533 293.587721 
L 265.621533 293.511046 
L 265.390463 293.383255 
L 265.159392 293.562163 
L 265.159392 293.408813 
L 265.159392 293.485488 
L 264.69725 293.638837 
L 264.69725 293.638837 
L 264.69725 293.715512 
L 263.310825 294.686726 
L 263.541896 294.788959 
L 263.310825 294.712284 
L 263.310825 294.814517 
L 263.079754 294.737842 
L 263.079754 294.788959 
L 263.079754 294.865633 
L 263.079754 294.840075 
L 262.155471 294.993425 
L 262.155471 294.967866 
L 261.693329 294.891192 
L 261.693329 294.788959 
L 261.693329 294.814517 
L 261.231187 294.635609 
L 261.231187 294.533376 
L 261.231187 294.533376 
L 261.000116 294.354468 
L 261.000116 294.354468 
L 260.769046 294.354468 
L 260.769046 294.226677 
L 261.000116 294.073328 
L 260.537975 293.817745 
L 260.537975 293.613279 
L 260.306904 293.613279 
L 260.306904 293.434371 
L 260.075833 293.281022 
L 260.075833 293.229905 
L 259.844762 293.102114 
L 259.844762 292.87209 
L 259.382621 292.693182 
L 259.382621 292.744299 
L 259.382621 292.488716 
L 259.15155 292.514274 
L 259.15155 292.463158 
L 258.689408 292.412041 
L 258.689408 292.463158 
L 258.458337 292.539833 
L 258.458337 292.693182 
L 257.765125 292.795415 
L 257.765125 293.332138 
L 257.534054 293.434371 
L 257.534054 293.587721 
L 257.302983 293.766629 
L 257.534054 293.919978 
L 257.071912 293.843303 
L 257.302983 293.996653 
L 257.071912 293.996653 
L 256.840841 294.277794 
L 256.840841 294.533376 
L 256.60977 294.686726 
L 256.60977 294.840075 
L 255.685487 294.967866 
L 255.685487 294.967866 
L 255.685487 294.788959 
L 255.223345 294.661167 
L 255.223345 294.507818 
L 254.992274 294.405585 
L 254.992274 294.201119 
L 254.761203 294.098886 
L 254.761203 293.792187 
L 254.530133 293.664396 
L 254.530133 293.536604 
L 254.299062 293.408813 
L 254.299062 293.30658 
L 253.83692 292.999881 
L 253.83692 292.769857 
L 253.605849 292.590949 
L 253.83692 292.360925 
L 253.605849 292.28425 
L 253.605849 291.926435 
L 253.605849 291.977551 
L 253.143708 291.389711 
L 253.143708 291.210804 
L 252.912637 291.236362 
L 253.143708 290.980779 
L 252.912637 290.878546 
L 252.912637 290.699639 
L 252.219424 290.265149 
L 252.219424 290.444056 
L 251.988353 290.469615 
L 251.988353 290.674081 
L 251.526212 291.108571 
L 251.757282 291.236362 
L 251.295141 291.670852 
L 251.295141 291.951993 
L 251.06407 292.182017 
L 251.06407 292.463158 
L 250.832999 292.642066 
L 250.832999 292.999881 
L 250.601928 293.178789 
L 250.601928 293.332138 
L 250.370857 293.587721 
L 250.370857 294.073328 
L 250.139786 294.558934 
L 250.139786 294.7634 
L 249.908716 294.865633 
L 249.908716 294.967866 
L 249.446574 295.018983 
L 249.446574 294.891192 
L 249.215503 294.584493 
L 248.984432 294.32891 
L 248.984432 293.817745 
L 248.753361 293.74107 
L 248.753361 293.45993 
L 248.522291 293.102114 
L 248.522291 292.642066 
L 248.29122 292.130901 
L 248.29122 290.878546 
L 247.829078 290.009566 
L 247.829078 289.21726 
L 247.366936 288.527188 
L 247.598007 288.016023 
L 246.904795 286.968134 
L 246.904795 286.226945 
L 246.673724 286.073596 
L 246.673724 285.664664 
L 246.442653 285.434639 
L 246.442653 285.12794 
L 246.211582 284.8468 
L 246.211582 285.153499 
L 245.980511 284.974591 
L 246.211582 284.642334 
L 245.980511 284.8468 
L 245.980511 284.642334 
L 245.74944 284.565659 
L 245.74944 284.335635 
L 245.74944 284.488984 
L 245.518369 284.207843 
L 245.518369 284.310076 
L 245.287299 284.156727 
L 245.287299 284.156727 
L 245.056228 283.82447 
L 245.056228 284.10561 
L 244.825157 284.284518 
L 244.825157 285.230173 
L 244.594086 285.076824 
L 244.594086 285.179057 
L 244.594086 285.690222 
L 244.363015 285.690222 
L 244.363015 286.584761 
L 244.131944 286.865901 
L 244.131944 288.092697 
L 243.900874 288.78277 
L 243.900874 289.319493 
L 243.669803 289.319493 
L 243.900874 289.881775 
L 243.669803 290.418498 
L 243.669803 291.185245 
L 243.438732 291.466386 
L 243.438732 292.999881 
L 243.207661 293.511046 
L 243.207661 293.919978 
L 242.97659 294.226677 
L 242.97659 294.840075 
L 242.745519 294.840075 
L 242.745519 294.558934 
L 242.514448 294.32891 
L 242.514448 293.587721 
L 242.283378 292.974323 
L 242.283378 292.105342 
L 242.052307 291.491944 
L 242.052307 290.111799 
L 241.821236 289.396168 
L 241.821236 285.996921 
L 241.590165 285.051266 
L 241.590165 283.620004 
L 241.359094 282.827698 
L 241.359094 280.450781 
L 241.128023 278.636145 
L 241.128023 274.18901 
L 240.665882 272.195466 
L 240.665882 264.425759 
L 240.20374 263.991268 
L 240.20374 265.396972 
L 240.20374 263.480103 
L 239.972669 261.972167 
L 239.972669 260.89872 
L 239.741598 260.847604 
L 239.741598 260.183089 
L 239.741598 261.128744 
L 239.279456 263.556778 
L 239.048386 263.607895 
L 238.817315 264.681341 
L 238.817315 269.614083 
L 238.586244 271.530952 
L 238.586244 273.141122 
L 238.355173 275.722505 
L 238.355173 278.866169 
L 238.124102 281.396436 
L 238.124102 283.313305 
L 238.355173 284.540101 
L 237.893031 287.223717 
L 237.893031 288.603862 
L 237.661961 290.546289 
L 237.661961 293.025439 
L 237.43089 293.587721 
L 237.199819 292.105342 
L 237.199819 291.159687 
L 236.968748 289.140586 
L 236.737677 289.242819 
L 236.737677 288.808328 
L 236.506606 288.041581 
L 236.506606 278.585029 
L 236.275535 273.626728 
L 236.275535 267.952797 
L 236.044465 260.055298 
L 236.044465 251.41661 
L 235.813394 244.669232 
L 235.813394 234.062558 
L 235.582323 229.896564 
L 235.582323 220.874502 
L 235.351252 209.347731 
L 235.351252 197.999869 
L 235.120181 184.811812 
L 235.120181 123.702038 
L 234.658039 85.850271 
L 234.658039 85.850271 
L 226.801631 85.850271 
L 226.801631 85.850271 
L 226.57056 103.894395 
L 226.57056 138.219124 
L 226.108418 162.320553 
L 226.108418 190.000137 
L 225.877347 194.779529 
L 225.877347 219.034308 
L 225.646276 225.935035 
L 225.646276 245.052606 
L 225.415205 255.378138 
L 225.415205 261.818817 
L 224.953064 281.958718 
L 224.953064 285.639105 
L 224.721993 286.584761 
L 224.721993 288.424955 
L 224.490922 289.37061 
L 224.259851 288.961678 
L 224.02878 288.859445 
L 224.02878 285.741338 
L 223.797709 285.000149 
L 223.797709 282.699907 
L 223.566639 282.265417 
L 223.566639 281.140854 
L 223.335568 279.837383 
L 223.335568 277.000417 
L 223.104497 275.64583 
L 223.104497 273.320029 
L 222.873426 271.224253 
L 222.873426 269.435175 
L 222.642355 267.313841 
L 222.642355 264.016827 
L 222.411284 263.09673 
L 222.411284 261.512118 
L 222.180214 259.901948 
L 222.180214 257.576148 
L 221.949143 256.502701 
L 221.949143 255.812629 
L 221.718072 255.454813 
L 221.718072 255.838187 
L 221.718072 255.020323 
L 221.487001 255.557046 
L 221.25593 255.480371 
L 221.487001 255.838187 
L 221.25593 256.349352 
L 221.25593 257.013866 
L 221.024859 257.83173 
L 221.024859 259.186317 
L 220.793788 259.390783 
L 220.793788 260.873162 
L 220.562718 261.103186 
L 220.562718 262.585565 
L 220.331647 263.198963 
L 220.331647 263.09673 
L 220.331647 266.265952 
L 219.869505 267.211608 
L 220.100576 268.233938 
L 219.869505 268.64287 
L 219.869505 271.55651 
L 219.638434 272.246583 
L 219.638434 273.294471 
L 219.407363 274.265684 
L 219.407363 275.64583 
L 219.407363 275.466922 
L 219.176292 275.850296 
L 219.176292 277.128208 
L 218.945222 278.12498 
L 218.945222 280.885271 
L 218.714151 282.316533 
L 218.714151 285.639105 
L 218.48308 286.942576 
L 218.48308 288.143814 
L 218.252009 289.166144 
L 218.252009 290.674081 
L 218.020938 291.057454 
L 218.020938 291.798643 
L 217.789867 292.539833 
L 217.789867 293.945536 
L 217.558797 294.150002 
L 217.558797 294.303352 
L 217.327726 294.380027 
L 217.327726 294.252235 
L 217.327726 294.303352 
L 217.096655 294.124444 
L 217.327726 293.843303 
L 217.096655 293.587721 
L 216.865584 293.127672 
L 216.865584 291.41527 
L 216.634513 290.418498 
L 216.634513 289.37061 
L 216.403442 288.527188 
L 216.403442 286.89146 
L 216.172371 286.482528 
L 216.172371 286.201387 
L 215.941301 286.022479 
L 215.941301 284.719008 
L 215.71023 283.875586 
L 215.71023 282.827698 
L 215.479159 282.418766 
L 215.479159 282.060951 
L 215.248088 281.62646 
L 215.017017 281.805368 
L 215.017017 281.754252 
L 215.017017 282.086509 
L 214.785946 282.2143 
L 214.785946 282.163184 
L 214.554875 282.572115 
L 214.554875 282.929931 
L 214.323805 283.23663 
L 214.092734 284.054494 
L 214.092734 284.616775 
L 213.861663 285.306848 
L 213.861663 286.15027 
L 213.630592 286.405853 
L 213.630592 287.504858 
L 213.399521 287.683765 
L 213.399521 288.654979 
L 212.937379 289.753984 
L 212.937379 290.597406 
L 212.706309 291.210804 
L 212.706309 291.84976 
L 212.475238 292.258692 
L 212.475238 292.999881 
L 212.244167 293.485488 
L 212.244167 294.073328 
L 212.013096 294.635609 
L 212.013096 294.788959 
L 211.550954 294.942308 
L 211.550954 294.993425 
L 211.550954 294.993425 
L 211.319884 294.840075 
L 211.088813 294.635609 
L 211.088813 294.277794 
L 210.3956 293.050998 
L 210.3956 292.616507 
L 210.164529 292.182017 
L 210.164529 291.721969 
L 209.933458 291.057454 
L 209.933458 290.622964 
L 209.702388 290.750755 
L 209.702388 290.546289 
L 209.471317 290.495173 
L 209.471317 289.932891 
L 209.009175 289.268377 
L 209.009175 288.885003 
L 208.547033 288.34828 
L 207.853821 288.910561 
L 207.853821 289.038353 
L 207.62275 289.293935 
L 207.62275 289.421726 
L 207.391679 289.728425 
L 207.391679 290.086241 
L 207.160608 290.265149 
L 207.160608 290.520731 
L 206.929537 290.648522 
L 206.929537 290.980779 
L 206.467396 291.389711 
L 206.467396 291.747527 
L 206.467396 291.747527 
L 206.236325 292.130901 
L 206.236325 292.309808 
L 206.005254 292.258692 
L 205.774183 292.463158 
L 206.005254 292.514274 
L 205.774183 292.667624 
L 205.774183 293.255464 
L 205.312041 293.792187 
L 205.543112 294.073328 
L 205.080971 294.431143 
L 205.080971 294.635609 
L 204.618829 294.686726 
L 204.618829 294.865633 
L 204.387758 294.993425 
L 203.925616 294.865633 
L 203.925616 294.7634 
L 203.694545 294.7634 
L 203.694545 294.661167 
L 203.694545 294.405585 
L 203.463475 294.201119 
L 203.463475 294.022211 
L 203.232404 293.817745 
L 203.232404 293.562163 
L 203.001333 293.45993 
L 203.001333 293.050998 
L 202.770262 292.769857 
L 202.770262 292.207575 
L 202.30812 291.440828 
L 202.30812 291.26192 
L 202.077049 291.031896 
L 202.077049 290.904105 
L 201.845979 290.674081 
L 201.383837 290.495173 
L 201.614908 290.520731 
L 201.383837 290.290707 
L 201.152766 290.418498 
L 200.921695 290.23959 
L 200.921695 290.418498 
L 200.459554 290.546289 
L 200.690624 290.750755 
L 200.459554 290.904105 
L 200.459554 291.26192 
L 200.228483 291.389711 
L 200.228483 291.951993 
L 199.766341 292.463158 
L 199.53527 292.744299 
L 199.53527 293.076556 
L 199.304199 293.383255 
L 199.304199 293.638837 
L 199.073128 293.89442 
L 199.073128 294.558934 
L 198.842058 294.558934 
L 198.379916 294.7634 
L 198.379916 294.712284 
L 198.148845 294.788959 
L 198.148845 294.661167 
L 197.917774 294.610051 
L 197.917774 294.48226 
L 197.686703 294.252235 
L 197.455632 294.098886 
L 197.455632 293.817745 
L 197.224562 293.715512 
L 197.224562 293.562163 
L 196.993491 293.408813 
L 196.993491 293.178789 
L 195.607066 291.798643 
L 194.913853 291.721969 
L 194.913853 291.747527 
L 194.913853 291.875318 
L 194.913853 291.798643 
L 194.451711 292.079784 
L 194.451711 292.309808 
L 193.758499 292.87209 
L 193.527428 293.255464 
L 193.527428 293.45993 
L 192.834215 293.971095 
L 193.065286 294.022211 
L 192.834215 294.252235 
L 192.834215 294.405585 
L 192.603145 294.533376 
L 192.603145 294.661167 
L 192.372074 294.686726 
L 192.372074 294.91675 
L 191.44779 295.121216 
L 191.44779 295.070099 
L 190.985649 294.942308 
L 190.985649 294.942308 
L 190.523507 294.737842 
L 190.523507 294.507818 
L 190.292436 294.32891 
L 190.292436 294.201119 
L 190.061365 294.073328 
L 190.061365 293.817745 
L 189.599224 293.613279 
L 189.368153 293.511046 
L 189.599224 293.434371 
L 189.137082 293.408813 
L 189.368153 293.281022 
L 189.137082 293.229905 
L 189.137082 293.076556 
L 189.137082 293.127672 
L 188.67494 292.948765 
L 188.67494 292.948765 
L 188.443869 292.948765 
L 188.443869 292.948765 
L 187.981728 293.153231 
L 187.981728 293.050998 
L 187.981728 293.127672 
L 187.057444 293.434371 
L 187.288515 293.511046 
L 187.057444 293.792187 
L 187.057444 293.945536 
L 186.826373 294.022211 
L 186.826373 294.277794 
L 186.364232 294.584493 
L 185.439948 295.018983 
L 184.977807 294.967866 
L 184.977807 294.840075 
L 184.746736 294.891192 
L 184.746736 294.7634 
L 184.515665 294.610051 
L 184.515665 294.533376 
L 184.053523 294.277794 
L 183.822452 294.175561 
L 183.822452 294.175561 
L 183.822452 294.022211 
L 183.591381 293.919978 
L 183.822452 293.868862 
L 183.12924 293.511046 
L 183.12924 293.511046 
L 182.898169 293.485488 
L 182.898169 293.357697 
L 182.667098 293.204347 
L 182.667098 293.076556 
L 182.436027 292.974323 
L 182.204956 293.102114 
L 182.436027 292.948765 
L 181.973885 292.974323 
L 181.742815 292.897648 
L 181.742815 292.974323 
L 181.280673 293.255464 
L 181.280673 293.485488 
L 180.818531 293.792187 
L 180.818531 293.971095 
L 180.58746 294.047769 
L 180.58746 294.277794 
L 180.35639 294.380027 
L 180.35639 294.635609 
L 179.894248 294.7634 
L 179.894248 294.865633 
L 178.969964 295.095658 
L 178.969964 295.095658 
L 178.507823 295.146774 
L 178.507823 295.070099 
L 177.121398 294.533376 
L 177.121398 294.456701 
L 176.890327 294.32891 
L 176.890327 294.303352 
L 176.428185 293.996653 
L 176.428185 293.971095 
L 175.04176 293.89442 
L 175.04176 293.945536 
L 174.117477 294.277794 
L 174.117477 294.405585 
L 173.886406 294.533376 
L 173.655335 294.635609 
L 173.886406 294.686726 
L 173.193193 294.865633 
L 173.193193 294.865633 
L 173.193193 294.91675 
L 172.499981 294.993425 
L 172.499981 294.967866 
L 172.037839 294.788959 
L 172.037839 294.610051 
L 171.575697 294.277794 
L 171.575697 294.277794 
L 171.344626 294.226677 
L 171.344626 294.098886 
L 171.113555 294.150002 
L 171.113555 294.047769 
L 171.113555 293.868862 
L 170.882485 293.89442 
L 170.882485 293.843303 
L 170.651414 293.766629 
L 170.651414 293.817745 
L 169.49606 294.022211 
L 169.49606 294.073328 
L 169.264989 293.945536 
L 169.264989 293.996653 
L 169.033918 294.124444 
L 169.033918 294.201119 
L 168.340705 294.533376 
L 167.878564 294.661167 
L 167.878564 294.814517 
L 167.878564 294.814517 
L 166.95428 295.095658 
L 166.95428 295.095658 
L 166.95428 295.146774 
L 165.336784 295.044541 
L 165.336784 295.018983 
L 165.336784 295.018983 
L 164.643572 294.814517 
L 164.643572 294.712284 
L 164.18143 294.507818 
L 164.18143 294.431143 
L 163.950359 294.354468 
L 163.950359 294.175561 
L 163.488217 294.098886 
L 163.488217 294.124444 
L 163.488217 294.022211 
L 163.026076 293.89442 
L 163.026076 293.919978 
L 162.332863 294.047769 
L 162.332863 294.124444 
L 162.101792 294.252235 
L 162.101792 294.303352 
L 162.101792 294.303352 
L 161.40858 294.584493 
L 161.40858 294.686726 
L 161.177509 294.661167 
L 161.177509 294.7634 
L 159.791084 295.121216 
L 159.791084 295.121216 
L 159.328942 295.095658 
L 159.328942 295.070099 
L 159.328942 295.044541 
L 158.8668 294.942308 
L 158.8668 294.942308 
L 158.404659 294.814517 
L 158.404659 294.712284 
L 157.711446 294.533376 
L 157.018234 294.303352 
L 157.018234 294.380027 
L 155.862879 294.354468 
L 155.862879 294.431143 
L 155.631808 294.456701 
L 155.631808 294.533376 
L 154.476454 294.91675 
L 154.707525 294.942308 
L 154.707525 294.967866 
L 153.3211 294.942308 
L 153.3211 294.865633 
L 152.858958 294.840075 
L 152.858958 294.814517 
L 152.858958 294.686726 
L 152.165746 294.635609 
L 152.165746 294.507818 
L 151.703604 294.48226 
L 151.703604 294.48226 
L 151.010391 294.431143 
L 151.010391 294.48226 
L 150.317179 294.661167 
L 150.317179 294.661167 
L 148.00647 295.095658 
L 148.00647 295.070099 
L 147.544329 294.967866 
L 147.544329 295.018983 
L 147.313258 294.840075 
L 147.313258 294.7634 
L 146.851116 294.610051 
L 145.695762 294.456701 
L 145.695762 294.507818 
L 145.695762 294.48226 
L 144.309337 294.737842 
L 144.309337 294.814517 
L 144.309337 294.788959 
L 143.616124 294.967866 
L 143.616124 295.018983 
L 142.46077 295.095658 
L 142.229699 295.146774 
L 142.229699 295.121216 
L 141.074345 294.7634 
L 141.074345 294.686726 
L 140.612203 294.558934 
L 140.612203 294.507818 
L 138.763636 294.584493 
L 138.763636 294.661167 
L 138.070424 294.865633 
L 138.070424 294.865633 
L 138.070424 294.942308 
L 138.070424 294.942308 
L 136.683999 295.146774 
L 136.683999 295.121216 
L 135.528644 294.942308 
L 135.528644 294.865633 
L 134.604361 294.661167 
L 134.604361 294.584493 
L 134.142219 294.533376 
L 134.142219 294.507818 
L 134.142219 294.507818 
L 132.755794 294.7634 
L 132.986865 294.814517 
L 132.524723 294.788959 
L 132.524723 294.814517 
L 129.520802 295.095658 
L 129.520802 295.044541 
L 129.520802 294.967866 
L 128.82759 294.788959 
L 127.903306 294.686726 
L 127.903306 294.686726 
L 126.979023 294.7634 
L 126.516881 294.865633 
L 125.592598 294.91675 
L 125.592598 294.993425 
L 125.592598 294.993425 
L 124.437244 295.095658 
L 124.437244 295.095658 
L 123.744031 295.146774 
L 123.744031 295.146774 
L 123.744031 295.121216 
L 121.664393 295.070099 
L 121.664393 295.044541 
L 121.433323 294.891192 
L 121.433323 294.891192 
L 121.433323 294.840075 
L 119.353685 294.91675 
L 119.353685 294.942308 
L 119.353685 294.967866 
L 119.353685 294.942308 
L 118.429401 295.044541 
L 118.429401 295.018983 
L 118.429401 295.070099 
L 118.429401 295.070099 
L 117.736189 295.095658 
L 117.96726 295.095658 
L 116.580835 294.993425 
L 116.580835 294.967866 
L 116.580835 294.967866 
L 115.42548 294.891192 
L 115.42548 294.91675 
L 115.42548 294.840075 
L 115.42548 294.865633 
L 114.039055 294.814517 
L 114.039055 294.865633 
L 114.039055 294.814517 
L 113.345843 294.840075 
L 113.345843 294.840075 
L 113.345843 294.865633 
L 112.883701 294.891192 
L 112.883701 294.91675 
L 112.883701 294.942308 
L 110.572993 295.121216 
L 110.572993 295.121216 
L 108.955497 294.993425 
L 108.955497 295.070099 
L 108.955497 294.993425 
L 108.262284 294.993425 
L 108.493355 294.91675 
L 108.262284 294.942308 
L 106.875859 294.686726 
L 106.875859 294.737842 
L 106.875859 294.7634 
L 106.413717 294.788959 
L 106.413717 294.891192 
L 105.951576 294.891192 
L 105.951576 294.942308 
L 105.951576 295.018983 
L 105.027292 295.121216 
L 105.027292 295.172332 
L 105.027292 295.172332 
L 103.640867 295.121216 
L 103.640867 295.070099 
L 103.640867 295.018983 
L 103.640867 295.044541 
L 102.023371 294.737842 
L 102.023371 294.737842 
L 101.099088 294.942308 
L 101.099088 294.942308 
L 100.636946 294.993425 
L 100.636946 294.993425 
L 99.712663 294.967866 
L 99.712663 294.993425 
L 99.712663 295.044541 
L 99.712663 295.018983 
L 98.788379 295.121216 
L 98.788379 295.095658 
L 98.788379 295.146774 
L 98.788379 295.121216 
L 97.864096 295.172332 
L 97.864096 295.121216 
L 97.170883 295.044541 
L 97.170883 294.967866 
L 97.170883 294.993425 
L 95.322316 294.891192 
L 95.322316 294.91675 
L 95.322316 294.891192 
L 94.629104 294.865633 
L 94.629104 294.865633 
L 93.011608 294.942308 
L 93.011608 294.993425 
L 92.549466 294.993425 
L 92.549466 295.018983 
L 92.549466 295.095658 
L 92.087324 295.044541 
L 92.087324 295.044541 
L 92.087324 295.070099 
L 92.087324 295.070099 
L 89.314474 294.967866 
L 89.314474 294.865633 
L 88.621262 294.737842 
L 88.621262 294.737842 
L 87.465907 295.018983 
L 87.696978 295.070099 
L 87.234837 295.044541 
L 87.234837 295.070099 
L 84.693057 294.967866 
L 84.693057 294.967866 
L 84.693057 294.942308 
L 84.693057 294.942308 
L 81.689136 295.018983 
L 81.689136 295.044541 
L 79.840569 295.172332 
L 79.840569 295.146774 
L 78.916286 295.095658 
L 78.916286 295.044541 
L 78.916286 295.018983 
L 78.223073 294.942308 
L 78.223073 294.91675 
L 78.223073 294.891192 
L 73.832727 294.788959 
L 73.832727 294.840075 
L 73.832727 294.7634 
L 73.832727 294.840075 
L 74.294869 294.840075 
L 73.832727 294.840075 
" style="fill:none;stroke:#1f77b4;stroke-linecap:square;stroke-width:1.5;"/>
   </g>
   <g id="line2d_17">
    <path clip-path="url(#p7105ef110e)" d="M 73.832727 295.421588 
L 78.70742 295.45869 
L 83.582113 295.416861 
L 88.131826 295.460693 
L 93.006519 295.400206 
L 97.556233 295.463099 
L 102.430925 295.379718 
L 107.305618 295.453454 
L 111.855332 295.354254 
L 116.730025 295.456069 
L 121.279738 295.322174 
L 126.47941 295.442196 
L 130.704144 295.28106 
L 136.228796 295.42239 
L 140.12855 295.227211 
L 145.978182 295.393522 
L 149.227977 295.148512 
L 151.177854 295.281355 
L 153.77769 295.487938 
L 155.402588 295.389936 
L 158.977363 295.053666 
L 160.60226 295.194763 
L 163.202097 295.485324 
L 164.826994 295.386068 
L 168.726749 294.91363 
L 170.351646 295.119954 
L 172.626503 295.475999 
L 173.926421 295.430211 
L 175.551319 295.088386 
L 177.501196 294.697613 
L 178.801114 294.727201 
L 180.426011 295.093121 
L 182.050909 295.45217 
L 183.025848 295.47276 
L 184.000786 295.297412 
L 185.950663 294.608095 
L 187.250581 294.29345 
L 188.22552 294.311243 
L 189.200459 294.557937 
L 191.800295 295.454958 
L 192.775233 295.443144 
L 193.750172 295.12289 
L 195.05009 294.371512 
L 196.350008 293.670352 
L 196.999967 293.494415 
L 197.649926 293.490194 
L 198.299885 293.665115 
L 199.274824 294.199772 
L 200.899722 295.241654 
L 201.549681 295.45953 
L 202.19964 295.455033 
L 202.849599 295.196539 
L 203.499558 294.695124 
L 204.474496 293.620533 
L 205.774414 292.146589 
L 206.424373 291.669126 
L 207.074333 291.499719 
L 207.724292 291.685488 
L 208.374251 292.212131 
L 209.349189 293.448276 
L 210.324128 294.749837 
L 210.974087 295.332486 
L 211.299066 295.467823 
L 211.624046 295.473486 
L 211.949025 295.335331 
L 212.274005 295.044404 
L 212.923964 293.998542 
L 213.573923 292.390573 
L 214.873841 288.225934 
L 215.84878 285.419486 
L 216.498739 284.310158 
L 216.823718 284.087141 
L 217.148698 284.115539 
L 217.473677 284.406214 
L 217.798657 284.958716 
L 218.448616 286.78405 
L 219.423554 290.721673 
L 220.398493 294.426744 
L 220.723473 295.169357 
L 221.048452 295.484299 
L 221.373432 295.258924 
L 221.698411 294.382431 
L 222.023391 292.749203 
L 222.34837 290.262201 
L 222.998329 282.401578 
L 223.648288 270.318647 
L 224.298247 253.859014 
L 225.273186 221.585205 
L 226.573104 168.787173 
L 228.198002 102.716583 
L 229.17294 72.830378 
L 229.822899 59.981151 
L 230.147879 56.058685 
L 230.472858 53.90807 
L 230.797838 53.568 
L 231.122817 55.044603 
L 231.447797 58.31129 
L 232.097756 69.949612 
L 232.747715 87.659262 
L 233.722654 122.832987 
L 236.647469 240.121205 
L 237.622408 267.573318 
L 238.272367 280.473581 
L 238.922326 289.095554 
L 239.572285 293.865897 
L 239.897265 295.013293 
L 240.222244 295.469302 
L 240.547224 295.343181 
L 240.872203 294.747272 
L 241.522162 292.591498 
L 243.14706 286.118661 
L 243.797019 284.582514 
L 244.121998 284.193264 
L 244.446978 284.067518 
L 244.771957 284.198484 
L 245.096937 284.568949 
L 245.746896 285.917329 
L 246.721835 288.898164 
L 248.021753 292.946779 
L 248.671712 294.391145 
L 249.321671 295.244757 
L 249.64665 295.439275 
L 249.97163 295.485978 
L 250.296609 295.397166 
L 250.946568 294.884461 
L 251.921507 293.619627 
L 252.896446 292.342922 
L 253.546405 291.759543 
L 254.196364 291.506987 
L 254.846323 291.611887 
L 255.496282 292.037777 
L 256.47122 293.078915 
L 258.096118 294.87572 
L 258.746077 295.305015 
L 259.396036 295.483057 
L 260.045995 295.412706 
L 260.695954 295.137416 
L 263.62077 293.509583 
L 264.270729 293.479925 
L 264.920688 293.625747 
L 265.895627 294.09836 
L 267.845504 295.213002 
L 268.820442 295.471511 
L 269.795381 295.420172 
L 270.770319 295.122242 
L 273.045176 294.330504 
L 274.020115 294.282356 
L 274.995053 294.465823 
L 278.569828 295.484742 
L 279.544767 295.424688 
L 281.169664 295.03729 
L 282.794562 294.703635 
L 284.09448 294.718677 
L 285.719378 295.057113 
L 287.669255 295.453474 
L 288.969173 295.461521 
L 290.59407 295.206173 
L 292.543948 294.919726 
L 293.843866 294.948001 
L 296.118722 295.317493 
L 297.74362 295.485358 
L 299.368518 295.393861 
L 302.618313 295.051314 
L 304.24321 295.159146 
L 307.493006 295.487723 
L 309.442883 295.367976 
L 312.367699 295.148516 
L 314.317576 295.27759 
L 317.242391 295.487896 
L 319.517248 295.35109 
L 322.117084 295.217524 
L 324.716921 295.386872 
L 326.991777 295.486993 
L 329.591613 295.342738 
L 332.19145 295.27629 
L 338.366061 295.418133 
L 341.615856 295.307166 
L 348.765405 295.388459 
L 351.690221 295.345507 
L 357.539853 295.439679 
L 361.439607 295.369448 
L 366.964259 295.452997 
L 371.188993 295.388723 
L 376.713645 295.453046 
L 381.263358 295.41343 
L 386.138051 295.462366 
L 391.012744 295.425804 
L 395.887437 295.461856 
L 398.487273 295.408817 
L 398.487273 295.408817 
" style="fill:none;stroke:#ff7f0e;stroke-linecap:square;stroke-width:1.5;"/>
   </g>
   <g id="patch_3">
    <path d="M 57.6 307.584 
L 57.6 41.472 
" style="fill:none;stroke:#000000;stroke-linecap:square;stroke-linejoin:miter;stroke-width:0.8;"/>
   </g>
   <g id="patch_4">
    <path d="M 414.72 307.584 
L 414.72 41.472 
" style="fill:none;stroke:#000000;stroke-linecap:square;stroke-linejoin:miter;stroke-width:0.8;"/>
   </g>
   <g id="patch_5">
    <path d="M 57.6 307.584 
L 414.72 307.584 
" style="fill:none;stroke:#000000;stroke-linecap:square;stroke-linejoin:miter;stroke-width:0.8;"/>
   </g>
   <g id="patch_6">
    <path d="M 57.6 41.472 
L 414.72 41.472 
" style="fill:none;stroke:#000000;stroke-linecap:square;stroke-linejoin:miter;stroke-width:0.8;"/>
   </g>
   <g id="legend_1">
    <g id="patch_7">
     <path d="M 320.085625 78.82825 
L 407.72 78.82825 
Q 409.72 78.82825 409.72 76.82825 
L 409.72 48.472 
Q 409.72 46.472 407.72 46.472 
L 320.085625 46.472 
Q 318.085625 46.472 318.085625 48.472 
L 318.085625 76.82825 
Q 318.085625 78.82825 320.085625 78.82825 
z
" style="fill:#ffffff;opacity:0.8;stroke:#cccccc;stroke-linejoin:miter;"/>
    </g>
    <g id="line2d_18">
     <path d="M 322.085625 54.570437 
L 342.085625 54.570437 
" style="fill:none;stroke:#1f77b4;stroke-linecap:square;stroke-width:1.5;"/>
    </g>
    <g id="line2d_19"/>
    <g id="text_16">
     <!-- .16Good -->
     <g transform="translate(350.085625 58.070437)scale(0.1 -0.1)">
      <defs>
       <path d="M 59.515625 10.40625 
L 59.515625 29.984375 
L 43.40625 29.984375 
L 43.40625 38.09375 
L 69.28125 38.09375 
L 69.28125 6.78125 
Q 63.578125 2.734375 56.6875 0.65625 
Q 49.8125 -1.421875 42 -1.421875 
Q 24.90625 -1.421875 15.25 8.5625 
Q 5.609375 18.5625 5.609375 36.375 
Q 5.609375 54.25 15.25 64.234375 
Q 24.90625 74.21875 42 74.21875 
Q 49.125 74.21875 55.546875 72.453125 
Q 61.96875 70.703125 67.390625 67.28125 
L 67.390625 56.78125 
Q 61.921875 61.421875 55.765625 63.765625 
Q 49.609375 66.109375 42.828125 66.109375 
Q 29.4375 66.109375 22.71875 58.640625 
Q 16.015625 51.171875 16.015625 36.375 
Q 16.015625 21.625 22.71875 14.15625 
Q 29.4375 6.6875 42.828125 6.6875 
Q 48.046875 6.6875 52.140625 7.59375 
Q 56.25 8.5 59.515625 10.40625 
z
" id="DejaVuSans-71"/>
       <path d="M 30.609375 48.390625 
Q 23.390625 48.390625 19.1875 42.75 
Q 14.984375 37.109375 14.984375 27.296875 
Q 14.984375 17.484375 19.15625 11.84375 
Q 23.34375 6.203125 30.609375 6.203125 
Q 37.796875 6.203125 41.984375 11.859375 
Q 46.1875 17.53125 46.1875 27.296875 
Q 46.1875 37.015625 41.984375 42.703125 
Q 37.796875 48.390625 30.609375 48.390625 
z
M 30.609375 56 
Q 42.328125 56 49.015625 48.375 
Q 55.71875 40.765625 55.71875 27.296875 
Q 55.71875 13.875 49.015625 6.21875 
Q 42.328125 -1.421875 30.609375 -1.421875 
Q 18.84375 -1.421875 12.171875 6.21875 
Q 5.515625 13.875 5.515625 27.296875 
Q 5.515625 40.765625 12.171875 48.375 
Q 18.84375 56 30.609375 56 
z
" id="DejaVuSans-111"/>
       <path d="M 45.40625 46.390625 
L 45.40625 75.984375 
L 54.390625 75.984375 
L 54.390625 0 
L 45.40625 0 
L 45.40625 8.203125 
Q 42.578125 3.328125 38.25 0.953125 
Q 33.9375 -1.421875 27.875 -1.421875 
Q 17.96875 -1.421875 11.734375 6.484375 
Q 5.515625 14.40625 5.515625 27.296875 
Q 5.515625 40.1875 11.734375 48.09375 
Q 17.96875 56 27.875 56 
Q 33.9375 56 38.25 53.625 
Q 42.578125 51.265625 45.40625 46.390625 
z
M 14.796875 27.296875 
Q 14.796875 17.390625 18.875 11.75 
Q 22.953125 6.109375 30.078125 6.109375 
Q 37.203125 6.109375 41.296875 11.75 
Q 45.40625 17.390625 45.40625 27.296875 
Q 45.40625 37.203125 41.296875 42.84375 
Q 37.203125 48.484375 30.078125 48.484375 
Q 22.953125 48.484375 18.875 42.84375 
Q 14.796875 37.203125 14.796875 27.296875 
z
" id="DejaVuSans-100"/>
      </defs>
      <use xlink:href="#DejaVuSans-46"/>
      <use x="31.787109" xlink:href="#DejaVuSans-49"/>
      <use x="95.410156" xlink:href="#DejaVuSans-54"/>
      <use x="159.033203" xlink:href="#DejaVuSans-71"/>
      <use x="236.523438" xlink:href="#DejaVuSans-111"/>
      <use x="297.705078" xlink:href="#DejaVuSans-111"/>
      <use x="358.886719" xlink:href="#DejaVuSans-100"/>
     </g>
    </g>
    <g id="line2d_20">
     <path d="M 322.085625 69.248562 
L 342.085625 69.248562 
" style="fill:none;stroke:#ff7f0e;stroke-linecap:square;stroke-width:1.5;"/>
    </g>
    <g id="line2d_21"/>
    <g id="text_17">
     <!-- .16Good fit -->
     <g transform="translate(350.085625 72.748562)scale(0.1 -0.1)">
      <defs>
       <path id="DejaVuSans-32"/>
       <path d="M 37.109375 75.984375 
L 37.109375 68.5 
L 28.515625 68.5 
Q 23.6875 68.5 21.796875 66.546875 
Q 19.921875 64.59375 19.921875 59.515625 
L 19.921875 54.6875 
L 34.71875 54.6875 
L 34.71875 47.703125 
L 19.921875 47.703125 
L 19.921875 0 
L 10.890625 0 
L 10.890625 47.703125 
L 2.296875 47.703125 
L 2.296875 54.6875 
L 10.890625 54.6875 
L 10.890625 58.5 
Q 10.890625 67.625 15.140625 71.796875 
Q 19.390625 75.984375 28.609375 75.984375 
z
" id="DejaVuSans-102"/>
       <path d="M 9.421875 54.6875 
L 18.40625 54.6875 
L 18.40625 0 
L 9.421875 0 
z
M 9.421875 75.984375 
L 18.40625 75.984375 
L 18.40625 64.59375 
L 9.421875 64.59375 
z
" id="DejaVuSans-105"/>
       <path d="M 18.3125 70.21875 
L 18.3125 54.6875 
L 36.8125 54.6875 
L 36.8125 47.703125 
L 18.3125 47.703125 
L 18.3125 18.015625 
Q 18.3125 11.328125 20.140625 9.421875 
Q 21.96875 7.515625 27.59375 7.515625 
L 36.8125 7.515625 
L 36.8125 0 
L 27.59375 0 
Q 17.1875 0 13.234375 3.875 
Q 9.28125 7.765625 9.28125 18.015625 
L 9.28125 47.703125 
L 2.6875 47.703125 
L 2.6875 54.6875 
L 9.28125 54.6875 
L 9.28125 70.21875 
z
" id="DejaVuSans-116"/>
      </defs>
      <use xlink:href="#DejaVuSans-46"/>
      <use x="31.787109" xlink:href="#DejaVuSans-49"/>
      <use x="95.410156" xlink:href="#DejaVuSans-54"/>
      <use x="159.033203" xlink:href="#DejaVuSans-71"/>
      <use x="236.523438" xlink:href="#DejaVuSans-111"/>
      <use x="297.705078" xlink:href="#DejaVuSans-111"/>
      <use x="358.886719" xlink:href="#DejaVuSans-100"/>
      <use x="422.363281" xlink:href="#DejaVuSans-32"/>
      <use x="454.150391" xlink:href="#DejaVuSans-102"/>
      <use x="489.355469" xlink:href="#DejaVuSans-105"/>
      <use x="517.138672" xlink:href="#DejaVuSans-116"/>
     </g>
    </g>
   </g>
  </g>
 </g>
 <defs>
  <clipPath id="p7105ef110e">
   <rect height="266.112" width="357.12" x="57.6" y="41.472"/>
  </clipPath>
 </defs>
</svg>
