<?xml version="1.0" encoding="utf-8" standalone="no"?>
<!DOCTYPE svg PUBLIC "-//W3C//DTD SVG 1.1//EN"
  "http://www.w3.org/Graphics/SVG/1.1/DTD/svg11.dtd">
<!-- Created with matplotlib (https://matplotlib.org/) -->
<svg height="345.6pt" version="1.1" viewBox="0 0 460.8 345.6" width="460.8pt" xmlns="http://www.w3.org/2000/svg" xmlns:xlink="http://www.w3.org/1999/xlink">
 <metadata>
  <rdf:RDF xmlns:cc="http://creativecommons.org/ns#" xmlns:dc="http://purl.org/dc/elements/1.1/" xmlns:rdf="http://www.w3.org/1999/02/22-rdf-syntax-ns#">
   <cc:Work>
    <dc:type rdf:resource="http://purl.org/dc/dcmitype/StillImage"/>
    <dc:date>2021-05-17T10:46:50.799497</dc:date>
    <dc:format>image/svg+xml</dc:format>
    <dc:creator>
     <cc:Agent>
      <dc:title>Matplotlib v3.3.4, https://matplotlib.org/</dc:title>
     </cc:Agent>
    </dc:creator>
   </cc:Work>
  </rdf:RDF>
 </metadata>
 <defs>
  <style type="text/css">*{stroke-linecap:butt;stroke-linejoin:round;}</style>
 </defs>
 <g id="figure_1">
  <g id="patch_1">
   <path d="M 0 345.6 
L 460.8 345.6 
L 460.8 0 
L 0 0 
z
" style="fill:#ffffff;"/>
  </g>
  <g id="axes_1">
   <g id="patch_2">
    <path d="M 57.6 307.584 
L 414.72 307.584 
L 414.72 41.472 
L 57.6 41.472 
z
" style="fill:#ffffff;"/>
   </g>
   <g id="matplotlib.axis_1">
    <g id="xtick_1">
     <g id="line2d_1">
      <defs>
       <path d="M 0 0 
L 0 3.5 
" id="mff30ae3c03" style="stroke:#000000;stroke-width:0.8;"/>
      </defs>
      <g>
       <use style="stroke:#000000;stroke-width:0.8;" x="72.982691" xlink:href="#mff30ae3c03" y="307.584"/>
      </g>
     </g>
     <g id="text_1">
      <!-- −1.00 -->
      <g transform="translate(57.660035 322.182437)scale(0.1 -0.1)">
       <defs>
        <path d="M 10.59375 35.5 
L 73.1875 35.5 
L 73.1875 27.203125 
L 10.59375 27.203125 
z
" id="DejaVuSans-8722"/>
        <path d="M 12.40625 8.296875 
L 28.515625 8.296875 
L 28.515625 63.921875 
L 10.984375 60.40625 
L 10.984375 69.390625 
L 28.421875 72.90625 
L 38.28125 72.90625 
L 38.28125 8.296875 
L 54.390625 8.296875 
L 54.390625 0 
L 12.40625 0 
z
" id="DejaVuSans-49"/>
        <path d="M 10.6875 12.40625 
L 21 12.40625 
L 21 0 
L 10.6875 0 
z
" id="DejaVuSans-46"/>
        <path d="M 31.78125 66.40625 
Q 24.171875 66.40625 20.328125 58.90625 
Q 16.5 51.421875 16.5 36.375 
Q 16.5 21.390625 20.328125 13.890625 
Q 24.171875 6.390625 31.78125 6.390625 
Q 39.453125 6.390625 43.28125 13.890625 
Q 47.125 21.390625 47.125 36.375 
Q 47.125 51.421875 43.28125 58.90625 
Q 39.453125 66.40625 31.78125 66.40625 
z
M 31.78125 74.21875 
Q 44.046875 74.21875 50.515625 64.515625 
Q 56.984375 54.828125 56.984375 36.375 
Q 56.984375 17.96875 50.515625 8.265625 
Q 44.046875 -1.421875 31.78125 -1.421875 
Q 19.53125 -1.421875 13.0625 8.265625 
Q 6.59375 17.96875 6.59375 36.375 
Q 6.59375 54.828125 13.0625 64.515625 
Q 19.53125 74.21875 31.78125 74.21875 
z
" id="DejaVuSans-48"/>
       </defs>
       <use xlink:href="#DejaVuSans-8722"/>
       <use x="83.789062" xlink:href="#DejaVuSans-49"/>
       <use x="147.412109" xlink:href="#DejaVuSans-46"/>
       <use x="179.199219" xlink:href="#DejaVuSans-48"/>
       <use x="242.822266" xlink:href="#DejaVuSans-48"/>
      </g>
     </g>
    </g>
    <g id="xtick_2">
     <g id="line2d_2">
      <g>
       <use style="stroke:#000000;stroke-width:0.8;" x="113.769179" xlink:href="#mff30ae3c03" y="307.584"/>
      </g>
     </g>
     <g id="text_2">
      <!-- −0.75 -->
      <g transform="translate(98.446522 322.182437)scale(0.1 -0.1)">
       <defs>
        <path d="M 8.203125 72.90625 
L 55.078125 72.90625 
L 55.078125 68.703125 
L 28.609375 0 
L 18.3125 0 
L 43.21875 64.59375 
L 8.203125 64.59375 
z
" id="DejaVuSans-55"/>
        <path d="M 10.796875 72.90625 
L 49.515625 72.90625 
L 49.515625 64.59375 
L 19.828125 64.59375 
L 19.828125 46.734375 
Q 21.96875 47.46875 24.109375 47.828125 
Q 26.265625 48.1875 28.421875 48.1875 
Q 40.625 48.1875 47.75 41.5 
Q 54.890625 34.8125 54.890625 23.390625 
Q 54.890625 11.625 47.5625 5.09375 
Q 40.234375 -1.421875 26.90625 -1.421875 
Q 22.3125 -1.421875 17.546875 -0.640625 
Q 12.796875 0.140625 7.71875 1.703125 
L 7.71875 11.625 
Q 12.109375 9.234375 16.796875 8.0625 
Q 21.484375 6.890625 26.703125 6.890625 
Q 35.15625 6.890625 40.078125 11.328125 
Q 45.015625 15.765625 45.015625 23.390625 
Q 45.015625 31 40.078125 35.4375 
Q 35.15625 39.890625 26.703125 39.890625 
Q 22.75 39.890625 18.8125 39.015625 
Q 14.890625 38.140625 10.796875 36.28125 
z
" id="DejaVuSans-53"/>
       </defs>
       <use xlink:href="#DejaVuSans-8722"/>
       <use x="83.789062" xlink:href="#DejaVuSans-48"/>
       <use x="147.412109" xlink:href="#DejaVuSans-46"/>
       <use x="179.199219" xlink:href="#DejaVuSans-55"/>
       <use x="242.822266" xlink:href="#DejaVuSans-53"/>
      </g>
     </g>
    </g>
    <g id="xtick_3">
     <g id="line2d_3">
      <g>
       <use style="stroke:#000000;stroke-width:0.8;" x="154.555666" xlink:href="#mff30ae3c03" y="307.584"/>
      </g>
     </g>
     <g id="text_3">
      <!-- −0.50 -->
      <g transform="translate(139.23301 322.182437)scale(0.1 -0.1)">
       <use xlink:href="#DejaVuSans-8722"/>
       <use x="83.789062" xlink:href="#DejaVuSans-48"/>
       <use x="147.412109" xlink:href="#DejaVuSans-46"/>
       <use x="179.199219" xlink:href="#DejaVuSans-53"/>
       <use x="242.822266" xlink:href="#DejaVuSans-48"/>
      </g>
     </g>
    </g>
    <g id="xtick_4">
     <g id="line2d_4">
      <g>
       <use style="stroke:#000000;stroke-width:0.8;" x="195.342153" xlink:href="#mff30ae3c03" y="307.584"/>
      </g>
     </g>
     <g id="text_4">
      <!-- −0.25 -->
      <g transform="translate(180.019497 322.182437)scale(0.1 -0.1)">
       <defs>
        <path d="M 19.1875 8.296875 
L 53.609375 8.296875 
L 53.609375 0 
L 7.328125 0 
L 7.328125 8.296875 
Q 12.9375 14.109375 22.625 23.890625 
Q 32.328125 33.6875 34.8125 36.53125 
Q 39.546875 41.84375 41.421875 45.53125 
Q 43.3125 49.21875 43.3125 52.78125 
Q 43.3125 58.59375 39.234375 62.25 
Q 35.15625 65.921875 28.609375 65.921875 
Q 23.96875 65.921875 18.8125 64.3125 
Q 13.671875 62.703125 7.8125 59.421875 
L 7.8125 69.390625 
Q 13.765625 71.78125 18.9375 73 
Q 24.125 74.21875 28.421875 74.21875 
Q 39.75 74.21875 46.484375 68.546875 
Q 53.21875 62.890625 53.21875 53.421875 
Q 53.21875 48.921875 51.53125 44.890625 
Q 49.859375 40.875 45.40625 35.40625 
Q 44.1875 33.984375 37.640625 27.21875 
Q 31.109375 20.453125 19.1875 8.296875 
z
" id="DejaVuSans-50"/>
       </defs>
       <use xlink:href="#DejaVuSans-8722"/>
       <use x="83.789062" xlink:href="#DejaVuSans-48"/>
       <use x="147.412109" xlink:href="#DejaVuSans-46"/>
       <use x="179.199219" xlink:href="#DejaVuSans-50"/>
       <use x="242.822266" xlink:href="#DejaVuSans-53"/>
      </g>
     </g>
    </g>
    <g id="xtick_5">
     <g id="line2d_5">
      <g>
       <use style="stroke:#000000;stroke-width:0.8;" x="236.128641" xlink:href="#mff30ae3c03" y="307.584"/>
      </g>
     </g>
     <g id="text_5">
      <!-- 0.00 -->
      <g transform="translate(224.995828 322.182437)scale(0.1 -0.1)">
       <use xlink:href="#DejaVuSans-48"/>
       <use x="63.623047" xlink:href="#DejaVuSans-46"/>
       <use x="95.410156" xlink:href="#DejaVuSans-48"/>
       <use x="159.033203" xlink:href="#DejaVuSans-48"/>
      </g>
     </g>
    </g>
    <g id="xtick_6">
     <g id="line2d_6">
      <g>
       <use style="stroke:#000000;stroke-width:0.8;" x="276.915128" xlink:href="#mff30ae3c03" y="307.584"/>
      </g>
     </g>
     <g id="text_6">
      <!-- 0.25 -->
      <g transform="translate(265.782316 322.182437)scale(0.1 -0.1)">
       <use xlink:href="#DejaVuSans-48"/>
       <use x="63.623047" xlink:href="#DejaVuSans-46"/>
       <use x="95.410156" xlink:href="#DejaVuSans-50"/>
       <use x="159.033203" xlink:href="#DejaVuSans-53"/>
      </g>
     </g>
    </g>
    <g id="xtick_7">
     <g id="line2d_7">
      <g>
       <use style="stroke:#000000;stroke-width:0.8;" x="317.701616" xlink:href="#mff30ae3c03" y="307.584"/>
      </g>
     </g>
     <g id="text_7">
      <!-- 0.50 -->
      <g transform="translate(306.568803 322.182437)scale(0.1 -0.1)">
       <use xlink:href="#DejaVuSans-48"/>
       <use x="63.623047" xlink:href="#DejaVuSans-46"/>
       <use x="95.410156" xlink:href="#DejaVuSans-53"/>
       <use x="159.033203" xlink:href="#DejaVuSans-48"/>
      </g>
     </g>
    </g>
    <g id="xtick_8">
     <g id="line2d_8">
      <g>
       <use style="stroke:#000000;stroke-width:0.8;" x="358.488103" xlink:href="#mff30ae3c03" y="307.584"/>
      </g>
     </g>
     <g id="text_8">
      <!-- 0.75 -->
      <g transform="translate(347.35529 322.182437)scale(0.1 -0.1)">
       <use xlink:href="#DejaVuSans-48"/>
       <use x="63.623047" xlink:href="#DejaVuSans-46"/>
       <use x="95.410156" xlink:href="#DejaVuSans-55"/>
       <use x="159.033203" xlink:href="#DejaVuSans-53"/>
      </g>
     </g>
    </g>
    <g id="xtick_9">
     <g id="line2d_9">
      <g>
       <use style="stroke:#000000;stroke-width:0.8;" x="399.27459" xlink:href="#mff30ae3c03" y="307.584"/>
      </g>
     </g>
     <g id="text_9">
      <!-- 1.00 -->
      <g transform="translate(388.141778 322.182437)scale(0.1 -0.1)">
       <use xlink:href="#DejaVuSans-49"/>
       <use x="63.623047" xlink:href="#DejaVuSans-46"/>
       <use x="95.410156" xlink:href="#DejaVuSans-48"/>
       <use x="159.033203" xlink:href="#DejaVuSans-48"/>
      </g>
     </g>
    </g>
   </g>
   <g id="matplotlib.axis_2">
    <g id="ytick_1">
     <g id="line2d_10">
      <defs>
       <path d="M 0 0 
L -3.5 0 
" id="m3952f6b83d" style="stroke:#000000;stroke-width:0.8;"/>
      </defs>
      <g>
       <use style="stroke:#000000;stroke-width:0.8;" x="57.6" xlink:href="#m3952f6b83d" y="295.488"/>
      </g>
     </g>
     <g id="text_10">
      <!-- 0 -->
      <g transform="translate(44.2375 299.287219)scale(0.1 -0.1)">
       <use xlink:href="#DejaVuSans-48"/>
      </g>
     </g>
    </g>
    <g id="ytick_2">
     <g id="line2d_11">
      <g>
       <use style="stroke:#000000;stroke-width:0.8;" x="57.6" xlink:href="#m3952f6b83d" y="243.071238"/>
      </g>
     </g>
     <g id="text_11">
      <!-- 2 -->
      <g transform="translate(44.2375 246.870457)scale(0.1 -0.1)">
       <use xlink:href="#DejaVuSans-50"/>
      </g>
     </g>
    </g>
    <g id="ytick_3">
     <g id="line2d_12">
      <g>
       <use style="stroke:#000000;stroke-width:0.8;" x="57.6" xlink:href="#m3952f6b83d" y="190.654476"/>
      </g>
     </g>
     <g id="text_12">
      <!-- 4 -->
      <g transform="translate(44.2375 194.453695)scale(0.1 -0.1)">
       <defs>
        <path d="M 37.796875 64.3125 
L 12.890625 25.390625 
L 37.796875 25.390625 
z
M 35.203125 72.90625 
L 47.609375 72.90625 
L 47.609375 25.390625 
L 58.015625 25.390625 
L 58.015625 17.1875 
L 47.609375 17.1875 
L 47.609375 0 
L 37.796875 0 
L 37.796875 17.1875 
L 4.890625 17.1875 
L 4.890625 26.703125 
z
" id="DejaVuSans-52"/>
       </defs>
       <use xlink:href="#DejaVuSans-52"/>
      </g>
     </g>
    </g>
    <g id="ytick_4">
     <g id="line2d_13">
      <g>
       <use style="stroke:#000000;stroke-width:0.8;" x="57.6" xlink:href="#m3952f6b83d" y="138.237714"/>
      </g>
     </g>
     <g id="text_13">
      <!-- 6 -->
      <g transform="translate(44.2375 142.036932)scale(0.1 -0.1)">
       <defs>
        <path d="M 33.015625 40.375 
Q 26.375 40.375 22.484375 35.828125 
Q 18.609375 31.296875 18.609375 23.390625 
Q 18.609375 15.53125 22.484375 10.953125 
Q 26.375 6.390625 33.015625 6.390625 
Q 39.65625 6.390625 43.53125 10.953125 
Q 47.40625 15.53125 47.40625 23.390625 
Q 47.40625 31.296875 43.53125 35.828125 
Q 39.65625 40.375 33.015625 40.375 
z
M 52.59375 71.296875 
L 52.59375 62.3125 
Q 48.875 64.0625 45.09375 64.984375 
Q 41.3125 65.921875 37.59375 65.921875 
Q 27.828125 65.921875 22.671875 59.328125 
Q 17.53125 52.734375 16.796875 39.40625 
Q 19.671875 43.65625 24.015625 45.921875 
Q 28.375 48.1875 33.59375 48.1875 
Q 44.578125 48.1875 50.953125 41.515625 
Q 57.328125 34.859375 57.328125 23.390625 
Q 57.328125 12.15625 50.6875 5.359375 
Q 44.046875 -1.421875 33.015625 -1.421875 
Q 20.359375 -1.421875 13.671875 8.265625 
Q 6.984375 17.96875 6.984375 36.375 
Q 6.984375 53.65625 15.1875 63.9375 
Q 23.390625 74.21875 37.203125 74.21875 
Q 40.921875 74.21875 44.703125 73.484375 
Q 48.484375 72.75 52.59375 71.296875 
z
" id="DejaVuSans-54"/>
       </defs>
       <use xlink:href="#DejaVuSans-54"/>
      </g>
     </g>
    </g>
    <g id="ytick_5">
     <g id="line2d_14">
      <g>
       <use style="stroke:#000000;stroke-width:0.8;" x="57.6" xlink:href="#m3952f6b83d" y="85.820952"/>
      </g>
     </g>
     <g id="text_14">
      <!-- 8 -->
      <g transform="translate(44.2375 89.62017)scale(0.1 -0.1)">
       <defs>
        <path d="M 31.78125 34.625 
Q 24.75 34.625 20.71875 30.859375 
Q 16.703125 27.09375 16.703125 20.515625 
Q 16.703125 13.921875 20.71875 10.15625 
Q 24.75 6.390625 31.78125 6.390625 
Q 38.8125 6.390625 42.859375 10.171875 
Q 46.921875 13.96875 46.921875 20.515625 
Q 46.921875 27.09375 42.890625 30.859375 
Q 38.875 34.625 31.78125 34.625 
z
M 21.921875 38.8125 
Q 15.578125 40.375 12.03125 44.71875 
Q 8.5 49.078125 8.5 55.328125 
Q 8.5 64.0625 14.71875 69.140625 
Q 20.953125 74.21875 31.78125 74.21875 
Q 42.671875 74.21875 48.875 69.140625 
Q 55.078125 64.0625 55.078125 55.328125 
Q 55.078125 49.078125 51.53125 44.71875 
Q 48 40.375 41.703125 38.8125 
Q 48.828125 37.15625 52.796875 32.3125 
Q 56.78125 27.484375 56.78125 20.515625 
Q 56.78125 9.90625 50.3125 4.234375 
Q 43.84375 -1.421875 31.78125 -1.421875 
Q 19.734375 -1.421875 13.25 4.234375 
Q 6.78125 9.90625 6.78125 20.515625 
Q 6.78125 27.484375 10.78125 32.3125 
Q 14.796875 37.15625 21.921875 38.8125 
z
M 18.3125 54.390625 
Q 18.3125 48.734375 21.84375 45.5625 
Q 25.390625 42.390625 31.78125 42.390625 
Q 38.140625 42.390625 41.71875 45.5625 
Q 45.3125 48.734375 45.3125 54.390625 
Q 45.3125 60.0625 41.71875 63.234375 
Q 38.140625 66.40625 31.78125 66.40625 
Q 25.390625 66.40625 21.84375 63.234375 
Q 18.3125 60.0625 18.3125 54.390625 
z
" id="DejaVuSans-56"/>
       </defs>
       <use xlink:href="#DejaVuSans-56"/>
      </g>
     </g>
    </g>
   </g>
   <g id="line2d_15">
    <path clip-path="url(#p4b819ec51a)" d="M 73.832727 293.211523 
L 74.884751 293.448125 
L 75.936775 292.941121 
L 78.251227 293.346724 
L 79.303251 292.73832 
L 80.56568 293.076322 
L 81.617703 293.481925 
L 82.669727 293.583326 
L 83.511346 293.414324 
L 84.56337 293.549525 
L 85.615394 293.887527 
L 87.719441 293.988928 
L 88.771465 294.25933 
L 89.823489 294.394531 
L 91.085918 294.36073 
L 92.137941 294.529732 
L 97.608465 294.664932 
L 103.078989 294.32693 
L 104.131013 293.786127 
L 107.287084 293.988928 
L 108.549513 293.279124 
L 109.391132 293.042522 
L 110.443156 293.448125 
L 111.495179 293.414324 
L 112.547203 292.70452 
L 113.809632 291.994715 
L 115.913679 292.974922 
L 116.965703 292.535519 
L 118.017727 291.521512 
L 120.332179 292.805921 
L 121.594608 292.839721 
L 122.646632 292.265117 
L 123.698656 291.386312 
L 124.540275 291.893315 
L 125.592298 292.77212 
L 126.433917 293.177723 
L 127.275536 293.076322 
L 128.32756 292.63692 
L 129.379584 293.110123 
L 131.694036 293.988928 
L 135.060513 294.090329 
L 136.112536 294.529732 
L 139.268608 294.766333 
L 141.162251 294.800133 
L 143.476703 294.732533 
L 144.528727 294.428331 
L 145.580751 293.887527 
L 146.843179 293.549525 
L 148.947227 293.414324 
L 149.999251 293.177723 
L 151.051274 292.70452 
L 152.313703 291.318711 
L 153.365727 289.932902 
L 154.417751 289.6287 
L 155.469774 290.237104 
L 156.732203 290.439906 
L 157.784227 290.169504 
L 158.836251 289.6287 
L 159.888274 287.837289 
L 160.940298 285.741676 
L 161.992322 285.167072 
L 163.25475 285.809276 
L 164.306774 287.465487 
L 165.148393 288.073891 
L 166.200417 288.513293 
L 167.252441 288.580894 
L 168.304465 287.904889 
L 169.356489 286.45148 
L 170.408512 285.471274 
L 171.460536 285.741676 
L 172.51256 286.890883 
L 173.564584 288.851295 
L 175.458227 290.946909 
L 178.614298 292.400318 
L 179.666322 292.63692 
L 183.664012 294.22553 
L 185.76806 294.698733 
L 188.082512 294.32693 
L 190.18656 293.042522 
L 191.238584 292.129916 
L 193.553036 289.054097 
L 194.815465 286.789482 
L 196.077893 284.119265 
L 198.181941 274.553805 
L 199.444369 269.686574 
L 201.758822 255.01728 
L 202.810845 245.925023 
L 204.073274 237.914372 
L 206.387726 221.791669 
L 207.650155 213.98382 
L 209.964607 196.77951 
L 211.227036 189.512464 
L 212.27906 185.287437 
L 213.331083 177.614788 
L 214.593512 170.719545 
L 215.855941 167.508524 
L 217.118369 160.54568 
L 218.170393 149.797212 
L 219.432822 142.293564 
L 220.69525 138.54174 
L 221.747274 125.021654 
L 222.799298 118.870015 
L 227.849012 83.751592 
L 228.901036 78.140756 
L 230.163464 75.842342 
L 231.215488 66.310681 
L 232.267512 53.568 
L 233.319536 62.491257 
L 234.37156 62.592657 
L 235.633988 74.152331 
L 236.896417 81.148975 
L 237.94844 93.790256 
L 240.262893 125.663858 
L 241.314917 138.237538 
L 242.36694 153.413835 
L 243.418964 161.593487 
L 244.470988 171.733551 
L 245.523012 179.135798 
L 246.78544 185.118436 
L 247.627059 188.126655 
L 250.151917 188.261856 
L 251.414345 181.400413 
L 252.466369 176.397981 
L 253.728798 176.533182 
L 254.780821 180.149805 
L 255.832845 193.162887 
L 258.357702 226.861701 
L 259.620131 243.491407 
L 260.672155 251.197856 
L 261.934583 256.098887 
L 262.776202 260.222514 
L 263.828226 262.960331 
L 265.932274 263.872937 
L 267.194702 265.867149 
L 268.246726 269.314771 
L 270.561178 281.922251 
L 271.613202 286.755682 
L 272.665226 289.392099 
L 273.71725 291.318711 
L 278.346154 294.22553 
L 279.398178 295.002935 
L 280.450202 295.205736 
L 281.712631 295.138135 
L 283.816678 294.495931 
L 284.868702 293.752327 
L 286.131131 292.70452 
L 287.393559 291.859515 
L 289.708012 291.758114 
L 290.760035 291.048309 
L 292.022464 289.4935 
L 292.864083 287.499287 
L 293.916107 286.147278 
L 294.757726 286.012077 
L 296.651369 288.209091 
L 297.282583 288.276692 
L 298.334607 286.857083 
L 299.386631 284.186866 
L 300.438654 283.34186 
L 301.280273 284.592468 
L 302.332297 286.958483 
L 303.173916 288.04009 
L 304.015535 288.242892 
L 306.119583 285.302273 
L 306.961202 285.944477 
L 308.013226 289.392099 
L 309.06525 290.169504 
L 310.117273 289.4935 
L 311.169297 288.614694 
L 312.221321 290.034303 
L 313.273345 291.825714 
L 314.535773 292.70452 
L 315.377392 292.400318 
L 316.429416 292.400318 
L 317.691845 293.549525 
L 318.533464 294.124129 
L 320.637511 294.495931 
L 321.89994 294.698733 
L 322.951964 295.070535 
L 325.266416 295.171936 
L 328.422487 295.104335 
L 331.788964 294.29313 
L 332.840987 294.36073 
L 334.945035 293.887527 
L 336.838678 293.076322 
L 337.890702 293.380524 
L 338.732321 293.008722 
L 339.784345 291.825714 
L 341.677987 292.805921 
L 342.519606 292.197517 
L 343.57163 290.811708 
L 344.623654 292.434118 
L 345.886083 292.163717 
L 346.938106 291.217311 
L 348.200535 291.014509 
L 349.252559 292.63692 
L 350.725392 291.893315 
L 351.987821 291.521512 
L 353.250249 293.076322 
L 354.512678 292.467918 
L 355.775106 292.231317 
L 357.037535 293.414324 
L 359.351987 292.941121 
L 360.614416 294.056529 
L 361.876844 294.124129 
L 363.139273 294.022728 
L 365.032916 294.597332 
L 367.136963 294.698733 
L 368.399392 295.002935 
L 369.661821 294.969134 
L 371.976273 295.104335 
L 375.763559 295.002935 
L 378.288416 294.698733 
L 379.550844 294.698733 
L 380.813273 294.29313 
L 382.075701 294.495931 
L 383.33813 294.157929 
L 384.600559 294.056529 
L 385.862987 294.191729 
L 387.125416 293.448125 
L 388.387844 293.752327 
L 389.650273 293.650926 
L 390.912701 293.143923 
L 392.17513 293.718526 
L 393.437558 293.143923 
L 394.489582 293.515725 
L 395.962416 293.481925 
L 397.014439 292.941121 
L 398.487273 293.819927 
L 398.487273 293.819927 
" style="fill:none;stroke:#1f77b4;stroke-linecap:square;stroke-width:1.5;"/>
   </g>
   <g id="line2d_16">
    <path clip-path="url(#p4b819ec51a)" d="M 73.832727 293.884752 
L 78.057461 294.245024 
L 90.081704 295.45321 
L 93.331499 295.466821 
L 96.581294 295.251385 
L 99.831089 294.815129 
L 104.055823 294.007046 
L 111.530352 292.54086 
L 114.455168 292.201139 
L 117.379984 292.09497 
L 119.97982 292.220405 
L 122.904636 292.600859 
L 126.154431 293.26122 
L 134.928878 295.211963 
L 137.528714 295.465885 
L 139.803571 295.446938 
L 141.753448 295.223399 
L 143.703325 294.797621 
L 145.978182 294.049541 
L 148.253038 293.057595 
L 151.177854 291.510289 
L 158.652383 287.370429 
L 160.60226 286.580058 
L 162.552138 286.033957 
L 164.177035 285.801843 
L 165.801933 285.794984 
L 167.42683 286.024897 
L 169.051728 286.492365 
L 170.676626 287.186218 
L 172.626503 288.282957 
L 174.90136 289.839394 
L 180.750991 294.038714 
L 182.375889 294.873476 
L 183.675807 295.311391 
L 184.975725 295.48691 
L 185.950663 295.413901 
L 186.925602 295.140448 
L 187.900541 294.644553 
L 188.875479 293.904985 
L 189.850418 292.901547 
L 190.825356 291.615333 
L 191.800295 290.02899 
L 193.100213 287.420401 
L 194.400131 284.219703 
L 195.700049 280.403137 
L 196.999967 275.95515 
L 198.624865 269.498025 
L 200.249762 262.052683 
L 201.87466 253.651562 
L 203.824537 242.391201 
L 206.099394 227.818886 
L 208.69923 209.667768 
L 212.923964 178.318502 
L 217.148698 147.46339 
L 219.423554 132.262444 
L 221.373432 120.542969 
L 222.998329 111.93554 
L 224.623227 104.55177 
L 225.923145 99.619232 
L 227.223063 95.618084 
L 228.198002 93.258123 
L 229.17294 91.465859 
L 230.147879 90.253635 
L 230.797838 89.772027 
L 231.447797 89.553497 
L 232.097756 89.598715 
L 232.747715 89.907542 
L 233.397674 90.479029 
L 234.047633 91.311422 
L 235.022572 93.043406 
L 235.99751 95.344564 
L 236.972449 98.199087 
L 238.272367 102.831617 
L 239.572285 108.356713 
L 241.197183 116.416283 
L 242.82208 125.616621 
L 244.771957 137.924861 
L 247.371794 155.961276 
L 251.596527 187.302302 
L 255.821261 218.195505 
L 258.421097 235.668187 
L 260.695954 249.454245 
L 262.645831 259.934871 
L 264.270729 267.635628 
L 265.895627 274.354296 
L 267.520524 280.076514 
L 268.820442 283.942261 
L 270.12036 287.190611 
L 271.420278 289.844705 
L 272.720197 291.935125 
L 273.695135 293.155127 
L 274.670074 294.096547 
L 275.645012 294.778607 
L 276.619951 295.221764 
L 277.594889 295.447449 
L 278.569828 295.477797 
L 279.869746 295.25347 
L 281.169664 294.77599 
L 282.794562 293.904531 
L 284.744439 292.588859 
L 291.244029 287.948831 
L 293.193907 286.928227 
L 294.818804 286.308664 
L 296.443702 285.920649 
L 298.0686 285.771206 
L 299.693497 285.855782 
L 301.318395 286.159567 
L 303.268272 286.779883 
L 305.543129 287.787546 
L 308.467944 289.375696 
L 314.967535 293.008058 
L 317.242391 294.009917 
L 319.517248 294.769723 
L 321.467125 295.20614 
L 323.417002 295.440136 
L 325.691859 295.470229 
L 327.966716 295.271122 
L 330.566552 294.826423 
L 334.791286 293.835459 
L 339.665979 292.734804 
L 342.590794 292.295181 
L 345.190631 292.10971 
L 347.790467 292.132588 
L 350.715283 292.391807 
L 353.965078 292.909861 
L 360.139689 294.188448 
L 364.364423 294.951819 
L 367.614218 295.332055 
L 370.864013 295.484992 
L 374.113808 295.413879 
L 378.013563 295.094174 
L 391.012744 293.812324 
L 394.912498 293.789711 
L 398.487273 293.965976 
L 398.487273 293.965976 
" style="fill:none;stroke:#ff7f0e;stroke-linecap:square;stroke-width:1.5;"/>
   </g>
   <g id="patch_3">
    <path d="M 57.6 307.584 
L 57.6 41.472 
" style="fill:none;stroke:#000000;stroke-linecap:square;stroke-linejoin:miter;stroke-width:0.8;"/>
   </g>
   <g id="patch_4">
    <path d="M 414.72 307.584 
L 414.72 41.472 
" style="fill:none;stroke:#000000;stroke-linecap:square;stroke-linejoin:miter;stroke-width:0.8;"/>
   </g>
   <g id="patch_5">
    <path d="M 57.6 307.584 
L 414.72 307.584 
" style="fill:none;stroke:#000000;stroke-linecap:square;stroke-linejoin:miter;stroke-width:0.8;"/>
   </g>
   <g id="patch_6">
    <path d="M 57.6 41.472 
L 414.72 41.472 
" style="fill:none;stroke:#000000;stroke-linecap:square;stroke-linejoin:miter;stroke-width:0.8;"/>
   </g>
   <g id="legend_1">
    <g id="patch_7">
     <path d="M 321.812188 78.82825 
L 407.72 78.82825 
Q 409.72 78.82825 409.72 76.82825 
L 409.72 48.472 
Q 409.72 46.472 407.72 46.472 
L 321.812188 46.472 
Q 319.812188 46.472 319.812188 48.472 
L 319.812188 76.82825 
Q 319.812188 78.82825 321.812188 78.82825 
z
" style="fill:#ffffff;opacity:0.8;stroke:#cccccc;stroke-linejoin:miter;"/>
    </g>
    <g id="line2d_17">
     <path d="M 323.812188 54.570437 
L 343.812188 54.570437 
" style="fill:none;stroke:#1f77b4;stroke-linecap:square;stroke-width:1.5;"/>
    </g>
    <g id="line2d_18"/>
    <g id="text_15">
     <!-- .02exp2 -->
     <g transform="translate(351.812188 58.070437)scale(0.1 -0.1)">
      <defs>
       <path d="M 56.203125 29.59375 
L 56.203125 25.203125 
L 14.890625 25.203125 
Q 15.484375 15.921875 20.484375 11.0625 
Q 25.484375 6.203125 34.421875 6.203125 
Q 39.59375 6.203125 44.453125 7.46875 
Q 49.3125 8.734375 54.109375 11.28125 
L 54.109375 2.78125 
Q 49.265625 0.734375 44.1875 -0.34375 
Q 39.109375 -1.421875 33.890625 -1.421875 
Q 20.796875 -1.421875 13.15625 6.1875 
Q 5.515625 13.8125 5.515625 26.8125 
Q 5.515625 40.234375 12.765625 48.109375 
Q 20.015625 56 32.328125 56 
Q 43.359375 56 49.78125 48.890625 
Q 56.203125 41.796875 56.203125 29.59375 
z
M 47.21875 32.234375 
Q 47.125 39.59375 43.09375 43.984375 
Q 39.0625 48.390625 32.421875 48.390625 
Q 24.90625 48.390625 20.390625 44.140625 
Q 15.875 39.890625 15.1875 32.171875 
z
" id="DejaVuSans-101"/>
       <path d="M 54.890625 54.6875 
L 35.109375 28.078125 
L 55.90625 0 
L 45.3125 0 
L 29.390625 21.484375 
L 13.484375 0 
L 2.875 0 
L 24.125 28.609375 
L 4.6875 54.6875 
L 15.28125 54.6875 
L 29.78125 35.203125 
L 44.28125 54.6875 
z
" id="DejaVuSans-120"/>
       <path d="M 18.109375 8.203125 
L 18.109375 -20.796875 
L 9.078125 -20.796875 
L 9.078125 54.6875 
L 18.109375 54.6875 
L 18.109375 46.390625 
Q 20.953125 51.265625 25.265625 53.625 
Q 29.59375 56 35.59375 56 
Q 45.5625 56 51.78125 48.09375 
Q 58.015625 40.1875 58.015625 27.296875 
Q 58.015625 14.40625 51.78125 6.484375 
Q 45.5625 -1.421875 35.59375 -1.421875 
Q 29.59375 -1.421875 25.265625 0.953125 
Q 20.953125 3.328125 18.109375 8.203125 
z
M 48.6875 27.296875 
Q 48.6875 37.203125 44.609375 42.84375 
Q 40.53125 48.484375 33.40625 48.484375 
Q 26.265625 48.484375 22.1875 42.84375 
Q 18.109375 37.203125 18.109375 27.296875 
Q 18.109375 17.390625 22.1875 11.75 
Q 26.265625 6.109375 33.40625 6.109375 
Q 40.53125 6.109375 44.609375 11.75 
Q 48.6875 17.390625 48.6875 27.296875 
z
" id="DejaVuSans-112"/>
      </defs>
      <use xlink:href="#DejaVuSans-46"/>
      <use x="31.787109" xlink:href="#DejaVuSans-48"/>
      <use x="95.410156" xlink:href="#DejaVuSans-50"/>
      <use x="159.033203" xlink:href="#DejaVuSans-101"/>
      <use x="218.806641" xlink:href="#DejaVuSans-120"/>
      <use x="277.986328" xlink:href="#DejaVuSans-112"/>
      <use x="341.462891" xlink:href="#DejaVuSans-50"/>
     </g>
    </g>
    <g id="line2d_19">
     <path d="M 323.812188 69.248562 
L 343.812188 69.248562 
" style="fill:none;stroke:#ff7f0e;stroke-linecap:square;stroke-width:1.5;"/>
    </g>
    <g id="line2d_20"/>
    <g id="text_16">
     <!-- .02exp2 fit -->
     <g transform="translate(351.812188 72.748562)scale(0.1 -0.1)">
      <defs>
       <path id="DejaVuSans-32"/>
       <path d="M 37.109375 75.984375 
L 37.109375 68.5 
L 28.515625 68.5 
Q 23.6875 68.5 21.796875 66.546875 
Q 19.921875 64.59375 19.921875 59.515625 
L 19.921875 54.6875 
L 34.71875 54.6875 
L 34.71875 47.703125 
L 19.921875 47.703125 
L 19.921875 0 
L 10.890625 0 
L 10.890625 47.703125 
L 2.296875 47.703125 
L 2.296875 54.6875 
L 10.890625 54.6875 
L 10.890625 58.5 
Q 10.890625 67.625 15.140625 71.796875 
Q 19.390625 75.984375 28.609375 75.984375 
z
" id="DejaVuSans-102"/>
       <path d="M 9.421875 54.6875 
L 18.40625 54.6875 
L 18.40625 0 
L 9.421875 0 
z
M 9.421875 75.984375 
L 18.40625 75.984375 
L 18.40625 64.59375 
L 9.421875 64.59375 
z
" id="DejaVuSans-105"/>
       <path d="M 18.3125 70.21875 
L 18.3125 54.6875 
L 36.8125 54.6875 
L 36.8125 47.703125 
L 18.3125 47.703125 
L 18.3125 18.015625 
Q 18.3125 11.328125 20.140625 9.421875 
Q 21.96875 7.515625 27.59375 7.515625 
L 36.8125 7.515625 
L 36.8125 0 
L 27.59375 0 
Q 17.1875 0 13.234375 3.875 
Q 9.28125 7.765625 9.28125 18.015625 
L 9.28125 47.703125 
L 2.6875 47.703125 
L 2.6875 54.6875 
L 9.28125 54.6875 
L 9.28125 70.21875 
z
" id="DejaVuSans-116"/>
      </defs>
      <use xlink:href="#DejaVuSans-46"/>
      <use x="31.787109" xlink:href="#DejaVuSans-48"/>
      <use x="95.410156" xlink:href="#DejaVuSans-50"/>
      <use x="159.033203" xlink:href="#DejaVuSans-101"/>
      <use x="218.806641" xlink:href="#DejaVuSans-120"/>
      <use x="277.986328" xlink:href="#DejaVuSans-112"/>
      <use x="341.462891" xlink:href="#DejaVuSans-50"/>
      <use x="405.085938" xlink:href="#DejaVuSans-32"/>
      <use x="436.873047" xlink:href="#DejaVuSans-102"/>
      <use x="472.078125" xlink:href="#DejaVuSans-105"/>
      <use x="499.861328" xlink:href="#DejaVuSans-116"/>
     </g>
    </g>
   </g>
  </g>
 </g>
 <defs>
  <clipPath id="p4b819ec51a">
   <rect height="266.112" width="357.12" x="57.6" y="41.472"/>
  </clipPath>
 </defs>
</svg>
